<?xml version="1.0" encoding="utf-8" standalone="no"?>
<!DOCTYPE svg PUBLIC "-//W3C//DTD SVG 1.1//EN"
  "http://www.w3.org/Graphics/SVG/1.1/DTD/svg11.dtd">
<!-- Created with matplotlib (https://matplotlib.org/) -->
<svg height="144pt" version="1.1" viewBox="0 0 1728 144" width="1728pt" xmlns="http://www.w3.org/2000/svg" xmlns:xlink="http://www.w3.org/1999/xlink">
 <defs>
  <style type="text/css">
*{stroke-linecap:butt;stroke-linejoin:round;}
  </style>
 </defs>
 <g id="figure_1">
  <g id="patch_1">
   <path d="M 0 144 
L 1728 144 
L 1728 0 
L 0 0 
z
" style="fill:#ffffff;"/>
  </g>
  <g id="axes_1">
   <g id="patch_2">
    <path d="M 158.976 74.88 
C 158.976 74.874213 158.975999 74.868426 158.975997 74.862639 
C 158.975995 74.856852 158.975993 74.851064 158.975989 74.845277 
L 103.68 74.88 
L 158.976 74.88 
z
" style="fill:#66c2a5;stroke:#ffffff;stroke-linejoin:miter;"/>
   </g>
   <g id="patch_3">
    <path d="M 158.975989 74.845277 
C 158.975757 74.476424 158.971835 74.107582 158.964223 73.738808 
C 158.95661 73.370033 158.945308 73.001343 158.930318 72.632795 
L 103.68 74.88 
L 158.975989 74.845277 
z
" style="fill:#fc8d62;stroke:#ffffff;stroke-linejoin:miter;"/>
   </g>
   <g id="patch_4">
    <path d="M 158.930318 72.632795 
C 158.637228 65.426815 156.937198 58.347289 153.92622 51.793965 
C 150.915242 45.240641 146.651075 39.339229 141.374496 34.422953 
C 136.097917 29.506678 129.910146 25.669847 123.160576 23.129108 
C 116.411006 20.588369 109.229113 19.392461 102.020424 19.60891 
C 94.811735 19.825359 87.714532 21.450013 81.129561 24.391137 
C 74.544591 27.33226 68.598169 31.533434 63.626064 36.757437 
C 58.653958 41.981441 54.751547 48.128063 52.13918 54.850235 
C 49.526813 61.572406 48.254604 68.741177 48.394388 75.95176 
C 48.534171 83.162343 50.083266 90.27642 52.954202 96.892292 
C 55.825138 103.508165 59.962843 109.498923 65.133681 114.526297 
C 70.304518 119.553671 76.409297 123.521221 83.10331 126.20492 
C 89.797323 128.888619 96.95216 130.236985 104.163822 130.173883 
C 111.375484 130.110781 118.50563 128.637421 125.151657 125.836997 
C 131.797684 123.036573 137.832102 118.962804 142.914175 113.845717 
C 147.996248 108.728631 152.02849 102.666385 154.783217 96.001288 
C 157.537945 89.336191 158.962315 82.196096 158.975902 74.984171 
L 103.68 74.88 
L 158.930318 72.632795 
z
" style="fill:#8da0cb;stroke:#ffffff;stroke-linejoin:miter;"/>
   </g>
   <g id="patch_5">
    <path d="M 158.975902 74.984171 
C 158.975913 74.978384 158.975923 74.972597 158.975932 74.966809 
C 158.975941 74.961022 158.975949 74.955235 158.975956 74.949448 
L 103.68 74.88 
L 158.975902 74.984171 
z
" style="fill:#e78ac3;stroke:#ffffff;stroke-linejoin:miter;"/>
   </g>
   <g id="patch_6">
    <path d="M 158.975956 74.949448 
C 158.975964 74.943661 158.97597 74.937874 158.975975 74.932087 
C 158.975981 74.9263 158.975985 74.920513 158.975989 74.914726 
L 103.68 74.88 
L 158.975956 74.949448 
z
" style="fill:#a6d854;stroke:#ffffff;stroke-linejoin:miter;"/>
   </g>
   <g id="patch_7">
    <path d="M 158.975989 74.914726 
C 158.975993 74.908938 158.975995 74.903151 158.975997 74.897364 
C 158.975999 74.891577 158.976 74.88579 158.976 74.880003 
L 103.68 74.88 
L 158.975989 74.914726 
z
" style="fill:#ffd92f;stroke:#ffffff;stroke-linejoin:miter;"/>
   </g>
   <g id="text_1">
    <!-- Forehead_1 -->
    <defs>
     <path d="M 9.8125 72.90625 
L 51.703125 72.90625 
L 51.703125 64.59375 
L 19.671875 64.59375 
L 19.671875 43.109375 
L 48.578125 43.109375 
L 48.578125 34.8125 
L 19.671875 34.8125 
L 19.671875 0 
L 9.8125 0 
z
" id="DejaVuSans-70"/>
     <path d="M 30.609375 48.390625 
Q 23.390625 48.390625 19.1875 42.75 
Q 14.984375 37.109375 14.984375 27.296875 
Q 14.984375 17.484375 19.15625 11.84375 
Q 23.34375 6.203125 30.609375 6.203125 
Q 37.796875 6.203125 41.984375 11.859375 
Q 46.1875 17.53125 46.1875 27.296875 
Q 46.1875 37.015625 41.984375 42.703125 
Q 37.796875 48.390625 30.609375 48.390625 
z
M 30.609375 56 
Q 42.328125 56 49.015625 48.375 
Q 55.71875 40.765625 55.71875 27.296875 
Q 55.71875 13.875 49.015625 6.21875 
Q 42.328125 -1.421875 30.609375 -1.421875 
Q 18.84375 -1.421875 12.171875 6.21875 
Q 5.515625 13.875 5.515625 27.296875 
Q 5.515625 40.765625 12.171875 48.375 
Q 18.84375 56 30.609375 56 
z
" id="DejaVuSans-111"/>
     <path d="M 41.109375 46.296875 
Q 39.59375 47.171875 37.8125 47.578125 
Q 36.03125 48 33.890625 48 
Q 26.265625 48 22.1875 43.046875 
Q 18.109375 38.09375 18.109375 28.8125 
L 18.109375 0 
L 9.078125 0 
L 9.078125 54.6875 
L 18.109375 54.6875 
L 18.109375 46.1875 
Q 20.953125 51.171875 25.484375 53.578125 
Q 30.03125 56 36.53125 56 
Q 37.453125 56 38.578125 55.875 
Q 39.703125 55.765625 41.0625 55.515625 
z
" id="DejaVuSans-114"/>
     <path d="M 56.203125 29.59375 
L 56.203125 25.203125 
L 14.890625 25.203125 
Q 15.484375 15.921875 20.484375 11.0625 
Q 25.484375 6.203125 34.421875 6.203125 
Q 39.59375 6.203125 44.453125 7.46875 
Q 49.3125 8.734375 54.109375 11.28125 
L 54.109375 2.78125 
Q 49.265625 0.734375 44.1875 -0.34375 
Q 39.109375 -1.421875 33.890625 -1.421875 
Q 20.796875 -1.421875 13.15625 6.1875 
Q 5.515625 13.8125 5.515625 26.8125 
Q 5.515625 40.234375 12.765625 48.109375 
Q 20.015625 56 32.328125 56 
Q 43.359375 56 49.78125 48.890625 
Q 56.203125 41.796875 56.203125 29.59375 
z
M 47.21875 32.234375 
Q 47.125 39.59375 43.09375 43.984375 
Q 39.0625 48.390625 32.421875 48.390625 
Q 24.90625 48.390625 20.390625 44.140625 
Q 15.875 39.890625 15.1875 32.171875 
z
" id="DejaVuSans-101"/>
     <path d="M 54.890625 33.015625 
L 54.890625 0 
L 45.90625 0 
L 45.90625 32.71875 
Q 45.90625 40.484375 42.875 44.328125 
Q 39.84375 48.1875 33.796875 48.1875 
Q 26.515625 48.1875 22.3125 43.546875 
Q 18.109375 38.921875 18.109375 30.90625 
L 18.109375 0 
L 9.078125 0 
L 9.078125 75.984375 
L 18.109375 75.984375 
L 18.109375 46.1875 
Q 21.34375 51.125 25.703125 53.5625 
Q 30.078125 56 35.796875 56 
Q 45.21875 56 50.046875 50.171875 
Q 54.890625 44.34375 54.890625 33.015625 
z
" id="DejaVuSans-104"/>
     <path d="M 34.28125 27.484375 
Q 23.390625 27.484375 19.1875 25 
Q 14.984375 22.515625 14.984375 16.5 
Q 14.984375 11.71875 18.140625 8.90625 
Q 21.296875 6.109375 26.703125 6.109375 
Q 34.1875 6.109375 38.703125 11.40625 
Q 43.21875 16.703125 43.21875 25.484375 
L 43.21875 27.484375 
z
M 52.203125 31.203125 
L 52.203125 0 
L 43.21875 0 
L 43.21875 8.296875 
Q 40.140625 3.328125 35.546875 0.953125 
Q 30.953125 -1.421875 24.3125 -1.421875 
Q 15.921875 -1.421875 10.953125 3.296875 
Q 6 8.015625 6 15.921875 
Q 6 25.140625 12.171875 29.828125 
Q 18.359375 34.515625 30.609375 34.515625 
L 43.21875 34.515625 
L 43.21875 35.40625 
Q 43.21875 41.609375 39.140625 45 
Q 35.0625 48.390625 27.6875 48.390625 
Q 23 48.390625 18.546875 47.265625 
Q 14.109375 46.140625 10.015625 43.890625 
L 10.015625 52.203125 
Q 14.9375 54.109375 19.578125 55.046875 
Q 24.21875 56 28.609375 56 
Q 40.484375 56 46.34375 49.84375 
Q 52.203125 43.703125 52.203125 31.203125 
z
" id="DejaVuSans-97"/>
     <path d="M 45.40625 46.390625 
L 45.40625 75.984375 
L 54.390625 75.984375 
L 54.390625 0 
L 45.40625 0 
L 45.40625 8.203125 
Q 42.578125 3.328125 38.25 0.953125 
Q 33.9375 -1.421875 27.875 -1.421875 
Q 17.96875 -1.421875 11.734375 6.484375 
Q 5.515625 14.40625 5.515625 27.296875 
Q 5.515625 40.1875 11.734375 48.09375 
Q 17.96875 56 27.875 56 
Q 33.9375 56 38.25 53.625 
Q 42.578125 51.265625 45.40625 46.390625 
z
M 14.796875 27.296875 
Q 14.796875 17.390625 18.875 11.75 
Q 22.953125 6.109375 30.078125 6.109375 
Q 37.203125 6.109375 41.296875 11.75 
Q 45.40625 17.390625 45.40625 27.296875 
Q 45.40625 37.203125 41.296875 42.84375 
Q 37.203125 48.484375 30.078125 48.484375 
Q 22.953125 48.484375 18.875 42.84375 
Q 14.796875 37.203125 14.796875 27.296875 
z
" id="DejaVuSans-100"/>
     <path d="M 50.984375 -16.609375 
L 50.984375 -23.578125 
L -0.984375 -23.578125 
L -0.984375 -16.609375 
z
" id="DejaVuSans-95"/>
     <path d="M 12.40625 8.296875 
L 28.515625 8.296875 
L 28.515625 63.921875 
L 10.984375 60.40625 
L 10.984375 69.390625 
L 28.421875 72.90625 
L 38.28125 72.90625 
L 38.28125 8.296875 
L 54.390625 8.296875 
L 54.390625 0 
L 12.40625 0 
z
" id="DejaVuSans-49"/>
    </defs>
    <g style="fill:#262626;" transform="translate(60.272578 5.2896)scale(0.15 -0.15)">
     <use xlink:href="#DejaVuSans-70"/>
     <use x="53.894531" xlink:href="#DejaVuSans-111"/>
     <use x="115.076172" xlink:href="#DejaVuSans-114"/>
     <use x="153.939453" xlink:href="#DejaVuSans-101"/>
     <use x="215.462891" xlink:href="#DejaVuSans-104"/>
     <use x="278.841797" xlink:href="#DejaVuSans-101"/>
     <use x="340.365234" xlink:href="#DejaVuSans-97"/>
     <use x="401.644531" xlink:href="#DejaVuSans-100"/>
     <use x="465.121094" xlink:href="#DejaVuSans-95"/>
     <use x="515.121094" xlink:href="#DejaVuSans-49"/>
    </g>
   </g>
  </g>
  <g id="axes_2">
   <g id="patch_8">
    <path d="M 297.216 74.88 
C 297.216 74.874213 297.215999 74.868426 297.215997 74.862639 
C 297.215995 74.856852 297.215993 74.851064 297.215989 74.845277 
L 241.92 74.88 
L 297.216 74.88 
z
" style="fill:#66c2a5;stroke:#ffffff;stroke-linejoin:miter;"/>
   </g>
   <g id="patch_9">
    <path d="M 297.215989 74.845277 
C 297.215747 74.459249 297.211462 74.073233 297.203135 73.687294 
C 297.194809 73.301355 297.182441 72.915513 297.166035 72.529833 
L 241.92 74.88 
L 297.215989 74.845277 
z
" style="fill:#fc8d62;stroke:#ffffff;stroke-linejoin:miter;"/>
   </g>
   <g id="patch_10">
    <path d="M 297.166035 72.529833 
C 296.859608 65.326578 295.147324 58.252301 292.12581 51.706215 
C 289.104295 45.16013 284.831477 39.267733 279.548477 34.361544 
C 274.265478 29.455354 268.073578 25.629429 261.322199 23.099673 
C 254.570821 20.569917 247.389394 19.384828 240.183182 19.611283 
C 232.976969 19.837738 225.884122 21.471396 219.304903 24.420066 
C 212.725683 27.368735 206.786223 31.575888 201.821697 36.804106 
C 196.857171 42.032324 192.962755 48.181376 190.358217 54.90426 
C 187.75368 61.627144 186.488954 68.794974 186.63541 76.003256 
C 186.781866 83.211538 188.336695 90.322081 191.212158 96.933624 
C 194.08762 103.545167 198.228588 109.530958 203.40138 114.553209 
C 208.574172 119.57546 214.679619 123.537888 221.37318 126.216885 
C 228.066741 128.895883 235.220091 130.240091 242.429555 130.173652 
C 249.639019 130.107214 256.766382 128.631403 263.409434 125.829503 
C 270.052485 123.027603 276.083871 118.953329 281.163228 113.8366 
C 286.242585 108.719871 290.272536 102.658781 293.025663 95.995368 
C 295.778791 89.331955 297.202315 82.193966 297.215902 74.984208 
L 241.92 74.88 
L 297.166035 72.529833 
z
" style="fill:#8da0cb;stroke:#ffffff;stroke-linejoin:miter;"/>
   </g>
   <g id="patch_11">
    <path d="M 297.215902 74.984208 
C 297.215913 74.978421 297.215923 74.972634 297.215932 74.966847 
C 297.215941 74.96106 297.215949 74.955273 297.215956 74.949486 
L 241.92 74.88 
L 297.215902 74.984208 
z
" style="fill:#e78ac3;stroke:#ffffff;stroke-linejoin:miter;"/>
   </g>
   <g id="patch_12">
    <path d="M 297.215956 74.949486 
C 297.215964 74.943699 297.21597 74.937912 297.215975 74.932125 
C 297.215981 74.926337 297.215985 74.92055 297.215989 74.914763 
L 241.92 74.88 
L 297.215956 74.949486 
z
" style="fill:#a6d854;stroke:#ffffff;stroke-linejoin:miter;"/>
   </g>
   <g id="patch_13">
    <path d="M 297.215989 74.914763 
C 297.215993 74.908976 297.215995 74.903189 297.215997 74.897402 
C 297.215999 74.891615 297.216 74.885828 297.216 74.880041 
L 241.92 74.88 
L 297.215989 74.914763 
z
" style="fill:#ffd92f;stroke:#ffffff;stroke-linejoin:miter;"/>
   </g>
   <g id="text_2">
    <!-- Forehead_2 -->
    <defs>
     <path d="M 19.1875 8.296875 
L 53.609375 8.296875 
L 53.609375 0 
L 7.328125 0 
L 7.328125 8.296875 
Q 12.9375 14.109375 22.625 23.890625 
Q 32.328125 33.6875 34.8125 36.53125 
Q 39.546875 41.84375 41.421875 45.53125 
Q 43.3125 49.21875 43.3125 52.78125 
Q 43.3125 58.59375 39.234375 62.25 
Q 35.15625 65.921875 28.609375 65.921875 
Q 23.96875 65.921875 18.8125 64.3125 
Q 13.671875 62.703125 7.8125 59.421875 
L 7.8125 69.390625 
Q 13.765625 71.78125 18.9375 73 
Q 24.125 74.21875 28.421875 74.21875 
Q 39.75 74.21875 46.484375 68.546875 
Q 53.21875 62.890625 53.21875 53.421875 
Q 53.21875 48.921875 51.53125 44.890625 
Q 49.859375 40.875 45.40625 35.40625 
Q 44.1875 33.984375 37.640625 27.21875 
Q 31.109375 20.453125 19.1875 8.296875 
z
" id="DejaVuSans-50"/>
    </defs>
    <g style="fill:#262626;" transform="translate(198.512578 5.2896)scale(0.15 -0.15)">
     <use xlink:href="#DejaVuSans-70"/>
     <use x="53.894531" xlink:href="#DejaVuSans-111"/>
     <use x="115.076172" xlink:href="#DejaVuSans-114"/>
     <use x="153.939453" xlink:href="#DejaVuSans-101"/>
     <use x="215.462891" xlink:href="#DejaVuSans-104"/>
     <use x="278.841797" xlink:href="#DejaVuSans-101"/>
     <use x="340.365234" xlink:href="#DejaVuSans-97"/>
     <use x="401.644531" xlink:href="#DejaVuSans-100"/>
     <use x="465.121094" xlink:href="#DejaVuSans-95"/>
     <use x="515.121094" xlink:href="#DejaVuSans-50"/>
    </g>
   </g>
  </g>
  <g id="axes_3">
   <g id="patch_14">
    <path d="M 435.456 74.88 
C 435.456 74.874213 435.455999 74.868426 435.455997 74.862639 
C 435.455995 74.856852 435.455993 74.851064 435.455989 74.845277 
L 380.16 74.88 
L 435.456 74.88 
z
" style="fill:#66c2a5;stroke:#ffffff;stroke-linejoin:miter;"/>
   </g>
   <g id="patch_15">
    <path d="M 435.455989 74.845277 
C 435.455985 74.83949 435.455981 74.833703 435.455975 74.827916 
C 435.45597 74.822129 435.455964 74.816342 435.455956 74.810555 
L 380.16 74.88 
L 435.455989 74.845277 
z
" style="fill:#fc8d62;stroke:#ffffff;stroke-linejoin:miter;"/>
   </g>
   <g id="patch_16">
    <path d="M 435.455956 74.810555 
C 435.446842 67.552808 434.008916 60.367358 431.224392 53.665016 
C 428.439867 46.962675 424.362839 40.873654 419.226405 35.746081 
C 414.08997 30.618508 407.993919 26.552 401.286779 23.779053 
C 394.579639 21.006105 387.391717 19.580589 380.133965 19.584006 
C 372.876214 19.587423 365.689637 21.019707 358.985111 23.798969 
C 352.280586 26.578232 346.188366 30.650477 341.056762 35.782885 
C 335.925158 40.915292 331.853867 47.008149 329.075654 53.71311 
C 326.297442 60.418071 324.866283 67.604872 324.864003 74.862624 
C 324.861722 82.120376 326.288363 89.308075 329.062361 96.01478 
C 331.836359 102.721486 335.903821 108.816901 341.032198 113.952532 
C 346.160576 119.088164 352.250235 123.164237 358.953012 125.947713 
C 365.65579 128.731188 372.841466 130.167988 380.099213 130.175967 
C 387.356961 130.183945 394.545778 128.762947 401.254659 125.994215 
C 407.96354 123.225483 414.062146 119.162808 419.201802 114.038464 
C 424.341458 108.91412 428.422312 102.827663 431.211048 96.127072 
C 433.999785 89.426482 435.442226 82.241936 435.455902 74.984197 
L 380.16 74.88 
L 435.455956 74.810555 
z
" style="fill:#8da0cb;stroke:#ffffff;stroke-linejoin:miter;"/>
   </g>
   <g id="patch_17">
    <path d="M 435.455902 74.984197 
C 435.455913 74.97841 435.455923 74.972623 435.455932 74.966836 
C 435.455941 74.961049 435.455949 74.955262 435.455956 74.949475 
L 380.16 74.88 
L 435.455902 74.984197 
z
" style="fill:#e78ac3;stroke:#ffffff;stroke-linejoin:miter;"/>
   </g>
   <g id="patch_18">
    <path d="M 435.455956 74.949475 
C 435.455964 74.943688 435.45597 74.937901 435.455975 74.932113 
C 435.455981 74.926326 435.455985 74.920539 435.455989 74.914752 
L 380.16 74.88 
L 435.455956 74.949475 
z
" style="fill:#a6d854;stroke:#ffffff;stroke-linejoin:miter;"/>
   </g>
   <g id="patch_19">
    <path d="M 435.455989 74.914752 
C 435.455993 74.908965 435.455995 74.903178 435.455997 74.897391 
C 435.455999 74.891604 435.456 74.885817 435.456 74.880029 
L 380.16 74.88 
L 435.455989 74.914752 
z
" style="fill:#ffd92f;stroke:#ffffff;stroke-linejoin:miter;"/>
   </g>
   <g id="text_3">
    <!-- Mouth_1 -->
    <defs>
     <path d="M 9.8125 72.90625 
L 24.515625 72.90625 
L 43.109375 23.296875 
L 61.8125 72.90625 
L 76.515625 72.90625 
L 76.515625 0 
L 66.890625 0 
L 66.890625 64.015625 
L 48.09375 14.015625 
L 38.1875 14.015625 
L 19.390625 64.015625 
L 19.390625 0 
L 9.8125 0 
z
" id="DejaVuSans-77"/>
     <path d="M 8.5 21.578125 
L 8.5 54.6875 
L 17.484375 54.6875 
L 17.484375 21.921875 
Q 17.484375 14.15625 20.5 10.265625 
Q 23.53125 6.390625 29.59375 6.390625 
Q 36.859375 6.390625 41.078125 11.03125 
Q 45.3125 15.671875 45.3125 23.6875 
L 45.3125 54.6875 
L 54.296875 54.6875 
L 54.296875 0 
L 45.3125 0 
L 45.3125 8.40625 
Q 42.046875 3.421875 37.71875 1 
Q 33.40625 -1.421875 27.6875 -1.421875 
Q 18.265625 -1.421875 13.375 4.4375 
Q 8.5 10.296875 8.5 21.578125 
z
M 31.109375 56 
z
" id="DejaVuSans-117"/>
     <path d="M 18.3125 70.21875 
L 18.3125 54.6875 
L 36.8125 54.6875 
L 36.8125 47.703125 
L 18.3125 47.703125 
L 18.3125 18.015625 
Q 18.3125 11.328125 20.140625 9.421875 
Q 21.96875 7.515625 27.59375 7.515625 
L 36.8125 7.515625 
L 36.8125 0 
L 27.59375 0 
Q 17.1875 0 13.234375 3.875 
Q 9.28125 7.765625 9.28125 18.015625 
L 9.28125 47.703125 
L 2.6875 47.703125 
L 2.6875 54.6875 
L 9.28125 54.6875 
L 9.28125 70.21875 
z
" id="DejaVuSans-116"/>
    </defs>
    <g style="fill:#262626;" transform="translate(348.131484 5.2896)scale(0.15 -0.15)">
     <use xlink:href="#DejaVuSans-77"/>
     <use x="86.279297" xlink:href="#DejaVuSans-111"/>
     <use x="147.460938" xlink:href="#DejaVuSans-117"/>
     <use x="210.839844" xlink:href="#DejaVuSans-116"/>
     <use x="250.048828" xlink:href="#DejaVuSans-104"/>
     <use x="313.427734" xlink:href="#DejaVuSans-95"/>
     <use x="363.427734" xlink:href="#DejaVuSans-49"/>
    </g>
   </g>
  </g>
  <g id="axes_4">
   <g id="patch_20">
    <path d="M 573.696 74.88 
C 573.696 74.874213 573.695999 74.868426 573.695997 74.862639 
C 573.695995 74.856852 573.695993 74.851064 573.695989 74.845277 
L 518.4 74.88 
L 573.696 74.88 
z
" style="fill:#66c2a5;stroke:#ffffff;stroke-linejoin:miter;"/>
   </g>
   <g id="patch_21">
    <path d="M 573.695989 74.845277 
C 573.695985 74.83949 573.695981 74.833703 573.695975 74.827916 
C 573.69597 74.822129 573.695964 74.816342 573.695956 74.810555 
L 518.4 74.88 
L 573.695989 74.845277 
z
" style="fill:#fc8d62;stroke:#ffffff;stroke-linejoin:miter;"/>
   </g>
   <g id="patch_22">
    <path d="M 573.695956 74.810555 
C 573.686842 67.552808 572.248916 60.367358 569.464392 53.665016 
C 566.679867 46.962675 562.602839 40.873654 557.466405 35.746081 
C 552.32997 30.618508 546.233919 26.552 539.526779 23.779053 
C 532.819639 21.006105 525.631717 19.580589 518.373965 19.584006 
C 511.116214 19.587423 503.929637 21.019707 497.225111 23.798969 
C 490.520586 26.578232 484.428366 30.650477 479.296762 35.782885 
C 474.165158 40.915292 470.093867 47.008149 467.315654 53.71311 
C 464.537442 60.418071 463.106283 67.604872 463.104003 74.862624 
C 463.101722 82.120376 464.528363 89.308075 467.302361 96.01478 
C 470.076359 102.721486 474.143821 108.816901 479.272198 113.952532 
C 484.400576 119.088164 490.490235 123.164237 497.193012 125.947713 
C 503.89579 128.731188 511.081466 130.167988 518.339213 130.175967 
C 525.596961 130.183945 532.785778 128.762947 539.494659 125.994215 
C 546.20354 123.225483 552.302146 119.162808 557.441802 114.038464 
C 562.581458 108.91412 566.662312 102.827663 569.451048 96.127072 
C 572.239785 89.426482 573.682226 82.241936 573.695902 74.984197 
L 518.4 74.88 
L 573.695956 74.810555 
z
" style="fill:#8da0cb;stroke:#ffffff;stroke-linejoin:miter;"/>
   </g>
   <g id="patch_23">
    <path d="M 573.695902 74.984197 
C 573.695913 74.97841 573.695923 74.972623 573.695932 74.966836 
C 573.695941 74.961049 573.695949 74.955262 573.695956 74.949475 
L 518.4 74.88 
L 573.695902 74.984197 
z
" style="fill:#e78ac3;stroke:#ffffff;stroke-linejoin:miter;"/>
   </g>
   <g id="patch_24">
    <path d="M 573.695956 74.949475 
C 573.695964 74.943688 573.69597 74.937901 573.695975 74.932113 
C 573.695981 74.926326 573.695985 74.920539 573.695989 74.914752 
L 518.4 74.88 
L 573.695956 74.949475 
z
" style="fill:#a6d854;stroke:#ffffff;stroke-linejoin:miter;"/>
   </g>
   <g id="patch_25">
    <path d="M 573.695989 74.914752 
C 573.695993 74.908965 573.695995 74.903178 573.695997 74.897391 
C 573.695999 74.891604 573.696 74.885817 573.696 74.880029 
L 518.4 74.88 
L 573.695989 74.914752 
z
" style="fill:#ffd92f;stroke:#ffffff;stroke-linejoin:miter;"/>
   </g>
   <g id="text_4">
    <!-- Mouth_2 -->
    <g style="fill:#262626;" transform="translate(486.371484 5.2896)scale(0.15 -0.15)">
     <use xlink:href="#DejaVuSans-77"/>
     <use x="86.279297" xlink:href="#DejaVuSans-111"/>
     <use x="147.460938" xlink:href="#DejaVuSans-117"/>
     <use x="210.839844" xlink:href="#DejaVuSans-116"/>
     <use x="250.048828" xlink:href="#DejaVuSans-104"/>
     <use x="313.427734" xlink:href="#DejaVuSans-95"/>
     <use x="363.427734" xlink:href="#DejaVuSans-50"/>
    </g>
   </g>
  </g>
  <g id="axes_5">
   <g id="patch_26">
    <path d="M 711.936 74.88 
C 711.936 74.874213 711.935999 74.868426 711.935997 74.862639 
C 711.935995 74.856852 711.935993 74.851064 711.935989 74.845277 
L 656.64 74.88 
L 711.936 74.88 
z
" style="fill:#66c2a5;stroke:#ffffff;stroke-linejoin:miter;"/>
   </g>
   <g id="patch_27">
    <path d="M 711.935989 74.845277 
C 711.935982 74.833703 711.935971 74.822129 711.935956 74.810555 
C 711.935942 74.79898 711.935924 74.787406 711.935902 74.775832 
L 656.64 74.88 
L 711.935989 74.845277 
z
" style="fill:#fc8d62;stroke:#ffffff;stroke-linejoin:miter;"/>
   </g>
   <g id="patch_28">
    <path d="M 711.935902 74.775832 
C 711.922231 67.518823 710.480083 60.334986 707.691894 53.634959 
C 704.903704 46.934932 700.823631 40.848856 695.684897 35.724622 
C 690.546164 30.600388 684.448584 26.537528 677.740705 23.768281 
C 671.032827 20.999034 663.844943 19.57719 656.587925 19.584025 
C 649.330907 19.590859 642.145714 21.026238 635.443063 23.808115 
C 628.740412 26.589991 622.650496 30.664329 617.521423 35.798233 
C 612.39235 40.932137 608.323747 47.025886 605.548182 53.731153 
C 602.772617 60.43642 601.344002 67.622961 601.344 74.879982 
C 601.343998 82.137004 602.772608 89.323546 605.548168 96.028814 
C 608.323729 102.734083 612.392328 108.827835 617.521398 113.961742 
C 622.650467 119.095649 628.740381 123.169991 635.44303 125.951872 
C 642.145679 128.733752 649.330871 130.169136 656.587889 130.175975 
C 663.844908 130.182814 671.032792 128.760975 677.740673 125.991733 
C 684.448553 123.22249 690.546135 119.159634 695.684872 114.035403 
C 700.823609 108.911172 704.903686 102.825099 707.69188 96.125074 
C 710.480074 89.425049 711.922226 82.241212 711.935902 74.984203 
L 656.64 74.88 
L 711.935902 74.775832 
z
" style="fill:#8da0cb;stroke:#ffffff;stroke-linejoin:miter;"/>
   </g>
   <g id="patch_29">
    <path d="M 711.935902 74.984203 
C 711.935913 74.978416 711.935923 74.972629 711.935932 74.966842 
C 711.935941 74.961055 711.935949 74.955268 711.935956 74.949481 
L 656.64 74.88 
L 711.935902 74.984203 
z
" style="fill:#e78ac3;stroke:#ffffff;stroke-linejoin:miter;"/>
   </g>
   <g id="patch_30">
    <path d="M 711.935956 74.949481 
C 711.935964 74.943694 711.93597 74.937906 711.935975 74.932119 
C 711.935981 74.926332 711.935985 74.920545 711.935989 74.914758 
L 656.64 74.88 
L 711.935956 74.949481 
z
" style="fill:#a6d854;stroke:#ffffff;stroke-linejoin:miter;"/>
   </g>
   <g id="patch_31">
    <path d="M 711.935989 74.914758 
C 711.935993 74.908971 711.935995 74.903184 711.935997 74.897397 
C 711.935999 74.89161 711.936 74.885822 711.936 74.880035 
L 656.64 74.88 
L 711.935989 74.914758 
z
" style="fill:#ffd92f;stroke:#ffffff;stroke-linejoin:miter;"/>
   </g>
   <g id="text_5">
    <!-- Stool_1 -->
    <defs>
     <path d="M 53.515625 70.515625 
L 53.515625 60.890625 
Q 47.90625 63.578125 42.921875 64.890625 
Q 37.9375 66.21875 33.296875 66.21875 
Q 25.25 66.21875 20.875 63.09375 
Q 16.5 59.96875 16.5 54.203125 
Q 16.5 49.359375 19.40625 46.890625 
Q 22.3125 44.4375 30.421875 42.921875 
L 36.375 41.703125 
Q 47.40625 39.59375 52.65625 34.296875 
Q 57.90625 29 57.90625 20.125 
Q 57.90625 9.515625 50.796875 4.046875 
Q 43.703125 -1.421875 29.984375 -1.421875 
Q 24.8125 -1.421875 18.96875 -0.25 
Q 13.140625 0.921875 6.890625 3.21875 
L 6.890625 13.375 
Q 12.890625 10.015625 18.65625 8.296875 
Q 24.421875 6.59375 29.984375 6.59375 
Q 38.421875 6.59375 43.015625 9.90625 
Q 47.609375 13.234375 47.609375 19.390625 
Q 47.609375 24.75 44.3125 27.78125 
Q 41.015625 30.8125 33.5 32.328125 
L 27.484375 33.5 
Q 16.453125 35.6875 11.515625 40.375 
Q 6.59375 45.0625 6.59375 53.421875 
Q 6.59375 63.09375 13.40625 68.65625 
Q 20.21875 74.21875 32.171875 74.21875 
Q 37.3125 74.21875 42.625 73.28125 
Q 47.953125 72.359375 53.515625 70.515625 
z
" id="DejaVuSans-83"/>
     <path d="M 9.421875 75.984375 
L 18.40625 75.984375 
L 18.40625 0 
L 9.421875 0 
z
" id="DejaVuSans-108"/>
    </defs>
    <g style="fill:#262626;" transform="translate(629.154844 5.2896)scale(0.15 -0.15)">
     <use xlink:href="#DejaVuSans-83"/>
     <use x="63.476562" xlink:href="#DejaVuSans-116"/>
     <use x="102.685547" xlink:href="#DejaVuSans-111"/>
     <use x="163.867188" xlink:href="#DejaVuSans-111"/>
     <use x="225.048828" xlink:href="#DejaVuSans-108"/>
     <use x="252.832031" xlink:href="#DejaVuSans-95"/>
     <use x="302.832031" xlink:href="#DejaVuSans-49"/>
    </g>
   </g>
  </g>
  <g id="axes_6"/>
  <g id="axes_7"/>
  <g id="axes_8">
   <g id="patch_32">
    <path d="M 1126.656 74.88 
C 1126.656 74.874213 1126.655999 74.868426 1126.655997 74.862639 
C 1126.655995 74.856852 1126.655993 74.851064 1126.655989 74.845277 
L 1071.36 74.88 
L 1126.656 74.88 
z
" style="fill:#66c2a5;stroke:#ffffff;stroke-linejoin:miter;"/>
   </g>
   <g id="patch_33">
    <path d="M 1126.655989 74.845277 
C 1126.648409 62.773254 1122.687751 51.029561 1115.382599 41.418704 
C 1108.077448 31.807846 1097.822166 24.848658 1086.192551 21.610468 
C 1074.562936 18.372278 1062.186803 19.029898 1050.965835 23.48228 
C 1039.744868 27.934661 1030.284819 35.941446 1024.039295 46.272334 
L 1071.36 74.88 
L 1126.655989 74.845277 
z
" style="fill:#fc8d62;stroke:#ffffff;stroke-linejoin:miter;"/>
   </g>
   <g id="patch_34">
    <path d="M 1024.039295 46.272334 
C 1019.632572 53.561613 1016.969124 61.771491 1016.257382 70.259495 
C 1015.545639 78.7475 1016.804666 87.286288 1019.935936 95.207648 
C 1023.067206 103.129008 1027.98685 110.220774 1034.309878 115.927973 
C 1040.632905 121.635172 1048.18996 125.804941 1056.389656 128.110972 
C 1064.589352 130.417003 1073.212069 130.797531 1081.583027 129.222776 
C 1089.953986 127.648022 1097.848977 124.160163 1104.650172 119.032147 
C 1111.451366 113.904131 1116.9766 107.273305 1120.79349 99.658573 
C 1124.61038 92.043841 1126.616695 83.649155 1126.655428 75.131451 
L 1071.36 74.88 
L 1024.039295 46.272334 
z
" style="fill:#8da0cb;stroke:#ffffff;stroke-linejoin:miter;"/>
   </g>
   <g id="patch_35">
    <path d="M 1126.655428 75.131451 
C 1126.655566 75.101115 1126.655679 75.070779 1126.655767 75.040444 
C 1126.655855 75.010108 1126.655918 74.979772 1126.655956 74.949437 
L 1071.36 74.88 
L 1126.655428 75.131451 
z
" style="fill:#e78ac3;stroke:#ffffff;stroke-linejoin:miter;"/>
   </g>
   <g id="patch_36">
    <path d="M 1126.655956 74.949437 
C 1126.655964 74.943649 1126.65597 74.937862 1126.655975 74.932075 
C 1126.655981 74.926288 1126.655985 74.920501 1126.655989 74.914714 
L 1071.36 74.88 
L 1126.655956 74.949437 
z
" style="fill:#a6d854;stroke:#ffffff;stroke-linejoin:miter;"/>
   </g>
   <g id="patch_37">
    <path d="M 1126.655989 74.914714 
C 1126.655993 74.908927 1126.655995 74.90314 1126.655997 74.897353 
C 1126.655999 74.891565 1126.656 74.885778 1126.656 74.879991 
L 1071.36 74.88 
L 1126.655989 74.914714 
z
" style="fill:#ffd92f;stroke:#ffffff;stroke-linejoin:miter;"/>
   </g>
   <g id="text_6">
    <!-- Stool_2 -->
    <g style="fill:#262626;" transform="translate(1043.874844 5.2896)scale(0.15 -0.15)">
     <use xlink:href="#DejaVuSans-83"/>
     <use x="63.476562" xlink:href="#DejaVuSans-116"/>
     <use x="102.685547" xlink:href="#DejaVuSans-111"/>
     <use x="163.867188" xlink:href="#DejaVuSans-111"/>
     <use x="225.048828" xlink:href="#DejaVuSans-108"/>
     <use x="252.832031" xlink:href="#DejaVuSans-95"/>
     <use x="302.832031" xlink:href="#DejaVuSans-50"/>
    </g>
   </g>
  </g>
  <g id="axes_9">
   <g id="patch_38">
    <path d="M 1264.896 74.88 
C 1264.896 74.874213 1264.895999 74.868426 1264.895997 74.862639 
C 1264.895995 74.856852 1264.895993 74.851064 1264.895989 74.845277 
L 1209.6 74.88 
L 1264.896 74.88 
z
" style="fill:#66c2a5;stroke:#ffffff;stroke-linejoin:miter;"/>
   </g>
   <g id="patch_39">
    <path d="M 1264.895989 74.845277 
C 1264.887277 60.971265 1259.657298 47.596255 1250.252486 37.396363 
C 1240.847673 27.196472 1227.940099 20.90059 1214.112356 19.76842 
L 1209.6 74.88 
L 1264.895989 74.845277 
z
" style="fill:#fc8d62;stroke:#ffffff;stroke-linejoin:miter;"/>
   </g>
   <g id="patch_40">
    <path d="M 1214.112356 19.76842 
C 1208.599892 19.317077 1203.050777 19.695344 1197.650555 20.890572 
C 1192.250333 22.085799 1187.05987 24.084516 1182.252721 26.819892 
C 1177.445571 29.555268 1173.075916 32.996472 1169.289864 37.028441 
C 1165.503811 41.06041 1162.344033 45.637699 1159.916184 50.607258 
C 1157.488334 55.576817 1155.819778 60.882633 1154.966305 66.347297 
C 1154.112833 71.811961 1154.084064 77.37388 1154.880961 82.847081 
C 1155.677858 88.320281 1157.291438 93.643074 1159.667749 98.637482 
C 1162.044061 103.631891 1165.156319 108.241621 1168.90046 112.31254 
C 1172.644601 116.383458 1176.978424 119.86968 1181.75702 122.654638 
C 1186.535616 125.439596 1191.705124 127.4919 1197.092693 128.742927 
C 1202.480262 129.993954 1208.025168 130.429604 1213.542006 130.03531 
C 1219.058844 129.641016 1224.485433 128.421222 1229.640325 126.416715 
C 1234.795218 124.412207 1239.620313 121.645579 1243.954273 118.209338 
C 1248.288234 114.773096 1252.082212 110.705972 1255.209348 106.143957 
C 1258.336485 101.581941 1260.761533 96.576453 1262.403408 91.294861 
C 1264.045284 86.013269 1264.885479 80.515102 1264.895902 74.984202 
L 1209.6 74.88 
L 1214.112356 19.76842 
z
" style="fill:#8da0cb;stroke:#ffffff;stroke-linejoin:miter;"/>
   </g>
   <g id="patch_41">
    <path d="M 1264.895902 74.984202 
C 1264.895913 74.978415 1264.895923 74.972628 1264.895932 74.966841 
C 1264.895941 74.961053 1264.895949 74.955266 1264.895956 74.949479 
L 1209.6 74.88 
L 1264.895902 74.984202 
z
" style="fill:#e78ac3;stroke:#ffffff;stroke-linejoin:miter;"/>
   </g>
   <g id="patch_42">
    <path d="M 1264.895956 74.949479 
C 1264.895964 74.943692 1264.89597 74.937905 1264.895975 74.932118 
C 1264.895981 74.926331 1264.895985 74.920544 1264.895989 74.914757 
L 1209.6 74.88 
L 1264.895956 74.949479 
z
" style="fill:#a6d854;stroke:#ffffff;stroke-linejoin:miter;"/>
   </g>
   <g id="patch_43">
    <path d="M 1264.895989 74.914757 
C 1264.895993 74.908969 1264.895995 74.903182 1264.895997 74.897395 
C 1264.895999 74.891608 1264.896 74.885821 1264.896 74.880034 
L 1209.6 74.88 
L 1264.895989 74.914757 
z
" style="fill:#ffd92f;stroke:#ffffff;stroke-linejoin:miter;"/>
   </g>
   <g id="text_7">
    <!-- Left Hand_1 -->
    <defs>
     <path d="M 9.8125 72.90625 
L 19.671875 72.90625 
L 19.671875 8.296875 
L 55.171875 8.296875 
L 55.171875 0 
L 9.8125 0 
z
" id="DejaVuSans-76"/>
     <path d="M 37.109375 75.984375 
L 37.109375 68.5 
L 28.515625 68.5 
Q 23.6875 68.5 21.796875 66.546875 
Q 19.921875 64.59375 19.921875 59.515625 
L 19.921875 54.6875 
L 34.71875 54.6875 
L 34.71875 47.703125 
L 19.921875 47.703125 
L 19.921875 0 
L 10.890625 0 
L 10.890625 47.703125 
L 2.296875 47.703125 
L 2.296875 54.6875 
L 10.890625 54.6875 
L 10.890625 58.5 
Q 10.890625 67.625 15.140625 71.796875 
Q 19.390625 75.984375 28.609375 75.984375 
z
" id="DejaVuSans-102"/>
     <path id="DejaVuSans-32"/>
     <path d="M 9.8125 72.90625 
L 19.671875 72.90625 
L 19.671875 43.015625 
L 55.515625 43.015625 
L 55.515625 72.90625 
L 65.375 72.90625 
L 65.375 0 
L 55.515625 0 
L 55.515625 34.71875 
L 19.671875 34.71875 
L 19.671875 0 
L 9.8125 0 
z
" id="DejaVuSans-72"/>
     <path d="M 54.890625 33.015625 
L 54.890625 0 
L 45.90625 0 
L 45.90625 32.71875 
Q 45.90625 40.484375 42.875 44.328125 
Q 39.84375 48.1875 33.796875 48.1875 
Q 26.515625 48.1875 22.3125 43.546875 
Q 18.109375 38.921875 18.109375 30.90625 
L 18.109375 0 
L 9.078125 0 
L 9.078125 54.6875 
L 18.109375 54.6875 
L 18.109375 46.1875 
Q 21.34375 51.125 25.703125 53.5625 
Q 30.078125 56 35.796875 56 
Q 45.21875 56 50.046875 50.171875 
Q 54.890625 44.34375 54.890625 33.015625 
z
" id="DejaVuSans-110"/>
    </defs>
    <g style="fill:#262626;" transform="translate(1164.832031 5.2896)scale(0.15 -0.15)">
     <use xlink:href="#DejaVuSans-76"/>
     <use x="53.962891" xlink:href="#DejaVuSans-101"/>
     <use x="115.486328" xlink:href="#DejaVuSans-102"/>
     <use x="148.941406" xlink:href="#DejaVuSans-116"/>
     <use x="188.150391" xlink:href="#DejaVuSans-32"/>
     <use x="219.9375" xlink:href="#DejaVuSans-72"/>
     <use x="295.132812" xlink:href="#DejaVuSans-97"/>
     <use x="356.412109" xlink:href="#DejaVuSans-110"/>
     <use x="419.791016" xlink:href="#DejaVuSans-100"/>
     <use x="483.267578" xlink:href="#DejaVuSans-95"/>
     <use x="533.267578" xlink:href="#DejaVuSans-49"/>
    </g>
   </g>
  </g>
  <g id="axes_10">
   <g id="patch_44">
    <path d="M 1403.136 74.88 
C 1403.136 74.874213 1403.135999 74.868426 1403.135997 74.862639 
C 1403.135995 74.856852 1403.135993 74.851064 1403.135989 74.845277 
L 1347.84 74.88 
L 1403.136 74.88 
z
" style="fill:#66c2a5;stroke:#ffffff;stroke-linejoin:miter;"/>
   </g>
   <g id="patch_45">
    <path d="M 1403.135989 74.845277 
C 1403.135982 74.833704 1403.135971 74.82213 1403.135956 74.810556 
C 1403.135942 74.798983 1403.135924 74.787409 1403.135902 74.775836 
L 1347.84 74.88 
L 1403.135989 74.845277 
z
" style="fill:#fc8d62;stroke:#ffffff;stroke-linejoin:miter;"/>
   </g>
   <g id="patch_46">
    <path d="M 1403.135902 74.775836 
C 1403.122231 67.518826 1401.680084 60.334988 1398.891894 53.63496 
C 1396.103704 46.934932 1392.023631 40.848856 1386.884896 35.724621 
C 1381.746162 30.600386 1375.648581 26.537526 1368.940701 23.768279 
C 1362.232822 20.999032 1355.044937 19.577189 1347.787918 19.584025 
C 1340.530899 19.59086 1333.345705 21.026241 1326.643054 23.808118 
C 1319.940403 26.589996 1313.850487 30.664336 1308.721414 35.798241 
C 1303.592342 40.932147 1299.52374 47.025898 1296.748176 53.731167 
C 1293.972613 60.436435 1292.544 67.622977 1292.544 74.88 
C 1292.544 82.137022 1293.972612 89.323564 1296.748176 96.028833 
C 1299.523739 102.734101 1303.592341 108.827852 1308.721414 113.961758 
C 1313.850486 119.095664 1319.940402 123.170004 1326.643053 125.951881 
C 1333.345704 128.733759 1340.530898 130.16914 1347.787917 130.175975 
C 1355.044936 130.182811 1362.232821 128.760968 1368.940701 125.991721 
C 1375.64858 123.222475 1381.746161 119.159614 1386.884895 114.03538 
C 1392.02363 108.911145 1396.103704 102.825069 1398.891894 96.125041 
C 1401.680083 89.425013 1403.122231 82.241175 1403.135902 74.984165 
L 1347.84 74.88 
L 1403.135902 74.775836 
z
" style="fill:#8da0cb;stroke:#ffffff;stroke-linejoin:miter;"/>
   </g>
   <g id="patch_47">
    <path d="M 1403.135902 74.984165 
C 1403.135913 74.978378 1403.135923 74.972591 1403.135932 74.966804 
C 1403.135941 74.961017 1403.135949 74.95523 1403.135956 74.949443 
L 1347.84 74.88 
L 1403.135902 74.984165 
z
" style="fill:#e78ac3;stroke:#ffffff;stroke-linejoin:miter;"/>
   </g>
   <g id="patch_48">
    <path d="M 1403.135956 74.949443 
C 1403.135964 74.943656 1403.13597 74.937868 1403.135975 74.932081 
C 1403.135981 74.926294 1403.135985 74.920507 1403.135989 74.91472 
L 1347.84 74.88 
L 1403.135956 74.949443 
z
" style="fill:#a6d854;stroke:#ffffff;stroke-linejoin:miter;"/>
   </g>
   <g id="patch_49">
    <path d="M 1403.135989 74.91472 
C 1403.135993 74.908933 1403.135995 74.903146 1403.135997 74.897359 
C 1403.135999 74.891572 1403.136 74.885785 1403.136 74.879997 
L 1347.84 74.88 
L 1403.135989 74.91472 
z
" style="fill:#ffd92f;stroke:#ffffff;stroke-linejoin:miter;"/>
   </g>
   <g id="text_8">
    <!-- Left Hand_2 -->
    <g style="fill:#262626;" transform="translate(1303.072031 5.2896)scale(0.15 -0.15)">
     <use xlink:href="#DejaVuSans-76"/>
     <use x="53.962891" xlink:href="#DejaVuSans-101"/>
     <use x="115.486328" xlink:href="#DejaVuSans-102"/>
     <use x="148.941406" xlink:href="#DejaVuSans-116"/>
     <use x="188.150391" xlink:href="#DejaVuSans-32"/>
     <use x="219.9375" xlink:href="#DejaVuSans-72"/>
     <use x="295.132812" xlink:href="#DejaVuSans-97"/>
     <use x="356.412109" xlink:href="#DejaVuSans-110"/>
     <use x="419.791016" xlink:href="#DejaVuSans-100"/>
     <use x="483.267578" xlink:href="#DejaVuSans-95"/>
     <use x="533.267578" xlink:href="#DejaVuSans-50"/>
    </g>
   </g>
  </g>
  <g id="axes_11">
   <g id="patch_50">
    <path d="M 1541.376 74.88 
C 1541.376 74.874213 1541.375999 74.868426 1541.375997 74.862639 
C 1541.375995 74.856852 1541.375993 74.851064 1541.375989 74.845277 
L 1486.08 74.88 
L 1541.376 74.88 
z
" style="fill:#66c2a5;stroke:#ffffff;stroke-linejoin:miter;"/>
   </g>
   <g id="patch_51">
    <path d="M 1541.375989 74.845277 
C 1541.375971 74.816349 1541.37593 74.78742 1541.375866 74.758492 
C 1541.375803 74.729563 1541.375717 74.700635 1541.375608 74.671706 
L 1486.08 74.88 
L 1541.375989 74.845277 
z
" style="fill:#fc8d62;stroke:#ffffff;stroke-linejoin:miter;"/>
   </g>
   <g id="patch_52">
    <path d="M 1541.375608 74.671706 
C 1541.34828 67.416926 1539.893477 60.23794 1537.094308 53.544866 
C 1534.29514 46.851792 1530.205945 40.774558 1525.060328 35.660341 
C 1519.914712 30.546125 1513.812562 26.494204 1507.102479 23.736056 
C 1500.392397 20.977908 1493.204641 19.567075 1485.949829 19.584153 
C 1478.695018 19.601232 1471.513984 21.04589 1464.816962 23.8356 
C 1458.11994 26.625309 1452.036934 30.705914 1446.915453 35.8443 
C 1441.793972 40.982686 1437.733434 47.079105 1434.965809 53.785284 
C 1432.198183 60.491462 1430.777196 67.677219 1430.784024 74.932047 
C 1430.790853 82.186875 1432.225365 89.369944 1435.00561 96.0709 
C 1437.785854 102.771857 1441.857861 108.860622 1446.989006 113.989357 
C 1452.120151 119.118093 1458.210828 123.18724 1464.913089 125.964337 
C 1471.615351 128.741435 1478.799092 130.172573 1486.053923 130.175994 
C 1493.308754 130.179415 1500.493842 128.755053 1507.19872 125.984279 
C 1513.903598 123.213504 1519.998109 119.150103 1525.134089 114.026209 
C 1530.27007 108.902315 1534.347817 102.817394 1537.134381 96.119063 
C 1539.920945 89.420731 1541.362231 82.239019 1541.375902 74.9842 
L 1486.08 74.88 
L 1541.375608 74.671706 
z
" style="fill:#8da0cb;stroke:#ffffff;stroke-linejoin:miter;"/>
   </g>
   <g id="patch_53">
    <path d="M 1541.375902 74.9842 
C 1541.375913 74.978413 1541.375923 74.972626 1541.375932 74.966839 
C 1541.375941 74.961052 1541.375949 74.955265 1541.375956 74.949478 
L 1486.08 74.88 
L 1541.375902 74.9842 
z
" style="fill:#e78ac3;stroke:#ffffff;stroke-linejoin:miter;"/>
   </g>
   <g id="patch_54">
    <path d="M 1541.375956 74.949478 
C 1541.375964 74.943691 1541.37597 74.937904 1541.375975 74.932117 
C 1541.375981 74.926329 1541.375985 74.920542 1541.375989 74.914755 
L 1486.08 74.88 
L 1541.375956 74.949478 
z
" style="fill:#a6d854;stroke:#ffffff;stroke-linejoin:miter;"/>
   </g>
   <g id="patch_55">
    <path d="M 1541.375989 74.914755 
C 1541.375993 74.908968 1541.375995 74.903181 1541.375997 74.897394 
C 1541.375999 74.891607 1541.376 74.88582 1541.376 74.880033 
L 1486.08 74.88 
L 1541.375989 74.914755 
z
" style="fill:#ffd92f;stroke:#ffffff;stroke-linejoin:miter;"/>
   </g>
   <g id="text_9">
    <!-- Right Hand_1 -->
    <defs>
     <path d="M 44.390625 34.1875 
Q 47.5625 33.109375 50.5625 29.59375 
Q 53.5625 26.078125 56.59375 19.921875 
L 66.609375 0 
L 56 0 
L 46.6875 18.703125 
Q 43.0625 26.03125 39.671875 28.421875 
Q 36.28125 30.8125 30.421875 30.8125 
L 19.671875 30.8125 
L 19.671875 0 
L 9.8125 0 
L 9.8125 72.90625 
L 32.078125 72.90625 
Q 44.578125 72.90625 50.734375 67.671875 
Q 56.890625 62.453125 56.890625 51.90625 
Q 56.890625 45.015625 53.6875 40.46875 
Q 50.484375 35.9375 44.390625 34.1875 
z
M 19.671875 64.796875 
L 19.671875 38.921875 
L 32.078125 38.921875 
Q 39.203125 38.921875 42.84375 42.21875 
Q 46.484375 45.515625 46.484375 51.90625 
Q 46.484375 58.296875 42.84375 61.546875 
Q 39.203125 64.796875 32.078125 64.796875 
z
" id="DejaVuSans-82"/>
     <path d="M 9.421875 54.6875 
L 18.40625 54.6875 
L 18.40625 0 
L 9.421875 0 
z
M 9.421875 75.984375 
L 18.40625 75.984375 
L 18.40625 64.59375 
L 9.421875 64.59375 
z
" id="DejaVuSans-105"/>
     <path d="M 45.40625 27.984375 
Q 45.40625 37.75 41.375 43.109375 
Q 37.359375 48.484375 30.078125 48.484375 
Q 22.859375 48.484375 18.828125 43.109375 
Q 14.796875 37.75 14.796875 27.984375 
Q 14.796875 18.265625 18.828125 12.890625 
Q 22.859375 7.515625 30.078125 7.515625 
Q 37.359375 7.515625 41.375 12.890625 
Q 45.40625 18.265625 45.40625 27.984375 
z
M 54.390625 6.78125 
Q 54.390625 -7.171875 48.1875 -13.984375 
Q 42 -20.796875 29.203125 -20.796875 
Q 24.46875 -20.796875 20.265625 -20.09375 
Q 16.0625 -19.390625 12.109375 -17.921875 
L 12.109375 -9.1875 
Q 16.0625 -11.328125 19.921875 -12.34375 
Q 23.78125 -13.375 27.78125 -13.375 
Q 36.625 -13.375 41.015625 -8.765625 
Q 45.40625 -4.15625 45.40625 5.171875 
L 45.40625 9.625 
Q 42.625 4.78125 38.28125 2.390625 
Q 33.9375 0 27.875 0 
Q 17.828125 0 11.671875 7.65625 
Q 5.515625 15.328125 5.515625 27.984375 
Q 5.515625 40.671875 11.671875 48.328125 
Q 17.828125 56 27.875 56 
Q 33.9375 56 38.28125 53.609375 
Q 42.625 51.21875 45.40625 46.390625 
L 45.40625 54.6875 
L 54.390625 54.6875 
z
" id="DejaVuSans-103"/>
    </defs>
    <g style="fill:#262626;" transform="translate(1435.674141 5.2896)scale(0.15 -0.15)">
     <use xlink:href="#DejaVuSans-82"/>
     <use x="69.482422" xlink:href="#DejaVuSans-105"/>
     <use x="97.265625" xlink:href="#DejaVuSans-103"/>
     <use x="160.742188" xlink:href="#DejaVuSans-104"/>
     <use x="224.121094" xlink:href="#DejaVuSans-116"/>
     <use x="263.330078" xlink:href="#DejaVuSans-32"/>
     <use x="295.117188" xlink:href="#DejaVuSans-72"/>
     <use x="370.3125" xlink:href="#DejaVuSans-97"/>
     <use x="431.591797" xlink:href="#DejaVuSans-110"/>
     <use x="494.970703" xlink:href="#DejaVuSans-100"/>
     <use x="558.447266" xlink:href="#DejaVuSans-95"/>
     <use x="608.447266" xlink:href="#DejaVuSans-49"/>
    </g>
   </g>
  </g>
  <g id="axes_12">
   <g id="patch_56">
    <path d="M 1679.616 74.88 
C 1679.616 74.874213 1679.615999 74.868426 1679.615997 74.862639 
C 1679.615995 74.856852 1679.615993 74.851064 1679.615989 74.845277 
L 1624.32 74.88 
L 1679.616 74.88 
z
" style="fill:#66c2a5;stroke:#ffffff;stroke-linejoin:miter;"/>
   </g>
   <g id="patch_57">
    <path d="M 1679.615989 74.845277 
C 1679.615978 74.827918 1679.615959 74.810559 1679.615932 74.7932 
C 1679.615905 74.775841 1679.615869 74.758482 1679.615826 74.741123 
L 1624.32 74.88 
L 1679.615989 74.845277 
z
" style="fill:#fc8d62;stroke:#ffffff;stroke-linejoin:miter;"/>
   </g>
   <g id="patch_58">
    <path d="M 1679.615826 74.741123 
C 1679.597601 67.484855 1678.151234 60.302632 1675.359383 53.604921 
C 1672.567532 46.907209 1668.484416 40.824079 1663.343386 35.703183 
C 1658.202356 30.582287 1652.103251 26.523073 1645.394636 23.757526 
C 1638.686021 20.991979 1631.498177 19.573805 1624.241893 19.584055 
C 1616.985609 19.594305 1609.801801 21.032778 1603.101025 23.817267 
C 1596.40025 26.601755 1590.312636 30.678183 1585.186093 35.813583 
C 1580.059551 40.948982 1575.993636 47.043622 1573.220718 53.749194 
C 1570.447799 60.454766 1569.021728 67.641046 1569.024003 74.897337 
C 1569.026278 82.153628 1570.456856 89.339013 1573.233978 96.042845 
C 1576.011101 102.746676 1580.080836 108.838766 1585.210598 113.970949 
C 1590.34036 119.103133 1596.430529 123.175743 1603.133049 125.956029 
C 1609.835569 128.736315 1617.020278 130.170283 1624.276567 130.175983 
C 1631.532857 130.181682 1638.719809 128.759002 1645.426689 125.989249 
C 1652.133568 123.219495 1658.230127 119.156457 1663.367945 114.032339 
C 1668.505763 108.90822 1672.585064 102.822531 1675.372714 96.12307 
C 1678.160364 89.423609 1679.602228 82.240481 1679.615902 74.984202 
L 1624.32 74.88 
L 1679.615826 74.741123 
z
" style="fill:#8da0cb;stroke:#ffffff;stroke-linejoin:miter;"/>
   </g>
   <g id="patch_59">
    <path d="M 1679.615902 74.984202 
C 1679.615913 74.978415 1679.615923 74.972628 1679.615932 74.966841 
C 1679.615941 74.961054 1679.615949 74.955267 1679.615956 74.94948 
L 1624.32 74.88 
L 1679.615902 74.984202 
z
" style="fill:#e78ac3;stroke:#ffffff;stroke-linejoin:miter;"/>
   </g>
   <g id="patch_60">
    <path d="M 1679.615956 74.94948 
C 1679.615964 74.943693 1679.61597 74.937906 1679.615975 74.932118 
C 1679.615981 74.926331 1679.615985 74.920544 1679.615989 74.914757 
L 1624.32 74.88 
L 1679.615956 74.94948 
z
" style="fill:#a6d854;stroke:#ffffff;stroke-linejoin:miter;"/>
   </g>
   <g id="patch_61">
    <path d="M 1679.615989 74.914757 
C 1679.615993 74.90897 1679.615995 74.903183 1679.615997 74.897396 
C 1679.615999 74.891609 1679.616 74.885822 1679.616 74.880034 
L 1624.32 74.88 
L 1679.615989 74.914757 
z
" style="fill:#ffd92f;stroke:#ffffff;stroke-linejoin:miter;"/>
   </g>
   <g id="text_10">
    <!-- Right Hand_2 -->
    <g style="fill:#262626;" transform="translate(1573.914141 5.2896)scale(0.15 -0.15)">
     <use xlink:href="#DejaVuSans-82"/>
     <use x="69.482422" xlink:href="#DejaVuSans-105"/>
     <use x="97.265625" xlink:href="#DejaVuSans-103"/>
     <use x="160.742188" xlink:href="#DejaVuSans-104"/>
     <use x="224.121094" xlink:href="#DejaVuSans-116"/>
     <use x="263.330078" xlink:href="#DejaVuSans-32"/>
     <use x="295.117188" xlink:href="#DejaVuSans-72"/>
     <use x="370.3125" xlink:href="#DejaVuSans-97"/>
     <use x="431.591797" xlink:href="#DejaVuSans-110"/>
     <use x="494.970703" xlink:href="#DejaVuSans-100"/>
     <use x="558.447266" xlink:href="#DejaVuSans-95"/>
     <use x="608.447266" xlink:href="#DejaVuSans-50"/>
    </g>
   </g>
  </g>
  <g id="text_11">
   <!-- ONN4MST Layer-2 -->
   <defs>
    <path d="M 42.484375 60.59375 
Q 33.890625 60.59375 29.15625 54.25 
Q 24.421875 47.90625 24.421875 36.375 
Q 24.421875 24.90625 29.15625 18.546875 
Q 33.890625 12.203125 42.484375 12.203125 
Q 51.125 12.203125 55.859375 18.546875 
Q 60.59375 24.90625 60.59375 36.375 
Q 60.59375 47.90625 55.859375 54.25 
Q 51.125 60.59375 42.484375 60.59375 
z
M 42.484375 74.21875 
Q 60.0625 74.21875 70.015625 64.15625 
Q 79.984375 54.109375 79.984375 36.375 
Q 79.984375 18.703125 70.015625 8.640625 
Q 60.0625 -1.421875 42.484375 -1.421875 
Q 24.953125 -1.421875 14.96875 8.640625 
Q 4.984375 18.703125 4.984375 36.375 
Q 4.984375 54.109375 14.96875 64.15625 
Q 24.953125 74.21875 42.484375 74.21875 
z
" id="DejaVuSans-Bold-79"/>
    <path d="M 9.1875 72.90625 
L 30.171875 72.90625 
L 56.6875 22.90625 
L 56.6875 72.90625 
L 74.515625 72.90625 
L 74.515625 0 
L 53.515625 0 
L 27 50 
L 27 0 
L 9.1875 0 
z
" id="DejaVuSans-Bold-78"/>
    <path d="M 36.8125 57.421875 
L 16.21875 26.90625 
L 36.8125 26.90625 
z
M 33.6875 72.90625 
L 54.59375 72.90625 
L 54.59375 26.90625 
L 64.984375 26.90625 
L 64.984375 13.28125 
L 54.59375 13.28125 
L 54.59375 0 
L 36.8125 0 
L 36.8125 13.28125 
L 4.5 13.28125 
L 4.5 29.390625 
z
" id="DejaVuSans-Bold-52"/>
    <path d="M 9.1875 72.90625 
L 33.109375 72.90625 
L 49.703125 33.890625 
L 66.40625 72.90625 
L 90.28125 72.90625 
L 90.28125 0 
L 72.515625 0 
L 72.515625 53.328125 
L 55.71875 14.015625 
L 43.796875 14.015625 
L 27 53.328125 
L 27 0 
L 9.1875 0 
z
" id="DejaVuSans-Bold-77"/>
    <path d="M 59.90625 70.609375 
L 59.90625 55.171875 
Q 53.90625 57.859375 48.1875 59.21875 
Q 42.484375 60.59375 37.40625 60.59375 
Q 30.671875 60.59375 27.4375 58.734375 
Q 24.21875 56.890625 24.21875 52.984375 
Q 24.21875 50.046875 26.390625 48.40625 
Q 28.5625 46.78125 34.28125 45.609375 
L 42.28125 44 
Q 54.4375 41.546875 59.5625 36.5625 
Q 64.703125 31.59375 64.703125 22.40625 
Q 64.703125 10.359375 57.546875 4.46875 
Q 50.390625 -1.421875 35.6875 -1.421875 
Q 28.765625 -1.421875 21.78125 -0.09375 
Q 14.796875 1.21875 7.8125 3.8125 
L 7.8125 19.671875 
Q 14.796875 15.96875 21.3125 14.078125 
Q 27.828125 12.203125 33.890625 12.203125 
Q 40.046875 12.203125 43.3125 14.25 
Q 46.578125 16.3125 46.578125 20.125 
Q 46.578125 23.53125 44.359375 25.390625 
Q 42.140625 27.25 35.5 28.71875 
L 28.21875 30.328125 
Q 17.28125 32.671875 12.21875 37.796875 
Q 7.171875 42.921875 7.171875 51.609375 
Q 7.171875 62.5 14.203125 68.359375 
Q 21.234375 74.21875 34.421875 74.21875 
Q 40.4375 74.21875 46.78125 73.3125 
Q 53.125 72.40625 59.90625 70.609375 
z
" id="DejaVuSans-Bold-83"/>
    <path d="M 0.484375 72.90625 
L 67.671875 72.90625 
L 67.671875 58.6875 
L 43.5 58.6875 
L 43.5 0 
L 24.703125 0 
L 24.703125 58.6875 
L 0.484375 58.6875 
z
" id="DejaVuSans-Bold-84"/>
    <path id="DejaVuSans-Bold-32"/>
    <path d="M 9.1875 72.90625 
L 27.984375 72.90625 
L 27.984375 14.203125 
L 60.984375 14.203125 
L 60.984375 0 
L 9.1875 0 
z
" id="DejaVuSans-Bold-76"/>
    <path d="M 32.90625 24.609375 
Q 27.4375 24.609375 24.671875 22.75 
Q 21.921875 20.90625 21.921875 17.28125 
Q 21.921875 13.96875 24.140625 12.078125 
Q 26.375 10.203125 30.328125 10.203125 
Q 35.25 10.203125 38.625 13.734375 
Q 42 17.28125 42 22.609375 
L 42 24.609375 
z
M 59.625 31.203125 
L 59.625 0 
L 42 0 
L 42 8.109375 
Q 38.484375 3.125 34.078125 0.84375 
Q 29.6875 -1.421875 23.390625 -1.421875 
Q 14.890625 -1.421875 9.59375 3.53125 
Q 4.296875 8.5 4.296875 16.40625 
Q 4.296875 26.03125 10.90625 30.515625 
Q 17.53125 35.015625 31.6875 35.015625 
L 42 35.015625 
L 42 36.375 
Q 42 40.53125 38.71875 42.453125 
Q 35.453125 44.390625 28.515625 44.390625 
Q 22.90625 44.390625 18.0625 43.265625 
Q 13.234375 42.140625 9.078125 39.890625 
L 9.078125 53.21875 
Q 14.703125 54.59375 20.359375 55.296875 
Q 26.03125 56 31.6875 56 
Q 46.484375 56 53.046875 50.171875 
Q 59.625 44.34375 59.625 31.203125 
z
" id="DejaVuSans-Bold-97"/>
    <path d="M 1.21875 54.6875 
L 18.703125 54.6875 
L 33.40625 17.578125 
L 45.90625 54.6875 
L 63.375 54.6875 
L 40.375 -5.171875 
Q 36.921875 -14.3125 32.296875 -17.9375 
Q 27.6875 -21.578125 20.125 -21.578125 
L 10.015625 -21.578125 
L 10.015625 -10.109375 
L 15.484375 -10.109375 
Q 19.921875 -10.109375 21.9375 -8.6875 
Q 23.96875 -7.28125 25.09375 -3.609375 
L 25.59375 -2.09375 
z
" id="DejaVuSans-Bold-121"/>
    <path d="M 62.984375 27.484375 
L 62.984375 22.515625 
L 22.125 22.515625 
Q 22.75 16.359375 26.5625 13.28125 
Q 30.375 10.203125 37.203125 10.203125 
Q 42.71875 10.203125 48.5 11.84375 
Q 54.296875 13.484375 60.40625 16.796875 
L 60.40625 3.328125 
Q 54.203125 0.984375 48 -0.21875 
Q 41.796875 -1.421875 35.59375 -1.421875 
Q 20.75 -1.421875 12.515625 6.125 
Q 4.296875 13.671875 4.296875 27.296875 
Q 4.296875 40.671875 12.375 48.328125 
Q 20.453125 56 34.625 56 
Q 47.515625 56 55.25 48.234375 
Q 62.984375 40.484375 62.984375 27.484375 
z
M 45.015625 33.296875 
Q 45.015625 38.28125 42.109375 41.328125 
Q 39.203125 44.390625 34.515625 44.390625 
Q 29.4375 44.390625 26.265625 41.53125 
Q 23.09375 38.671875 22.3125 33.296875 
z
" id="DejaVuSans-Bold-101"/>
    <path d="M 49.03125 39.796875 
Q 46.734375 40.875 44.453125 41.375 
Q 42.1875 41.890625 39.890625 41.890625 
Q 33.15625 41.890625 29.515625 37.5625 
Q 25.875 33.25 25.875 25.203125 
L 25.875 0 
L 8.40625 0 
L 8.40625 54.6875 
L 25.875 54.6875 
L 25.875 45.703125 
Q 29.25 51.078125 33.609375 53.53125 
Q 37.984375 56 44.09375 56 
Q 44.96875 56 45.984375 55.921875 
Q 47.015625 55.859375 48.96875 55.609375 
z
" id="DejaVuSans-Bold-114"/>
    <path d="M 5.421875 35.890625 
L 36.078125 35.890625 
L 36.078125 21.6875 
L 5.421875 21.6875 
z
" id="DejaVuSans-Bold-45"/>
    <path d="M 28.8125 13.8125 
L 60.890625 13.8125 
L 60.890625 0 
L 7.90625 0 
L 7.90625 13.8125 
L 34.515625 37.3125 
Q 38.09375 40.53125 39.796875 43.609375 
Q 41.5 46.6875 41.5 50 
Q 41.5 55.125 38.0625 58.25 
Q 34.625 61.375 28.90625 61.375 
Q 24.515625 61.375 19.28125 59.5 
Q 14.0625 57.625 8.109375 53.90625 
L 8.109375 69.921875 
Q 14.453125 72.015625 20.65625 73.109375 
Q 26.859375 74.21875 32.8125 74.21875 
Q 45.90625 74.21875 53.15625 68.453125 
Q 60.40625 62.703125 60.40625 52.390625 
Q 60.40625 46.4375 57.328125 41.28125 
Q 54.25 36.140625 44.390625 27.484375 
z
" id="DejaVuSans-Bold-50"/>
   </defs>
   <g style="fill:#262626;" transform="translate(787.648828 11.280469)scale(0.15 -0.15)">
    <use xlink:href="#DejaVuSans-Bold-79"/>
    <use x="85.009766" xlink:href="#DejaVuSans-Bold-78"/>
    <use x="168.701172" xlink:href="#DejaVuSans-Bold-78"/>
    <use x="252.392578" xlink:href="#DejaVuSans-Bold-52"/>
    <use x="321.972656" xlink:href="#DejaVuSans-Bold-77"/>
    <use x="421.484375" xlink:href="#DejaVuSans-Bold-83"/>
    <use x="493.505859" xlink:href="#DejaVuSans-Bold-84"/>
    <use x="561.71875" xlink:href="#DejaVuSans-Bold-32"/>
    <use x="596.533203" xlink:href="#DejaVuSans-Bold-76"/>
    <use x="660.253906" xlink:href="#DejaVuSans-Bold-97"/>
    <use x="724.609375" xlink:href="#DejaVuSans-Bold-121"/>
    <use x="789.794922" xlink:href="#DejaVuSans-Bold-101"/>
    <use x="857.617188" xlink:href="#DejaVuSans-Bold-114"/>
    <use x="906.933594" xlink:href="#DejaVuSans-Bold-45"/>
    <use x="948.4375" xlink:href="#DejaVuSans-Bold-50"/>
   </g>
  </g>
  <g id="legend_1">
   <g id="patch_62">
    <path d="M 736.26 144.520313 
L 906.151406 144.520313 
Q 909.151406 144.520313 909.151406 141.520313 
L 909.151406 10.5 
Q 909.151406 7.5 906.151406 7.5 
L 736.26 7.5 
Q 733.26 7.5 733.26 10.5 
L 733.26 141.520313 
Q 733.26 144.520313 736.26 144.520313 
z
" style="fill:#ffffff;opacity:0.8;stroke:#ffffff;stroke-linejoin:miter;"/>
   </g>
   <g id="patch_63">
    <path d="M 739.26 24.897656 
L 769.26 24.897656 
L 769.26 14.397656 
L 739.26 14.397656 
z
" style="fill:#66c2a5;stroke:#ffffff;stroke-linejoin:miter;"/>
   </g>
   <g id="text_12">
    <!-- Engineered -->
    <defs>
     <path d="M 9.8125 72.90625 
L 55.90625 72.90625 
L 55.90625 64.59375 
L 19.671875 64.59375 
L 19.671875 43.015625 
L 54.390625 43.015625 
L 54.390625 34.71875 
L 19.671875 34.71875 
L 19.671875 8.296875 
L 56.78125 8.296875 
L 56.78125 0 
L 9.8125 0 
z
" id="DejaVuSans-69"/>
    </defs>
    <g style="fill:#262626;" transform="translate(781.26 24.897656)scale(0.15 -0.15)">
     <use xlink:href="#DejaVuSans-69"/>
     <use x="63.183594" xlink:href="#DejaVuSans-110"/>
     <use x="126.5625" xlink:href="#DejaVuSans-103"/>
     <use x="190.039062" xlink:href="#DejaVuSans-105"/>
     <use x="217.822266" xlink:href="#DejaVuSans-110"/>
     <use x="281.201172" xlink:href="#DejaVuSans-101"/>
     <use x="342.724609" xlink:href="#DejaVuSans-101"/>
     <use x="404.248047" xlink:href="#DejaVuSans-114"/>
     <use x="443.111328" xlink:href="#DejaVuSans-101"/>
     <use x="504.634766" xlink:href="#DejaVuSans-100"/>
    </g>
   </g>
   <g id="patch_64">
    <path d="M 739.26 46.914844 
L 769.26 46.914844 
L 769.26 36.414844 
L 739.26 36.414844 
z
" style="fill:#fc8d62;stroke:#ffffff;stroke-linejoin:miter;"/>
   </g>
   <g id="text_13">
    <!-- Environmental -->
    <defs>
     <path d="M 2.984375 54.6875 
L 12.5 54.6875 
L 29.59375 8.796875 
L 46.6875 54.6875 
L 56.203125 54.6875 
L 35.6875 0 
L 23.484375 0 
z
" id="DejaVuSans-118"/>
     <path d="M 52 44.1875 
Q 55.375 50.25 60.0625 53.125 
Q 64.75 56 71.09375 56 
Q 79.640625 56 84.28125 50.015625 
Q 88.921875 44.046875 88.921875 33.015625 
L 88.921875 0 
L 79.890625 0 
L 79.890625 32.71875 
Q 79.890625 40.578125 77.09375 44.375 
Q 74.3125 48.1875 68.609375 48.1875 
Q 61.625 48.1875 57.5625 43.546875 
Q 53.515625 38.921875 53.515625 30.90625 
L 53.515625 0 
L 44.484375 0 
L 44.484375 32.71875 
Q 44.484375 40.625 41.703125 44.40625 
Q 38.921875 48.1875 33.109375 48.1875 
Q 26.21875 48.1875 22.15625 43.53125 
Q 18.109375 38.875 18.109375 30.90625 
L 18.109375 0 
L 9.078125 0 
L 9.078125 54.6875 
L 18.109375 54.6875 
L 18.109375 46.1875 
Q 21.1875 51.21875 25.484375 53.609375 
Q 29.78125 56 35.6875 56 
Q 41.65625 56 45.828125 52.96875 
Q 50 49.953125 52 44.1875 
z
" id="DejaVuSans-109"/>
    </defs>
    <g style="fill:#262626;" transform="translate(781.26 46.914844)scale(0.15 -0.15)">
     <use xlink:href="#DejaVuSans-69"/>
     <use x="63.183594" xlink:href="#DejaVuSans-110"/>
     <use x="126.5625" xlink:href="#DejaVuSans-118"/>
     <use x="185.742188" xlink:href="#DejaVuSans-105"/>
     <use x="213.525391" xlink:href="#DejaVuSans-114"/>
     <use x="252.388672" xlink:href="#DejaVuSans-111"/>
     <use x="313.570312" xlink:href="#DejaVuSans-110"/>
     <use x="376.949219" xlink:href="#DejaVuSans-109"/>
     <use x="474.361328" xlink:href="#DejaVuSans-101"/>
     <use x="535.884766" xlink:href="#DejaVuSans-110"/>
     <use x="599.263672" xlink:href="#DejaVuSans-116"/>
     <use x="638.472656" xlink:href="#DejaVuSans-97"/>
     <use x="699.751953" xlink:href="#DejaVuSans-108"/>
    </g>
   </g>
   <g id="patch_65">
    <path d="M 739.26 68.932031 
L 769.26 68.932031 
L 769.26 58.432031 
L 739.26 58.432031 
z
" style="fill:#8da0cb;stroke:#ffffff;stroke-linejoin:miter;"/>
   </g>
   <g id="text_14">
    <!-- Host_associated -->
    <defs>
     <path d="M 44.28125 53.078125 
L 44.28125 44.578125 
Q 40.484375 46.53125 36.375 47.5 
Q 32.28125 48.484375 27.875 48.484375 
Q 21.1875 48.484375 17.84375 46.4375 
Q 14.5 44.390625 14.5 40.28125 
Q 14.5 37.15625 16.890625 35.375 
Q 19.28125 33.59375 26.515625 31.984375 
L 29.59375 31.296875 
Q 39.15625 29.25 43.1875 25.515625 
Q 47.21875 21.78125 47.21875 15.09375 
Q 47.21875 7.46875 41.1875 3.015625 
Q 35.15625 -1.421875 24.609375 -1.421875 
Q 20.21875 -1.421875 15.453125 -0.5625 
Q 10.6875 0.296875 5.421875 2 
L 5.421875 11.28125 
Q 10.40625 8.6875 15.234375 7.390625 
Q 20.0625 6.109375 24.8125 6.109375 
Q 31.15625 6.109375 34.5625 8.28125 
Q 37.984375 10.453125 37.984375 14.40625 
Q 37.984375 18.0625 35.515625 20.015625 
Q 33.0625 21.96875 24.703125 23.78125 
L 21.578125 24.515625 
Q 13.234375 26.265625 9.515625 29.90625 
Q 5.8125 33.546875 5.8125 39.890625 
Q 5.8125 47.609375 11.28125 51.796875 
Q 16.75 56 26.8125 56 
Q 31.78125 56 36.171875 55.265625 
Q 40.578125 54.546875 44.28125 53.078125 
z
" id="DejaVuSans-115"/>
     <path d="M 48.78125 52.59375 
L 48.78125 44.1875 
Q 44.96875 46.296875 41.140625 47.34375 
Q 37.3125 48.390625 33.40625 48.390625 
Q 24.65625 48.390625 19.8125 42.84375 
Q 14.984375 37.3125 14.984375 27.296875 
Q 14.984375 17.28125 19.8125 11.734375 
Q 24.65625 6.203125 33.40625 6.203125 
Q 37.3125 6.203125 41.140625 7.25 
Q 44.96875 8.296875 48.78125 10.40625 
L 48.78125 2.09375 
Q 45.015625 0.34375 40.984375 -0.53125 
Q 36.96875 -1.421875 32.421875 -1.421875 
Q 20.0625 -1.421875 12.78125 6.34375 
Q 5.515625 14.109375 5.515625 27.296875 
Q 5.515625 40.671875 12.859375 48.328125 
Q 20.21875 56 33.015625 56 
Q 37.15625 56 41.109375 55.140625 
Q 45.0625 54.296875 48.78125 52.59375 
z
" id="DejaVuSans-99"/>
    </defs>
    <g style="fill:#262626;" transform="translate(781.26 68.932031)scale(0.15 -0.15)">
     <use xlink:href="#DejaVuSans-72"/>
     <use x="75.195312" xlink:href="#DejaVuSans-111"/>
     <use x="136.376953" xlink:href="#DejaVuSans-115"/>
     <use x="188.476562" xlink:href="#DejaVuSans-116"/>
     <use x="227.685547" xlink:href="#DejaVuSans-95"/>
     <use x="277.685547" xlink:href="#DejaVuSans-97"/>
     <use x="338.964844" xlink:href="#DejaVuSans-115"/>
     <use x="391.064453" xlink:href="#DejaVuSans-115"/>
     <use x="443.164062" xlink:href="#DejaVuSans-111"/>
     <use x="504.345703" xlink:href="#DejaVuSans-99"/>
     <use x="559.326172" xlink:href="#DejaVuSans-105"/>
     <use x="587.109375" xlink:href="#DejaVuSans-97"/>
     <use x="648.388672" xlink:href="#DejaVuSans-116"/>
     <use x="687.597656" xlink:href="#DejaVuSans-101"/>
     <use x="749.121094" xlink:href="#DejaVuSans-100"/>
    </g>
   </g>
   <g id="patch_66">
    <path d="M 739.26 91.366406 
L 769.26 91.366406 
L 769.26 80.866406 
L 739.26 80.866406 
z
" style="fill:#e78ac3;stroke:#ffffff;stroke-linejoin:miter;"/>
   </g>
   <g id="text_15">
    <!-- Mixed -->
    <defs>
     <path d="M 54.890625 54.6875 
L 35.109375 28.078125 
L 55.90625 0 
L 45.3125 0 
L 29.390625 21.484375 
L 13.484375 0 
L 2.875 0 
L 24.125 28.609375 
L 4.6875 54.6875 
L 15.28125 54.6875 
L 29.78125 35.203125 
L 44.28125 54.6875 
z
" id="DejaVuSans-120"/>
    </defs>
    <g style="fill:#262626;" transform="translate(781.26 91.366406)scale(0.15 -0.15)">
     <use xlink:href="#DejaVuSans-77"/>
     <use x="86.279297" xlink:href="#DejaVuSans-105"/>
     <use x="114.0625" xlink:href="#DejaVuSans-120"/>
     <use x="170.117188" xlink:href="#DejaVuSans-101"/>
     <use x="231.640625" xlink:href="#DejaVuSans-100"/>
    </g>
   </g>
   <g id="patch_67">
    <path d="M 739.26 113.383594 
L 769.26 113.383594 
L 769.26 102.883594 
L 739.26 102.883594 
z
" style="fill:#a6d854;stroke:#ffffff;stroke-linejoin:miter;"/>
   </g>
   <g id="text_16">
    <!-- Others -->
    <defs>
     <path d="M 39.40625 66.21875 
Q 28.65625 66.21875 22.328125 58.203125 
Q 16.015625 50.203125 16.015625 36.375 
Q 16.015625 22.609375 22.328125 14.59375 
Q 28.65625 6.59375 39.40625 6.59375 
Q 50.140625 6.59375 56.421875 14.59375 
Q 62.703125 22.609375 62.703125 36.375 
Q 62.703125 50.203125 56.421875 58.203125 
Q 50.140625 66.21875 39.40625 66.21875 
z
M 39.40625 74.21875 
Q 54.734375 74.21875 63.90625 63.9375 
Q 73.09375 53.65625 73.09375 36.375 
Q 73.09375 19.140625 63.90625 8.859375 
Q 54.734375 -1.421875 39.40625 -1.421875 
Q 24.03125 -1.421875 14.8125 8.828125 
Q 5.609375 19.09375 5.609375 36.375 
Q 5.609375 53.65625 14.8125 63.9375 
Q 24.03125 74.21875 39.40625 74.21875 
z
" id="DejaVuSans-79"/>
    </defs>
    <g style="fill:#262626;" transform="translate(781.26 113.383594)scale(0.15 -0.15)">
     <use xlink:href="#DejaVuSans-79"/>
     <use x="78.710938" xlink:href="#DejaVuSans-116"/>
     <use x="117.919922" xlink:href="#DejaVuSans-104"/>
     <use x="181.298828" xlink:href="#DejaVuSans-101"/>
     <use x="242.822266" xlink:href="#DejaVuSans-114"/>
     <use x="283.935547" xlink:href="#DejaVuSans-115"/>
    </g>
   </g>
   <g id="patch_68">
    <path d="M 739.26 135.400781 
L 769.26 135.400781 
L 769.26 124.900781 
L 739.26 124.900781 
z
" style="fill:#ffd92f;stroke:#ffffff;stroke-linejoin:miter;"/>
   </g>
   <g id="text_17">
    <!-- Unknown -->
    <defs>
     <path d="M 8.6875 72.90625 
L 18.609375 72.90625 
L 18.609375 28.609375 
Q 18.609375 16.890625 22.84375 11.734375 
Q 27.09375 6.59375 36.625 6.59375 
Q 46.09375 6.59375 50.34375 11.734375 
Q 54.59375 16.890625 54.59375 28.609375 
L 54.59375 72.90625 
L 64.5 72.90625 
L 64.5 27.390625 
Q 64.5 13.140625 57.4375 5.859375 
Q 50.390625 -1.421875 36.625 -1.421875 
Q 22.796875 -1.421875 15.734375 5.859375 
Q 8.6875 13.140625 8.6875 27.390625 
z
" id="DejaVuSans-85"/>
     <path d="M 9.078125 75.984375 
L 18.109375 75.984375 
L 18.109375 31.109375 
L 44.921875 54.6875 
L 56.390625 54.6875 
L 27.390625 29.109375 
L 57.625 0 
L 45.90625 0 
L 18.109375 26.703125 
L 18.109375 0 
L 9.078125 0 
z
" id="DejaVuSans-107"/>
     <path d="M 4.203125 54.6875 
L 13.1875 54.6875 
L 24.421875 12.015625 
L 35.59375 54.6875 
L 46.1875 54.6875 
L 57.421875 12.015625 
L 68.609375 54.6875 
L 77.59375 54.6875 
L 63.28125 0 
L 52.6875 0 
L 40.921875 44.828125 
L 29.109375 0 
L 18.5 0 
z
" id="DejaVuSans-119"/>
    </defs>
    <g style="fill:#262626;" transform="translate(781.26 135.400781)scale(0.15 -0.15)">
     <use xlink:href="#DejaVuSans-85"/>
     <use x="73.193359" xlink:href="#DejaVuSans-110"/>
     <use x="136.572266" xlink:href="#DejaVuSans-107"/>
     <use x="194.482422" xlink:href="#DejaVuSans-110"/>
     <use x="257.861328" xlink:href="#DejaVuSans-111"/>
     <use x="319.042969" xlink:href="#DejaVuSans-119"/>
     <use x="400.830078" xlink:href="#DejaVuSans-110"/>
    </g>
   </g>
  </g>
 </g>
</svg>
