<?xml version="1.0" encoding="utf-8" standalone="no"?>
<!DOCTYPE svg PUBLIC "-//W3C//DTD SVG 1.1//EN"
  "http://www.w3.org/Graphics/SVG/1.1/DTD/svg11.dtd">
<!-- Created with matplotlib (https://matplotlib.org/) -->
<svg height="144pt" version="1.1" viewBox="0 0 1728 144" width="1728pt" xmlns="http://www.w3.org/2000/svg" xmlns:xlink="http://www.w3.org/1999/xlink">
 <defs>
  <style type="text/css">
*{stroke-linecap:butt;stroke-linejoin:round;}
  </style>
 </defs>
 <g id="figure_1">
  <g id="patch_1">
   <path d="M 0 144 
L 1728 144 
L 1728 0 
L 0 0 
z
" style="fill:#ffffff;"/>
  </g>
  <g id="axes_1">
   <g id="patch_2">
    <path d="M 129.6 72 
C 129.6 63.009338 127.495 54.142313 123.454035 46.110962 
C 119.41307 38.079611 113.54728 31.104823 106.327699 25.746685 
L 72 72 
L 129.6 72 
z
" style="fill:#66c2a5;stroke:#ffffff;stroke-linejoin:miter;"/>
   </g>
   <g id="patch_3">
    <path d="M 106.327699 25.746685 
C 104.084755 24.082046 101.723696 22.582759 99.263215 21.260695 
C 96.802735 19.938631 94.249345 18.797289 91.623262 17.845706 
L 72 72 
L 106.327699 25.746685 
z
" style="fill:#fc8d62;stroke:#ffffff;stroke-linejoin:miter;"/>
   </g>
   <g id="patch_4">
    <path d="M 91.623262 17.845706 
C 84.280587 15.185026 76.472905 14.0453 68.676048 14.495988 
C 60.879191 14.946677 53.254833 16.978433 46.267633 20.467435 
L 72 72 
L 91.623262 17.845706 
z
" style="fill:#8da0cb;stroke:#ffffff;stroke-linejoin:miter;"/>
   </g>
   <g id="patch_5">
    <path d="M 46.267633 20.467435 
C 41.50587 22.845182 37.096572 25.871497 33.16574 29.459899 
C 29.234908 33.0483 25.820346 37.164277 23.019631 41.690209 
L 72 72 
L 46.267633 20.467435 
z
" style="fill:#e78ac3;stroke:#ffffff;stroke-linejoin:miter;"/>
   </g>
   <g id="patch_6">
    <path d="M 23.019631 41.690209 
C 20.232309 46.194497 18.079592 51.061821 16.622413 56.154405 
C 15.165235 61.246988 14.417476 66.516324 14.400303 71.813255 
L 72 72 
L 23.019631 41.690209 
z
" style="fill:#a6d854;stroke:#ffffff;stroke-linejoin:miter;"/>
   </g>
   <g id="patch_7">
    <path d="M 14.400303 71.813255 
C 14.375775 79.378701 15.842013 86.875385 18.715072 93.874106 
C 21.588132 100.872827 25.812116 107.237423 31.145193 112.603507 
C 36.47827 117.969591 42.816683 122.232764 49.797545 125.148951 
C 56.778406 128.065137 64.2659 129.577602 71.831353 129.599753 
C 79.396806 129.621904 86.893029 128.15331 93.890847 125.278052 
C 100.888665 122.402793 107.251934 118.176809 112.616342 112.842047 
C 117.98075 107.507284 122.241931 101.167532 125.155924 94.185754 
C 128.069918 87.203977 129.580029 79.716008 129.599803 72.150548 
L 72 72 
L 14.400303 71.813255 
z
" style="fill:#ffd92f;stroke:#ffffff;stroke-linejoin:miter;"/>
   </g>
  </g>
  <g id="axes_2">
   <g id="patch_8">
    <path d="M 273.6 72 
C 273.6 69.537712 273.442113 67.077956 273.127311 64.635875 
C 272.812509 62.193794 272.341439 59.774409 271.717002 57.392616 
L 216 72 
L 273.6 72 
z
" style="fill:#66c2a5;stroke:#ffffff;stroke-linejoin:miter;"/>
   </g>
   <g id="patch_9">
    <path d="M 271.717002 57.392616 
C 271.472166 56.458735 271.203888 55.531157 270.912425 54.610762 
C 270.620961 53.690366 270.306403 52.777444 269.969049 51.872861 
L 216 72 
L 271.717002 57.392616 
z
" style="fill:#fc8d62;stroke:#ffffff;stroke-linejoin:miter;"/>
   </g>
   <g id="patch_10">
    <path d="M 269.969049 51.872861 
C 267.540119 45.359911 263.952159 39.340107 259.379034 34.105153 
C 254.805908 28.870199 249.322695 24.506041 243.195099 21.224153 
L 216 72 
L 269.969049 51.872861 
z
" style="fill:#8da0cb;stroke:#ffffff;stroke-linejoin:miter;"/>
   </g>
   <g id="patch_11">
    <path d="M 243.195099 21.224153 
C 233.886687 16.238649 223.384142 13.90752 212.840598 14.486713 
C 202.297054 15.065906 192.113048 18.533419 183.406741 24.508533 
C 174.700433 30.483647 167.802566 38.739375 163.470496 48.369274 
C 159.138426 57.999173 157.536723 68.637413 158.841247 79.115963 
L 216 72 
L 243.195099 21.224153 
z
" style="fill:#e78ac3;stroke:#ffffff;stroke-linejoin:miter;"/>
   </g>
   <g id="patch_12">
    <path d="M 158.841247 79.115963 
C 160.017192 88.561705 163.51643 97.57029 169.024882 105.333141 
C 174.533334 113.095991 181.88111 119.373687 190.408699 123.602765 
L 216 72 
L 158.841247 79.115963 
z
" style="fill:#a6d854;stroke:#ffffff;stroke-linejoin:miter;"/>
   </g>
   <g id="patch_13">
    <path d="M 190.408699 123.602765 
C 199.102822 127.914431 208.74722 129.959774 218.443034 129.548167 
C 228.138849 129.136561 237.575203 126.281202 245.872626 121.248211 
C 254.170049 116.215219 261.062502 109.165968 265.907606 100.757449 
C 270.75271 92.34893 273.395118 82.850744 273.588556 73.148125 
L 216 72 
L 190.408699 123.602765 
z
" style="fill:#ffd92f;stroke:#ffffff;stroke-linejoin:miter;"/>
   </g>
  </g>
  <g id="axes_3">
   <g id="patch_14">
    <path d="M 417.6 72 
C 417.6 62.986648 415.484362 54.097874 411.423813 46.050983 
C 407.363264 38.004092 401.470049 31.021524 394.21974 25.666757 
C 386.969431 20.311991 378.562446 16.733047 369.677212 15.218739 
C 360.791978 13.704432 351.674108 14.29662 343.059396 16.947516 
L 360 72 
L 417.6 72 
z
" style="fill:#66c2a5;stroke:#ffffff;stroke-linejoin:miter;"/>
   </g>
   <g id="patch_15">
    <path d="M 343.059396 16.947516 
C 341.941352 17.291558 340.834048 17.669579 339.739024 18.081053 
C 338.644001 18.492527 337.561766 18.937263 336.493826 19.414643 
L 360 72 
L 343.059396 16.947516 
z
" style="fill:#fc8d62;stroke:#ffffff;stroke-linejoin:miter;"/>
   </g>
   <g id="patch_16">
    <path d="M 336.493826 19.414643 
C 323.719351 25.124959 313.453307 35.299043 307.628278 48.02162 
C 301.803249 60.744196 300.809229 75.163474 304.833342 88.56502 
L 360 72 
L 336.493826 19.414643 
z
" style="fill:#8da0cb;stroke:#ffffff;stroke-linejoin:miter;"/>
   </g>
   <g id="patch_17">
    <path d="M 304.833342 88.56502 
C 306.972037 95.687538 310.470005 102.328928 315.133631 108.121586 
C 319.797257 113.914243 325.53888 118.749283 332.040697 122.359084 
L 360 72 
L 304.833342 88.56502 
z
" style="fill:#e78ac3;stroke:#ffffff;stroke-linejoin:miter;"/>
   </g>
   <g id="patch_18">
    <path d="M 332.040697 122.359084 
C 332.04597 122.362012 332.051244 122.364939 332.056519 122.367865 
C 332.061793 122.370792 332.067068 122.373717 332.072344 122.376642 
L 360 72 
L 332.040697 122.359084 
z
" style="fill:#a6d854;stroke:#ffffff;stroke-linejoin:miter;"/>
   </g>
   <g id="patch_19">
    <path d="M 332.072344 122.376642 
C 340.827915 127.23053 350.699502 129.718983 360.709749 129.595627 
C 370.719995 129.472271 380.527264 126.741316 389.160566 121.673146 
C 397.793867 116.604975 404.958559 109.37256 409.945285 100.69196 
C 414.93201 92.01136 417.570579 82.178833 417.599755 72.167869 
L 360 72 
L 332.072344 122.376642 
z
" style="fill:#ffd92f;stroke:#ffffff;stroke-linejoin:miter;"/>
   </g>
  </g>
  <g id="axes_4">
   <g id="patch_20">
    <path d="M 561.6 72 
C 561.6 59.893493 557.783138 48.089718 550.694797 38.275293 
C 543.606457 28.460867 533.601136 21.126625 522.108476 17.320542 
C 510.615816 13.514459 498.21058 13.426882 486.665328 17.070325 
C 475.120077 20.713769 465.012204 27.906018 457.786004 37.619387 
L 504 72 
L 561.6 72 
z
" style="fill:#66c2a5;stroke:#ffffff;stroke-linejoin:miter;"/>
   </g>
   <g id="patch_21">
    <path d="M 457.786004 37.619387 
C 453.344773 43.589234 450.102091 50.363479 448.237631 57.566769 
C 446.37317 64.770058 445.922015 72.266847 446.909163 79.641746 
L 504 72 
L 457.786004 37.619387 
z
" style="fill:#fc8d62;stroke:#ffffff;stroke-linejoin:miter;"/>
   </g>
   <g id="patch_22">
    <path d="M 446.909163 79.641746 
C 446.90996 79.647705 446.910759 79.653664 446.911558 79.659622 
C 446.912358 79.665581 446.913158 79.67154 446.913959 79.677498 
L 504 72 
L 446.909163 79.641746 
z
" style="fill:#8da0cb;stroke:#ffffff;stroke-linejoin:miter;"/>
   </g>
   <g id="patch_23">
    <path d="M 446.913959 79.677498 
C 446.914761 79.683456 446.915563 79.689415 446.916366 79.695373 
C 446.91717 79.701331 446.917974 79.707289 446.918779 79.713247 
L 504 72 
L 446.913959 79.677498 
z
" style="fill:#e78ac3;stroke:#ffffff;stroke-linejoin:miter;"/>
   </g>
   <g id="patch_24">
    <path d="M 446.918779 79.713247 
C 446.919584 79.719205 446.92039 79.725163 446.921197 79.73112 
C 446.922004 79.737078 446.922812 79.743035 446.92362 79.748993 
L 504 72 
L 446.918779 79.713247 
z
" style="fill:#a6d854;stroke:#ffffff;stroke-linejoin:miter;"/>
   </g>
   <g id="patch_25">
    <path d="M 446.92362 79.748993 
C 448.887715 94.215826 456.28042 107.408313 467.594041 116.635929 
C 478.907662 125.863545 493.316985 130.45323 507.88332 129.468947 
C 522.449655 128.484663 536.110535 121.998204 546.079911 111.332443 
C 556.049287 100.666682 561.599994 86.599576 561.6 72.000024 
L 504 72 
L 446.92362 79.748993 
z
" style="fill:#ffd92f;stroke:#ffffff;stroke-linejoin:miter;"/>
   </g>
  </g>
  <g id="axes_5">
   <g id="patch_26">
    <path d="M 705.6 72 
C 705.6 61.581152 702.773115 51.354946 697.42177 42.415399 
C 692.070426 33.475852 684.39251 26.153544 675.209423 21.231828 
L 648 72 
L 705.6 72 
z
" style="fill:#66c2a5;stroke:#ffffff;stroke-linejoin:miter;"/>
   </g>
   <g id="patch_27">
    <path d="M 675.209423 21.231828 
C 665.737874 16.15551 655.03209 13.829656 644.308061 14.518441 
C 633.584032 15.207227 623.263757 18.883548 614.519439 25.129838 
C 605.775122 31.376129 598.950859 39.946592 594.821767 49.867773 
C 590.692674 59.788953 589.421237 70.670445 591.151867 81.276299 
L 648 72 
L 675.209423 21.231828 
z
" style="fill:#fc8d62;stroke:#ffffff;stroke-linejoin:miter;"/>
   </g>
   <g id="patch_28">
    <path d="M 591.151867 81.276299 
C 591.152838 81.282249 591.153809 81.288199 591.154782 81.294149 
C 591.155755 81.300099 591.156729 81.306048 591.157703 81.311998 
L 648 72 
L 591.151867 81.276299 
z
" style="fill:#8da0cb;stroke:#ffffff;stroke-linejoin:miter;"/>
   </g>
   <g id="patch_29">
    <path d="M 591.157703 81.311998 
C 591.393312 82.750203 591.68342 84.178949 592.0274 85.595149 
C 592.37138 87.01135 592.768985 88.413986 593.219356 89.800028 
L 648 72 
L 591.157703 81.311998 
z
" style="fill:#e78ac3;stroke:#ffffff;stroke-linejoin:miter;"/>
   </g>
   <g id="patch_30">
    <path d="M 593.219356 89.800028 
C 593.221843 89.807684 593.224332 89.815339 593.226823 89.822993 
C 593.229314 89.830648 593.231806 89.838302 593.2343 89.845956 
L 648 72 
L 593.219356 89.800028 
z
" style="fill:#a6d854;stroke:#ffffff;stroke-linejoin:miter;"/>
   </g>
   <g id="patch_31">
    <path d="M 593.2343 89.845956 
C 597.481112 102.878579 606.24362 113.976773 617.935413 121.131259 
C 629.627205 128.285745 643.497384 131.037032 657.034818 128.887011 
C 670.572251 126.736991 682.907505 119.823747 691.80734 109.39889 
C 700.707174 98.974034 705.600002 85.707095 705.6 71.999991 
L 648 72 
L 593.2343 89.845956 
z
" style="fill:#ffd92f;stroke:#ffffff;stroke-linejoin:miter;"/>
   </g>
  </g>
  <g id="axes_6"/>
  <g id="axes_7"/>
  <g id="axes_8">
   <g id="patch_32">
    <path d="M 1137.6 72 
C 1137.6 57.653145 1132.239785 43.811401 1122.577176 33.206391 
C 1112.914566 22.601381 1099.629948 15.979848 1085.344996 14.648531 
C 1071.060045 13.317213 1056.780623 17.369855 1045.324729 26.006679 
C 1033.868834 34.643504 1026.043125 47.256356 1023.391979 61.356132 
L 1080 72 
L 1137.6 72 
z
" style="fill:#66c2a5;stroke:#ffffff;stroke-linejoin:miter;"/>
   </g>
   <g id="patch_33">
    <path d="M 1023.391979 61.356132 
C 1021.295899 72.503861 1022.538752 84.026236 1026.963844 94.470563 
C 1031.388937 104.91489 1038.802145 113.822986 1048.26884 120.071753 
C 1057.735534 126.320521 1068.840422 129.635833 1080.183442 129.599708 
C 1091.526462 129.563583 1102.610007 126.177606 1112.036709 119.868667 
L 1080 72 
L 1023.391979 61.356132 
z
" style="fill:#fc8d62;stroke:#ffffff;stroke-linejoin:miter;"/>
   </g>
   <g id="patch_34">
    <path d="M 1112.036709 119.868667 
C 1112.041708 119.865321 1112.046707 119.861974 1112.051706 119.858627 
C 1112.056705 119.855279 1112.061703 119.851931 1112.0667 119.848581 
L 1080 72 
L 1112.036709 119.868667 
z
" style="fill:#8da0cb;stroke:#ffffff;stroke-linejoin:miter;"/>
   </g>
   <g id="patch_35">
    <path d="M 1112.0667 119.848581 
C 1112.071698 119.845232 1112.076695 119.841882 1112.081691 119.838531 
C 1112.086688 119.835181 1112.091684 119.831829 1112.096679 119.828477 
L 1080 72 
L 1112.0667 119.848581 
z
" style="fill:#e78ac3;stroke:#ffffff;stroke-linejoin:miter;"/>
   </g>
   <g id="patch_36">
    <path d="M 1112.096679 119.828477 
C 1114.908009 117.941853 1117.547531 115.811025 1119.984569 113.460755 
C 1122.421608 111.110485 1124.646687 108.549914 1126.633949 105.808798 
L 1080 72 
L 1112.096679 119.828477 
z
" style="fill:#a6d854;stroke:#ffffff;stroke-linejoin:miter;"/>
   </g>
   <g id="patch_37">
    <path d="M 1126.633949 105.808798 
C 1130.175866 100.923278 1132.928148 95.511372 1134.789937 89.771405 
C 1136.651726 84.031437 1137.599997 78.034391 1137.6 72.000032 
L 1080 72 
L 1126.633949 105.808798 
z
" style="fill:#ffd92f;stroke:#ffffff;stroke-linejoin:miter;"/>
   </g>
  </g>
  <g id="axes_9">
   <g id="patch_38">
    <path d="M 1281.6 72 
C 1281.6 66.268457 1280.744516 60.568881 1279.06186 55.089899 
C 1277.379205 49.610916 1274.888147 44.413643 1271.671127 39.670082 
L 1224 72 
L 1281.6 72 
z
" style="fill:#66c2a5;stroke:#ffffff;stroke-linejoin:miter;"/>
   </g>
   <g id="patch_39">
    <path d="M 1271.671127 39.670082 
C 1270.699143 38.236871 1269.66302 36.848222 1268.565916 35.508368 
C 1267.468811 34.168514 1266.311842 32.878818 1265.098533 31.643209 
L 1224 72 
L 1271.671127 39.670082 
z
" style="fill:#fc8d62;stroke:#ffffff;stroke-linejoin:miter;"/>
   </g>
   <g id="patch_40">
    <path d="M 1265.098533 31.643209 
C 1258.941156 25.372662 1251.429593 20.593673 1243.140777 17.673297 
C 1234.851962 14.752922 1226.003683 13.767893 1217.275543 14.793867 
L 1224 72 
L 1265.098533 31.643209 
z
" style="fill:#8da0cb;stroke:#ffffff;stroke-linejoin:miter;"/>
   </g>
   <g id="patch_41">
    <path d="M 1217.275543 14.793867 
C 1210.102673 15.637022 1203.151958 17.821775 1196.786589 21.233966 
C 1190.42122 24.646157 1184.754031 29.225301 1180.081147 34.732127 
L 1224 72 
L 1217.275543 14.793867 
z
" style="fill:#e78ac3;stroke:#ffffff;stroke-linejoin:miter;"/>
   </g>
   <g id="patch_42">
    <path d="M 1180.081147 34.732127 
C 1178.538784 36.549746 1177.110743 38.461362 1175.805265 40.455943 
C 1174.499787 42.450523 1173.319389 44.524224 1172.270881 46.665078 
L 1224 72 
L 1180.081147 34.732127 
z
" style="fill:#a6d854;stroke:#ffffff;stroke-linejoin:miter;"/>
   </g>
   <g id="patch_43">
    <path d="M 1172.270881 46.665078 
C 1168.473875 54.417847 1166.467885 62.925949 1166.401693 71.558347 
C 1166.335502 80.190744 1168.210786 88.728608 1171.888459 96.53869 
C 1175.566132 104.348773 1180.952965 111.233091 1187.649421 116.681041 
C 1194.345876 122.12899 1202.182201 126.002466 1210.577181 128.014176 
C 1218.972161 130.025887 1227.712986 130.124835 1236.151355 128.303682 
C 1244.589724 126.482529 1252.511727 122.78744 1259.329795 117.492479 
C 1266.147862 112.197517 1271.689159 105.436908 1275.542691 97.71208 
C 1279.396222 89.987252 1281.464303 81.494028 1281.593544 72.862345 
L 1224 72 
L 1172.270881 46.665078 
z
" style="fill:#ffd92f;stroke:#ffffff;stroke-linejoin:miter;"/>
   </g>
  </g>
  <g id="axes_10">
   <g id="patch_44">
    <path d="M 1425.6 72 
C 1425.6 59.293588 1421.395497 46.937402 1413.645495 36.868123 
C 1405.895493 26.798844 1395.027218 19.57155 1382.744139 16.31903 
L 1368 72 
L 1425.6 72 
z
" style="fill:#66c2a5;stroke:#ffffff;stroke-linejoin:miter;"/>
   </g>
   <g id="patch_45">
    <path d="M 1382.744139 16.31903 
C 1374.681247 14.184003 1366.249994 13.825555 1358.034986 15.26854 
C 1349.819978 16.711526 1342.01558 19.921804 1335.162934 24.676781 
C 1328.310288 29.431757 1322.571524 35.618931 1318.34456 42.809295 
C 1314.117595 49.999659 1311.502437 58.023091 1310.680417 66.323262 
L 1368 72 
L 1382.744139 16.31903 
z
" style="fill:#fc8d62;stroke:#ffffff;stroke-linejoin:miter;"/>
   </g>
   <g id="patch_46">
    <path d="M 1310.680417 66.323262 
C 1310.563265 67.506174 1310.482759 68.692428 1310.439015 69.880321 
C 1310.395271 71.068214 1310.38831 72.257176 1310.418141 73.4455 
L 1368 72 
L 1310.680417 66.323262 
z
" style="fill:#8da0cb;stroke:#ffffff;stroke-linejoin:miter;"/>
   </g>
   <g id="patch_47">
    <path d="M 1310.418141 73.4455 
C 1310.476838 75.78371 1310.677901 78.116175 1311.020213 80.429937 
C 1311.362525 82.743699 1311.845451 85.034464 1312.466307 87.289505 
L 1368 72 
L 1310.418141 73.4455 
z
" style="fill:#e78ac3;stroke:#ffffff;stroke-linejoin:miter;"/>
   </g>
   <g id="patch_48">
    <path d="M 1312.466307 87.289505 
C 1313.967384 92.741633 1316.263221 97.943104 1319.279836 102.726301 
C 1322.29645 107.509498 1326.001086 111.822483 1330.274363 115.526271 
L 1368 72 
L 1312.466307 87.289505 
z
" style="fill:#a6d854;stroke:#ffffff;stroke-linejoin:miter;"/>
   </g>
   <g id="patch_49">
    <path d="M 1330.274363 115.526271 
C 1338.535456 122.68643 1348.666751 127.348884 1359.478681 128.966193 
C 1370.290612 130.583501 1381.342781 129.089787 1391.337498 124.660433 
C 1401.332214 120.23108 1409.862368 113.046506 1415.926391 103.95029 
C 1421.990415 94.854073 1425.341304 84.216726 1425.585615 73.287232 
L 1368 72 
L 1330.274363 115.526271 
z
" style="fill:#ffd92f;stroke:#ffffff;stroke-linejoin:miter;"/>
   </g>
  </g>
  <g id="axes_11">
   <g id="patch_50">
    <path d="M 1569.6 72 
C 1569.6 62.850258 1567.41985 53.83085 1563.240718 45.691278 
C 1559.061586 37.551707 1553.00253 30.523859 1545.567054 25.191743 
L 1512 72 
L 1569.6 72 
z
" style="fill:#66c2a5;stroke:#ffffff;stroke-linejoin:miter;"/>
   </g>
   <g id="patch_51">
    <path d="M 1545.567054 25.191743 
C 1542.29345 22.844183 1538.782589 20.846501 1535.092149 19.231518 
C 1531.401708 17.616535 1527.552008 16.393143 1523.606294 15.58144 
L 1512 72 
L 1545.567054 25.191743 
z
" style="fill:#fc8d62;stroke:#ffffff;stroke-linejoin:miter;"/>
   </g>
   <g id="patch_52">
    <path d="M 1523.606294 15.58144 
C 1513.050416 13.409909 1502.093989 14.243848 1491.988378 17.988011 
C 1481.882768 21.732173 1473.027932 28.238373 1466.435208 36.763518 
L 1512 72 
L 1523.606294 15.58144 
z
" style="fill:#8da0cb;stroke:#ffffff;stroke-linejoin:miter;"/>
   </g>
   <g id="patch_53">
    <path d="M 1466.435208 36.763518 
C 1459.010693 46.364262 1454.807156 58.070307 1454.4281 70.201013 
C 1454.049044 82.331719 1457.513521 94.277372 1464.324134 104.322931 
L 1512 72 
L 1466.435208 36.763518 
z
" style="fill:#e78ac3;stroke:#ffffff;stroke-linejoin:miter;"/>
   </g>
   <g id="patch_54">
    <path d="M 1464.324134 104.322931 
C 1469.551368 112.033026 1476.571722 118.361262 1484.781078 122.76308 
C 1492.990435 127.164898 1502.146362 129.510307 1511.460971 129.597478 
L 1512 72 
L 1464.324134 104.322931 
z
" style="fill:#a6d854;stroke:#ffffff;stroke-linejoin:miter;"/>
   </g>
   <g id="patch_55">
    <path d="M 1511.460971 129.597478 
C 1519.027647 129.668291 1526.534641 128.247345 1533.551993 125.416024 
C 1540.569344 122.584703 1546.960472 118.398114 1552.359327 113.096042 
C 1557.758182 107.793971 1562.059685 101.479612 1565.017468 94.51462 
C 1567.975251 87.549628 1569.531746 80.069563 1569.597805 72.502844 
L 1512 72 
L 1511.460971 129.597478 
z
" style="fill:#ffd92f;stroke:#ffffff;stroke-linejoin:miter;"/>
   </g>
  </g>
  <g id="axes_12">
   <g id="patch_56">
    <path d="M 1713.6 72 
C 1713.6 65.465768 1712.48812 58.978921 1710.312048 52.817679 
C 1708.135976 46.656437 1704.927274 40.910161 1700.823561 35.825308 
L 1656 72 
L 1713.6 72 
z
" style="fill:#66c2a5;stroke:#ffffff;stroke-linejoin:miter;"/>
   </g>
   <g id="patch_57">
    <path d="M 1700.823561 35.825308 
C 1700.584499 35.529089 1700.342506 35.235247 1700.097618 34.943825 
C 1699.85273 34.652403 1699.604959 34.363416 1699.354342 34.076907 
L 1656 72 
L 1700.823561 35.825308 
z
" style="fill:#fc8d62;stroke:#ffffff;stroke-linejoin:miter;"/>
   </g>
   <g id="patch_58">
    <path d="M 1699.354342 34.076907 
C 1695.382346 29.536051 1690.721495 25.647288 1685.542511 22.553058 
C 1680.363527 19.458829 1674.730424 17.197378 1668.849535 15.851541 
L 1656 72 
L 1699.354342 34.076907 
z
" style="fill:#8da0cb;stroke:#ffffff;stroke-linejoin:miter;"/>
   </g>
   <g id="patch_59">
    <path d="M 1668.849535 15.851541 
C 1662.107725 14.308683 1655.142821 13.992607 1648.288976 14.918478 
C 1641.435132 15.84435 1634.803739 17.997121 1628.712951 21.273508 
L 1656 72 
L 1668.849535 15.851541 
z
" style="fill:#e78ac3;stroke:#ffffff;stroke-linejoin:miter;"/>
   </g>
   <g id="patch_60">
    <path d="M 1628.712951 21.273508 
C 1619.577633 26.187624 1611.937212 33.479443 1606.602143 42.375487 
C 1601.267075 51.271531 1598.432911 61.445722 1598.400285 71.818836 
C 1598.367659 82.19195 1601.137767 92.383768 1606.416771 101.313196 
C 1611.695775 110.242623 1619.290177 117.582359 1628.394402 122.553842 
L 1656 72 
L 1628.712951 21.273508 
z
" style="fill:#a6d854;stroke:#ffffff;stroke-linejoin:miter;"/>
   </g>
   <g id="patch_61">
    <path d="M 1628.394402 122.553842 
C 1637.165921 127.343647 1647.034874 129.769095 1657.027371 129.590837 
C 1667.019868 129.412579 1676.796034 126.636679 1685.391134 121.537069 
C 1693.986234 116.437459 1701.107924 109.187592 1706.053418 100.502901 
C 1710.998912 91.81821 1713.6 81.994087 1713.6 72 
L 1656 72 
L 1628.394402 122.553842 
z
" style="fill:#ffd92f;stroke:#ffffff;stroke-linejoin:miter;"/>
   </g>
  </g>
  <g id="text_1">
   <!-- FEAST -->
   <defs>
    <path d="M 9.1875 72.90625 
L 59.90625 72.90625 
L 59.90625 58.6875 
L 27.984375 58.6875 
L 27.984375 45.125 
L 58.015625 45.125 
L 58.015625 30.90625 
L 27.984375 30.90625 
L 27.984375 0 
L 9.1875 0 
z
" id="DejaVuSans-Bold-70"/>
    <path d="M 9.1875 72.90625 
L 59.90625 72.90625 
L 59.90625 58.6875 
L 27.984375 58.6875 
L 27.984375 45.125 
L 58.015625 45.125 
L 58.015625 30.90625 
L 27.984375 30.90625 
L 27.984375 14.203125 
L 60.984375 14.203125 
L 60.984375 0 
L 9.1875 0 
z
" id="DejaVuSans-Bold-69"/>
    <path d="M 53.421875 13.28125 
L 24.03125 13.28125 
L 19.390625 0 
L 0.484375 0 
L 27.484375 72.90625 
L 49.90625 72.90625 
L 76.90625 0 
L 58.015625 0 
z
M 28.71875 26.8125 
L 48.6875 26.8125 
L 38.71875 55.8125 
z
" id="DejaVuSans-Bold-65"/>
    <path d="M 59.90625 70.609375 
L 59.90625 55.171875 
Q 53.90625 57.859375 48.1875 59.21875 
Q 42.484375 60.59375 37.40625 60.59375 
Q 30.671875 60.59375 27.4375 58.734375 
Q 24.21875 56.890625 24.21875 52.984375 
Q 24.21875 50.046875 26.390625 48.40625 
Q 28.5625 46.78125 34.28125 45.609375 
L 42.28125 44 
Q 54.4375 41.546875 59.5625 36.5625 
Q 64.703125 31.59375 64.703125 22.40625 
Q 64.703125 10.359375 57.546875 4.46875 
Q 50.390625 -1.421875 35.6875 -1.421875 
Q 28.765625 -1.421875 21.78125 -0.09375 
Q 14.796875 1.21875 7.8125 3.8125 
L 7.8125 19.671875 
Q 14.796875 15.96875 21.3125 14.078125 
Q 27.828125 12.203125 33.890625 12.203125 
Q 40.046875 12.203125 43.3125 14.25 
Q 46.578125 16.3125 46.578125 20.125 
Q 46.578125 23.53125 44.359375 25.390625 
Q 42.140625 27.25 35.5 28.71875 
L 28.21875 30.328125 
Q 17.28125 32.671875 12.21875 37.796875 
Q 7.171875 42.921875 7.171875 51.609375 
Q 7.171875 62.5 14.203125 68.359375 
Q 21.234375 74.21875 34.421875 74.21875 
Q 40.4375 74.21875 46.78125 73.3125 
Q 53.125 72.40625 59.90625 70.609375 
z
" id="DejaVuSans-Bold-83"/>
    <path d="M 0.484375 72.90625 
L 67.671875 72.90625 
L 67.671875 58.6875 
L 43.5 58.6875 
L 43.5 0 
L 24.703125 0 
L 24.703125 58.6875 
L 0.484375 58.6875 
z
" id="DejaVuSans-Bold-84"/>
   </defs>
   <g style="fill:#262626;" transform="translate(837.43125 17.157656)scale(0.15 -0.15)">
    <use xlink:href="#DejaVuSans-Bold-70"/>
    <use x="68.310547" xlink:href="#DejaVuSans-Bold-69"/>
    <use x="136.621094" xlink:href="#DejaVuSans-Bold-65"/>
    <use x="214.013672" xlink:href="#DejaVuSans-Bold-83"/>
    <use x="286.035156" xlink:href="#DejaVuSans-Bold-84"/>
   </g>
  </g>
  <g id="legend_1">
   <g id="patch_62">
    <path d="M 770.12 146.405625 
L 955.237188 146.405625 
Q 958.037188 146.405625 958.037188 143.605625 
L 958.037188 21.32 
Q 958.037188 18.52 955.237188 18.52 
L 770.12 18.52 
Q 767.32 18.52 767.32 21.32 
L 767.32 143.605625 
Q 767.32 146.405625 770.12 146.405625 
z
" style="fill:none;opacity:0;"/>
   </g>
   <g id="patch_63">
    <path d="M 772.92 34.757812 
L 800.92 34.757812 
L 800.92 24.957813 
L 772.92 24.957813 
z
" style="fill:#66c2a5;stroke:#ffffff;stroke-linejoin:miter;"/>
   </g>
   <g id="text_2">
    <!-- Unknown -->
    <defs>
     <path d="M 8.6875 72.90625 
L 18.609375 72.90625 
L 18.609375 28.609375 
Q 18.609375 16.890625 22.84375 11.734375 
Q 27.09375 6.59375 36.625 6.59375 
Q 46.09375 6.59375 50.34375 11.734375 
Q 54.59375 16.890625 54.59375 28.609375 
L 54.59375 72.90625 
L 64.5 72.90625 
L 64.5 27.390625 
Q 64.5 13.140625 57.4375 5.859375 
Q 50.390625 -1.421875 36.625 -1.421875 
Q 22.796875 -1.421875 15.734375 5.859375 
Q 8.6875 13.140625 8.6875 27.390625 
z
" id="DejaVuSans-85"/>
     <path d="M 54.890625 33.015625 
L 54.890625 0 
L 45.90625 0 
L 45.90625 32.71875 
Q 45.90625 40.484375 42.875 44.328125 
Q 39.84375 48.1875 33.796875 48.1875 
Q 26.515625 48.1875 22.3125 43.546875 
Q 18.109375 38.921875 18.109375 30.90625 
L 18.109375 0 
L 9.078125 0 
L 9.078125 54.6875 
L 18.109375 54.6875 
L 18.109375 46.1875 
Q 21.34375 51.125 25.703125 53.5625 
Q 30.078125 56 35.796875 56 
Q 45.21875 56 50.046875 50.171875 
Q 54.890625 44.34375 54.890625 33.015625 
z
" id="DejaVuSans-110"/>
     <path d="M 9.078125 75.984375 
L 18.109375 75.984375 
L 18.109375 31.109375 
L 44.921875 54.6875 
L 56.390625 54.6875 
L 27.390625 29.109375 
L 57.625 0 
L 45.90625 0 
L 18.109375 26.703125 
L 18.109375 0 
L 9.078125 0 
z
" id="DejaVuSans-107"/>
     <path d="M 30.609375 48.390625 
Q 23.390625 48.390625 19.1875 42.75 
Q 14.984375 37.109375 14.984375 27.296875 
Q 14.984375 17.484375 19.15625 11.84375 
Q 23.34375 6.203125 30.609375 6.203125 
Q 37.796875 6.203125 41.984375 11.859375 
Q 46.1875 17.53125 46.1875 27.296875 
Q 46.1875 37.015625 41.984375 42.703125 
Q 37.796875 48.390625 30.609375 48.390625 
z
M 30.609375 56 
Q 42.328125 56 49.015625 48.375 
Q 55.71875 40.765625 55.71875 27.296875 
Q 55.71875 13.875 49.015625 6.21875 
Q 42.328125 -1.421875 30.609375 -1.421875 
Q 18.84375 -1.421875 12.171875 6.21875 
Q 5.515625 13.875 5.515625 27.296875 
Q 5.515625 40.765625 12.171875 48.375 
Q 18.84375 56 30.609375 56 
z
" id="DejaVuSans-111"/>
     <path d="M 4.203125 54.6875 
L 13.1875 54.6875 
L 24.421875 12.015625 
L 35.59375 54.6875 
L 46.1875 54.6875 
L 57.421875 12.015625 
L 68.609375 54.6875 
L 77.59375 54.6875 
L 63.28125 0 
L 52.6875 0 
L 40.921875 44.828125 
L 29.109375 0 
L 18.5 0 
z
" id="DejaVuSans-119"/>
    </defs>
    <g style="fill:#262626;" transform="translate(812.12 34.757812)scale(0.14 -0.14)">
     <use xlink:href="#DejaVuSans-85"/>
     <use x="73.193359" xlink:href="#DejaVuSans-110"/>
     <use x="136.572266" xlink:href="#DejaVuSans-107"/>
     <use x="194.482422" xlink:href="#DejaVuSans-110"/>
     <use x="257.861328" xlink:href="#DejaVuSans-111"/>
     <use x="319.042969" xlink:href="#DejaVuSans-119"/>
     <use x="400.830078" xlink:href="#DejaVuSans-110"/>
    </g>
   </g>
   <g id="patch_64">
    <path d="M 772.92 55.307187 
L 800.92 55.307187 
L 800.92 45.507188 
L 772.92 45.507188 
z
" style="fill:#fc8d62;stroke:#ffffff;stroke-linejoin:miter;"/>
   </g>
   <g id="text_3">
    <!-- Large_intestine (H*) -->
    <defs>
     <path d="M 9.8125 72.90625 
L 19.671875 72.90625 
L 19.671875 8.296875 
L 55.171875 8.296875 
L 55.171875 0 
L 9.8125 0 
z
" id="DejaVuSans-76"/>
     <path d="M 34.28125 27.484375 
Q 23.390625 27.484375 19.1875 25 
Q 14.984375 22.515625 14.984375 16.5 
Q 14.984375 11.71875 18.140625 8.90625 
Q 21.296875 6.109375 26.703125 6.109375 
Q 34.1875 6.109375 38.703125 11.40625 
Q 43.21875 16.703125 43.21875 25.484375 
L 43.21875 27.484375 
z
M 52.203125 31.203125 
L 52.203125 0 
L 43.21875 0 
L 43.21875 8.296875 
Q 40.140625 3.328125 35.546875 0.953125 
Q 30.953125 -1.421875 24.3125 -1.421875 
Q 15.921875 -1.421875 10.953125 3.296875 
Q 6 8.015625 6 15.921875 
Q 6 25.140625 12.171875 29.828125 
Q 18.359375 34.515625 30.609375 34.515625 
L 43.21875 34.515625 
L 43.21875 35.40625 
Q 43.21875 41.609375 39.140625 45 
Q 35.0625 48.390625 27.6875 48.390625 
Q 23 48.390625 18.546875 47.265625 
Q 14.109375 46.140625 10.015625 43.890625 
L 10.015625 52.203125 
Q 14.9375 54.109375 19.578125 55.046875 
Q 24.21875 56 28.609375 56 
Q 40.484375 56 46.34375 49.84375 
Q 52.203125 43.703125 52.203125 31.203125 
z
" id="DejaVuSans-97"/>
     <path d="M 41.109375 46.296875 
Q 39.59375 47.171875 37.8125 47.578125 
Q 36.03125 48 33.890625 48 
Q 26.265625 48 22.1875 43.046875 
Q 18.109375 38.09375 18.109375 28.8125 
L 18.109375 0 
L 9.078125 0 
L 9.078125 54.6875 
L 18.109375 54.6875 
L 18.109375 46.1875 
Q 20.953125 51.171875 25.484375 53.578125 
Q 30.03125 56 36.53125 56 
Q 37.453125 56 38.578125 55.875 
Q 39.703125 55.765625 41.0625 55.515625 
z
" id="DejaVuSans-114"/>
     <path d="M 45.40625 27.984375 
Q 45.40625 37.75 41.375 43.109375 
Q 37.359375 48.484375 30.078125 48.484375 
Q 22.859375 48.484375 18.828125 43.109375 
Q 14.796875 37.75 14.796875 27.984375 
Q 14.796875 18.265625 18.828125 12.890625 
Q 22.859375 7.515625 30.078125 7.515625 
Q 37.359375 7.515625 41.375 12.890625 
Q 45.40625 18.265625 45.40625 27.984375 
z
M 54.390625 6.78125 
Q 54.390625 -7.171875 48.1875 -13.984375 
Q 42 -20.796875 29.203125 -20.796875 
Q 24.46875 -20.796875 20.265625 -20.09375 
Q 16.0625 -19.390625 12.109375 -17.921875 
L 12.109375 -9.1875 
Q 16.0625 -11.328125 19.921875 -12.34375 
Q 23.78125 -13.375 27.78125 -13.375 
Q 36.625 -13.375 41.015625 -8.765625 
Q 45.40625 -4.15625 45.40625 5.171875 
L 45.40625 9.625 
Q 42.625 4.78125 38.28125 2.390625 
Q 33.9375 0 27.875 0 
Q 17.828125 0 11.671875 7.65625 
Q 5.515625 15.328125 5.515625 27.984375 
Q 5.515625 40.671875 11.671875 48.328125 
Q 17.828125 56 27.875 56 
Q 33.9375 56 38.28125 53.609375 
Q 42.625 51.21875 45.40625 46.390625 
L 45.40625 54.6875 
L 54.390625 54.6875 
z
" id="DejaVuSans-103"/>
     <path d="M 56.203125 29.59375 
L 56.203125 25.203125 
L 14.890625 25.203125 
Q 15.484375 15.921875 20.484375 11.0625 
Q 25.484375 6.203125 34.421875 6.203125 
Q 39.59375 6.203125 44.453125 7.46875 
Q 49.3125 8.734375 54.109375 11.28125 
L 54.109375 2.78125 
Q 49.265625 0.734375 44.1875 -0.34375 
Q 39.109375 -1.421875 33.890625 -1.421875 
Q 20.796875 -1.421875 13.15625 6.1875 
Q 5.515625 13.8125 5.515625 26.8125 
Q 5.515625 40.234375 12.765625 48.109375 
Q 20.015625 56 32.328125 56 
Q 43.359375 56 49.78125 48.890625 
Q 56.203125 41.796875 56.203125 29.59375 
z
M 47.21875 32.234375 
Q 47.125 39.59375 43.09375 43.984375 
Q 39.0625 48.390625 32.421875 48.390625 
Q 24.90625 48.390625 20.390625 44.140625 
Q 15.875 39.890625 15.1875 32.171875 
z
" id="DejaVuSans-101"/>
     <path d="M 50.984375 -16.609375 
L 50.984375 -23.578125 
L -0.984375 -23.578125 
L -0.984375 -16.609375 
z
" id="DejaVuSans-95"/>
     <path d="M 9.421875 54.6875 
L 18.40625 54.6875 
L 18.40625 0 
L 9.421875 0 
z
M 9.421875 75.984375 
L 18.40625 75.984375 
L 18.40625 64.59375 
L 9.421875 64.59375 
z
" id="DejaVuSans-105"/>
     <path d="M 18.3125 70.21875 
L 18.3125 54.6875 
L 36.8125 54.6875 
L 36.8125 47.703125 
L 18.3125 47.703125 
L 18.3125 18.015625 
Q 18.3125 11.328125 20.140625 9.421875 
Q 21.96875 7.515625 27.59375 7.515625 
L 36.8125 7.515625 
L 36.8125 0 
L 27.59375 0 
Q 17.1875 0 13.234375 3.875 
Q 9.28125 7.765625 9.28125 18.015625 
L 9.28125 47.703125 
L 2.6875 47.703125 
L 2.6875 54.6875 
L 9.28125 54.6875 
L 9.28125 70.21875 
z
" id="DejaVuSans-116"/>
     <path d="M 44.28125 53.078125 
L 44.28125 44.578125 
Q 40.484375 46.53125 36.375 47.5 
Q 32.28125 48.484375 27.875 48.484375 
Q 21.1875 48.484375 17.84375 46.4375 
Q 14.5 44.390625 14.5 40.28125 
Q 14.5 37.15625 16.890625 35.375 
Q 19.28125 33.59375 26.515625 31.984375 
L 29.59375 31.296875 
Q 39.15625 29.25 43.1875 25.515625 
Q 47.21875 21.78125 47.21875 15.09375 
Q 47.21875 7.46875 41.1875 3.015625 
Q 35.15625 -1.421875 24.609375 -1.421875 
Q 20.21875 -1.421875 15.453125 -0.5625 
Q 10.6875 0.296875 5.421875 2 
L 5.421875 11.28125 
Q 10.40625 8.6875 15.234375 7.390625 
Q 20.0625 6.109375 24.8125 6.109375 
Q 31.15625 6.109375 34.5625 8.28125 
Q 37.984375 10.453125 37.984375 14.40625 
Q 37.984375 18.0625 35.515625 20.015625 
Q 33.0625 21.96875 24.703125 23.78125 
L 21.578125 24.515625 
Q 13.234375 26.265625 9.515625 29.90625 
Q 5.8125 33.546875 5.8125 39.890625 
Q 5.8125 47.609375 11.28125 51.796875 
Q 16.75 56 26.8125 56 
Q 31.78125 56 36.171875 55.265625 
Q 40.578125 54.546875 44.28125 53.078125 
z
" id="DejaVuSans-115"/>
     <path id="DejaVuSans-32"/>
     <path d="M 31 75.875 
Q 24.46875 64.65625 21.28125 53.65625 
Q 18.109375 42.671875 18.109375 31.390625 
Q 18.109375 20.125 21.3125 9.0625 
Q 24.515625 -2 31 -13.1875 
L 23.1875 -13.1875 
Q 15.875 -1.703125 12.234375 9.375 
Q 8.59375 20.453125 8.59375 31.390625 
Q 8.59375 42.28125 12.203125 53.3125 
Q 15.828125 64.359375 23.1875 75.875 
z
" id="DejaVuSans-40"/>
     <path d="M 9.8125 72.90625 
L 19.671875 72.90625 
L 19.671875 43.015625 
L 55.515625 43.015625 
L 55.515625 72.90625 
L 65.375 72.90625 
L 65.375 0 
L 55.515625 0 
L 55.515625 34.71875 
L 19.671875 34.71875 
L 19.671875 0 
L 9.8125 0 
z
" id="DejaVuSans-72"/>
     <path d="M 47.015625 60.890625 
L 29.5 51.421875 
L 47.015625 41.890625 
L 44.1875 37.109375 
L 27.78125 47.015625 
L 27.78125 28.609375 
L 22.21875 28.609375 
L 22.21875 47.015625 
L 5.8125 37.109375 
L 2.984375 41.890625 
L 20.515625 51.421875 
L 2.984375 60.890625 
L 5.8125 65.71875 
L 22.21875 55.8125 
L 22.21875 74.21875 
L 27.78125 74.21875 
L 27.78125 55.8125 
L 44.1875 65.71875 
z
" id="DejaVuSans-42"/>
     <path d="M 8.015625 75.875 
L 15.828125 75.875 
Q 23.140625 64.359375 26.78125 53.3125 
Q 30.421875 42.28125 30.421875 31.390625 
Q 30.421875 20.453125 26.78125 9.375 
Q 23.140625 -1.703125 15.828125 -13.1875 
L 8.015625 -13.1875 
Q 14.5 -2 17.703125 9.0625 
Q 20.90625 20.125 20.90625 31.390625 
Q 20.90625 42.671875 17.703125 53.65625 
Q 14.5 64.65625 8.015625 75.875 
z
" id="DejaVuSans-41"/>
    </defs>
    <g style="fill:#262626;" transform="translate(812.12 55.307187)scale(0.14 -0.14)">
     <use xlink:href="#DejaVuSans-76"/>
     <use x="55.712891" xlink:href="#DejaVuSans-97"/>
     <use x="116.992188" xlink:href="#DejaVuSans-114"/>
     <use x="156.355469" xlink:href="#DejaVuSans-103"/>
     <use x="219.832031" xlink:href="#DejaVuSans-101"/>
     <use x="281.355469" xlink:href="#DejaVuSans-95"/>
     <use x="331.355469" xlink:href="#DejaVuSans-105"/>
     <use x="359.138672" xlink:href="#DejaVuSans-110"/>
     <use x="422.517578" xlink:href="#DejaVuSans-116"/>
     <use x="461.726562" xlink:href="#DejaVuSans-101"/>
     <use x="523.25" xlink:href="#DejaVuSans-115"/>
     <use x="575.349609" xlink:href="#DejaVuSans-116"/>
     <use x="614.558594" xlink:href="#DejaVuSans-105"/>
     <use x="642.341797" xlink:href="#DejaVuSans-110"/>
     <use x="705.720703" xlink:href="#DejaVuSans-101"/>
     <use x="767.244141" xlink:href="#DejaVuSans-32"/>
     <use x="799.03125" xlink:href="#DejaVuSans-40"/>
     <use x="838.044922" xlink:href="#DejaVuSans-72"/>
     <use x="913.240234" xlink:href="#DejaVuSans-42"/>
     <use x="963.240234" xlink:href="#DejaVuSans-41"/>
    </g>
   </g>
   <g id="patch_65">
    <path d="M 772.92 76.245937 
L 800.92 76.245937 
L 800.92 66.445937 
L 772.92 66.445937 
z
" style="fill:#8da0cb;stroke:#ffffff;stroke-linejoin:miter;"/>
   </g>
   <g id="text_4">
    <!-- Pharynx (H*) -->
    <defs>
     <path d="M 19.671875 64.796875 
L 19.671875 37.40625 
L 32.078125 37.40625 
Q 38.96875 37.40625 42.71875 40.96875 
Q 46.484375 44.53125 46.484375 51.125 
Q 46.484375 57.671875 42.71875 61.234375 
Q 38.96875 64.796875 32.078125 64.796875 
z
M 9.8125 72.90625 
L 32.078125 72.90625 
Q 44.34375 72.90625 50.609375 67.359375 
Q 56.890625 61.8125 56.890625 51.125 
Q 56.890625 40.328125 50.609375 34.8125 
Q 44.34375 29.296875 32.078125 29.296875 
L 19.671875 29.296875 
L 19.671875 0 
L 9.8125 0 
z
" id="DejaVuSans-80"/>
     <path d="M 54.890625 33.015625 
L 54.890625 0 
L 45.90625 0 
L 45.90625 32.71875 
Q 45.90625 40.484375 42.875 44.328125 
Q 39.84375 48.1875 33.796875 48.1875 
Q 26.515625 48.1875 22.3125 43.546875 
Q 18.109375 38.921875 18.109375 30.90625 
L 18.109375 0 
L 9.078125 0 
L 9.078125 75.984375 
L 18.109375 75.984375 
L 18.109375 46.1875 
Q 21.34375 51.125 25.703125 53.5625 
Q 30.078125 56 35.796875 56 
Q 45.21875 56 50.046875 50.171875 
Q 54.890625 44.34375 54.890625 33.015625 
z
" id="DejaVuSans-104"/>
     <path d="M 32.171875 -5.078125 
Q 28.375 -14.84375 24.75 -17.8125 
Q 21.140625 -20.796875 15.09375 -20.796875 
L 7.90625 -20.796875 
L 7.90625 -13.28125 
L 13.1875 -13.28125 
Q 16.890625 -13.28125 18.9375 -11.515625 
Q 21 -9.765625 23.484375 -3.21875 
L 25.09375 0.875 
L 2.984375 54.6875 
L 12.5 54.6875 
L 29.59375 11.921875 
L 46.6875 54.6875 
L 56.203125 54.6875 
z
" id="DejaVuSans-121"/>
     <path d="M 54.890625 54.6875 
L 35.109375 28.078125 
L 55.90625 0 
L 45.3125 0 
L 29.390625 21.484375 
L 13.484375 0 
L 2.875 0 
L 24.125 28.609375 
L 4.6875 54.6875 
L 15.28125 54.6875 
L 29.78125 35.203125 
L 44.28125 54.6875 
z
" id="DejaVuSans-120"/>
    </defs>
    <g style="fill:#262626;" transform="translate(812.12 76.245937)scale(0.14 -0.14)">
     <use xlink:href="#DejaVuSans-80"/>
     <use x="60.302734" xlink:href="#DejaVuSans-104"/>
     <use x="123.681641" xlink:href="#DejaVuSans-97"/>
     <use x="184.960938" xlink:href="#DejaVuSans-114"/>
     <use x="226.074219" xlink:href="#DejaVuSans-121"/>
     <use x="285.253906" xlink:href="#DejaVuSans-110"/>
     <use x="348.632812" xlink:href="#DejaVuSans-120"/>
     <use x="407.8125" xlink:href="#DejaVuSans-32"/>
     <use x="439.599609" xlink:href="#DejaVuSans-40"/>
     <use x="478.613281" xlink:href="#DejaVuSans-72"/>
     <use x="553.808594" xlink:href="#DejaVuSans-42"/>
     <use x="603.808594" xlink:href="#DejaVuSans-41"/>
    </g>
   </g>
   <g id="patch_66">
    <path d="M 772.92 96.795312 
L 800.92 96.795312 
L 800.92 86.995312 
L 772.92 86.995312 
z
" style="fill:#e78ac3;stroke:#ffffff;stroke-linejoin:miter;"/>
   </g>
   <g id="text_5">
    <!-- Skin (H*) -->
    <defs>
     <path d="M 53.515625 70.515625 
L 53.515625 60.890625 
Q 47.90625 63.578125 42.921875 64.890625 
Q 37.9375 66.21875 33.296875 66.21875 
Q 25.25 66.21875 20.875 63.09375 
Q 16.5 59.96875 16.5 54.203125 
Q 16.5 49.359375 19.40625 46.890625 
Q 22.3125 44.4375 30.421875 42.921875 
L 36.375 41.703125 
Q 47.40625 39.59375 52.65625 34.296875 
Q 57.90625 29 57.90625 20.125 
Q 57.90625 9.515625 50.796875 4.046875 
Q 43.703125 -1.421875 29.984375 -1.421875 
Q 24.8125 -1.421875 18.96875 -0.25 
Q 13.140625 0.921875 6.890625 3.21875 
L 6.890625 13.375 
Q 12.890625 10.015625 18.65625 8.296875 
Q 24.421875 6.59375 29.984375 6.59375 
Q 38.421875 6.59375 43.015625 9.90625 
Q 47.609375 13.234375 47.609375 19.390625 
Q 47.609375 24.75 44.3125 27.78125 
Q 41.015625 30.8125 33.5 32.328125 
L 27.484375 33.5 
Q 16.453125 35.6875 11.515625 40.375 
Q 6.59375 45.0625 6.59375 53.421875 
Q 6.59375 63.09375 13.40625 68.65625 
Q 20.21875 74.21875 32.171875 74.21875 
Q 37.3125 74.21875 42.625 73.28125 
Q 47.953125 72.359375 53.515625 70.515625 
z
" id="DejaVuSans-83"/>
    </defs>
    <g style="fill:#262626;" transform="translate(812.12 96.795312)scale(0.14 -0.14)">
     <use xlink:href="#DejaVuSans-83"/>
     <use x="63.476562" xlink:href="#DejaVuSans-107"/>
     <use x="121.386719" xlink:href="#DejaVuSans-105"/>
     <use x="149.169922" xlink:href="#DejaVuSans-110"/>
     <use x="212.548828" xlink:href="#DejaVuSans-32"/>
     <use x="244.335938" xlink:href="#DejaVuSans-40"/>
     <use x="283.349609" xlink:href="#DejaVuSans-72"/>
     <use x="358.544922" xlink:href="#DejaVuSans-42"/>
     <use x="408.544922" xlink:href="#DejaVuSans-41"/>
    </g>
   </g>
   <g id="patch_67">
    <path d="M 772.92 117.344687 
L 800.92 117.344687 
L 800.92 107.544687 
L 772.92 107.544687 
z
" style="fill:#a6d854;stroke:#ffffff;stroke-linejoin:miter;"/>
   </g>
   <g id="text_6">
    <!-- Plants -->
    <defs>
     <path d="M 9.421875 75.984375 
L 18.40625 75.984375 
L 18.40625 0 
L 9.421875 0 
z
" id="DejaVuSans-108"/>
    </defs>
    <g style="fill:#262626;" transform="translate(812.12 117.344687)scale(0.14 -0.14)">
     <use xlink:href="#DejaVuSans-80"/>
     <use x="60.302734" xlink:href="#DejaVuSans-108"/>
     <use x="88.085938" xlink:href="#DejaVuSans-97"/>
     <use x="149.365234" xlink:href="#DejaVuSans-110"/>
     <use x="212.744141" xlink:href="#DejaVuSans-116"/>
     <use x="251.953125" xlink:href="#DejaVuSans-115"/>
    </g>
   </g>
   <g id="patch_68">
    <path d="M 772.92 137.894062 
L 800.92 137.894062 
L 800.92 128.094062 
L 772.92 128.094062 
z
" style="fill:#ffd92f;stroke:#ffffff;stroke-linejoin:miter;"/>
   </g>
   <g id="text_7">
    <!-- Others -->
    <defs>
     <path d="M 39.40625 66.21875 
Q 28.65625 66.21875 22.328125 58.203125 
Q 16.015625 50.203125 16.015625 36.375 
Q 16.015625 22.609375 22.328125 14.59375 
Q 28.65625 6.59375 39.40625 6.59375 
Q 50.140625 6.59375 56.421875 14.59375 
Q 62.703125 22.609375 62.703125 36.375 
Q 62.703125 50.203125 56.421875 58.203125 
Q 50.140625 66.21875 39.40625 66.21875 
z
M 39.40625 74.21875 
Q 54.734375 74.21875 63.90625 63.9375 
Q 73.09375 53.65625 73.09375 36.375 
Q 73.09375 19.140625 63.90625 8.859375 
Q 54.734375 -1.421875 39.40625 -1.421875 
Q 24.03125 -1.421875 14.8125 8.828125 
Q 5.609375 19.09375 5.609375 36.375 
Q 5.609375 53.65625 14.8125 63.9375 
Q 24.03125 74.21875 39.40625 74.21875 
z
" id="DejaVuSans-79"/>
    </defs>
    <g style="fill:#262626;" transform="translate(812.12 137.894062)scale(0.14 -0.14)">
     <use xlink:href="#DejaVuSans-79"/>
     <use x="78.710938" xlink:href="#DejaVuSans-116"/>
     <use x="117.919922" xlink:href="#DejaVuSans-104"/>
     <use x="181.298828" xlink:href="#DejaVuSans-101"/>
     <use x="242.822266" xlink:href="#DejaVuSans-114"/>
     <use x="283.935547" xlink:href="#DejaVuSans-115"/>
    </g>
   </g>
  </g>
 </g>
</svg>
