<?xml version="1.0" encoding="utf-8" standalone="no"?>
<!DOCTYPE svg PUBLIC "-//W3C//DTD SVG 1.1//EN"
  "http://www.w3.org/Graphics/SVG/1.1/DTD/svg11.dtd">
<!-- Created with matplotlib (https://matplotlib.org/) -->
<svg height="144pt" version="1.1" viewBox="0 0 1584 144" width="1584pt" xmlns="http://www.w3.org/2000/svg" xmlns:xlink="http://www.w3.org/1999/xlink">
 <defs>
  <style type="text/css">
*{stroke-linecap:butt;stroke-linejoin:round;}
  </style>
 </defs>
 <g id="figure_1">
  <g id="patch_1">
   <path d="M 0 144 
L 1584 144 
L 1584 0 
L 0 0 
z
" style="fill:#ffffff;"/>
  </g>
  <g id="axes_1">
   <g id="matplotlib.axis_1"/>
   <g id="matplotlib.axis_2"/>
   <g id="patch_2">
    <path d="M 121.836755 76.107692 
C 121.836755 69.248278 120.230748 62.483193 117.147699 56.355684 
C 114.06465 50.228175 109.589353 44.90677 104.081183 40.818785 
L 77.890909 76.107692 
L 121.836755 76.107692 
z
" style="fill:#66c2a5;stroke:#ffffff;stroke-linejoin:miter;"/>
   </g>
   <g id="patch_3">
    <path d="M 104.081183 40.818785 
C 102.369932 39.548751 100.568565 38.404872 98.691344 37.396205 
C 96.814124 36.387537 94.866018 35.516752 92.862452 34.790743 
L 77.890909 76.107692 
L 104.081183 40.818785 
z
" style="fill:#fc8d62;stroke:#ffffff;stroke-linejoin:miter;"/>
   </g>
   <g id="patch_4">
    <path d="M 92.862452 34.790743 
C 87.260367 32.760781 81.303506 31.891228 75.354904 32.23508 
C 69.406302 32.578932 63.589308 34.129058 58.258433 36.790988 
L 77.890909 76.107692 
L 92.862452 34.790743 
z
" style="fill:#8da0cb;stroke:#ffffff;stroke-linejoin:miter;"/>
   </g>
   <g id="patch_5">
    <path d="M 58.258433 36.790988 
C 54.625452 38.605087 51.261383 40.91401 48.26236 43.651776 
C 45.263337 46.389543 42.658201 49.529822 40.521399 52.982876 
L 77.890909 76.107692 
L 58.258433 36.790988 
z
" style="fill:#e78ac3;stroke:#ffffff;stroke-linejoin:miter;"/>
   </g>
   <g id="patch_6">
    <path d="M 40.521399 52.982876 
C 38.394816 56.419417 36.752403 60.132936 35.64065 64.018316 
C 34.528898 67.903696 33.958396 71.923928 33.945294 75.965215 
L 77.890909 76.107692 
L 40.521399 52.982876 
z
" style="fill:#a6d854;stroke:#ffffff;stroke-linejoin:miter;"/>
   </g>
   <g id="patch_7">
    <path d="M 33.945294 75.965215 
C 33.92658 81.737262 35.045245 87.456848 37.237242 92.796513 
C 39.429239 98.136179 42.651922 102.992039 46.720787 107.086086 
C 50.789651 111.180133 55.625535 114.432715 60.951574 116.657616 
C 66.277613 118.882517 71.990188 120.03645 77.76224 120.05335 
C 83.534293 120.07025 89.253527 118.949788 94.592503 116.756114 
C 99.931479 114.562439 104.786327 111.33823 108.879095 107.268079 
C 112.971863 103.197929 116.222926 98.361023 118.446154 93.034285 
C 120.669381 87.707547 121.821519 81.99461 121.836605 76.222553 
L 77.890909 76.107692 
L 33.945294 75.965215 
z
" style="fill:#ffd92f;stroke:#ffffff;stroke-linejoin:miter;"/>
   </g>
   <g id="text_1">
    <!-- Forehead_1 -->
    <defs>
     <path d="M 9.8125 72.90625 
L 51.703125 72.90625 
L 51.703125 64.59375 
L 19.671875 64.59375 
L 19.671875 43.109375 
L 48.578125 43.109375 
L 48.578125 34.8125 
L 19.671875 34.8125 
L 19.671875 0 
L 9.8125 0 
z
" id="DejaVuSans-70"/>
     <path d="M 30.609375 48.390625 
Q 23.390625 48.390625 19.1875 42.75 
Q 14.984375 37.109375 14.984375 27.296875 
Q 14.984375 17.484375 19.15625 11.84375 
Q 23.34375 6.203125 30.609375 6.203125 
Q 37.796875 6.203125 41.984375 11.859375 
Q 46.1875 17.53125 46.1875 27.296875 
Q 46.1875 37.015625 41.984375 42.703125 
Q 37.796875 48.390625 30.609375 48.390625 
z
M 30.609375 56 
Q 42.328125 56 49.015625 48.375 
Q 55.71875 40.765625 55.71875 27.296875 
Q 55.71875 13.875 49.015625 6.21875 
Q 42.328125 -1.421875 30.609375 -1.421875 
Q 18.84375 -1.421875 12.171875 6.21875 
Q 5.515625 13.875 5.515625 27.296875 
Q 5.515625 40.765625 12.171875 48.375 
Q 18.84375 56 30.609375 56 
z
" id="DejaVuSans-111"/>
     <path d="M 41.109375 46.296875 
Q 39.59375 47.171875 37.8125 47.578125 
Q 36.03125 48 33.890625 48 
Q 26.265625 48 22.1875 43.046875 
Q 18.109375 38.09375 18.109375 28.8125 
L 18.109375 0 
L 9.078125 0 
L 9.078125 54.6875 
L 18.109375 54.6875 
L 18.109375 46.1875 
Q 20.953125 51.171875 25.484375 53.578125 
Q 30.03125 56 36.53125 56 
Q 37.453125 56 38.578125 55.875 
Q 39.703125 55.765625 41.0625 55.515625 
z
" id="DejaVuSans-114"/>
     <path d="M 56.203125 29.59375 
L 56.203125 25.203125 
L 14.890625 25.203125 
Q 15.484375 15.921875 20.484375 11.0625 
Q 25.484375 6.203125 34.421875 6.203125 
Q 39.59375 6.203125 44.453125 7.46875 
Q 49.3125 8.734375 54.109375 11.28125 
L 54.109375 2.78125 
Q 49.265625 0.734375 44.1875 -0.34375 
Q 39.109375 -1.421875 33.890625 -1.421875 
Q 20.796875 -1.421875 13.15625 6.1875 
Q 5.515625 13.8125 5.515625 26.8125 
Q 5.515625 40.234375 12.765625 48.109375 
Q 20.015625 56 32.328125 56 
Q 43.359375 56 49.78125 48.890625 
Q 56.203125 41.796875 56.203125 29.59375 
z
M 47.21875 32.234375 
Q 47.125 39.59375 43.09375 43.984375 
Q 39.0625 48.390625 32.421875 48.390625 
Q 24.90625 48.390625 20.390625 44.140625 
Q 15.875 39.890625 15.1875 32.171875 
z
" id="DejaVuSans-101"/>
     <path d="M 54.890625 33.015625 
L 54.890625 0 
L 45.90625 0 
L 45.90625 32.71875 
Q 45.90625 40.484375 42.875 44.328125 
Q 39.84375 48.1875 33.796875 48.1875 
Q 26.515625 48.1875 22.3125 43.546875 
Q 18.109375 38.921875 18.109375 30.90625 
L 18.109375 0 
L 9.078125 0 
L 9.078125 75.984375 
L 18.109375 75.984375 
L 18.109375 46.1875 
Q 21.34375 51.125 25.703125 53.5625 
Q 30.078125 56 35.796875 56 
Q 45.21875 56 50.046875 50.171875 
Q 54.890625 44.34375 54.890625 33.015625 
z
" id="DejaVuSans-104"/>
     <path d="M 34.28125 27.484375 
Q 23.390625 27.484375 19.1875 25 
Q 14.984375 22.515625 14.984375 16.5 
Q 14.984375 11.71875 18.140625 8.90625 
Q 21.296875 6.109375 26.703125 6.109375 
Q 34.1875 6.109375 38.703125 11.40625 
Q 43.21875 16.703125 43.21875 25.484375 
L 43.21875 27.484375 
z
M 52.203125 31.203125 
L 52.203125 0 
L 43.21875 0 
L 43.21875 8.296875 
Q 40.140625 3.328125 35.546875 0.953125 
Q 30.953125 -1.421875 24.3125 -1.421875 
Q 15.921875 -1.421875 10.953125 3.296875 
Q 6 8.015625 6 15.921875 
Q 6 25.140625 12.171875 29.828125 
Q 18.359375 34.515625 30.609375 34.515625 
L 43.21875 34.515625 
L 43.21875 35.40625 
Q 43.21875 41.609375 39.140625 45 
Q 35.0625 48.390625 27.6875 48.390625 
Q 23 48.390625 18.546875 47.265625 
Q 14.109375 46.140625 10.015625 43.890625 
L 10.015625 52.203125 
Q 14.9375 54.109375 19.578125 55.046875 
Q 24.21875 56 28.609375 56 
Q 40.484375 56 46.34375 49.84375 
Q 52.203125 43.703125 52.203125 31.203125 
z
" id="DejaVuSans-97"/>
     <path d="M 45.40625 46.390625 
L 45.40625 75.984375 
L 54.390625 75.984375 
L 54.390625 0 
L 45.40625 0 
L 45.40625 8.203125 
Q 42.578125 3.328125 38.25 0.953125 
Q 33.9375 -1.421875 27.875 -1.421875 
Q 17.96875 -1.421875 11.734375 6.484375 
Q 5.515625 14.40625 5.515625 27.296875 
Q 5.515625 40.1875 11.734375 48.09375 
Q 17.96875 56 27.875 56 
Q 33.9375 56 38.25 53.625 
Q 42.578125 51.265625 45.40625 46.390625 
z
M 14.796875 27.296875 
Q 14.796875 17.390625 18.875 11.75 
Q 22.953125 6.109375 30.078125 6.109375 
Q 37.203125 6.109375 41.296875 11.75 
Q 45.40625 17.390625 45.40625 27.296875 
Q 45.40625 37.203125 41.296875 42.84375 
Q 37.203125 48.484375 30.078125 48.484375 
Q 22.953125 48.484375 18.875 42.84375 
Q 14.796875 37.203125 14.796875 27.296875 
z
" id="DejaVuSans-100"/>
     <path d="M 50.984375 -16.609375 
L 50.984375 -23.578125 
L -0.984375 -23.578125 
L -0.984375 -16.609375 
z
" id="DejaVuSans-95"/>
     <path d="M 12.40625 8.296875 
L 28.515625 8.296875 
L 28.515625 63.921875 
L 10.984375 60.40625 
L 10.984375 69.390625 
L 28.421875 72.90625 
L 38.28125 72.90625 
L 38.28125 8.296875 
L 54.390625 8.296875 
L 54.390625 0 
L 12.40625 0 
z
" id="DejaVuSans-49"/>
    </defs>
    <g style="fill:#262626;" transform="translate(43.164972 15.175385)scale(0.12 -0.12)">
     <use xlink:href="#DejaVuSans-70"/>
     <use x="53.894531" xlink:href="#DejaVuSans-111"/>
     <use x="115.076172" xlink:href="#DejaVuSans-114"/>
     <use x="153.939453" xlink:href="#DejaVuSans-101"/>
     <use x="215.462891" xlink:href="#DejaVuSans-104"/>
     <use x="278.841797" xlink:href="#DejaVuSans-101"/>
     <use x="340.365234" xlink:href="#DejaVuSans-97"/>
     <use x="401.644531" xlink:href="#DejaVuSans-100"/>
     <use x="465.121094" xlink:href="#DejaVuSans-95"/>
     <use x="515.121094" xlink:href="#DejaVuSans-49"/>
    </g>
   </g>
  </g>
  <g id="axes_2">
   <g id="matplotlib.axis_3"/>
   <g id="matplotlib.axis_4"/>
   <g id="patch_8">
    <path d="M 264.658573 76.107692 
C 264.658573 74.229093 264.538114 72.352425 264.297936 70.489242 
C 264.057758 68.62606 263.698356 66.780193 263.221943 64.963007 
L 220.712727 76.107692 
L 264.658573 76.107692 
z
" style="fill:#66c2a5;stroke:#ffffff;stroke-linejoin:miter;"/>
   </g>
   <g id="patch_9">
    <path d="M 263.221943 64.963007 
C 263.035145 64.250504 262.830463 63.54281 262.608091 62.840595 
C 262.38572 62.138381 262.145728 61.441868 261.888344 60.751717 
L 220.712727 76.107692 
L 263.221943 64.963007 
z
" style="fill:#fc8d62;stroke:#ffffff;stroke-linejoin:miter;"/>
   </g>
   <g id="patch_10">
    <path d="M 261.888344 60.751717 
C 260.035195 55.78267 257.297766 51.189869 253.808705 47.195867 
C 250.319645 43.201866 246.136235 39.872237 241.461193 37.368325 
L 220.712727 76.107692 
L 261.888344 60.751717 
z
" style="fill:#8da0cb;stroke:#ffffff;stroke-linejoin:miter;"/>
   </g>
   <g id="patch_11">
    <path d="M 241.461193 37.368325 
C 234.359352 33.564641 226.346449 31.786109 218.302266 32.228004 
C 210.258082 32.669898 202.488208 35.315433 195.845742 39.874138 
C 189.203276 44.432844 183.940557 50.731541 180.63541 58.07866 
C 177.330262 65.425779 176.108245 73.542211 177.10353 81.536807 
L 220.712727 76.107692 
L 241.461193 37.368325 
z
" style="fill:#e78ac3;stroke:#ffffff;stroke-linejoin:miter;"/>
   </g>
   <g id="patch_12">
    <path d="M 177.10353 81.536807 
C 178.000715 88.743424 180.670455 95.616513 184.873121 101.539169 
C 189.075787 107.461826 194.681764 112.251386 201.187877 115.477956 
L 220.712727 76.107692 
L 177.10353 81.536807 
z
" style="fill:#a6d854;stroke:#ffffff;stroke-linejoin:miter;"/>
   </g>
   <g id="patch_13">
    <path d="M 201.187877 115.477956 
C 207.821047 118.767536 215.179228 120.328028 222.576637 120.013993 
C 229.974046 119.699958 237.1735 117.521466 243.504009 113.681551 
C 249.834517 109.841637 255.093105 104.46342 258.789671 98.048151 
C 262.486237 91.632882 264.502259 84.386254 264.649842 76.983653 
L 220.712727 76.107692 
L 201.187877 115.477956 
z
" style="fill:#ffd92f;stroke:#ffffff;stroke-linejoin:miter;"/>
   </g>
   <g id="text_2">
    <!-- Forehead_2 -->
    <defs>
     <path d="M 19.1875 8.296875 
L 53.609375 8.296875 
L 53.609375 0 
L 7.328125 0 
L 7.328125 8.296875 
Q 12.9375 14.109375 22.625 23.890625 
Q 32.328125 33.6875 34.8125 36.53125 
Q 39.546875 41.84375 41.421875 45.53125 
Q 43.3125 49.21875 43.3125 52.78125 
Q 43.3125 58.59375 39.234375 62.25 
Q 35.15625 65.921875 28.609375 65.921875 
Q 23.96875 65.921875 18.8125 64.3125 
Q 13.671875 62.703125 7.8125 59.421875 
L 7.8125 69.390625 
Q 13.765625 71.78125 18.9375 73 
Q 24.125 74.21875 28.421875 74.21875 
Q 39.75 74.21875 46.484375 68.546875 
Q 53.21875 62.890625 53.21875 53.421875 
Q 53.21875 48.921875 51.53125 44.890625 
Q 49.859375 40.875 45.40625 35.40625 
Q 44.1875 33.984375 37.640625 27.21875 
Q 31.109375 20.453125 19.1875 8.296875 
z
" id="DejaVuSans-50"/>
    </defs>
    <g style="fill:#262626;" transform="translate(185.98679 15.175385)scale(0.12 -0.12)">
     <use xlink:href="#DejaVuSans-70"/>
     <use x="53.894531" xlink:href="#DejaVuSans-111"/>
     <use x="115.076172" xlink:href="#DejaVuSans-114"/>
     <use x="153.939453" xlink:href="#DejaVuSans-101"/>
     <use x="215.462891" xlink:href="#DejaVuSans-104"/>
     <use x="278.841797" xlink:href="#DejaVuSans-101"/>
     <use x="340.365234" xlink:href="#DejaVuSans-97"/>
     <use x="401.644531" xlink:href="#DejaVuSans-100"/>
     <use x="465.121094" xlink:href="#DejaVuSans-95"/>
     <use x="515.121094" xlink:href="#DejaVuSans-50"/>
    </g>
   </g>
  </g>
  <g id="axes_3">
   <g id="matplotlib.axis_5"/>
   <g id="matplotlib.axis_6"/>
   <g id="patch_14">
    <path d="M 407.480392 76.107692 
C 407.480392 69.230967 405.866268 62.449288 402.768277 56.309923 
C 399.670287 50.170558 395.174066 44.843216 389.642452 40.757804 
C 384.110838 36.672392 377.69674 33.941841 370.917762 32.786502 
C 364.138784 31.631163 357.182317 32.082973 350.609733 34.105471 
L 363.534545 76.107692 
L 407.480392 76.107692 
z
" style="fill:#66c2a5;stroke:#ffffff;stroke-linejoin:miter;"/>
   </g>
   <g id="patch_15">
    <path d="M 350.609733 34.105471 
C 349.756723 34.367957 348.911907 34.656367 348.07646 34.970301 
C 347.241013 35.284234 346.415324 35.623545 345.60054 35.987762 
L 363.534545 76.107692 
L 350.609733 34.105471 
z
" style="fill:#fc8d62;stroke:#ffffff;stroke-linejoin:miter;"/>
   </g>
   <g id="patch_16">
    <path d="M 345.60054 35.987762 
C 335.854271 40.34444 328.021805 48.106744 323.577607 57.813418 
C 319.133409 67.520091 318.375023 78.521261 321.445215 88.745953 
L 363.534545 76.107692 
L 345.60054 35.987762 
z
" style="fill:#8da0cb;stroke:#ffffff;stroke-linejoin:miter;"/>
   </g>
   <g id="patch_17">
    <path d="M 321.445215 88.745953 
C 323.076929 94.180069 325.745699 99.247109 329.303807 103.66661 
C 332.861915 108.08611 337.242478 111.774998 342.203031 114.529091 
L 363.534545 76.107692 
L 321.445215 88.745953 
z
" style="fill:#e78ac3;stroke:#ffffff;stroke-linejoin:miter;"/>
   </g>
   <g id="patch_18">
    <path d="M 342.203031 114.529091 
C 342.207054 114.531325 342.211078 114.533558 342.215102 114.535791 
C 342.219127 114.538023 342.223151 114.540255 342.227176 114.542486 
L 363.534545 76.107692 
L 342.203031 114.529091 
z
" style="fill:#a6d854;stroke:#ffffff;stroke-linejoin:miter;"/>
   </g>
   <g id="patch_19">
    <path d="M 342.227176 114.542486 
C 348.907228 118.245754 356.438743 120.144316 364.076047 120.050202 
C 371.713352 119.956088 379.195795 117.872509 385.782562 114.005755 
C 392.369328 110.139001 397.83562 104.621039 401.640236 97.998186 
C 405.444852 91.375334 407.457945 83.87362 407.480205 76.235767 
L 363.534545 76.107692 
L 342.227176 114.542486 
z
" style="fill:#ffd92f;stroke:#ffffff;stroke-linejoin:miter;"/>
   </g>
   <g id="text_3">
    <!-- Mouth_1 -->
    <defs>
     <path d="M 9.8125 72.90625 
L 24.515625 72.90625 
L 43.109375 23.296875 
L 61.8125 72.90625 
L 76.515625 72.90625 
L 76.515625 0 
L 66.890625 0 
L 66.890625 64.015625 
L 48.09375 14.015625 
L 38.1875 14.015625 
L 19.390625 64.015625 
L 19.390625 0 
L 9.8125 0 
z
" id="DejaVuSans-77"/>
     <path d="M 8.5 21.578125 
L 8.5 54.6875 
L 17.484375 54.6875 
L 17.484375 21.921875 
Q 17.484375 14.15625 20.5 10.265625 
Q 23.53125 6.390625 29.59375 6.390625 
Q 36.859375 6.390625 41.078125 11.03125 
Q 45.3125 15.671875 45.3125 23.6875 
L 45.3125 54.6875 
L 54.296875 54.6875 
L 54.296875 0 
L 45.3125 0 
L 45.3125 8.40625 
Q 42.046875 3.421875 37.71875 1 
Q 33.40625 -1.421875 27.6875 -1.421875 
Q 18.265625 -1.421875 13.375 4.4375 
Q 8.5 10.296875 8.5 21.578125 
z
M 31.109375 56 
z
" id="DejaVuSans-117"/>
     <path d="M 18.3125 70.21875 
L 18.3125 54.6875 
L 36.8125 54.6875 
L 36.8125 47.703125 
L 18.3125 47.703125 
L 18.3125 18.015625 
Q 18.3125 11.328125 20.140625 9.421875 
Q 21.96875 7.515625 27.59375 7.515625 
L 36.8125 7.515625 
L 36.8125 0 
L 27.59375 0 
Q 17.1875 0 13.234375 3.875 
Q 9.28125 7.765625 9.28125 18.015625 
L 9.28125 47.703125 
L 2.6875 47.703125 
L 2.6875 54.6875 
L 9.28125 54.6875 
L 9.28125 70.21875 
z
" id="DejaVuSans-116"/>
    </defs>
    <g style="fill:#262626;" transform="translate(337.911733 15.175385)scale(0.12 -0.12)">
     <use xlink:href="#DejaVuSans-77"/>
     <use x="86.279297" xlink:href="#DejaVuSans-111"/>
     <use x="147.460938" xlink:href="#DejaVuSans-117"/>
     <use x="210.839844" xlink:href="#DejaVuSans-116"/>
     <use x="250.048828" xlink:href="#DejaVuSans-104"/>
     <use x="313.427734" xlink:href="#DejaVuSans-95"/>
     <use x="363.427734" xlink:href="#DejaVuSans-49"/>
    </g>
   </g>
  </g>
  <g id="axes_4">
   <g id="matplotlib.axis_7"/>
   <g id="matplotlib.axis_8"/>
   <g id="patch_20">
    <path d="M 550.30221 76.107692 
C 550.30221 66.871048 547.39014 57.865373 541.982099 50.37747 
C 536.574059 42.889567 528.940513 37.293916 520.172202 34.39007 
C 511.403892 31.486224 501.939333 31.419407 493.130898 34.199167 
C 484.322463 36.978928 476.610674 42.466245 471.097454 49.877048 
L 506.356364 76.107692 
L 550.30221 76.107692 
z
" style="fill:#66c2a5;stroke:#ffffff;stroke-linejoin:miter;"/>
   </g>
   <g id="patch_21">
    <path d="M 471.097454 49.877048 
C 467.709023 54.431735 465.235023 59.600136 463.812535 65.095877 
C 462.390048 70.591618 462.045839 76.311283 462.798982 81.937953 
L 506.356364 76.107692 
L 471.097454 49.877048 
z
" style="fill:#fc8d62;stroke:#ffffff;stroke-linejoin:miter;"/>
   </g>
   <g id="patch_22">
    <path d="M 462.798982 81.937953 
C 462.799591 81.942499 462.8002 81.947045 462.80081 81.951591 
C 462.80142 81.956138 462.802031 81.960684 462.802642 81.96523 
L 506.356364 76.107692 
L 462.798982 81.937953 
z
" style="fill:#8da0cb;stroke:#ffffff;stroke-linejoin:miter;"/>
   </g>
   <g id="patch_23">
    <path d="M 462.802642 81.96523 
C 462.803254 81.969775 462.803866 81.974321 462.804478 81.978867 
C 462.805091 81.983413 462.805705 81.987959 462.806319 81.992504 
L 506.356364 76.107692 
L 462.802642 81.96523 
z
" style="fill:#e78ac3;stroke:#ffffff;stroke-linejoin:miter;"/>
   </g>
   <g id="patch_24">
    <path d="M 462.806319 81.992504 
C 462.806933 81.99705 462.807548 82.001595 462.808164 82.006141 
C 462.80878 82.010686 462.809396 82.015231 462.810013 82.019776 
L 506.356364 76.107692 
L 462.806319 81.992504 
z
" style="fill:#a6d854;stroke:#ffffff;stroke-linejoin:miter;"/>
   </g>
   <g id="patch_25">
    <path d="M 462.810013 82.019776 
C 464.308516 93.057228 469.948771 103.122419 478.580484 110.162617 
C 487.212196 117.202815 498.205771 120.704509 509.319138 119.953551 
C 520.432504 119.202594 530.855055 114.253758 538.461178 106.116329 
C 546.0673 97.9789 550.302205 87.24642 550.30221 76.107711 
L 506.356364 76.107692 
L 462.810013 82.019776 
z
" style="fill:#ffd92f;stroke:#ffffff;stroke-linejoin:miter;"/>
   </g>
   <g id="text_4">
    <!-- Mouth_2 -->
    <g style="fill:#262626;" transform="translate(480.733551 15.175385)scale(0.12 -0.12)">
     <use xlink:href="#DejaVuSans-77"/>
     <use x="86.279297" xlink:href="#DejaVuSans-111"/>
     <use x="147.460938" xlink:href="#DejaVuSans-117"/>
     <use x="210.839844" xlink:href="#DejaVuSans-116"/>
     <use x="250.048828" xlink:href="#DejaVuSans-104"/>
     <use x="313.427734" xlink:href="#DejaVuSans-95"/>
     <use x="363.427734" xlink:href="#DejaVuSans-50"/>
    </g>
   </g>
  </g>
  <g id="axes_5">
   <g id="matplotlib.axis_9"/>
   <g id="matplotlib.axis_10"/>
   <g id="patch_26">
    <path d="M 693.124028 76.107692 
C 693.124028 68.158646 690.96726 60.356575 686.884458 53.536159 
C 682.801657 46.715743 676.943801 41.129197 669.937576 37.37418 
L 649.178182 76.107692 
L 693.124028 76.107692 
z
" style="fill:#66c2a5;stroke:#ffffff;stroke-linejoin:miter;"/>
   </g>
   <g id="patch_27">
    <path d="M 669.937576 37.37418 
C 662.71127 33.50121 654.543306 31.726703 646.361422 32.252211 
C 638.179537 32.777719 630.305697 35.582563 623.634231 40.348162 
C 616.962766 45.113762 611.756202 51.652586 608.605917 59.221938 
C 605.455631 66.79129 604.485589 75.09331 605.805971 83.185033 
L 649.178182 76.107692 
L 669.937576 37.37418 
z
" style="fill:#fc8d62;stroke:#ffffff;stroke-linejoin:miter;"/>
   </g>
   <g id="patch_28">
    <path d="M 605.805971 83.185033 
C 605.806712 83.189573 605.807454 83.194112 605.808196 83.198651 
C 605.808938 83.203191 605.809681 83.20773 605.810424 83.212269 
L 649.178182 76.107692 
L 605.805971 83.185033 
z
" style="fill:#8da0cb;stroke:#ffffff;stroke-linejoin:miter;"/>
   </g>
   <g id="patch_29">
    <path d="M 605.810424 83.212269 
C 605.990182 84.309546 606.211519 85.399606 606.473959 86.480094 
C 606.736398 87.560583 607.03975 88.630722 607.383359 89.688201 
L 649.178182 76.107692 
L 605.810424 83.212269 
z
" style="fill:#e78ac3;stroke:#ffffff;stroke-linejoin:miter;"/>
   </g>
   <g id="patch_30">
    <path d="M 607.383359 89.688201 
C 607.385257 89.694042 607.387156 89.699882 607.389057 89.705722 
C 607.390957 89.711562 607.392859 89.717402 607.394761 89.723241 
L 649.178182 76.107692 
L 607.383359 89.688201 
z
" style="fill:#a6d854;stroke:#ffffff;stroke-linejoin:miter;"/>
   </g>
   <g id="patch_31">
    <path d="M 607.394761 89.723241 
C 610.634861 99.666465 617.320206 108.133817 626.240444 113.592323 
C 635.160682 119.050829 645.742917 121.14992 656.071284 119.509565 
C 666.399651 117.869209 675.810818 112.594759 682.600935 104.641128 
C 689.391053 96.687497 693.12403 86.565503 693.124028 76.107686 
L 649.178182 76.107692 
L 607.394761 89.723241 
z
" style="fill:#ffd92f;stroke:#ffffff;stroke-linejoin:miter;"/>
   </g>
   <g id="text_5">
    <!-- Stool_1 -->
    <defs>
     <path d="M 53.515625 70.515625 
L 53.515625 60.890625 
Q 47.90625 63.578125 42.921875 64.890625 
Q 37.9375 66.21875 33.296875 66.21875 
Q 25.25 66.21875 20.875 63.09375 
Q 16.5 59.96875 16.5 54.203125 
Q 16.5 49.359375 19.40625 46.890625 
Q 22.3125 44.4375 30.421875 42.921875 
L 36.375 41.703125 
Q 47.40625 39.59375 52.65625 34.296875 
Q 57.90625 29 57.90625 20.125 
Q 57.90625 9.515625 50.796875 4.046875 
Q 43.703125 -1.421875 29.984375 -1.421875 
Q 24.8125 -1.421875 18.96875 -0.25 
Q 13.140625 0.921875 6.890625 3.21875 
L 6.890625 13.375 
Q 12.890625 10.015625 18.65625 8.296875 
Q 24.421875 6.59375 29.984375 6.59375 
Q 38.421875 6.59375 43.015625 9.90625 
Q 47.609375 13.234375 47.609375 19.390625 
Q 47.609375 24.75 44.3125 27.78125 
Q 41.015625 30.8125 33.5 32.328125 
L 27.484375 33.5 
Q 16.453125 35.6875 11.515625 40.375 
Q 6.59375 45.0625 6.59375 53.421875 
Q 6.59375 63.09375 13.40625 68.65625 
Q 20.21875 74.21875 32.171875 74.21875 
Q 37.3125 74.21875 42.625 73.28125 
Q 47.953125 72.359375 53.515625 70.515625 
z
" id="DejaVuSans-83"/>
     <path d="M 9.421875 75.984375 
L 18.40625 75.984375 
L 18.40625 0 
L 9.421875 0 
z
" id="DejaVuSans-108"/>
    </defs>
    <g style="fill:#262626;" transform="translate(627.190057 15.175385)scale(0.12 -0.12)">
     <use xlink:href="#DejaVuSans-83"/>
     <use x="63.476562" xlink:href="#DejaVuSans-116"/>
     <use x="102.685547" xlink:href="#DejaVuSans-111"/>
     <use x="163.867188" xlink:href="#DejaVuSans-111"/>
     <use x="225.048828" xlink:href="#DejaVuSans-108"/>
     <use x="252.832031" xlink:href="#DejaVuSans-95"/>
     <use x="302.832031" xlink:href="#DejaVuSans-49"/>
    </g>
   </g>
  </g>
  <g id="axes_6">
   <g id="patch_32">
    <path d="M 727.069091 131.04 
L 856.930909 131.04 
L 856.930909 21.175385 
L 727.069091 21.175385 
z
" style="fill:#ffffff;"/>
   </g>
   <g id="matplotlib.axis_11"/>
   <g id="matplotlib.axis_12"/>
   <g id="patch_33">
    <path d="M 727.069091 131.04 
L 727.069091 21.175385 
" style="fill:none;stroke:#ffffff;stroke-linecap:square;stroke-linejoin:miter;stroke-width:1.25;"/>
   </g>
   <g id="patch_34">
    <path d="M 856.930909 131.04 
L 856.930909 21.175385 
" style="fill:none;stroke:#ffffff;stroke-linecap:square;stroke-linejoin:miter;stroke-width:1.25;"/>
   </g>
   <g id="patch_35">
    <path d="M 727.069091 131.04 
L 856.930909 131.04 
" style="fill:none;stroke:#ffffff;stroke-linecap:square;stroke-linejoin:miter;stroke-width:1.25;"/>
   </g>
   <g id="patch_36">
    <path d="M 727.069091 21.175385 
L 856.930909 21.175385 
" style="fill:none;stroke:#ffffff;stroke-linecap:square;stroke-linejoin:miter;stroke-width:1.25;"/>
   </g>
  </g>
  <g id="axes_7">
   <g id="matplotlib.axis_13"/>
   <g id="matplotlib.axis_14"/>
   <g id="patch_37">
    <path d="M 978.767664 76.107692 
C 978.767664 65.161777 974.678095 54.601237 967.30602 46.510158 
C 959.933944 38.419079 949.798462 33.367189 938.899776 32.351462 
C 928.001091 31.335735 917.106624 34.427693 908.366364 41.017147 
C 899.626104 47.606601 893.65549 57.229561 891.632801 67.986967 
L 934.821818 76.107692 
L 978.767664 76.107692 
z
" style="fill:#66c2a5;stroke:#ffffff;stroke-linejoin:miter;"/>
   </g>
   <g id="patch_38">
    <path d="M 891.632801 67.986967 
C 890.033599 76.492112 890.981833 85.283094 894.357951 93.25158 
C 897.73407 101.220065 903.389967 108.016486 910.61257 112.783975 
C 917.835173 117.551464 926.307632 120.080877 934.961775 120.053316 
C 943.615917 120.025754 952.072094 117.442427 959.264184 112.629031 
L 934.821818 76.107692 
L 891.632801 67.986967 
z
" style="fill:#fc8d62;stroke:#ffffff;stroke-linejoin:miter;"/>
   </g>
   <g id="patch_39">
    <path d="M 959.264184 112.629031 
C 959.267998 112.626478 959.271813 112.623924 959.275626 112.62137 
C 959.27944 112.618816 959.283253 112.616261 959.287066 112.613706 
L 934.821818 76.107692 
L 959.264184 112.629031 
z
" style="fill:#8da0cb;stroke:#ffffff;stroke-linejoin:miter;"/>
   </g>
   <g id="patch_40">
    <path d="M 959.287066 112.613706 
C 959.290879 112.611151 959.294691 112.608595 959.298503 112.606038 
C 959.302315 112.603482 959.306127 112.600925 959.309938 112.598367 
L 934.821818 76.107692 
L 959.287066 112.613706 
z
" style="fill:#e78ac3;stroke:#ffffff;stroke-linejoin:miter;"/>
   </g>
   <g id="patch_41">
    <path d="M 959.309938 112.598367 
C 961.454839 111.15897 963.468658 109.533257 965.327994 107.740122 
C 967.18733 105.946987 968.884951 103.993403 970.40113 101.902071 
L 934.821818 76.107692 
L 959.309938 112.598367 
z
" style="fill:#a6d854;stroke:#ffffff;stroke-linejoin:miter;"/>
   </g>
   <g id="patch_42">
    <path d="M 970.40113 101.902071 
C 973.10343 98.17467 975.203281 94.045663 976.62373 89.666363 
C 978.04418 85.287062 978.767662 80.711623 978.767664 76.107717 
L 934.821818 76.107692 
L 970.40113 101.902071 
z
" style="fill:#ffd92f;stroke:#ffffff;stroke-linejoin:miter;"/>
   </g>
   <g id="text_6">
    <!-- Stool_2 -->
    <g style="fill:#262626;" transform="translate(912.833693 20.668615)scale(0.12 -0.12)">
     <use xlink:href="#DejaVuSans-83"/>
     <use x="63.476562" xlink:href="#DejaVuSans-116"/>
     <use x="102.685547" xlink:href="#DejaVuSans-111"/>
     <use x="163.867188" xlink:href="#DejaVuSans-111"/>
     <use x="225.048828" xlink:href="#DejaVuSans-108"/>
     <use x="252.832031" xlink:href="#DejaVuSans-95"/>
     <use x="302.832031" xlink:href="#DejaVuSans-50"/>
    </g>
   </g>
  </g>
  <g id="axes_8">
   <g id="matplotlib.axis_15"/>
   <g id="matplotlib.axis_16"/>
   <g id="patch_43">
    <path d="M 1121.589483 76.107692 
C 1121.589483 71.734819 1120.936792 67.386335 1119.653012 63.206152 
C 1118.369232 59.025969 1116.468683 55.060716 1114.014262 51.441623 
L 1077.643636 76.107692 
L 1121.589483 76.107692 
z
" style="fill:#66c2a5;stroke:#ffffff;stroke-linejoin:miter;"/>
   </g>
   <g id="patch_44">
    <path d="M 1114.014262 51.441623 
C 1113.272688 50.348156 1112.482179 49.288689 1111.645144 48.266449 
C 1110.80811 47.244209 1109.925402 46.260236 1108.999709 45.31753 
L 1077.643636 76.107692 
L 1114.014262 51.441623 
z
" style="fill:#fc8d62;stroke:#ffffff;stroke-linejoin:miter;"/>
   </g>
   <g id="patch_45">
    <path d="M 1108.999709 45.31753 
C 1104.301947 40.533425 1098.571009 36.887301 1092.247068 34.659204 
C 1085.923127 32.431107 1079.172344 31.679581 1072.513221 32.462346 
L 1077.643636 76.107692 
L 1108.999709 45.31753 
z
" style="fill:#8da0cb;stroke:#ffffff;stroke-linejoin:miter;"/>
   </g>
   <g id="patch_46">
    <path d="M 1072.513221 32.462346 
C 1067.040689 33.105631 1061.737649 34.772485 1056.881199 37.375811 
C 1052.024749 39.979138 1047.700975 43.47279 1044.135804 47.674216 
L 1077.643636 76.107692 
L 1072.513221 32.462346 
z
" style="fill:#e78ac3;stroke:#ffffff;stroke-linejoin:miter;"/>
   </g>
   <g id="patch_47">
    <path d="M 1044.135804 47.674216 
C 1042.95906 49.060967 1041.869538 50.519431 1040.873525 52.041194 
C 1039.877513 53.562957 1038.976929 55.145084 1038.176971 56.778446 
L 1077.643636 76.107692 
L 1044.135804 47.674216 
z
" style="fill:#a6d854;stroke:#ffffff;stroke-linejoin:miter;"/>
   </g>
   <g id="patch_48">
    <path d="M 1038.176971 56.778446 
C 1035.280051 62.693411 1033.749583 69.184657 1033.699082 75.770733 
C 1033.648581 82.35681 1035.079327 88.870762 1037.885203 94.829455 
C 1040.691079 100.788147 1044.800956 106.040529 1049.910008 110.197035 
C 1055.019061 114.353541 1060.997775 117.308804 1067.402714 118.843636 
C 1073.807653 120.378468 1080.476454 120.45396 1086.914497 119.064514 
C 1093.35254 117.675068 1099.396622 114.855905 1104.598458 110.816121 
C 1109.800294 106.776336 1114.028019 101.618338 1116.968066 95.724691 
C 1119.908113 89.831043 1121.485952 83.351149 1121.584557 76.765617 
L 1077.643636 76.107692 
L 1038.176971 56.778446 
z
" style="fill:#ffd92f;stroke:#ffffff;stroke-linejoin:miter;"/>
   </g>
   <g id="text_7">
    <!-- Left Hand_1 -->
    <defs>
     <path d="M 9.8125 72.90625 
L 19.671875 72.90625 
L 19.671875 8.296875 
L 55.171875 8.296875 
L 55.171875 0 
L 9.8125 0 
z
" id="DejaVuSans-76"/>
     <path d="M 37.109375 75.984375 
L 37.109375 68.5 
L 28.515625 68.5 
Q 23.6875 68.5 21.796875 66.546875 
Q 19.921875 64.59375 19.921875 59.515625 
L 19.921875 54.6875 
L 34.71875 54.6875 
L 34.71875 47.703125 
L 19.921875 47.703125 
L 19.921875 0 
L 10.890625 0 
L 10.890625 47.703125 
L 2.296875 47.703125 
L 2.296875 54.6875 
L 10.890625 54.6875 
L 10.890625 58.5 
Q 10.890625 67.625 15.140625 71.796875 
Q 19.390625 75.984375 28.609375 75.984375 
z
" id="DejaVuSans-102"/>
     <path id="DejaVuSans-32"/>
     <path d="M 9.8125 72.90625 
L 19.671875 72.90625 
L 19.671875 43.015625 
L 55.515625 43.015625 
L 55.515625 72.90625 
L 65.375 72.90625 
L 65.375 0 
L 55.515625 0 
L 55.515625 34.71875 
L 19.671875 34.71875 
L 19.671875 0 
L 9.8125 0 
z
" id="DejaVuSans-72"/>
     <path d="M 54.890625 33.015625 
L 54.890625 0 
L 45.90625 0 
L 45.90625 32.71875 
Q 45.90625 40.484375 42.875 44.328125 
Q 39.84375 48.1875 33.796875 48.1875 
Q 26.515625 48.1875 22.3125 43.546875 
Q 18.109375 38.921875 18.109375 30.90625 
L 18.109375 0 
L 9.078125 0 
L 9.078125 54.6875 
L 18.109375 54.6875 
L 18.109375 46.1875 
Q 21.34375 51.125 25.703125 53.5625 
Q 30.078125 56 35.796875 56 
Q 45.21875 56 50.046875 50.171875 
Q 54.890625 44.34375 54.890625 33.015625 
z
" id="DejaVuSans-110"/>
    </defs>
    <g style="fill:#262626;" transform="translate(1041.829261 20.668615)scale(0.12 -0.12)">
     <use xlink:href="#DejaVuSans-76"/>
     <use x="53.962891" xlink:href="#DejaVuSans-101"/>
     <use x="115.486328" xlink:href="#DejaVuSans-102"/>
     <use x="148.941406" xlink:href="#DejaVuSans-116"/>
     <use x="188.150391" xlink:href="#DejaVuSans-32"/>
     <use x="219.9375" xlink:href="#DejaVuSans-72"/>
     <use x="295.132812" xlink:href="#DejaVuSans-97"/>
     <use x="356.412109" xlink:href="#DejaVuSans-110"/>
     <use x="419.791016" xlink:href="#DejaVuSans-100"/>
     <use x="483.267578" xlink:href="#DejaVuSans-95"/>
     <use x="533.267578" xlink:href="#DejaVuSans-49"/>
    </g>
   </g>
  </g>
  <g id="axes_9">
   <g id="matplotlib.axis_17"/>
   <g id="matplotlib.axis_18"/>
   <g id="patch_49">
    <path d="M 1264.411301 76.107692 
C 1264.411301 66.413351 1261.203481 56.986215 1255.290626 49.303872 
C 1249.377772 41.621528 1241.085836 36.107473 1231.714476 33.625968 
L 1220.465455 76.107692 
L 1264.411301 76.107692 
z
" style="fill:#66c2a5;stroke:#ffffff;stroke-linejoin:miter;"/>
   </g>
   <g id="patch_50">
    <path d="M 1231.714476 33.625968 
C 1225.562904 31.997052 1219.13029 31.723574 1212.86266 32.824498 
C 1206.59503 33.925422 1200.640674 36.3747 1195.412457 40.002503 
C 1190.184239 43.630306 1185.805857 48.350802 1182.5809 53.836681 
C 1179.355943 59.32256 1177.360712 65.444028 1176.733552 71.776633 
L 1220.465455 76.107692 
L 1231.714476 33.625968 
z
" style="fill:#fc8d62;stroke:#ffffff;stroke-linejoin:miter;"/>
   </g>
   <g id="patch_51">
    <path d="M 1176.733552 71.776633 
C 1176.644171 72.679133 1176.58275 73.584184 1176.549375 74.490486 
C 1176.516001 75.396787 1176.510689 76.303904 1176.533449 77.210534 
L 1220.465455 76.107692 
L 1176.733552 71.776633 
z
" style="fill:#8da0cb;stroke:#ffffff;stroke-linejoin:miter;"/>
   </g>
   <g id="patch_52">
    <path d="M 1176.533449 77.210534 
C 1176.578232 78.994469 1176.731632 80.77402 1176.992799 82.539302 
C 1177.253965 84.304584 1177.622413 86.05232 1178.096095 87.7728 
L 1220.465455 76.107692 
L 1176.533449 77.210534 
z
" style="fill:#e78ac3;stroke:#ffffff;stroke-linejoin:miter;"/>
   </g>
   <g id="patch_53">
    <path d="M 1178.096095 87.7728 
C 1179.241339 91.932495 1180.992946 95.90095 1183.294468 99.550284 
C 1185.59599 103.199618 1188.422437 106.490205 1191.682728 109.316005 
L 1220.465455 76.107692 
L 1178.096095 87.7728 
z
" style="fill:#a6d854;stroke:#ffffff;stroke-linejoin:miter;"/>
   </g>
   <g id="patch_54">
    <path d="M 1191.682728 109.316005 
C 1197.985518 114.778839 1205.715177 118.336053 1213.964125 119.569976 
C 1222.213074 120.8039 1230.645312 119.664272 1238.270768 116.284902 
C 1245.896225 112.905533 1252.404295 107.424072 1257.030833 100.484125 
C 1261.657372 93.544178 1264.213929 85.428428 1264.400326 77.089784 
L 1220.465455 76.107692 
L 1191.682728 109.316005 
z
" style="fill:#ffd92f;stroke:#ffffff;stroke-linejoin:miter;"/>
   </g>
   <g id="text_8">
    <!-- Left Hand_2 -->
    <g style="fill:#262626;" transform="translate(1184.65108 20.668615)scale(0.12 -0.12)">
     <use xlink:href="#DejaVuSans-76"/>
     <use x="53.962891" xlink:href="#DejaVuSans-101"/>
     <use x="115.486328" xlink:href="#DejaVuSans-102"/>
     <use x="148.941406" xlink:href="#DejaVuSans-116"/>
     <use x="188.150391" xlink:href="#DejaVuSans-32"/>
     <use x="219.9375" xlink:href="#DejaVuSans-72"/>
     <use x="295.132812" xlink:href="#DejaVuSans-97"/>
     <use x="356.412109" xlink:href="#DejaVuSans-110"/>
     <use x="419.791016" xlink:href="#DejaVuSans-100"/>
     <use x="483.267578" xlink:href="#DejaVuSans-95"/>
     <use x="533.267578" xlink:href="#DejaVuSans-50"/>
    </g>
   </g>
  </g>
  <g id="axes_10">
   <g id="matplotlib.axis_19"/>
   <g id="matplotlib.axis_20"/>
   <g id="patch_55">
    <path d="M 1407.233119 76.107692 
C 1407.233119 69.126909 1405.569776 62.245562 1402.381313 56.035487 
C 1399.192849 49.825411 1394.570101 44.463524 1388.897213 40.395393 
L 1363.287273 76.107692 
L 1407.233119 76.107692 
z
" style="fill:#66c2a5;stroke:#ffffff;stroke-linejoin:miter;"/>
   </g>
   <g id="patch_56">
    <path d="M 1388.897213 40.395393 
C 1386.399622 38.604324 1383.721015 37.080196 1380.905398 35.848047 
C 1378.089781 34.615898 1375.152658 33.682512 1372.14228 33.063224 
L 1363.287273 76.107692 
L 1388.897213 40.395393 
z
" style="fill:#fc8d62;stroke:#ffffff;stroke-linejoin:miter;"/>
   </g>
   <g id="patch_57">
    <path d="M 1372.14228 33.063224 
C 1364.088686 31.406458 1355.729494 32.04271 1348.019432 34.899314 
C 1340.309369 37.755918 1333.553583 42.719815 1328.523673 49.224063 
L 1363.287273 76.107692 
L 1372.14228 33.063224 
z
" style="fill:#8da0cb;stroke:#ffffff;stroke-linejoin:miter;"/>
   </g>
   <g id="patch_58">
    <path d="M 1328.523673 49.224063 
C 1322.859149 56.548939 1319.652066 65.480051 1319.362866 74.735158 
C 1319.073665 83.990264 1321.716883 93.104184 1326.913032 100.768431 
L 1363.287273 76.107692 
L 1328.523673 49.224063 
z
" style="fill:#e78ac3;stroke:#ffffff;stroke-linejoin:miter;"/>
   </g>
   <g id="patch_59">
    <path d="M 1326.913032 100.768431 
C 1330.901143 106.650838 1336.257313 111.478958 1342.520631 114.837319 
C 1348.78395 118.195681 1355.769452 119.985107 1362.876021 120.051614 
L 1363.287273 76.107692 
L 1326.913032 100.768431 
z
" style="fill:#a6d854;stroke:#ffffff;stroke-linejoin:miter;"/>
   </g>
   <g id="patch_60">
    <path d="M 1362.876021 120.051614 
C 1368.649007 120.105641 1374.376459 119.021532 1379.730338 116.861379 
C 1385.084217 114.701227 1389.96032 111.507074 1394.07937 107.461865 
C 1398.198419 103.416657 1401.480245 98.599125 1403.736882 93.285193 
C 1405.993518 87.971261 1407.181044 82.264355 1407.231444 76.491336 
L 1363.287273 76.107692 
L 1362.876021 120.051614 
z
" style="fill:#ffd92f;stroke:#ffffff;stroke-linejoin:miter;"/>
   </g>
   <g id="text_9">
    <!-- Right Hand_1 -->
    <defs>
     <path d="M 44.390625 34.1875 
Q 47.5625 33.109375 50.5625 29.59375 
Q 53.5625 26.078125 56.59375 19.921875 
L 66.609375 0 
L 56 0 
L 46.6875 18.703125 
Q 43.0625 26.03125 39.671875 28.421875 
Q 36.28125 30.8125 30.421875 30.8125 
L 19.671875 30.8125 
L 19.671875 0 
L 9.8125 0 
L 9.8125 72.90625 
L 32.078125 72.90625 
Q 44.578125 72.90625 50.734375 67.671875 
Q 56.890625 62.453125 56.890625 51.90625 
Q 56.890625 45.015625 53.6875 40.46875 
Q 50.484375 35.9375 44.390625 34.1875 
z
M 19.671875 64.796875 
L 19.671875 38.921875 
L 32.078125 38.921875 
Q 39.203125 38.921875 42.84375 42.21875 
Q 46.484375 45.515625 46.484375 51.90625 
Q 46.484375 58.296875 42.84375 61.546875 
Q 39.203125 64.796875 32.078125 64.796875 
z
" id="DejaVuSans-82"/>
     <path d="M 9.421875 54.6875 
L 18.40625 54.6875 
L 18.40625 0 
L 9.421875 0 
z
M 9.421875 75.984375 
L 18.40625 75.984375 
L 18.40625 64.59375 
L 9.421875 64.59375 
z
" id="DejaVuSans-105"/>
     <path d="M 45.40625 27.984375 
Q 45.40625 37.75 41.375 43.109375 
Q 37.359375 48.484375 30.078125 48.484375 
Q 22.859375 48.484375 18.828125 43.109375 
Q 14.796875 37.75 14.796875 27.984375 
Q 14.796875 18.265625 18.828125 12.890625 
Q 22.859375 7.515625 30.078125 7.515625 
Q 37.359375 7.515625 41.375 12.890625 
Q 45.40625 18.265625 45.40625 27.984375 
z
M 54.390625 6.78125 
Q 54.390625 -7.171875 48.1875 -13.984375 
Q 42 -20.796875 29.203125 -20.796875 
Q 24.46875 -20.796875 20.265625 -20.09375 
Q 16.0625 -19.390625 12.109375 -17.921875 
L 12.109375 -9.1875 
Q 16.0625 -11.328125 19.921875 -12.34375 
Q 23.78125 -13.375 27.78125 -13.375 
Q 36.625 -13.375 41.015625 -8.765625 
Q 45.40625 -4.15625 45.40625 5.171875 
L 45.40625 9.625 
Q 42.625 4.78125 38.28125 2.390625 
Q 33.9375 0 27.875 0 
Q 17.828125 0 11.671875 7.65625 
Q 5.515625 15.328125 5.515625 27.984375 
Q 5.515625 40.671875 11.671875 48.328125 
Q 17.828125 56 27.875 56 
Q 33.9375 56 38.28125 53.609375 
Q 42.625 51.21875 45.40625 46.390625 
L 45.40625 54.6875 
L 54.390625 54.6875 
z
" id="DejaVuSans-103"/>
    </defs>
    <g style="fill:#262626;" transform="translate(1322.962585 20.668615)scale(0.12 -0.12)">
     <use xlink:href="#DejaVuSans-82"/>
     <use x="69.482422" xlink:href="#DejaVuSans-105"/>
     <use x="97.265625" xlink:href="#DejaVuSans-103"/>
     <use x="160.742188" xlink:href="#DejaVuSans-104"/>
     <use x="224.121094" xlink:href="#DejaVuSans-116"/>
     <use x="263.330078" xlink:href="#DejaVuSans-32"/>
     <use x="295.117188" xlink:href="#DejaVuSans-72"/>
     <use x="370.3125" xlink:href="#DejaVuSans-97"/>
     <use x="431.591797" xlink:href="#DejaVuSans-110"/>
     <use x="494.970703" xlink:href="#DejaVuSans-100"/>
     <use x="558.447266" xlink:href="#DejaVuSans-95"/>
     <use x="608.447266" xlink:href="#DejaVuSans-49"/>
    </g>
   </g>
  </g>
  <g id="axes_11">
   <g id="matplotlib.axis_21"/>
   <g id="matplotlib.axis_22"/>
   <g id="patch_61">
    <path d="M 1550.054937 76.107692 
C 1550.054937 71.122408 1549.20663 66.173277 1547.546398 61.472565 
C 1545.886167 56.771853 1543.438092 52.38774 1540.307169 48.508257 
L 1506.109091 76.107692 
L 1550.054937 76.107692 
z
" style="fill:#66c2a5;stroke:#ffffff;stroke-linejoin:miter;"/>
   </g>
   <g id="patch_62">
    <path d="M 1540.307169 48.508257 
C 1540.124777 48.282257 1539.940149 48.058071 1539.753312 47.835731 
C 1539.566475 47.613391 1539.377439 47.392909 1539.186231 47.174317 
L 1506.109091 76.107692 
L 1540.307169 48.508257 
z
" style="fill:#fc8d62;stroke:#ffffff;stroke-linejoin:miter;"/>
   </g>
   <g id="patch_63">
    <path d="M 1539.186231 47.174317 
C 1536.155801 43.709877 1532.599811 40.74295 1528.648512 38.382212 
C 1524.697213 36.021473 1520.399444 34.296102 1515.912627 33.269298 
L 1506.109091 76.107692 
L 1539.186231 47.174317 
z
" style="fill:#8da0cb;stroke:#ffffff;stroke-linejoin:miter;"/>
   </g>
   <g id="patch_64">
    <path d="M 1515.912627 33.269298 
C 1510.768972 32.092176 1505.455107 31.851026 1500.225975 32.557419 
C 1494.996844 33.263811 1489.937431 34.906265 1485.290472 37.405981 
L 1506.109091 76.107692 
L 1515.912627 33.269298 
z
" style="fill:#e78ac3;stroke:#ffffff;stroke-linejoin:miter;"/>
   </g>
   <g id="patch_65">
    <path d="M 1485.290472 37.405981 
C 1478.320693 41.155199 1472.491444 46.718483 1468.42106 53.505708 
C 1464.350676 60.292933 1462.188354 68.05532 1462.163462 75.969474 
C 1462.13857 83.883628 1464.252021 91.659462 1468.27963 98.472157 
C 1472.307239 105.284853 1478.101378 110.884695 1485.047435 114.677681 
L 1506.109091 76.107692 
L 1485.290472 37.405981 
z
" style="fill:#a6d854;stroke:#ffffff;stroke-linejoin:miter;"/>
   </g>
   <g id="patch_66">
    <path d="M 1485.047435 114.677681 
C 1491.739654 118.332057 1499.26916 120.182549 1506.892922 120.046548 
C 1514.516685 119.910546 1521.975398 117.792677 1528.533019 113.901936 
C 1535.09064 110.011195 1540.524124 104.479918 1544.297282 97.853944 
C 1548.07044 91.22797 1550.054937 83.732668 1550.054937 76.107693 
L 1506.109091 76.107692 
L 1485.047435 114.677681 
z
" style="fill:#ffd92f;stroke:#ffffff;stroke-linejoin:miter;"/>
   </g>
   <g id="text_10">
    <!-- Right Hand_2 -->
    <g style="fill:#262626;" transform="translate(1465.784403 20.668615)scale(0.12 -0.12)">
     <use xlink:href="#DejaVuSans-82"/>
     <use x="69.482422" xlink:href="#DejaVuSans-105"/>
     <use x="97.265625" xlink:href="#DejaVuSans-103"/>
     <use x="160.742188" xlink:href="#DejaVuSans-104"/>
     <use x="224.121094" xlink:href="#DejaVuSans-116"/>
     <use x="263.330078" xlink:href="#DejaVuSans-32"/>
     <use x="295.117188" xlink:href="#DejaVuSans-72"/>
     <use x="370.3125" xlink:href="#DejaVuSans-97"/>
     <use x="431.591797" xlink:href="#DejaVuSans-110"/>
     <use x="494.970703" xlink:href="#DejaVuSans-100"/>
     <use x="558.447266" xlink:href="#DejaVuSans-95"/>
     <use x="608.447266" xlink:href="#DejaVuSans-50"/>
    </g>
   </g>
  </g>
  <g id="text_11">
   <!-- FEAST -->
   <defs>
    <path d="M 9.8125 72.90625 
L 55.90625 72.90625 
L 55.90625 64.59375 
L 19.671875 64.59375 
L 19.671875 43.015625 
L 54.390625 43.015625 
L 54.390625 34.71875 
L 19.671875 34.71875 
L 19.671875 8.296875 
L 56.78125 8.296875 
L 56.78125 0 
L 9.8125 0 
z
" id="DejaVuSans-69"/>
    <path d="M 34.1875 63.1875 
L 20.796875 26.90625 
L 47.609375 26.90625 
z
M 28.609375 72.90625 
L 39.796875 72.90625 
L 67.578125 0 
L 57.328125 0 
L 50.6875 18.703125 
L 17.828125 18.703125 
L 11.1875 0 
L 0.78125 0 
z
" id="DejaVuSans-65"/>
    <path d="M -0.296875 72.90625 
L 61.375 72.90625 
L 61.375 64.59375 
L 35.5 64.59375 
L 35.5 0 
L 25.59375 0 
L 25.59375 64.59375 
L -0.296875 64.59375 
z
" id="DejaVuSans-84"/>
   </defs>
   <g style="fill:#262626;" transform="translate(769.415625 13.82175)scale(0.144 -0.144)">
    <use xlink:href="#DejaVuSans-70"/>
    <use x="57.519531" xlink:href="#DejaVuSans-69"/>
    <use x="120.703125" xlink:href="#DejaVuSans-65"/>
    <use x="189.111328" xlink:href="#DejaVuSans-83"/>
    <use x="252.587891" xlink:href="#DejaVuSans-84"/>
   </g>
  </g>
  <g id="legend_1">
   <g id="patch_67">
    <path d="M 703.61 127.529531 
L 848.572578 127.529531 
Q 850.472578 127.529531 850.472578 125.629531 
L 850.472578 42.65 
Q 850.472578 40.75 848.572578 40.75 
L 703.61 40.75 
Q 701.71 40.75 701.71 42.65 
L 701.71 125.629531 
Q 701.71 127.529531 703.61 127.529531 
z
" style="fill:#ffffff;opacity:0.8;stroke:#ffffff;stroke-linejoin:miter;"/>
   </g>
   <g id="patch_68">
    <path d="M 705.51 51.768516 
L 724.51 51.768516 
L 724.51 45.118516 
L 705.51 45.118516 
z
" style="fill:#66c2a5;stroke:#ffffff;stroke-linejoin:miter;"/>
   </g>
   <g id="text_12">
    <!-- Unknown -->
    <defs>
     <path d="M 8.6875 72.90625 
L 18.609375 72.90625 
L 18.609375 28.609375 
Q 18.609375 16.890625 22.84375 11.734375 
Q 27.09375 6.59375 36.625 6.59375 
Q 46.09375 6.59375 50.34375 11.734375 
Q 54.59375 16.890625 54.59375 28.609375 
L 54.59375 72.90625 
L 64.5 72.90625 
L 64.5 27.390625 
Q 64.5 13.140625 57.4375 5.859375 
Q 50.390625 -1.421875 36.625 -1.421875 
Q 22.796875 -1.421875 15.734375 5.859375 
Q 8.6875 13.140625 8.6875 27.390625 
z
" id="DejaVuSans-85"/>
     <path d="M 9.078125 75.984375 
L 18.109375 75.984375 
L 18.109375 31.109375 
L 44.921875 54.6875 
L 56.390625 54.6875 
L 27.390625 29.109375 
L 57.625 0 
L 45.90625 0 
L 18.109375 26.703125 
L 18.109375 0 
L 9.078125 0 
z
" id="DejaVuSans-107"/>
     <path d="M 4.203125 54.6875 
L 13.1875 54.6875 
L 24.421875 12.015625 
L 35.59375 54.6875 
L 46.1875 54.6875 
L 57.421875 12.015625 
L 68.609375 54.6875 
L 77.59375 54.6875 
L 63.28125 0 
L 52.6875 0 
L 40.921875 44.828125 
L 29.109375 0 
L 18.5 0 
z
" id="DejaVuSans-119"/>
    </defs>
    <g style="fill:#262626;" transform="translate(732.11 51.768516)scale(0.095 -0.095)">
     <use xlink:href="#DejaVuSans-85"/>
     <use x="73.193359" xlink:href="#DejaVuSans-110"/>
     <use x="136.572266" xlink:href="#DejaVuSans-107"/>
     <use x="194.482422" xlink:href="#DejaVuSans-110"/>
     <use x="257.861328" xlink:href="#DejaVuSans-111"/>
     <use x="319.042969" xlink:href="#DejaVuSans-119"/>
     <use x="400.830078" xlink:href="#DejaVuSans-110"/>
    </g>
   </g>
   <g id="patch_69">
    <path d="M 705.51 65.712734 
L 724.51 65.712734 
L 724.51 59.062734 
L 705.51 59.062734 
z
" style="fill:#fc8d62;stroke:#ffffff;stroke-linejoin:miter;"/>
   </g>
   <g id="text_13">
    <!-- Large_intestine(Human) -->
    <defs>
     <path d="M 44.28125 53.078125 
L 44.28125 44.578125 
Q 40.484375 46.53125 36.375 47.5 
Q 32.28125 48.484375 27.875 48.484375 
Q 21.1875 48.484375 17.84375 46.4375 
Q 14.5 44.390625 14.5 40.28125 
Q 14.5 37.15625 16.890625 35.375 
Q 19.28125 33.59375 26.515625 31.984375 
L 29.59375 31.296875 
Q 39.15625 29.25 43.1875 25.515625 
Q 47.21875 21.78125 47.21875 15.09375 
Q 47.21875 7.46875 41.1875 3.015625 
Q 35.15625 -1.421875 24.609375 -1.421875 
Q 20.21875 -1.421875 15.453125 -0.5625 
Q 10.6875 0.296875 5.421875 2 
L 5.421875 11.28125 
Q 10.40625 8.6875 15.234375 7.390625 
Q 20.0625 6.109375 24.8125 6.109375 
Q 31.15625 6.109375 34.5625 8.28125 
Q 37.984375 10.453125 37.984375 14.40625 
Q 37.984375 18.0625 35.515625 20.015625 
Q 33.0625 21.96875 24.703125 23.78125 
L 21.578125 24.515625 
Q 13.234375 26.265625 9.515625 29.90625 
Q 5.8125 33.546875 5.8125 39.890625 
Q 5.8125 47.609375 11.28125 51.796875 
Q 16.75 56 26.8125 56 
Q 31.78125 56 36.171875 55.265625 
Q 40.578125 54.546875 44.28125 53.078125 
z
" id="DejaVuSans-115"/>
     <path d="M 31 75.875 
Q 24.46875 64.65625 21.28125 53.65625 
Q 18.109375 42.671875 18.109375 31.390625 
Q 18.109375 20.125 21.3125 9.0625 
Q 24.515625 -2 31 -13.1875 
L 23.1875 -13.1875 
Q 15.875 -1.703125 12.234375 9.375 
Q 8.59375 20.453125 8.59375 31.390625 
Q 8.59375 42.28125 12.203125 53.3125 
Q 15.828125 64.359375 23.1875 75.875 
z
" id="DejaVuSans-40"/>
     <path d="M 52 44.1875 
Q 55.375 50.25 60.0625 53.125 
Q 64.75 56 71.09375 56 
Q 79.640625 56 84.28125 50.015625 
Q 88.921875 44.046875 88.921875 33.015625 
L 88.921875 0 
L 79.890625 0 
L 79.890625 32.71875 
Q 79.890625 40.578125 77.09375 44.375 
Q 74.3125 48.1875 68.609375 48.1875 
Q 61.625 48.1875 57.5625 43.546875 
Q 53.515625 38.921875 53.515625 30.90625 
L 53.515625 0 
L 44.484375 0 
L 44.484375 32.71875 
Q 44.484375 40.625 41.703125 44.40625 
Q 38.921875 48.1875 33.109375 48.1875 
Q 26.21875 48.1875 22.15625 43.53125 
Q 18.109375 38.875 18.109375 30.90625 
L 18.109375 0 
L 9.078125 0 
L 9.078125 54.6875 
L 18.109375 54.6875 
L 18.109375 46.1875 
Q 21.1875 51.21875 25.484375 53.609375 
Q 29.78125 56 35.6875 56 
Q 41.65625 56 45.828125 52.96875 
Q 50 49.953125 52 44.1875 
z
" id="DejaVuSans-109"/>
     <path d="M 8.015625 75.875 
L 15.828125 75.875 
Q 23.140625 64.359375 26.78125 53.3125 
Q 30.421875 42.28125 30.421875 31.390625 
Q 30.421875 20.453125 26.78125 9.375 
Q 23.140625 -1.703125 15.828125 -13.1875 
L 8.015625 -13.1875 
Q 14.5 -2 17.703125 9.0625 
Q 20.90625 20.125 20.90625 31.390625 
Q 20.90625 42.671875 17.703125 53.65625 
Q 14.5 64.65625 8.015625 75.875 
z
" id="DejaVuSans-41"/>
    </defs>
    <g style="fill:#262626;" transform="translate(732.11 65.712734)scale(0.095 -0.095)">
     <use xlink:href="#DejaVuSans-76"/>
     <use x="55.712891" xlink:href="#DejaVuSans-97"/>
     <use x="116.992188" xlink:href="#DejaVuSans-114"/>
     <use x="156.355469" xlink:href="#DejaVuSans-103"/>
     <use x="219.832031" xlink:href="#DejaVuSans-101"/>
     <use x="281.355469" xlink:href="#DejaVuSans-95"/>
     <use x="331.355469" xlink:href="#DejaVuSans-105"/>
     <use x="359.138672" xlink:href="#DejaVuSans-110"/>
     <use x="422.517578" xlink:href="#DejaVuSans-116"/>
     <use x="461.726562" xlink:href="#DejaVuSans-101"/>
     <use x="523.25" xlink:href="#DejaVuSans-115"/>
     <use x="575.349609" xlink:href="#DejaVuSans-116"/>
     <use x="614.558594" xlink:href="#DejaVuSans-105"/>
     <use x="642.341797" xlink:href="#DejaVuSans-110"/>
     <use x="705.720703" xlink:href="#DejaVuSans-101"/>
     <use x="767.244141" xlink:href="#DejaVuSans-40"/>
     <use x="806.257812" xlink:href="#DejaVuSans-72"/>
     <use x="881.453125" xlink:href="#DejaVuSans-117"/>
     <use x="944.832031" xlink:href="#DejaVuSans-109"/>
     <use x="1042.244141" xlink:href="#DejaVuSans-97"/>
     <use x="1103.523438" xlink:href="#DejaVuSans-110"/>
     <use x="1166.902344" xlink:href="#DejaVuSans-41"/>
    </g>
   </g>
   <g id="patch_70">
    <path d="M 705.51 79.921172 
L 724.51 79.921172 
L 724.51 73.271172 
L 705.51 73.271172 
z
" style="fill:#8da0cb;stroke:#ffffff;stroke-linejoin:miter;"/>
   </g>
   <g id="text_14">
    <!-- Pharynx(Human) -->
    <defs>
     <path d="M 19.671875 64.796875 
L 19.671875 37.40625 
L 32.078125 37.40625 
Q 38.96875 37.40625 42.71875 40.96875 
Q 46.484375 44.53125 46.484375 51.125 
Q 46.484375 57.671875 42.71875 61.234375 
Q 38.96875 64.796875 32.078125 64.796875 
z
M 9.8125 72.90625 
L 32.078125 72.90625 
Q 44.34375 72.90625 50.609375 67.359375 
Q 56.890625 61.8125 56.890625 51.125 
Q 56.890625 40.328125 50.609375 34.8125 
Q 44.34375 29.296875 32.078125 29.296875 
L 19.671875 29.296875 
L 19.671875 0 
L 9.8125 0 
z
" id="DejaVuSans-80"/>
     <path d="M 32.171875 -5.078125 
Q 28.375 -14.84375 24.75 -17.8125 
Q 21.140625 -20.796875 15.09375 -20.796875 
L 7.90625 -20.796875 
L 7.90625 -13.28125 
L 13.1875 -13.28125 
Q 16.890625 -13.28125 18.9375 -11.515625 
Q 21 -9.765625 23.484375 -3.21875 
L 25.09375 0.875 
L 2.984375 54.6875 
L 12.5 54.6875 
L 29.59375 11.921875 
L 46.6875 54.6875 
L 56.203125 54.6875 
z
" id="DejaVuSans-121"/>
     <path d="M 54.890625 54.6875 
L 35.109375 28.078125 
L 55.90625 0 
L 45.3125 0 
L 29.390625 21.484375 
L 13.484375 0 
L 2.875 0 
L 24.125 28.609375 
L 4.6875 54.6875 
L 15.28125 54.6875 
L 29.78125 35.203125 
L 44.28125 54.6875 
z
" id="DejaVuSans-120"/>
    </defs>
    <g style="fill:#262626;" transform="translate(732.11 79.921172)scale(0.095 -0.095)">
     <use xlink:href="#DejaVuSans-80"/>
     <use x="60.302734" xlink:href="#DejaVuSans-104"/>
     <use x="123.681641" xlink:href="#DejaVuSans-97"/>
     <use x="184.960938" xlink:href="#DejaVuSans-114"/>
     <use x="226.074219" xlink:href="#DejaVuSans-121"/>
     <use x="285.253906" xlink:href="#DejaVuSans-110"/>
     <use x="348.632812" xlink:href="#DejaVuSans-120"/>
     <use x="407.8125" xlink:href="#DejaVuSans-40"/>
     <use x="446.826172" xlink:href="#DejaVuSans-72"/>
     <use x="522.021484" xlink:href="#DejaVuSans-117"/>
     <use x="585.400391" xlink:href="#DejaVuSans-109"/>
     <use x="682.8125" xlink:href="#DejaVuSans-97"/>
     <use x="744.091797" xlink:href="#DejaVuSans-110"/>
     <use x="807.470703" xlink:href="#DejaVuSans-41"/>
    </g>
   </g>
   <g id="patch_71">
    <path d="M 705.51 93.865391 
L 724.51 93.865391 
L 724.51 87.215391 
L 705.51 87.215391 
z
" style="fill:#e78ac3;stroke:#ffffff;stroke-linejoin:miter;"/>
   </g>
   <g id="text_15">
    <!-- Skin(Human) -->
    <g style="fill:#262626;" transform="translate(732.11 93.865391)scale(0.095 -0.095)">
     <use xlink:href="#DejaVuSans-83"/>
     <use x="63.476562" xlink:href="#DejaVuSans-107"/>
     <use x="121.386719" xlink:href="#DejaVuSans-105"/>
     <use x="149.169922" xlink:href="#DejaVuSans-110"/>
     <use x="212.548828" xlink:href="#DejaVuSans-40"/>
     <use x="251.5625" xlink:href="#DejaVuSans-72"/>
     <use x="326.757812" xlink:href="#DejaVuSans-117"/>
     <use x="390.136719" xlink:href="#DejaVuSans-109"/>
     <use x="487.548828" xlink:href="#DejaVuSans-97"/>
     <use x="548.828125" xlink:href="#DejaVuSans-110"/>
     <use x="612.207031" xlink:href="#DejaVuSans-41"/>
    </g>
   </g>
   <g id="patch_72">
    <path d="M 705.51 107.809609 
L 724.51 107.809609 
L 724.51 101.159609 
L 705.51 101.159609 
z
" style="fill:#a6d854;stroke:#ffffff;stroke-linejoin:miter;"/>
   </g>
   <g id="text_16">
    <!-- Plants -->
    <g style="fill:#262626;" transform="translate(732.11 107.809609)scale(0.095 -0.095)">
     <use xlink:href="#DejaVuSans-80"/>
     <use x="60.302734" xlink:href="#DejaVuSans-108"/>
     <use x="88.085938" xlink:href="#DejaVuSans-97"/>
     <use x="149.365234" xlink:href="#DejaVuSans-110"/>
     <use x="212.744141" xlink:href="#DejaVuSans-116"/>
     <use x="251.953125" xlink:href="#DejaVuSans-115"/>
    </g>
   </g>
   <g id="patch_73">
    <path d="M 705.51 121.753828 
L 724.51 121.753828 
L 724.51 115.103828 
L 705.51 115.103828 
z
" style="fill:#ffd92f;stroke:#ffffff;stroke-linejoin:miter;"/>
   </g>
   <g id="text_17">
    <!-- Others -->
    <defs>
     <path d="M 39.40625 66.21875 
Q 28.65625 66.21875 22.328125 58.203125 
Q 16.015625 50.203125 16.015625 36.375 
Q 16.015625 22.609375 22.328125 14.59375 
Q 28.65625 6.59375 39.40625 6.59375 
Q 50.140625 6.59375 56.421875 14.59375 
Q 62.703125 22.609375 62.703125 36.375 
Q 62.703125 50.203125 56.421875 58.203125 
Q 50.140625 66.21875 39.40625 66.21875 
z
M 39.40625 74.21875 
Q 54.734375 74.21875 63.90625 63.9375 
Q 73.09375 53.65625 73.09375 36.375 
Q 73.09375 19.140625 63.90625 8.859375 
Q 54.734375 -1.421875 39.40625 -1.421875 
Q 24.03125 -1.421875 14.8125 8.828125 
Q 5.609375 19.09375 5.609375 36.375 
Q 5.609375 53.65625 14.8125 63.9375 
Q 24.03125 74.21875 39.40625 74.21875 
z
" id="DejaVuSans-79"/>
    </defs>
    <g style="fill:#262626;" transform="translate(732.11 121.753828)scale(0.095 -0.095)">
     <use xlink:href="#DejaVuSans-79"/>
     <use x="78.710938" xlink:href="#DejaVuSans-116"/>
     <use x="117.919922" xlink:href="#DejaVuSans-104"/>
     <use x="181.298828" xlink:href="#DejaVuSans-101"/>
     <use x="242.822266" xlink:href="#DejaVuSans-114"/>
     <use x="283.935547" xlink:href="#DejaVuSans-115"/>
    </g>
   </g>
  </g>
 </g>
</svg>
