<?xml version="1.0" encoding="utf-8" standalone="no"?>
<!DOCTYPE svg PUBLIC "-//W3C//DTD SVG 1.1//EN"
  "http://www.w3.org/Graphics/SVG/1.1/DTD/svg11.dtd">
<!-- Created with matplotlib (https://matplotlib.org/) -->
<svg height="144pt" version="1.1" viewBox="0 0 1728 144" width="1728pt" xmlns="http://www.w3.org/2000/svg" xmlns:xlink="http://www.w3.org/1999/xlink">
 <defs>
  <style type="text/css">
*{stroke-linecap:butt;stroke-linejoin:round;}
  </style>
 </defs>
 <g id="figure_1">
  <g id="patch_1">
   <path d="M 0 144 
L 1728 144 
L 1728 0 
L 0 0 
z
" style="fill:#ffffff;"/>
  </g>
  <g id="axes_1">
   <g id="patch_2">
    <path d="M 129.6 72 
C 129.6 71.993972 129.599999 71.987944 129.599997 71.981915 
C 129.599995 71.975887 129.599992 71.969859 129.599989 71.963831 
L 72 72 
L 129.6 72 
z
" style="fill:#66c2a5;stroke:#ffffff;stroke-linejoin:miter;"/>
   </g>
   <g id="patch_3">
    <path d="M 129.599989 71.963831 
C 129.599747 71.579608 129.595662 71.195398 129.587732 70.811258 
C 129.579803 70.427117 129.56803 70.043066 129.552415 69.659161 
L 72 72 
L 129.599989 71.963831 
z
" style="fill:#fc8d62;stroke:#ffffff;stroke-linejoin:miter;"/>
   </g>
   <g id="patch_4">
    <path d="M 129.552415 69.659161 
C 129.247113 62.152932 127.476248 54.778426 124.339812 47.952047 
C 121.203377 41.125668 116.761536 34.978363 111.2651 29.857243 
C 105.768663 24.736123 99.323068 20.739424 92.292266 18.092821 
C 85.261464 15.446218 77.780326 14.20048 70.271275 14.425948 
C 62.762224 14.651415 55.369304 16.343764 48.50996 19.407434 
C 41.650615 22.471104 35.456426 26.847327 30.27715 32.288997 
C 25.097873 37.730667 21.032861 44.133399 18.311646 51.135661 
C 15.590431 58.137923 14.265213 65.605392 14.41082 73.116416 
C 14.556428 80.62744 16.170068 88.037937 19.160627 94.929471 
C 22.151185 101.821006 26.461295 108.061378 31.847584 113.298226 
C 37.233873 118.535074 43.593018 122.667939 50.565948 125.463459 
C 57.538878 128.258978 64.991833 129.663526 72.503981 129.597795 
C 80.016129 129.532064 87.443365 127.997314 94.36631 125.080205 
C 101.289254 122.163097 107.575106 117.919588 112.868932 112.589289 
C 118.162759 107.25899 122.36301 100.944152 125.232518 94.001342 
C 128.102026 87.058532 129.585745 79.620933 129.599898 72.108511 
L 72 72 
L 129.552415 69.659161 
z
" style="fill:#8da0cb;stroke:#ffffff;stroke-linejoin:miter;"/>
   </g>
   <g id="patch_5">
    <path d="M 129.599898 72.108511 
C 129.599909 72.102483 129.59992 72.096455 129.599929 72.090427 
C 129.599938 72.084398 129.599947 72.07837 129.599955 72.072342 
L 72 72 
L 129.599898 72.108511 
z
" style="fill:#e78ac3;stroke:#ffffff;stroke-linejoin:miter;"/>
   </g>
   <g id="patch_6">
    <path d="M 129.599955 72.072342 
C 129.599962 72.066314 129.599969 72.060285 129.599974 72.054257 
C 129.59998 72.048229 129.599985 72.042201 129.599989 72.036172 
L 72 72 
L 129.599955 72.072342 
z
" style="fill:#a6d854;stroke:#ffffff;stroke-linejoin:miter;"/>
   </g>
   <g id="patch_7">
    <path d="M 129.599989 72.036172 
C 129.599992 72.030144 129.599995 72.024116 129.599997 72.018088 
C 129.599999 72.012059 129.6 72.006031 129.6 72.000003 
L 72 72 
L 129.599989 72.036172 
z
" style="fill:#ffd92f;stroke:#ffffff;stroke-linejoin:miter;"/>
   </g>
  </g>
  <g id="axes_2">
   <g id="patch_8">
    <path d="M 273.6 72 
C 273.6 71.993972 273.599999 71.987944 273.599997 71.981915 
C 273.599995 71.975887 273.599992 71.969859 273.599989 71.963831 
L 216 72 
L 273.6 72 
z
" style="fill:#66c2a5;stroke:#ffffff;stroke-linejoin:miter;"/>
   </g>
   <g id="patch_9">
    <path d="M 273.599989 71.963831 
C 273.599736 71.561717 273.595273 71.159618 273.586599 70.757598 
C 273.577926 70.355578 273.565043 69.95366 273.547953 69.55191 
L 216 72 
L 273.599989 71.963831 
z
" style="fill:#fc8d62;stroke:#ffffff;stroke-linejoin:miter;"/>
   </g>
   <g id="patch_10">
    <path d="M 273.547953 69.55191 
C 273.228758 62.048519 271.445129 54.67948 268.297718 47.860641 
C 265.150308 41.041802 260.699455 34.903889 255.19633 29.793274 
C 249.693206 24.68266 243.243311 20.697322 236.210624 18.062159 
C 229.177938 15.426997 221.697286 14.192529 214.190814 14.42842 
C 206.684343 14.66431 199.29596 16.366037 192.442607 19.437568 
C 185.589253 22.509099 179.402316 26.89155 174.230934 32.33761 
C 169.059553 37.783671 165.002869 44.188933 162.28981 51.191937 
C 159.57675 58.194941 158.259327 65.661431 158.411885 73.170058 
C 158.564443 80.678686 160.184058 88.085501 163.179331 94.972525 
C 166.174604 101.859549 170.488113 108.094748 175.876438 113.32626 
C 181.264763 118.557771 187.624603 122.6853 194.597063 125.475922 
C 201.569522 128.266545 209.020928 129.666761 216.530787 129.597554 
C 224.040645 129.528348 231.464981 127.991045 238.384827 125.072399 
C 245.304672 122.153753 251.587365 117.909718 256.878362 112.579792 
C 262.169359 107.249866 266.367225 100.93623 269.235066 93.995175 
C 272.102907 87.05412 273.585744 79.618714 273.599898 72.108551 
L 216 72 
L 273.547953 69.55191 
z
" style="fill:#8da0cb;stroke:#ffffff;stroke-linejoin:miter;"/>
   </g>
   <g id="patch_11">
    <path d="M 273.599898 72.108551 
C 273.599909 72.102522 273.599919 72.096494 273.599929 72.090466 
C 273.599938 72.084438 273.599947 72.078409 273.599955 72.072381 
L 216 72 
L 273.599898 72.108551 
z
" style="fill:#e78ac3;stroke:#ffffff;stroke-linejoin:miter;"/>
   </g>
   <g id="patch_12">
    <path d="M 273.599955 72.072381 
C 273.599962 72.066353 273.599969 72.060325 273.599974 72.054296 
C 273.59998 72.048268 273.599985 72.04224 273.599989 72.036212 
L 216 72 
L 273.599955 72.072381 
z
" style="fill:#a6d854;stroke:#ffffff;stroke-linejoin:miter;"/>
   </g>
   <g id="patch_13">
    <path d="M 273.599989 72.036212 
C 273.599992 72.030183 273.599995 72.024155 273.599997 72.018127 
C 273.599999 72.012099 273.6 72.00607 273.6 72.000042 
L 216 72 
L 273.599989 72.036212 
z
" style="fill:#ffd92f;stroke:#ffffff;stroke-linejoin:miter;"/>
   </g>
  </g>
  <g id="axes_3">
   <g id="patch_14">
    <path d="M 417.6 72 
C 417.6 71.993972 417.599999 71.987944 417.599997 71.981915 
C 417.599995 71.975887 417.599992 71.969859 417.599989 71.963831 
L 360 72 
L 417.6 72 
z
" style="fill:#66c2a5;stroke:#ffffff;stroke-linejoin:miter;"/>
   </g>
   <g id="patch_15">
    <path d="M 417.599989 71.963831 
C 417.599985 71.957802 417.59998 71.951774 417.599974 71.945746 
C 417.599969 71.939718 417.599962 71.933689 417.599955 71.927661 
L 360 72 
L 417.599989 71.963831 
z
" style="fill:#fc8d62;stroke:#ffffff;stroke-linejoin:miter;"/>
   </g>
   <g id="patch_16">
    <path d="M 417.599955 71.927661 
C 417.59046 64.367509 416.092621 56.882665 413.192074 49.901059 
C 410.291528 42.919453 406.044624 36.576723 400.694172 31.235501 
C 395.343719 25.894279 388.993665 21.658334 382.007061 18.769846 
C 375.020457 15.881359 367.533038 14.396447 359.972881 14.400006 
C 352.412723 14.403566 344.926705 15.895528 337.942824 18.790593 
C 330.958943 21.685658 324.612881 25.927581 319.267461 31.273838 
C 313.92204 36.620096 309.681111 42.966822 306.78714 49.951157 
C 303.893168 56.935491 302.402379 64.421742 302.400003 71.9819 
C 302.397627 79.542058 303.883712 87.029245 306.773293 94.015396 
C 309.662874 101.001548 313.899814 107.350938 319.241873 112.700554 
C 324.583933 118.05017 330.927328 122.296081 337.909388 125.195534 
C 344.891448 128.094988 352.376527 129.591654 359.93668 129.599965 
C 367.496834 129.608276 374.985185 128.12807 381.973603 125.243974 
C 388.962021 122.359878 395.314736 118.127925 400.668544 112.790066 
C 406.022352 107.452208 410.273241 101.112149 413.178175 94.132367 
C 416.083109 87.152585 417.585652 79.668684 417.599898 72.108539 
L 360 72 
L 417.599955 71.927661 
z
" style="fill:#8da0cb;stroke:#ffffff;stroke-linejoin:miter;"/>
   </g>
   <g id="patch_17">
    <path d="M 417.599898 72.108539 
C 417.599909 72.102511 417.59992 72.096483 417.599929 72.090454 
C 417.599938 72.084426 417.599947 72.078398 417.599955 72.07237 
L 360 72 
L 417.599898 72.108539 
z
" style="fill:#e78ac3;stroke:#ffffff;stroke-linejoin:miter;"/>
   </g>
   <g id="patch_18">
    <path d="M 417.599955 72.07237 
C 417.599962 72.066341 417.599969 72.060313 417.599974 72.054285 
C 417.59998 72.048257 417.599985 72.042228 417.599989 72.0362 
L 360 72 
L 417.599955 72.07237 
z
" style="fill:#a6d854;stroke:#ffffff;stroke-linejoin:miter;"/>
   </g>
   <g id="patch_19">
    <path d="M 417.599989 72.0362 
C 417.599992 72.030172 417.599995 72.024144 417.599997 72.018115 
C 417.599999 72.012087 417.6 72.006059 417.6 72.000031 
L 360 72 
L 417.599989 72.0362 
z
" style="fill:#ffd92f;stroke:#ffffff;stroke-linejoin:miter;"/>
   </g>
  </g>
  <g id="axes_4">
   <g id="patch_20">
    <path d="M 561.6 72 
C 561.6 71.993972 561.599999 71.987944 561.599997 71.981915 
C 561.599995 71.975887 561.599992 71.969859 561.599989 71.963831 
L 504 72 
L 561.6 72 
z
" style="fill:#66c2a5;stroke:#ffffff;stroke-linejoin:miter;"/>
   </g>
   <g id="patch_21">
    <path d="M 561.599989 71.963831 
C 561.599985 71.957802 561.59998 71.951774 561.599974 71.945746 
C 561.599969 71.939718 561.599962 71.933689 561.599955 71.927661 
L 504 72 
L 561.599989 71.963831 
z
" style="fill:#fc8d62;stroke:#ffffff;stroke-linejoin:miter;"/>
   </g>
   <g id="patch_22">
    <path d="M 561.599955 71.927661 
C 561.59046 64.367509 560.092621 56.882665 557.192074 49.901059 
C 554.291528 42.919453 550.044624 36.576723 544.694172 31.235501 
C 539.343719 25.894279 532.993665 21.658334 526.007061 18.769846 
C 519.020457 15.881359 511.533038 14.396447 503.972881 14.400006 
C 496.412723 14.403566 488.926705 15.895528 481.942824 18.790593 
C 474.958943 21.685658 468.612881 25.927581 463.267461 31.273838 
C 457.92204 36.620096 453.681111 42.966822 450.78714 49.951157 
C 447.893168 56.935491 446.402379 64.421742 446.400003 71.9819 
C 446.397627 79.542058 447.883712 87.029245 450.773293 94.015396 
C 453.662874 101.001548 457.899814 107.350938 463.241873 112.700554 
C 468.583933 118.05017 474.927328 122.296081 481.909388 125.195534 
C 488.891448 128.094988 496.376527 129.591654 503.93668 129.599965 
C 511.496834 129.608276 518.985185 128.12807 525.973603 125.243974 
C 532.962021 122.359878 539.314736 118.127925 544.668544 112.790066 
C 550.022352 107.452208 554.273241 101.112149 557.178175 94.132367 
C 560.083109 87.152585 561.585652 79.668684 561.599898 72.108539 
L 504 72 
L 561.599955 71.927661 
z
" style="fill:#8da0cb;stroke:#ffffff;stroke-linejoin:miter;"/>
   </g>
   <g id="patch_23">
    <path d="M 561.599898 72.108539 
C 561.599909 72.102511 561.59992 72.096483 561.599929 72.090454 
C 561.599938 72.084426 561.599947 72.078398 561.599955 72.07237 
L 504 72 
L 561.599898 72.108539 
z
" style="fill:#e78ac3;stroke:#ffffff;stroke-linejoin:miter;"/>
   </g>
   <g id="patch_24">
    <path d="M 561.599955 72.07237 
C 561.599962 72.066341 561.599969 72.060313 561.599974 72.054285 
C 561.59998 72.048257 561.599985 72.042228 561.599989 72.0362 
L 504 72 
L 561.599955 72.07237 
z
" style="fill:#a6d854;stroke:#ffffff;stroke-linejoin:miter;"/>
   </g>
   <g id="patch_25">
    <path d="M 561.599989 72.0362 
C 561.599992 72.030172 561.599995 72.024144 561.599997 72.018115 
C 561.599999 72.012087 561.6 72.006059 561.6 72.000031 
L 504 72 
L 561.599989 72.0362 
z
" style="fill:#ffd92f;stroke:#ffffff;stroke-linejoin:miter;"/>
   </g>
  </g>
  <g id="axes_5">
   <g id="patch_26">
    <path d="M 705.6 72 
C 705.6 71.993972 705.599999 71.987944 705.599997 71.981915 
C 705.599995 71.975887 705.599992 71.969859 705.599989 71.963831 
L 648 72 
L 705.6 72 
z
" style="fill:#66c2a5;stroke:#ffffff;stroke-linejoin:miter;"/>
   </g>
   <g id="patch_27">
    <path d="M 705.599989 71.963831 
C 705.599981 71.951774 705.59997 71.939718 705.599955 71.927661 
C 705.599939 71.915605 705.599921 71.903548 705.599898 71.891492 
L 648 72 
L 705.599989 71.963831 
z
" style="fill:#fc8d62;stroke:#ffffff;stroke-linejoin:miter;"/>
   </g>
   <g id="patch_28">
    <path d="M 705.599898 71.891492 
C 705.585657 64.332108 704.08342 56.848944 701.179056 49.869749 
C 698.274692 42.890554 694.024616 36.550892 688.671768 31.213148 
C 683.31892 25.875404 676.967275 21.643258 669.979901 18.758626 
C 662.992528 15.873994 655.505149 14.392906 647.945755 14.400026 
C 640.386361 14.407145 632.901785 15.902332 625.919857 18.800119 
C 618.937929 21.697907 612.594266 25.942009 607.251482 31.289826 
C 601.908697 36.637643 597.670569 42.985298 594.779356 49.969951 
C 591.888143 56.954604 590.400002 64.440584 590.4 71.999982 
C 590.399998 79.559379 591.888133 87.04536 594.779342 94.030015 
C 597.670551 101.014669 601.908675 107.362328 607.251456 112.710148 
C 612.594237 118.057968 618.937897 122.302074 625.919823 125.199866 
C 632.901749 128.097659 640.386324 129.592851 647.945718 129.599974 
C 655.505112 129.607098 662.992492 128.126016 669.979867 125.241388 
C 676.967243 122.356761 683.318891 118.124619 688.671742 112.786878 
C 694.024593 107.449137 698.274673 101.109478 701.179042 94.130285 
C 704.08341 87.151092 705.585652 79.667929 705.599898 72.108545 
L 648 72 
L 705.599898 71.891492 
z
" style="fill:#8da0cb;stroke:#ffffff;stroke-linejoin:miter;"/>
   </g>
   <g id="patch_29">
    <path d="M 705.599898 72.108545 
C 705.599909 72.102517 705.599919 72.096489 705.599929 72.09046 
C 705.599938 72.084432 705.599947 72.078404 705.599955 72.072376 
L 648 72 
L 705.599898 72.108545 
z
" style="fill:#e78ac3;stroke:#ffffff;stroke-linejoin:miter;"/>
   </g>
   <g id="patch_30">
    <path d="M 705.599955 72.072376 
C 705.599962 72.066347 705.599969 72.060319 705.599974 72.054291 
C 705.59998 72.048263 705.599985 72.042235 705.599989 72.036206 
L 648 72 
L 705.599955 72.072376 
z
" style="fill:#a6d854;stroke:#ffffff;stroke-linejoin:miter;"/>
   </g>
   <g id="patch_31">
    <path d="M 705.599989 72.036206 
C 705.599992 72.030178 705.599995 72.02415 705.599997 72.018122 
C 705.599999 72.012093 705.6 72.006065 705.6 72.000037 
L 648 72 
L 705.599989 72.036206 
z
" style="fill:#ffd92f;stroke:#ffffff;stroke-linejoin:miter;"/>
   </g>
  </g>
  <g id="axes_6"/>
  <g id="axes_7"/>
  <g id="axes_8">
   <g id="patch_32">
    <path d="M 1137.6 72 
C 1137.6 71.993972 1137.599999 71.987944 1137.599997 71.981915 
C 1137.599995 71.975887 1137.599992 71.969859 1137.599989 71.963831 
L 1080 72 
L 1137.6 72 
z
" style="fill:#66c2a5;stroke:#ffffff;stroke-linejoin:miter;"/>
   </g>
   <g id="patch_33">
    <path d="M 1137.599989 71.963831 
C 1137.592092 59.388806 1133.466407 47.155793 1125.856874 37.144483 
C 1118.247342 27.133173 1107.564756 19.884018 1095.450574 16.510904 
C 1083.336391 13.13779 1070.444586 13.82281 1058.756078 18.460708 
C 1047.067571 23.098605 1037.213353 31.439007 1030.707599 42.200348 
L 1080 72 
L 1137.599989 71.963831 
z
" style="fill:#fc8d62;stroke:#ffffff;stroke-linejoin:miter;"/>
   </g>
   <g id="patch_34">
    <path d="M 1030.707599 42.200348 
C 1026.117263 49.793347 1023.342837 58.345303 1022.601439 67.186974 
C 1021.860041 76.028646 1023.171527 84.923216 1026.433267 93.174633 
C 1029.695006 101.42605 1034.819636 108.813306 1041.406123 114.758305 
C 1047.99261 120.703304 1055.864542 125.046814 1064.405892 127.44893 
C 1072.947242 129.851045 1081.929239 130.247428 1090.648987 128.607059 
C 1099.368735 126.966689 1107.592685 123.333503 1114.677262 117.99182 
C 1121.76184 112.650136 1127.517291 105.743026 1131.493219 97.811014 
C 1135.469146 89.879001 1137.559057 81.134537 1137.599404 72.261928 
L 1080 72 
L 1030.707599 42.200348 
z
" style="fill:#8da0cb;stroke:#ffffff;stroke-linejoin:miter;"/>
   </g>
   <g id="patch_35">
    <path d="M 1137.599404 72.261928 
C 1137.599548 72.230328 1137.599666 72.198729 1137.599758 72.167129 
C 1137.599849 72.135529 1137.599915 72.103929 1137.599955 72.07233 
L 1080 72 
L 1137.599404 72.261928 
z
" style="fill:#e78ac3;stroke:#ffffff;stroke-linejoin:miter;"/>
   </g>
   <g id="patch_36">
    <path d="M 1137.599955 72.07233 
C 1137.599962 72.066301 1137.599969 72.060273 1137.599974 72.054245 
C 1137.59998 72.048217 1137.599985 72.042189 1137.599989 72.03616 
L 1080 72 
L 1137.599955 72.07233 
z
" style="fill:#a6d854;stroke:#ffffff;stroke-linejoin:miter;"/>
   </g>
   <g id="patch_37">
    <path d="M 1137.599989 72.03616 
C 1137.599992 72.030132 1137.599995 72.024104 1137.599997 72.018076 
C 1137.599999 72.012047 1137.6 72.006019 1137.6 71.999991 
L 1080 72 
L 1137.599989 72.03616 
z
" style="fill:#ffd92f;stroke:#ffffff;stroke-linejoin:miter;"/>
   </g>
  </g>
  <g id="axes_9">
   <g id="patch_38">
    <path d="M 1281.6 72 
C 1281.6 71.993972 1281.599999 71.987944 1281.599997 71.981915 
C 1281.599995 71.975887 1281.599992 71.969859 1281.599989 71.963831 
L 1224 72 
L 1281.6 72 
z
" style="fill:#66c2a5;stroke:#ffffff;stroke-linejoin:miter;"/>
   </g>
   <g id="patch_39">
    <path d="M 1281.599989 71.963831 
C 1281.590914 57.511735 1276.143019 43.579432 1266.346339 32.954545 
C 1256.54966 22.329659 1243.10427 15.771448 1228.700371 14.592104 
L 1224 72 
L 1281.599989 71.963831 
z
" style="fill:#fc8d62;stroke:#ffffff;stroke-linejoin:miter;"/>
   </g>
   <g id="patch_40">
    <path d="M 1228.700371 14.592104 
C 1222.958221 14.121956 1217.177893 14.515983 1211.552661 15.761012 
C 1205.92743 17.006041 1200.520698 19.088038 1195.513251 21.937388 
C 1190.505803 24.786738 1185.95408 28.371325 1182.010274 32.571293 
C 1178.066469 36.77126 1174.775035 41.53927 1172.246025 46.715894 
C 1169.717015 51.892517 1167.978935 57.419409 1167.089901 63.111768 
C 1166.200868 68.804126 1166.1709 74.597792 1167.001001 80.299042 
C 1167.831102 86.000293 1169.511915 91.544869 1171.987239 96.747377 
C 1174.462563 101.949886 1177.704499 106.751689 1181.604646 110.992229 
C 1185.504792 115.232769 1190.019191 118.86425 1194.996896 121.765248 
C 1199.9746 124.666246 1205.359504 126.804062 1210.971555 128.107215 
C 1216.583606 129.410369 1222.35955 129.864171 1228.106256 129.453448 
C 1233.852962 129.042725 1239.505659 127.772106 1244.875339 125.684078 
C 1250.245019 123.596049 1255.271159 120.714145 1259.785701 117.134727 
C 1264.300244 113.555309 1268.252304 109.318721 1271.509738 104.566621 
C 1274.767171 99.814522 1277.293264 94.600472 1279.00355 89.098814 
C 1280.713837 83.597155 1281.589041 77.869898 1281.599898 72.108544 
L 1224 72 
L 1228.700371 14.592104 
z
" style="fill:#8da0cb;stroke:#ffffff;stroke-linejoin:miter;"/>
   </g>
   <g id="patch_41">
    <path d="M 1281.599898 72.108544 
C 1281.599909 72.102515 1281.59992 72.096487 1281.599929 72.090459 
C 1281.599938 72.084431 1281.599947 72.078402 1281.599955 72.072374 
L 1224 72 
L 1281.599898 72.108544 
z
" style="fill:#e78ac3;stroke:#ffffff;stroke-linejoin:miter;"/>
   </g>
   <g id="patch_42">
    <path d="M 1281.599955 72.072374 
C 1281.599962 72.066346 1281.599969 72.060318 1281.599974 72.05429 
C 1281.59998 72.048261 1281.599985 72.042233 1281.599989 72.036205 
L 1224 72 
L 1281.599955 72.072374 
z
" style="fill:#a6d854;stroke:#ffffff;stroke-linejoin:miter;"/>
   </g>
   <g id="patch_43">
    <path d="M 1281.599989 72.036205 
C 1281.599992 72.030177 1281.599995 72.024148 1281.599997 72.01812 
C 1281.599999 72.012092 1281.6 72.006064 1281.6 72.000035 
L 1224 72 
L 1281.599989 72.036205 
z
" style="fill:#ffd92f;stroke:#ffffff;stroke-linejoin:miter;"/>
   </g>
  </g>
  <g id="axes_10">
   <g id="patch_44">
    <path d="M 1425.6 72 
C 1425.6 71.993972 1425.599999 71.987944 1425.599997 71.981915 
C 1425.599995 71.975887 1425.599992 71.969859 1425.599989 71.963831 
L 1368 72 
L 1425.6 72 
z
" style="fill:#66c2a5;stroke:#ffffff;stroke-linejoin:miter;"/>
   </g>
   <g id="patch_45">
    <path d="M 1425.599989 71.963831 
C 1425.599981 71.951775 1425.59997 71.939719 1425.599955 71.927663 
C 1425.599939 71.915607 1425.599921 71.903551 1425.599898 71.891495 
L 1368 72 
L 1425.599989 71.963831 
z
" style="fill:#fc8d62;stroke:#ffffff;stroke-linejoin:miter;"/>
   </g>
   <g id="patch_46">
    <path d="M 1425.599898 71.891495 
C 1425.585658 64.33211 1424.08342 56.848945 1421.179056 49.86975 
C 1418.274692 42.890554 1414.024615 36.550891 1408.671767 31.213147 
C 1403.318918 25.875402 1396.967272 21.643256 1389.979897 18.758624 
C 1382.992523 15.873992 1375.505143 14.392906 1367.945748 14.400026 
C 1360.386353 14.407146 1352.901776 15.902334 1345.919848 18.800123 
C 1338.93792 21.697913 1332.594257 25.942016 1327.251473 31.289835 
C 1321.908689 36.637653 1317.670562 42.985311 1314.77935 49.969965 
C 1311.888138 56.95462 1310.4 64.440601 1310.4 72 
C 1310.4 79.559398 1311.888138 87.04538 1314.77935 94.030034 
C 1317.670562 101.014688 1321.908689 107.362346 1327.251472 112.710165 
C 1332.594256 118.057983 1338.937919 122.302087 1345.919847 125.199876 
C 1352.901775 128.097666 1360.386352 129.592854 1367.945747 129.599974 
C 1375.505142 129.607095 1382.992522 128.126008 1389.979896 125.241376 
C 1396.967271 122.356744 1403.318918 118.124598 1408.671766 112.786854 
C 1414.024615 107.449109 1418.274692 101.109447 1421.179056 94.130251 
C 1424.08342 87.151056 1425.585658 79.66789 1425.599898 72.108506 
L 1368 72 
L 1425.599898 71.891495 
z
" style="fill:#8da0cb;stroke:#ffffff;stroke-linejoin:miter;"/>
   </g>
   <g id="patch_47">
    <path d="M 1425.599898 72.108506 
C 1425.599909 72.102477 1425.59992 72.096449 1425.599929 72.090421 
C 1425.599938 72.084393 1425.599947 72.078364 1425.599955 72.072336 
L 1368 72 
L 1425.599898 72.108506 
z
" style="fill:#e78ac3;stroke:#ffffff;stroke-linejoin:miter;"/>
   </g>
   <g id="patch_48">
    <path d="M 1425.599955 72.072336 
C 1425.599962 72.066308 1425.599969 72.06028 1425.599974 72.054251 
C 1425.59998 72.048223 1425.599985 72.042195 1425.599989 72.036167 
L 1368 72 
L 1425.599955 72.072336 
z
" style="fill:#a6d854;stroke:#ffffff;stroke-linejoin:miter;"/>
   </g>
   <g id="patch_49">
    <path d="M 1425.599989 72.036167 
C 1425.599992 72.030138 1425.599995 72.02411 1425.599997 72.018082 
C 1425.599999 72.012054 1425.6 72.006026 1425.6 71.999997 
L 1368 72 
L 1425.599989 72.036167 
z
" style="fill:#ffd92f;stroke:#ffffff;stroke-linejoin:miter;"/>
   </g>
  </g>
  <g id="axes_11">
   <g id="patch_50">
    <path d="M 1569.6 72 
C 1569.6 71.993972 1569.599999 71.987944 1569.599997 71.981915 
C 1569.599995 71.975887 1569.599992 71.969859 1569.599989 71.963831 
L 1512 72 
L 1569.6 72 
z
" style="fill:#66c2a5;stroke:#ffffff;stroke-linejoin:miter;"/>
   </g>
   <g id="patch_51">
    <path d="M 1569.599989 71.963831 
C 1569.59997 71.933697 1569.599927 71.903563 1569.599861 71.873429 
C 1569.599795 71.843295 1569.599705 71.813161 1569.599591 71.783027 
L 1512 72 
L 1569.599989 71.963831 
z
" style="fill:#fc8d62;stroke:#ffffff;stroke-linejoin:miter;"/>
   </g>
   <g id="patch_52">
    <path d="M 1569.599591 71.783027 
C 1569.571125 64.225965 1568.055705 56.747854 1565.139905 49.775902 
C 1562.224104 42.80395 1557.964526 36.473498 1552.604509 31.146189 
C 1547.244491 25.81888 1540.888085 21.598129 1533.898416 18.725059 
C 1526.908747 15.851988 1519.421501 14.38237 1511.864406 14.40016 
C 1504.30731 14.41795 1496.827066 15.922802 1489.851002 18.82875 
C 1482.874937 21.734697 1476.538473 25.985327 1471.203597 31.337813 
C 1465.86872 36.690298 1461.638994 43.040735 1458.756051 50.026337 
C 1455.873107 57.01194 1454.392912 64.497103 1454.400026 72.054216 
C 1454.407139 79.611328 1455.901422 87.093691 1458.79751 94.073854 
C 1461.693598 101.054018 1465.935272 107.396481 1471.280215 112.738914 
C 1476.625158 118.081347 1482.969612 122.320042 1489.951135 125.212851 
C 1496.932657 128.105661 1504.415721 129.59643 1511.972837 129.599994 
C 1519.529952 129.603557 1527.014419 128.119847 1533.998666 125.233624 
C 1540.982914 122.3474 1547.331364 118.114691 1552.681343 112.777301 
C 1558.031322 107.439912 1562.278977 101.101452 1565.181647 94.124024 
C 1568.084317 87.146595 1569.585657 79.665645 1569.599898 72.108542 
L 1512 72 
L 1569.599591 71.783027 
z
" style="fill:#8da0cb;stroke:#ffffff;stroke-linejoin:miter;"/>
   </g>
   <g id="patch_53">
    <path d="M 1569.599898 72.108542 
C 1569.599909 72.102514 1569.59992 72.096486 1569.599929 72.090457 
C 1569.599938 72.084429 1569.599947 72.078401 1569.599955 72.072373 
L 1512 72 
L 1569.599898 72.108542 
z
" style="fill:#e78ac3;stroke:#ffffff;stroke-linejoin:miter;"/>
   </g>
   <g id="patch_54">
    <path d="M 1569.599955 72.072373 
C 1569.599962 72.066345 1569.599969 72.060316 1569.599974 72.054288 
C 1569.59998 72.04826 1569.599985 72.042232 1569.599989 72.036203 
L 1512 72 
L 1569.599955 72.072373 
z
" style="fill:#a6d854;stroke:#ffffff;stroke-linejoin:miter;"/>
   </g>
   <g id="patch_55">
    <path d="M 1569.599989 72.036203 
C 1569.599992 72.030175 1569.599995 72.024147 1569.599997 72.018119 
C 1569.599999 72.01209 1569.6 72.006062 1569.6 72.000034 
L 1512 72 
L 1569.599989 72.036203 
z
" style="fill:#ffd92f;stroke:#ffffff;stroke-linejoin:miter;"/>
   </g>
  </g>
  <g id="axes_12">
   <g id="patch_56">
    <path d="M 1713.6 72 
C 1713.6 71.993972 1713.599999 71.987944 1713.599997 71.981915 
C 1713.599995 71.975887 1713.599992 71.969859 1713.599989 71.963831 
L 1656 72 
L 1713.6 72 
z
" style="fill:#66c2a5;stroke:#ffffff;stroke-linejoin:miter;"/>
   </g>
   <g id="patch_57">
    <path d="M 1713.599989 71.963831 
C 1713.599977 71.945748 1713.599957 71.927666 1713.599929 71.909584 
C 1713.599901 71.891501 1713.599864 71.873419 1713.599818 71.855337 
L 1656 72 
L 1713.599989 71.963831 
z
" style="fill:#fc8d62;stroke:#ffffff;stroke-linejoin:miter;"/>
   </g>
   <g id="patch_58">
    <path d="M 1713.599818 71.855337 
C 1713.580835 64.296724 1712.074202 56.815241 1709.166024 49.838459 
C 1706.257846 42.861676 1702.0046 36.525083 1696.64936 31.190816 
C 1691.294121 25.856549 1684.940886 21.628201 1677.952745 18.747423 
C 1670.964605 15.866645 1663.477268 14.389381 1655.918639 14.400057 
C 1648.360009 14.410734 1640.876876 15.909144 1633.896901 18.809653 
C 1626.916927 21.710162 1620.575663 25.956441 1615.235514 31.305815 
C 1609.895365 36.655189 1605.660037 43.003773 1602.771581 49.988744 
C 1599.883124 56.973714 1598.397633 64.459423 1598.400003 72.01806 
C 1598.402373 79.576696 1599.892558 87.061472 1602.785394 94.04463 
C 1605.67823 101.027788 1609.917538 107.373714 1615.26104 112.719739 
C 1620.604542 118.065763 1626.948468 122.308066 1633.93026 125.204197 
C 1640.912051 128.100328 1648.396123 129.594045 1655.954758 129.599982 
C 1663.513392 129.605919 1670.999801 128.123961 1677.986134 125.238801 
C 1684.972467 122.353641 1691.323049 118.12131 1696.674943 112.783686 
C 1702.026836 107.446062 1706.276108 101.106803 1709.17991 94.128198 
C 1712.083713 87.149593 1713.585654 79.667168 1713.599898 72.108544 
L 1656 72 
L 1713.599818 71.855337 
z
" style="fill:#8da0cb;stroke:#ffffff;stroke-linejoin:miter;"/>
   </g>
   <g id="patch_59">
    <path d="M 1713.599898 72.108544 
C 1713.599909 72.102516 1713.59992 72.096488 1713.599929 72.090459 
C 1713.599938 72.084431 1713.599947 72.078403 1713.599955 72.072375 
L 1656 72 
L 1713.599898 72.108544 
z
" style="fill:#e78ac3;stroke:#ffffff;stroke-linejoin:miter;"/>
   </g>
   <g id="patch_60">
    <path d="M 1713.599955 72.072375 
C 1713.599962 72.066347 1713.599969 72.060318 1713.599974 72.05429 
C 1713.59998 72.048262 1713.599985 72.042234 1713.599989 72.036205 
L 1656 72 
L 1713.599955 72.072375 
z
" style="fill:#a6d854;stroke:#ffffff;stroke-linejoin:miter;"/>
   </g>
   <g id="patch_61">
    <path d="M 1713.599989 72.036205 
C 1713.599992 72.030177 1713.599995 72.024149 1713.599997 72.018121 
C 1713.599999 72.012092 1713.6 72.006064 1713.6 72.000036 
L 1656 72 
L 1713.599989 72.036205 
z
" style="fill:#ffd92f;stroke:#ffffff;stroke-linejoin:miter;"/>
   </g>
  </g>
  <g id="text_1">
   <!-- ONN4MST Layer-2 -->
   <defs>
    <path d="M 42.484375 60.59375 
Q 33.890625 60.59375 29.15625 54.25 
Q 24.421875 47.90625 24.421875 36.375 
Q 24.421875 24.90625 29.15625 18.546875 
Q 33.890625 12.203125 42.484375 12.203125 
Q 51.125 12.203125 55.859375 18.546875 
Q 60.59375 24.90625 60.59375 36.375 
Q 60.59375 47.90625 55.859375 54.25 
Q 51.125 60.59375 42.484375 60.59375 
z
M 42.484375 74.21875 
Q 60.0625 74.21875 70.015625 64.15625 
Q 79.984375 54.109375 79.984375 36.375 
Q 79.984375 18.703125 70.015625 8.640625 
Q 60.0625 -1.421875 42.484375 -1.421875 
Q 24.953125 -1.421875 14.96875 8.640625 
Q 4.984375 18.703125 4.984375 36.375 
Q 4.984375 54.109375 14.96875 64.15625 
Q 24.953125 74.21875 42.484375 74.21875 
z
" id="DejaVuSans-Bold-79"/>
    <path d="M 9.1875 72.90625 
L 30.171875 72.90625 
L 56.6875 22.90625 
L 56.6875 72.90625 
L 74.515625 72.90625 
L 74.515625 0 
L 53.515625 0 
L 27 50 
L 27 0 
L 9.1875 0 
z
" id="DejaVuSans-Bold-78"/>
    <path d="M 36.8125 57.421875 
L 16.21875 26.90625 
L 36.8125 26.90625 
z
M 33.6875 72.90625 
L 54.59375 72.90625 
L 54.59375 26.90625 
L 64.984375 26.90625 
L 64.984375 13.28125 
L 54.59375 13.28125 
L 54.59375 0 
L 36.8125 0 
L 36.8125 13.28125 
L 4.5 13.28125 
L 4.5 29.390625 
z
" id="DejaVuSans-Bold-52"/>
    <path d="M 9.1875 72.90625 
L 33.109375 72.90625 
L 49.703125 33.890625 
L 66.40625 72.90625 
L 90.28125 72.90625 
L 90.28125 0 
L 72.515625 0 
L 72.515625 53.328125 
L 55.71875 14.015625 
L 43.796875 14.015625 
L 27 53.328125 
L 27 0 
L 9.1875 0 
z
" id="DejaVuSans-Bold-77"/>
    <path d="M 59.90625 70.609375 
L 59.90625 55.171875 
Q 53.90625 57.859375 48.1875 59.21875 
Q 42.484375 60.59375 37.40625 60.59375 
Q 30.671875 60.59375 27.4375 58.734375 
Q 24.21875 56.890625 24.21875 52.984375 
Q 24.21875 50.046875 26.390625 48.40625 
Q 28.5625 46.78125 34.28125 45.609375 
L 42.28125 44 
Q 54.4375 41.546875 59.5625 36.5625 
Q 64.703125 31.59375 64.703125 22.40625 
Q 64.703125 10.359375 57.546875 4.46875 
Q 50.390625 -1.421875 35.6875 -1.421875 
Q 28.765625 -1.421875 21.78125 -0.09375 
Q 14.796875 1.21875 7.8125 3.8125 
L 7.8125 19.671875 
Q 14.796875 15.96875 21.3125 14.078125 
Q 27.828125 12.203125 33.890625 12.203125 
Q 40.046875 12.203125 43.3125 14.25 
Q 46.578125 16.3125 46.578125 20.125 
Q 46.578125 23.53125 44.359375 25.390625 
Q 42.140625 27.25 35.5 28.71875 
L 28.21875 30.328125 
Q 17.28125 32.671875 12.21875 37.796875 
Q 7.171875 42.921875 7.171875 51.609375 
Q 7.171875 62.5 14.203125 68.359375 
Q 21.234375 74.21875 34.421875 74.21875 
Q 40.4375 74.21875 46.78125 73.3125 
Q 53.125 72.40625 59.90625 70.609375 
z
" id="DejaVuSans-Bold-83"/>
    <path d="M 0.484375 72.90625 
L 67.671875 72.90625 
L 67.671875 58.6875 
L 43.5 58.6875 
L 43.5 0 
L 24.703125 0 
L 24.703125 58.6875 
L 0.484375 58.6875 
z
" id="DejaVuSans-Bold-84"/>
    <path id="DejaVuSans-Bold-32"/>
    <path d="M 9.1875 72.90625 
L 27.984375 72.90625 
L 27.984375 14.203125 
L 60.984375 14.203125 
L 60.984375 0 
L 9.1875 0 
z
" id="DejaVuSans-Bold-76"/>
    <path d="M 32.90625 24.609375 
Q 27.4375 24.609375 24.671875 22.75 
Q 21.921875 20.90625 21.921875 17.28125 
Q 21.921875 13.96875 24.140625 12.078125 
Q 26.375 10.203125 30.328125 10.203125 
Q 35.25 10.203125 38.625 13.734375 
Q 42 17.28125 42 22.609375 
L 42 24.609375 
z
M 59.625 31.203125 
L 59.625 0 
L 42 0 
L 42 8.109375 
Q 38.484375 3.125 34.078125 0.84375 
Q 29.6875 -1.421875 23.390625 -1.421875 
Q 14.890625 -1.421875 9.59375 3.53125 
Q 4.296875 8.5 4.296875 16.40625 
Q 4.296875 26.03125 10.90625 30.515625 
Q 17.53125 35.015625 31.6875 35.015625 
L 42 35.015625 
L 42 36.375 
Q 42 40.53125 38.71875 42.453125 
Q 35.453125 44.390625 28.515625 44.390625 
Q 22.90625 44.390625 18.0625 43.265625 
Q 13.234375 42.140625 9.078125 39.890625 
L 9.078125 53.21875 
Q 14.703125 54.59375 20.359375 55.296875 
Q 26.03125 56 31.6875 56 
Q 46.484375 56 53.046875 50.171875 
Q 59.625 44.34375 59.625 31.203125 
z
" id="DejaVuSans-Bold-97"/>
    <path d="M 1.21875 54.6875 
L 18.703125 54.6875 
L 33.40625 17.578125 
L 45.90625 54.6875 
L 63.375 54.6875 
L 40.375 -5.171875 
Q 36.921875 -14.3125 32.296875 -17.9375 
Q 27.6875 -21.578125 20.125 -21.578125 
L 10.015625 -21.578125 
L 10.015625 -10.109375 
L 15.484375 -10.109375 
Q 19.921875 -10.109375 21.9375 -8.6875 
Q 23.96875 -7.28125 25.09375 -3.609375 
L 25.59375 -2.09375 
z
" id="DejaVuSans-Bold-121"/>
    <path d="M 62.984375 27.484375 
L 62.984375 22.515625 
L 22.125 22.515625 
Q 22.75 16.359375 26.5625 13.28125 
Q 30.375 10.203125 37.203125 10.203125 
Q 42.71875 10.203125 48.5 11.84375 
Q 54.296875 13.484375 60.40625 16.796875 
L 60.40625 3.328125 
Q 54.203125 0.984375 48 -0.21875 
Q 41.796875 -1.421875 35.59375 -1.421875 
Q 20.75 -1.421875 12.515625 6.125 
Q 4.296875 13.671875 4.296875 27.296875 
Q 4.296875 40.671875 12.375 48.328125 
Q 20.453125 56 34.625 56 
Q 47.515625 56 55.25 48.234375 
Q 62.984375 40.484375 62.984375 27.484375 
z
M 45.015625 33.296875 
Q 45.015625 38.28125 42.109375 41.328125 
Q 39.203125 44.390625 34.515625 44.390625 
Q 29.4375 44.390625 26.265625 41.53125 
Q 23.09375 38.671875 22.3125 33.296875 
z
" id="DejaVuSans-Bold-101"/>
    <path d="M 49.03125 39.796875 
Q 46.734375 40.875 44.453125 41.375 
Q 42.1875 41.890625 39.890625 41.890625 
Q 33.15625 41.890625 29.515625 37.5625 
Q 25.875 33.25 25.875 25.203125 
L 25.875 0 
L 8.40625 0 
L 8.40625 54.6875 
L 25.875 54.6875 
L 25.875 45.703125 
Q 29.25 51.078125 33.609375 53.53125 
Q 37.984375 56 44.09375 56 
Q 44.96875 56 45.984375 55.921875 
Q 47.015625 55.859375 48.96875 55.609375 
z
" id="DejaVuSans-Bold-114"/>
    <path d="M 5.421875 35.890625 
L 36.078125 35.890625 
L 36.078125 21.6875 
L 5.421875 21.6875 
z
" id="DejaVuSans-Bold-45"/>
    <path d="M 28.8125 13.8125 
L 60.890625 13.8125 
L 60.890625 0 
L 7.90625 0 
L 7.90625 13.8125 
L 34.515625 37.3125 
Q 38.09375 40.53125 39.796875 43.609375 
Q 41.5 46.6875 41.5 50 
Q 41.5 55.125 38.0625 58.25 
Q 34.625 61.375 28.90625 61.375 
Q 24.515625 61.375 19.28125 59.5 
Q 14.0625 57.625 8.109375 53.90625 
L 8.109375 69.921875 
Q 14.453125 72.015625 20.65625 73.109375 
Q 26.859375 74.21875 32.8125 74.21875 
Q 45.90625 74.21875 53.15625 68.453125 
Q 60.40625 62.703125 60.40625 52.390625 
Q 60.40625 46.4375 57.328125 41.28125 
Q 54.25 36.140625 44.390625 27.484375 
z
" id="DejaVuSans-Bold-50"/>
   </defs>
   <g style="fill:#262626;" transform="translate(787.648828 17.040469)scale(0.15 -0.15)">
    <use xlink:href="#DejaVuSans-Bold-79"/>
    <use x="85.009766" xlink:href="#DejaVuSans-Bold-78"/>
    <use x="168.701172" xlink:href="#DejaVuSans-Bold-78"/>
    <use x="252.392578" xlink:href="#DejaVuSans-Bold-52"/>
    <use x="321.972656" xlink:href="#DejaVuSans-Bold-77"/>
    <use x="421.484375" xlink:href="#DejaVuSans-Bold-83"/>
    <use x="493.505859" xlink:href="#DejaVuSans-Bold-84"/>
    <use x="561.71875" xlink:href="#DejaVuSans-Bold-32"/>
    <use x="596.533203" xlink:href="#DejaVuSans-Bold-76"/>
    <use x="660.253906" xlink:href="#DejaVuSans-Bold-97"/>
    <use x="724.609375" xlink:href="#DejaVuSans-Bold-121"/>
    <use x="789.794922" xlink:href="#DejaVuSans-Bold-101"/>
    <use x="857.617188" xlink:href="#DejaVuSans-Bold-114"/>
    <use x="906.933594" xlink:href="#DejaVuSans-Bold-45"/>
    <use x="948.4375" xlink:href="#DejaVuSans-Bold-50"/>
   </g>
  </g>
  <g id="legend_1">
   <g id="patch_62">
    <path d="M 770.12 146.405625 
L 928.685313 146.405625 
Q 931.485313 146.405625 931.485313 143.605625 
L 931.485313 21.32 
Q 931.485313 18.52 928.685313 18.52 
L 770.12 18.52 
Q 767.32 18.52 767.32 21.32 
L 767.32 143.605625 
Q 767.32 146.405625 770.12 146.405625 
z
" style="fill:none;opacity:0;"/>
   </g>
   <g id="patch_63">
    <path d="M 772.92 34.757812 
L 800.92 34.757812 
L 800.92 24.957812 
L 772.92 24.957812 
z
" style="fill:#66c2a5;stroke:#ffffff;stroke-linejoin:miter;"/>
   </g>
   <g id="text_2">
    <!-- Engineered -->
    <defs>
     <path d="M 9.8125 72.90625 
L 55.90625 72.90625 
L 55.90625 64.59375 
L 19.671875 64.59375 
L 19.671875 43.015625 
L 54.390625 43.015625 
L 54.390625 34.71875 
L 19.671875 34.71875 
L 19.671875 8.296875 
L 56.78125 8.296875 
L 56.78125 0 
L 9.8125 0 
z
" id="DejaVuSans-69"/>
     <path d="M 54.890625 33.015625 
L 54.890625 0 
L 45.90625 0 
L 45.90625 32.71875 
Q 45.90625 40.484375 42.875 44.328125 
Q 39.84375 48.1875 33.796875 48.1875 
Q 26.515625 48.1875 22.3125 43.546875 
Q 18.109375 38.921875 18.109375 30.90625 
L 18.109375 0 
L 9.078125 0 
L 9.078125 54.6875 
L 18.109375 54.6875 
L 18.109375 46.1875 
Q 21.34375 51.125 25.703125 53.5625 
Q 30.078125 56 35.796875 56 
Q 45.21875 56 50.046875 50.171875 
Q 54.890625 44.34375 54.890625 33.015625 
z
" id="DejaVuSans-110"/>
     <path d="M 45.40625 27.984375 
Q 45.40625 37.75 41.375 43.109375 
Q 37.359375 48.484375 30.078125 48.484375 
Q 22.859375 48.484375 18.828125 43.109375 
Q 14.796875 37.75 14.796875 27.984375 
Q 14.796875 18.265625 18.828125 12.890625 
Q 22.859375 7.515625 30.078125 7.515625 
Q 37.359375 7.515625 41.375 12.890625 
Q 45.40625 18.265625 45.40625 27.984375 
z
M 54.390625 6.78125 
Q 54.390625 -7.171875 48.1875 -13.984375 
Q 42 -20.796875 29.203125 -20.796875 
Q 24.46875 -20.796875 20.265625 -20.09375 
Q 16.0625 -19.390625 12.109375 -17.921875 
L 12.109375 -9.1875 
Q 16.0625 -11.328125 19.921875 -12.34375 
Q 23.78125 -13.375 27.78125 -13.375 
Q 36.625 -13.375 41.015625 -8.765625 
Q 45.40625 -4.15625 45.40625 5.171875 
L 45.40625 9.625 
Q 42.625 4.78125 38.28125 2.390625 
Q 33.9375 0 27.875 0 
Q 17.828125 0 11.671875 7.65625 
Q 5.515625 15.328125 5.515625 27.984375 
Q 5.515625 40.671875 11.671875 48.328125 
Q 17.828125 56 27.875 56 
Q 33.9375 56 38.28125 53.609375 
Q 42.625 51.21875 45.40625 46.390625 
L 45.40625 54.6875 
L 54.390625 54.6875 
z
" id="DejaVuSans-103"/>
     <path d="M 9.421875 54.6875 
L 18.40625 54.6875 
L 18.40625 0 
L 9.421875 0 
z
M 9.421875 75.984375 
L 18.40625 75.984375 
L 18.40625 64.59375 
L 9.421875 64.59375 
z
" id="DejaVuSans-105"/>
     <path d="M 56.203125 29.59375 
L 56.203125 25.203125 
L 14.890625 25.203125 
Q 15.484375 15.921875 20.484375 11.0625 
Q 25.484375 6.203125 34.421875 6.203125 
Q 39.59375 6.203125 44.453125 7.46875 
Q 49.3125 8.734375 54.109375 11.28125 
L 54.109375 2.78125 
Q 49.265625 0.734375 44.1875 -0.34375 
Q 39.109375 -1.421875 33.890625 -1.421875 
Q 20.796875 -1.421875 13.15625 6.1875 
Q 5.515625 13.8125 5.515625 26.8125 
Q 5.515625 40.234375 12.765625 48.109375 
Q 20.015625 56 32.328125 56 
Q 43.359375 56 49.78125 48.890625 
Q 56.203125 41.796875 56.203125 29.59375 
z
M 47.21875 32.234375 
Q 47.125 39.59375 43.09375 43.984375 
Q 39.0625 48.390625 32.421875 48.390625 
Q 24.90625 48.390625 20.390625 44.140625 
Q 15.875 39.890625 15.1875 32.171875 
z
" id="DejaVuSans-101"/>
     <path d="M 41.109375 46.296875 
Q 39.59375 47.171875 37.8125 47.578125 
Q 36.03125 48 33.890625 48 
Q 26.265625 48 22.1875 43.046875 
Q 18.109375 38.09375 18.109375 28.8125 
L 18.109375 0 
L 9.078125 0 
L 9.078125 54.6875 
L 18.109375 54.6875 
L 18.109375 46.1875 
Q 20.953125 51.171875 25.484375 53.578125 
Q 30.03125 56 36.53125 56 
Q 37.453125 56 38.578125 55.875 
Q 39.703125 55.765625 41.0625 55.515625 
z
" id="DejaVuSans-114"/>
     <path d="M 45.40625 46.390625 
L 45.40625 75.984375 
L 54.390625 75.984375 
L 54.390625 0 
L 45.40625 0 
L 45.40625 8.203125 
Q 42.578125 3.328125 38.25 0.953125 
Q 33.9375 -1.421875 27.875 -1.421875 
Q 17.96875 -1.421875 11.734375 6.484375 
Q 5.515625 14.40625 5.515625 27.296875 
Q 5.515625 40.1875 11.734375 48.09375 
Q 17.96875 56 27.875 56 
Q 33.9375 56 38.25 53.625 
Q 42.578125 51.265625 45.40625 46.390625 
z
M 14.796875 27.296875 
Q 14.796875 17.390625 18.875 11.75 
Q 22.953125 6.109375 30.078125 6.109375 
Q 37.203125 6.109375 41.296875 11.75 
Q 45.40625 17.390625 45.40625 27.296875 
Q 45.40625 37.203125 41.296875 42.84375 
Q 37.203125 48.484375 30.078125 48.484375 
Q 22.953125 48.484375 18.875 42.84375 
Q 14.796875 37.203125 14.796875 27.296875 
z
" id="DejaVuSans-100"/>
    </defs>
    <g style="fill:#262626;" transform="translate(812.12 34.757812)scale(0.14 -0.14)">
     <use xlink:href="#DejaVuSans-69"/>
     <use x="63.183594" xlink:href="#DejaVuSans-110"/>
     <use x="126.5625" xlink:href="#DejaVuSans-103"/>
     <use x="190.039062" xlink:href="#DejaVuSans-105"/>
     <use x="217.822266" xlink:href="#DejaVuSans-110"/>
     <use x="281.201172" xlink:href="#DejaVuSans-101"/>
     <use x="342.724609" xlink:href="#DejaVuSans-101"/>
     <use x="404.248047" xlink:href="#DejaVuSans-114"/>
     <use x="443.111328" xlink:href="#DejaVuSans-101"/>
     <use x="504.634766" xlink:href="#DejaVuSans-100"/>
    </g>
   </g>
   <g id="patch_64">
    <path d="M 772.92 55.307187 
L 800.92 55.307187 
L 800.92 45.507188 
L 772.92 45.507188 
z
" style="fill:#fc8d62;stroke:#ffffff;stroke-linejoin:miter;"/>
   </g>
   <g id="text_3">
    <!-- Environmental -->
    <defs>
     <path d="M 2.984375 54.6875 
L 12.5 54.6875 
L 29.59375 8.796875 
L 46.6875 54.6875 
L 56.203125 54.6875 
L 35.6875 0 
L 23.484375 0 
z
" id="DejaVuSans-118"/>
     <path d="M 30.609375 48.390625 
Q 23.390625 48.390625 19.1875 42.75 
Q 14.984375 37.109375 14.984375 27.296875 
Q 14.984375 17.484375 19.15625 11.84375 
Q 23.34375 6.203125 30.609375 6.203125 
Q 37.796875 6.203125 41.984375 11.859375 
Q 46.1875 17.53125 46.1875 27.296875 
Q 46.1875 37.015625 41.984375 42.703125 
Q 37.796875 48.390625 30.609375 48.390625 
z
M 30.609375 56 
Q 42.328125 56 49.015625 48.375 
Q 55.71875 40.765625 55.71875 27.296875 
Q 55.71875 13.875 49.015625 6.21875 
Q 42.328125 -1.421875 30.609375 -1.421875 
Q 18.84375 -1.421875 12.171875 6.21875 
Q 5.515625 13.875 5.515625 27.296875 
Q 5.515625 40.765625 12.171875 48.375 
Q 18.84375 56 30.609375 56 
z
" id="DejaVuSans-111"/>
     <path d="M 52 44.1875 
Q 55.375 50.25 60.0625 53.125 
Q 64.75 56 71.09375 56 
Q 79.640625 56 84.28125 50.015625 
Q 88.921875 44.046875 88.921875 33.015625 
L 88.921875 0 
L 79.890625 0 
L 79.890625 32.71875 
Q 79.890625 40.578125 77.09375 44.375 
Q 74.3125 48.1875 68.609375 48.1875 
Q 61.625 48.1875 57.5625 43.546875 
Q 53.515625 38.921875 53.515625 30.90625 
L 53.515625 0 
L 44.484375 0 
L 44.484375 32.71875 
Q 44.484375 40.625 41.703125 44.40625 
Q 38.921875 48.1875 33.109375 48.1875 
Q 26.21875 48.1875 22.15625 43.53125 
Q 18.109375 38.875 18.109375 30.90625 
L 18.109375 0 
L 9.078125 0 
L 9.078125 54.6875 
L 18.109375 54.6875 
L 18.109375 46.1875 
Q 21.1875 51.21875 25.484375 53.609375 
Q 29.78125 56 35.6875 56 
Q 41.65625 56 45.828125 52.96875 
Q 50 49.953125 52 44.1875 
z
" id="DejaVuSans-109"/>
     <path d="M 18.3125 70.21875 
L 18.3125 54.6875 
L 36.8125 54.6875 
L 36.8125 47.703125 
L 18.3125 47.703125 
L 18.3125 18.015625 
Q 18.3125 11.328125 20.140625 9.421875 
Q 21.96875 7.515625 27.59375 7.515625 
L 36.8125 7.515625 
L 36.8125 0 
L 27.59375 0 
Q 17.1875 0 13.234375 3.875 
Q 9.28125 7.765625 9.28125 18.015625 
L 9.28125 47.703125 
L 2.6875 47.703125 
L 2.6875 54.6875 
L 9.28125 54.6875 
L 9.28125 70.21875 
z
" id="DejaVuSans-116"/>
     <path d="M 34.28125 27.484375 
Q 23.390625 27.484375 19.1875 25 
Q 14.984375 22.515625 14.984375 16.5 
Q 14.984375 11.71875 18.140625 8.90625 
Q 21.296875 6.109375 26.703125 6.109375 
Q 34.1875 6.109375 38.703125 11.40625 
Q 43.21875 16.703125 43.21875 25.484375 
L 43.21875 27.484375 
z
M 52.203125 31.203125 
L 52.203125 0 
L 43.21875 0 
L 43.21875 8.296875 
Q 40.140625 3.328125 35.546875 0.953125 
Q 30.953125 -1.421875 24.3125 -1.421875 
Q 15.921875 -1.421875 10.953125 3.296875 
Q 6 8.015625 6 15.921875 
Q 6 25.140625 12.171875 29.828125 
Q 18.359375 34.515625 30.609375 34.515625 
L 43.21875 34.515625 
L 43.21875 35.40625 
Q 43.21875 41.609375 39.140625 45 
Q 35.0625 48.390625 27.6875 48.390625 
Q 23 48.390625 18.546875 47.265625 
Q 14.109375 46.140625 10.015625 43.890625 
L 10.015625 52.203125 
Q 14.9375 54.109375 19.578125 55.046875 
Q 24.21875 56 28.609375 56 
Q 40.484375 56 46.34375 49.84375 
Q 52.203125 43.703125 52.203125 31.203125 
z
" id="DejaVuSans-97"/>
     <path d="M 9.421875 75.984375 
L 18.40625 75.984375 
L 18.40625 0 
L 9.421875 0 
z
" id="DejaVuSans-108"/>
    </defs>
    <g style="fill:#262626;" transform="translate(812.12 55.307187)scale(0.14 -0.14)">
     <use xlink:href="#DejaVuSans-69"/>
     <use x="63.183594" xlink:href="#DejaVuSans-110"/>
     <use x="126.5625" xlink:href="#DejaVuSans-118"/>
     <use x="185.742188" xlink:href="#DejaVuSans-105"/>
     <use x="213.525391" xlink:href="#DejaVuSans-114"/>
     <use x="252.388672" xlink:href="#DejaVuSans-111"/>
     <use x="313.570312" xlink:href="#DejaVuSans-110"/>
     <use x="376.949219" xlink:href="#DejaVuSans-109"/>
     <use x="474.361328" xlink:href="#DejaVuSans-101"/>
     <use x="535.884766" xlink:href="#DejaVuSans-110"/>
     <use x="599.263672" xlink:href="#DejaVuSans-116"/>
     <use x="638.472656" xlink:href="#DejaVuSans-97"/>
     <use x="699.751953" xlink:href="#DejaVuSans-108"/>
    </g>
   </g>
   <g id="patch_65">
    <path d="M 772.92 75.856562 
L 800.92 75.856562 
L 800.92 66.056562 
L 772.92 66.056562 
z
" style="fill:#8da0cb;stroke:#ffffff;stroke-linejoin:miter;"/>
   </g>
   <g id="text_4">
    <!-- Host_associated -->
    <defs>
     <path d="M 9.8125 72.90625 
L 19.671875 72.90625 
L 19.671875 43.015625 
L 55.515625 43.015625 
L 55.515625 72.90625 
L 65.375 72.90625 
L 65.375 0 
L 55.515625 0 
L 55.515625 34.71875 
L 19.671875 34.71875 
L 19.671875 0 
L 9.8125 0 
z
" id="DejaVuSans-72"/>
     <path d="M 44.28125 53.078125 
L 44.28125 44.578125 
Q 40.484375 46.53125 36.375 47.5 
Q 32.28125 48.484375 27.875 48.484375 
Q 21.1875 48.484375 17.84375 46.4375 
Q 14.5 44.390625 14.5 40.28125 
Q 14.5 37.15625 16.890625 35.375 
Q 19.28125 33.59375 26.515625 31.984375 
L 29.59375 31.296875 
Q 39.15625 29.25 43.1875 25.515625 
Q 47.21875 21.78125 47.21875 15.09375 
Q 47.21875 7.46875 41.1875 3.015625 
Q 35.15625 -1.421875 24.609375 -1.421875 
Q 20.21875 -1.421875 15.453125 -0.5625 
Q 10.6875 0.296875 5.421875 2 
L 5.421875 11.28125 
Q 10.40625 8.6875 15.234375 7.390625 
Q 20.0625 6.109375 24.8125 6.109375 
Q 31.15625 6.109375 34.5625 8.28125 
Q 37.984375 10.453125 37.984375 14.40625 
Q 37.984375 18.0625 35.515625 20.015625 
Q 33.0625 21.96875 24.703125 23.78125 
L 21.578125 24.515625 
Q 13.234375 26.265625 9.515625 29.90625 
Q 5.8125 33.546875 5.8125 39.890625 
Q 5.8125 47.609375 11.28125 51.796875 
Q 16.75 56 26.8125 56 
Q 31.78125 56 36.171875 55.265625 
Q 40.578125 54.546875 44.28125 53.078125 
z
" id="DejaVuSans-115"/>
     <path d="M 50.984375 -16.609375 
L 50.984375 -23.578125 
L -0.984375 -23.578125 
L -0.984375 -16.609375 
z
" id="DejaVuSans-95"/>
     <path d="M 48.78125 52.59375 
L 48.78125 44.1875 
Q 44.96875 46.296875 41.140625 47.34375 
Q 37.3125 48.390625 33.40625 48.390625 
Q 24.65625 48.390625 19.8125 42.84375 
Q 14.984375 37.3125 14.984375 27.296875 
Q 14.984375 17.28125 19.8125 11.734375 
Q 24.65625 6.203125 33.40625 6.203125 
Q 37.3125 6.203125 41.140625 7.25 
Q 44.96875 8.296875 48.78125 10.40625 
L 48.78125 2.09375 
Q 45.015625 0.34375 40.984375 -0.53125 
Q 36.96875 -1.421875 32.421875 -1.421875 
Q 20.0625 -1.421875 12.78125 6.34375 
Q 5.515625 14.109375 5.515625 27.296875 
Q 5.515625 40.671875 12.859375 48.328125 
Q 20.21875 56 33.015625 56 
Q 37.15625 56 41.109375 55.140625 
Q 45.0625 54.296875 48.78125 52.59375 
z
" id="DejaVuSans-99"/>
    </defs>
    <g style="fill:#262626;" transform="translate(812.12 75.856562)scale(0.14 -0.14)">
     <use xlink:href="#DejaVuSans-72"/>
     <use x="75.195312" xlink:href="#DejaVuSans-111"/>
     <use x="136.376953" xlink:href="#DejaVuSans-115"/>
     <use x="188.476562" xlink:href="#DejaVuSans-116"/>
     <use x="227.685547" xlink:href="#DejaVuSans-95"/>
     <use x="277.685547" xlink:href="#DejaVuSans-97"/>
     <use x="338.964844" xlink:href="#DejaVuSans-115"/>
     <use x="391.064453" xlink:href="#DejaVuSans-115"/>
     <use x="443.164062" xlink:href="#DejaVuSans-111"/>
     <use x="504.345703" xlink:href="#DejaVuSans-99"/>
     <use x="559.326172" xlink:href="#DejaVuSans-105"/>
     <use x="587.109375" xlink:href="#DejaVuSans-97"/>
     <use x="648.388672" xlink:href="#DejaVuSans-116"/>
     <use x="687.597656" xlink:href="#DejaVuSans-101"/>
     <use x="749.121094" xlink:href="#DejaVuSans-100"/>
    </g>
   </g>
   <g id="patch_66">
    <path d="M 772.92 96.795312 
L 800.92 96.795312 
L 800.92 86.995312 
L 772.92 86.995312 
z
" style="fill:#e78ac3;stroke:#ffffff;stroke-linejoin:miter;"/>
   </g>
   <g id="text_5">
    <!-- Mixed -->
    <defs>
     <path d="M 9.8125 72.90625 
L 24.515625 72.90625 
L 43.109375 23.296875 
L 61.8125 72.90625 
L 76.515625 72.90625 
L 76.515625 0 
L 66.890625 0 
L 66.890625 64.015625 
L 48.09375 14.015625 
L 38.1875 14.015625 
L 19.390625 64.015625 
L 19.390625 0 
L 9.8125 0 
z
" id="DejaVuSans-77"/>
     <path d="M 54.890625 54.6875 
L 35.109375 28.078125 
L 55.90625 0 
L 45.3125 0 
L 29.390625 21.484375 
L 13.484375 0 
L 2.875 0 
L 24.125 28.609375 
L 4.6875 54.6875 
L 15.28125 54.6875 
L 29.78125 35.203125 
L 44.28125 54.6875 
z
" id="DejaVuSans-120"/>
    </defs>
    <g style="fill:#262626;" transform="translate(812.12 96.795312)scale(0.14 -0.14)">
     <use xlink:href="#DejaVuSans-77"/>
     <use x="86.279297" xlink:href="#DejaVuSans-105"/>
     <use x="114.0625" xlink:href="#DejaVuSans-120"/>
     <use x="170.117188" xlink:href="#DejaVuSans-101"/>
     <use x="231.640625" xlink:href="#DejaVuSans-100"/>
    </g>
   </g>
   <g id="patch_67">
    <path d="M 772.92 117.344687 
L 800.92 117.344687 
L 800.92 107.544687 
L 772.92 107.544687 
z
" style="fill:#a6d854;stroke:#ffffff;stroke-linejoin:miter;"/>
   </g>
   <g id="text_6">
    <!-- Others -->
    <defs>
     <path d="M 39.40625 66.21875 
Q 28.65625 66.21875 22.328125 58.203125 
Q 16.015625 50.203125 16.015625 36.375 
Q 16.015625 22.609375 22.328125 14.59375 
Q 28.65625 6.59375 39.40625 6.59375 
Q 50.140625 6.59375 56.421875 14.59375 
Q 62.703125 22.609375 62.703125 36.375 
Q 62.703125 50.203125 56.421875 58.203125 
Q 50.140625 66.21875 39.40625 66.21875 
z
M 39.40625 74.21875 
Q 54.734375 74.21875 63.90625 63.9375 
Q 73.09375 53.65625 73.09375 36.375 
Q 73.09375 19.140625 63.90625 8.859375 
Q 54.734375 -1.421875 39.40625 -1.421875 
Q 24.03125 -1.421875 14.8125 8.828125 
Q 5.609375 19.09375 5.609375 36.375 
Q 5.609375 53.65625 14.8125 63.9375 
Q 24.03125 74.21875 39.40625 74.21875 
z
" id="DejaVuSans-79"/>
     <path d="M 54.890625 33.015625 
L 54.890625 0 
L 45.90625 0 
L 45.90625 32.71875 
Q 45.90625 40.484375 42.875 44.328125 
Q 39.84375 48.1875 33.796875 48.1875 
Q 26.515625 48.1875 22.3125 43.546875 
Q 18.109375 38.921875 18.109375 30.90625 
L 18.109375 0 
L 9.078125 0 
L 9.078125 75.984375 
L 18.109375 75.984375 
L 18.109375 46.1875 
Q 21.34375 51.125 25.703125 53.5625 
Q 30.078125 56 35.796875 56 
Q 45.21875 56 50.046875 50.171875 
Q 54.890625 44.34375 54.890625 33.015625 
z
" id="DejaVuSans-104"/>
    </defs>
    <g style="fill:#262626;" transform="translate(812.12 117.344687)scale(0.14 -0.14)">
     <use xlink:href="#DejaVuSans-79"/>
     <use x="78.710938" xlink:href="#DejaVuSans-116"/>
     <use x="117.919922" xlink:href="#DejaVuSans-104"/>
     <use x="181.298828" xlink:href="#DejaVuSans-101"/>
     <use x="242.822266" xlink:href="#DejaVuSans-114"/>
     <use x="283.935547" xlink:href="#DejaVuSans-115"/>
    </g>
   </g>
   <g id="patch_68">
    <path d="M 772.92 137.894062 
L 800.92 137.894062 
L 800.92 128.094062 
L 772.92 128.094062 
z
" style="fill:#ffd92f;stroke:#ffffff;stroke-linejoin:miter;"/>
   </g>
   <g id="text_7">
    <!-- Unknown -->
    <defs>
     <path d="M 8.6875 72.90625 
L 18.609375 72.90625 
L 18.609375 28.609375 
Q 18.609375 16.890625 22.84375 11.734375 
Q 27.09375 6.59375 36.625 6.59375 
Q 46.09375 6.59375 50.34375 11.734375 
Q 54.59375 16.890625 54.59375 28.609375 
L 54.59375 72.90625 
L 64.5 72.90625 
L 64.5 27.390625 
Q 64.5 13.140625 57.4375 5.859375 
Q 50.390625 -1.421875 36.625 -1.421875 
Q 22.796875 -1.421875 15.734375 5.859375 
Q 8.6875 13.140625 8.6875 27.390625 
z
" id="DejaVuSans-85"/>
     <path d="M 9.078125 75.984375 
L 18.109375 75.984375 
L 18.109375 31.109375 
L 44.921875 54.6875 
L 56.390625 54.6875 
L 27.390625 29.109375 
L 57.625 0 
L 45.90625 0 
L 18.109375 26.703125 
L 18.109375 0 
L 9.078125 0 
z
" id="DejaVuSans-107"/>
     <path d="M 4.203125 54.6875 
L 13.1875 54.6875 
L 24.421875 12.015625 
L 35.59375 54.6875 
L 46.1875 54.6875 
L 57.421875 12.015625 
L 68.609375 54.6875 
L 77.59375 54.6875 
L 63.28125 0 
L 52.6875 0 
L 40.921875 44.828125 
L 29.109375 0 
L 18.5 0 
z
" id="DejaVuSans-119"/>
    </defs>
    <g style="fill:#262626;" transform="translate(812.12 137.894062)scale(0.14 -0.14)">
     <use xlink:href="#DejaVuSans-85"/>
     <use x="73.193359" xlink:href="#DejaVuSans-110"/>
     <use x="136.572266" xlink:href="#DejaVuSans-107"/>
     <use x="194.482422" xlink:href="#DejaVuSans-110"/>
     <use x="257.861328" xlink:href="#DejaVuSans-111"/>
     <use x="319.042969" xlink:href="#DejaVuSans-119"/>
     <use x="400.830078" xlink:href="#DejaVuSans-110"/>
    </g>
   </g>
  </g>
 </g>
</svg>
