<?xml version="1.0" encoding="utf-8" standalone="no"?>
<!DOCTYPE svg PUBLIC "-//W3C//DTD SVG 1.1//EN"
  "http://www.w3.org/Graphics/SVG/1.1/DTD/svg11.dtd">
<!-- Created with matplotlib (https://matplotlib.org/) -->
<svg height="144pt" version="1.1" viewBox="0 0 1584 144" width="1584pt" xmlns="http://www.w3.org/2000/svg" xmlns:xlink="http://www.w3.org/1999/xlink">
 <defs>
  <style type="text/css">
*{stroke-linecap:butt;stroke-linejoin:round;}
  </style>
 </defs>
 <g id="figure_1">
  <g id="patch_1">
   <path d="M 0 144 
L 1584 144 
L 1584 0 
L 0 0 
z
" style="fill:#ffffff;"/>
  </g>
  <g id="axes_1">
   <g id="matplotlib.axis_1"/>
   <g id="matplotlib.axis_2"/>
   <g id="patch_2">
    <path d="M 121.836755 76.107692 
C 121.836755 69.789417 120.474149 63.544823 117.842102 57.800875 
C 115.210056 52.056928 111.369957 46.947594 106.584367 42.822217 
C 101.798778 38.696841 96.179312 35.651638 90.110194 33.894821 
C 84.041076 32.138005 77.663855 31.710548 71.414568 32.641678 
C 65.16528 33.572808 59.189677 35.840809 53.896333 39.290608 
C 48.60299 42.740406 44.115362 47.291544 40.740286 52.632842 
C 37.36521 57.97414 35.181403 63.981023 34.33818 70.242778 
C 33.494958 76.504533 34.011985 82.875117 35.853912 88.918949 
L 77.890909 76.107692 
L 121.836755 76.107692 
z
" style="fill:#66c2a5;stroke:#ffffff;stroke-linejoin:miter;"/>
   </g>
   <g id="patch_3">
    <path d="M 35.853912 88.918949 
C 38.744288 98.40301 44.760887 106.635397 52.919384 112.269279 
C 61.07788 117.90316 70.907697 120.613578 80.800661 119.957102 
C 90.693624 119.300627 100.079114 115.315123 107.42165 108.652627 
C 114.764185 101.99013 119.640253 93.034929 121.252121 83.252109 
L 77.890909 76.107692 
L 35.853912 88.918949 
z
" style="fill:#fc8d62;stroke:#ffffff;stroke-linejoin:miter;"/>
   </g>
   <g id="patch_4">
    <path d="M 121.252121 83.252109 
C 121.444348 82.085438 121.589411 80.911484 121.686956 79.733114 
C 121.784501 78.554743 121.834449 77.372916 121.836677 76.190517 
L 77.890909 76.107692 
L 121.252121 83.252109 
z
" style="fill:#8da0cb;stroke:#ffffff;stroke-linejoin:miter;"/>
   </g>
   <g id="patch_5">
    <path d="M 121.836677 76.190517 
C 121.836686 76.185917 121.836694 76.181317 121.836701 76.176717 
C 121.836708 76.172117 121.836715 76.167517 121.836721 76.162916 
L 77.890909 76.107692 
L 121.836677 76.190517 
z
" style="fill:#e78ac3;stroke:#ffffff;stroke-linejoin:miter;"/>
   </g>
   <g id="patch_6">
    <path d="M 121.836721 76.162916 
C 121.836726 76.158316 121.836731 76.153716 121.836736 76.149116 
C 121.83674 76.144516 121.836744 76.139916 121.836747 76.135315 
L 77.890909 76.107692 
L 121.836721 76.162916 
z
" style="fill:#a6d854;stroke:#ffffff;stroke-linejoin:miter;"/>
   </g>
   <g id="patch_7">
    <path d="M 121.836747 76.135315 
C 121.836749 76.130715 121.836752 76.126115 121.836753 76.121515 
C 121.836755 76.116915 121.836755 76.112315 121.836755 76.107714 
L 77.890909 76.107692 
L 121.836747 76.135315 
z
" style="fill:#ffd92f;stroke:#ffffff;stroke-linejoin:miter;"/>
   </g>
   <g id="text_1">
    <!-- Forehead_1 -->
    <defs>
     <path d="M 9.8125 72.90625 
L 51.703125 72.90625 
L 51.703125 64.59375 
L 19.671875 64.59375 
L 19.671875 43.109375 
L 48.578125 43.109375 
L 48.578125 34.8125 
L 19.671875 34.8125 
L 19.671875 0 
L 9.8125 0 
z
" id="DejaVuSans-70"/>
     <path d="M 30.609375 48.390625 
Q 23.390625 48.390625 19.1875 42.75 
Q 14.984375 37.109375 14.984375 27.296875 
Q 14.984375 17.484375 19.15625 11.84375 
Q 23.34375 6.203125 30.609375 6.203125 
Q 37.796875 6.203125 41.984375 11.859375 
Q 46.1875 17.53125 46.1875 27.296875 
Q 46.1875 37.015625 41.984375 42.703125 
Q 37.796875 48.390625 30.609375 48.390625 
z
M 30.609375 56 
Q 42.328125 56 49.015625 48.375 
Q 55.71875 40.765625 55.71875 27.296875 
Q 55.71875 13.875 49.015625 6.21875 
Q 42.328125 -1.421875 30.609375 -1.421875 
Q 18.84375 -1.421875 12.171875 6.21875 
Q 5.515625 13.875 5.515625 27.296875 
Q 5.515625 40.765625 12.171875 48.375 
Q 18.84375 56 30.609375 56 
z
" id="DejaVuSans-111"/>
     <path d="M 41.109375 46.296875 
Q 39.59375 47.171875 37.8125 47.578125 
Q 36.03125 48 33.890625 48 
Q 26.265625 48 22.1875 43.046875 
Q 18.109375 38.09375 18.109375 28.8125 
L 18.109375 0 
L 9.078125 0 
L 9.078125 54.6875 
L 18.109375 54.6875 
L 18.109375 46.1875 
Q 20.953125 51.171875 25.484375 53.578125 
Q 30.03125 56 36.53125 56 
Q 37.453125 56 38.578125 55.875 
Q 39.703125 55.765625 41.0625 55.515625 
z
" id="DejaVuSans-114"/>
     <path d="M 56.203125 29.59375 
L 56.203125 25.203125 
L 14.890625 25.203125 
Q 15.484375 15.921875 20.484375 11.0625 
Q 25.484375 6.203125 34.421875 6.203125 
Q 39.59375 6.203125 44.453125 7.46875 
Q 49.3125 8.734375 54.109375 11.28125 
L 54.109375 2.78125 
Q 49.265625 0.734375 44.1875 -0.34375 
Q 39.109375 -1.421875 33.890625 -1.421875 
Q 20.796875 -1.421875 13.15625 6.1875 
Q 5.515625 13.8125 5.515625 26.8125 
Q 5.515625 40.234375 12.765625 48.109375 
Q 20.015625 56 32.328125 56 
Q 43.359375 56 49.78125 48.890625 
Q 56.203125 41.796875 56.203125 29.59375 
z
M 47.21875 32.234375 
Q 47.125 39.59375 43.09375 43.984375 
Q 39.0625 48.390625 32.421875 48.390625 
Q 24.90625 48.390625 20.390625 44.140625 
Q 15.875 39.890625 15.1875 32.171875 
z
" id="DejaVuSans-101"/>
     <path d="M 54.890625 33.015625 
L 54.890625 0 
L 45.90625 0 
L 45.90625 32.71875 
Q 45.90625 40.484375 42.875 44.328125 
Q 39.84375 48.1875 33.796875 48.1875 
Q 26.515625 48.1875 22.3125 43.546875 
Q 18.109375 38.921875 18.109375 30.90625 
L 18.109375 0 
L 9.078125 0 
L 9.078125 75.984375 
L 18.109375 75.984375 
L 18.109375 46.1875 
Q 21.34375 51.125 25.703125 53.5625 
Q 30.078125 56 35.796875 56 
Q 45.21875 56 50.046875 50.171875 
Q 54.890625 44.34375 54.890625 33.015625 
z
" id="DejaVuSans-104"/>
     <path d="M 34.28125 27.484375 
Q 23.390625 27.484375 19.1875 25 
Q 14.984375 22.515625 14.984375 16.5 
Q 14.984375 11.71875 18.140625 8.90625 
Q 21.296875 6.109375 26.703125 6.109375 
Q 34.1875 6.109375 38.703125 11.40625 
Q 43.21875 16.703125 43.21875 25.484375 
L 43.21875 27.484375 
z
M 52.203125 31.203125 
L 52.203125 0 
L 43.21875 0 
L 43.21875 8.296875 
Q 40.140625 3.328125 35.546875 0.953125 
Q 30.953125 -1.421875 24.3125 -1.421875 
Q 15.921875 -1.421875 10.953125 3.296875 
Q 6 8.015625 6 15.921875 
Q 6 25.140625 12.171875 29.828125 
Q 18.359375 34.515625 30.609375 34.515625 
L 43.21875 34.515625 
L 43.21875 35.40625 
Q 43.21875 41.609375 39.140625 45 
Q 35.0625 48.390625 27.6875 48.390625 
Q 23 48.390625 18.546875 47.265625 
Q 14.109375 46.140625 10.015625 43.890625 
L 10.015625 52.203125 
Q 14.9375 54.109375 19.578125 55.046875 
Q 24.21875 56 28.609375 56 
Q 40.484375 56 46.34375 49.84375 
Q 52.203125 43.703125 52.203125 31.203125 
z
" id="DejaVuSans-97"/>
     <path d="M 45.40625 46.390625 
L 45.40625 75.984375 
L 54.390625 75.984375 
L 54.390625 0 
L 45.40625 0 
L 45.40625 8.203125 
Q 42.578125 3.328125 38.25 0.953125 
Q 33.9375 -1.421875 27.875 -1.421875 
Q 17.96875 -1.421875 11.734375 6.484375 
Q 5.515625 14.40625 5.515625 27.296875 
Q 5.515625 40.1875 11.734375 48.09375 
Q 17.96875 56 27.875 56 
Q 33.9375 56 38.25 53.625 
Q 42.578125 51.265625 45.40625 46.390625 
z
M 14.796875 27.296875 
Q 14.796875 17.390625 18.875 11.75 
Q 22.953125 6.109375 30.078125 6.109375 
Q 37.203125 6.109375 41.296875 11.75 
Q 45.40625 17.390625 45.40625 27.296875 
Q 45.40625 37.203125 41.296875 42.84375 
Q 37.203125 48.484375 30.078125 48.484375 
Q 22.953125 48.484375 18.875 42.84375 
Q 14.796875 37.203125 14.796875 27.296875 
z
" id="DejaVuSans-100"/>
     <path d="M 50.984375 -16.609375 
L 50.984375 -23.578125 
L -0.984375 -23.578125 
L -0.984375 -16.609375 
z
" id="DejaVuSans-95"/>
     <path d="M 12.40625 8.296875 
L 28.515625 8.296875 
L 28.515625 63.921875 
L 10.984375 60.40625 
L 10.984375 69.390625 
L 28.421875 72.90625 
L 38.28125 72.90625 
L 38.28125 8.296875 
L 54.390625 8.296875 
L 54.390625 0 
L 12.40625 0 
z
" id="DejaVuSans-49"/>
    </defs>
    <g style="fill:#262626;" transform="translate(43.164972 15.175385)scale(0.12 -0.12)">
     <use xlink:href="#DejaVuSans-70"/>
     <use x="53.894531" xlink:href="#DejaVuSans-111"/>
     <use x="115.076172" xlink:href="#DejaVuSans-114"/>
     <use x="153.939453" xlink:href="#DejaVuSans-101"/>
     <use x="215.462891" xlink:href="#DejaVuSans-104"/>
     <use x="278.841797" xlink:href="#DejaVuSans-101"/>
     <use x="340.365234" xlink:href="#DejaVuSans-97"/>
     <use x="401.644531" xlink:href="#DejaVuSans-100"/>
     <use x="465.121094" xlink:href="#DejaVuSans-95"/>
     <use x="515.121094" xlink:href="#DejaVuSans-49"/>
    </g>
   </g>
  </g>
  <g id="axes_2">
   <g id="matplotlib.axis_3"/>
   <g id="matplotlib.axis_4"/>
   <g id="patch_8">
    <path d="M 264.658573 76.107692 
C 264.658573 70.455206 263.568006 64.855446 261.44679 59.616072 
C 259.325573 54.376698 256.21328 49.595454 252.280905 45.535032 
C 248.34853 41.47461 243.669435 38.210759 238.500698 35.922801 
C 233.33196 33.634843 227.770007 32.365461 222.120421 32.184398 
C 216.470836 32.003335 210.839015 32.913968 205.534382 34.866266 
C 200.229749 36.818564 195.351265 39.776105 191.166963 43.576396 
C 186.982661 47.376688 183.570602 51.948833 181.11825 57.041629 
C 178.665899 62.134425 177.219005 67.652863 176.857065 73.293749 
C 176.495125 78.934635 177.22489 84.592736 179.006265 89.957183 
C 180.787641 95.321631 183.587394 100.292349 187.251702 104.596237 
C 190.916009 108.900124 195.376511 112.45689 200.388139 115.071117 
C 205.399767 117.685345 210.869025 119.308265 216.495423 119.850712 
C 222.12182 120.393158 227.800393 119.84501 233.21915 118.236385 
C 238.637907 116.627761 243.695757 113.988668 248.114813 110.464105 
C 252.533869 106.939542 256.23169 102.595261 259.005111 97.669946 
C 261.778532 92.74463 263.575813 87.330164 264.298208 81.72403 
L 220.712727 76.107692 
L 264.658573 76.107692 
z
" style="fill:#66c2a5;stroke:#ffffff;stroke-linejoin:miter;"/>
   </g>
   <g id="patch_9">
    <path d="M 264.298208 81.72403 
C 264.334666 81.4411 264.368368 81.157822 264.399309 80.874236 
C 264.430251 80.59065 264.45843 80.306769 264.483844 80.022634 
L 220.712727 76.107692 
L 264.298208 81.72403 
z
" style="fill:#fc8d62;stroke:#ffffff;stroke-linejoin:miter;"/>
   </g>
   <g id="patch_10">
    <path d="M 264.483844 80.022634 
C 264.540821 79.385602 264.583884 78.747402 264.613003 78.10849 
C 264.642122 77.469578 264.65729 76.830106 264.658495 76.190532 
L 220.712727 76.107692 
L 264.483844 80.022634 
z
" style="fill:#8da0cb;stroke:#ffffff;stroke-linejoin:miter;"/>
   </g>
   <g id="patch_11">
    <path d="M 264.658495 76.190532 
C 264.658504 76.185931 264.658512 76.18133 264.658519 76.176729 
C 264.658526 76.172128 264.658533 76.167527 264.658539 76.162926 
L 220.712727 76.107692 
L 264.658495 76.190532 
z
" style="fill:#e78ac3;stroke:#ffffff;stroke-linejoin:miter;"/>
   </g>
   <g id="patch_12">
    <path d="M 264.658539 76.162926 
C 264.658544 76.158325 264.65855 76.153724 264.658554 76.149123 
C 264.658558 76.144521 264.658562 76.13992 264.658565 76.135319 
L 220.712727 76.107692 
L 264.658539 76.162926 
z
" style="fill:#a6d854;stroke:#ffffff;stroke-linejoin:miter;"/>
   </g>
   <g id="patch_13">
    <path d="M 264.658565 76.135319 
C 264.658568 76.130718 264.65857 76.126117 264.658571 76.121516 
C 264.658573 76.116915 264.658573 76.112314 264.658573 76.107713 
L 220.712727 76.107692 
L 264.658565 76.135319 
z
" style="fill:#ffd92f;stroke:#ffffff;stroke-linejoin:miter;"/>
   </g>
   <g id="text_2">
    <!-- Forehead_2 -->
    <defs>
     <path d="M 19.1875 8.296875 
L 53.609375 8.296875 
L 53.609375 0 
L 7.328125 0 
L 7.328125 8.296875 
Q 12.9375 14.109375 22.625 23.890625 
Q 32.328125 33.6875 34.8125 36.53125 
Q 39.546875 41.84375 41.421875 45.53125 
Q 43.3125 49.21875 43.3125 52.78125 
Q 43.3125 58.59375 39.234375 62.25 
Q 35.15625 65.921875 28.609375 65.921875 
Q 23.96875 65.921875 18.8125 64.3125 
Q 13.671875 62.703125 7.8125 59.421875 
L 7.8125 69.390625 
Q 13.765625 71.78125 18.9375 73 
Q 24.125 74.21875 28.421875 74.21875 
Q 39.75 74.21875 46.484375 68.546875 
Q 53.21875 62.890625 53.21875 53.421875 
Q 53.21875 48.921875 51.53125 44.890625 
Q 49.859375 40.875 45.40625 35.40625 
Q 44.1875 33.984375 37.640625 27.21875 
Q 31.109375 20.453125 19.1875 8.296875 
z
" id="DejaVuSans-50"/>
    </defs>
    <g style="fill:#262626;" transform="translate(185.98679 15.175385)scale(0.12 -0.12)">
     <use xlink:href="#DejaVuSans-70"/>
     <use x="53.894531" xlink:href="#DejaVuSans-111"/>
     <use x="115.076172" xlink:href="#DejaVuSans-114"/>
     <use x="153.939453" xlink:href="#DejaVuSans-101"/>
     <use x="215.462891" xlink:href="#DejaVuSans-104"/>
     <use x="278.841797" xlink:href="#DejaVuSans-101"/>
     <use x="340.365234" xlink:href="#DejaVuSans-97"/>
     <use x="401.644531" xlink:href="#DejaVuSans-100"/>
     <use x="465.121094" xlink:href="#DejaVuSans-95"/>
     <use x="515.121094" xlink:href="#DejaVuSans-50"/>
    </g>
   </g>
  </g>
  <g id="axes_3">
   <g id="matplotlib.axis_5"/>
   <g id="matplotlib.axis_6"/>
   <g id="patch_14">
    <path d="M 407.480392 76.107692 
C 407.480392 71.53142 406.765571 66.983105 405.361815 62.627449 
C 403.958058 58.271794 401.882518 54.162016 399.210352 50.446939 
L 363.534545 76.107692 
L 407.480392 76.107692 
z
" style="fill:#66c2a5;stroke:#ffffff;stroke-linejoin:miter;"/>
   </g>
   <g id="patch_15">
    <path d="M 399.210352 50.446939 
C 399.170068 50.390934 399.129653 50.335023 399.089106 50.279207 
C 399.048559 50.223392 399.00788 50.167672 398.967071 50.112048 
L 363.534545 76.107692 
L 399.210352 50.446939 
z
" style="fill:#fc8d62;stroke:#ffffff;stroke-linejoin:miter;"/>
   </g>
   <g id="patch_16">
    <path d="M 398.967071 50.112048 
C 395.900148 45.931778 392.117513 42.327046 387.794457 39.464902 
C 383.471402 36.602758 378.675754 34.528107 373.62975 33.337092 
C 368.583746 32.146077 363.366555 31.857383 358.219951 32.48439 
C 353.073346 33.111397 348.078076 34.644267 343.465627 37.011965 
C 338.853178 39.379662 334.695919 42.545039 331.186502 46.361408 
C 327.677085 50.177776 324.870571 54.585258 322.897019 59.379606 
C 320.923468 64.173953 319.813842 69.279945 319.619563 74.460961 
C 319.425285 79.641978 320.149402 84.816731 321.758357 89.745416 
C 323.367313 94.674101 325.835864 99.279389 329.049614 103.347863 
C 332.263364 107.416338 336.171891 110.884167 340.594067 113.590647 
C 345.016244 116.297126 349.882688 118.199792 354.967882 119.210473 
C 360.053076 120.221153 365.277236 120.323991 370.398266 119.514221 
C 375.519296 118.704451 380.456849 116.994777 384.982113 114.464429 
C 389.507377 111.934081 393.549352 108.622758 396.920726 104.683912 
C 400.292101 100.745066 402.93998 96.240496 404.741658 91.378949 
C 406.543335 86.517403 407.470543 81.375156 407.480314 76.190507 
L 363.534545 76.107692 
L 398.967071 50.112048 
z
" style="fill:#8da0cb;stroke:#ffffff;stroke-linejoin:miter;"/>
   </g>
   <g id="patch_17">
    <path d="M 407.480314 76.190507 
C 407.480322 76.185908 407.48033 76.181309 407.480337 76.17671 
C 407.480345 76.17211 407.480351 76.167511 407.480357 76.162912 
L 363.534545 76.107692 
L 407.480314 76.190507 
z
" style="fill:#e78ac3;stroke:#ffffff;stroke-linejoin:miter;"/>
   </g>
   <g id="patch_18">
    <path d="M 407.480357 76.162912 
C 407.480363 76.158313 407.480368 76.153713 407.480372 76.149114 
C 407.480376 76.144515 407.48038 76.139916 407.480383 76.135317 
L 363.534545 76.107692 
L 407.480357 76.162912 
z
" style="fill:#a6d854;stroke:#ffffff;stroke-linejoin:miter;"/>
   </g>
   <g id="patch_19">
    <path d="M 407.480383 76.135317 
C 407.480386 76.130717 407.480388 76.126118 407.480389 76.121519 
C 407.480391 76.11692 407.480392 76.11232 407.480392 76.107721 
L 363.534545 76.107692 
L 407.480383 76.135317 
z
" style="fill:#ffd92f;stroke:#ffffff;stroke-linejoin:miter;"/>
   </g>
   <g id="text_3">
    <!-- Mouth_1 -->
    <defs>
     <path d="M 9.8125 72.90625 
L 24.515625 72.90625 
L 43.109375 23.296875 
L 61.8125 72.90625 
L 76.515625 72.90625 
L 76.515625 0 
L 66.890625 0 
L 66.890625 64.015625 
L 48.09375 14.015625 
L 38.1875 14.015625 
L 19.390625 64.015625 
L 19.390625 0 
L 9.8125 0 
z
" id="DejaVuSans-77"/>
     <path d="M 8.5 21.578125 
L 8.5 54.6875 
L 17.484375 54.6875 
L 17.484375 21.921875 
Q 17.484375 14.15625 20.5 10.265625 
Q 23.53125 6.390625 29.59375 6.390625 
Q 36.859375 6.390625 41.078125 11.03125 
Q 45.3125 15.671875 45.3125 23.6875 
L 45.3125 54.6875 
L 54.296875 54.6875 
L 54.296875 0 
L 45.3125 0 
L 45.3125 8.40625 
Q 42.046875 3.421875 37.71875 1 
Q 33.40625 -1.421875 27.6875 -1.421875 
Q 18.265625 -1.421875 13.375 4.4375 
Q 8.5 10.296875 8.5 21.578125 
z
M 31.109375 56 
z
" id="DejaVuSans-117"/>
     <path d="M 18.3125 70.21875 
L 18.3125 54.6875 
L 36.8125 54.6875 
L 36.8125 47.703125 
L 18.3125 47.703125 
L 18.3125 18.015625 
Q 18.3125 11.328125 20.140625 9.421875 
Q 21.96875 7.515625 27.59375 7.515625 
L 36.8125 7.515625 
L 36.8125 0 
L 27.59375 0 
Q 17.1875 0 13.234375 3.875 
Q 9.28125 7.765625 9.28125 18.015625 
L 9.28125 47.703125 
L 2.6875 47.703125 
L 2.6875 54.6875 
L 9.28125 54.6875 
L 9.28125 70.21875 
z
" id="DejaVuSans-116"/>
    </defs>
    <g style="fill:#262626;" transform="translate(337.911733 15.175385)scale(0.12 -0.12)">
     <use xlink:href="#DejaVuSans-77"/>
     <use x="86.279297" xlink:href="#DejaVuSans-111"/>
     <use x="147.460938" xlink:href="#DejaVuSans-117"/>
     <use x="210.839844" xlink:href="#DejaVuSans-116"/>
     <use x="250.048828" xlink:href="#DejaVuSans-104"/>
     <use x="313.427734" xlink:href="#DejaVuSans-95"/>
     <use x="363.427734" xlink:href="#DejaVuSans-49"/>
    </g>
   </g>
  </g>
  <g id="axes_4">
   <g id="matplotlib.axis_7"/>
   <g id="matplotlib.axis_8"/>
   <g id="patch_20">
    <path d="M 550.30221 76.107692 
C 550.30221 76.103093 550.302209 76.098494 550.302208 76.093895 
C 550.302206 76.089295 550.302204 76.084696 550.302201 76.080097 
L 506.356364 76.107692 
L 550.30221 76.107692 
z
" style="fill:#66c2a5;stroke:#ffffff;stroke-linejoin:miter;"/>
   </g>
   <g id="patch_21">
    <path d="M 550.302201 76.080097 
C 550.296798 67.475856 547.764551 59.059747 543.021173 51.881072 
C 538.277796 44.702397 531.528968 39.072434 523.616119 35.693113 
C 515.703269 32.313791 506.969509 31.331645 498.503746 32.869124 
C 490.037982 34.406603 482.207301 38.397042 475.988014 44.34292 
C 469.768727 50.288799 465.430512 57.932296 463.514246 66.320438 
C 461.59798 74.70858 462.186757 83.477645 465.207168 91.534327 
C 468.227578 99.591008 473.548655 106.585957 480.506977 111.647059 
C 487.465299 116.708161 495.759145 119.61596 504.354456 120.007917 
L 506.356364 76.107692 
L 550.302201 76.080097 
z
" style="fill:#fc8d62;stroke:#ffffff;stroke-linejoin:miter;"/>
   </g>
   <g id="patch_22">
    <path d="M 504.354456 120.007917 
C 510.280773 120.278165 516.200908 119.345599 521.757157 117.266567 
C 527.313406 115.187534 532.391563 112.004768 536.684799 107.910576 
C 540.978034 103.816384 544.398103 98.89492 546.738359 93.443546 
C 549.078615 87.992172 550.290957 82.122939 550.302132 76.190473 
L 506.356364 76.107692 
L 504.354456 120.007917 
z
" style="fill:#8da0cb;stroke:#ffffff;stroke-linejoin:miter;"/>
   </g>
   <g id="patch_23">
    <path d="M 550.302132 76.190473 
C 550.30214 76.185873 550.302148 76.181274 550.302156 76.176675 
C 550.302163 76.172076 550.302169 76.167476 550.302175 76.162877 
L 506.356364 76.107692 
L 550.302132 76.190473 
z
" style="fill:#e78ac3;stroke:#ffffff;stroke-linejoin:miter;"/>
   </g>
   <g id="patch_24">
    <path d="M 550.302175 76.162877 
C 550.302181 76.158278 550.302186 76.153679 550.30219 76.149079 
C 550.302195 76.14448 550.302198 76.139881 550.302201 76.135282 
L 506.356364 76.107692 
L 550.302175 76.162877 
z
" style="fill:#a6d854;stroke:#ffffff;stroke-linejoin:miter;"/>
   </g>
   <g id="patch_25">
    <path d="M 550.302201 76.135282 
C 550.302204 76.130683 550.302206 76.126083 550.302208 76.121484 
C 550.302209 76.116885 550.30221 76.112286 550.30221 76.107686 
L 506.356364 76.107692 
L 550.302201 76.135282 
z
" style="fill:#ffd92f;stroke:#ffffff;stroke-linejoin:miter;"/>
   </g>
   <g id="text_4">
    <!-- Mouth_2 -->
    <g style="fill:#262626;" transform="translate(480.733551 15.175385)scale(0.12 -0.12)">
     <use xlink:href="#DejaVuSans-77"/>
     <use x="86.279297" xlink:href="#DejaVuSans-111"/>
     <use x="147.460938" xlink:href="#DejaVuSans-117"/>
     <use x="210.839844" xlink:href="#DejaVuSans-116"/>
     <use x="250.048828" xlink:href="#DejaVuSans-104"/>
     <use x="313.427734" xlink:href="#DejaVuSans-95"/>
     <use x="363.427734" xlink:href="#DejaVuSans-50"/>
    </g>
   </g>
  </g>
  <g id="axes_5">
   <g id="matplotlib.axis_9"/>
   <g id="matplotlib.axis_10"/>
   <g id="patch_26">
    <path d="M 693.124028 76.107692 
C 693.124028 76.10309 693.124027 76.098488 693.124026 76.093886 
C 693.124024 76.089284 693.124022 76.084682 693.124019 76.08008 
L 649.178182 76.107692 
L 693.124028 76.107692 
z
" style="fill:#66c2a5;stroke:#ffffff;stroke-linejoin:miter;"/>
   </g>
   <g id="patch_27">
    <path d="M 693.124019 76.08008 
C 693.120411 70.337038 691.991047 64.650008 689.799947 59.34137 
C 687.608848 54.032733 684.398213 49.204731 680.350045 45.13105 
C 676.301876 41.057369 671.49414 37.816467 666.199372 35.59206 
C 660.904605 33.367653 655.224782 32.202584 649.481876 32.162896 
C 643.73897 32.123207 638.043587 33.209665 632.718582 35.360681 
C 627.393577 37.511696 622.541507 40.685842 618.437423 44.703184 
C 614.333339 48.720526 611.056283 53.503693 608.792023 58.78154 
C 606.527762 64.059388 605.319906 69.730266 605.236923 75.47271 
C 605.153941 81.215153 606.197431 86.918565 608.30824 92.259635 
C 610.41905 97.600706 613.556526 102.476567 617.542813 106.610821 
C 621.529101 110.745075 626.287426 114.058097 631.548053 116.362083 
C 636.80868 118.666068 642.470292 119.916643 648.211947 120.042915 
C 653.953602 120.169187 659.664718 119.168725 665.02155 117.098241 
C 670.378381 115.027758 675.277757 111.92713 679.441946 107.972123 
C 683.606135 104.017117 686.954936 99.283903 689.298516 94.040795 
C 691.642096 88.797687 692.935317 83.145665 693.104871 77.405125 
L 649.178182 76.107692 
L 693.124019 76.08008 
z
" style="fill:#fc8d62;stroke:#ffffff;stroke-linejoin:miter;"/>
   </g>
   <g id="patch_28">
    <path d="M 693.104871 77.405125 
C 693.105007 77.400525 693.105142 77.395925 693.105277 77.391325 
C 693.105411 77.386725 693.105545 77.382125 693.105678 77.377525 
L 649.178182 76.107692 
L 693.104871 77.405125 
z
" style="fill:#8da0cb;stroke:#ffffff;stroke-linejoin:miter;"/>
   </g>
   <g id="patch_29">
    <path d="M 693.105678 77.377525 
C 693.110332 77.216537 693.1141 77.055526 693.116984 76.894497 
C 693.119867 76.733468 693.121866 76.572424 693.122979 76.411374 
L 649.178182 76.107692 
L 693.105678 77.377525 
z
" style="fill:#e78ac3;stroke:#ffffff;stroke-linejoin:miter;"/>
   </g>
   <g id="patch_30">
    <path d="M 693.122979 76.411374 
C 693.12301 76.406772 693.123042 76.40217 693.123072 76.397568 
C 693.123102 76.392966 693.123132 76.388364 693.123161 76.383762 
L 649.178182 76.107692 
L 693.122979 76.411374 
z
" style="fill:#a6d854;stroke:#ffffff;stroke-linejoin:miter;"/>
   </g>
   <g id="patch_31">
    <path d="M 693.123161 76.383762 
C 693.12319 76.37916 693.123218 76.374558 693.123245 76.369956 
C 693.123273 76.365354 693.1233 76.360753 693.123326 76.356151 
L 649.178182 76.107692 
L 693.123161 76.383762 
z
" style="fill:#ffd92f;stroke:#ffffff;stroke-linejoin:miter;"/>
   </g>
   <g id="text_5">
    <!-- Stool_1 -->
    <defs>
     <path d="M 53.515625 70.515625 
L 53.515625 60.890625 
Q 47.90625 63.578125 42.921875 64.890625 
Q 37.9375 66.21875 33.296875 66.21875 
Q 25.25 66.21875 20.875 63.09375 
Q 16.5 59.96875 16.5 54.203125 
Q 16.5 49.359375 19.40625 46.890625 
Q 22.3125 44.4375 30.421875 42.921875 
L 36.375 41.703125 
Q 47.40625 39.59375 52.65625 34.296875 
Q 57.90625 29 57.90625 20.125 
Q 57.90625 9.515625 50.796875 4.046875 
Q 43.703125 -1.421875 29.984375 -1.421875 
Q 24.8125 -1.421875 18.96875 -0.25 
Q 13.140625 0.921875 6.890625 3.21875 
L 6.890625 13.375 
Q 12.890625 10.015625 18.65625 8.296875 
Q 24.421875 6.59375 29.984375 6.59375 
Q 38.421875 6.59375 43.015625 9.90625 
Q 47.609375 13.234375 47.609375 19.390625 
Q 47.609375 24.75 44.3125 27.78125 
Q 41.015625 30.8125 33.5 32.328125 
L 27.484375 33.5 
Q 16.453125 35.6875 11.515625 40.375 
Q 6.59375 45.0625 6.59375 53.421875 
Q 6.59375 63.09375 13.40625 68.65625 
Q 20.21875 74.21875 32.171875 74.21875 
Q 37.3125 74.21875 42.625 73.28125 
Q 47.953125 72.359375 53.515625 70.515625 
z
" id="DejaVuSans-83"/>
     <path d="M 9.421875 75.984375 
L 18.40625 75.984375 
L 18.40625 0 
L 9.421875 0 
z
" id="DejaVuSans-108"/>
    </defs>
    <g style="fill:#262626;" transform="translate(627.190057 15.175385)scale(0.12 -0.12)">
     <use xlink:href="#DejaVuSans-83"/>
     <use x="63.476562" xlink:href="#DejaVuSans-116"/>
     <use x="102.685547" xlink:href="#DejaVuSans-111"/>
     <use x="163.867188" xlink:href="#DejaVuSans-111"/>
     <use x="225.048828" xlink:href="#DejaVuSans-108"/>
     <use x="252.832031" xlink:href="#DejaVuSans-95"/>
     <use x="302.832031" xlink:href="#DejaVuSans-49"/>
    </g>
   </g>
  </g>
  <g id="axes_6">
   <g id="patch_32">
    <path d="M 727.069091 131.04 
L 856.930909 131.04 
L 856.930909 21.175385 
L 727.069091 21.175385 
z
" style="fill:#ffffff;"/>
   </g>
   <g id="matplotlib.axis_11"/>
   <g id="matplotlib.axis_12"/>
   <g id="patch_33">
    <path d="M 727.069091 131.04 
L 727.069091 21.175385 
" style="fill:none;stroke:#ffffff;stroke-linecap:square;stroke-linejoin:miter;stroke-width:1.25;"/>
   </g>
   <g id="patch_34">
    <path d="M 856.930909 131.04 
L 856.930909 21.175385 
" style="fill:none;stroke:#ffffff;stroke-linecap:square;stroke-linejoin:miter;stroke-width:1.25;"/>
   </g>
   <g id="patch_35">
    <path d="M 727.069091 131.04 
L 856.930909 131.04 
" style="fill:none;stroke:#ffffff;stroke-linecap:square;stroke-linejoin:miter;stroke-width:1.25;"/>
   </g>
   <g id="patch_36">
    <path d="M 727.069091 21.175385 
L 856.930909 21.175385 
" style="fill:none;stroke:#ffffff;stroke-linecap:square;stroke-linejoin:miter;stroke-width:1.25;"/>
   </g>
  </g>
  <g id="axes_7">
   <g id="matplotlib.axis_13"/>
   <g id="matplotlib.axis_14"/>
   <g id="patch_37">
    <path d="M 978.767664 76.107692 
C 978.767664 64.56539 974.220315 53.475402 966.117104 45.255748 
C 958.013893 37.036094 946.989909 32.33099 935.448782 32.166319 
C 923.907655 32.001648 912.753919 36.390316 904.419495 44.375435 
C 896.085072 52.360554 891.22317 63.316289 890.893861 74.853892 
L 934.821818 76.107692 
L 978.767664 76.107692 
z
" style="fill:#66c2a5;stroke:#ffffff;stroke-linejoin:miter;"/>
   </g>
   <g id="patch_38">
    <path d="M 890.893861 74.853892 
C 890.66016 83.041817 892.720324 91.134278 896.840766 98.213733 
C 900.961208 105.293188 906.980083 111.081567 914.214959 114.92257 
C 921.449834 118.763573 929.616534 120.506331 937.789099 119.953247 
C 945.961665 119.400162 953.819089 116.572959 960.47048 111.792192 
L 934.821818 76.107692 
L 890.893861 74.853892 
z
" style="fill:#fc8d62;stroke:#ffffff;stroke-linejoin:miter;"/>
   </g>
   <g id="patch_39">
    <path d="M 960.47048 111.792192 
C 960.485399 111.781469 960.500311 111.770737 960.515217 111.759994 
C 960.530123 111.749252 960.545022 111.738501 960.559914 111.72774 
L 934.821818 76.107692 
L 960.47048 111.792192 
z
" style="fill:#8da0cb;stroke:#ffffff;stroke-linejoin:miter;"/>
   </g>
   <g id="patch_40">
    <path d="M 960.559914 111.72774 
C 963.430138 109.653793 966.039196 107.240508 968.330275 104.540433 
C 970.621354 101.840358 972.577704 98.873235 974.156726 95.703671 
L 934.821818 76.107692 
L 960.559914 111.72774 
z
" style="fill:#e78ac3;stroke:#ffffff;stroke-linejoin:miter;"/>
   </g>
   <g id="patch_41">
    <path d="M 974.156726 95.703671 
C 975.460457 93.0867 976.499776 90.346143 977.259226 87.522761 
C 978.018676 84.69938 978.494473 81.807243 978.679539 78.889367 
L 934.821818 76.107692 
L 974.156726 95.703671 
z
" style="fill:#a6d854;stroke:#ffffff;stroke-linejoin:miter;"/>
   </g>
   <g id="patch_42">
    <path d="M 978.679539 78.889367 
C 978.708905 78.426367 978.730937 77.962932 978.745627 77.499234 
C 978.760318 77.035537 978.767664 76.571636 978.767664 76.107706 
L 934.821818 76.107692 
L 978.679539 78.889367 
z
" style="fill:#ffd92f;stroke:#ffffff;stroke-linejoin:miter;"/>
   </g>
   <g id="text_6">
    <!-- Stool_2 -->
    <g style="fill:#262626;" transform="translate(912.833693 20.668615)scale(0.12 -0.12)">
     <use xlink:href="#DejaVuSans-83"/>
     <use x="63.476562" xlink:href="#DejaVuSans-116"/>
     <use x="102.685547" xlink:href="#DejaVuSans-111"/>
     <use x="163.867188" xlink:href="#DejaVuSans-111"/>
     <use x="225.048828" xlink:href="#DejaVuSans-108"/>
     <use x="252.832031" xlink:href="#DejaVuSans-95"/>
     <use x="302.832031" xlink:href="#DejaVuSans-50"/>
    </g>
   </g>
  </g>
  <g id="axes_8">
   <g id="matplotlib.axis_15"/>
   <g id="matplotlib.axis_16"/>
   <g id="patch_43">
    <path d="M 1121.589483 76.107692 
C 1121.589483 68.430037 1119.57747 60.884769 1115.754668 54.226497 
C 1111.931865 47.568226 1106.430109 42.026571 1099.799633 38.155759 
C 1093.169157 34.284947 1085.638624 32.218469 1077.961169 32.162993 
C 1070.283713 32.107518 1062.724105 34.06496 1056.038385 37.839553 
L 1077.643636 76.107692 
L 1121.589483 76.107692 
z
" style="fill:#66c2a5;stroke:#ffffff;stroke-linejoin:miter;"/>
   </g>
   <g id="patch_44">
    <path d="M 1056.038385 37.839553 
C 1050.235078 41.115957 1045.252379 45.669935 1041.468468 51.155847 
C 1037.684557 56.641758 1035.19765 62.91721 1034.196498 69.505905 
C 1033.195347 76.0946 1033.705938 82.825521 1035.689517 89.187802 
C 1037.673096 95.550082 1041.078179 101.378583 1045.646323 106.230929 
C 1050.214468 111.083274 1055.827104 114.833517 1062.05824 117.19702 
C 1068.289377 119.560522 1074.977278 120.475937 1081.614342 119.873785 
C 1088.251406 119.271634 1094.66536 117.167545 1100.369396 113.721217 
C 1106.073432 110.274889 1110.919495 105.575774 1114.539776 99.980528 
L 1077.643636 76.107692 
L 1056.038385 37.839553 
z
" style="fill:#fc8d62;stroke:#ffffff;stroke-linejoin:miter;"/>
   </g>
   <g id="patch_45">
    <path d="M 1114.539776 99.980528 
C 1116.507235 96.939765 1118.091267 93.66741 1119.255803 90.237979 
C 1120.420338 86.808548 1121.15647 83.248271 1121.447435 79.638218 
L 1077.643636 76.107692 
L 1114.539776 99.980528 
z
" style="fill:#8da0cb;stroke:#ffffff;stroke-linejoin:miter;"/>
   </g>
   <g id="patch_46">
    <path d="M 1121.447435 79.638218 
C 1121.447805 79.633631 1121.448174 79.629044 1121.448542 79.624457 
C 1121.44891 79.619869 1121.449278 79.615282 1121.449645 79.610695 
L 1077.643636 76.107692 
L 1121.447435 79.638218 
z
" style="fill:#e78ac3;stroke:#ffffff;stroke-linejoin:miter;"/>
   </g>
   <g id="patch_47">
    <path d="M 1121.449645 79.610695 
C 1121.451112 79.592345 1121.452568 79.573995 1121.454012 79.555644 
C 1121.455456 79.537293 1121.456889 79.51894 1121.45831 79.500587 
L 1077.643636 76.107692 
L 1121.449645 79.610695 
z
" style="fill:#a6d854;stroke:#ffffff;stroke-linejoin:miter;"/>
   </g>
   <g id="patch_48">
    <path d="M 1121.45831 79.500587 
C 1121.494197 79.037163 1121.522728 78.573199 1121.543895 78.10887 
C 1121.565061 77.64454 1121.578859 77.179904 1121.585284 76.715137 
L 1077.643636 76.107692 
L 1121.45831 79.500587 
z
" style="fill:#ffd92f;stroke:#ffffff;stroke-linejoin:miter;"/>
   </g>
   <g id="text_7">
    <!-- Left Hand_1 -->
    <defs>
     <path d="M 9.8125 72.90625 
L 19.671875 72.90625 
L 19.671875 8.296875 
L 55.171875 8.296875 
L 55.171875 0 
L 9.8125 0 
z
" id="DejaVuSans-76"/>
     <path d="M 37.109375 75.984375 
L 37.109375 68.5 
L 28.515625 68.5 
Q 23.6875 68.5 21.796875 66.546875 
Q 19.921875 64.59375 19.921875 59.515625 
L 19.921875 54.6875 
L 34.71875 54.6875 
L 34.71875 47.703125 
L 19.921875 47.703125 
L 19.921875 0 
L 10.890625 0 
L 10.890625 47.703125 
L 2.296875 47.703125 
L 2.296875 54.6875 
L 10.890625 54.6875 
L 10.890625 58.5 
Q 10.890625 67.625 15.140625 71.796875 
Q 19.390625 75.984375 28.609375 75.984375 
z
" id="DejaVuSans-102"/>
     <path id="DejaVuSans-32"/>
     <path d="M 9.8125 72.90625 
L 19.671875 72.90625 
L 19.671875 43.015625 
L 55.515625 43.015625 
L 55.515625 72.90625 
L 65.375 72.90625 
L 65.375 0 
L 55.515625 0 
L 55.515625 34.71875 
L 19.671875 34.71875 
L 19.671875 0 
L 9.8125 0 
z
" id="DejaVuSans-72"/>
     <path d="M 54.890625 33.015625 
L 54.890625 0 
L 45.90625 0 
L 45.90625 32.71875 
Q 45.90625 40.484375 42.875 44.328125 
Q 39.84375 48.1875 33.796875 48.1875 
Q 26.515625 48.1875 22.3125 43.546875 
Q 18.109375 38.921875 18.109375 30.90625 
L 18.109375 0 
L 9.078125 0 
L 9.078125 54.6875 
L 18.109375 54.6875 
L 18.109375 46.1875 
Q 21.34375 51.125 25.703125 53.5625 
Q 30.078125 56 35.796875 56 
Q 45.21875 56 50.046875 50.171875 
Q 54.890625 44.34375 54.890625 33.015625 
z
" id="DejaVuSans-110"/>
    </defs>
    <g style="fill:#262626;" transform="translate(1041.829261 20.668615)scale(0.12 -0.12)">
     <use xlink:href="#DejaVuSans-76"/>
     <use x="53.962891" xlink:href="#DejaVuSans-101"/>
     <use x="115.486328" xlink:href="#DejaVuSans-102"/>
     <use x="148.941406" xlink:href="#DejaVuSans-116"/>
     <use x="188.150391" xlink:href="#DejaVuSans-32"/>
     <use x="219.9375" xlink:href="#DejaVuSans-72"/>
     <use x="295.132812" xlink:href="#DejaVuSans-97"/>
     <use x="356.412109" xlink:href="#DejaVuSans-110"/>
     <use x="419.791016" xlink:href="#DejaVuSans-100"/>
     <use x="483.267578" xlink:href="#DejaVuSans-95"/>
     <use x="533.267578" xlink:href="#DejaVuSans-49"/>
    </g>
   </g>
  </g>
  <g id="axes_9">
   <g id="matplotlib.axis_17"/>
   <g id="matplotlib.axis_18"/>
   <g id="patch_49">
    <path d="M 1264.411301 76.107692 
C 1264.411301 76.034097 1264.411116 75.960502 1264.410746 75.886908 
C 1264.410376 75.813313 1264.409822 75.73972 1264.409082 75.666129 
L 1220.465455 76.107692 
L 1264.411301 76.107692 
z
" style="fill:#66c2a5;stroke:#ffffff;stroke-linejoin:miter;"/>
   </g>
   <g id="patch_50">
    <path d="M 1264.409082 75.666129 
C 1264.351266 69.912337 1263.163943 64.225523 1260.914674 58.929274 
C 1258.665405 53.633026 1255.397677 48.82974 1251.29743 44.792733 
C 1247.197183 40.755725 1242.343689 37.563047 1237.013121 35.396366 
C 1231.682554 33.229685 1225.977972 32.130892 1220.223977 32.16251 
C 1214.469982 32.194128 1208.777821 33.355545 1203.471386 35.580676 
C 1198.164951 37.805807 1193.346837 41.051631 1189.291202 45.133455 
C 1185.235567 49.215279 1182.020823 54.054185 1179.829894 59.374832 
C 1177.638964 64.695479 1176.514209 70.394999 1176.519628 76.149078 
C 1176.525047 81.903157 1177.660535 87.600548 1179.861482 92.917059 
C 1182.062429 98.233571 1185.286282 103.066413 1189.349597 107.140591 
C 1193.412913 111.214769 1198.237132 114.451512 1203.547748 116.666645 
C 1208.858365 118.881777 1214.552704 120.032472 1220.306748 120.053252 
C 1226.060793 120.074032 1231.763294 118.964497 1237.089771 116.787779 
C 1242.416249 114.611062 1247.26372 111.409248 1251.356357 107.364524 
C 1255.448993 103.319801 1258.707668 98.51037 1260.946958 93.209894 
C 1263.186247 87.909419 1264.362857 82.220378 1264.409836 76.466488 
L 1220.465455 76.107692 
L 1264.409082 75.666129 
z
" style="fill:#fc8d62;stroke:#ffffff;stroke-linejoin:miter;"/>
   </g>
   <g id="patch_51">
    <path d="M 1264.409836 76.466488 
C 1264.410136 76.429691 1264.410391 76.392895 1264.410599 76.356098 
C 1264.410807 76.319301 1264.410968 76.282503 1264.411084 76.245706 
L 1220.465455 76.107692 
L 1264.409836 76.466488 
z
" style="fill:#8da0cb;stroke:#ffffff;stroke-linejoin:miter;"/>
   </g>
   <g id="patch_52">
    <path d="M 1264.411084 76.245706 
C 1264.411127 76.231907 1264.411164 76.218108 1264.411194 76.204309 
C 1264.411225 76.19051 1264.411249 76.176711 1264.411266 76.162912 
L 1220.465455 76.107692 
L 1264.411084 76.245706 
z
" style="fill:#e78ac3;stroke:#ffffff;stroke-linejoin:miter;"/>
   </g>
   <g id="patch_53">
    <path d="M 1264.411266 76.162912 
C 1264.411272 76.158312 1264.411277 76.153712 1264.411281 76.149113 
C 1264.411286 76.144513 1264.411289 76.139913 1264.411292 76.135313 
L 1220.465455 76.107692 
L 1264.411266 76.162912 
z
" style="fill:#a6d854;stroke:#ffffff;stroke-linejoin:miter;"/>
   </g>
   <g id="patch_54">
    <path d="M 1264.411292 76.135313 
C 1264.411295 76.130714 1264.411297 76.126114 1264.411299 76.121514 
C 1264.4113 76.116915 1264.411301 76.112315 1264.411301 76.107715 
L 1220.465455 76.107692 
L 1264.411292 76.135313 
z
" style="fill:#ffd92f;stroke:#ffffff;stroke-linejoin:miter;"/>
   </g>
   <g id="text_8">
    <!-- Left Hand_2 -->
    <g style="fill:#262626;" transform="translate(1184.65108 20.668615)scale(0.12 -0.12)">
     <use xlink:href="#DejaVuSans-76"/>
     <use x="53.962891" xlink:href="#DejaVuSans-101"/>
     <use x="115.486328" xlink:href="#DejaVuSans-102"/>
     <use x="148.941406" xlink:href="#DejaVuSans-116"/>
     <use x="188.150391" xlink:href="#DejaVuSans-32"/>
     <use x="219.9375" xlink:href="#DejaVuSans-72"/>
     <use x="295.132812" xlink:href="#DejaVuSans-97"/>
     <use x="356.412109" xlink:href="#DejaVuSans-110"/>
     <use x="419.791016" xlink:href="#DejaVuSans-100"/>
     <use x="483.267578" xlink:href="#DejaVuSans-95"/>
     <use x="533.267578" xlink:href="#DejaVuSans-50"/>
    </g>
   </g>
  </g>
  <g id="axes_10">
   <g id="matplotlib.axis_19"/>
   <g id="matplotlib.axis_20"/>
   <g id="patch_55">
    <path d="M 1407.233119 76.107692 
C 1407.233119 71.330667 1406.454207 66.585446 1404.927088 62.059092 
C 1403.39997 57.532738 1401.144979 53.285522 1398.251011 49.484875 
C 1395.357043 45.684228 1391.862632 42.380757 1387.905533 39.704689 
C 1383.948434 37.028622 1379.581338 35.015591 1374.9764 33.744953 
C 1370.371463 32.474315 1365.590001 31.962989 1360.820508 32.231133 
C 1356.051014 32.499277 1351.356996 33.543319 1346.923499 35.322103 
C 1342.490002 37.100887 1338.376059 39.590727 1334.743848 42.693469 
C 1331.111637 45.796212 1328.009522 49.470544 1325.559794 53.571617 
C 1323.110065 57.67269 1321.345341 62.145896 1320.335191 66.814897 
C 1319.32504 71.483897 1319.082913 76.286522 1319.618355 81.033444 
C 1320.153797 85.780367 1321.459678 90.408379 1323.484518 94.73504 
C 1325.509358 99.061701 1328.226196 103.029398 1331.52793 106.481719 
C 1334.829663 109.934041 1338.67233 112.825017 1342.904445 115.040682 
C 1347.13656 117.256348 1351.701771 118.767199 1356.420112 119.513677 
C 1361.138453 120.260155 1365.947096 120.232319 1370.656479 119.431268 
C 1375.365862 118.630216 1379.913276 117.066615 1384.119457 114.802104 
L 1363.287273 76.107692 
L 1407.233119 76.107692 
z
" style="fill:#66c2a5;stroke:#ffffff;stroke-linejoin:miter;"/>
   </g>
   <g id="patch_56">
    <path d="M 1384.119457 114.802104 
C 1388.670786 112.351773 1392.754306 109.117541 1396.181904 105.248396 
C 1399.609503 101.379251 1402.327729 96.935532 1404.211363 92.121943 
L 1363.287273 76.107692 
L 1384.119457 114.802104 
z
" style="fill:#fc8d62;stroke:#ffffff;stroke-linejoin:miter;"/>
   </g>
   <g id="patch_57">
    <path d="M 1404.211363 92.121943 
C 1405.202591 89.588881 1405.956499 86.969251 1406.463377 84.296798 
C 1406.970254 81.624344 1407.227915 78.910592 1407.233041 76.190499 
L 1363.287273 76.107692 
L 1404.211363 92.121943 
z
" style="fill:#8da0cb;stroke:#ffffff;stroke-linejoin:miter;"/>
   </g>
   <g id="patch_58">
    <path d="M 1407.233041 76.190499 
C 1407.23305 76.1859 1407.233057 76.1813 1407.233065 76.176701 
C 1407.233072 76.172102 1407.233078 76.167503 1407.233084 76.162903 
L 1363.287273 76.107692 
L 1407.233041 76.190499 
z
" style="fill:#e78ac3;stroke:#ffffff;stroke-linejoin:miter;"/>
   </g>
   <g id="patch_59">
    <path d="M 1407.233084 76.162903 
C 1407.23309 76.158304 1407.233095 76.153705 1407.233099 76.149106 
C 1407.233104 76.144506 1407.233107 76.139907 1407.23311 76.135308 
L 1363.287273 76.107692 
L 1407.233084 76.162903 
z
" style="fill:#a6d854;stroke:#ffffff;stroke-linejoin:miter;"/>
   </g>
   <g id="patch_60">
    <path d="M 1407.23311 76.135308 
C 1407.233113 76.130709 1407.233115 76.126109 1407.233117 76.12151 
C 1407.233118 76.116911 1407.233119 76.112312 1407.233119 76.107713 
L 1363.287273 76.107692 
L 1407.23311 76.135308 
z
" style="fill:#ffd92f;stroke:#ffffff;stroke-linejoin:miter;"/>
   </g>
   <g id="text_9">
    <!-- Right Hand_1 -->
    <defs>
     <path d="M 44.390625 34.1875 
Q 47.5625 33.109375 50.5625 29.59375 
Q 53.5625 26.078125 56.59375 19.921875 
L 66.609375 0 
L 56 0 
L 46.6875 18.703125 
Q 43.0625 26.03125 39.671875 28.421875 
Q 36.28125 30.8125 30.421875 30.8125 
L 19.671875 30.8125 
L 19.671875 0 
L 9.8125 0 
L 9.8125 72.90625 
L 32.078125 72.90625 
Q 44.578125 72.90625 50.734375 67.671875 
Q 56.890625 62.453125 56.890625 51.90625 
Q 56.890625 45.015625 53.6875 40.46875 
Q 50.484375 35.9375 44.390625 34.1875 
z
M 19.671875 64.796875 
L 19.671875 38.921875 
L 32.078125 38.921875 
Q 39.203125 38.921875 42.84375 42.21875 
Q 46.484375 45.515625 46.484375 51.90625 
Q 46.484375 58.296875 42.84375 61.546875 
Q 39.203125 64.796875 32.078125 64.796875 
z
" id="DejaVuSans-82"/>
     <path d="M 9.421875 54.6875 
L 18.40625 54.6875 
L 18.40625 0 
L 9.421875 0 
z
M 9.421875 75.984375 
L 18.40625 75.984375 
L 18.40625 64.59375 
L 9.421875 64.59375 
z
" id="DejaVuSans-105"/>
     <path d="M 45.40625 27.984375 
Q 45.40625 37.75 41.375 43.109375 
Q 37.359375 48.484375 30.078125 48.484375 
Q 22.859375 48.484375 18.828125 43.109375 
Q 14.796875 37.75 14.796875 27.984375 
Q 14.796875 18.265625 18.828125 12.890625 
Q 22.859375 7.515625 30.078125 7.515625 
Q 37.359375 7.515625 41.375 12.890625 
Q 45.40625 18.265625 45.40625 27.984375 
z
M 54.390625 6.78125 
Q 54.390625 -7.171875 48.1875 -13.984375 
Q 42 -20.796875 29.203125 -20.796875 
Q 24.46875 -20.796875 20.265625 -20.09375 
Q 16.0625 -19.390625 12.109375 -17.921875 
L 12.109375 -9.1875 
Q 16.0625 -11.328125 19.921875 -12.34375 
Q 23.78125 -13.375 27.78125 -13.375 
Q 36.625 -13.375 41.015625 -8.765625 
Q 45.40625 -4.15625 45.40625 5.171875 
L 45.40625 9.625 
Q 42.625 4.78125 38.28125 2.390625 
Q 33.9375 0 27.875 0 
Q 17.828125 0 11.671875 7.65625 
Q 5.515625 15.328125 5.515625 27.984375 
Q 5.515625 40.671875 11.671875 48.328125 
Q 17.828125 56 27.875 56 
Q 33.9375 56 38.28125 53.609375 
Q 42.625 51.21875 45.40625 46.390625 
L 45.40625 54.6875 
L 54.390625 54.6875 
z
" id="DejaVuSans-103"/>
    </defs>
    <g style="fill:#262626;" transform="translate(1322.962585 20.668615)scale(0.12 -0.12)">
     <use xlink:href="#DejaVuSans-82"/>
     <use x="69.482422" xlink:href="#DejaVuSans-105"/>
     <use x="97.265625" xlink:href="#DejaVuSans-103"/>
     <use x="160.742188" xlink:href="#DejaVuSans-104"/>
     <use x="224.121094" xlink:href="#DejaVuSans-116"/>
     <use x="263.330078" xlink:href="#DejaVuSans-32"/>
     <use x="295.117188" xlink:href="#DejaVuSans-72"/>
     <use x="370.3125" xlink:href="#DejaVuSans-97"/>
     <use x="431.591797" xlink:href="#DejaVuSans-110"/>
     <use x="494.970703" xlink:href="#DejaVuSans-100"/>
     <use x="558.447266" xlink:href="#DejaVuSans-95"/>
     <use x="608.447266" xlink:href="#DejaVuSans-49"/>
    </g>
   </g>
  </g>
  <g id="axes_11">
   <g id="matplotlib.axis_21"/>
   <g id="matplotlib.axis_22"/>
   <g id="patch_61">
    <path d="M 1550.054937 76.107692 
C 1550.054937 73.129131 1549.752116 70.158271 1549.151147 67.240967 
C 1548.550178 64.323662 1547.654169 61.475 1546.476951 58.738947 
L 1506.109091 76.107692 
L 1550.054937 76.107692 
z
" style="fill:#66c2a5;stroke:#ffffff;stroke-linejoin:miter;"/>
   </g>
   <g id="patch_62">
    <path d="M 1546.476951 58.738947 
C 1544.346975 53.788529 1541.324431 49.271883 1537.560493 45.414913 
C 1533.796556 41.557944 1529.35504 38.426043 1524.458092 36.175856 
C 1519.561144 33.925669 1514.29179 32.595346 1508.913578 32.251424 
C 1503.535366 31.907503 1498.139483 32.555813 1492.995808 34.16393 
C 1487.852132 35.772047 1483.047872 38.312706 1478.823316 41.658833 
C 1474.59876 45.004961 1471.025534 49.099825 1468.282355 53.738619 
C 1465.539176 58.377413 1463.672552 63.481488 1462.775846 68.79556 
C 1461.87914 74.109631 1461.967553 79.543603 1463.036664 84.82569 
C 1464.105776 90.107776 1466.137459 95.148424 1469.030097 99.69552 
C 1471.922736 104.242616 1475.627286 108.219068 1479.958463 111.425989 
C 1484.289641 114.63291 1489.174011 117.01593 1494.367281 118.45586 
C 1499.56055 119.895789 1504.974668 120.368216 1510.338844 119.84951 
C 1515.70302 119.330804 1520.926307 117.82976 1525.747459 115.421455 
C 1530.568611 113.013149 1534.905887 109.738413 1538.542356 105.761035 
C 1542.178824 101.783657 1545.052831 97.171071 1547.02063 92.15398 
C 1548.988429 87.136888 1550.016658 81.800353 1550.053888 76.411285 
L 1506.109091 76.107692 
L 1546.476951 58.738947 
z
" style="fill:#fc8d62;stroke:#ffffff;stroke-linejoin:miter;"/>
   </g>
   <g id="patch_63">
    <path d="M 1550.053888 76.411285 
C 1550.054015 76.392887 1550.054131 76.374488 1550.054235 76.35609 
C 1550.054339 76.337691 1550.054431 76.319293 1550.054512 76.300894 
L 1506.109091 76.107692 
L 1550.053888 76.411285 
z
" style="fill:#8da0cb;stroke:#ffffff;stroke-linejoin:miter;"/>
   </g>
   <g id="patch_64">
    <path d="M 1550.054512 76.300894 
C 1550.054533 76.296294 1550.054552 76.291695 1550.054571 76.287095 
C 1550.05459 76.282495 1550.054608 76.277896 1550.054625 76.273296 
L 1506.109091 76.107692 
L 1550.054512 76.300894 
z
" style="fill:#e78ac3;stroke:#ffffff;stroke-linejoin:miter;"/>
   </g>
   <g id="patch_65">
    <path d="M 1550.054625 76.273296 
C 1550.054712 76.250298 1550.05478 76.227299 1550.054831 76.204301 
C 1550.054881 76.181302 1550.054914 76.158304 1550.054928 76.135306 
L 1506.109091 76.107692 
L 1550.054625 76.273296 
z
" style="fill:#a6d854;stroke:#ffffff;stroke-linejoin:miter;"/>
   </g>
   <g id="patch_66">
    <path d="M 1550.054928 76.135306 
C 1550.054931 76.130706 1550.054933 76.126106 1550.054935 76.121506 
C 1550.054936 76.116907 1550.054937 76.112307 1550.054937 76.107707 
L 1506.109091 76.107692 
L 1550.054928 76.135306 
z
" style="fill:#ffd92f;stroke:#ffffff;stroke-linejoin:miter;"/>
   </g>
   <g id="text_10">
    <!-- Right Hand_2 -->
    <g style="fill:#262626;" transform="translate(1465.784403 20.668615)scale(0.12 -0.12)">
     <use xlink:href="#DejaVuSans-82"/>
     <use x="69.482422" xlink:href="#DejaVuSans-105"/>
     <use x="97.265625" xlink:href="#DejaVuSans-103"/>
     <use x="160.742188" xlink:href="#DejaVuSans-104"/>
     <use x="224.121094" xlink:href="#DejaVuSans-116"/>
     <use x="263.330078" xlink:href="#DejaVuSans-32"/>
     <use x="295.117188" xlink:href="#DejaVuSans-72"/>
     <use x="370.3125" xlink:href="#DejaVuSans-97"/>
     <use x="431.591797" xlink:href="#DejaVuSans-110"/>
     <use x="494.970703" xlink:href="#DejaVuSans-100"/>
     <use x="558.447266" xlink:href="#DejaVuSans-95"/>
     <use x="608.447266" xlink:href="#DejaVuSans-50"/>
    </g>
   </g>
  </g>
  <g id="text_11">
   <!-- ONN4MST Layer-5 -->
   <defs>
    <path d="M 39.40625 66.21875 
Q 28.65625 66.21875 22.328125 58.203125 
Q 16.015625 50.203125 16.015625 36.375 
Q 16.015625 22.609375 22.328125 14.59375 
Q 28.65625 6.59375 39.40625 6.59375 
Q 50.140625 6.59375 56.421875 14.59375 
Q 62.703125 22.609375 62.703125 36.375 
Q 62.703125 50.203125 56.421875 58.203125 
Q 50.140625 66.21875 39.40625 66.21875 
z
M 39.40625 74.21875 
Q 54.734375 74.21875 63.90625 63.9375 
Q 73.09375 53.65625 73.09375 36.375 
Q 73.09375 19.140625 63.90625 8.859375 
Q 54.734375 -1.421875 39.40625 -1.421875 
Q 24.03125 -1.421875 14.8125 8.828125 
Q 5.609375 19.09375 5.609375 36.375 
Q 5.609375 53.65625 14.8125 63.9375 
Q 24.03125 74.21875 39.40625 74.21875 
z
" id="DejaVuSans-79"/>
    <path d="M 9.8125 72.90625 
L 23.09375 72.90625 
L 55.421875 11.921875 
L 55.421875 72.90625 
L 64.984375 72.90625 
L 64.984375 0 
L 51.703125 0 
L 19.390625 60.984375 
L 19.390625 0 
L 9.8125 0 
z
" id="DejaVuSans-78"/>
    <path d="M 37.796875 64.3125 
L 12.890625 25.390625 
L 37.796875 25.390625 
z
M 35.203125 72.90625 
L 47.609375 72.90625 
L 47.609375 25.390625 
L 58.015625 25.390625 
L 58.015625 17.1875 
L 47.609375 17.1875 
L 47.609375 0 
L 37.796875 0 
L 37.796875 17.1875 
L 4.890625 17.1875 
L 4.890625 26.703125 
z
" id="DejaVuSans-52"/>
    <path d="M -0.296875 72.90625 
L 61.375 72.90625 
L 61.375 64.59375 
L 35.5 64.59375 
L 35.5 0 
L 25.59375 0 
L 25.59375 64.59375 
L -0.296875 64.59375 
z
" id="DejaVuSans-84"/>
    <path d="M 32.171875 -5.078125 
Q 28.375 -14.84375 24.75 -17.8125 
Q 21.140625 -20.796875 15.09375 -20.796875 
L 7.90625 -20.796875 
L 7.90625 -13.28125 
L 13.1875 -13.28125 
Q 16.890625 -13.28125 18.9375 -11.515625 
Q 21 -9.765625 23.484375 -3.21875 
L 25.09375 0.875 
L 2.984375 54.6875 
L 12.5 54.6875 
L 29.59375 11.921875 
L 46.6875 54.6875 
L 56.203125 54.6875 
z
" id="DejaVuSans-121"/>
    <path d="M 4.890625 31.390625 
L 31.203125 31.390625 
L 31.203125 23.390625 
L 4.890625 23.390625 
z
" id="DejaVuSans-45"/>
    <path d="M 10.796875 72.90625 
L 49.515625 72.90625 
L 49.515625 64.59375 
L 19.828125 64.59375 
L 19.828125 46.734375 
Q 21.96875 47.46875 24.109375 47.828125 
Q 26.265625 48.1875 28.421875 48.1875 
Q 40.625 48.1875 47.75 41.5 
Q 54.890625 34.8125 54.890625 23.390625 
Q 54.890625 11.625 47.5625 5.09375 
Q 40.234375 -1.421875 26.90625 -1.421875 
Q 22.3125 -1.421875 17.546875 -0.640625 
Q 12.796875 0.140625 7.71875 1.703125 
L 7.71875 11.625 
Q 12.109375 9.234375 16.796875 8.0625 
Q 21.484375 6.890625 26.703125 6.890625 
Q 35.15625 6.890625 40.078125 11.328125 
Q 45.015625 15.765625 45.015625 23.390625 
Q 45.015625 31 40.078125 35.4375 
Q 35.15625 39.890625 26.703125 39.890625 
Q 22.75 39.890625 18.8125 39.015625 
Q 14.890625 38.140625 10.796875 36.28125 
z
" id="DejaVuSans-53"/>
   </defs>
   <g style="fill:#262626;" transform="translate(726.714 13.82175)scale(0.144 -0.144)">
    <use xlink:href="#DejaVuSans-79"/>
    <use x="78.710938" xlink:href="#DejaVuSans-78"/>
    <use x="153.515625" xlink:href="#DejaVuSans-78"/>
    <use x="228.320312" xlink:href="#DejaVuSans-52"/>
    <use x="291.943359" xlink:href="#DejaVuSans-77"/>
    <use x="378.222656" xlink:href="#DejaVuSans-83"/>
    <use x="441.699219" xlink:href="#DejaVuSans-84"/>
    <use x="502.783203" xlink:href="#DejaVuSans-32"/>
    <use x="534.570312" xlink:href="#DejaVuSans-76"/>
    <use x="590.283203" xlink:href="#DejaVuSans-97"/>
    <use x="651.5625" xlink:href="#DejaVuSans-121"/>
    <use x="710.742188" xlink:href="#DejaVuSans-101"/>
    <use x="772.265625" xlink:href="#DejaVuSans-114"/>
    <use x="807.003906" xlink:href="#DejaVuSans-45"/>
    <use x="843.087891" xlink:href="#DejaVuSans-53"/>
   </g>
  </g>
  <g id="legend_1">
   <g id="patch_67">
    <path d="M 703.61 128.057969 
L 860.247187 128.057969 
Q 862.147187 128.057969 862.147187 126.157969 
L 862.147187 42.65 
Q 862.147187 40.75 860.247187 40.75 
L 703.61 40.75 
Q 701.71 40.75 701.71 42.65 
L 701.71 126.157969 
Q 701.71 128.057969 703.61 128.057969 
z
" style="fill:#ffffff;opacity:0.8;stroke:#ffffff;stroke-linejoin:miter;"/>
   </g>
   <g id="patch_68">
    <path d="M 705.51 51.768516 
L 724.51 51.768516 
L 724.51 45.118516 
L 705.51 45.118516 
z
" style="fill:#66c2a5;stroke:#ffffff;stroke-linejoin:miter;"/>
   </g>
   <g id="text_12">
    <!-- Unknown -->
    <defs>
     <path d="M 8.6875 72.90625 
L 18.609375 72.90625 
L 18.609375 28.609375 
Q 18.609375 16.890625 22.84375 11.734375 
Q 27.09375 6.59375 36.625 6.59375 
Q 46.09375 6.59375 50.34375 11.734375 
Q 54.59375 16.890625 54.59375 28.609375 
L 54.59375 72.90625 
L 64.5 72.90625 
L 64.5 27.390625 
Q 64.5 13.140625 57.4375 5.859375 
Q 50.390625 -1.421875 36.625 -1.421875 
Q 22.796875 -1.421875 15.734375 5.859375 
Q 8.6875 13.140625 8.6875 27.390625 
z
" id="DejaVuSans-85"/>
     <path d="M 9.078125 75.984375 
L 18.109375 75.984375 
L 18.109375 31.109375 
L 44.921875 54.6875 
L 56.390625 54.6875 
L 27.390625 29.109375 
L 57.625 0 
L 45.90625 0 
L 18.109375 26.703125 
L 18.109375 0 
L 9.078125 0 
z
" id="DejaVuSans-107"/>
     <path d="M 4.203125 54.6875 
L 13.1875 54.6875 
L 24.421875 12.015625 
L 35.59375 54.6875 
L 46.1875 54.6875 
L 57.421875 12.015625 
L 68.609375 54.6875 
L 77.59375 54.6875 
L 63.28125 0 
L 52.6875 0 
L 40.921875 44.828125 
L 29.109375 0 
L 18.5 0 
z
" id="DejaVuSans-119"/>
    </defs>
    <g style="fill:#262626;" transform="translate(732.11 51.768516)scale(0.095 -0.095)">
     <use xlink:href="#DejaVuSans-85"/>
     <use x="73.193359" xlink:href="#DejaVuSans-110"/>
     <use x="136.572266" xlink:href="#DejaVuSans-107"/>
     <use x="194.482422" xlink:href="#DejaVuSans-110"/>
     <use x="257.861328" xlink:href="#DejaVuSans-111"/>
     <use x="319.042969" xlink:href="#DejaVuSans-119"/>
     <use x="400.830078" xlink:href="#DejaVuSans-110"/>
    </g>
   </g>
   <g id="patch_69">
    <path d="M 705.51 65.712734 
L 724.51 65.712734 
L 724.51 59.062734 
L 705.51 59.062734 
z
" style="fill:#fc8d62;stroke:#ffffff;stroke-linejoin:miter;"/>
   </g>
   <g id="text_13">
    <!-- Large_intestine(Human) -->
    <defs>
     <path d="M 44.28125 53.078125 
L 44.28125 44.578125 
Q 40.484375 46.53125 36.375 47.5 
Q 32.28125 48.484375 27.875 48.484375 
Q 21.1875 48.484375 17.84375 46.4375 
Q 14.5 44.390625 14.5 40.28125 
Q 14.5 37.15625 16.890625 35.375 
Q 19.28125 33.59375 26.515625 31.984375 
L 29.59375 31.296875 
Q 39.15625 29.25 43.1875 25.515625 
Q 47.21875 21.78125 47.21875 15.09375 
Q 47.21875 7.46875 41.1875 3.015625 
Q 35.15625 -1.421875 24.609375 -1.421875 
Q 20.21875 -1.421875 15.453125 -0.5625 
Q 10.6875 0.296875 5.421875 2 
L 5.421875 11.28125 
Q 10.40625 8.6875 15.234375 7.390625 
Q 20.0625 6.109375 24.8125 6.109375 
Q 31.15625 6.109375 34.5625 8.28125 
Q 37.984375 10.453125 37.984375 14.40625 
Q 37.984375 18.0625 35.515625 20.015625 
Q 33.0625 21.96875 24.703125 23.78125 
L 21.578125 24.515625 
Q 13.234375 26.265625 9.515625 29.90625 
Q 5.8125 33.546875 5.8125 39.890625 
Q 5.8125 47.609375 11.28125 51.796875 
Q 16.75 56 26.8125 56 
Q 31.78125 56 36.171875 55.265625 
Q 40.578125 54.546875 44.28125 53.078125 
z
" id="DejaVuSans-115"/>
     <path d="M 31 75.875 
Q 24.46875 64.65625 21.28125 53.65625 
Q 18.109375 42.671875 18.109375 31.390625 
Q 18.109375 20.125 21.3125 9.0625 
Q 24.515625 -2 31 -13.1875 
L 23.1875 -13.1875 
Q 15.875 -1.703125 12.234375 9.375 
Q 8.59375 20.453125 8.59375 31.390625 
Q 8.59375 42.28125 12.203125 53.3125 
Q 15.828125 64.359375 23.1875 75.875 
z
" id="DejaVuSans-40"/>
     <path d="M 52 44.1875 
Q 55.375 50.25 60.0625 53.125 
Q 64.75 56 71.09375 56 
Q 79.640625 56 84.28125 50.015625 
Q 88.921875 44.046875 88.921875 33.015625 
L 88.921875 0 
L 79.890625 0 
L 79.890625 32.71875 
Q 79.890625 40.578125 77.09375 44.375 
Q 74.3125 48.1875 68.609375 48.1875 
Q 61.625 48.1875 57.5625 43.546875 
Q 53.515625 38.921875 53.515625 30.90625 
L 53.515625 0 
L 44.484375 0 
L 44.484375 32.71875 
Q 44.484375 40.625 41.703125 44.40625 
Q 38.921875 48.1875 33.109375 48.1875 
Q 26.21875 48.1875 22.15625 43.53125 
Q 18.109375 38.875 18.109375 30.90625 
L 18.109375 0 
L 9.078125 0 
L 9.078125 54.6875 
L 18.109375 54.6875 
L 18.109375 46.1875 
Q 21.1875 51.21875 25.484375 53.609375 
Q 29.78125 56 35.6875 56 
Q 41.65625 56 45.828125 52.96875 
Q 50 49.953125 52 44.1875 
z
" id="DejaVuSans-109"/>
     <path d="M 8.015625 75.875 
L 15.828125 75.875 
Q 23.140625 64.359375 26.78125 53.3125 
Q 30.421875 42.28125 30.421875 31.390625 
Q 30.421875 20.453125 26.78125 9.375 
Q 23.140625 -1.703125 15.828125 -13.1875 
L 8.015625 -13.1875 
Q 14.5 -2 17.703125 9.0625 
Q 20.90625 20.125 20.90625 31.390625 
Q 20.90625 42.671875 17.703125 53.65625 
Q 14.5 64.65625 8.015625 75.875 
z
" id="DejaVuSans-41"/>
    </defs>
    <g style="fill:#262626;" transform="translate(732.11 65.712734)scale(0.095 -0.095)">
     <use xlink:href="#DejaVuSans-76"/>
     <use x="55.712891" xlink:href="#DejaVuSans-97"/>
     <use x="116.992188" xlink:href="#DejaVuSans-114"/>
     <use x="156.355469" xlink:href="#DejaVuSans-103"/>
     <use x="219.832031" xlink:href="#DejaVuSans-101"/>
     <use x="281.355469" xlink:href="#DejaVuSans-95"/>
     <use x="331.355469" xlink:href="#DejaVuSans-105"/>
     <use x="359.138672" xlink:href="#DejaVuSans-110"/>
     <use x="422.517578" xlink:href="#DejaVuSans-116"/>
     <use x="461.726562" xlink:href="#DejaVuSans-101"/>
     <use x="523.25" xlink:href="#DejaVuSans-115"/>
     <use x="575.349609" xlink:href="#DejaVuSans-116"/>
     <use x="614.558594" xlink:href="#DejaVuSans-105"/>
     <use x="642.341797" xlink:href="#DejaVuSans-110"/>
     <use x="705.720703" xlink:href="#DejaVuSans-101"/>
     <use x="767.244141" xlink:href="#DejaVuSans-40"/>
     <use x="806.257812" xlink:href="#DejaVuSans-72"/>
     <use x="881.453125" xlink:href="#DejaVuSans-117"/>
     <use x="944.832031" xlink:href="#DejaVuSans-109"/>
     <use x="1042.244141" xlink:href="#DejaVuSans-97"/>
     <use x="1103.523438" xlink:href="#DejaVuSans-110"/>
     <use x="1166.902344" xlink:href="#DejaVuSans-41"/>
    </g>
   </g>
   <g id="patch_70">
    <path d="M 705.51 79.921172 
L 724.51 79.921172 
L 724.51 73.271172 
L 705.51 73.271172 
z
" style="fill:#8da0cb;stroke:#ffffff;stroke-linejoin:miter;"/>
   </g>
   <g id="text_14">
    <!-- Oral(Human) -->
    <g style="fill:#262626;" transform="translate(732.11 79.921172)scale(0.095 -0.095)">
     <use xlink:href="#DejaVuSans-79"/>
     <use x="78.710938" xlink:href="#DejaVuSans-114"/>
     <use x="119.824219" xlink:href="#DejaVuSans-97"/>
     <use x="181.103516" xlink:href="#DejaVuSans-108"/>
     <use x="208.886719" xlink:href="#DejaVuSans-40"/>
     <use x="247.900391" xlink:href="#DejaVuSans-72"/>
     <use x="323.095703" xlink:href="#DejaVuSans-117"/>
     <use x="386.474609" xlink:href="#DejaVuSans-109"/>
     <use x="483.886719" xlink:href="#DejaVuSans-97"/>
     <use x="545.166016" xlink:href="#DejaVuSans-110"/>
     <use x="608.544922" xlink:href="#DejaVuSans-41"/>
    </g>
   </g>
   <g id="patch_71">
    <path d="M 705.51 93.865391 
L 724.51 93.865391 
L 724.51 87.215391 
L 705.51 87.215391 
z
" style="fill:#e78ac3;stroke:#ffffff;stroke-linejoin:miter;"/>
   </g>
   <g id="text_15">
    <!-- Large_intestine(Mammals) -->
    <g style="fill:#262626;" transform="translate(732.11 93.865391)scale(0.095 -0.095)">
     <use xlink:href="#DejaVuSans-76"/>
     <use x="55.712891" xlink:href="#DejaVuSans-97"/>
     <use x="116.992188" xlink:href="#DejaVuSans-114"/>
     <use x="156.355469" xlink:href="#DejaVuSans-103"/>
     <use x="219.832031" xlink:href="#DejaVuSans-101"/>
     <use x="281.355469" xlink:href="#DejaVuSans-95"/>
     <use x="331.355469" xlink:href="#DejaVuSans-105"/>
     <use x="359.138672" xlink:href="#DejaVuSans-110"/>
     <use x="422.517578" xlink:href="#DejaVuSans-116"/>
     <use x="461.726562" xlink:href="#DejaVuSans-101"/>
     <use x="523.25" xlink:href="#DejaVuSans-115"/>
     <use x="575.349609" xlink:href="#DejaVuSans-116"/>
     <use x="614.558594" xlink:href="#DejaVuSans-105"/>
     <use x="642.341797" xlink:href="#DejaVuSans-110"/>
     <use x="705.720703" xlink:href="#DejaVuSans-101"/>
     <use x="767.244141" xlink:href="#DejaVuSans-40"/>
     <use x="806.257812" xlink:href="#DejaVuSans-77"/>
     <use x="892.537109" xlink:href="#DejaVuSans-97"/>
     <use x="953.816406" xlink:href="#DejaVuSans-109"/>
     <use x="1051.228516" xlink:href="#DejaVuSans-109"/>
     <use x="1148.640625" xlink:href="#DejaVuSans-97"/>
     <use x="1209.919922" xlink:href="#DejaVuSans-108"/>
     <use x="1237.703125" xlink:href="#DejaVuSans-115"/>
     <use x="1289.802734" xlink:href="#DejaVuSans-41"/>
    </g>
   </g>
   <g id="patch_72">
    <path d="M 705.51 108.073828 
L 724.51 108.073828 
L 724.51 101.423828 
L 705.51 101.423828 
z
" style="fill:#a6d854;stroke:#ffffff;stroke-linejoin:miter;"/>
   </g>
   <g id="text_16">
    <!-- Forest_soil -->
    <g style="fill:#262626;" transform="translate(732.11 108.073828)scale(0.095 -0.095)">
     <use xlink:href="#DejaVuSans-70"/>
     <use x="53.894531" xlink:href="#DejaVuSans-111"/>
     <use x="115.076172" xlink:href="#DejaVuSans-114"/>
     <use x="153.939453" xlink:href="#DejaVuSans-101"/>
     <use x="215.462891" xlink:href="#DejaVuSans-115"/>
     <use x="267.5625" xlink:href="#DejaVuSans-116"/>
     <use x="306.771484" xlink:href="#DejaVuSans-95"/>
     <use x="356.771484" xlink:href="#DejaVuSans-115"/>
     <use x="408.871094" xlink:href="#DejaVuSans-111"/>
     <use x="470.052734" xlink:href="#DejaVuSans-105"/>
     <use x="497.835938" xlink:href="#DejaVuSans-108"/>
    </g>
   </g>
   <g id="patch_73">
    <path d="M 705.51 122.282266 
L 724.51 122.282266 
L 724.51 115.632266 
L 705.51 115.632266 
z
" style="fill:#ffd92f;stroke:#ffffff;stroke-linejoin:miter;"/>
   </g>
   <g id="text_17">
    <!-- Others -->
    <g style="fill:#262626;" transform="translate(732.11 122.282266)scale(0.095 -0.095)">
     <use xlink:href="#DejaVuSans-79"/>
     <use x="78.710938" xlink:href="#DejaVuSans-116"/>
     <use x="117.919922" xlink:href="#DejaVuSans-104"/>
     <use x="181.298828" xlink:href="#DejaVuSans-101"/>
     <use x="242.822266" xlink:href="#DejaVuSans-114"/>
     <use x="283.935547" xlink:href="#DejaVuSans-115"/>
    </g>
   </g>
  </g>
 </g>
</svg>
