<?xml version="1.0" encoding="utf-8" standalone="no"?>
<!DOCTYPE svg PUBLIC "-//W3C//DTD SVG 1.1//EN"
  "http://www.w3.org/Graphics/SVG/1.1/DTD/svg11.dtd">
<!-- Created with matplotlib (https://matplotlib.org/) -->
<svg height="144pt" version="1.1" viewBox="0 0 1728 144" width="1728pt" xmlns="http://www.w3.org/2000/svg" xmlns:xlink="http://www.w3.org/1999/xlink">
 <defs>
  <style type="text/css">
*{stroke-linecap:butt;stroke-linejoin:round;}
  </style>
 </defs>
 <g id="figure_1">
  <g id="patch_1">
   <path d="M 0 144 
L 1728 144 
L 1728 0 
L 0 0 
z
" style="fill:#ffffff;"/>
  </g>
  <g id="axes_1">
   <g id="patch_2">
    <path d="M 129.6 72 
C 129.6 64.849 128.268313 57.760134 125.673176 51.096647 
C 123.078039 44.43316 119.26455 38.310846 114.428119 33.043425 
C 109.591687 27.776004 103.816358 23.455009 97.39807 20.301857 
C 90.979782 17.148704 84.030068 15.218187 76.905044 14.609229 
C 69.78002 14.000272 62.603501 14.723455 55.743224 16.741722 
C 48.882948 18.75999 42.458128 22.038269 36.797985 26.408574 
C 31.137841 30.77888 26.340733 36.165267 22.652471 42.291728 
C 18.96421 48.418189 16.448889 55.178262 15.235398 62.225547 
C 14.021906 69.272833 14.131332 76.484868 15.558067 83.492094 
C 16.984803 90.49932 19.704055 97.179971 23.576484 103.191716 
C 27.448914 109.203461 32.407228 114.441833 38.197354 118.638408 
C 43.98748 122.834983 50.508799 125.916835 57.427149 127.726044 
C 64.345498 129.535253 71.540654 130.040381 78.643923 129.215542 
C 85.747193 128.390704 92.635139 126.250233 98.954812 122.903813 
C 105.274484 119.557392 110.916063 115.063172 115.590464 109.651447 
C 120.264865 104.239721 123.890858 98.004531 126.282641 91.26538 
L 72 72 
L 129.6 72 
z
" style="fill:#66c2a5;stroke:#ffffff;stroke-linejoin:miter;"/>
   </g>
   <g id="patch_3">
    <path d="M 126.282641 91.26538 
C 126.286675 91.254015 126.290704 91.242649 126.294731 91.231283 
C 126.298757 91.219916 126.302779 91.208547 126.306798 91.197178 
L 72 72 
L 126.282641 91.26538 
z
" style="fill:#fc8d62;stroke:#ffffff;stroke-linejoin:miter;"/>
   </g>
   <g id="patch_4">
    <path d="M 126.306798 91.197178 
C 127.376484 88.171149 128.191381 85.061002 128.742976 81.899227 
C 129.294571 78.737452 129.580936 75.535099 129.59908 72.325621 
L 72 72 
L 126.306798 91.197178 
z
" style="fill:#8da0cb;stroke:#ffffff;stroke-linejoin:miter;"/>
   </g>
   <g id="patch_5">
    <path d="M 129.59908 72.325621 
C 129.599318 72.283415 129.59951 72.24121 129.599656 72.199004 
C 129.599802 72.156798 129.599901 72.114592 129.599955 72.072386 
L 72 72 
L 129.59908 72.325621 
z
" style="fill:#e78ac3;stroke:#ffffff;stroke-linejoin:miter;"/>
   </g>
   <g id="patch_6">
    <path d="M 129.599955 72.072386 
C 129.599962 72.066356 129.599969 72.060327 129.599974 72.054297 
C 129.59998 72.048268 129.599985 72.042239 129.599989 72.036209 
L 72 72 
L 129.599955 72.072386 
z
" style="fill:#a6d854;stroke:#ffffff;stroke-linejoin:miter;"/>
   </g>
   <g id="patch_7">
    <path d="M 129.599989 72.036209 
C 129.599992 72.03018 129.599995 72.02415 129.599997 72.018121 
C 129.599999 72.012091 129.6 72.006062 129.6 72.000032 
L 72 72 
L 129.599989 72.036209 
z
" style="fill:#ffd92f;stroke:#ffffff;stroke-linejoin:miter;"/>
   </g>
  </g>
  <g id="axes_2">
   <g id="patch_8">
    <path d="M 273.6 72 
C 273.6 64.473312 272.124713 57.019091 269.257752 50.059812 
C 266.390791 43.100533 262.187363 36.770203 256.8857 31.427601 
C 251.584037 26.084999 245.286228 21.833 238.349208 18.912592 
C 231.412189 15.992184 223.969536 14.459601 216.443071 14.401704 
C 208.916606 14.343807 201.451257 15.761711 194.470131 18.575055 
C 187.489004 21.388399 181.126528 25.543009 175.743303 30.803419 
C 170.360077 36.063828 166.05976 42.328743 163.086077 49.243094 
C 160.112395 56.157444 158.522607 63.588087 158.406816 71.113884 
C 158.291026 78.639681 159.651463 86.115716 162.411024 93.118277 
C 165.170584 100.120837 169.27613 106.515083 174.494975 111.938614 
C 179.71382 117.362144 185.945471 121.710525 192.836742 124.737306 
C 199.728014 127.764088 207.146208 129.410987 214.670892 129.584664 
C 222.195575 129.75834 229.681854 128.455451 236.705435 125.749837 
C 243.729015 123.044224 250.154653 118.987985 255.618167 113.811013 
C 261.081682 108.634042 265.477869 102.436024 268.55757 95.568239 
C 271.637271 88.700454 273.341183 81.295147 273.572736 73.772022 
L 216 72 
L 273.6 72 
z
" style="fill:#66c2a5;stroke:#ffffff;stroke-linejoin:miter;"/>
   </g>
   <g id="patch_9">
    <path d="M 273.572736 73.772022 
C 273.573107 73.759971 273.573474 73.74792 273.573837 73.735869 
C 273.574201 73.723818 273.57456 73.711767 273.574916 73.699716 
L 216 72 
L 273.572736 73.772022 
z
" style="fill:#fc8d62;stroke:#ffffff;stroke-linejoin:miter;"/>
   </g>
   <g id="patch_10">
    <path d="M 273.574916 73.699716 
C 273.582743 73.434588 273.588739 73.169409 273.592903 72.904198 
C 273.597066 72.638987 273.599398 72.37375 273.599898 72.108507 
L 216 72 
L 273.574916 73.699716 
z
" style="fill:#8da0cb;stroke:#ffffff;stroke-linejoin:miter;"/>
   </g>
   <g id="patch_11">
    <path d="M 273.599898 72.108507 
C 273.599909 72.102479 273.59992 72.09645 273.599929 72.090422 
C 273.599938 72.084394 273.599947 72.078366 273.599955 72.072338 
L 216 72 
L 273.599898 72.108507 
z
" style="fill:#e78ac3;stroke:#ffffff;stroke-linejoin:miter;"/>
   </g>
   <g id="patch_12">
    <path d="M 273.599955 72.072338 
C 273.599962 72.066309 273.599969 72.060281 273.599974 72.054253 
C 273.59998 72.048225 273.599985 72.042196 273.599989 72.036168 
L 216 72 
L 273.599955 72.072338 
z
" style="fill:#a6d854;stroke:#ffffff;stroke-linejoin:miter;"/>
   </g>
   <g id="patch_13">
    <path d="M 273.599989 72.036168 
C 273.599992 72.03014 273.599995 72.024112 273.599997 72.018083 
C 273.599999 72.012055 273.6 72.006027 273.6 71.999999 
L 216 72 
L 273.599989 72.036168 
z
" style="fill:#ffd92f;stroke:#ffffff;stroke-linejoin:miter;"/>
   </g>
  </g>
  <g id="axes_3">
   <g id="patch_14">
    <path d="M 417.6 72 
C 417.6 64.931285 416.298783 57.922581 413.761523 51.324927 
C 411.224263 44.727273 407.494039 38.652692 402.757686 33.405437 
C 398.021333 28.158182 392.359268 23.827347 386.055085 20.629848 
C 379.750902 17.432348 372.911639 15.422475 365.879851 14.700896 
C 358.848062 13.979316 351.743141 14.558282 344.920947 16.408794 
C 338.098753 18.259307 331.675121 21.349946 325.971786 25.525914 
C 320.268452 29.701881 315.382253 34.892273 311.557922 40.837121 
C 307.73359 46.781968 305.036059 53.380334 303.600439 60.30173 
C 302.164819 67.223126 302.015484 74.350033 303.159915 81.32549 
C 304.304346 88.300948 306.723112 95.006519 310.295064 101.106345 
C 313.867016 107.206172 318.531507 112.596685 324.054909 117.007893 
C 329.578311 121.419101 335.866842 124.776106 342.605532 126.910768 
C 349.344222 129.04543 356.418655 129.921505 363.474497 129.495112 
C 370.53034 129.068719 377.447791 127.347098 383.88038 124.416481 
C 390.31297 121.485863 396.151478 117.396006 401.103475 112.351757 
C 406.055473 107.307508 410.03688 101.394513 412.848281 94.908933 
L 360 72 
L 417.6 72 
z
" style="fill:#66c2a5;stroke:#ffffff;stroke-linejoin:miter;"/>
   </g>
   <g id="patch_15">
    <path d="M 412.848281 94.908933 
C 412.85068 94.903399 412.853078 94.897864 412.855475 94.892329 
C 412.857872 94.886794 412.860269 94.881259 412.862664 94.875723 
L 360 72 
L 412.848281 94.908933 
z
" style="fill:#fc8d62;stroke:#ffffff;stroke-linejoin:miter;"/>
   </g>
   <g id="patch_16">
    <path d="M 412.862664 94.875723 
C 412.90818 94.770544 412.953381 94.665228 412.998268 94.559779 
C 413.043154 94.45433 413.087726 94.348746 413.131983 94.243031 
L 360 72 
L 412.862664 94.875723 
z
" style="fill:#8da0cb;stroke:#ffffff;stroke-linejoin:miter;"/>
   </g>
   <g id="patch_17">
    <path d="M 413.131983 94.243031 
C 414.551598 90.851992 415.64332 87.332822 416.392199 83.733707 
C 417.141079 80.134592 417.543682 76.472035 417.594497 72.796185 
L 360 72 
L 413.131983 94.243031 
z
" style="fill:#e78ac3;stroke:#ffffff;stroke-linejoin:miter;"/>
   </g>
   <g id="patch_18">
    <path d="M 417.594497 72.796185 
C 417.59458 72.790154 417.594663 72.784123 417.594744 72.778091 
C 417.594826 72.77206 417.594906 72.766029 417.594986 72.759998 
L 360 72 
L 417.594497 72.796185 
z
" style="fill:#a6d854;stroke:#ffffff;stroke-linejoin:miter;"/>
   </g>
   <g id="patch_19">
    <path d="M 417.594986 72.759998 
C 417.595066 72.753966 417.595144 72.747935 417.595222 72.741904 
C 417.5953 72.735872 417.595376 72.729841 417.595452 72.723809 
L 360 72 
L 417.594986 72.759998 
z
" style="fill:#ffd92f;stroke:#ffffff;stroke-linejoin:miter;"/>
   </g>
  </g>
  <g id="axes_4">
   <g id="patch_20">
    <path d="M 561.6 72 
C 561.6 65.436955 560.478293 58.921927 558.283408 52.73678 
C 556.088523 46.551634 552.852577 40.786873 548.715569 35.691903 
C 544.57856 30.596933 539.601025 26.246305 533.998309 22.828245 
C 528.395593 19.410186 522.249678 16.974708 515.826461 15.62718 
C 509.403243 14.279652 502.796709 14.039793 496.292684 14.917978 
C 489.788658 15.796163 483.48231 17.779543 477.646477 20.782309 
C 471.810644 23.785076 466.530717 27.763291 462.035128 32.544842 
C 457.539538 37.326393 453.894066 42.841314 451.25643 48.851009 
C 448.618793 54.860704 447.027587 61.277236 446.551652 67.823001 
C 446.075718 74.368766 446.722019 80.947985 448.462595 87.276014 
C 450.20317 93.604043 453.012552 99.588289 456.769194 104.969849 
C 460.525836 110.35141 465.174771 115.051541 470.514867 118.866895 
C 475.854963 122.68225 481.808082 125.557001 488.116669 127.366775 
C 494.425257 129.17655 500.997002 129.894866 507.547587 129.490648 
C 514.098172 129.08643 520.531746 127.565591 526.569967 124.99393 
C 532.608188 122.422268 538.162703 118.837413 542.993202 114.39446 
L 504 72 
L 561.6 72 
z
" style="fill:#66c2a5;stroke:#ffffff;stroke-linejoin:miter;"/>
   </g>
   <g id="patch_21">
    <path d="M 542.993202 114.39446 
C 542.99764 114.390378 543.002077 114.386295 543.006513 114.382212 
C 543.01095 114.378129 543.015386 114.374045 543.019821 114.369961 
L 504 72 
L 542.993202 114.39446 
z
" style="fill:#fc8d62;stroke:#ffffff;stroke-linejoin:miter;"/>
   </g>
   <g id="patch_22">
    <path d="M 543.019821 114.369961 
C 548.299593 109.507654 552.624301 103.701031 555.770711 97.249821 
C 558.917122 90.79861 560.83015 83.815753 561.41105 76.661693 
L 504 72 
L 543.019821 114.369961 
z
" style="fill:#8da0cb;stroke:#ffffff;stroke-linejoin:miter;"/>
   </g>
   <g id="patch_23">
    <path d="M 561.41105 76.661693 
C 561.473025 75.89844 561.519773 75.134027 561.551266 74.36891 
C 561.58276 73.603793 561.598993 72.838124 561.599955 72.072359 
L 504 72 
L 561.41105 76.661693 
z
" style="fill:#e78ac3;stroke:#ffffff;stroke-linejoin:miter;"/>
   </g>
   <g id="patch_24">
    <path d="M 561.599955 72.072359 
C 561.599962 72.06633 561.599969 72.060301 561.599974 72.054271 
C 561.59998 72.048242 561.599985 72.042212 561.599989 72.036183 
L 504 72 
L 561.599955 72.072359 
z
" style="fill:#a6d854;stroke:#ffffff;stroke-linejoin:miter;"/>
   </g>
   <g id="patch_25">
    <path d="M 561.599989 72.036183 
C 561.599992 72.030153 561.599995 72.024124 561.599997 72.018094 
C 561.599999 72.012065 561.6 72.006036 561.6 72.000006 
L 504 72 
L 561.599989 72.036183 
z
" style="fill:#ffd92f;stroke:#ffffff;stroke-linejoin:miter;"/>
   </g>
  </g>
  <g id="axes_5">
   <g id="patch_26">
    <path d="M 705.6 72 
C 705.6 71.511706 705.593791 71.023431 705.581374 70.535295 
C 705.568957 70.047159 705.550334 69.5592 705.525508 69.071538 
L 648 72 
L 705.6 72 
z
" style="fill:#66c2a5;stroke:#ffffff;stroke-linejoin:miter;"/>
   </g>
   <g id="patch_27">
    <path d="M 705.525508 69.071538 
C 705.525202 69.065517 705.524894 69.059497 705.524586 69.053477 
C 705.524278 69.047456 705.523968 69.041436 705.523658 69.035416 
L 648 72 
L 705.525508 69.071538 
z
" style="fill:#fc8d62;stroke:#ffffff;stroke-linejoin:miter;"/>
   </g>
   <g id="patch_28">
    <path d="M 705.523658 69.035416 
C 705.13909 61.573396 703.3062 54.257006 700.12739 47.494995 
C 696.948579 40.732985 692.484168 34.653669 686.983573 29.596686 
C 681.482977 24.539702 675.050577 20.601013 668.045736 18.000662 
C 661.040894 15.400312 653.596535 14.187645 646.128557 14.43041 
C 638.66058 14.673175 631.310695 16.366766 624.489526 19.416565 
C 617.668357 22.466365 611.50534 26.8145 606.344791 32.21805 
C 601.184241 37.6216 597.124085 43.978028 594.391153 50.932215 
C 591.658222 57.886401 590.304375 65.306384 590.405249 72.777626 
C 590.506124 80.248868 592.059805 87.629594 594.979493 94.507461 
C 597.89918 101.385327 602.12947 107.629821 607.434026 112.892074 
C 612.738582 118.154328 619.016744 122.334486 625.917767 125.199013 
C 632.818789 128.06354 640.211719 129.558078 647.683529 129.599131 
C 655.155338 129.640184 662.564244 128.226972 669.496327 125.43845 
C 676.428409 122.649928 682.752126 118.539009 688.114185 113.335362 
C 693.476245 108.131714 697.774897 101.934082 700.769985 95.088714 
C 703.765073 88.243345 705.399763 80.880137 705.582728 73.410455 
L 648 72 
L 705.523658 69.035416 
z
" style="fill:#8da0cb;stroke:#ffffff;stroke-linejoin:miter;"/>
   </g>
   <g id="patch_29">
    <path d="M 705.582728 73.410455 
C 705.582876 73.404428 705.583023 73.398402 705.583168 73.392375 
C 705.583314 73.386349 705.583459 73.380322 705.583603 73.374296 
L 648 72 
L 705.582728 73.410455 
z
" style="fill:#e78ac3;stroke:#ffffff;stroke-linejoin:miter;"/>
   </g>
   <g id="patch_30">
    <path d="M 705.583603 73.374296 
C 705.588925 73.151314 705.592951 72.928303 705.595682 72.705274 
C 705.598413 72.482245 705.599849 72.259202 705.599989 72.036157 
L 648 72 
L 705.583603 73.374296 
z
" style="fill:#a6d854;stroke:#ffffff;stroke-linejoin:miter;"/>
   </g>
   <g id="patch_31">
    <path d="M 705.599989 72.036157 
C 705.599992 72.030128 705.599995 72.0241 705.599997 72.018072 
C 705.599999 72.012044 705.6 72.006015 705.6 71.999987 
L 648 72 
L 705.599989 72.036157 
z
" style="fill:#ffd92f;stroke:#ffffff;stroke-linejoin:miter;"/>
   </g>
  </g>
  <g id="axes_6"/>
  <g id="axes_7"/>
  <g id="axes_8">
   <g id="patch_32">
    <path d="M 1137.6 72 
C 1137.6 56.863908 1131.633821 42.32156 1121.003523 31.54668 
C 1110.373224 20.7718 1095.912797 14.60972 1080.778086 14.405256 
C 1065.643375 14.200791 1051.02176 19.969981 1040.104264 30.453758 
C 1029.186768 40.937534 1022.829914 55.313403 1022.421021 70.443971 
L 1080 72 
L 1137.6 72 
z
" style="fill:#66c2a5;stroke:#ffffff;stroke-linejoin:miter;"/>
   </g>
   <g id="patch_33">
    <path d="M 1022.421021 70.443971 
C 1022.418414 70.540445 1022.41605 70.636926 1022.413927 70.733413 
C 1022.411805 70.829899 1022.409926 70.926391 1022.408288 71.022886 
L 1080 72 
L 1022.421021 70.443971 
z
" style="fill:#fc8d62;stroke:#ffffff;stroke-linejoin:miter;"/>
   </g>
   <g id="patch_34">
    <path d="M 1022.408288 71.022886 
C 1022.206217 82.933101 1025.703662 94.61773 1032.416172 104.458271 
C 1039.128682 114.298811 1048.731326 121.818913 1059.893986 125.976923 
C 1071.056646 130.134933 1083.238973 130.729576 1094.753523 127.678484 
C 1106.268074 124.627391 1116.557464 118.078258 1124.196451 108.938242 
L 1080 72 
L 1022.408288 71.022886 
z
" style="fill:#8da0cb;stroke:#ffffff;stroke-linejoin:miter;"/>
   </g>
   <g id="patch_35">
    <path d="M 1124.196451 108.938242 
C 1124.208056 108.924357 1124.219654 108.910467 1124.231245 108.896571 
C 1124.242836 108.882676 1124.254421 108.868774 1124.266 108.854868 
L 1080 72 
L 1124.196451 108.938242 
z
" style="fill:#e78ac3;stroke:#ffffff;stroke-linejoin:miter;"/>
   </g>
   <g id="patch_36">
    <path d="M 1124.266 108.854868 
C 1128.533574 103.729128 1131.878606 97.900881 1134.151694 91.630436 
C 1136.424782 85.359992 1137.591573 78.742114 1137.599955 72.072382 
L 1080 72 
L 1124.266 108.854868 
z
" style="fill:#a6d854;stroke:#ffffff;stroke-linejoin:miter;"/>
   </g>
   <g id="patch_37">
    <path d="M 1137.599955 72.072382 
C 1137.599962 72.06635 1137.599969 72.060318 1137.599974 72.054286 
C 1137.59998 72.048254 1137.599985 72.042222 1137.599989 72.036191 
L 1080 72 
L 1137.599955 72.072382 
z
" style="fill:#ffd92f;stroke:#ffffff;stroke-linejoin:miter;"/>
   </g>
  </g>
  <g id="axes_9">
   <g id="patch_38">
    <path d="M 1281.6 72 
C 1281.6 64.583655 1280.167652 57.23663 1277.38181 50.363402 
C 1274.595968 43.490174 1270.508712 37.219231 1265.345057 31.895807 
C 1260.181402 26.572383 1254.037877 22.295995 1247.252703 19.30207 
C 1240.467528 16.308145 1233.167547 14.652653 1225.754643 14.426732 
C 1218.34174 14.200811 1210.954492 15.408685 1203.99959 17.983858 
C 1197.044688 20.559031 1190.652147 24.453361 1185.173895 29.452455 
C 1179.695644 34.451548 1175.234093 40.461952 1172.034864 47.152775 
C 1168.835634 53.843598 1166.958534 61.089761 1166.506902 68.492342 
C 1166.05527 75.894923 1167.037549 83.315537 1169.399663 90.345658 
C 1171.761776 97.375779 1175.459566 103.883984 1180.289458 109.511979 
C 1185.11935 115.139973 1190.991054 119.782546 1197.581315 123.18411 
C 1204.171576 126.585674 1211.357196 128.68264 1218.742583 129.359564 
C 1226.127971 130.036488 1233.575064 129.280715 1240.673878 127.133853 
C 1247.772692 124.986992 1254.390522 121.489174 1260.163035 116.832967 
C 1265.935548 112.176759 1270.754833 106.449205 1274.355575 99.965623 
C 1277.956317 93.482041 1280.271202 86.363635 1281.172789 79.002296 
L 1224 72 
L 1281.6 72 
z
" style="fill:#66c2a5;stroke:#ffffff;stroke-linejoin:miter;"/>
   </g>
   <g id="patch_39">
    <path d="M 1281.172789 79.002296 
C 1281.183053 78.918493 1281.193133 78.834667 1281.203028 78.75082 
C 1281.212923 78.666973 1281.222634 78.583104 1281.232161 78.499214 
L 1224 72 
L 1281.172789 79.002296 
z
" style="fill:#fc8d62;stroke:#ffffff;stroke-linejoin:miter;"/>
   </g>
   <g id="patch_40">
    <path d="M 1281.232161 78.499214 
C 1281.351249 77.450524 1281.441491 76.398758 1281.502785 75.345109 
C 1281.564079 74.291459 1281.596401 73.236325 1281.599716 72.180899 
L 1224 72 
L 1281.232161 78.499214 
z
" style="fill:#8da0cb;stroke:#ffffff;stroke-linejoin:miter;"/>
   </g>
   <g id="patch_41">
    <path d="M 1281.599716 72.180899 
C 1281.599773 72.162807 1281.599821 72.144715 1281.599861 72.126624 
C 1281.599901 72.108532 1281.599932 72.09044 1281.599955 72.072348 
L 1224 72 
L 1281.599716 72.180899 
z
" style="fill:#e78ac3;stroke:#ffffff;stroke-linejoin:miter;"/>
   </g>
   <g id="patch_42">
    <path d="M 1281.599955 72.072348 
C 1281.599962 72.066317 1281.599969 72.060286 1281.599974 72.054256 
C 1281.59998 72.048225 1281.599985 72.042194 1281.599989 72.036164 
L 1224 72 
L 1281.599955 72.072348 
z
" style="fill:#a6d854;stroke:#ffffff;stroke-linejoin:miter;"/>
   </g>
   <g id="patch_43">
    <path d="M 1281.599989 72.036164 
C 1281.599992 72.030133 1281.599995 72.024103 1281.599997 72.018072 
C 1281.599999 72.012041 1281.6 72.006011 1281.6 71.99998 
L 1224 72 
L 1281.599989 72.036164 
z
" style="fill:#ffd92f;stroke:#ffffff;stroke-linejoin:miter;"/>
   </g>
  </g>
  <g id="axes_10">
   <g id="patch_44">
    <path d="M 1425.6 72 
C 1425.6 62.894675 1423.440965 53.917789 1419.300612 45.808262 
C 1415.16026 37.698734 1409.155398 30.685351 1401.780307 25.345409 
C 1394.405216 20.005467 1385.867963 16.489615 1376.871278 15.087256 
C 1367.874593 13.684897 1358.672291 14.435594 1350.021845 17.277555 
L 1368 72 
L 1425.6 72 
z
" style="fill:#66c2a5;stroke:#ffffff;stroke-linejoin:miter;"/>
   </g>
   <g id="patch_45">
    <path d="M 1350.021845 17.277555 
C 1350.016118 17.279437 1350.010391 17.281319 1350.004665 17.283203 
C 1349.998938 17.285086 1349.993212 17.28697 1349.987486 17.288855 
L 1368 72 
L 1350.021845 17.277555 
z
" style="fill:#fc8d62;stroke:#ffffff;stroke-linejoin:miter;"/>
   </g>
   <g id="patch_46">
    <path d="M 1349.987486 17.288855 
C 1339.916233 20.604607 1330.953417 26.637736 1324.090994 34.720526 
C 1317.228571 42.803316 1312.729406 52.626158 1311.091442 63.101912 
C 1309.453477 73.577666 1310.739456 84.30506 1314.807053 94.096842 
C 1318.87465 103.888624 1325.568056 112.369723 1334.146481 118.601494 
C 1342.724905 124.833265 1352.859754 128.577003 1363.429354 129.41837 
C 1373.998953 130.259737 1384.598439 128.166504 1394.054715 123.37034 
C 1403.510991 118.574176 1411.461837 111.258796 1417.027294 102.23383 
C 1422.592751 93.208863 1425.559637 82.820008 1425.599591 72.217048 
L 1368 72 
L 1349.987486 17.288855 
z
" style="fill:#8da0cb;stroke:#ffffff;stroke-linejoin:miter;"/>
   </g>
   <g id="patch_47">
    <path d="M 1425.599591 72.217048 
C 1425.599659 72.198964 1425.599719 72.180879 1425.59977 72.162794 
C 1425.599821 72.14471 1425.599864 72.126625 1425.599898 72.10854 
L 1368 72 
L 1425.599591 72.217048 
z
" style="fill:#e78ac3;stroke:#ffffff;stroke-linejoin:miter;"/>
   </g>
   <g id="patch_48">
    <path d="M 1425.599898 72.10854 
C 1425.59992 72.096484 1425.599939 72.084428 1425.599955 72.072371 
C 1425.59997 72.060315 1425.599981 72.048258 1425.599989 72.036202 
L 1368 72 
L 1425.599898 72.10854 
z
" style="fill:#a6d854;stroke:#ffffff;stroke-linejoin:miter;"/>
   </g>
   <g id="patch_49">
    <path d="M 1425.599989 72.036202 
C 1425.599992 72.030173 1425.599995 72.024145 1425.599997 72.018117 
C 1425.599999 72.012089 1425.6 72.00606 1425.6 72.000032 
L 1368 72 
L 1425.599989 72.036202 
z
" style="fill:#ffd92f;stroke:#ffffff;stroke-linejoin:miter;"/>
   </g>
  </g>
  <g id="axes_11">
   <g id="patch_50">
    <path d="M 1569.6 72 
C 1569.6 65.531838 1568.510492 59.109638 1566.377275 53.00337 
C 1564.244058 46.897102 1561.09745 41.193547 1557.069724 36.132466 
C 1553.041998 31.071385 1548.190395 26.724704 1542.718863 23.275145 
C 1537.247331 19.825587 1531.233628 17.322174 1524.930556 15.870144 
C 1518.627483 14.418114 1512.124616 14.038102 1505.695317 14.746083 
C 1499.266019 15.454064 1493.001659 17.239977 1487.165574 20.028746 
C 1481.329489 22.817515 1476.004619 26.569507 1471.414807 31.127 
C 1466.824995 35.684493 1463.035469 40.982718 1460.20553 46.79895 
C 1457.375592 52.615183 1455.545458 58.866767 1454.792063 65.290902 
C 1454.038669 71.715038 1454.37272 78.220428 1455.780174 84.533604 
C 1457.187629 90.846779 1459.648485 96.878021 1463.059294 102.373792 
C 1466.470103 107.869563 1470.782393 112.75176 1475.814886 116.815149 
C 1480.84738 120.878537 1486.528558 124.06537 1492.619599 126.241682 
C 1498.71064 128.417994 1505.124982 129.552856 1511.592982 129.598562 
C 1518.060983 129.644268 1524.490722 128.600168 1530.611911 126.510153 
C 1536.7331 124.420138 1542.458747 121.313911 1547.548163 117.322049 
L 1512 72 
L 1569.6 72 
z
" style="fill:#66c2a5;stroke:#ffffff;stroke-linejoin:miter;"/>
   </g>
   <g id="patch_51">
    <path d="M 1547.548163 117.322049 
C 1547.552907 117.318328 1547.557651 117.314606 1547.562394 117.310883 
C 1547.567137 117.30716 1547.57188 117.303437 1547.576622 117.299713 
L 1512 72 
L 1547.548163 117.322049 
z
" style="fill:#fc8d62;stroke:#ffffff;stroke-linejoin:miter;"/>
   </g>
   <g id="patch_52">
    <path d="M 1547.576622 117.299713 
C 1554.385866 111.951999 1559.902527 105.137167 1563.715066 97.363595 
C 1567.527605 89.590024 1569.538802 81.055942 1569.598625 72.397981 
L 1512 72 
L 1547.576622 117.299713 
z
" style="fill:#8da0cb;stroke:#ffffff;stroke-linejoin:miter;"/>
   </g>
   <g id="patch_53">
    <path d="M 1569.598625 72.397981 
C 1569.599 72.343717 1569.599298 72.289453 1569.59952 72.235189 
C 1569.599741 72.180924 1569.599886 72.126659 1569.599955 72.072394 
L 1512 72 
L 1569.598625 72.397981 
z
" style="fill:#e78ac3;stroke:#ffffff;stroke-linejoin:miter;"/>
   </g>
   <g id="patch_54">
    <path d="M 1569.599955 72.072394 
C 1569.599962 72.066365 1569.599969 72.060335 1569.599974 72.054306 
C 1569.59998 72.048276 1569.599985 72.042247 1569.599989 72.036217 
L 1512 72 
L 1569.599955 72.072394 
z
" style="fill:#a6d854;stroke:#ffffff;stroke-linejoin:miter;"/>
   </g>
   <g id="patch_55">
    <path d="M 1569.599989 72.036217 
C 1569.599992 72.030188 1569.599995 72.024159 1569.599997 72.018129 
C 1569.599999 72.0121 1569.6 72.00607 1569.6 72.000041 
L 1512 72 
L 1569.599989 72.036217 
z
" style="fill:#ffd92f;stroke:#ffffff;stroke-linejoin:miter;"/>
   </g>
  </g>
  <g id="axes_12">
   <g id="patch_56">
    <path d="M 1713.6 72 
C 1713.6 66.764935 1712.886305 61.554224 1711.47865 56.511961 
C 1710.070996 51.469699 1707.982479 46.642797 1705.270856 42.16474 
L 1656 72 
L 1713.6 72 
z
" style="fill:#66c2a5;stroke:#ffffff;stroke-linejoin:miter;"/>
   </g>
   <g id="patch_57">
    <path d="M 1705.270856 42.16474 
C 1705.261488 42.149269 1705.252112 42.133802 1705.242729 42.11834 
C 1705.233346 42.102877 1705.223956 42.087419 1705.214559 42.071966 
L 1656 72 
L 1705.270856 42.16474 
z
" style="fill:#fc8d62;stroke:#ffffff;stroke-linejoin:miter;"/>
   </g>
   <g id="patch_58">
    <path d="M 1705.214559 42.071966 
C 1701.629278 36.176223 1697.013562 30.972427 1691.587863 26.709118 
C 1686.162163 22.445808 1680.014256 19.191956 1673.437771 17.102968 
C 1666.861286 15.01398 1659.962617 14.123652 1653.071251 14.474506 
C 1646.179885 14.825361 1639.40731 16.411722 1633.07699 19.157824 
C 1626.74667 21.903925 1620.961017 25.765341 1615.996358 30.557647 
C 1611.0317 35.349952 1606.968354 40.995618 1604.00039 47.225001 
C 1601.032426 53.454384 1599.20786 60.166707 1598.613834 67.041382 
C 1598.019807 73.916057 1598.665931 80.841866 1600.521346 87.488028 
C 1602.376762 94.134189 1605.411451 100.393181 1609.480475 105.966068 
C 1613.549498 111.538955 1618.587029 116.335579 1624.352468 120.12685 
C 1630.117907 123.918121 1636.517983 126.642703 1643.247021 128.170469 
C 1649.97606 129.698234 1656.925199 130.004466 1663.762542 129.074538 
C 1670.599885 128.144611 1677.214818 125.993569 1683.291405 122.724148 
C 1689.367992 119.454727 1694.807927 115.119819 1699.351393 109.926464 
C 1703.89486 104.733109 1707.468354 98.765324 1709.901202 92.308136 
C 1712.334051 85.850949 1713.586895 79.008822 1713.599898 72.108542 
L 1656 72 
L 1705.214559 42.071966 
z
" style="fill:#8da0cb;stroke:#ffffff;stroke-linejoin:miter;"/>
   </g>
   <g id="patch_59">
    <path d="M 1713.599898 72.108542 
C 1713.599909 72.102513 1713.59992 72.096485 1713.599929 72.090456 
C 1713.599938 72.084427 1713.599947 72.078398 1713.599955 72.072369 
L 1656 72 
L 1713.599898 72.108542 
z
" style="fill:#e78ac3;stroke:#ffffff;stroke-linejoin:miter;"/>
   </g>
   <g id="patch_60">
    <path d="M 1713.599955 72.072369 
C 1713.599962 72.06634 1713.599969 72.060312 1713.599974 72.054283 
C 1713.59998 72.048254 1713.599985 72.042225 1713.599989 72.036196 
L 1656 72 
L 1713.599955 72.072369 
z
" style="fill:#a6d854;stroke:#ffffff;stroke-linejoin:miter;"/>
   </g>
   <g id="patch_61">
    <path d="M 1713.599989 72.036196 
C 1713.599992 72.030167 1713.599995 72.024139 1713.599997 72.01811 
C 1713.599999 72.012081 1713.6 72.006052 1713.6 72.000023 
L 1656 72 
L 1713.599989 72.036196 
z
" style="fill:#ffd92f;stroke:#ffffff;stroke-linejoin:miter;"/>
   </g>
  </g>
  <g id="text_1">
   <!-- ONN4MST Layer-6 -->
   <defs>
    <path d="M 42.484375 60.59375 
Q 33.890625 60.59375 29.15625 54.25 
Q 24.421875 47.90625 24.421875 36.375 
Q 24.421875 24.90625 29.15625 18.546875 
Q 33.890625 12.203125 42.484375 12.203125 
Q 51.125 12.203125 55.859375 18.546875 
Q 60.59375 24.90625 60.59375 36.375 
Q 60.59375 47.90625 55.859375 54.25 
Q 51.125 60.59375 42.484375 60.59375 
z
M 42.484375 74.21875 
Q 60.0625 74.21875 70.015625 64.15625 
Q 79.984375 54.109375 79.984375 36.375 
Q 79.984375 18.703125 70.015625 8.640625 
Q 60.0625 -1.421875 42.484375 -1.421875 
Q 24.953125 -1.421875 14.96875 8.640625 
Q 4.984375 18.703125 4.984375 36.375 
Q 4.984375 54.109375 14.96875 64.15625 
Q 24.953125 74.21875 42.484375 74.21875 
z
" id="DejaVuSans-Bold-79"/>
    <path d="M 9.1875 72.90625 
L 30.171875 72.90625 
L 56.6875 22.90625 
L 56.6875 72.90625 
L 74.515625 72.90625 
L 74.515625 0 
L 53.515625 0 
L 27 50 
L 27 0 
L 9.1875 0 
z
" id="DejaVuSans-Bold-78"/>
    <path d="M 36.8125 57.421875 
L 16.21875 26.90625 
L 36.8125 26.90625 
z
M 33.6875 72.90625 
L 54.59375 72.90625 
L 54.59375 26.90625 
L 64.984375 26.90625 
L 64.984375 13.28125 
L 54.59375 13.28125 
L 54.59375 0 
L 36.8125 0 
L 36.8125 13.28125 
L 4.5 13.28125 
L 4.5 29.390625 
z
" id="DejaVuSans-Bold-52"/>
    <path d="M 9.1875 72.90625 
L 33.109375 72.90625 
L 49.703125 33.890625 
L 66.40625 72.90625 
L 90.28125 72.90625 
L 90.28125 0 
L 72.515625 0 
L 72.515625 53.328125 
L 55.71875 14.015625 
L 43.796875 14.015625 
L 27 53.328125 
L 27 0 
L 9.1875 0 
z
" id="DejaVuSans-Bold-77"/>
    <path d="M 59.90625 70.609375 
L 59.90625 55.171875 
Q 53.90625 57.859375 48.1875 59.21875 
Q 42.484375 60.59375 37.40625 60.59375 
Q 30.671875 60.59375 27.4375 58.734375 
Q 24.21875 56.890625 24.21875 52.984375 
Q 24.21875 50.046875 26.390625 48.40625 
Q 28.5625 46.78125 34.28125 45.609375 
L 42.28125 44 
Q 54.4375 41.546875 59.5625 36.5625 
Q 64.703125 31.59375 64.703125 22.40625 
Q 64.703125 10.359375 57.546875 4.46875 
Q 50.390625 -1.421875 35.6875 -1.421875 
Q 28.765625 -1.421875 21.78125 -0.09375 
Q 14.796875 1.21875 7.8125 3.8125 
L 7.8125 19.671875 
Q 14.796875 15.96875 21.3125 14.078125 
Q 27.828125 12.203125 33.890625 12.203125 
Q 40.046875 12.203125 43.3125 14.25 
Q 46.578125 16.3125 46.578125 20.125 
Q 46.578125 23.53125 44.359375 25.390625 
Q 42.140625 27.25 35.5 28.71875 
L 28.21875 30.328125 
Q 17.28125 32.671875 12.21875 37.796875 
Q 7.171875 42.921875 7.171875 51.609375 
Q 7.171875 62.5 14.203125 68.359375 
Q 21.234375 74.21875 34.421875 74.21875 
Q 40.4375 74.21875 46.78125 73.3125 
Q 53.125 72.40625 59.90625 70.609375 
z
" id="DejaVuSans-Bold-83"/>
    <path d="M 0.484375 72.90625 
L 67.671875 72.90625 
L 67.671875 58.6875 
L 43.5 58.6875 
L 43.5 0 
L 24.703125 0 
L 24.703125 58.6875 
L 0.484375 58.6875 
z
" id="DejaVuSans-Bold-84"/>
    <path id="DejaVuSans-Bold-32"/>
    <path d="M 9.1875 72.90625 
L 27.984375 72.90625 
L 27.984375 14.203125 
L 60.984375 14.203125 
L 60.984375 0 
L 9.1875 0 
z
" id="DejaVuSans-Bold-76"/>
    <path d="M 32.90625 24.609375 
Q 27.4375 24.609375 24.671875 22.75 
Q 21.921875 20.90625 21.921875 17.28125 
Q 21.921875 13.96875 24.140625 12.078125 
Q 26.375 10.203125 30.328125 10.203125 
Q 35.25 10.203125 38.625 13.734375 
Q 42 17.28125 42 22.609375 
L 42 24.609375 
z
M 59.625 31.203125 
L 59.625 0 
L 42 0 
L 42 8.109375 
Q 38.484375 3.125 34.078125 0.84375 
Q 29.6875 -1.421875 23.390625 -1.421875 
Q 14.890625 -1.421875 9.59375 3.53125 
Q 4.296875 8.5 4.296875 16.40625 
Q 4.296875 26.03125 10.90625 30.515625 
Q 17.53125 35.015625 31.6875 35.015625 
L 42 35.015625 
L 42 36.375 
Q 42 40.53125 38.71875 42.453125 
Q 35.453125 44.390625 28.515625 44.390625 
Q 22.90625 44.390625 18.0625 43.265625 
Q 13.234375 42.140625 9.078125 39.890625 
L 9.078125 53.21875 
Q 14.703125 54.59375 20.359375 55.296875 
Q 26.03125 56 31.6875 56 
Q 46.484375 56 53.046875 50.171875 
Q 59.625 44.34375 59.625 31.203125 
z
" id="DejaVuSans-Bold-97"/>
    <path d="M 1.21875 54.6875 
L 18.703125 54.6875 
L 33.40625 17.578125 
L 45.90625 54.6875 
L 63.375 54.6875 
L 40.375 -5.171875 
Q 36.921875 -14.3125 32.296875 -17.9375 
Q 27.6875 -21.578125 20.125 -21.578125 
L 10.015625 -21.578125 
L 10.015625 -10.109375 
L 15.484375 -10.109375 
Q 19.921875 -10.109375 21.9375 -8.6875 
Q 23.96875 -7.28125 25.09375 -3.609375 
L 25.59375 -2.09375 
z
" id="DejaVuSans-Bold-121"/>
    <path d="M 62.984375 27.484375 
L 62.984375 22.515625 
L 22.125 22.515625 
Q 22.75 16.359375 26.5625 13.28125 
Q 30.375 10.203125 37.203125 10.203125 
Q 42.71875 10.203125 48.5 11.84375 
Q 54.296875 13.484375 60.40625 16.796875 
L 60.40625 3.328125 
Q 54.203125 0.984375 48 -0.21875 
Q 41.796875 -1.421875 35.59375 -1.421875 
Q 20.75 -1.421875 12.515625 6.125 
Q 4.296875 13.671875 4.296875 27.296875 
Q 4.296875 40.671875 12.375 48.328125 
Q 20.453125 56 34.625 56 
Q 47.515625 56 55.25 48.234375 
Q 62.984375 40.484375 62.984375 27.484375 
z
M 45.015625 33.296875 
Q 45.015625 38.28125 42.109375 41.328125 
Q 39.203125 44.390625 34.515625 44.390625 
Q 29.4375 44.390625 26.265625 41.53125 
Q 23.09375 38.671875 22.3125 33.296875 
z
" id="DejaVuSans-Bold-101"/>
    <path d="M 49.03125 39.796875 
Q 46.734375 40.875 44.453125 41.375 
Q 42.1875 41.890625 39.890625 41.890625 
Q 33.15625 41.890625 29.515625 37.5625 
Q 25.875 33.25 25.875 25.203125 
L 25.875 0 
L 8.40625 0 
L 8.40625 54.6875 
L 25.875 54.6875 
L 25.875 45.703125 
Q 29.25 51.078125 33.609375 53.53125 
Q 37.984375 56 44.09375 56 
Q 44.96875 56 45.984375 55.921875 
Q 47.015625 55.859375 48.96875 55.609375 
z
" id="DejaVuSans-Bold-114"/>
    <path d="M 5.421875 35.890625 
L 36.078125 35.890625 
L 36.078125 21.6875 
L 5.421875 21.6875 
z
" id="DejaVuSans-Bold-45"/>
    <path d="M 36.1875 35.984375 
Q 31.25 35.984375 28.78125 32.78125 
Q 26.3125 29.59375 26.3125 23.1875 
Q 26.3125 16.796875 28.78125 13.59375 
Q 31.25 10.40625 36.1875 10.40625 
Q 41.15625 10.40625 43.625 13.59375 
Q 46.09375 16.796875 46.09375 23.1875 
Q 46.09375 29.59375 43.625 32.78125 
Q 41.15625 35.984375 36.1875 35.984375 
z
M 59.421875 71 
L 59.421875 57.515625 
Q 54.78125 59.71875 50.671875 60.765625 
Q 46.578125 61.8125 42.671875 61.8125 
Q 34.28125 61.8125 29.59375 57.140625 
Q 24.90625 52.484375 24.125 43.3125 
Q 27.34375 45.703125 31.09375 46.890625 
Q 34.859375 48.09375 39.3125 48.09375 
Q 50.484375 48.09375 57.34375 41.546875 
Q 64.203125 35.015625 64.203125 24.421875 
Q 64.203125 12.703125 56.53125 5.640625 
Q 48.875 -1.421875 35.984375 -1.421875 
Q 21.78125 -1.421875 13.984375 8.171875 
Q 6.203125 17.78125 6.203125 35.40625 
Q 6.203125 53.46875 15.3125 63.796875 
Q 24.421875 74.125 40.28125 74.125 
Q 45.3125 74.125 50.046875 73.34375 
Q 54.78125 72.5625 59.421875 71 
z
" id="DejaVuSans-Bold-54"/>
   </defs>
   <g style="fill:#262626;" transform="translate(787.648828 17.040469)scale(0.15 -0.15)">
    <use xlink:href="#DejaVuSans-Bold-79"/>
    <use x="85.009766" xlink:href="#DejaVuSans-Bold-78"/>
    <use x="168.701172" xlink:href="#DejaVuSans-Bold-78"/>
    <use x="252.392578" xlink:href="#DejaVuSans-Bold-52"/>
    <use x="321.972656" xlink:href="#DejaVuSans-Bold-77"/>
    <use x="421.484375" xlink:href="#DejaVuSans-Bold-83"/>
    <use x="493.505859" xlink:href="#DejaVuSans-Bold-84"/>
    <use x="561.71875" xlink:href="#DejaVuSans-Bold-32"/>
    <use x="596.533203" xlink:href="#DejaVuSans-Bold-76"/>
    <use x="660.253906" xlink:href="#DejaVuSans-Bold-97"/>
    <use x="724.609375" xlink:href="#DejaVuSans-Bold-121"/>
    <use x="789.794922" xlink:href="#DejaVuSans-Bold-101"/>
    <use x="857.617188" xlink:href="#DejaVuSans-Bold-114"/>
    <use x="906.933594" xlink:href="#DejaVuSans-Bold-45"/>
    <use x="948.4375" xlink:href="#DejaVuSans-Bold-54"/>
   </g>
  </g>
  <g id="legend_1">
   <g id="patch_62">
    <path d="M 770.12 146.405625 
L 898.276875 146.405625 
Q 901.076875 146.405625 901.076875 143.605625 
L 901.076875 21.32 
Q 901.076875 18.52 898.276875 18.52 
L 770.12 18.52 
Q 767.32 18.52 767.32 21.32 
L 767.32 143.605625 
Q 767.32 146.405625 770.12 146.405625 
z
" style="fill:none;opacity:0;"/>
   </g>
   <g id="patch_63">
    <path d="M 772.92 34.757812 
L 800.92 34.757812 
L 800.92 24.957813 
L 772.92 24.957813 
z
" style="fill:#66c2a5;stroke:#ffffff;stroke-linejoin:miter;"/>
   </g>
   <g id="text_2">
    <!-- Unknown -->
    <defs>
     <path d="M 8.6875 72.90625 
L 18.609375 72.90625 
L 18.609375 28.609375 
Q 18.609375 16.890625 22.84375 11.734375 
Q 27.09375 6.59375 36.625 6.59375 
Q 46.09375 6.59375 50.34375 11.734375 
Q 54.59375 16.890625 54.59375 28.609375 
L 54.59375 72.90625 
L 64.5 72.90625 
L 64.5 27.390625 
Q 64.5 13.140625 57.4375 5.859375 
Q 50.390625 -1.421875 36.625 -1.421875 
Q 22.796875 -1.421875 15.734375 5.859375 
Q 8.6875 13.140625 8.6875 27.390625 
z
" id="DejaVuSans-85"/>
     <path d="M 54.890625 33.015625 
L 54.890625 0 
L 45.90625 0 
L 45.90625 32.71875 
Q 45.90625 40.484375 42.875 44.328125 
Q 39.84375 48.1875 33.796875 48.1875 
Q 26.515625 48.1875 22.3125 43.546875 
Q 18.109375 38.921875 18.109375 30.90625 
L 18.109375 0 
L 9.078125 0 
L 9.078125 54.6875 
L 18.109375 54.6875 
L 18.109375 46.1875 
Q 21.34375 51.125 25.703125 53.5625 
Q 30.078125 56 35.796875 56 
Q 45.21875 56 50.046875 50.171875 
Q 54.890625 44.34375 54.890625 33.015625 
z
" id="DejaVuSans-110"/>
     <path d="M 9.078125 75.984375 
L 18.109375 75.984375 
L 18.109375 31.109375 
L 44.921875 54.6875 
L 56.390625 54.6875 
L 27.390625 29.109375 
L 57.625 0 
L 45.90625 0 
L 18.109375 26.703125 
L 18.109375 0 
L 9.078125 0 
z
" id="DejaVuSans-107"/>
     <path d="M 30.609375 48.390625 
Q 23.390625 48.390625 19.1875 42.75 
Q 14.984375 37.109375 14.984375 27.296875 
Q 14.984375 17.484375 19.15625 11.84375 
Q 23.34375 6.203125 30.609375 6.203125 
Q 37.796875 6.203125 41.984375 11.859375 
Q 46.1875 17.53125 46.1875 27.296875 
Q 46.1875 37.015625 41.984375 42.703125 
Q 37.796875 48.390625 30.609375 48.390625 
z
M 30.609375 56 
Q 42.328125 56 49.015625 48.375 
Q 55.71875 40.765625 55.71875 27.296875 
Q 55.71875 13.875 49.015625 6.21875 
Q 42.328125 -1.421875 30.609375 -1.421875 
Q 18.84375 -1.421875 12.171875 6.21875 
Q 5.515625 13.875 5.515625 27.296875 
Q 5.515625 40.765625 12.171875 48.375 
Q 18.84375 56 30.609375 56 
z
" id="DejaVuSans-111"/>
     <path d="M 4.203125 54.6875 
L 13.1875 54.6875 
L 24.421875 12.015625 
L 35.59375 54.6875 
L 46.1875 54.6875 
L 57.421875 12.015625 
L 68.609375 54.6875 
L 77.59375 54.6875 
L 63.28125 0 
L 52.6875 0 
L 40.921875 44.828125 
L 29.109375 0 
L 18.5 0 
z
" id="DejaVuSans-119"/>
    </defs>
    <g style="fill:#262626;" transform="translate(812.12 34.757812)scale(0.14 -0.14)">
     <use xlink:href="#DejaVuSans-85"/>
     <use x="73.193359" xlink:href="#DejaVuSans-110"/>
     <use x="136.572266" xlink:href="#DejaVuSans-107"/>
     <use x="194.482422" xlink:href="#DejaVuSans-110"/>
     <use x="257.861328" xlink:href="#DejaVuSans-111"/>
     <use x="319.042969" xlink:href="#DejaVuSans-119"/>
     <use x="400.830078" xlink:href="#DejaVuSans-110"/>
    </g>
   </g>
   <g id="patch_64">
    <path d="M 772.92 55.307187 
L 800.92 55.307187 
L 800.92 45.507188 
L 772.92 45.507188 
z
" style="fill:#fc8d62;stroke:#ffffff;stroke-linejoin:miter;"/>
   </g>
   <g id="text_3">
    <!-- Photic_zone -->
    <defs>
     <path d="M 19.671875 64.796875 
L 19.671875 37.40625 
L 32.078125 37.40625 
Q 38.96875 37.40625 42.71875 40.96875 
Q 46.484375 44.53125 46.484375 51.125 
Q 46.484375 57.671875 42.71875 61.234375 
Q 38.96875 64.796875 32.078125 64.796875 
z
M 9.8125 72.90625 
L 32.078125 72.90625 
Q 44.34375 72.90625 50.609375 67.359375 
Q 56.890625 61.8125 56.890625 51.125 
Q 56.890625 40.328125 50.609375 34.8125 
Q 44.34375 29.296875 32.078125 29.296875 
L 19.671875 29.296875 
L 19.671875 0 
L 9.8125 0 
z
" id="DejaVuSans-80"/>
     <path d="M 54.890625 33.015625 
L 54.890625 0 
L 45.90625 0 
L 45.90625 32.71875 
Q 45.90625 40.484375 42.875 44.328125 
Q 39.84375 48.1875 33.796875 48.1875 
Q 26.515625 48.1875 22.3125 43.546875 
Q 18.109375 38.921875 18.109375 30.90625 
L 18.109375 0 
L 9.078125 0 
L 9.078125 75.984375 
L 18.109375 75.984375 
L 18.109375 46.1875 
Q 21.34375 51.125 25.703125 53.5625 
Q 30.078125 56 35.796875 56 
Q 45.21875 56 50.046875 50.171875 
Q 54.890625 44.34375 54.890625 33.015625 
z
" id="DejaVuSans-104"/>
     <path d="M 18.3125 70.21875 
L 18.3125 54.6875 
L 36.8125 54.6875 
L 36.8125 47.703125 
L 18.3125 47.703125 
L 18.3125 18.015625 
Q 18.3125 11.328125 20.140625 9.421875 
Q 21.96875 7.515625 27.59375 7.515625 
L 36.8125 7.515625 
L 36.8125 0 
L 27.59375 0 
Q 17.1875 0 13.234375 3.875 
Q 9.28125 7.765625 9.28125 18.015625 
L 9.28125 47.703125 
L 2.6875 47.703125 
L 2.6875 54.6875 
L 9.28125 54.6875 
L 9.28125 70.21875 
z
" id="DejaVuSans-116"/>
     <path d="M 9.421875 54.6875 
L 18.40625 54.6875 
L 18.40625 0 
L 9.421875 0 
z
M 9.421875 75.984375 
L 18.40625 75.984375 
L 18.40625 64.59375 
L 9.421875 64.59375 
z
" id="DejaVuSans-105"/>
     <path d="M 48.78125 52.59375 
L 48.78125 44.1875 
Q 44.96875 46.296875 41.140625 47.34375 
Q 37.3125 48.390625 33.40625 48.390625 
Q 24.65625 48.390625 19.8125 42.84375 
Q 14.984375 37.3125 14.984375 27.296875 
Q 14.984375 17.28125 19.8125 11.734375 
Q 24.65625 6.203125 33.40625 6.203125 
Q 37.3125 6.203125 41.140625 7.25 
Q 44.96875 8.296875 48.78125 10.40625 
L 48.78125 2.09375 
Q 45.015625 0.34375 40.984375 -0.53125 
Q 36.96875 -1.421875 32.421875 -1.421875 
Q 20.0625 -1.421875 12.78125 6.34375 
Q 5.515625 14.109375 5.515625 27.296875 
Q 5.515625 40.671875 12.859375 48.328125 
Q 20.21875 56 33.015625 56 
Q 37.15625 56 41.109375 55.140625 
Q 45.0625 54.296875 48.78125 52.59375 
z
" id="DejaVuSans-99"/>
     <path d="M 50.984375 -16.609375 
L 50.984375 -23.578125 
L -0.984375 -23.578125 
L -0.984375 -16.609375 
z
" id="DejaVuSans-95"/>
     <path d="M 5.515625 54.6875 
L 48.1875 54.6875 
L 48.1875 46.484375 
L 14.40625 7.171875 
L 48.1875 7.171875 
L 48.1875 0 
L 4.296875 0 
L 4.296875 8.203125 
L 38.09375 47.515625 
L 5.515625 47.515625 
z
" id="DejaVuSans-122"/>
     <path d="M 56.203125 29.59375 
L 56.203125 25.203125 
L 14.890625 25.203125 
Q 15.484375 15.921875 20.484375 11.0625 
Q 25.484375 6.203125 34.421875 6.203125 
Q 39.59375 6.203125 44.453125 7.46875 
Q 49.3125 8.734375 54.109375 11.28125 
L 54.109375 2.78125 
Q 49.265625 0.734375 44.1875 -0.34375 
Q 39.109375 -1.421875 33.890625 -1.421875 
Q 20.796875 -1.421875 13.15625 6.1875 
Q 5.515625 13.8125 5.515625 26.8125 
Q 5.515625 40.234375 12.765625 48.109375 
Q 20.015625 56 32.328125 56 
Q 43.359375 56 49.78125 48.890625 
Q 56.203125 41.796875 56.203125 29.59375 
z
M 47.21875 32.234375 
Q 47.125 39.59375 43.09375 43.984375 
Q 39.0625 48.390625 32.421875 48.390625 
Q 24.90625 48.390625 20.390625 44.140625 
Q 15.875 39.890625 15.1875 32.171875 
z
" id="DejaVuSans-101"/>
    </defs>
    <g style="fill:#262626;" transform="translate(812.12 55.307187)scale(0.14 -0.14)">
     <use xlink:href="#DejaVuSans-80"/>
     <use x="60.302734" xlink:href="#DejaVuSans-104"/>
     <use x="123.681641" xlink:href="#DejaVuSans-111"/>
     <use x="184.863281" xlink:href="#DejaVuSans-116"/>
     <use x="224.072266" xlink:href="#DejaVuSans-105"/>
     <use x="251.855469" xlink:href="#DejaVuSans-99"/>
     <use x="306.835938" xlink:href="#DejaVuSans-95"/>
     <use x="356.835938" xlink:href="#DejaVuSans-122"/>
     <use x="409.326172" xlink:href="#DejaVuSans-111"/>
     <use x="470.507812" xlink:href="#DejaVuSans-110"/>
     <use x="533.886719" xlink:href="#DejaVuSans-101"/>
    </g>
   </g>
   <g id="patch_65">
    <path d="M 772.92 76.245937 
L 800.92 76.245937 
L 800.92 66.445937 
L 772.92 66.445937 
z
" style="fill:#8da0cb;stroke:#ffffff;stroke-linejoin:miter;"/>
   </g>
   <g id="text_4">
    <!-- Fecal (H*) -->
    <defs>
     <path d="M 9.8125 72.90625 
L 51.703125 72.90625 
L 51.703125 64.59375 
L 19.671875 64.59375 
L 19.671875 43.109375 
L 48.578125 43.109375 
L 48.578125 34.8125 
L 19.671875 34.8125 
L 19.671875 0 
L 9.8125 0 
z
" id="DejaVuSans-70"/>
     <path d="M 34.28125 27.484375 
Q 23.390625 27.484375 19.1875 25 
Q 14.984375 22.515625 14.984375 16.5 
Q 14.984375 11.71875 18.140625 8.90625 
Q 21.296875 6.109375 26.703125 6.109375 
Q 34.1875 6.109375 38.703125 11.40625 
Q 43.21875 16.703125 43.21875 25.484375 
L 43.21875 27.484375 
z
M 52.203125 31.203125 
L 52.203125 0 
L 43.21875 0 
L 43.21875 8.296875 
Q 40.140625 3.328125 35.546875 0.953125 
Q 30.953125 -1.421875 24.3125 -1.421875 
Q 15.921875 -1.421875 10.953125 3.296875 
Q 6 8.015625 6 15.921875 
Q 6 25.140625 12.171875 29.828125 
Q 18.359375 34.515625 30.609375 34.515625 
L 43.21875 34.515625 
L 43.21875 35.40625 
Q 43.21875 41.609375 39.140625 45 
Q 35.0625 48.390625 27.6875 48.390625 
Q 23 48.390625 18.546875 47.265625 
Q 14.109375 46.140625 10.015625 43.890625 
L 10.015625 52.203125 
Q 14.9375 54.109375 19.578125 55.046875 
Q 24.21875 56 28.609375 56 
Q 40.484375 56 46.34375 49.84375 
Q 52.203125 43.703125 52.203125 31.203125 
z
" id="DejaVuSans-97"/>
     <path d="M 9.421875 75.984375 
L 18.40625 75.984375 
L 18.40625 0 
L 9.421875 0 
z
" id="DejaVuSans-108"/>
     <path id="DejaVuSans-32"/>
     <path d="M 31 75.875 
Q 24.46875 64.65625 21.28125 53.65625 
Q 18.109375 42.671875 18.109375 31.390625 
Q 18.109375 20.125 21.3125 9.0625 
Q 24.515625 -2 31 -13.1875 
L 23.1875 -13.1875 
Q 15.875 -1.703125 12.234375 9.375 
Q 8.59375 20.453125 8.59375 31.390625 
Q 8.59375 42.28125 12.203125 53.3125 
Q 15.828125 64.359375 23.1875 75.875 
z
" id="DejaVuSans-40"/>
     <path d="M 9.8125 72.90625 
L 19.671875 72.90625 
L 19.671875 43.015625 
L 55.515625 43.015625 
L 55.515625 72.90625 
L 65.375 72.90625 
L 65.375 0 
L 55.515625 0 
L 55.515625 34.71875 
L 19.671875 34.71875 
L 19.671875 0 
L 9.8125 0 
z
" id="DejaVuSans-72"/>
     <path d="M 47.015625 60.890625 
L 29.5 51.421875 
L 47.015625 41.890625 
L 44.1875 37.109375 
L 27.78125 47.015625 
L 27.78125 28.609375 
L 22.21875 28.609375 
L 22.21875 47.015625 
L 5.8125 37.109375 
L 2.984375 41.890625 
L 20.515625 51.421875 
L 2.984375 60.890625 
L 5.8125 65.71875 
L 22.21875 55.8125 
L 22.21875 74.21875 
L 27.78125 74.21875 
L 27.78125 55.8125 
L 44.1875 65.71875 
z
" id="DejaVuSans-42"/>
     <path d="M 8.015625 75.875 
L 15.828125 75.875 
Q 23.140625 64.359375 26.78125 53.3125 
Q 30.421875 42.28125 30.421875 31.390625 
Q 30.421875 20.453125 26.78125 9.375 
Q 23.140625 -1.703125 15.828125 -13.1875 
L 8.015625 -13.1875 
Q 14.5 -2 17.703125 9.0625 
Q 20.90625 20.125 20.90625 31.390625 
Q 20.90625 42.671875 17.703125 53.65625 
Q 14.5 64.65625 8.015625 75.875 
z
" id="DejaVuSans-41"/>
    </defs>
    <g style="fill:#262626;" transform="translate(812.12 76.245937)scale(0.14 -0.14)">
     <use xlink:href="#DejaVuSans-70"/>
     <use x="52.019531" xlink:href="#DejaVuSans-101"/>
     <use x="113.542969" xlink:href="#DejaVuSans-99"/>
     <use x="168.523438" xlink:href="#DejaVuSans-97"/>
     <use x="229.802734" xlink:href="#DejaVuSans-108"/>
     <use x="257.585938" xlink:href="#DejaVuSans-32"/>
     <use x="289.373047" xlink:href="#DejaVuSans-40"/>
     <use x="328.386719" xlink:href="#DejaVuSans-72"/>
     <use x="403.582031" xlink:href="#DejaVuSans-42"/>
     <use x="453.582031" xlink:href="#DejaVuSans-41"/>
    </g>
   </g>
   <g id="patch_66">
    <path d="M 772.92 96.795312 
L 800.92 96.795312 
L 800.92 86.995312 
L 772.92 86.995312 
z
" style="fill:#e78ac3;stroke:#ffffff;stroke-linejoin:miter;"/>
   </g>
   <g id="text_5">
    <!-- Saliva (H*) -->
    <defs>
     <path d="M 53.515625 70.515625 
L 53.515625 60.890625 
Q 47.90625 63.578125 42.921875 64.890625 
Q 37.9375 66.21875 33.296875 66.21875 
Q 25.25 66.21875 20.875 63.09375 
Q 16.5 59.96875 16.5 54.203125 
Q 16.5 49.359375 19.40625 46.890625 
Q 22.3125 44.4375 30.421875 42.921875 
L 36.375 41.703125 
Q 47.40625 39.59375 52.65625 34.296875 
Q 57.90625 29 57.90625 20.125 
Q 57.90625 9.515625 50.796875 4.046875 
Q 43.703125 -1.421875 29.984375 -1.421875 
Q 24.8125 -1.421875 18.96875 -0.25 
Q 13.140625 0.921875 6.890625 3.21875 
L 6.890625 13.375 
Q 12.890625 10.015625 18.65625 8.296875 
Q 24.421875 6.59375 29.984375 6.59375 
Q 38.421875 6.59375 43.015625 9.90625 
Q 47.609375 13.234375 47.609375 19.390625 
Q 47.609375 24.75 44.3125 27.78125 
Q 41.015625 30.8125 33.5 32.328125 
L 27.484375 33.5 
Q 16.453125 35.6875 11.515625 40.375 
Q 6.59375 45.0625 6.59375 53.421875 
Q 6.59375 63.09375 13.40625 68.65625 
Q 20.21875 74.21875 32.171875 74.21875 
Q 37.3125 74.21875 42.625 73.28125 
Q 47.953125 72.359375 53.515625 70.515625 
z
" id="DejaVuSans-83"/>
     <path d="M 2.984375 54.6875 
L 12.5 54.6875 
L 29.59375 8.796875 
L 46.6875 54.6875 
L 56.203125 54.6875 
L 35.6875 0 
L 23.484375 0 
z
" id="DejaVuSans-118"/>
    </defs>
    <g style="fill:#262626;" transform="translate(812.12 96.795312)scale(0.14 -0.14)">
     <use xlink:href="#DejaVuSans-83"/>
     <use x="63.476562" xlink:href="#DejaVuSans-97"/>
     <use x="124.755859" xlink:href="#DejaVuSans-108"/>
     <use x="152.539062" xlink:href="#DejaVuSans-105"/>
     <use x="180.322266" xlink:href="#DejaVuSans-118"/>
     <use x="239.501953" xlink:href="#DejaVuSans-97"/>
     <use x="300.78125" xlink:href="#DejaVuSans-32"/>
     <use x="332.568359" xlink:href="#DejaVuSans-40"/>
     <use x="371.582031" xlink:href="#DejaVuSans-72"/>
     <use x="446.777344" xlink:href="#DejaVuSans-42"/>
     <use x="496.777344" xlink:href="#DejaVuSans-41"/>
    </g>
   </g>
   <g id="patch_67">
    <path d="M 772.92 117.344687 
L 800.92 117.344687 
L 800.92 107.544687 
L 772.92 107.544687 
z
" style="fill:#a6d854;stroke:#ffffff;stroke-linejoin:miter;"/>
   </g>
   <g id="text_6">
    <!-- Fecal (M**) -->
    <defs>
     <path d="M 9.8125 72.90625 
L 24.515625 72.90625 
L 43.109375 23.296875 
L 61.8125 72.90625 
L 76.515625 72.90625 
L 76.515625 0 
L 66.890625 0 
L 66.890625 64.015625 
L 48.09375 14.015625 
L 38.1875 14.015625 
L 19.390625 64.015625 
L 19.390625 0 
L 9.8125 0 
z
" id="DejaVuSans-77"/>
    </defs>
    <g style="fill:#262626;" transform="translate(812.12 117.344687)scale(0.14 -0.14)">
     <use xlink:href="#DejaVuSans-70"/>
     <use x="52.019531" xlink:href="#DejaVuSans-101"/>
     <use x="113.542969" xlink:href="#DejaVuSans-99"/>
     <use x="168.523438" xlink:href="#DejaVuSans-97"/>
     <use x="229.802734" xlink:href="#DejaVuSans-108"/>
     <use x="257.585938" xlink:href="#DejaVuSans-32"/>
     <use x="289.373047" xlink:href="#DejaVuSans-40"/>
     <use x="328.386719" xlink:href="#DejaVuSans-77"/>
     <use x="414.666016" xlink:href="#DejaVuSans-42"/>
     <use x="464.666016" xlink:href="#DejaVuSans-42"/>
     <use x="514.666016" xlink:href="#DejaVuSans-41"/>
    </g>
   </g>
   <g id="patch_68">
    <path d="M 772.92 137.894062 
L 800.92 137.894062 
L 800.92 128.094062 
L 772.92 128.094062 
z
" style="fill:#ffd92f;stroke:#ffffff;stroke-linejoin:miter;"/>
   </g>
   <g id="text_7">
    <!-- Others -->
    <defs>
     <path d="M 39.40625 66.21875 
Q 28.65625 66.21875 22.328125 58.203125 
Q 16.015625 50.203125 16.015625 36.375 
Q 16.015625 22.609375 22.328125 14.59375 
Q 28.65625 6.59375 39.40625 6.59375 
Q 50.140625 6.59375 56.421875 14.59375 
Q 62.703125 22.609375 62.703125 36.375 
Q 62.703125 50.203125 56.421875 58.203125 
Q 50.140625 66.21875 39.40625 66.21875 
z
M 39.40625 74.21875 
Q 54.734375 74.21875 63.90625 63.9375 
Q 73.09375 53.65625 73.09375 36.375 
Q 73.09375 19.140625 63.90625 8.859375 
Q 54.734375 -1.421875 39.40625 -1.421875 
Q 24.03125 -1.421875 14.8125 8.828125 
Q 5.609375 19.09375 5.609375 36.375 
Q 5.609375 53.65625 14.8125 63.9375 
Q 24.03125 74.21875 39.40625 74.21875 
z
" id="DejaVuSans-79"/>
     <path d="M 41.109375 46.296875 
Q 39.59375 47.171875 37.8125 47.578125 
Q 36.03125 48 33.890625 48 
Q 26.265625 48 22.1875 43.046875 
Q 18.109375 38.09375 18.109375 28.8125 
L 18.109375 0 
L 9.078125 0 
L 9.078125 54.6875 
L 18.109375 54.6875 
L 18.109375 46.1875 
Q 20.953125 51.171875 25.484375 53.578125 
Q 30.03125 56 36.53125 56 
Q 37.453125 56 38.578125 55.875 
Q 39.703125 55.765625 41.0625 55.515625 
z
" id="DejaVuSans-114"/>
     <path d="M 44.28125 53.078125 
L 44.28125 44.578125 
Q 40.484375 46.53125 36.375 47.5 
Q 32.28125 48.484375 27.875 48.484375 
Q 21.1875 48.484375 17.84375 46.4375 
Q 14.5 44.390625 14.5 40.28125 
Q 14.5 37.15625 16.890625 35.375 
Q 19.28125 33.59375 26.515625 31.984375 
L 29.59375 31.296875 
Q 39.15625 29.25 43.1875 25.515625 
Q 47.21875 21.78125 47.21875 15.09375 
Q 47.21875 7.46875 41.1875 3.015625 
Q 35.15625 -1.421875 24.609375 -1.421875 
Q 20.21875 -1.421875 15.453125 -0.5625 
Q 10.6875 0.296875 5.421875 2 
L 5.421875 11.28125 
Q 10.40625 8.6875 15.234375 7.390625 
Q 20.0625 6.109375 24.8125 6.109375 
Q 31.15625 6.109375 34.5625 8.28125 
Q 37.984375 10.453125 37.984375 14.40625 
Q 37.984375 18.0625 35.515625 20.015625 
Q 33.0625 21.96875 24.703125 23.78125 
L 21.578125 24.515625 
Q 13.234375 26.265625 9.515625 29.90625 
Q 5.8125 33.546875 5.8125 39.890625 
Q 5.8125 47.609375 11.28125 51.796875 
Q 16.75 56 26.8125 56 
Q 31.78125 56 36.171875 55.265625 
Q 40.578125 54.546875 44.28125 53.078125 
z
" id="DejaVuSans-115"/>
    </defs>
    <g style="fill:#262626;" transform="translate(812.12 137.894062)scale(0.14 -0.14)">
     <use xlink:href="#DejaVuSans-79"/>
     <use x="78.710938" xlink:href="#DejaVuSans-116"/>
     <use x="117.919922" xlink:href="#DejaVuSans-104"/>
     <use x="181.298828" xlink:href="#DejaVuSans-101"/>
     <use x="242.822266" xlink:href="#DejaVuSans-114"/>
     <use x="283.935547" xlink:href="#DejaVuSans-115"/>
    </g>
   </g>
  </g>
 </g>
</svg>
