<?xml version="1.0" encoding="utf-8" standalone="no"?>
<!DOCTYPE svg PUBLIC "-//W3C//DTD SVG 1.1//EN"
  "http://www.w3.org/Graphics/SVG/1.1/DTD/svg11.dtd">
<!-- Created with matplotlib (https://matplotlib.org/) -->
<svg height="144pt" version="1.1" viewBox="0 0 1728 144" width="1728pt" xmlns="http://www.w3.org/2000/svg" xmlns:xlink="http://www.w3.org/1999/xlink">
 <defs>
  <style type="text/css">
*{stroke-linecap:butt;stroke-linejoin:round;}
  </style>
 </defs>
 <g id="figure_1">
  <g id="patch_1">
   <path d="M 0 144 
L 1728 144 
L 1728 0 
L 0 0 
z
" style="fill:#ffffff;"/>
  </g>
  <g id="axes_1">
   <g id="patch_2">
    <path d="M 129.6 72 
C 129.6 63.718611 127.814026 55.533795 124.364192 48.00518 
C 120.914358 40.476565 115.881125 33.77974 109.608633 28.372592 
C 103.336141 22.965444 95.970684 18.974084 88.015866 16.671418 
C 80.061048 14.368751 71.702399 13.808481 63.511433 15.028918 
C 55.320466 16.249354 47.488219 19.222031 40.550212 23.743697 
C 33.612205 28.265362 27.730252 34.230557 23.306527 41.231418 
C 18.882801 48.232279 16.020476 56.105525 14.915261 64.312833 
C 13.810045 72.52014 14.487715 80.870091 16.901937 88.791766 
L 72 72 
L 129.6 72 
z
" style="fill:#66c2a5;stroke:#ffffff;stroke-linejoin:miter;"/>
   </g>
   <g id="patch_3">
    <path d="M 16.901937 88.791766 
C 20.690364 101.222563 28.576345 112.012787 39.26972 119.397139 
C 49.963094 126.781491 62.847076 130.334046 75.813823 129.4736 
C 88.780571 128.613155 101.082171 123.38934 110.706062 114.656778 
C 120.329954 105.924217 126.721036 94.186598 128.833718 81.364216 
L 72 72 
L 16.901937 88.791766 
z
" style="fill:#fc8d62;stroke:#ffffff;stroke-linejoin:miter;"/>
   </g>
   <g id="patch_4">
    <path d="M 128.833718 81.364216 
C 129.08567 79.835056 129.275805 78.29635 129.403657 76.751855 
C 129.53151 75.20736 129.596977 73.658334 129.599898 72.108559 
L 72 72 
L 128.833718 81.364216 
z
" style="fill:#8da0cb;stroke:#ffffff;stroke-linejoin:miter;"/>
   </g>
   <g id="patch_5">
    <path d="M 129.599898 72.108559 
C 129.599909 72.10253 129.599919 72.0965 129.599929 72.090471 
C 129.599938 72.084441 129.599947 72.078412 129.599955 72.072382 
L 72 72 
L 129.599898 72.108559 
z
" style="fill:#e78ac3;stroke:#ffffff;stroke-linejoin:miter;"/>
   </g>
   <g id="patch_6">
    <path d="M 129.599955 72.072382 
C 129.599962 72.066353 129.599969 72.060324 129.599974 72.054294 
C 129.59998 72.048265 129.599985 72.042235 129.599989 72.036206 
L 72 72 
L 129.599955 72.072382 
z
" style="fill:#a6d854;stroke:#ffffff;stroke-linejoin:miter;"/>
   </g>
   <g id="patch_7">
    <path d="M 129.599989 72.036206 
C 129.599992 72.030176 129.599995 72.024147 129.599997 72.018117 
C 129.599999 72.012088 129.6 72.006059 129.6 72.000029 
L 72 72 
L 129.599989 72.036206 
z
" style="fill:#ffd92f;stroke:#ffffff;stroke-linejoin:miter;"/>
   </g>
  </g>
  <g id="axes_2">
   <g id="patch_8">
    <path d="M 273.6 72 
C 273.6 64.591263 272.170589 57.251634 269.390302 50.384365 
C 266.610015 43.517097 262.530719 37.250301 257.37654 31.92829 
C 252.22236 26.606278 246.089451 22.328335 239.314765 19.329499 
C 232.54008 16.330663 225.250005 14.666879 217.84507 14.429559 
C 210.440136 14.192239 203.058485 15.385809 196.105681 17.944694 
C 189.152877 20.503579 182.758628 24.38004 177.274246 29.361098 
C 171.789864 34.342155 167.317664 40.334884 164.103357 47.010033 
C 160.88905 53.685181 158.992601 60.91822 158.518204 68.311753 
C 158.043808 75.705286 159.000313 83.121381 161.33517 90.152584 
C 163.670026 97.183788 167.339674 103.698928 172.142497 109.340051 
C 176.94532 114.981174 182.791718 119.643041 189.360479 123.06952 
C 195.92924 126.496 203.097819 128.623168 210.472362 129.334154 
C 217.846904 130.04514 225.289833 129.326681 232.392219 127.21825 
C 239.494606 125.109819 246.123951 121.65075 251.916025 117.031091 
C 257.7081 112.411431 262.554849 106.717365 266.189983 100.261733 
C 269.825118 93.806102 272.180821 86.70934 273.127668 79.361357 
L 216 72 
L 273.6 72 
z
" style="fill:#66c2a5;stroke:#ffffff;stroke-linejoin:miter;"/>
   </g>
   <g id="patch_9">
    <path d="M 273.127668 79.361357 
C 273.175453 78.990519 273.219627 78.619225 273.260182 78.247528 
C 273.300737 77.875831 273.337671 77.503747 273.370981 77.13133 
L 216 72 
L 273.127668 79.361357 
z
" style="fill:#fc8d62;stroke:#ffffff;stroke-linejoin:miter;"/>
   </g>
   <g id="patch_10">
    <path d="M 273.370981 77.13133 
C 273.445661 76.29637 273.502104 75.459878 273.540271 74.622453 
C 273.578437 73.785029 273.598317 72.946871 273.599898 72.108579 
L 216 72 
L 273.370981 77.13133 
z
" style="fill:#8da0cb;stroke:#ffffff;stroke-linejoin:miter;"/>
   </g>
   <g id="patch_11">
    <path d="M 273.599898 72.108579 
C 273.599909 72.102548 273.599919 72.096517 273.599929 72.090487 
C 273.599938 72.084456 273.599947 72.078425 273.599955 72.072395 
L 216 72 
L 273.599898 72.108579 
z
" style="fill:#e78ac3;stroke:#ffffff;stroke-linejoin:miter;"/>
   </g>
   <g id="patch_12">
    <path d="M 273.599955 72.072395 
C 273.599962 72.066364 273.599969 72.060333 273.599974 72.054303 
C 273.59998 72.048272 273.599985 72.042241 273.599989 72.036211 
L 216 72 
L 273.599955 72.072395 
z
" style="fill:#a6d854;stroke:#ffffff;stroke-linejoin:miter;"/>
   </g>
   <g id="patch_13">
    <path d="M 273.599989 72.036211 
C 273.599992 72.03018 273.599995 72.02415 273.599997 72.018119 
C 273.599999 72.012088 273.6 72.006058 273.6 72.000027 
L 216 72 
L 273.599989 72.036211 
z
" style="fill:#ffd92f;stroke:#ffffff;stroke-linejoin:miter;"/>
   </g>
  </g>
  <g id="axes_3">
   <g id="patch_14">
    <path d="M 417.6 72 
C 417.6 66.001861 416.663082 60.040366 414.823172 54.331391 
C 412.983263 48.622415 410.262844 43.235713 406.760425 38.366346 
L 360 72 
L 417.6 72 
z
" style="fill:#66c2a5;stroke:#ffffff;stroke-linejoin:miter;"/>
   </g>
   <g id="patch_15">
    <path d="M 406.760425 38.366346 
C 406.707625 38.292939 406.654652 38.219657 406.601507 38.146499 
C 406.548362 38.073341 406.495045 38.000309 406.441556 37.927403 
L 360 72 
L 406.760425 38.366346 
z
" style="fill:#fc8d62;stroke:#ffffff;stroke-linejoin:miter;"/>
   </g>
   <g id="patch_16">
    <path d="M 406.441556 37.927403 
C 402.421728 32.448305 397.463812 27.723569 391.797566 23.972145 
C 386.131319 20.220722 379.845644 17.501468 373.231825 15.9404 
C 366.618007 14.379331 359.779815 14.000939 353.034139 14.82276 
C 346.288464 15.644581 339.741142 17.65372 333.695587 20.75707 
C 327.650031 23.860421 322.201094 28.009294 317.601287 33.011423 
C 313.00148 38.013553 309.322971 43.790458 306.736229 50.074429 
C 304.149486 56.3584 302.695095 63.050844 302.440453 69.841623 
C 302.185812 76.632402 303.134915 83.414973 305.24378 89.87502 
C 307.352645 96.335068 310.588185 102.371237 314.80046 107.703803 
C 319.012735 113.03637 324.135657 117.581668 329.931822 121.129061 
C 335.727986 124.676455 342.106455 127.170287 348.77164 128.49499 
C 355.436824 129.819693 362.284152 129.954484 368.996306 128.893114 
C 375.708461 127.831745 382.180133 125.590869 388.111414 122.274331 
C 394.042696 118.957793 399.340529 114.617629 403.759404 109.454968 
C 408.178278 104.292306 411.648864 98.388147 414.01033 92.016099 
C 416.371796 85.64405 417.587092 78.904086 417.599898 72.108546 
L 360 72 
L 406.441556 37.927403 
z
" style="fill:#8da0cb;stroke:#ffffff;stroke-linejoin:miter;"/>
   </g>
   <g id="patch_17">
    <path d="M 417.599898 72.108546 
C 417.599909 72.102518 417.599919 72.09649 417.599929 72.090461 
C 417.599938 72.084433 417.599947 72.078405 417.599955 72.072377 
L 360 72 
L 417.599898 72.108546 
z
" style="fill:#e78ac3;stroke:#ffffff;stroke-linejoin:miter;"/>
   </g>
   <g id="patch_18">
    <path d="M 417.599955 72.072377 
C 417.599962 72.066348 417.599969 72.06032 417.599974 72.054292 
C 417.59998 72.048264 417.599985 72.042235 417.599989 72.036207 
L 360 72 
L 417.599955 72.072377 
z
" style="fill:#a6d854;stroke:#ffffff;stroke-linejoin:miter;"/>
   </g>
   <g id="patch_19">
    <path d="M 417.599989 72.036207 
C 417.599992 72.030179 417.599995 72.024151 417.599997 72.018122 
C 417.599999 72.012094 417.6 72.006066 417.6 72.000038 
L 360 72 
L 417.599989 72.036207 
z
" style="fill:#ffd92f;stroke:#ffffff;stroke-linejoin:miter;"/>
   </g>
  </g>
  <g id="axes_4">
   <g id="patch_20">
    <path d="M 561.6 72 
C 561.6 71.993972 561.599999 71.987944 561.599997 71.981915 
C 561.599995 71.975887 561.599992 71.969859 561.599989 71.963831 
L 504 72 
L 561.6 72 
z
" style="fill:#66c2a5;stroke:#ffffff;stroke-linejoin:miter;"/>
   </g>
   <g id="patch_21">
    <path d="M 561.599989 71.963831 
C 561.592907 60.686216 558.27388 49.655188 552.056716 40.24607 
C 545.839552 30.836952 536.993835 23.457735 526.622431 19.028445 
C 516.251027 14.599155 504.803653 13.311851 493.707542 15.327032 
C 482.611431 17.342213 472.347725 22.572496 464.19608 30.365784 
C 456.044436 38.159071 450.358319 48.177434 447.846661 59.171806 
C 445.335004 70.166178 446.106716 81.659828 450.065581 92.219753 
C 454.024446 102.779678 460.998802 111.947987 470.119104 118.581593 
C 479.239405 125.2152 490.110182 129.026464 501.376091 129.540204 
L 504 72 
L 561.599989 71.963831 
z
" style="fill:#fc8d62;stroke:#ffffff;stroke-linejoin:miter;"/>
   </g>
   <g id="patch_22">
    <path d="M 501.376091 129.540204 
C 509.14374 129.894419 516.903285 128.672101 524.185883 125.947105 
C 531.468481 123.222108 538.124442 119.050444 543.751604 113.68417 
C 549.378765 108.317896 553.861463 101.867313 556.928846 94.722175 
C 559.99623 87.577037 561.585251 79.884208 561.599898 72.1085 
L 504 72 
L 501.376091 129.540204 
z
" style="fill:#8da0cb;stroke:#ffffff;stroke-linejoin:miter;"/>
   </g>
   <g id="patch_23">
    <path d="M 561.599898 72.1085 
C 561.599909 72.102472 561.59992 72.096444 561.599929 72.090416 
C 561.599938 72.084388 561.599947 72.078359 561.599955 72.072331 
L 504 72 
L 561.599898 72.1085 
z
" style="fill:#e78ac3;stroke:#ffffff;stroke-linejoin:miter;"/>
   </g>
   <g id="patch_24">
    <path d="M 561.599955 72.072331 
C 561.599962 72.066303 561.599969 72.060275 561.599974 72.054246 
C 561.59998 72.048218 561.599985 72.04219 561.599989 72.036162 
L 504 72 
L 561.599955 72.072331 
z
" style="fill:#a6d854;stroke:#ffffff;stroke-linejoin:miter;"/>
   </g>
   <g id="patch_25">
    <path d="M 561.599989 72.036162 
C 561.599992 72.030133 561.599995 72.024105 561.599997 72.018077 
C 561.599999 72.012049 561.6 72.00602 561.6 71.999992 
L 504 72 
L 561.599989 72.036162 
z
" style="fill:#ffd92f;stroke:#ffffff;stroke-linejoin:miter;"/>
   </g>
  </g>
  <g id="axes_5">
   <g id="patch_26">
    <path d="M 705.6 72 
C 705.6 71.993968 705.599999 71.987936 705.599997 71.981904 
C 705.599995 71.975873 705.599992 71.969841 705.599989 71.963809 
L 648 72 
L 705.6 72 
z
" style="fill:#66c2a5;stroke:#ffffff;stroke-linejoin:miter;"/>
   </g>
   <g id="patch_27">
    <path d="M 705.599989 71.963809 
C 705.595259 64.43638 704.114997 56.982366 701.243114 50.024313 
C 698.371231 43.066261 694.163039 36.738179 688.857088 31.398789 
C 683.551137 26.059398 677.249617 21.811534 670.309744 18.895995 
C 663.369871 15.980456 655.925303 14.453395 648.398053 14.401375 
C 640.870802 14.349356 633.405841 15.773381 626.426335 18.592726 
C 619.446829 21.41207 613.087202 25.572436 607.707962 30.837983 
C 602.328722 36.10353 598.033472 42.372846 595.065696 49.290542 
C 592.097921 56.208238 590.514779 63.641081 590.406013 71.167726 
C 590.297248 78.69437 591.664954 86.169855 594.431601 93.170418 
C 597.198247 100.17098 601.31055 106.561792 606.535393 111.980575 
C 611.760237 117.399359 617.996993 121.741751 624.892119 124.761594 
C 631.787244 127.781437 639.207941 129.42057 646.733552 129.586076 
C 654.259162 129.751581 661.744746 128.440271 668.765967 125.72648 
C 675.787188 123.012688 682.20882 118.948683 687.66684 113.76484 
C 693.124859 108.580996 697.514147 102.377154 700.585886 95.504991 
C 703.657625 88.632828 705.352656 81.224699 705.574891 73.70055 
L 648 72 
L 705.599989 71.963809 
z
" style="fill:#fc8d62;stroke:#ffffff;stroke-linejoin:miter;"/>
   </g>
   <g id="patch_28">
    <path d="M 705.574891 73.70055 
C 705.57507 73.694521 705.575247 73.688492 705.575423 73.682463 
C 705.575599 73.676433 705.575774 73.670404 705.575949 73.664375 
L 648 72 
L 705.574891 73.70055 
z
" style="fill:#8da0cb;stroke:#ffffff;stroke-linejoin:miter;"/>
   </g>
   <g id="patch_29">
    <path d="M 705.575949 73.664375 
C 705.582048 73.453368 705.586988 73.242329 705.590767 73.031268 
C 705.594547 72.820207 705.597166 72.609126 705.598625 72.398036 
L 648 72 
L 705.575949 73.664375 
z
" style="fill:#e78ac3;stroke:#ffffff;stroke-linejoin:miter;"/>
   </g>
   <g id="patch_30">
    <path d="M 705.598625 72.398036 
C 705.598666 72.392005 705.598707 72.385973 705.598747 72.379941 
C 705.598787 72.373909 705.598826 72.367878 705.598863 72.361846 
L 648 72 
L 705.598625 72.398036 
z
" style="fill:#a6d854;stroke:#ffffff;stroke-linejoin:miter;"/>
   </g>
   <g id="patch_31">
    <path d="M 705.598863 72.361846 
C 705.598901 72.355814 705.598938 72.349782 705.598974 72.343751 
C 705.59901 72.337719 705.599045 72.331687 705.599079 72.325655 
L 648 72 
L 705.598863 72.361846 
z
" style="fill:#ffd92f;stroke:#ffffff;stroke-linejoin:miter;"/>
   </g>
  </g>
  <g id="axes_6"/>
  <g id="axes_7"/>
  <g id="axes_8">
   <g id="patch_32">
    <path d="M 1137.6 72 
C 1137.6 56.871457 1131.639771 42.335765 1121.018859 31.562231 
C 1110.397947 20.788697 1095.948767 14.621697 1080.821764 14.405862 
C 1065.694761 14.190027 1051.075515 19.942273 1040.151551 30.408401 
C 1029.227588 40.874528 1022.855074 55.234255 1022.423448 70.356639 
L 1080 72 
L 1137.6 72 
z
" style="fill:#66c2a5;stroke:#ffffff;stroke-linejoin:miter;"/>
   </g>
   <g id="patch_33">
    <path d="M 1022.423448 70.356639 
C 1022.117135 81.088586 1024.817399 91.695407 1030.218079 100.974478 
C 1035.618759 110.253549 1043.507724 117.8404 1052.990505 122.874819 
C 1062.473286 127.909237 1073.177413 130.193477 1083.889228 129.468547 
C 1094.601042 128.743617 1104.899801 125.03799 1113.617805 118.77182 
L 1080 72 
L 1022.423448 70.356639 
z
" style="fill:#fc8d62;stroke:#ffffff;stroke-linejoin:miter;"/>
   </g>
   <g id="patch_34">
    <path d="M 1113.617805 118.77182 
C 1113.63736 118.757765 1113.656906 118.743698 1113.676443 118.729618 
C 1113.69598 118.715538 1113.715508 118.701447 1113.735027 118.687343 
L 1080 72 
L 1113.617805 118.77182 
z
" style="fill:#8da0cb;stroke:#ffffff;stroke-linejoin:miter;"/>
   </g>
   <g id="patch_35">
    <path d="M 1113.735027 118.687343 
C 1117.497042 115.969011 1120.916744 112.805908 1123.919671 109.266909 
C 1126.922598 105.72791 1129.486794 101.83889 1131.556425 97.684529 
L 1080 72 
L 1113.735027 118.687343 
z
" style="fill:#e78ac3;stroke:#ffffff;stroke-linejoin:miter;"/>
   </g>
   <g id="patch_36">
    <path d="M 1131.556425 97.684529 
C 1133.265229 94.254455 1134.62747 90.662395 1135.622884 86.961778 
C 1136.618298 83.26116 1137.241927 79.470424 1137.484494 75.645952 
L 1080 72 
L 1131.556425 97.684529 
z
" style="fill:#a6d854;stroke:#ffffff;stroke-linejoin:miter;"/>
   </g>
   <g id="patch_37">
    <path d="M 1137.484494 75.645952 
C 1137.522984 75.039097 1137.551861 74.43167 1137.571116 73.8239 
C 1137.590371 73.21613 1137.6 72.608093 1137.6 72.000018 
L 1080 72 
L 1137.484494 75.645952 
z
" style="fill:#ffd92f;stroke:#ffffff;stroke-linejoin:miter;"/>
   </g>
  </g>
  <g id="axes_9">
   <g id="patch_38">
    <path d="M 1281.6 72 
C 1281.6 61.936865 1278.962847 52.047252 1273.952284 43.320228 
C 1268.941722 34.593205 1261.730547 27.329736 1253.039955 22.256246 
C 1244.349363 17.182757 1234.479063 14.474215 1224.416191 14.401504 
C 1214.353319 14.328792 1204.444909 16.894419 1195.681909 21.841793 
L 1224 72 
L 1281.6 72 
z
" style="fill:#66c2a5;stroke:#ffffff;stroke-linejoin:miter;"/>
   </g>
   <g id="patch_39">
    <path d="M 1195.681909 21.841793 
C 1188.07549 26.13619 1181.544647 32.105108 1176.585059 39.295514 
C 1171.625472 46.485921 1168.365872 54.711181 1167.053659 63.34701 
C 1165.741446 71.982839 1166.410679 80.805085 1169.010564 89.144153 
C 1171.61045 97.48322 1176.073505 105.122659 1182.060991 111.482649 
C 1188.048477 117.842638 1195.404982 122.758097 1203.572158 125.855949 
C 1211.739334 128.953802 1220.505193 130.153639 1229.20442 129.364397 
C 1237.903647 128.575154 1246.310443 125.817317 1253.786746 121.3002 
C 1261.26305 116.783084 1267.614804 110.623935 1272.35992 103.290224 
L 1224 72 
L 1195.681909 21.841793 
z
" style="fill:#fc8d62;stroke:#ffffff;stroke-linejoin:miter;"/>
   </g>
   <g id="patch_40">
    <path d="M 1272.35992 103.290224 
C 1274.938677 99.304682 1277.014875 95.015594 1278.541236 90.520625 
C 1280.067598 86.025655 1281.032448 81.359185 1281.413818 76.627475 
L 1224 72 
L 1272.35992 103.290224 
z
" style="fill:#8da0cb;stroke:#ffffff;stroke-linejoin:miter;"/>
   </g>
   <g id="patch_41">
    <path d="M 1281.413818 76.627475 
C 1281.414302 76.621462 1281.414786 76.61545 1281.415269 76.609437 
C 1281.415751 76.603425 1281.416233 76.597412 1281.416714 76.5914 
L 1224 72 
L 1281.413818 76.627475 
z
" style="fill:#e78ac3;stroke:#ffffff;stroke-linejoin:miter;"/>
   </g>
   <g id="patch_42">
    <path d="M 1281.416714 76.5914 
C 1281.418637 76.567349 1281.420545 76.543297 1281.422438 76.519244 
C 1281.424331 76.495191 1281.426209 76.471137 1281.428072 76.447081 
L 1224 72 
L 1281.416714 76.5914 
z
" style="fill:#a6d854;stroke:#ffffff;stroke-linejoin:miter;"/>
   </g>
   <g id="patch_43">
    <path d="M 1281.428072 76.447081 
C 1281.475109 75.839669 1281.512505 75.23155 1281.540248 74.622951 
C 1281.567991 74.014353 1281.586076 73.405352 1281.594497 72.79618 
L 1224 72 
L 1281.428072 76.447081 
z
" style="fill:#ffd92f;stroke:#ffffff;stroke-linejoin:miter;"/>
   </g>
  </g>
  <g id="axes_10">
   <g id="patch_44">
    <path d="M 1425.6 72 
C 1425.6 71.903538 1425.599758 71.807077 1425.599273 71.710617 
C 1425.598788 71.614156 1425.598062 71.517698 1425.597092 71.421241 
L 1368 72 
L 1425.6 72 
z
" style="fill:#66c2a5;stroke:#ffffff;stroke-linejoin:miter;"/>
   </g>
   <g id="patch_45">
    <path d="M 1425.597092 71.421241 
C 1425.521312 63.879723 1423.965083 56.425992 1421.016957 49.484177 
C 1418.068831 42.542363 1413.785807 36.246677 1408.411596 30.955355 
C 1403.037385 25.664033 1396.675891 21.479376 1389.689095 18.639498 
C 1382.702298 15.79962 1375.22528 14.359428 1367.683495 14.40087 
C 1360.14171 14.442311 1352.680971 15.964586 1345.725805 18.881075 
C 1338.770639 21.797563 1332.455517 26.051877 1327.13978 31.40194 
C 1321.824043 36.752004 1317.610465 43.094378 1314.738805 50.068172 
C 1311.867145 57.041966 1310.392923 64.512349 1310.400026 72.054245 
C 1310.407128 79.59614 1311.895417 87.063733 1314.780208 94.032106 
C 1317.664998 101.000479 1321.890514 107.334906 1327.216319 112.674947 
C 1332.542123 118.014989 1338.865247 122.257401 1345.825893 125.160784 
C 1352.78654 128.064167 1360.250133 129.572387 1367.791983 129.599624 
C 1375.333832 129.626861 1382.808125 128.172588 1389.78956 125.319556 
C 1396.770996 122.466524 1403.124596 118.269893 1408.488832 112.968458 
C 1413.853067 107.667022 1418.124225 101.363281 1421.059271 94.415926 
C 1423.994317 87.468571 1425.536504 80.011922 1425.59808 72.470275 
L 1368 72 
L 1425.597092 71.421241 
z
" style="fill:#fc8d62;stroke:#ffffff;stroke-linejoin:miter;"/>
   </g>
   <g id="patch_46">
    <path d="M 1425.59808 72.470275 
C 1425.598474 72.422045 1425.598807 72.373816 1425.59908 72.325586 
C 1425.599352 72.277356 1425.599564 72.229126 1425.599716 72.180895 
L 1368 72 
L 1425.59808 72.470275 
z
" style="fill:#8da0cb;stroke:#ffffff;stroke-linejoin:miter;"/>
   </g>
   <g id="patch_47">
    <path d="M 1425.599716 72.180895 
C 1425.599773 72.162809 1425.599821 72.144722 1425.599861 72.126636 
C 1425.599901 72.108549 1425.599932 72.090463 1425.599955 72.072376 
L 1368 72 
L 1425.599716 72.180895 
z
" style="fill:#e78ac3;stroke:#ffffff;stroke-linejoin:miter;"/>
   </g>
   <g id="patch_48">
    <path d="M 1425.599955 72.072376 
C 1425.599962 72.066347 1425.599969 72.060318 1425.599974 72.05429 
C 1425.59998 72.048261 1425.599985 72.042232 1425.599989 72.036203 
L 1368 72 
L 1425.599955 72.072376 
z
" style="fill:#a6d854;stroke:#ffffff;stroke-linejoin:miter;"/>
   </g>
   <g id="patch_49">
    <path d="M 1425.599989 72.036203 
C 1425.599992 72.030174 1425.599995 72.024145 1425.599997 72.018117 
C 1425.599999 72.012088 1425.6 72.006059 1425.6 72.00003 
L 1368 72 
L 1425.599989 72.036203 
z
" style="fill:#ffd92f;stroke:#ffffff;stroke-linejoin:miter;"/>
   </g>
  </g>
  <g id="axes_11">
   <g id="patch_50">
    <path d="M 1569.6 72 
C 1569.6 65.738734 1568.579077 59.519153 1566.577476 53.586442 
C 1564.575876 47.653732 1561.62025 42.086889 1557.827115 37.105365 
C 1554.033979 32.123841 1549.453841 27.793968 1544.267255 24.286435 
C 1539.080669 20.778902 1533.356697 18.140415 1527.320987 16.474984 
C 1521.285277 14.809554 1515.018196 14.139357 1508.766801 14.490814 
C 1502.515406 14.842271 1496.362938 16.210702 1490.551935 18.542161 
C 1484.740932 20.873621 1479.34877 24.137064 1474.588017 28.203842 
C 1469.827263 32.270619 1465.761308 37.086581 1462.550439 42.461874 
C 1459.339569 47.837167 1457.026539 53.700217 1455.702531 59.819895 
C 1454.378522 65.939573 1454.061166 72.234393 1454.762971 78.456203 
C 1455.464777 84.678014 1457.1764 90.743969 1459.830366 96.414941 
C 1462.484333 102.085913 1466.045303 107.286389 1470.372899 111.811361 
C 1474.700495 116.336333 1479.737093 120.125547 1485.284144 123.029629 
C 1490.831194 125.93371 1496.814836 127.91399 1502.999184 128.892401 
C 1509.183533 129.870813 1515.486242 129.834329 1521.658849 128.784387 
C 1527.831456 127.734446 1533.791771 125.685027 1539.30483 122.716923 
L 1512 72 
L 1569.6 72 
z
" style="fill:#66c2a5;stroke:#ffffff;stroke-linejoin:miter;"/>
   </g>
   <g id="patch_51">
    <path d="M 1539.30483 122.716923 
C 1545.270275 119.505264 1550.62256 115.266143 1555.115128 110.194839 
C 1559.607696 105.123535 1563.170485 99.299134 1565.639372 92.989944 
L 1512 72 
L 1539.30483 122.716923 
z
" style="fill:#fc8d62;stroke:#ffffff;stroke-linejoin:miter;"/>
   </g>
   <g id="patch_52">
    <path d="M 1565.639372 92.989944 
C 1566.938578 89.66985 1567.926729 86.23629 1568.591096 82.733494 
C 1569.255462 79.230698 1569.59318 75.673772 1569.599898 72.108535 
L 1512 72 
L 1565.639372 92.989944 
z
" style="fill:#8da0cb;stroke:#ffffff;stroke-linejoin:miter;"/>
   </g>
   <g id="patch_53">
    <path d="M 1569.599898 72.108535 
C 1569.599909 72.102507 1569.59992 72.096478 1569.599929 72.09045 
C 1569.599938 72.084422 1569.599947 72.078394 1569.599955 72.072365 
L 1512 72 
L 1569.599898 72.108535 
z
" style="fill:#e78ac3;stroke:#ffffff;stroke-linejoin:miter;"/>
   </g>
   <g id="patch_54">
    <path d="M 1569.599955 72.072365 
C 1569.599962 72.066337 1569.599969 72.060309 1569.599974 72.054281 
C 1569.59998 72.048252 1569.599985 72.042224 1569.599989 72.036196 
L 1512 72 
L 1569.599955 72.072365 
z
" style="fill:#a6d854;stroke:#ffffff;stroke-linejoin:miter;"/>
   </g>
   <g id="patch_55">
    <path d="M 1569.599989 72.036196 
C 1569.599992 72.030168 1569.599995 72.024139 1569.599997 72.018111 
C 1569.599999 72.012083 1569.6 72.006055 1569.6 72.000027 
L 1512 72 
L 1569.599989 72.036196 
z
" style="fill:#ffd92f;stroke:#ffffff;stroke-linejoin:miter;"/>
   </g>
  </g>
  <g id="axes_12">
   <g id="patch_56">
    <path d="M 1713.6 72 
C 1713.6 68.095987 1713.203091 64.202069 1712.415398 60.378347 
C 1711.627706 56.554624 1710.453304 52.820871 1708.910319 49.234715 
L 1656 72 
L 1713.6 72 
z
" style="fill:#66c2a5;stroke:#ffffff;stroke-linejoin:miter;"/>
   </g>
   <g id="patch_57">
    <path d="M 1708.910319 49.234715 
C 1706.118551 42.746181 1702.15689 36.826195 1697.223482 31.770849 
C 1692.290073 26.715503 1686.468561 22.610509 1680.050111 19.661179 
C 1673.631661 16.71185 1666.725096 14.96819 1659.675853 14.51741 
C 1652.626609 14.066631 1645.554203 14.916374 1638.812366 17.024139 
C 1632.070529 19.131905 1625.773566 22.461957 1620.236424 26.84774 
C 1614.699281 31.233523 1610.015839 36.600678 1606.420343 42.680765 
C 1602.824846 48.760851 1600.378256 55.450782 1599.202939 62.415958 
C 1598.027622 69.381133 1598.143506 76.503462 1599.544795 83.426715 
C 1600.946083 90.349968 1603.609018 96.956764 1607.400411 102.916662 
C 1611.191804 108.87656 1616.047374 114.088511 1621.724266 118.291836 
C 1627.401157 122.495161 1633.803122 125.618594 1640.609961 127.505916 
C 1647.4168 129.393238 1654.513107 130.012449 1661.543954 129.332579 
C 1668.574802 128.652709 1675.420986 126.685285 1681.740089 123.528709 
C 1688.059193 120.372133 1693.744078 116.079923 1698.510413 110.866757 
C 1703.276747 105.653592 1707.043719 99.607857 1709.622922 93.031934 
C 1712.202124 86.456012 1713.549827 79.461394 1713.598626 72.39792 
L 1656 72 
L 1708.910319 49.234715 
z
" style="fill:#fc8d62;stroke:#ffffff;stroke-linejoin:miter;"/>
   </g>
   <g id="patch_58">
    <path d="M 1713.598626 72.39792 
C 1713.598792 72.373805 1713.598944 72.34969 1713.59908 72.325575 
C 1713.599216 72.30146 1713.599337 72.277345 1713.599443 72.25323 
L 1656 72 
L 1713.598626 72.39792 
z
" style="fill:#8da0cb;stroke:#ffffff;stroke-linejoin:miter;"/>
   </g>
   <g id="patch_59">
    <path d="M 1713.599443 72.25323 
C 1713.59947 72.247201 1713.599495 72.241173 1713.59952 72.235144 
C 1713.599545 72.229115 1713.599568 72.223086 1713.599591 72.217058 
L 1656 72 
L 1713.599443 72.25323 
z
" style="fill:#e78ac3;stroke:#ffffff;stroke-linejoin:miter;"/>
   </g>
   <g id="patch_60">
    <path d="M 1713.599591 72.217058 
C 1713.599705 72.186914 1713.599795 72.156769 1713.599861 72.126625 
C 1713.599927 72.096481 1713.59997 72.066337 1713.599989 72.036193 
L 1656 72 
L 1713.599591 72.217058 
z
" style="fill:#a6d854;stroke:#ffffff;stroke-linejoin:miter;"/>
   </g>
   <g id="patch_61">
    <path d="M 1713.599989 72.036193 
C 1713.599992 72.030164 1713.599995 72.024135 1713.599997 72.018106 
C 1713.599999 72.012077 1713.6 72.006049 1713.6 72.00002 
L 1656 72 
L 1713.599989 72.036193 
z
" style="fill:#ffd92f;stroke:#ffffff;stroke-linejoin:miter;"/>
   </g>
  </g>
  <g id="text_1">
   <!-- ONN4MST Layer-5 -->
   <defs>
    <path d="M 42.484375 60.59375 
Q 33.890625 60.59375 29.15625 54.25 
Q 24.421875 47.90625 24.421875 36.375 
Q 24.421875 24.90625 29.15625 18.546875 
Q 33.890625 12.203125 42.484375 12.203125 
Q 51.125 12.203125 55.859375 18.546875 
Q 60.59375 24.90625 60.59375 36.375 
Q 60.59375 47.90625 55.859375 54.25 
Q 51.125 60.59375 42.484375 60.59375 
z
M 42.484375 74.21875 
Q 60.0625 74.21875 70.015625 64.15625 
Q 79.984375 54.109375 79.984375 36.375 
Q 79.984375 18.703125 70.015625 8.640625 
Q 60.0625 -1.421875 42.484375 -1.421875 
Q 24.953125 -1.421875 14.96875 8.640625 
Q 4.984375 18.703125 4.984375 36.375 
Q 4.984375 54.109375 14.96875 64.15625 
Q 24.953125 74.21875 42.484375 74.21875 
z
" id="DejaVuSans-Bold-79"/>
    <path d="M 9.1875 72.90625 
L 30.171875 72.90625 
L 56.6875 22.90625 
L 56.6875 72.90625 
L 74.515625 72.90625 
L 74.515625 0 
L 53.515625 0 
L 27 50 
L 27 0 
L 9.1875 0 
z
" id="DejaVuSans-Bold-78"/>
    <path d="M 36.8125 57.421875 
L 16.21875 26.90625 
L 36.8125 26.90625 
z
M 33.6875 72.90625 
L 54.59375 72.90625 
L 54.59375 26.90625 
L 64.984375 26.90625 
L 64.984375 13.28125 
L 54.59375 13.28125 
L 54.59375 0 
L 36.8125 0 
L 36.8125 13.28125 
L 4.5 13.28125 
L 4.5 29.390625 
z
" id="DejaVuSans-Bold-52"/>
    <path d="M 9.1875 72.90625 
L 33.109375 72.90625 
L 49.703125 33.890625 
L 66.40625 72.90625 
L 90.28125 72.90625 
L 90.28125 0 
L 72.515625 0 
L 72.515625 53.328125 
L 55.71875 14.015625 
L 43.796875 14.015625 
L 27 53.328125 
L 27 0 
L 9.1875 0 
z
" id="DejaVuSans-Bold-77"/>
    <path d="M 59.90625 70.609375 
L 59.90625 55.171875 
Q 53.90625 57.859375 48.1875 59.21875 
Q 42.484375 60.59375 37.40625 60.59375 
Q 30.671875 60.59375 27.4375 58.734375 
Q 24.21875 56.890625 24.21875 52.984375 
Q 24.21875 50.046875 26.390625 48.40625 
Q 28.5625 46.78125 34.28125 45.609375 
L 42.28125 44 
Q 54.4375 41.546875 59.5625 36.5625 
Q 64.703125 31.59375 64.703125 22.40625 
Q 64.703125 10.359375 57.546875 4.46875 
Q 50.390625 -1.421875 35.6875 -1.421875 
Q 28.765625 -1.421875 21.78125 -0.09375 
Q 14.796875 1.21875 7.8125 3.8125 
L 7.8125 19.671875 
Q 14.796875 15.96875 21.3125 14.078125 
Q 27.828125 12.203125 33.890625 12.203125 
Q 40.046875 12.203125 43.3125 14.25 
Q 46.578125 16.3125 46.578125 20.125 
Q 46.578125 23.53125 44.359375 25.390625 
Q 42.140625 27.25 35.5 28.71875 
L 28.21875 30.328125 
Q 17.28125 32.671875 12.21875 37.796875 
Q 7.171875 42.921875 7.171875 51.609375 
Q 7.171875 62.5 14.203125 68.359375 
Q 21.234375 74.21875 34.421875 74.21875 
Q 40.4375 74.21875 46.78125 73.3125 
Q 53.125 72.40625 59.90625 70.609375 
z
" id="DejaVuSans-Bold-83"/>
    <path d="M 0.484375 72.90625 
L 67.671875 72.90625 
L 67.671875 58.6875 
L 43.5 58.6875 
L 43.5 0 
L 24.703125 0 
L 24.703125 58.6875 
L 0.484375 58.6875 
z
" id="DejaVuSans-Bold-84"/>
    <path id="DejaVuSans-Bold-32"/>
    <path d="M 9.1875 72.90625 
L 27.984375 72.90625 
L 27.984375 14.203125 
L 60.984375 14.203125 
L 60.984375 0 
L 9.1875 0 
z
" id="DejaVuSans-Bold-76"/>
    <path d="M 32.90625 24.609375 
Q 27.4375 24.609375 24.671875 22.75 
Q 21.921875 20.90625 21.921875 17.28125 
Q 21.921875 13.96875 24.140625 12.078125 
Q 26.375 10.203125 30.328125 10.203125 
Q 35.25 10.203125 38.625 13.734375 
Q 42 17.28125 42 22.609375 
L 42 24.609375 
z
M 59.625 31.203125 
L 59.625 0 
L 42 0 
L 42 8.109375 
Q 38.484375 3.125 34.078125 0.84375 
Q 29.6875 -1.421875 23.390625 -1.421875 
Q 14.890625 -1.421875 9.59375 3.53125 
Q 4.296875 8.5 4.296875 16.40625 
Q 4.296875 26.03125 10.90625 30.515625 
Q 17.53125 35.015625 31.6875 35.015625 
L 42 35.015625 
L 42 36.375 
Q 42 40.53125 38.71875 42.453125 
Q 35.453125 44.390625 28.515625 44.390625 
Q 22.90625 44.390625 18.0625 43.265625 
Q 13.234375 42.140625 9.078125 39.890625 
L 9.078125 53.21875 
Q 14.703125 54.59375 20.359375 55.296875 
Q 26.03125 56 31.6875 56 
Q 46.484375 56 53.046875 50.171875 
Q 59.625 44.34375 59.625 31.203125 
z
" id="DejaVuSans-Bold-97"/>
    <path d="M 1.21875 54.6875 
L 18.703125 54.6875 
L 33.40625 17.578125 
L 45.90625 54.6875 
L 63.375 54.6875 
L 40.375 -5.171875 
Q 36.921875 -14.3125 32.296875 -17.9375 
Q 27.6875 -21.578125 20.125 -21.578125 
L 10.015625 -21.578125 
L 10.015625 -10.109375 
L 15.484375 -10.109375 
Q 19.921875 -10.109375 21.9375 -8.6875 
Q 23.96875 -7.28125 25.09375 -3.609375 
L 25.59375 -2.09375 
z
" id="DejaVuSans-Bold-121"/>
    <path d="M 62.984375 27.484375 
L 62.984375 22.515625 
L 22.125 22.515625 
Q 22.75 16.359375 26.5625 13.28125 
Q 30.375 10.203125 37.203125 10.203125 
Q 42.71875 10.203125 48.5 11.84375 
Q 54.296875 13.484375 60.40625 16.796875 
L 60.40625 3.328125 
Q 54.203125 0.984375 48 -0.21875 
Q 41.796875 -1.421875 35.59375 -1.421875 
Q 20.75 -1.421875 12.515625 6.125 
Q 4.296875 13.671875 4.296875 27.296875 
Q 4.296875 40.671875 12.375 48.328125 
Q 20.453125 56 34.625 56 
Q 47.515625 56 55.25 48.234375 
Q 62.984375 40.484375 62.984375 27.484375 
z
M 45.015625 33.296875 
Q 45.015625 38.28125 42.109375 41.328125 
Q 39.203125 44.390625 34.515625 44.390625 
Q 29.4375 44.390625 26.265625 41.53125 
Q 23.09375 38.671875 22.3125 33.296875 
z
" id="DejaVuSans-Bold-101"/>
    <path d="M 49.03125 39.796875 
Q 46.734375 40.875 44.453125 41.375 
Q 42.1875 41.890625 39.890625 41.890625 
Q 33.15625 41.890625 29.515625 37.5625 
Q 25.875 33.25 25.875 25.203125 
L 25.875 0 
L 8.40625 0 
L 8.40625 54.6875 
L 25.875 54.6875 
L 25.875 45.703125 
Q 29.25 51.078125 33.609375 53.53125 
Q 37.984375 56 44.09375 56 
Q 44.96875 56 45.984375 55.921875 
Q 47.015625 55.859375 48.96875 55.609375 
z
" id="DejaVuSans-Bold-114"/>
    <path d="M 5.421875 35.890625 
L 36.078125 35.890625 
L 36.078125 21.6875 
L 5.421875 21.6875 
z
" id="DejaVuSans-Bold-45"/>
    <path d="M 10.59375 72.90625 
L 57.328125 72.90625 
L 57.328125 59.078125 
L 25.59375 59.078125 
L 25.59375 47.796875 
Q 27.734375 48.390625 29.90625 48.703125 
Q 32.078125 49.03125 34.421875 49.03125 
Q 47.75 49.03125 55.171875 42.359375 
Q 62.59375 35.6875 62.59375 23.78125 
Q 62.59375 11.96875 54.515625 5.265625 
Q 46.4375 -1.421875 32.078125 -1.421875 
Q 25.875 -1.421875 19.796875 -0.21875 
Q 13.71875 0.984375 7.71875 3.421875 
L 7.71875 18.21875 
Q 13.671875 14.796875 19.015625 13.078125 
Q 24.359375 11.375 29.109375 11.375 
Q 35.9375 11.375 39.859375 14.71875 
Q 43.796875 18.0625 43.796875 23.78125 
Q 43.796875 29.546875 39.859375 32.859375 
Q 35.9375 36.1875 29.109375 36.1875 
Q 25.046875 36.1875 20.453125 35.125 
Q 15.875 34.078125 10.59375 31.890625 
z
" id="DejaVuSans-Bold-53"/>
   </defs>
   <g style="fill:#262626;" transform="translate(787.648828 17.040469)scale(0.15 -0.15)">
    <use xlink:href="#DejaVuSans-Bold-79"/>
    <use x="85.009766" xlink:href="#DejaVuSans-Bold-78"/>
    <use x="168.701172" xlink:href="#DejaVuSans-Bold-78"/>
    <use x="252.392578" xlink:href="#DejaVuSans-Bold-52"/>
    <use x="321.972656" xlink:href="#DejaVuSans-Bold-77"/>
    <use x="421.484375" xlink:href="#DejaVuSans-Bold-83"/>
    <use x="493.505859" xlink:href="#DejaVuSans-Bold-84"/>
    <use x="561.71875" xlink:href="#DejaVuSans-Bold-32"/>
    <use x="596.533203" xlink:href="#DejaVuSans-Bold-76"/>
    <use x="660.253906" xlink:href="#DejaVuSans-Bold-97"/>
    <use x="724.609375" xlink:href="#DejaVuSans-Bold-121"/>
    <use x="789.794922" xlink:href="#DejaVuSans-Bold-101"/>
    <use x="857.617188" xlink:href="#DejaVuSans-Bold-114"/>
    <use x="906.933594" xlink:href="#DejaVuSans-Bold-45"/>
    <use x="948.4375" xlink:href="#DejaVuSans-Bold-53"/>
   </g>
  </g>
  <g id="legend_1">
   <g id="patch_62">
    <path d="M 770.12 147.184375 
L 963.788125 147.184375 
Q 966.588125 147.184375 966.588125 144.384375 
L 966.588125 21.32 
Q 966.588125 18.52 963.788125 18.52 
L 770.12 18.52 
Q 767.32 18.52 767.32 21.32 
L 767.32 144.384375 
Q 767.32 147.184375 770.12 147.184375 
z
" style="fill:none;opacity:0;"/>
   </g>
   <g id="patch_63">
    <path d="M 772.92 34.757812 
L 800.92 34.757812 
L 800.92 24.957812 
L 772.92 24.957812 
z
" style="fill:#66c2a5;stroke:#ffffff;stroke-linejoin:miter;"/>
   </g>
   <g id="text_2">
    <!-- Unknown -->
    <defs>
     <path d="M 8.6875 72.90625 
L 18.609375 72.90625 
L 18.609375 28.609375 
Q 18.609375 16.890625 22.84375 11.734375 
Q 27.09375 6.59375 36.625 6.59375 
Q 46.09375 6.59375 50.34375 11.734375 
Q 54.59375 16.890625 54.59375 28.609375 
L 54.59375 72.90625 
L 64.5 72.90625 
L 64.5 27.390625 
Q 64.5 13.140625 57.4375 5.859375 
Q 50.390625 -1.421875 36.625 -1.421875 
Q 22.796875 -1.421875 15.734375 5.859375 
Q 8.6875 13.140625 8.6875 27.390625 
z
" id="DejaVuSans-85"/>
     <path d="M 54.890625 33.015625 
L 54.890625 0 
L 45.90625 0 
L 45.90625 32.71875 
Q 45.90625 40.484375 42.875 44.328125 
Q 39.84375 48.1875 33.796875 48.1875 
Q 26.515625 48.1875 22.3125 43.546875 
Q 18.109375 38.921875 18.109375 30.90625 
L 18.109375 0 
L 9.078125 0 
L 9.078125 54.6875 
L 18.109375 54.6875 
L 18.109375 46.1875 
Q 21.34375 51.125 25.703125 53.5625 
Q 30.078125 56 35.796875 56 
Q 45.21875 56 50.046875 50.171875 
Q 54.890625 44.34375 54.890625 33.015625 
z
" id="DejaVuSans-110"/>
     <path d="M 9.078125 75.984375 
L 18.109375 75.984375 
L 18.109375 31.109375 
L 44.921875 54.6875 
L 56.390625 54.6875 
L 27.390625 29.109375 
L 57.625 0 
L 45.90625 0 
L 18.109375 26.703125 
L 18.109375 0 
L 9.078125 0 
z
" id="DejaVuSans-107"/>
     <path d="M 30.609375 48.390625 
Q 23.390625 48.390625 19.1875 42.75 
Q 14.984375 37.109375 14.984375 27.296875 
Q 14.984375 17.484375 19.15625 11.84375 
Q 23.34375 6.203125 30.609375 6.203125 
Q 37.796875 6.203125 41.984375 11.859375 
Q 46.1875 17.53125 46.1875 27.296875 
Q 46.1875 37.015625 41.984375 42.703125 
Q 37.796875 48.390625 30.609375 48.390625 
z
M 30.609375 56 
Q 42.328125 56 49.015625 48.375 
Q 55.71875 40.765625 55.71875 27.296875 
Q 55.71875 13.875 49.015625 6.21875 
Q 42.328125 -1.421875 30.609375 -1.421875 
Q 18.84375 -1.421875 12.171875 6.21875 
Q 5.515625 13.875 5.515625 27.296875 
Q 5.515625 40.765625 12.171875 48.375 
Q 18.84375 56 30.609375 56 
z
" id="DejaVuSans-111"/>
     <path d="M 4.203125 54.6875 
L 13.1875 54.6875 
L 24.421875 12.015625 
L 35.59375 54.6875 
L 46.1875 54.6875 
L 57.421875 12.015625 
L 68.609375 54.6875 
L 77.59375 54.6875 
L 63.28125 0 
L 52.6875 0 
L 40.921875 44.828125 
L 29.109375 0 
L 18.5 0 
z
" id="DejaVuSans-119"/>
    </defs>
    <g style="fill:#262626;" transform="translate(812.12 34.757812)scale(0.14 -0.14)">
     <use xlink:href="#DejaVuSans-85"/>
     <use x="73.193359" xlink:href="#DejaVuSans-110"/>
     <use x="136.572266" xlink:href="#DejaVuSans-107"/>
     <use x="194.482422" xlink:href="#DejaVuSans-110"/>
     <use x="257.861328" xlink:href="#DejaVuSans-111"/>
     <use x="319.042969" xlink:href="#DejaVuSans-119"/>
     <use x="400.830078" xlink:href="#DejaVuSans-110"/>
    </g>
   </g>
   <g id="patch_64">
    <path d="M 772.92 55.307187 
L 800.92 55.307187 
L 800.92 45.507187 
L 772.92 45.507187 
z
" style="fill:#fc8d62;stroke:#ffffff;stroke-linejoin:miter;"/>
   </g>
   <g id="text_3">
    <!-- Large_intestine (H*) -->
    <defs>
     <path d="M 9.8125 72.90625 
L 19.671875 72.90625 
L 19.671875 8.296875 
L 55.171875 8.296875 
L 55.171875 0 
L 9.8125 0 
z
" id="DejaVuSans-76"/>
     <path d="M 34.28125 27.484375 
Q 23.390625 27.484375 19.1875 25 
Q 14.984375 22.515625 14.984375 16.5 
Q 14.984375 11.71875 18.140625 8.90625 
Q 21.296875 6.109375 26.703125 6.109375 
Q 34.1875 6.109375 38.703125 11.40625 
Q 43.21875 16.703125 43.21875 25.484375 
L 43.21875 27.484375 
z
M 52.203125 31.203125 
L 52.203125 0 
L 43.21875 0 
L 43.21875 8.296875 
Q 40.140625 3.328125 35.546875 0.953125 
Q 30.953125 -1.421875 24.3125 -1.421875 
Q 15.921875 -1.421875 10.953125 3.296875 
Q 6 8.015625 6 15.921875 
Q 6 25.140625 12.171875 29.828125 
Q 18.359375 34.515625 30.609375 34.515625 
L 43.21875 34.515625 
L 43.21875 35.40625 
Q 43.21875 41.609375 39.140625 45 
Q 35.0625 48.390625 27.6875 48.390625 
Q 23 48.390625 18.546875 47.265625 
Q 14.109375 46.140625 10.015625 43.890625 
L 10.015625 52.203125 
Q 14.9375 54.109375 19.578125 55.046875 
Q 24.21875 56 28.609375 56 
Q 40.484375 56 46.34375 49.84375 
Q 52.203125 43.703125 52.203125 31.203125 
z
" id="DejaVuSans-97"/>
     <path d="M 41.109375 46.296875 
Q 39.59375 47.171875 37.8125 47.578125 
Q 36.03125 48 33.890625 48 
Q 26.265625 48 22.1875 43.046875 
Q 18.109375 38.09375 18.109375 28.8125 
L 18.109375 0 
L 9.078125 0 
L 9.078125 54.6875 
L 18.109375 54.6875 
L 18.109375 46.1875 
Q 20.953125 51.171875 25.484375 53.578125 
Q 30.03125 56 36.53125 56 
Q 37.453125 56 38.578125 55.875 
Q 39.703125 55.765625 41.0625 55.515625 
z
" id="DejaVuSans-114"/>
     <path d="M 45.40625 27.984375 
Q 45.40625 37.75 41.375 43.109375 
Q 37.359375 48.484375 30.078125 48.484375 
Q 22.859375 48.484375 18.828125 43.109375 
Q 14.796875 37.75 14.796875 27.984375 
Q 14.796875 18.265625 18.828125 12.890625 
Q 22.859375 7.515625 30.078125 7.515625 
Q 37.359375 7.515625 41.375 12.890625 
Q 45.40625 18.265625 45.40625 27.984375 
z
M 54.390625 6.78125 
Q 54.390625 -7.171875 48.1875 -13.984375 
Q 42 -20.796875 29.203125 -20.796875 
Q 24.46875 -20.796875 20.265625 -20.09375 
Q 16.0625 -19.390625 12.109375 -17.921875 
L 12.109375 -9.1875 
Q 16.0625 -11.328125 19.921875 -12.34375 
Q 23.78125 -13.375 27.78125 -13.375 
Q 36.625 -13.375 41.015625 -8.765625 
Q 45.40625 -4.15625 45.40625 5.171875 
L 45.40625 9.625 
Q 42.625 4.78125 38.28125 2.390625 
Q 33.9375 0 27.875 0 
Q 17.828125 0 11.671875 7.65625 
Q 5.515625 15.328125 5.515625 27.984375 
Q 5.515625 40.671875 11.671875 48.328125 
Q 17.828125 56 27.875 56 
Q 33.9375 56 38.28125 53.609375 
Q 42.625 51.21875 45.40625 46.390625 
L 45.40625 54.6875 
L 54.390625 54.6875 
z
" id="DejaVuSans-103"/>
     <path d="M 56.203125 29.59375 
L 56.203125 25.203125 
L 14.890625 25.203125 
Q 15.484375 15.921875 20.484375 11.0625 
Q 25.484375 6.203125 34.421875 6.203125 
Q 39.59375 6.203125 44.453125 7.46875 
Q 49.3125 8.734375 54.109375 11.28125 
L 54.109375 2.78125 
Q 49.265625 0.734375 44.1875 -0.34375 
Q 39.109375 -1.421875 33.890625 -1.421875 
Q 20.796875 -1.421875 13.15625 6.1875 
Q 5.515625 13.8125 5.515625 26.8125 
Q 5.515625 40.234375 12.765625 48.109375 
Q 20.015625 56 32.328125 56 
Q 43.359375 56 49.78125 48.890625 
Q 56.203125 41.796875 56.203125 29.59375 
z
M 47.21875 32.234375 
Q 47.125 39.59375 43.09375 43.984375 
Q 39.0625 48.390625 32.421875 48.390625 
Q 24.90625 48.390625 20.390625 44.140625 
Q 15.875 39.890625 15.1875 32.171875 
z
" id="DejaVuSans-101"/>
     <path d="M 50.984375 -16.609375 
L 50.984375 -23.578125 
L -0.984375 -23.578125 
L -0.984375 -16.609375 
z
" id="DejaVuSans-95"/>
     <path d="M 9.421875 54.6875 
L 18.40625 54.6875 
L 18.40625 0 
L 9.421875 0 
z
M 9.421875 75.984375 
L 18.40625 75.984375 
L 18.40625 64.59375 
L 9.421875 64.59375 
z
" id="DejaVuSans-105"/>
     <path d="M 18.3125 70.21875 
L 18.3125 54.6875 
L 36.8125 54.6875 
L 36.8125 47.703125 
L 18.3125 47.703125 
L 18.3125 18.015625 
Q 18.3125 11.328125 20.140625 9.421875 
Q 21.96875 7.515625 27.59375 7.515625 
L 36.8125 7.515625 
L 36.8125 0 
L 27.59375 0 
Q 17.1875 0 13.234375 3.875 
Q 9.28125 7.765625 9.28125 18.015625 
L 9.28125 47.703125 
L 2.6875 47.703125 
L 2.6875 54.6875 
L 9.28125 54.6875 
L 9.28125 70.21875 
z
" id="DejaVuSans-116"/>
     <path d="M 44.28125 53.078125 
L 44.28125 44.578125 
Q 40.484375 46.53125 36.375 47.5 
Q 32.28125 48.484375 27.875 48.484375 
Q 21.1875 48.484375 17.84375 46.4375 
Q 14.5 44.390625 14.5 40.28125 
Q 14.5 37.15625 16.890625 35.375 
Q 19.28125 33.59375 26.515625 31.984375 
L 29.59375 31.296875 
Q 39.15625 29.25 43.1875 25.515625 
Q 47.21875 21.78125 47.21875 15.09375 
Q 47.21875 7.46875 41.1875 3.015625 
Q 35.15625 -1.421875 24.609375 -1.421875 
Q 20.21875 -1.421875 15.453125 -0.5625 
Q 10.6875 0.296875 5.421875 2 
L 5.421875 11.28125 
Q 10.40625 8.6875 15.234375 7.390625 
Q 20.0625 6.109375 24.8125 6.109375 
Q 31.15625 6.109375 34.5625 8.28125 
Q 37.984375 10.453125 37.984375 14.40625 
Q 37.984375 18.0625 35.515625 20.015625 
Q 33.0625 21.96875 24.703125 23.78125 
L 21.578125 24.515625 
Q 13.234375 26.265625 9.515625 29.90625 
Q 5.8125 33.546875 5.8125 39.890625 
Q 5.8125 47.609375 11.28125 51.796875 
Q 16.75 56 26.8125 56 
Q 31.78125 56 36.171875 55.265625 
Q 40.578125 54.546875 44.28125 53.078125 
z
" id="DejaVuSans-115"/>
     <path id="DejaVuSans-32"/>
     <path d="M 31 75.875 
Q 24.46875 64.65625 21.28125 53.65625 
Q 18.109375 42.671875 18.109375 31.390625 
Q 18.109375 20.125 21.3125 9.0625 
Q 24.515625 -2 31 -13.1875 
L 23.1875 -13.1875 
Q 15.875 -1.703125 12.234375 9.375 
Q 8.59375 20.453125 8.59375 31.390625 
Q 8.59375 42.28125 12.203125 53.3125 
Q 15.828125 64.359375 23.1875 75.875 
z
" id="DejaVuSans-40"/>
     <path d="M 9.8125 72.90625 
L 19.671875 72.90625 
L 19.671875 43.015625 
L 55.515625 43.015625 
L 55.515625 72.90625 
L 65.375 72.90625 
L 65.375 0 
L 55.515625 0 
L 55.515625 34.71875 
L 19.671875 34.71875 
L 19.671875 0 
L 9.8125 0 
z
" id="DejaVuSans-72"/>
     <path d="M 47.015625 60.890625 
L 29.5 51.421875 
L 47.015625 41.890625 
L 44.1875 37.109375 
L 27.78125 47.015625 
L 27.78125 28.609375 
L 22.21875 28.609375 
L 22.21875 47.015625 
L 5.8125 37.109375 
L 2.984375 41.890625 
L 20.515625 51.421875 
L 2.984375 60.890625 
L 5.8125 65.71875 
L 22.21875 55.8125 
L 22.21875 74.21875 
L 27.78125 74.21875 
L 27.78125 55.8125 
L 44.1875 65.71875 
z
" id="DejaVuSans-42"/>
     <path d="M 8.015625 75.875 
L 15.828125 75.875 
Q 23.140625 64.359375 26.78125 53.3125 
Q 30.421875 42.28125 30.421875 31.390625 
Q 30.421875 20.453125 26.78125 9.375 
Q 23.140625 -1.703125 15.828125 -13.1875 
L 8.015625 -13.1875 
Q 14.5 -2 17.703125 9.0625 
Q 20.90625 20.125 20.90625 31.390625 
Q 20.90625 42.671875 17.703125 53.65625 
Q 14.5 64.65625 8.015625 75.875 
z
" id="DejaVuSans-41"/>
    </defs>
    <g style="fill:#262626;" transform="translate(812.12 55.307187)scale(0.14 -0.14)">
     <use xlink:href="#DejaVuSans-76"/>
     <use x="55.712891" xlink:href="#DejaVuSans-97"/>
     <use x="116.992188" xlink:href="#DejaVuSans-114"/>
     <use x="156.355469" xlink:href="#DejaVuSans-103"/>
     <use x="219.832031" xlink:href="#DejaVuSans-101"/>
     <use x="281.355469" xlink:href="#DejaVuSans-95"/>
     <use x="331.355469" xlink:href="#DejaVuSans-105"/>
     <use x="359.138672" xlink:href="#DejaVuSans-110"/>
     <use x="422.517578" xlink:href="#DejaVuSans-116"/>
     <use x="461.726562" xlink:href="#DejaVuSans-101"/>
     <use x="523.25" xlink:href="#DejaVuSans-115"/>
     <use x="575.349609" xlink:href="#DejaVuSans-116"/>
     <use x="614.558594" xlink:href="#DejaVuSans-105"/>
     <use x="642.341797" xlink:href="#DejaVuSans-110"/>
     <use x="705.720703" xlink:href="#DejaVuSans-101"/>
     <use x="767.244141" xlink:href="#DejaVuSans-32"/>
     <use x="799.03125" xlink:href="#DejaVuSans-40"/>
     <use x="838.044922" xlink:href="#DejaVuSans-72"/>
     <use x="913.240234" xlink:href="#DejaVuSans-42"/>
     <use x="963.240234" xlink:href="#DejaVuSans-41"/>
    </g>
   </g>
   <g id="patch_65">
    <path d="M 772.92 76.245937 
L 800.92 76.245937 
L 800.92 66.445937 
L 772.92 66.445937 
z
" style="fill:#8da0cb;stroke:#ffffff;stroke-linejoin:miter;"/>
   </g>
   <g id="text_4">
    <!-- Oral (H*) -->
    <defs>
     <path d="M 39.40625 66.21875 
Q 28.65625 66.21875 22.328125 58.203125 
Q 16.015625 50.203125 16.015625 36.375 
Q 16.015625 22.609375 22.328125 14.59375 
Q 28.65625 6.59375 39.40625 6.59375 
Q 50.140625 6.59375 56.421875 14.59375 
Q 62.703125 22.609375 62.703125 36.375 
Q 62.703125 50.203125 56.421875 58.203125 
Q 50.140625 66.21875 39.40625 66.21875 
z
M 39.40625 74.21875 
Q 54.734375 74.21875 63.90625 63.9375 
Q 73.09375 53.65625 73.09375 36.375 
Q 73.09375 19.140625 63.90625 8.859375 
Q 54.734375 -1.421875 39.40625 -1.421875 
Q 24.03125 -1.421875 14.8125 8.828125 
Q 5.609375 19.09375 5.609375 36.375 
Q 5.609375 53.65625 14.8125 63.9375 
Q 24.03125 74.21875 39.40625 74.21875 
z
" id="DejaVuSans-79"/>
     <path d="M 9.421875 75.984375 
L 18.40625 75.984375 
L 18.40625 0 
L 9.421875 0 
z
" id="DejaVuSans-108"/>
    </defs>
    <g style="fill:#262626;" transform="translate(812.12 76.245937)scale(0.14 -0.14)">
     <use xlink:href="#DejaVuSans-79"/>
     <use x="78.710938" xlink:href="#DejaVuSans-114"/>
     <use x="119.824219" xlink:href="#DejaVuSans-97"/>
     <use x="181.103516" xlink:href="#DejaVuSans-108"/>
     <use x="208.886719" xlink:href="#DejaVuSans-32"/>
     <use x="240.673828" xlink:href="#DejaVuSans-40"/>
     <use x="279.6875" xlink:href="#DejaVuSans-72"/>
     <use x="354.882812" xlink:href="#DejaVuSans-42"/>
     <use x="404.882812" xlink:href="#DejaVuSans-41"/>
    </g>
   </g>
   <g id="patch_66">
    <path d="M 772.92 96.795312 
L 800.92 96.795312 
L 800.92 86.995312 
L 772.92 86.995312 
z
" style="fill:#e78ac3;stroke:#ffffff;stroke-linejoin:miter;"/>
   </g>
   <g id="text_5">
    <!-- Large_intestine (M**) -->
    <defs>
     <path d="M 9.8125 72.90625 
L 24.515625 72.90625 
L 43.109375 23.296875 
L 61.8125 72.90625 
L 76.515625 72.90625 
L 76.515625 0 
L 66.890625 0 
L 66.890625 64.015625 
L 48.09375 14.015625 
L 38.1875 14.015625 
L 19.390625 64.015625 
L 19.390625 0 
L 9.8125 0 
z
" id="DejaVuSans-77"/>
    </defs>
    <g style="fill:#262626;" transform="translate(812.12 96.795312)scale(0.14 -0.14)">
     <use xlink:href="#DejaVuSans-76"/>
     <use x="55.712891" xlink:href="#DejaVuSans-97"/>
     <use x="116.992188" xlink:href="#DejaVuSans-114"/>
     <use x="156.355469" xlink:href="#DejaVuSans-103"/>
     <use x="219.832031" xlink:href="#DejaVuSans-101"/>
     <use x="281.355469" xlink:href="#DejaVuSans-95"/>
     <use x="331.355469" xlink:href="#DejaVuSans-105"/>
     <use x="359.138672" xlink:href="#DejaVuSans-110"/>
     <use x="422.517578" xlink:href="#DejaVuSans-116"/>
     <use x="461.726562" xlink:href="#DejaVuSans-101"/>
     <use x="523.25" xlink:href="#DejaVuSans-115"/>
     <use x="575.349609" xlink:href="#DejaVuSans-116"/>
     <use x="614.558594" xlink:href="#DejaVuSans-105"/>
     <use x="642.341797" xlink:href="#DejaVuSans-110"/>
     <use x="705.720703" xlink:href="#DejaVuSans-101"/>
     <use x="767.244141" xlink:href="#DejaVuSans-32"/>
     <use x="799.03125" xlink:href="#DejaVuSans-40"/>
     <use x="838.044922" xlink:href="#DejaVuSans-77"/>
     <use x="924.324219" xlink:href="#DejaVuSans-42"/>
     <use x="974.324219" xlink:href="#DejaVuSans-42"/>
     <use x="1024.324219" xlink:href="#DejaVuSans-41"/>
    </g>
   </g>
   <g id="patch_67">
    <path d="M 772.92 117.734062 
L 800.92 117.734062 
L 800.92 107.934062 
L 772.92 107.934062 
z
" style="fill:#a6d854;stroke:#ffffff;stroke-linejoin:miter;"/>
   </g>
   <g id="text_6">
    <!-- Forest_soil -->
    <defs>
     <path d="M 9.8125 72.90625 
L 51.703125 72.90625 
L 51.703125 64.59375 
L 19.671875 64.59375 
L 19.671875 43.109375 
L 48.578125 43.109375 
L 48.578125 34.8125 
L 19.671875 34.8125 
L 19.671875 0 
L 9.8125 0 
z
" id="DejaVuSans-70"/>
    </defs>
    <g style="fill:#262626;" transform="translate(812.12 117.734062)scale(0.14 -0.14)">
     <use xlink:href="#DejaVuSans-70"/>
     <use x="53.894531" xlink:href="#DejaVuSans-111"/>
     <use x="115.076172" xlink:href="#DejaVuSans-114"/>
     <use x="153.939453" xlink:href="#DejaVuSans-101"/>
     <use x="215.462891" xlink:href="#DejaVuSans-115"/>
     <use x="267.5625" xlink:href="#DejaVuSans-116"/>
     <use x="306.771484" xlink:href="#DejaVuSans-95"/>
     <use x="356.771484" xlink:href="#DejaVuSans-115"/>
     <use x="408.871094" xlink:href="#DejaVuSans-111"/>
     <use x="470.052734" xlink:href="#DejaVuSans-105"/>
     <use x="497.835938" xlink:href="#DejaVuSans-108"/>
    </g>
   </g>
   <g id="patch_68">
    <path d="M 772.92 138.672812 
L 800.92 138.672812 
L 800.92 128.872812 
L 772.92 128.872812 
z
" style="fill:#ffd92f;stroke:#ffffff;stroke-linejoin:miter;"/>
   </g>
   <g id="text_7">
    <!-- Others -->
    <defs>
     <path d="M 54.890625 33.015625 
L 54.890625 0 
L 45.90625 0 
L 45.90625 32.71875 
Q 45.90625 40.484375 42.875 44.328125 
Q 39.84375 48.1875 33.796875 48.1875 
Q 26.515625 48.1875 22.3125 43.546875 
Q 18.109375 38.921875 18.109375 30.90625 
L 18.109375 0 
L 9.078125 0 
L 9.078125 75.984375 
L 18.109375 75.984375 
L 18.109375 46.1875 
Q 21.34375 51.125 25.703125 53.5625 
Q 30.078125 56 35.796875 56 
Q 45.21875 56 50.046875 50.171875 
Q 54.890625 44.34375 54.890625 33.015625 
z
" id="DejaVuSans-104"/>
    </defs>
    <g style="fill:#262626;" transform="translate(812.12 138.672812)scale(0.14 -0.14)">
     <use xlink:href="#DejaVuSans-79"/>
     <use x="78.710938" xlink:href="#DejaVuSans-116"/>
     <use x="117.919922" xlink:href="#DejaVuSans-104"/>
     <use x="181.298828" xlink:href="#DejaVuSans-101"/>
     <use x="242.822266" xlink:href="#DejaVuSans-114"/>
     <use x="283.935547" xlink:href="#DejaVuSans-115"/>
    </g>
   </g>
  </g>
 </g>
</svg>
