<?xml version="1.0" encoding="utf-8" standalone="no"?>
<!DOCTYPE svg PUBLIC "-//W3C//DTD SVG 1.1//EN"
  "http://www.w3.org/Graphics/SVG/1.1/DTD/svg11.dtd">
<!-- Created with matplotlib (https://matplotlib.org/) -->
<svg height="144pt" version="1.1" viewBox="0 0 1584 144" width="1584pt" xmlns="http://www.w3.org/2000/svg" xmlns:xlink="http://www.w3.org/1999/xlink">
 <defs>
  <style type="text/css">
*{stroke-linecap:butt;stroke-linejoin:round;}
  </style>
 </defs>
 <g id="figure_1">
  <g id="patch_1">
   <path d="M 0 144 
L 1584 144 
L 1584 0 
L 0 0 
z
" style="fill:#ffffff;"/>
  </g>
  <g id="axes_1">
   <g id="matplotlib.axis_1"/>
   <g id="matplotlib.axis_2"/>
   <g id="patch_2">
    <path d="M 121.836755 76.107692 
C 121.836755 76.015873 121.836467 75.924054 121.835892 75.832237 
C 121.835316 75.74042 121.834453 75.648604 121.833302 75.556792 
L 77.890909 76.107692 
L 121.836755 76.107692 
z
" style="fill:#66c2a5;stroke:#ffffff;stroke-linejoin:miter;"/>
   </g>
   <g id="patch_3">
    <path d="M 121.833302 75.556792 
C 121.832957 75.529243 121.832585 75.501693 121.832188 75.474144 
C 121.831791 75.446595 121.831368 75.419047 121.830919 75.391499 
L 77.890909 76.107692 
L 121.833302 75.556792 
z
" style="fill:#fc8d62;stroke:#ffffff;stroke-linejoin:miter;"/>
   </g>
   <g id="patch_4">
    <path d="M 121.830919 75.391499 
C 121.737153 69.638732 120.514536 63.95998 118.232626 58.678313 
C 115.950716 53.396646 112.653621 48.614159 108.528917 44.602933 
C 104.404213 40.591706 99.53163 37.429278 94.188375 35.295562 
C 88.84512 33.161845 83.134478 32.098085 77.381334 32.164801 
C 71.62819 32.231516 65.943752 33.427416 60.651413 35.684467 
C 55.359075 37.941517 50.561138 41.216087 46.530561 45.321885 
C 42.499984 49.427682 39.31468 54.28534 37.155862 59.618504 
C 34.997045 64.951667 33.906445 70.657243 33.946107 76.410638 
C 33.98577 82.164032 35.154928 87.85403 37.387068 93.156923 
C 39.619208 98.459816 42.871182 103.273098 46.957982 107.322936 
C 51.044782 111.372774 55.887409 114.580884 61.210362 116.764755 
C 66.533315 118.948626 72.233701 120.066042 77.987218 120.053433 
C 83.740735 120.040824 89.436168 118.898433 94.749498 116.691253 
C 100.062828 114.484072 104.891348 111.254767 108.960357 107.187055 
C 113.029367 103.119343 116.260213 98.291854 118.469089 92.979229 
C 120.677964 87.666603 121.822172 81.971535 121.836617 76.218022 
L 77.890909 76.107692 
L 121.830919 75.391499 
z
" style="fill:#8da0cb;stroke:#ffffff;stroke-linejoin:miter;"/>
   </g>
   <g id="patch_5">
    <path d="M 121.836617 76.218022 
C 121.836628 76.213423 121.836639 76.208824 121.836649 76.204224 
C 121.836659 76.199625 121.836669 76.195026 121.836677 76.190427 
L 77.890909 76.107692 
L 121.836617 76.218022 
z
" style="fill:#e78ac3;stroke:#ffffff;stroke-linejoin:miter;"/>
   </g>
   <g id="patch_6">
    <path d="M 121.836677 76.190427 
C 121.836695 76.181237 121.836709 76.172047 121.836721 76.162857 
C 121.836732 76.153668 121.836741 76.144478 121.836747 76.135288 
L 77.890909 76.107692 
L 121.836677 76.190427 
z
" style="fill:#a6d854;stroke:#ffffff;stroke-linejoin:miter;"/>
   </g>
   <g id="patch_7">
    <path d="M 121.836747 76.135288 
C 121.836749 76.130689 121.836752 76.12609 121.836753 76.12149 
C 121.836755 76.116891 121.836755 76.112292 121.836755 76.107693 
L 77.890909 76.107692 
L 121.836747 76.135288 
z
" style="fill:#ffd92f;stroke:#ffffff;stroke-linejoin:miter;"/>
   </g>
   <g id="text_1">
    <!-- Forehead_1 -->
    <defs>
     <path d="M 9.8125 72.90625 
L 51.703125 72.90625 
L 51.703125 64.59375 
L 19.671875 64.59375 
L 19.671875 43.109375 
L 48.578125 43.109375 
L 48.578125 34.8125 
L 19.671875 34.8125 
L 19.671875 0 
L 9.8125 0 
z
" id="DejaVuSans-70"/>
     <path d="M 30.609375 48.390625 
Q 23.390625 48.390625 19.1875 42.75 
Q 14.984375 37.109375 14.984375 27.296875 
Q 14.984375 17.484375 19.15625 11.84375 
Q 23.34375 6.203125 30.609375 6.203125 
Q 37.796875 6.203125 41.984375 11.859375 
Q 46.1875 17.53125 46.1875 27.296875 
Q 46.1875 37.015625 41.984375 42.703125 
Q 37.796875 48.390625 30.609375 48.390625 
z
M 30.609375 56 
Q 42.328125 56 49.015625 48.375 
Q 55.71875 40.765625 55.71875 27.296875 
Q 55.71875 13.875 49.015625 6.21875 
Q 42.328125 -1.421875 30.609375 -1.421875 
Q 18.84375 -1.421875 12.171875 6.21875 
Q 5.515625 13.875 5.515625 27.296875 
Q 5.515625 40.765625 12.171875 48.375 
Q 18.84375 56 30.609375 56 
z
" id="DejaVuSans-111"/>
     <path d="M 41.109375 46.296875 
Q 39.59375 47.171875 37.8125 47.578125 
Q 36.03125 48 33.890625 48 
Q 26.265625 48 22.1875 43.046875 
Q 18.109375 38.09375 18.109375 28.8125 
L 18.109375 0 
L 9.078125 0 
L 9.078125 54.6875 
L 18.109375 54.6875 
L 18.109375 46.1875 
Q 20.953125 51.171875 25.484375 53.578125 
Q 30.03125 56 36.53125 56 
Q 37.453125 56 38.578125 55.875 
Q 39.703125 55.765625 41.0625 55.515625 
z
" id="DejaVuSans-114"/>
     <path d="M 56.203125 29.59375 
L 56.203125 25.203125 
L 14.890625 25.203125 
Q 15.484375 15.921875 20.484375 11.0625 
Q 25.484375 6.203125 34.421875 6.203125 
Q 39.59375 6.203125 44.453125 7.46875 
Q 49.3125 8.734375 54.109375 11.28125 
L 54.109375 2.78125 
Q 49.265625 0.734375 44.1875 -0.34375 
Q 39.109375 -1.421875 33.890625 -1.421875 
Q 20.796875 -1.421875 13.15625 6.1875 
Q 5.515625 13.8125 5.515625 26.8125 
Q 5.515625 40.234375 12.765625 48.109375 
Q 20.015625 56 32.328125 56 
Q 43.359375 56 49.78125 48.890625 
Q 56.203125 41.796875 56.203125 29.59375 
z
M 47.21875 32.234375 
Q 47.125 39.59375 43.09375 43.984375 
Q 39.0625 48.390625 32.421875 48.390625 
Q 24.90625 48.390625 20.390625 44.140625 
Q 15.875 39.890625 15.1875 32.171875 
z
" id="DejaVuSans-101"/>
     <path d="M 54.890625 33.015625 
L 54.890625 0 
L 45.90625 0 
L 45.90625 32.71875 
Q 45.90625 40.484375 42.875 44.328125 
Q 39.84375 48.1875 33.796875 48.1875 
Q 26.515625 48.1875 22.3125 43.546875 
Q 18.109375 38.921875 18.109375 30.90625 
L 18.109375 0 
L 9.078125 0 
L 9.078125 75.984375 
L 18.109375 75.984375 
L 18.109375 46.1875 
Q 21.34375 51.125 25.703125 53.5625 
Q 30.078125 56 35.796875 56 
Q 45.21875 56 50.046875 50.171875 
Q 54.890625 44.34375 54.890625 33.015625 
z
" id="DejaVuSans-104"/>
     <path d="M 34.28125 27.484375 
Q 23.390625 27.484375 19.1875 25 
Q 14.984375 22.515625 14.984375 16.5 
Q 14.984375 11.71875 18.140625 8.90625 
Q 21.296875 6.109375 26.703125 6.109375 
Q 34.1875 6.109375 38.703125 11.40625 
Q 43.21875 16.703125 43.21875 25.484375 
L 43.21875 27.484375 
z
M 52.203125 31.203125 
L 52.203125 0 
L 43.21875 0 
L 43.21875 8.296875 
Q 40.140625 3.328125 35.546875 0.953125 
Q 30.953125 -1.421875 24.3125 -1.421875 
Q 15.921875 -1.421875 10.953125 3.296875 
Q 6 8.015625 6 15.921875 
Q 6 25.140625 12.171875 29.828125 
Q 18.359375 34.515625 30.609375 34.515625 
L 43.21875 34.515625 
L 43.21875 35.40625 
Q 43.21875 41.609375 39.140625 45 
Q 35.0625 48.390625 27.6875 48.390625 
Q 23 48.390625 18.546875 47.265625 
Q 14.109375 46.140625 10.015625 43.890625 
L 10.015625 52.203125 
Q 14.9375 54.109375 19.578125 55.046875 
Q 24.21875 56 28.609375 56 
Q 40.484375 56 46.34375 49.84375 
Q 52.203125 43.703125 52.203125 31.203125 
z
" id="DejaVuSans-97"/>
     <path d="M 45.40625 46.390625 
L 45.40625 75.984375 
L 54.390625 75.984375 
L 54.390625 0 
L 45.40625 0 
L 45.40625 8.203125 
Q 42.578125 3.328125 38.25 0.953125 
Q 33.9375 -1.421875 27.875 -1.421875 
Q 17.96875 -1.421875 11.734375 6.484375 
Q 5.515625 14.40625 5.515625 27.296875 
Q 5.515625 40.1875 11.734375 48.09375 
Q 17.96875 56 27.875 56 
Q 33.9375 56 38.25 53.625 
Q 42.578125 51.265625 45.40625 46.390625 
z
M 14.796875 27.296875 
Q 14.796875 17.390625 18.875 11.75 
Q 22.953125 6.109375 30.078125 6.109375 
Q 37.203125 6.109375 41.296875 11.75 
Q 45.40625 17.390625 45.40625 27.296875 
Q 45.40625 37.203125 41.296875 42.84375 
Q 37.203125 48.484375 30.078125 48.484375 
Q 22.953125 48.484375 18.875 42.84375 
Q 14.796875 37.203125 14.796875 27.296875 
z
" id="DejaVuSans-100"/>
     <path d="M 50.984375 -16.609375 
L 50.984375 -23.578125 
L -0.984375 -23.578125 
L -0.984375 -16.609375 
z
" id="DejaVuSans-95"/>
     <path d="M 12.40625 8.296875 
L 28.515625 8.296875 
L 28.515625 63.921875 
L 10.984375 60.40625 
L 10.984375 69.390625 
L 28.421875 72.90625 
L 38.28125 72.90625 
L 38.28125 8.296875 
L 54.390625 8.296875 
L 54.390625 0 
L 12.40625 0 
z
" id="DejaVuSans-49"/>
    </defs>
    <g style="fill:#262626;" transform="translate(43.164972 15.175385)scale(0.12 -0.12)">
     <use xlink:href="#DejaVuSans-70"/>
     <use x="53.894531" xlink:href="#DejaVuSans-111"/>
     <use x="115.076172" xlink:href="#DejaVuSans-114"/>
     <use x="153.939453" xlink:href="#DejaVuSans-101"/>
     <use x="215.462891" xlink:href="#DejaVuSans-104"/>
     <use x="278.841797" xlink:href="#DejaVuSans-101"/>
     <use x="340.365234" xlink:href="#DejaVuSans-97"/>
     <use x="401.644531" xlink:href="#DejaVuSans-100"/>
     <use x="465.121094" xlink:href="#DejaVuSans-95"/>
     <use x="515.121094" xlink:href="#DejaVuSans-49"/>
    </g>
   </g>
  </g>
  <g id="axes_2">
   <g id="matplotlib.axis_3"/>
   <g id="matplotlib.axis_4"/>
   <g id="patch_8">
    <path d="M 264.658573 76.107692 
C 264.658573 75.697325 264.652825 75.286978 264.641331 74.876771 
C 264.629837 74.466565 264.612597 74.056539 264.589617 73.646816 
L 220.712727 76.107692 
L 264.658573 76.107692 
z
" style="fill:#66c2a5;stroke:#ffffff;stroke-linejoin:miter;"/>
   </g>
   <g id="patch_9">
    <path d="M 264.589617 73.646816 
C 264.588849 73.63312 264.588075 73.619424 264.587294 73.605729 
C 264.586513 73.592034 264.585725 73.578339 264.584931 73.564644 
L 220.712727 76.107692 
L 264.589617 73.646816 
z
" style="fill:#fc8d62;stroke:#ffffff;stroke-linejoin:miter;"/>
   </g>
   <g id="patch_10">
    <path d="M 264.584931 73.564644 
C 264.254246 67.85971 262.813948 62.273668 260.34489 57.120088 
C 257.875831 51.966509 254.425092 47.343661 250.186378 43.511047 
C 245.947664 39.678432 241.001799 36.709132 235.626418 34.769826 
C 230.251037 32.83052 224.548638 31.958187 218.839322 32.201796 
C 213.130006 32.445405 207.52264 33.80031 202.331991 36.190454 
C 197.141341 38.580598 192.466385 41.960406 188.569547 46.140154 
C 184.67271 50.319901 181.628297 55.219888 179.607206 60.565057 
C 177.586115 65.910225 176.626884 71.598651 176.783359 77.311019 
C 176.939834 83.023387 178.209031 88.650772 180.519705 93.877283 
C 182.830379 99.103794 186.138469 103.829771 190.258277 107.789925 
C 194.378085 111.750078 199.231054 114.868894 204.544765 116.971299 
C 209.858476 119.073705 215.531605 120.119611 221.245696 120.050306 
C 226.959786 119.981002 232.60588 118.797808 237.867036 116.567142 
C 243.128192 114.336477 247.90409 111.100875 251.926637 107.041965 
C 255.949184 102.983056 259.141677 98.178235 261.324908 92.897218 
C 263.508139 87.616201 264.640477 81.959689 264.658358 76.245207 
L 220.712727 76.107692 
L 264.584931 73.564644 
z
" style="fill:#8da0cb;stroke:#ffffff;stroke-linejoin:miter;"/>
   </g>
   <g id="patch_11">
    <path d="M 264.658358 76.245207 
C 264.658373 76.240607 264.658386 76.236008 264.658399 76.231409 
C 264.658412 76.22681 264.658424 76.22221 264.658436 76.217611 
L 220.712727 76.107692 
L 264.658358 76.245207 
z
" style="fill:#e78ac3;stroke:#ffffff;stroke-linejoin:miter;"/>
   </g>
   <g id="patch_12">
    <path d="M 264.658436 76.217611 
C 264.65847 76.203894 264.658498 76.190176 264.65852 76.176459 
C 264.658541 76.162741 264.658556 76.149024 264.658565 76.135307 
L 220.712727 76.107692 
L 264.658436 76.217611 
z
" style="fill:#a6d854;stroke:#ffffff;stroke-linejoin:miter;"/>
   </g>
   <g id="patch_13">
    <path d="M 264.658565 76.135307 
C 264.658568 76.130707 264.65857 76.126108 264.658571 76.121509 
C 264.658573 76.11691 264.658573 76.11231 264.658573 76.107711 
L 220.712727 76.107692 
L 264.658565 76.135307 
z
" style="fill:#ffd92f;stroke:#ffffff;stroke-linejoin:miter;"/>
   </g>
   <g id="text_2">
    <!-- Forehead_2 -->
    <defs>
     <path d="M 19.1875 8.296875 
L 53.609375 8.296875 
L 53.609375 0 
L 7.328125 0 
L 7.328125 8.296875 
Q 12.9375 14.109375 22.625 23.890625 
Q 32.328125 33.6875 34.8125 36.53125 
Q 39.546875 41.84375 41.421875 45.53125 
Q 43.3125 49.21875 43.3125 52.78125 
Q 43.3125 58.59375 39.234375 62.25 
Q 35.15625 65.921875 28.609375 65.921875 
Q 23.96875 65.921875 18.8125 64.3125 
Q 13.671875 62.703125 7.8125 59.421875 
L 7.8125 69.390625 
Q 13.765625 71.78125 18.9375 73 
Q 24.125 74.21875 28.421875 74.21875 
Q 39.75 74.21875 46.484375 68.546875 
Q 53.21875 62.890625 53.21875 53.421875 
Q 53.21875 48.921875 51.53125 44.890625 
Q 49.859375 40.875 45.40625 35.40625 
Q 44.1875 33.984375 37.640625 27.21875 
Q 31.109375 20.453125 19.1875 8.296875 
z
" id="DejaVuSans-50"/>
    </defs>
    <g style="fill:#262626;" transform="translate(185.98679 15.175385)scale(0.12 -0.12)">
     <use xlink:href="#DejaVuSans-70"/>
     <use x="53.894531" xlink:href="#DejaVuSans-111"/>
     <use x="115.076172" xlink:href="#DejaVuSans-114"/>
     <use x="153.939453" xlink:href="#DejaVuSans-101"/>
     <use x="215.462891" xlink:href="#DejaVuSans-104"/>
     <use x="278.841797" xlink:href="#DejaVuSans-101"/>
     <use x="340.365234" xlink:href="#DejaVuSans-97"/>
     <use x="401.644531" xlink:href="#DejaVuSans-100"/>
     <use x="465.121094" xlink:href="#DejaVuSans-95"/>
     <use x="515.121094" xlink:href="#DejaVuSans-50"/>
    </g>
   </g>
  </g>
  <g id="axes_3">
   <g id="matplotlib.axis_5"/>
   <g id="matplotlib.axis_6"/>
   <g id="patch_14">
    <path d="M 407.480392 76.107692 
C 407.480392 76.103093 407.480391 76.098494 407.480389 76.093895 
C 407.480388 76.089295 407.480386 76.084696 407.480383 76.080097 
L 363.534545 76.107692 
L 407.480392 76.107692 
z
" style="fill:#66c2a5;stroke:#ffffff;stroke-linejoin:miter;"/>
   </g>
   <g id="patch_15">
    <path d="M 407.480383 76.080097 
C 407.48038 76.075498 407.480376 76.070898 407.480372 76.066299 
C 407.480368 76.0617 407.480363 76.057101 407.480357 76.052501 
L 363.534545 76.107692 
L 407.480383 76.080097 
z
" style="fill:#fc8d62;stroke:#ffffff;stroke-linejoin:miter;"/>
   </g>
   <g id="patch_16">
    <path d="M 407.480357 76.052501 
C 407.473113 70.284493 406.330339 64.573941 404.11737 59.247333 
C 401.904402 53.920726 398.664232 49.081548 394.582112 45.00647 
C 390.499991 40.931392 385.655225 37.699583 380.324805 35.495815 
C 374.994384 33.292047 369.281867 32.159135 363.513855 32.161851 
C 357.745842 32.164567 352.034395 33.302857 346.706052 35.511643 
C 341.377709 37.720429 336.535989 40.956799 332.457707 45.035719 
C 328.379425 49.11464 325.143814 53.956867 322.935862 59.285555 
C 320.72791 64.614244 319.590514 70.32587 319.588701 76.093883 
C 319.586889 81.861896 320.720695 87.574235 322.925298 92.904311 
C 325.1299 98.234386 328.362467 103.078645 332.438185 107.160128 
C 336.513903 111.241611 341.353588 114.481023 346.680541 116.693157 
C 352.007495 118.905291 357.718226 120.047171 363.486236 120.053512 
C 369.254246 120.059853 374.967473 118.930531 380.299278 116.730114 
C 385.631082 114.529697 390.477878 111.300933 394.562559 107.228421 
C 398.64724 103.155909 401.890451 98.318769 404.106766 92.993553 
C 406.323082 87.668338 407.469445 81.958505 407.480314 76.190502 
L 363.534545 76.107692 
L 407.480357 76.052501 
z
" style="fill:#8da0cb;stroke:#ffffff;stroke-linejoin:miter;"/>
   </g>
   <g id="patch_17">
    <path d="M 407.480314 76.190502 
C 407.480322 76.185903 407.48033 76.181304 407.480337 76.176704 
C 407.480345 76.172105 407.480351 76.167506 407.480357 76.162907 
L 363.534545 76.107692 
L 407.480314 76.190502 
z
" style="fill:#e78ac3;stroke:#ffffff;stroke-linejoin:miter;"/>
   </g>
   <g id="patch_18">
    <path d="M 407.480357 76.162907 
C 407.480363 76.158307 407.480368 76.153708 407.480372 76.149109 
C 407.480376 76.14451 407.48038 76.13991 407.480383 76.135311 
L 363.534545 76.107692 
L 407.480357 76.162907 
z
" style="fill:#a6d854;stroke:#ffffff;stroke-linejoin:miter;"/>
   </g>
   <g id="patch_19">
    <path d="M 407.480383 76.135311 
C 407.480386 76.130712 407.480388 76.126113 407.480389 76.121513 
C 407.480391 76.116914 407.480392 76.112315 407.480392 76.107716 
L 363.534545 76.107692 
L 407.480383 76.135311 
z
" style="fill:#ffd92f;stroke:#ffffff;stroke-linejoin:miter;"/>
   </g>
   <g id="text_3">
    <!-- Mouth_1 -->
    <defs>
     <path d="M 9.8125 72.90625 
L 24.515625 72.90625 
L 43.109375 23.296875 
L 61.8125 72.90625 
L 76.515625 72.90625 
L 76.515625 0 
L 66.890625 0 
L 66.890625 64.015625 
L 48.09375 14.015625 
L 38.1875 14.015625 
L 19.390625 64.015625 
L 19.390625 0 
L 9.8125 0 
z
" id="DejaVuSans-77"/>
     <path d="M 8.5 21.578125 
L 8.5 54.6875 
L 17.484375 54.6875 
L 17.484375 21.921875 
Q 17.484375 14.15625 20.5 10.265625 
Q 23.53125 6.390625 29.59375 6.390625 
Q 36.859375 6.390625 41.078125 11.03125 
Q 45.3125 15.671875 45.3125 23.6875 
L 45.3125 54.6875 
L 54.296875 54.6875 
L 54.296875 0 
L 45.3125 0 
L 45.3125 8.40625 
Q 42.046875 3.421875 37.71875 1 
Q 33.40625 -1.421875 27.6875 -1.421875 
Q 18.265625 -1.421875 13.375 4.4375 
Q 8.5 10.296875 8.5 21.578125 
z
M 31.109375 56 
z
" id="DejaVuSans-117"/>
     <path d="M 18.3125 70.21875 
L 18.3125 54.6875 
L 36.8125 54.6875 
L 36.8125 47.703125 
L 18.3125 47.703125 
L 18.3125 18.015625 
Q 18.3125 11.328125 20.140625 9.421875 
Q 21.96875 7.515625 27.59375 7.515625 
L 36.8125 7.515625 
L 36.8125 0 
L 27.59375 0 
Q 17.1875 0 13.234375 3.875 
Q 9.28125 7.765625 9.28125 18.015625 
L 9.28125 47.703125 
L 2.6875 47.703125 
L 2.6875 54.6875 
L 9.28125 54.6875 
L 9.28125 70.21875 
z
" id="DejaVuSans-116"/>
    </defs>
    <g style="fill:#262626;" transform="translate(337.911733 15.175385)scale(0.12 -0.12)">
     <use xlink:href="#DejaVuSans-77"/>
     <use x="86.279297" xlink:href="#DejaVuSans-111"/>
     <use x="147.460938" xlink:href="#DejaVuSans-117"/>
     <use x="210.839844" xlink:href="#DejaVuSans-116"/>
     <use x="250.048828" xlink:href="#DejaVuSans-104"/>
     <use x="313.427734" xlink:href="#DejaVuSans-95"/>
     <use x="363.427734" xlink:href="#DejaVuSans-49"/>
    </g>
   </g>
  </g>
  <g id="axes_4">
   <g id="matplotlib.axis_7"/>
   <g id="matplotlib.axis_8"/>
   <g id="patch_20">
    <path d="M 550.30221 76.107692 
C 550.30221 76.103093 550.302209 76.098494 550.302208 76.093895 
C 550.302206 76.089295 550.302204 76.084696 550.302201 76.080097 
L 506.356364 76.107692 
L 550.30221 76.107692 
z
" style="fill:#66c2a5;stroke:#ffffff;stroke-linejoin:miter;"/>
   </g>
   <g id="patch_21">
    <path d="M 550.302201 76.080097 
C 550.302198 76.075498 550.302195 76.070898 550.30219 76.066299 
C 550.302186 76.0617 550.302181 76.057101 550.302175 76.052501 
L 506.356364 76.107692 
L 550.302201 76.080097 
z
" style="fill:#fc8d62;stroke:#ffffff;stroke-linejoin:miter;"/>
   </g>
   <g id="patch_22">
    <path d="M 550.302175 76.052501 
C 550.294932 70.285073 549.152387 64.575084 546.93985 59.248926 
C 544.727314 53.922768 541.487761 49.083896 537.406371 45.008907 
C 533.324981 40.933919 528.48103 37.701966 523.151405 35.497792 
C 517.821781 33.293619 512.110005 32.160038 506.342573 32.161848 
C 500.575141 32.163658 494.864078 33.300823 489.535838 35.508341 
C 484.207598 37.715859 479.365676 40.950852 475.286844 45.028401 
C 471.208012 49.105951 467.971497 53.946855 465.762304 59.274401 
C 463.55311 64.601946 462.41415 70.312651 462.410526 76.080083 
C 462.406903 81.847514 463.538687 87.559646 465.741185 92.889963 
C 467.943682 98.220281 471.174111 103.065248 475.247817 107.147919 
C 479.321522 111.230591 484.159375 114.471665 489.484837 116.685876 
C 494.810299 118.900087 500.519929 120.044427 506.287354 120.053484 
C 512.054779 120.062541 517.767975 118.936139 523.100365 116.738664 
C 528.432755 114.541189 533.280763 111.315325 537.36727 107.245468 
C 541.453778 103.175611 544.699408 98.340813 546.918635 93.017439 
C 549.137862 87.694065 550.287581 81.985516 550.302071 76.218102 
L 506.356364 76.107692 
L 550.302175 76.052501 
z
" style="fill:#8da0cb;stroke:#ffffff;stroke-linejoin:miter;"/>
   </g>
   <g id="patch_23">
    <path d="M 550.302071 76.218102 
C 550.302094 76.208904 550.302114 76.199705 550.302132 76.190507 
C 550.302149 76.181308 550.302164 76.17211 550.302175 76.162911 
L 506.356364 76.107692 
L 550.302071 76.218102 
z
" style="fill:#e78ac3;stroke:#ffffff;stroke-linejoin:miter;"/>
   </g>
   <g id="patch_24">
    <path d="M 550.302175 76.162911 
C 550.302181 76.158312 550.302186 76.153713 550.30219 76.149114 
C 550.302195 76.144514 550.302198 76.139915 550.302201 76.135316 
L 506.356364 76.107692 
L 550.302175 76.162911 
z
" style="fill:#a6d854;stroke:#ffffff;stroke-linejoin:miter;"/>
   </g>
   <g id="patch_25">
    <path d="M 550.302201 76.135316 
C 550.302204 76.130717 550.302206 76.126117 550.302208 76.121518 
C 550.302209 76.116919 550.30221 76.11232 550.30221 76.10772 
L 506.356364 76.107692 
L 550.302201 76.135316 
z
" style="fill:#ffd92f;stroke:#ffffff;stroke-linejoin:miter;"/>
   </g>
   <g id="text_4">
    <!-- Mouth_2 -->
    <g style="fill:#262626;" transform="translate(480.733551 15.175385)scale(0.12 -0.12)">
     <use xlink:href="#DejaVuSans-77"/>
     <use x="86.279297" xlink:href="#DejaVuSans-111"/>
     <use x="147.460938" xlink:href="#DejaVuSans-117"/>
     <use x="210.839844" xlink:href="#DejaVuSans-116"/>
     <use x="250.048828" xlink:href="#DejaVuSans-104"/>
     <use x="313.427734" xlink:href="#DejaVuSans-95"/>
     <use x="363.427734" xlink:href="#DejaVuSans-50"/>
    </g>
   </g>
  </g>
  <g id="axes_5">
   <g id="matplotlib.axis_9"/>
   <g id="matplotlib.axis_10"/>
   <g id="patch_26">
    <path d="M 693.124028 76.107692 
C 693.124028 76.098488 693.124025 76.089284 693.124019 76.08008 
C 693.124014 76.070876 693.124005 76.061672 693.123993 76.052468 
L 649.178182 76.107692 
L 693.124028 76.107692 
z
" style="fill:#66c2a5;stroke:#ffffff;stroke-linejoin:miter;"/>
   </g>
   <g id="patch_27">
    <path d="M 693.123993 76.052468 
C 693.123987 76.047866 693.123981 76.043264 693.123974 76.038662 
C 693.123967 76.03406 693.123959 76.029458 693.12395 76.024856 
L 649.178182 76.107692 
L 693.123993 76.052468 
z
" style="fill:#fc8d62;stroke:#ffffff;stroke-linejoin:miter;"/>
   </g>
   <g id="patch_28">
    <path d="M 693.12395 76.024856 
C 693.113096 70.266728 691.970633 64.566474 689.761658 59.2489 
C 687.552683 53.931326 684.319965 49.099386 680.247706 45.028406 
C 676.175448 40.957426 671.342492 37.726227 666.024224 35.518922 
C 660.705956 33.311618 655.005344 32.170945 649.247212 32.1619 
C 643.48908 32.152855 637.784913 33.275613 632.459737 35.466199 
C 627.134561 37.656784 622.291478 40.872785 618.20645 44.930951 
C 614.121422 48.989117 610.87354 53.810877 608.64787 59.121486 
C 606.4222 64.432094 605.261834 70.12873 605.232891 75.886796 
C 605.203947 81.644863 606.306986 87.352876 608.479156 92.68559 
C 610.651326 98.018305 613.850571 102.872473 617.894596 106.9715 
C 621.938621 111.070528 626.749129 114.335053 632.052014 116.579062 
C 637.354899 118.823071 643.047491 120.003116 648.805423 120.051958 
C 654.563355 120.100799 660.275146 119.017492 665.615335 116.863764 
C 670.955524 114.710036 675.820719 111.527585 679.933697 107.497749 
C 684.046675 103.467914 687.327805 98.668716 689.590126 93.373617 
C 691.852447 88.078519 693.052157 82.390038 693.120896 76.63231 
L 649.178182 76.107692 
L 693.12395 76.024856 
z
" style="fill:#8da0cb;stroke:#ffffff;stroke-linejoin:miter;"/>
   </g>
   <g id="patch_29">
    <path d="M 693.120896 76.63231 
C 693.121501 76.581691 693.122018 76.531072 693.122447 76.480452 
C 693.122876 76.429832 693.123218 76.379211 693.123473 76.328589 
L 649.178182 76.107692 
L 693.120896 76.63231 
z
" style="fill:#e78ac3;stroke:#ffffff;stroke-linejoin:miter;"/>
   </g>
   <g id="patch_30">
    <path d="M 693.123473 76.328589 
C 693.123496 76.323987 693.123518 76.319385 693.12354 76.314784 
C 693.123562 76.310182 693.123583 76.30558 693.123603 76.300978 
L 649.178182 76.107692 
L 693.123473 76.328589 
z
" style="fill:#a6d854;stroke:#ffffff;stroke-linejoin:miter;"/>
   </g>
   <g id="patch_31">
    <path d="M 693.123603 76.300978 
C 693.123623 76.296376 693.123643 76.291774 693.123661 76.287172 
C 693.12368 76.28257 693.123698 76.277968 693.123716 76.273366 
L 649.178182 76.107692 
L 693.123603 76.300978 
z
" style="fill:#ffd92f;stroke:#ffffff;stroke-linejoin:miter;"/>
   </g>
   <g id="text_5">
    <!-- Stool_1 -->
    <defs>
     <path d="M 53.515625 70.515625 
L 53.515625 60.890625 
Q 47.90625 63.578125 42.921875 64.890625 
Q 37.9375 66.21875 33.296875 66.21875 
Q 25.25 66.21875 20.875 63.09375 
Q 16.5 59.96875 16.5 54.203125 
Q 16.5 49.359375 19.40625 46.890625 
Q 22.3125 44.4375 30.421875 42.921875 
L 36.375 41.703125 
Q 47.40625 39.59375 52.65625 34.296875 
Q 57.90625 29 57.90625 20.125 
Q 57.90625 9.515625 50.796875 4.046875 
Q 43.703125 -1.421875 29.984375 -1.421875 
Q 24.8125 -1.421875 18.96875 -0.25 
Q 13.140625 0.921875 6.890625 3.21875 
L 6.890625 13.375 
Q 12.890625 10.015625 18.65625 8.296875 
Q 24.421875 6.59375 29.984375 6.59375 
Q 38.421875 6.59375 43.015625 9.90625 
Q 47.609375 13.234375 47.609375 19.390625 
Q 47.609375 24.75 44.3125 27.78125 
Q 41.015625 30.8125 33.5 32.328125 
L 27.484375 33.5 
Q 16.453125 35.6875 11.515625 40.375 
Q 6.59375 45.0625 6.59375 53.421875 
Q 6.59375 63.09375 13.40625 68.65625 
Q 20.21875 74.21875 32.171875 74.21875 
Q 37.3125 74.21875 42.625 73.28125 
Q 47.953125 72.359375 53.515625 70.515625 
z
" id="DejaVuSans-83"/>
     <path d="M 9.421875 75.984375 
L 18.40625 75.984375 
L 18.40625 0 
L 9.421875 0 
z
" id="DejaVuSans-108"/>
    </defs>
    <g style="fill:#262626;" transform="translate(627.190057 15.175385)scale(0.12 -0.12)">
     <use xlink:href="#DejaVuSans-83"/>
     <use x="63.476562" xlink:href="#DejaVuSans-116"/>
     <use x="102.685547" xlink:href="#DejaVuSans-111"/>
     <use x="163.867188" xlink:href="#DejaVuSans-111"/>
     <use x="225.048828" xlink:href="#DejaVuSans-108"/>
     <use x="252.832031" xlink:href="#DejaVuSans-95"/>
     <use x="302.832031" xlink:href="#DejaVuSans-49"/>
    </g>
   </g>
  </g>
  <g id="axes_6">
   <g id="patch_32">
    <path d="M 727.069091 131.04 
L 856.930909 131.04 
L 856.930909 21.175385 
L 727.069091 21.175385 
z
" style="fill:#ffffff;"/>
   </g>
   <g id="matplotlib.axis_11"/>
   <g id="matplotlib.axis_12"/>
   <g id="patch_33">
    <path d="M 727.069091 131.04 
L 727.069091 21.175385 
" style="fill:none;stroke:#ffffff;stroke-linecap:square;stroke-linejoin:miter;stroke-width:1.25;"/>
   </g>
   <g id="patch_34">
    <path d="M 856.930909 131.04 
L 856.930909 21.175385 
" style="fill:none;stroke:#ffffff;stroke-linecap:square;stroke-linejoin:miter;stroke-width:1.25;"/>
   </g>
   <g id="patch_35">
    <path d="M 727.069091 131.04 
L 856.930909 131.04 
" style="fill:none;stroke:#ffffff;stroke-linecap:square;stroke-linejoin:miter;stroke-width:1.25;"/>
   </g>
   <g id="patch_36">
    <path d="M 727.069091 21.175385 
L 856.930909 21.175385 
" style="fill:none;stroke:#ffffff;stroke-linecap:square;stroke-linejoin:miter;stroke-width:1.25;"/>
   </g>
  </g>
  <g id="axes_7">
   <g id="matplotlib.axis_13"/>
   <g id="matplotlib.axis_14"/>
   <g id="patch_37">
    <path d="M 978.767664 76.107692 
C 978.767664 76.043541 978.767524 75.97939 978.767243 75.91524 
C 978.766962 75.851089 978.766541 75.786939 978.765979 75.72279 
L 934.821818 76.107692 
L 978.767664 76.107692 
z
" style="fill:#66c2a5;stroke:#ffffff;stroke-linejoin:miter;"/>
   </g>
   <g id="patch_38">
    <path d="M 978.765979 75.72279 
C 978.677179 65.584577 975.082628 55.782932 968.595922 47.991019 
C 962.109216 40.199106 953.121724 34.887041 943.167632 32.961606 
C 933.21354 31.03617 922.893415 32.613533 913.968928 37.424436 
C 905.04444 42.235338 898.054038 49.989519 894.190999 59.363322 
L 934.821818 76.107692 
L 978.765979 75.72279 
z
" style="fill:#fc8d62;stroke:#ffffff;stroke-linejoin:miter;"/>
   </g>
   <g id="patch_39">
    <path d="M 894.190999 59.363322 
C 891.918118 64.878551 890.79181 70.799251 890.88087 76.763797 
C 890.96993 82.728343 892.272505 88.612776 894.709038 94.057686 
C 897.145571 99.502596 900.665424 104.394825 905.05361 108.435562 
C 909.441796 112.4763 914.607118 115.58157 920.234088 117.561709 
C 925.861058 119.541848 931.832733 120.355704 937.784373 119.953566 
C 943.736014 119.551429 949.54393 117.941656 954.853385 115.222571 
C 960.16284 112.503485 964.86349 108.731596 968.668228 104.137283 
C 972.472965 99.54297 975.302719 94.221715 976.984652 88.498531 
L 934.821818 76.107692 
L 894.190999 59.363322 
z
" style="fill:#8da0cb;stroke:#ffffff;stroke-linejoin:miter;"/>
   </g>
   <g id="patch_40">
    <path d="M 976.984652 88.498531 
C 977.422619 87.008241 977.781264 85.495778 978.059078 83.967512 
C 978.336891 82.439246 978.533482 80.897324 978.648023 79.348241 
L 934.821818 76.107692 
L 976.984652 88.498531 
z
" style="fill:#e78ac3;stroke:#ffffff;stroke-linejoin:miter;"/>
   </g>
   <g id="patch_41">
    <path d="M 978.648023 79.348241 
C 978.687548 78.8137 978.717289 78.278481 978.737233 77.742851 
C 978.757177 77.207222 978.767319 76.671273 978.767656 76.135273 
L 934.821818 76.107692 
L 978.648023 79.348241 
z
" style="fill:#a6d854;stroke:#ffffff;stroke-linejoin:miter;"/>
   </g>
   <g id="patch_42">
    <path d="M 978.767656 76.135273 
C 978.767659 76.130674 978.767661 76.126074 978.767662 76.121475 
C 978.767664 76.116876 978.767664 76.112277 978.767664 76.107677 
L 934.821818 76.107692 
L 978.767656 76.135273 
z
" style="fill:#ffd92f;stroke:#ffffff;stroke-linejoin:miter;"/>
   </g>
   <g id="text_6">
    <!-- Stool_2 -->
    <g style="fill:#262626;" transform="translate(912.833693 20.668615)scale(0.12 -0.12)">
     <use xlink:href="#DejaVuSans-83"/>
     <use x="63.476562" xlink:href="#DejaVuSans-116"/>
     <use x="102.685547" xlink:href="#DejaVuSans-111"/>
     <use x="163.867188" xlink:href="#DejaVuSans-111"/>
     <use x="225.048828" xlink:href="#DejaVuSans-108"/>
     <use x="252.832031" xlink:href="#DejaVuSans-95"/>
     <use x="302.832031" xlink:href="#DejaVuSans-50"/>
    </g>
   </g>
  </g>
  <g id="axes_8">
   <g id="matplotlib.axis_15"/>
   <g id="matplotlib.axis_16"/>
   <g id="patch_43">
    <path d="M 1121.589483 76.107692 
C 1121.589483 72.917607 1121.242124 69.736985 1120.553553 66.6221 
C 1119.864982 63.507214 1118.839283 60.476545 1117.494603 57.583712 
L 1077.643636 76.107692 
L 1121.589483 76.107692 
z
" style="fill:#66c2a5;stroke:#ffffff;stroke-linejoin:miter;"/>
   </g>
   <g id="patch_44">
    <path d="M 1117.494603 57.583712 
C 1117.424243 57.432345 1117.353021 57.28138 1117.280941 57.130825 
C 1117.20886 56.980269 1117.135923 56.830126 1117.062132 56.680401 
L 1077.643636 76.107692 
L 1117.494603 57.583712 
z
" style="fill:#fc8d62;stroke:#ffffff;stroke-linejoin:miter;"/>
   </g>
   <g id="patch_45">
    <path d="M 1117.062132 56.680401 
C 1114.698714 51.884964 1111.479933 47.560812 1107.564257 43.920834 
C 1103.648581 40.280856 1099.101341 37.385783 1094.146409 35.378147 
C 1089.191476 33.37051 1083.911522 32.283807 1078.566491 32.171537 
C 1073.22146 32.059268 1067.900532 32.923305 1062.865668 34.721112 
C 1057.830805 36.518918 1053.16601 39.220497 1049.100943 42.692844 
C 1045.035877 46.165191 1041.638362 50.350371 1039.075667 55.042338 
C 1036.512972 59.734305 1034.827854 64.854776 1034.103275 70.151656 
C 1033.378697 75.448537 1033.626747 80.833452 1034.835214 86.041289 
C 1036.043681 91.249127 1038.192401 96.192995 1041.175589 100.629497 
C 1044.158777 105.065999 1047.926659 108.921113 1052.293733 112.005043 
C 1056.660807 115.088973 1061.554211 117.350264 1066.733031 118.677589 
C 1071.91185 120.004913 1077.289679 120.376124 1082.601753 119.772947 
C 1087.913828 119.16977 1093.071519 117.602268 1097.820901 115.147613 
C 1102.570283 112.692958 1106.832114 109.392105 1110.396575 105.407562 
C 1113.961036 101.42302 1116.768655 96.821269 1118.681207 91.828864 
C 1120.593758 86.836459 1121.579331 81.536696 1121.589405 76.190495 
L 1077.643636 76.107692 
L 1117.062132 56.680401 
z
" style="fill:#8da0cb;stroke:#ffffff;stroke-linejoin:miter;"/>
   </g>
   <g id="patch_46">
    <path d="M 1121.589405 76.190495 
C 1121.589413 76.185896 1121.589421 76.181297 1121.589428 76.176698 
C 1121.589436 76.172099 1121.589442 76.167499 1121.589448 76.1629 
L 1077.643636 76.107692 
L 1121.589405 76.190495 
z
" style="fill:#e78ac3;stroke:#ffffff;stroke-linejoin:miter;"/>
   </g>
   <g id="patch_47">
    <path d="M 1121.589448 76.1629 
C 1121.589454 76.158301 1121.589459 76.153702 1121.589463 76.149102 
C 1121.589467 76.144503 1121.589471 76.139904 1121.589474 76.135305 
L 1077.643636 76.107692 
L 1121.589448 76.1629 
z
" style="fill:#a6d854;stroke:#ffffff;stroke-linejoin:miter;"/>
   </g>
   <g id="patch_48">
    <path d="M 1121.589474 76.135305 
C 1121.589477 76.130705 1121.589479 76.126106 1121.58948 76.121507 
C 1121.589482 76.116908 1121.589483 76.112308 1121.589483 76.107709 
L 1077.643636 76.107692 
L 1121.589474 76.135305 
z
" style="fill:#ffd92f;stroke:#ffffff;stroke-linejoin:miter;"/>
   </g>
   <g id="text_7">
    <!-- Left Hand_1 -->
    <defs>
     <path d="M 9.8125 72.90625 
L 19.671875 72.90625 
L 19.671875 8.296875 
L 55.171875 8.296875 
L 55.171875 0 
L 9.8125 0 
z
" id="DejaVuSans-76"/>
     <path d="M 37.109375 75.984375 
L 37.109375 68.5 
L 28.515625 68.5 
Q 23.6875 68.5 21.796875 66.546875 
Q 19.921875 64.59375 19.921875 59.515625 
L 19.921875 54.6875 
L 34.71875 54.6875 
L 34.71875 47.703125 
L 19.921875 47.703125 
L 19.921875 0 
L 10.890625 0 
L 10.890625 47.703125 
L 2.296875 47.703125 
L 2.296875 54.6875 
L 10.890625 54.6875 
L 10.890625 58.5 
Q 10.890625 67.625 15.140625 71.796875 
Q 19.390625 75.984375 28.609375 75.984375 
z
" id="DejaVuSans-102"/>
     <path id="DejaVuSans-32"/>
     <path d="M 9.8125 72.90625 
L 19.671875 72.90625 
L 19.671875 43.015625 
L 55.515625 43.015625 
L 55.515625 72.90625 
L 65.375 72.90625 
L 65.375 0 
L 55.515625 0 
L 55.515625 34.71875 
L 19.671875 34.71875 
L 19.671875 0 
L 9.8125 0 
z
" id="DejaVuSans-72"/>
     <path d="M 54.890625 33.015625 
L 54.890625 0 
L 45.90625 0 
L 45.90625 32.71875 
Q 45.90625 40.484375 42.875 44.328125 
Q 39.84375 48.1875 33.796875 48.1875 
Q 26.515625 48.1875 22.3125 43.546875 
Q 18.109375 38.921875 18.109375 30.90625 
L 18.109375 0 
L 9.078125 0 
L 9.078125 54.6875 
L 18.109375 54.6875 
L 18.109375 46.1875 
Q 21.34375 51.125 25.703125 53.5625 
Q 30.078125 56 35.796875 56 
Q 45.21875 56 50.046875 50.171875 
Q 54.890625 44.34375 54.890625 33.015625 
z
" id="DejaVuSans-110"/>
    </defs>
    <g style="fill:#262626;" transform="translate(1041.829261 20.668615)scale(0.12 -0.12)">
     <use xlink:href="#DejaVuSans-76"/>
     <use x="53.962891" xlink:href="#DejaVuSans-101"/>
     <use x="115.486328" xlink:href="#DejaVuSans-102"/>
     <use x="148.941406" xlink:href="#DejaVuSans-116"/>
     <use x="188.150391" xlink:href="#DejaVuSans-32"/>
     <use x="219.9375" xlink:href="#DejaVuSans-72"/>
     <use x="295.132812" xlink:href="#DejaVuSans-97"/>
     <use x="356.412109" xlink:href="#DejaVuSans-110"/>
     <use x="419.791016" xlink:href="#DejaVuSans-100"/>
     <use x="483.267578" xlink:href="#DejaVuSans-95"/>
     <use x="533.267578" xlink:href="#DejaVuSans-49"/>
    </g>
   </g>
  </g>
  <g id="axes_9">
   <g id="matplotlib.axis_17"/>
   <g id="matplotlib.axis_18"/>
   <g id="patch_49">
    <path d="M 1264.411301 76.107692 
C 1264.411301 76.103092 1264.4113 76.098491 1264.411299 76.09389 
C 1264.411297 76.08929 1264.411295 76.084689 1264.411292 76.080089 
L 1220.465455 76.107692 
L 1264.411301 76.107692 
z
" style="fill:#66c2a5;stroke:#ffffff;stroke-linejoin:miter;"/>
   </g>
   <g id="patch_50">
    <path d="M 1264.411292 76.080089 
C 1264.411289 76.075488 1264.411286 76.070887 1264.411281 76.066287 
C 1264.411277 76.061686 1264.411272 76.057086 1264.411266 76.052485 
L 1220.465455 76.107692 
L 1264.411292 76.080089 
z
" style="fill:#fc8d62;stroke:#ffffff;stroke-linejoin:miter;"/>
   </g>
   <g id="patch_51">
    <path d="M 1264.411266 76.052485 
C 1264.404023 70.286799 1263.262164 64.578501 1261.050921 59.253692 
C 1258.839678 53.928883 1255.601976 49.09093 1251.522777 45.016212 
C 1247.443578 40.941495 1242.602068 37.709113 1237.274832 35.503724 
C 1231.947596 33.298336 1226.238046 32.162752 1220.472356 32.161847 
C 1214.706665 32.160941 1208.996759 33.294732 1203.66883 35.498447 
C 1198.340902 37.702162 1193.498377 40.933024 1189.417899 45.00646 
C 1185.33742 49.079896 1182.098199 53.916832 1179.885284 59.240946 
C 1177.672368 64.56506 1176.528717 70.273 1176.519663 76.038683 
C 1176.510609 81.804366 1177.636328 87.515869 1179.832511 92.846907 
C 1182.028694 98.177945 1185.252708 103.025031 1189.320374 107.111262 
C 1193.388039 111.197493 1198.220392 114.443547 1203.541374 116.663985 
C 1208.862355 118.884423 1214.568672 120.03614 1220.334337 120.053343 
C 1226.100001 120.070546 1231.81309 118.952899 1237.147226 116.764253 
C 1242.481362 114.575606 1247.333 111.358445 1251.424976 107.296559 
C 1255.516952 103.234673 1258.769832 98.406912 1260.997788 93.089074 
C 1263.225744 87.771237 1264.385525 82.066553 1264.410876 76.300918 
L 1220.465455 76.107692 
L 1264.411266 76.052485 
z
" style="fill:#8da0cb;stroke:#ffffff;stroke-linejoin:miter;"/>
   </g>
   <g id="patch_52">
    <path d="M 1264.410876 76.300918 
C 1264.410977 76.277915 1264.41106 76.254912 1264.411125 76.231909 
C 1264.41119 76.208906 1264.411237 76.185903 1264.411266 76.1629 
L 1220.465455 76.107692 
L 1264.410876 76.300918 
z
" style="fill:#e78ac3;stroke:#ffffff;stroke-linejoin:miter;"/>
   </g>
   <g id="patch_53">
    <path d="M 1264.411266 76.1629 
C 1264.411272 76.1583 1264.411277 76.153699 1264.411281 76.149098 
C 1264.411286 76.144498 1264.411289 76.139897 1264.411292 76.135297 
L 1220.465455 76.107692 
L 1264.411266 76.1629 
z
" style="fill:#a6d854;stroke:#ffffff;stroke-linejoin:miter;"/>
   </g>
   <g id="patch_54">
    <path d="M 1264.411292 76.135297 
C 1264.411295 76.130696 1264.411297 76.126095 1264.411299 76.121495 
C 1264.4113 76.116894 1264.411301 76.112294 1264.411301 76.107693 
L 1220.465455 76.107692 
L 1264.411292 76.135297 
z
" style="fill:#ffd92f;stroke:#ffffff;stroke-linejoin:miter;"/>
   </g>
   <g id="text_8">
    <!-- Left Hand_2 -->
    <g style="fill:#262626;" transform="translate(1184.65108 20.668615)scale(0.12 -0.12)">
     <use xlink:href="#DejaVuSans-76"/>
     <use x="53.962891" xlink:href="#DejaVuSans-101"/>
     <use x="115.486328" xlink:href="#DejaVuSans-102"/>
     <use x="148.941406" xlink:href="#DejaVuSans-116"/>
     <use x="188.150391" xlink:href="#DejaVuSans-32"/>
     <use x="219.9375" xlink:href="#DejaVuSans-72"/>
     <use x="295.132812" xlink:href="#DejaVuSans-97"/>
     <use x="356.412109" xlink:href="#DejaVuSans-110"/>
     <use x="419.791016" xlink:href="#DejaVuSans-100"/>
     <use x="483.267578" xlink:href="#DejaVuSans-95"/>
     <use x="533.267578" xlink:href="#DejaVuSans-50"/>
    </g>
   </g>
  </g>
  <g id="axes_10">
   <g id="matplotlib.axis_19"/>
   <g id="matplotlib.axis_20"/>
   <g id="patch_55">
    <path d="M 1407.233119 76.107692 
C 1407.233119 76.089298 1407.233107 76.070904 1407.233084 76.05251 
C 1407.233061 76.034116 1407.233026 76.015721 1407.23298 75.997327 
L 1363.287273 76.107692 
L 1407.233119 76.107692 
z
" style="fill:#66c2a5;stroke:#ffffff;stroke-linejoin:miter;"/>
   </g>
   <g id="patch_56">
    <path d="M 1407.23298 75.997327 
C 1407.232969 75.992728 1407.232956 75.988129 1407.232943 75.98353 
C 1407.23293 75.97893 1407.232917 75.974331 1407.232902 75.969732 
L 1363.287273 76.107692 
L 1407.23298 75.997327 
z
" style="fill:#fc8d62;stroke:#ffffff;stroke-linejoin:miter;"/>
   </g>
   <g id="patch_57">
    <path d="M 1407.232902 75.969732 
C 1407.2148 70.203488 1406.061963 64.496786 1403.840264 59.175701 
C 1401.618564 53.854616 1398.371138 49.022463 1394.283541 44.955345 
C 1390.195944 40.888227 1385.347541 37.665113 1380.015364 35.470168 
C 1374.683187 33.275223 1368.970766 32.151064 1363.204504 32.161924 
C 1357.438242 32.172784 1351.730097 33.318453 1346.406226 35.533468 
C 1341.082355 37.748484 1336.246126 40.989838 1332.173878 45.072324 
C 1328.10163 49.15481 1324.87243 53.999162 1322.67079 59.328578 
C 1320.469149 64.657994 1319.337817 70.368998 1319.341435 76.135269 
C 1319.345054 81.90154 1320.483553 87.61112 1322.69188 92.937768 
C 1324.900207 98.264417 1328.135485 103.104712 1332.212853 107.182084 
C 1336.290222 111.259456 1341.130514 114.494739 1346.457161 116.70307 
C 1351.783808 118.911402 1357.493386 120.049906 1363.259657 120.05353 
C 1369.025928 120.057153 1374.736933 118.925826 1380.066352 116.72419 
C 1385.39577 114.522555 1390.240124 111.293358 1394.322614 107.221114 
C 1398.405103 103.14887 1401.646462 98.312644 1403.861482 92.988775 
C 1406.076502 87.664906 1407.222175 81.956762 1407.233041 76.1905 
L 1363.287273 76.107692 
L 1407.232902 75.969732 
z
" style="fill:#8da0cb;stroke:#ffffff;stroke-linejoin:miter;"/>
   </g>
   <g id="patch_58">
    <path d="M 1407.233041 76.1905 
C 1407.23305 76.1859 1407.233057 76.181301 1407.233065 76.176702 
C 1407.233072 76.172103 1407.233078 76.167504 1407.233084 76.162904 
L 1363.287273 76.107692 
L 1407.233041 76.1905 
z
" style="fill:#e78ac3;stroke:#ffffff;stroke-linejoin:miter;"/>
   </g>
   <g id="patch_59">
    <path d="M 1407.233084 76.162904 
C 1407.23309 76.158305 1407.233095 76.153706 1407.233099 76.149107 
C 1407.233104 76.144507 1407.233107 76.139908 1407.23311 76.135309 
L 1363.287273 76.107692 
L 1407.233084 76.162904 
z
" style="fill:#a6d854;stroke:#ffffff;stroke-linejoin:miter;"/>
   </g>
   <g id="patch_60">
    <path d="M 1407.23311 76.135309 
C 1407.233113 76.13071 1407.233115 76.12611 1407.233117 76.121511 
C 1407.233118 76.116912 1407.233119 76.112313 1407.233119 76.107713 
L 1363.287273 76.107692 
L 1407.23311 76.135309 
z
" style="fill:#ffd92f;stroke:#ffffff;stroke-linejoin:miter;"/>
   </g>
   <g id="text_9">
    <!-- Right Hand_1 -->
    <defs>
     <path d="M 44.390625 34.1875 
Q 47.5625 33.109375 50.5625 29.59375 
Q 53.5625 26.078125 56.59375 19.921875 
L 66.609375 0 
L 56 0 
L 46.6875 18.703125 
Q 43.0625 26.03125 39.671875 28.421875 
Q 36.28125 30.8125 30.421875 30.8125 
L 19.671875 30.8125 
L 19.671875 0 
L 9.8125 0 
L 9.8125 72.90625 
L 32.078125 72.90625 
Q 44.578125 72.90625 50.734375 67.671875 
Q 56.890625 62.453125 56.890625 51.90625 
Q 56.890625 45.015625 53.6875 40.46875 
Q 50.484375 35.9375 44.390625 34.1875 
z
M 19.671875 64.796875 
L 19.671875 38.921875 
L 32.078125 38.921875 
Q 39.203125 38.921875 42.84375 42.21875 
Q 46.484375 45.515625 46.484375 51.90625 
Q 46.484375 58.296875 42.84375 61.546875 
Q 39.203125 64.796875 32.078125 64.796875 
z
" id="DejaVuSans-82"/>
     <path d="M 9.421875 54.6875 
L 18.40625 54.6875 
L 18.40625 0 
L 9.421875 0 
z
M 9.421875 75.984375 
L 18.40625 75.984375 
L 18.40625 64.59375 
L 9.421875 64.59375 
z
" id="DejaVuSans-105"/>
     <path d="M 45.40625 27.984375 
Q 45.40625 37.75 41.375 43.109375 
Q 37.359375 48.484375 30.078125 48.484375 
Q 22.859375 48.484375 18.828125 43.109375 
Q 14.796875 37.75 14.796875 27.984375 
Q 14.796875 18.265625 18.828125 12.890625 
Q 22.859375 7.515625 30.078125 7.515625 
Q 37.359375 7.515625 41.375 12.890625 
Q 45.40625 18.265625 45.40625 27.984375 
z
M 54.390625 6.78125 
Q 54.390625 -7.171875 48.1875 -13.984375 
Q 42 -20.796875 29.203125 -20.796875 
Q 24.46875 -20.796875 20.265625 -20.09375 
Q 16.0625 -19.390625 12.109375 -17.921875 
L 12.109375 -9.1875 
Q 16.0625 -11.328125 19.921875 -12.34375 
Q 23.78125 -13.375 27.78125 -13.375 
Q 36.625 -13.375 41.015625 -8.765625 
Q 45.40625 -4.15625 45.40625 5.171875 
L 45.40625 9.625 
Q 42.625 4.78125 38.28125 2.390625 
Q 33.9375 0 27.875 0 
Q 17.828125 0 11.671875 7.65625 
Q 5.515625 15.328125 5.515625 27.984375 
Q 5.515625 40.671875 11.671875 48.328125 
Q 17.828125 56 27.875 56 
Q 33.9375 56 38.28125 53.609375 
Q 42.625 51.21875 45.40625 46.390625 
L 45.40625 54.6875 
L 54.390625 54.6875 
z
" id="DejaVuSans-103"/>
    </defs>
    <g style="fill:#262626;" transform="translate(1322.962585 20.668615)scale(0.12 -0.12)">
     <use xlink:href="#DejaVuSans-82"/>
     <use x="69.482422" xlink:href="#DejaVuSans-105"/>
     <use x="97.265625" xlink:href="#DejaVuSans-103"/>
     <use x="160.742188" xlink:href="#DejaVuSans-104"/>
     <use x="224.121094" xlink:href="#DejaVuSans-116"/>
     <use x="263.330078" xlink:href="#DejaVuSans-32"/>
     <use x="295.117188" xlink:href="#DejaVuSans-72"/>
     <use x="370.3125" xlink:href="#DejaVuSans-97"/>
     <use x="431.591797" xlink:href="#DejaVuSans-110"/>
     <use x="494.970703" xlink:href="#DejaVuSans-100"/>
     <use x="558.447266" xlink:href="#DejaVuSans-95"/>
     <use x="608.447266" xlink:href="#DejaVuSans-49"/>
    </g>
   </g>
  </g>
  <g id="axes_11">
   <g id="matplotlib.axis_21"/>
   <g id="matplotlib.axis_22"/>
   <g id="patch_61">
    <path d="M 1550.054937 76.107692 
C 1550.054937 76.084729 1550.054919 76.061766 1550.054883 76.038803 
C 1550.054847 76.01584 1550.054793 75.992877 1550.054721 75.969914 
L 1506.109091 76.107692 
L 1550.054937 76.107692 
z
" style="fill:#66c2a5;stroke:#ffffff;stroke-linejoin:miter;"/>
   </g>
   <g id="patch_62">
    <path d="M 1550.054721 75.969914 
C 1550.054707 75.965315 1550.054692 75.960715 1550.054676 75.956116 
C 1550.05466 75.951517 1550.054643 75.946918 1550.054626 75.942318 
L 1506.109091 76.107692 
L 1550.054721 75.969914 
z
" style="fill:#fc8d62;stroke:#ffffff;stroke-linejoin:miter;"/>
   </g>
   <g id="patch_63">
    <path d="M 1550.054626 75.942318 
C 1550.032964 70.185933 1548.880476 64.489496 1546.662793 59.177404 
C 1544.44511 53.865312 1541.205144 49.040352 1537.127401 44.977292 
C 1533.049659 40.914232 1528.213043 37.691691 1522.892986 35.493184 
C 1517.572929 33.294677 1511.872372 32.162745 1506.115946 32.161847 
C 1500.35952 32.160949 1494.65861 33.291103 1489.337867 35.48795 
C 1484.017125 37.684797 1479.179504 40.905829 1475.100494 44.967617 
C 1471.021484 49.029404 1467.780013 53.853353 1465.560673 59.164753 
C 1463.341333 64.476154 1462.187068 70.172231 1462.16361 75.928609 
C 1462.140152 81.684987 1463.247955 87.390282 1465.423932 92.719594 
C 1467.59991 98.048905 1470.801958 102.899113 1474.847728 106.99401 
C 1478.893499 111.088907 1483.704707 114.349259 1489.007368 116.589398 
C 1494.31003 118.829537 1500.001539 120.006117 1505.757781 120.052134 
C 1511.514024 120.098152 1517.223617 119.012717 1522.561415 116.857642 
C 1527.899214 114.702567 1532.761933 111.519553 1536.872654 107.489862 
C 1540.983376 103.460171 1544.262559 98.661777 1546.523462 93.367936 
C 1548.784365 88.074095 1549.983242 82.38724 1550.051819 76.631222 
L 1506.109091 76.107692 
L 1550.054626 75.942318 
z
" style="fill:#8da0cb;stroke:#ffffff;stroke-linejoin:miter;"/>
   </g>
   <g id="patch_64">
    <path d="M 1550.051819 76.631222 
C 1550.051873 76.626623 1550.051927 76.622024 1550.051981 76.617426 
C 1550.052034 76.612827 1550.052087 76.608228 1550.052139 76.603629 
L 1506.109091 76.107692 
L 1550.051819 76.631222 
z
" style="fill:#e78ac3;stroke:#ffffff;stroke-linejoin:miter;"/>
   </g>
   <g id="patch_65">
    <path d="M 1550.052139 76.603629 
C 1550.053019 76.525579 1550.053692 76.447527 1550.054157 76.369473 
C 1550.054622 76.29142 1550.054879 76.213365 1550.054928 76.13531 
L 1506.109091 76.107692 
L 1550.052139 76.603629 
z
" style="fill:#a6d854;stroke:#ffffff;stroke-linejoin:miter;"/>
   </g>
   <g id="patch_66">
    <path d="M 1550.054928 76.13531 
C 1550.054931 76.130711 1550.054933 76.126112 1550.054935 76.121513 
C 1550.054936 76.116913 1550.054937 76.112314 1550.054937 76.107715 
L 1506.109091 76.107692 
L 1550.054928 76.13531 
z
" style="fill:#ffd92f;stroke:#ffffff;stroke-linejoin:miter;"/>
   </g>
   <g id="text_10">
    <!-- Right Hand_2 -->
    <g style="fill:#262626;" transform="translate(1465.784403 20.668615)scale(0.12 -0.12)">
     <use xlink:href="#DejaVuSans-82"/>
     <use x="69.482422" xlink:href="#DejaVuSans-105"/>
     <use x="97.265625" xlink:href="#DejaVuSans-103"/>
     <use x="160.742188" xlink:href="#DejaVuSans-104"/>
     <use x="224.121094" xlink:href="#DejaVuSans-116"/>
     <use x="263.330078" xlink:href="#DejaVuSans-32"/>
     <use x="295.117188" xlink:href="#DejaVuSans-72"/>
     <use x="370.3125" xlink:href="#DejaVuSans-97"/>
     <use x="431.591797" xlink:href="#DejaVuSans-110"/>
     <use x="494.970703" xlink:href="#DejaVuSans-100"/>
     <use x="558.447266" xlink:href="#DejaVuSans-95"/>
     <use x="608.447266" xlink:href="#DejaVuSans-50"/>
    </g>
   </g>
  </g>
  <g id="text_11">
   <!-- ONN4MST Layer-3 -->
   <defs>
    <path d="M 39.40625 66.21875 
Q 28.65625 66.21875 22.328125 58.203125 
Q 16.015625 50.203125 16.015625 36.375 
Q 16.015625 22.609375 22.328125 14.59375 
Q 28.65625 6.59375 39.40625 6.59375 
Q 50.140625 6.59375 56.421875 14.59375 
Q 62.703125 22.609375 62.703125 36.375 
Q 62.703125 50.203125 56.421875 58.203125 
Q 50.140625 66.21875 39.40625 66.21875 
z
M 39.40625 74.21875 
Q 54.734375 74.21875 63.90625 63.9375 
Q 73.09375 53.65625 73.09375 36.375 
Q 73.09375 19.140625 63.90625 8.859375 
Q 54.734375 -1.421875 39.40625 -1.421875 
Q 24.03125 -1.421875 14.8125 8.828125 
Q 5.609375 19.09375 5.609375 36.375 
Q 5.609375 53.65625 14.8125 63.9375 
Q 24.03125 74.21875 39.40625 74.21875 
z
" id="DejaVuSans-79"/>
    <path d="M 9.8125 72.90625 
L 23.09375 72.90625 
L 55.421875 11.921875 
L 55.421875 72.90625 
L 64.984375 72.90625 
L 64.984375 0 
L 51.703125 0 
L 19.390625 60.984375 
L 19.390625 0 
L 9.8125 0 
z
" id="DejaVuSans-78"/>
    <path d="M 37.796875 64.3125 
L 12.890625 25.390625 
L 37.796875 25.390625 
z
M 35.203125 72.90625 
L 47.609375 72.90625 
L 47.609375 25.390625 
L 58.015625 25.390625 
L 58.015625 17.1875 
L 47.609375 17.1875 
L 47.609375 0 
L 37.796875 0 
L 37.796875 17.1875 
L 4.890625 17.1875 
L 4.890625 26.703125 
z
" id="DejaVuSans-52"/>
    <path d="M -0.296875 72.90625 
L 61.375 72.90625 
L 61.375 64.59375 
L 35.5 64.59375 
L 35.5 0 
L 25.59375 0 
L 25.59375 64.59375 
L -0.296875 64.59375 
z
" id="DejaVuSans-84"/>
    <path d="M 32.171875 -5.078125 
Q 28.375 -14.84375 24.75 -17.8125 
Q 21.140625 -20.796875 15.09375 -20.796875 
L 7.90625 -20.796875 
L 7.90625 -13.28125 
L 13.1875 -13.28125 
Q 16.890625 -13.28125 18.9375 -11.515625 
Q 21 -9.765625 23.484375 -3.21875 
L 25.09375 0.875 
L 2.984375 54.6875 
L 12.5 54.6875 
L 29.59375 11.921875 
L 46.6875 54.6875 
L 56.203125 54.6875 
z
" id="DejaVuSans-121"/>
    <path d="M 4.890625 31.390625 
L 31.203125 31.390625 
L 31.203125 23.390625 
L 4.890625 23.390625 
z
" id="DejaVuSans-45"/>
    <path d="M 40.578125 39.3125 
Q 47.65625 37.796875 51.625 33 
Q 55.609375 28.21875 55.609375 21.1875 
Q 55.609375 10.40625 48.1875 4.484375 
Q 40.765625 -1.421875 27.09375 -1.421875 
Q 22.515625 -1.421875 17.65625 -0.515625 
Q 12.796875 0.390625 7.625 2.203125 
L 7.625 11.71875 
Q 11.71875 9.328125 16.59375 8.109375 
Q 21.484375 6.890625 26.8125 6.890625 
Q 36.078125 6.890625 40.9375 10.546875 
Q 45.796875 14.203125 45.796875 21.1875 
Q 45.796875 27.640625 41.28125 31.265625 
Q 36.765625 34.90625 28.71875 34.90625 
L 20.21875 34.90625 
L 20.21875 43.015625 
L 29.109375 43.015625 
Q 36.375 43.015625 40.234375 45.921875 
Q 44.09375 48.828125 44.09375 54.296875 
Q 44.09375 59.90625 40.109375 62.90625 
Q 36.140625 65.921875 28.71875 65.921875 
Q 24.65625 65.921875 20.015625 65.03125 
Q 15.375 64.15625 9.8125 62.3125 
L 9.8125 71.09375 
Q 15.4375 72.65625 20.34375 73.4375 
Q 25.25 74.21875 29.59375 74.21875 
Q 40.828125 74.21875 47.359375 69.109375 
Q 53.90625 64.015625 53.90625 55.328125 
Q 53.90625 49.265625 50.4375 45.09375 
Q 46.96875 40.921875 40.578125 39.3125 
z
" id="DejaVuSans-51"/>
   </defs>
   <g style="fill:#262626;" transform="translate(726.714 13.82175)scale(0.144 -0.144)">
    <use xlink:href="#DejaVuSans-79"/>
    <use x="78.710938" xlink:href="#DejaVuSans-78"/>
    <use x="153.515625" xlink:href="#DejaVuSans-78"/>
    <use x="228.320312" xlink:href="#DejaVuSans-52"/>
    <use x="291.943359" xlink:href="#DejaVuSans-77"/>
    <use x="378.222656" xlink:href="#DejaVuSans-83"/>
    <use x="441.699219" xlink:href="#DejaVuSans-84"/>
    <use x="502.783203" xlink:href="#DejaVuSans-32"/>
    <use x="534.570312" xlink:href="#DejaVuSans-76"/>
    <use x="590.283203" xlink:href="#DejaVuSans-97"/>
    <use x="651.5625" xlink:href="#DejaVuSans-121"/>
    <use x="710.742188" xlink:href="#DejaVuSans-101"/>
    <use x="772.265625" xlink:href="#DejaVuSans-114"/>
    <use x="807.003906" xlink:href="#DejaVuSans-45"/>
    <use x="843.087891" xlink:href="#DejaVuSans-51"/>
   </g>
  </g>
  <g id="legend_1">
   <g id="patch_67">
    <path d="M 703.61 127.265313 
L 780.997891 127.265313 
Q 782.897891 127.265313 782.897891 125.365313 
L 782.897891 42.65 
Q 782.897891 40.75 780.997891 40.75 
L 703.61 40.75 
Q 701.71 40.75 701.71 42.65 
L 701.71 125.365313 
Q 701.71 127.265313 703.61 127.265313 
z
" style="fill:#ffffff;opacity:0.8;stroke:#ffffff;stroke-linejoin:miter;"/>
   </g>
   <g id="patch_68">
    <path d="M 705.51 51.768516 
L 724.51 51.768516 
L 724.51 45.118516 
L 705.51 45.118516 
z
" style="fill:#66c2a5;stroke:#ffffff;stroke-linejoin:miter;"/>
   </g>
   <g id="text_12">
    <!-- Aquatic -->
    <defs>
     <path d="M 34.1875 63.1875 
L 20.796875 26.90625 
L 47.609375 26.90625 
z
M 28.609375 72.90625 
L 39.796875 72.90625 
L 67.578125 0 
L 57.328125 0 
L 50.6875 18.703125 
L 17.828125 18.703125 
L 11.1875 0 
L 0.78125 0 
z
" id="DejaVuSans-65"/>
     <path d="M 14.796875 27.296875 
Q 14.796875 17.390625 18.875 11.75 
Q 22.953125 6.109375 30.078125 6.109375 
Q 37.203125 6.109375 41.296875 11.75 
Q 45.40625 17.390625 45.40625 27.296875 
Q 45.40625 37.203125 41.296875 42.84375 
Q 37.203125 48.484375 30.078125 48.484375 
Q 22.953125 48.484375 18.875 42.84375 
Q 14.796875 37.203125 14.796875 27.296875 
z
M 45.40625 8.203125 
Q 42.578125 3.328125 38.25 0.953125 
Q 33.9375 -1.421875 27.875 -1.421875 
Q 17.96875 -1.421875 11.734375 6.484375 
Q 5.515625 14.40625 5.515625 27.296875 
Q 5.515625 40.1875 11.734375 48.09375 
Q 17.96875 56 27.875 56 
Q 33.9375 56 38.25 53.625 
Q 42.578125 51.265625 45.40625 46.390625 
L 45.40625 54.6875 
L 54.390625 54.6875 
L 54.390625 -20.796875 
L 45.40625 -20.796875 
z
" id="DejaVuSans-113"/>
     <path d="M 48.78125 52.59375 
L 48.78125 44.1875 
Q 44.96875 46.296875 41.140625 47.34375 
Q 37.3125 48.390625 33.40625 48.390625 
Q 24.65625 48.390625 19.8125 42.84375 
Q 14.984375 37.3125 14.984375 27.296875 
Q 14.984375 17.28125 19.8125 11.734375 
Q 24.65625 6.203125 33.40625 6.203125 
Q 37.3125 6.203125 41.140625 7.25 
Q 44.96875 8.296875 48.78125 10.40625 
L 48.78125 2.09375 
Q 45.015625 0.34375 40.984375 -0.53125 
Q 36.96875 -1.421875 32.421875 -1.421875 
Q 20.0625 -1.421875 12.78125 6.34375 
Q 5.515625 14.109375 5.515625 27.296875 
Q 5.515625 40.671875 12.859375 48.328125 
Q 20.21875 56 33.015625 56 
Q 37.15625 56 41.109375 55.140625 
Q 45.0625 54.296875 48.78125 52.59375 
z
" id="DejaVuSans-99"/>
    </defs>
    <g style="fill:#262626;" transform="translate(732.11 51.768516)scale(0.095 -0.095)">
     <use xlink:href="#DejaVuSans-65"/>
     <use x="66.658203" xlink:href="#DejaVuSans-113"/>
     <use x="130.134766" xlink:href="#DejaVuSans-117"/>
     <use x="193.513672" xlink:href="#DejaVuSans-97"/>
     <use x="254.792969" xlink:href="#DejaVuSans-116"/>
     <use x="294.001953" xlink:href="#DejaVuSans-105"/>
     <use x="321.785156" xlink:href="#DejaVuSans-99"/>
    </g>
   </g>
   <g id="patch_69">
    <path d="M 705.51 65.712734 
L 724.51 65.712734 
L 724.51 59.062734 
L 705.51 59.062734 
z
" style="fill:#fc8d62;stroke:#ffffff;stroke-linejoin:miter;"/>
   </g>
   <g id="text_13">
    <!-- Terrestrial -->
    <defs>
     <path d="M 44.28125 53.078125 
L 44.28125 44.578125 
Q 40.484375 46.53125 36.375 47.5 
Q 32.28125 48.484375 27.875 48.484375 
Q 21.1875 48.484375 17.84375 46.4375 
Q 14.5 44.390625 14.5 40.28125 
Q 14.5 37.15625 16.890625 35.375 
Q 19.28125 33.59375 26.515625 31.984375 
L 29.59375 31.296875 
Q 39.15625 29.25 43.1875 25.515625 
Q 47.21875 21.78125 47.21875 15.09375 
Q 47.21875 7.46875 41.1875 3.015625 
Q 35.15625 -1.421875 24.609375 -1.421875 
Q 20.21875 -1.421875 15.453125 -0.5625 
Q 10.6875 0.296875 5.421875 2 
L 5.421875 11.28125 
Q 10.40625 8.6875 15.234375 7.390625 
Q 20.0625 6.109375 24.8125 6.109375 
Q 31.15625 6.109375 34.5625 8.28125 
Q 37.984375 10.453125 37.984375 14.40625 
Q 37.984375 18.0625 35.515625 20.015625 
Q 33.0625 21.96875 24.703125 23.78125 
L 21.578125 24.515625 
Q 13.234375 26.265625 9.515625 29.90625 
Q 5.8125 33.546875 5.8125 39.890625 
Q 5.8125 47.609375 11.28125 51.796875 
Q 16.75 56 26.8125 56 
Q 31.78125 56 36.171875 55.265625 
Q 40.578125 54.546875 44.28125 53.078125 
z
" id="DejaVuSans-115"/>
    </defs>
    <g style="fill:#262626;" transform="translate(732.11 65.712734)scale(0.095 -0.095)">
     <use xlink:href="#DejaVuSans-84"/>
     <use x="44.083984" xlink:href="#DejaVuSans-101"/>
     <use x="105.607422" xlink:href="#DejaVuSans-114"/>
     <use x="144.970703" xlink:href="#DejaVuSans-114"/>
     <use x="183.833984" xlink:href="#DejaVuSans-101"/>
     <use x="245.357422" xlink:href="#DejaVuSans-115"/>
     <use x="297.457031" xlink:href="#DejaVuSans-116"/>
     <use x="336.666016" xlink:href="#DejaVuSans-114"/>
     <use x="377.779297" xlink:href="#DejaVuSans-105"/>
     <use x="405.5625" xlink:href="#DejaVuSans-97"/>
     <use x="466.841797" xlink:href="#DejaVuSans-108"/>
    </g>
   </g>
   <g id="patch_70">
    <path d="M 705.51 79.656953 
L 724.51 79.656953 
L 724.51 73.006953 
L 705.51 73.006953 
z
" style="fill:#8da0cb;stroke:#ffffff;stroke-linejoin:miter;"/>
   </g>
   <g id="text_14">
    <!-- Human -->
    <defs>
     <path d="M 52 44.1875 
Q 55.375 50.25 60.0625 53.125 
Q 64.75 56 71.09375 56 
Q 79.640625 56 84.28125 50.015625 
Q 88.921875 44.046875 88.921875 33.015625 
L 88.921875 0 
L 79.890625 0 
L 79.890625 32.71875 
Q 79.890625 40.578125 77.09375 44.375 
Q 74.3125 48.1875 68.609375 48.1875 
Q 61.625 48.1875 57.5625 43.546875 
Q 53.515625 38.921875 53.515625 30.90625 
L 53.515625 0 
L 44.484375 0 
L 44.484375 32.71875 
Q 44.484375 40.625 41.703125 44.40625 
Q 38.921875 48.1875 33.109375 48.1875 
Q 26.21875 48.1875 22.15625 43.53125 
Q 18.109375 38.875 18.109375 30.90625 
L 18.109375 0 
L 9.078125 0 
L 9.078125 54.6875 
L 18.109375 54.6875 
L 18.109375 46.1875 
Q 21.1875 51.21875 25.484375 53.609375 
Q 29.78125 56 35.6875 56 
Q 41.65625 56 45.828125 52.96875 
Q 50 49.953125 52 44.1875 
z
" id="DejaVuSans-109"/>
    </defs>
    <g style="fill:#262626;" transform="translate(732.11 79.656953)scale(0.095 -0.095)">
     <use xlink:href="#DejaVuSans-72"/>
     <use x="75.195312" xlink:href="#DejaVuSans-117"/>
     <use x="138.574219" xlink:href="#DejaVuSans-109"/>
     <use x="235.986328" xlink:href="#DejaVuSans-97"/>
     <use x="297.265625" xlink:href="#DejaVuSans-110"/>
    </g>
   </g>
   <g id="patch_71">
    <path d="M 705.51 93.601172 
L 724.51 93.601172 
L 724.51 86.951172 
L 705.51 86.951172 
z
" style="fill:#e78ac3;stroke:#ffffff;stroke-linejoin:miter;"/>
   </g>
   <g id="text_15">
    <!-- Mammals -->
    <g style="fill:#262626;" transform="translate(732.11 93.601172)scale(0.095 -0.095)">
     <use xlink:href="#DejaVuSans-77"/>
     <use x="86.279297" xlink:href="#DejaVuSans-97"/>
     <use x="147.558594" xlink:href="#DejaVuSans-109"/>
     <use x="244.970703" xlink:href="#DejaVuSans-109"/>
     <use x="342.382812" xlink:href="#DejaVuSans-97"/>
     <use x="403.662109" xlink:href="#DejaVuSans-108"/>
     <use x="431.445312" xlink:href="#DejaVuSans-115"/>
    </g>
   </g>
   <g id="patch_72">
    <path d="M 705.51 107.545391 
L 724.51 107.545391 
L 724.51 100.895391 
L 705.51 100.895391 
z
" style="fill:#a6d854;stroke:#ffffff;stroke-linejoin:miter;"/>
   </g>
   <g id="text_16">
    <!-- Plants -->
    <defs>
     <path d="M 19.671875 64.796875 
L 19.671875 37.40625 
L 32.078125 37.40625 
Q 38.96875 37.40625 42.71875 40.96875 
Q 46.484375 44.53125 46.484375 51.125 
Q 46.484375 57.671875 42.71875 61.234375 
Q 38.96875 64.796875 32.078125 64.796875 
z
M 9.8125 72.90625 
L 32.078125 72.90625 
Q 44.34375 72.90625 50.609375 67.359375 
Q 56.890625 61.8125 56.890625 51.125 
Q 56.890625 40.328125 50.609375 34.8125 
Q 44.34375 29.296875 32.078125 29.296875 
L 19.671875 29.296875 
L 19.671875 0 
L 9.8125 0 
z
" id="DejaVuSans-80"/>
    </defs>
    <g style="fill:#262626;" transform="translate(732.11 107.545391)scale(0.095 -0.095)">
     <use xlink:href="#DejaVuSans-80"/>
     <use x="60.302734" xlink:href="#DejaVuSans-108"/>
     <use x="88.085938" xlink:href="#DejaVuSans-97"/>
     <use x="149.365234" xlink:href="#DejaVuSans-110"/>
     <use x="212.744141" xlink:href="#DejaVuSans-116"/>
     <use x="251.953125" xlink:href="#DejaVuSans-115"/>
    </g>
   </g>
   <g id="patch_73">
    <path d="M 705.51 121.489609 
L 724.51 121.489609 
L 724.51 114.839609 
L 705.51 114.839609 
z
" style="fill:#ffd92f;stroke:#ffffff;stroke-linejoin:miter;"/>
   </g>
   <g id="text_17">
    <!-- Others -->
    <g style="fill:#262626;" transform="translate(732.11 121.489609)scale(0.095 -0.095)">
     <use xlink:href="#DejaVuSans-79"/>
     <use x="78.710938" xlink:href="#DejaVuSans-116"/>
     <use x="117.919922" xlink:href="#DejaVuSans-104"/>
     <use x="181.298828" xlink:href="#DejaVuSans-101"/>
     <use x="242.822266" xlink:href="#DejaVuSans-114"/>
     <use x="283.935547" xlink:href="#DejaVuSans-115"/>
    </g>
   </g>
  </g>
 </g>
</svg>
