<?xml version="1.0" encoding="utf-8" standalone="no"?>
<!DOCTYPE svg PUBLIC "-//W3C//DTD SVG 1.1//EN"
  "http://www.w3.org/Graphics/SVG/1.1/DTD/svg11.dtd">
<!-- Created with matplotlib (https://matplotlib.org/) -->
<svg height="144pt" version="1.1" viewBox="0 0 1584 144" width="1584pt" xmlns="http://www.w3.org/2000/svg" xmlns:xlink="http://www.w3.org/1999/xlink">
 <defs>
  <style type="text/css">
*{stroke-linecap:butt;stroke-linejoin:round;}
  </style>
 </defs>
 <g id="figure_1">
  <g id="patch_1">
   <path d="M 0 144 
L 1584 144 
L 1584 0 
L 0 0 
z
" style="fill:#ffffff;"/>
  </g>
  <g id="axes_1">
   <g id="matplotlib.axis_1"/>
   <g id="matplotlib.axis_2"/>
   <g id="patch_2">
    <path d="M 121.836755 76.107692 
C 121.836755 70.651846 120.820746 65.243405 118.84079 60.159506 
C 116.860834 55.075607 113.951337 50.404596 110.261388 46.385823 
C 106.571439 42.367051 102.165159 39.070354 97.268334 36.66466 
C 92.371509 34.258966 87.069234 32.786081 81.633206 32.321477 
C 76.197178 31.856874 70.721862 32.408626 65.487823 33.94846 
C 60.253784 35.488295 55.351976 37.989453 51.033577 41.323772 
C 46.715177 44.658091 43.05523 48.767629 40.241275 53.441804 
C 37.427321 58.11598 35.50826 63.273569 34.582429 68.650286 
C 33.656597 74.027003 33.740083 79.529416 34.828609 84.875571 
C 35.917135 90.221725 37.991785 95.318719 40.94625 99.905372 
C 43.900715 104.492026 47.683655 108.488635 52.101224 111.690406 
C 56.518793 114.892177 61.494225 117.243472 66.772571 118.623806 
C 72.050916 120.00414 77.540451 120.389526 82.959882 119.760217 
C 88.379312 119.130908 93.634462 117.497838 98.456048 114.944691 
C 103.277634 112.391543 107.58187 108.962684 111.148198 104.833815 
C 114.714526 100.704946 117.480973 95.947816 119.305781 90.806189 
L 77.890909 76.107692 
L 121.836755 76.107692 
z
" style="fill:#66c2a5;stroke:#ffffff;stroke-linejoin:miter;"/>
   </g>
   <g id="patch_3">
    <path d="M 119.305781 90.806189 
C 119.308858 90.797518 119.311932 90.788847 119.315004 90.780175 
C 119.318076 90.771502 119.321145 90.762829 119.324211 90.754155 
L 77.890909 76.107692 
L 119.305781 90.806189 
z
" style="fill:#fc8d62;stroke:#ffffff;stroke-linejoin:miter;"/>
   </g>
   <g id="patch_4">
    <path d="M 119.324211 90.754155 
C 120.140327 88.44545 120.762051 86.072567 121.18289 83.660295 
C 121.603728 81.248023 121.82221 78.804791 121.836053 76.356124 
L 77.890909 76.107692 
L 119.324211 90.754155 
z
" style="fill:#8da0cb;stroke:#ffffff;stroke-linejoin:miter;"/>
   </g>
   <g id="patch_5">
    <path d="M 121.836053 76.356124 
C 121.836235 76.323924 121.836382 76.291723 121.836493 76.259522 
C 121.836604 76.227321 121.83668 76.19512 121.836721 76.162919 
L 77.890909 76.107692 
L 121.836053 76.356124 
z
" style="fill:#e78ac3;stroke:#ffffff;stroke-linejoin:miter;"/>
   </g>
   <g id="patch_6">
    <path d="M 121.836721 76.162919 
C 121.836726 76.158319 121.836731 76.153719 121.836736 76.149118 
C 121.83674 76.144518 121.836744 76.139918 121.836747 76.135318 
L 77.890909 76.107692 
L 121.836721 76.162919 
z
" style="fill:#a6d854;stroke:#ffffff;stroke-linejoin:miter;"/>
   </g>
   <g id="patch_7">
    <path d="M 121.836747 76.135318 
C 121.836749 76.130718 121.836752 76.126118 121.836753 76.121518 
C 121.836755 76.116917 121.836755 76.112317 121.836755 76.107717 
L 77.890909 76.107692 
L 121.836747 76.135318 
z
" style="fill:#ffd92f;stroke:#ffffff;stroke-linejoin:miter;"/>
   </g>
   <g id="text_1">
    <!-- Forehead_1 -->
    <defs>
     <path d="M 9.8125 72.90625 
L 51.703125 72.90625 
L 51.703125 64.59375 
L 19.671875 64.59375 
L 19.671875 43.109375 
L 48.578125 43.109375 
L 48.578125 34.8125 
L 19.671875 34.8125 
L 19.671875 0 
L 9.8125 0 
z
" id="DejaVuSans-70"/>
     <path d="M 30.609375 48.390625 
Q 23.390625 48.390625 19.1875 42.75 
Q 14.984375 37.109375 14.984375 27.296875 
Q 14.984375 17.484375 19.15625 11.84375 
Q 23.34375 6.203125 30.609375 6.203125 
Q 37.796875 6.203125 41.984375 11.859375 
Q 46.1875 17.53125 46.1875 27.296875 
Q 46.1875 37.015625 41.984375 42.703125 
Q 37.796875 48.390625 30.609375 48.390625 
z
M 30.609375 56 
Q 42.328125 56 49.015625 48.375 
Q 55.71875 40.765625 55.71875 27.296875 
Q 55.71875 13.875 49.015625 6.21875 
Q 42.328125 -1.421875 30.609375 -1.421875 
Q 18.84375 -1.421875 12.171875 6.21875 
Q 5.515625 13.875 5.515625 27.296875 
Q 5.515625 40.765625 12.171875 48.375 
Q 18.84375 56 30.609375 56 
z
" id="DejaVuSans-111"/>
     <path d="M 41.109375 46.296875 
Q 39.59375 47.171875 37.8125 47.578125 
Q 36.03125 48 33.890625 48 
Q 26.265625 48 22.1875 43.046875 
Q 18.109375 38.09375 18.109375 28.8125 
L 18.109375 0 
L 9.078125 0 
L 9.078125 54.6875 
L 18.109375 54.6875 
L 18.109375 46.1875 
Q 20.953125 51.171875 25.484375 53.578125 
Q 30.03125 56 36.53125 56 
Q 37.453125 56 38.578125 55.875 
Q 39.703125 55.765625 41.0625 55.515625 
z
" id="DejaVuSans-114"/>
     <path d="M 56.203125 29.59375 
L 56.203125 25.203125 
L 14.890625 25.203125 
Q 15.484375 15.921875 20.484375 11.0625 
Q 25.484375 6.203125 34.421875 6.203125 
Q 39.59375 6.203125 44.453125 7.46875 
Q 49.3125 8.734375 54.109375 11.28125 
L 54.109375 2.78125 
Q 49.265625 0.734375 44.1875 -0.34375 
Q 39.109375 -1.421875 33.890625 -1.421875 
Q 20.796875 -1.421875 13.15625 6.1875 
Q 5.515625 13.8125 5.515625 26.8125 
Q 5.515625 40.234375 12.765625 48.109375 
Q 20.015625 56 32.328125 56 
Q 43.359375 56 49.78125 48.890625 
Q 56.203125 41.796875 56.203125 29.59375 
z
M 47.21875 32.234375 
Q 47.125 39.59375 43.09375 43.984375 
Q 39.0625 48.390625 32.421875 48.390625 
Q 24.90625 48.390625 20.390625 44.140625 
Q 15.875 39.890625 15.1875 32.171875 
z
" id="DejaVuSans-101"/>
     <path d="M 54.890625 33.015625 
L 54.890625 0 
L 45.90625 0 
L 45.90625 32.71875 
Q 45.90625 40.484375 42.875 44.328125 
Q 39.84375 48.1875 33.796875 48.1875 
Q 26.515625 48.1875 22.3125 43.546875 
Q 18.109375 38.921875 18.109375 30.90625 
L 18.109375 0 
L 9.078125 0 
L 9.078125 75.984375 
L 18.109375 75.984375 
L 18.109375 46.1875 
Q 21.34375 51.125 25.703125 53.5625 
Q 30.078125 56 35.796875 56 
Q 45.21875 56 50.046875 50.171875 
Q 54.890625 44.34375 54.890625 33.015625 
z
" id="DejaVuSans-104"/>
     <path d="M 34.28125 27.484375 
Q 23.390625 27.484375 19.1875 25 
Q 14.984375 22.515625 14.984375 16.5 
Q 14.984375 11.71875 18.140625 8.90625 
Q 21.296875 6.109375 26.703125 6.109375 
Q 34.1875 6.109375 38.703125 11.40625 
Q 43.21875 16.703125 43.21875 25.484375 
L 43.21875 27.484375 
z
M 52.203125 31.203125 
L 52.203125 0 
L 43.21875 0 
L 43.21875 8.296875 
Q 40.140625 3.328125 35.546875 0.953125 
Q 30.953125 -1.421875 24.3125 -1.421875 
Q 15.921875 -1.421875 10.953125 3.296875 
Q 6 8.015625 6 15.921875 
Q 6 25.140625 12.171875 29.828125 
Q 18.359375 34.515625 30.609375 34.515625 
L 43.21875 34.515625 
L 43.21875 35.40625 
Q 43.21875 41.609375 39.140625 45 
Q 35.0625 48.390625 27.6875 48.390625 
Q 23 48.390625 18.546875 47.265625 
Q 14.109375 46.140625 10.015625 43.890625 
L 10.015625 52.203125 
Q 14.9375 54.109375 19.578125 55.046875 
Q 24.21875 56 28.609375 56 
Q 40.484375 56 46.34375 49.84375 
Q 52.203125 43.703125 52.203125 31.203125 
z
" id="DejaVuSans-97"/>
     <path d="M 45.40625 46.390625 
L 45.40625 75.984375 
L 54.390625 75.984375 
L 54.390625 0 
L 45.40625 0 
L 45.40625 8.203125 
Q 42.578125 3.328125 38.25 0.953125 
Q 33.9375 -1.421875 27.875 -1.421875 
Q 17.96875 -1.421875 11.734375 6.484375 
Q 5.515625 14.40625 5.515625 27.296875 
Q 5.515625 40.1875 11.734375 48.09375 
Q 17.96875 56 27.875 56 
Q 33.9375 56 38.25 53.625 
Q 42.578125 51.265625 45.40625 46.390625 
z
M 14.796875 27.296875 
Q 14.796875 17.390625 18.875 11.75 
Q 22.953125 6.109375 30.078125 6.109375 
Q 37.203125 6.109375 41.296875 11.75 
Q 45.40625 17.390625 45.40625 27.296875 
Q 45.40625 37.203125 41.296875 42.84375 
Q 37.203125 48.484375 30.078125 48.484375 
Q 22.953125 48.484375 18.875 42.84375 
Q 14.796875 37.203125 14.796875 27.296875 
z
" id="DejaVuSans-100"/>
     <path d="M 50.984375 -16.609375 
L 50.984375 -23.578125 
L -0.984375 -23.578125 
L -0.984375 -16.609375 
z
" id="DejaVuSans-95"/>
     <path d="M 12.40625 8.296875 
L 28.515625 8.296875 
L 28.515625 63.921875 
L 10.984375 60.40625 
L 10.984375 69.390625 
L 28.421875 72.90625 
L 38.28125 72.90625 
L 38.28125 8.296875 
L 54.390625 8.296875 
L 54.390625 0 
L 12.40625 0 
z
" id="DejaVuSans-49"/>
    </defs>
    <g style="fill:#262626;" transform="translate(43.164972 15.175385)scale(0.12 -0.12)">
     <use xlink:href="#DejaVuSans-70"/>
     <use x="53.894531" xlink:href="#DejaVuSans-111"/>
     <use x="115.076172" xlink:href="#DejaVuSans-114"/>
     <use x="153.939453" xlink:href="#DejaVuSans-101"/>
     <use x="215.462891" xlink:href="#DejaVuSans-104"/>
     <use x="278.841797" xlink:href="#DejaVuSans-101"/>
     <use x="340.365234" xlink:href="#DejaVuSans-97"/>
     <use x="401.644531" xlink:href="#DejaVuSans-100"/>
     <use x="465.121094" xlink:href="#DejaVuSans-95"/>
     <use x="515.121094" xlink:href="#DejaVuSans-49"/>
    </g>
   </g>
  </g>
  <g id="axes_2">
   <g id="matplotlib.axis_3"/>
   <g id="matplotlib.axis_4"/>
   <g id="patch_8">
    <path d="M 264.658573 76.107692 
C 264.658573 70.365216 263.533005 64.678027 261.345661 59.368454 
C 259.158317 54.058881 255.951316 49.229164 251.906419 45.153033 
C 247.861523 41.076901 243.056617 37.832844 237.764027 35.604722 
C 232.471437 33.376601 226.793075 32.207319 221.050768 32.163146 
C 215.308461 32.118974 209.612782 33.200762 204.286541 35.347199 
C 198.9603 37.493636 194.106057 40.663391 189.998932 44.676813 
C 185.891806 48.690236 182.610885 53.470045 180.342118 58.74534 
C 178.07335 64.020634 176.860424 69.689834 176.772082 75.431631 
C 176.68374 81.173429 177.721683 86.87726 179.827086 92.219854 
C 181.932489 97.562449 185.06481 102.440931 189.046521 106.578807 
C 193.028233 110.716682 197.782663 114.034274 203.040349 116.343553 
C 208.298036 118.652832 213.957738 119.909331 219.698686 120.041838 
C 225.439634 120.174344 231.15128 119.180306 236.509912 117.116062 
C 241.868544 115.051817 246.770976 111.957115 250.939357 108.007351 
C 255.107738 104.057587 258.461804 99.328817 260.811458 94.08905 
C 263.161111 88.849282 264.461109 83.199413 264.637772 77.459654 
L 220.712727 76.107692 
L 264.658573 76.107692 
z
" style="fill:#66c2a5;stroke:#ffffff;stroke-linejoin:miter;"/>
   </g>
   <g id="patch_9">
    <path d="M 264.637772 77.459654 
C 264.638055 77.45046 264.638336 77.441266 264.638613 77.432071 
C 264.63889 77.422877 264.639164 77.413683 264.639436 77.404488 
L 220.712727 76.107692 
L 264.637772 77.459654 
z
" style="fill:#fc8d62;stroke:#ffffff;stroke-linejoin:miter;"/>
   </g>
   <g id="patch_10">
    <path d="M 264.639436 77.404488 
C 264.645407 77.202209 264.649982 76.999891 264.653158 76.797549 
C 264.656335 76.595206 264.658114 76.392844 264.658495 76.190478 
L 220.712727 76.107692 
L 264.639436 77.404488 
z
" style="fill:#8da0cb;stroke:#ffffff;stroke-linejoin:miter;"/>
   </g>
   <g id="patch_11">
    <path d="M 264.658495 76.190478 
C 264.658504 76.185878 264.658512 76.181279 264.658519 76.17668 
C 264.658526 76.172081 264.658533 76.167481 264.658539 76.162882 
L 220.712727 76.107692 
L 264.658495 76.190478 
z
" style="fill:#e78ac3;stroke:#ffffff;stroke-linejoin:miter;"/>
   </g>
   <g id="patch_12">
    <path d="M 264.658539 76.162882 
C 264.658545 76.158283 264.65855 76.153684 264.658554 76.149084 
C 264.658558 76.144485 264.658562 76.139886 264.658565 76.135287 
L 220.712727 76.107692 
L 264.658539 76.162882 
z
" style="fill:#a6d854;stroke:#ffffff;stroke-linejoin:miter;"/>
   </g>
   <g id="patch_13">
    <path d="M 264.658565 76.135287 
C 264.658568 76.130687 264.65857 76.126088 264.658571 76.121489 
C 264.658573 76.11689 264.658573 76.112291 264.658573 76.107691 
L 220.712727 76.107692 
L 264.658565 76.135287 
z
" style="fill:#ffd92f;stroke:#ffffff;stroke-linejoin:miter;"/>
   </g>
   <g id="text_2">
    <!-- Forehead_2 -->
    <defs>
     <path d="M 19.1875 8.296875 
L 53.609375 8.296875 
L 53.609375 0 
L 7.328125 0 
L 7.328125 8.296875 
Q 12.9375 14.109375 22.625 23.890625 
Q 32.328125 33.6875 34.8125 36.53125 
Q 39.546875 41.84375 41.421875 45.53125 
Q 43.3125 49.21875 43.3125 52.78125 
Q 43.3125 58.59375 39.234375 62.25 
Q 35.15625 65.921875 28.609375 65.921875 
Q 23.96875 65.921875 18.8125 64.3125 
Q 13.671875 62.703125 7.8125 59.421875 
L 7.8125 69.390625 
Q 13.765625 71.78125 18.9375 73 
Q 24.125 74.21875 28.421875 74.21875 
Q 39.75 74.21875 46.484375 68.546875 
Q 53.21875 62.890625 53.21875 53.421875 
Q 53.21875 48.921875 51.53125 44.890625 
Q 49.859375 40.875 45.40625 35.40625 
Q 44.1875 33.984375 37.640625 27.21875 
Q 31.109375 20.453125 19.1875 8.296875 
z
" id="DejaVuSans-50"/>
    </defs>
    <g style="fill:#262626;" transform="translate(185.98679 15.175385)scale(0.12 -0.12)">
     <use xlink:href="#DejaVuSans-70"/>
     <use x="53.894531" xlink:href="#DejaVuSans-111"/>
     <use x="115.076172" xlink:href="#DejaVuSans-114"/>
     <use x="153.939453" xlink:href="#DejaVuSans-101"/>
     <use x="215.462891" xlink:href="#DejaVuSans-104"/>
     <use x="278.841797" xlink:href="#DejaVuSans-101"/>
     <use x="340.365234" xlink:href="#DejaVuSans-97"/>
     <use x="401.644531" xlink:href="#DejaVuSans-100"/>
     <use x="465.121094" xlink:href="#DejaVuSans-95"/>
     <use x="515.121094" xlink:href="#DejaVuSans-50"/>
    </g>
   </g>
  </g>
  <g id="axes_3">
   <g id="matplotlib.axis_5"/>
   <g id="matplotlib.axis_6"/>
   <g id="patch_14">
    <path d="M 407.480392 76.107692 
C 407.480392 70.714626 406.48763 65.367343 404.55183 60.333672 
C 402.616031 55.3 399.770062 50.665406 396.156467 46.66202 
C 392.542872 42.658634 388.223007 39.354428 383.413239 36.9149 
C 378.603471 34.475372 373.385464 32.941942 368.02057 32.391414 
C 362.655676 31.840886 357.234985 32.282607 352.030001 33.694453 
C 346.825017 35.106299 341.924115 37.464299 337.572764 40.650348 
C 333.221412 43.836397 329.493493 47.7964 326.575724 52.332014 
C 323.657955 56.867627 321.599877 61.901842 320.504573 67.182512 
C 319.409268 72.463182 319.295333 77.900647 320.168476 83.222563 
C 321.041618 88.544479 322.887012 93.660486 325.612228 98.314341 
C 328.337444 102.968196 331.896212 107.080881 336.110284 110.446406 
C 340.324357 113.811932 345.122183 116.373155 350.263458 118.001793 
C 355.404733 119.63043 360.802163 120.29883 366.185409 119.973514 
C 371.568655 119.648198 376.846315 118.33469 381.754051 116.098779 
C 386.661787 113.862868 391.116269 110.742517 394.894389 106.894014 
C 398.672509 103.04551 401.710119 98.534199 403.855073 93.586034 
L 363.534545 76.107692 
L 407.480392 76.107692 
z
" style="fill:#66c2a5;stroke:#ffffff;stroke-linejoin:miter;"/>
   </g>
   <g id="patch_15">
    <path d="M 403.855073 93.586034 
C 403.856904 93.581811 403.858733 93.577589 403.860562 93.573366 
C 403.862391 93.569143 403.86422 93.56492 403.866047 93.560696 
L 363.534545 76.107692 
L 403.855073 93.586034 
z
" style="fill:#fc8d62;stroke:#ffffff;stroke-linejoin:miter;"/>
   </g>
   <g id="patch_16">
    <path d="M 403.866047 93.560696 
C 403.900773 93.480449 403.93526 93.400099 403.969506 93.319647 
C 404.003752 93.239194 404.037758 93.15864 404.071523 93.077984 
L 363.534545 76.107692 
L 403.866047 93.560696 
z
" style="fill:#8da0cb;stroke:#ffffff;stroke-linejoin:miter;"/>
   </g>
   <g id="patch_17">
    <path d="M 404.071523 93.077984 
C 405.154617 90.490796 405.987545 87.805849 406.558901 85.059909 
C 407.130258 82.313969 407.437424 79.519625 407.476193 76.715141 
L 363.534545 76.107692 
L 404.071523 93.077984 
z
" style="fill:#e78ac3;stroke:#ffffff;stroke-linejoin:miter;"/>
   </g>
   <g id="patch_18">
    <path d="M 407.476193 76.715141 
C 407.476257 76.710539 407.47632 76.705938 407.476382 76.701336 
C 407.476444 76.696735 407.476505 76.692133 407.476566 76.687531 
L 363.534545 76.107692 
L 407.476193 76.715141 
z
" style="fill:#a6d854;stroke:#ffffff;stroke-linejoin:miter;"/>
   </g>
   <g id="patch_19">
    <path d="M 407.476566 76.687531 
C 407.476627 76.68293 407.476687 76.678328 407.476746 76.673727 
C 407.476805 76.669125 407.476864 76.664523 407.476922 76.659922 
L 363.534545 76.107692 
L 407.476566 76.687531 
z
" style="fill:#ffd92f;stroke:#ffffff;stroke-linejoin:miter;"/>
   </g>
   <g id="text_3">
    <!-- Mouth_1 -->
    <defs>
     <path d="M 9.8125 72.90625 
L 24.515625 72.90625 
L 43.109375 23.296875 
L 61.8125 72.90625 
L 76.515625 72.90625 
L 76.515625 0 
L 66.890625 0 
L 66.890625 64.015625 
L 48.09375 14.015625 
L 38.1875 14.015625 
L 19.390625 64.015625 
L 19.390625 0 
L 9.8125 0 
z
" id="DejaVuSans-77"/>
     <path d="M 8.5 21.578125 
L 8.5 54.6875 
L 17.484375 54.6875 
L 17.484375 21.921875 
Q 17.484375 14.15625 20.5 10.265625 
Q 23.53125 6.390625 29.59375 6.390625 
Q 36.859375 6.390625 41.078125 11.03125 
Q 45.3125 15.671875 45.3125 23.6875 
L 45.3125 54.6875 
L 54.296875 54.6875 
L 54.296875 0 
L 45.3125 0 
L 45.3125 8.40625 
Q 42.046875 3.421875 37.71875 1 
Q 33.40625 -1.421875 27.6875 -1.421875 
Q 18.265625 -1.421875 13.375 4.4375 
Q 8.5 10.296875 8.5 21.578125 
z
M 31.109375 56 
z
" id="DejaVuSans-117"/>
     <path d="M 18.3125 70.21875 
L 18.3125 54.6875 
L 36.8125 54.6875 
L 36.8125 47.703125 
L 18.3125 47.703125 
L 18.3125 18.015625 
Q 18.3125 11.328125 20.140625 9.421875 
Q 21.96875 7.515625 27.59375 7.515625 
L 36.8125 7.515625 
L 36.8125 0 
L 27.59375 0 
Q 17.1875 0 13.234375 3.875 
Q 9.28125 7.765625 9.28125 18.015625 
L 9.28125 47.703125 
L 2.6875 47.703125 
L 2.6875 54.6875 
L 9.28125 54.6875 
L 9.28125 70.21875 
z
" id="DejaVuSans-116"/>
    </defs>
    <g style="fill:#262626;" transform="translate(337.911733 15.175385)scale(0.12 -0.12)">
     <use xlink:href="#DejaVuSans-77"/>
     <use x="86.279297" xlink:href="#DejaVuSans-111"/>
     <use x="147.460938" xlink:href="#DejaVuSans-117"/>
     <use x="210.839844" xlink:href="#DejaVuSans-116"/>
     <use x="250.048828" xlink:href="#DejaVuSans-104"/>
     <use x="313.427734" xlink:href="#DejaVuSans-95"/>
     <use x="363.427734" xlink:href="#DejaVuSans-49"/>
    </g>
   </g>
  </g>
  <g id="axes_4">
   <g id="matplotlib.axis_7"/>
   <g id="matplotlib.axis_8"/>
   <g id="patch_20">
    <path d="M 550.30221 76.107692 
C 550.30221 71.100426 549.446405 66.129793 547.77182 61.410844 
C 546.097235 56.691894 543.628374 52.293677 540.472049 48.406476 
C 537.315724 44.519275 533.51812 41.199969 529.243535 38.592165 
C 524.96895 35.984361 520.279932 34.126216 515.379347 33.098122 
C 510.478761 32.070027 505.438314 31.887026 500.476077 32.557037 
C 495.513839 33.227047 490.702419 34.740264 486.249977 37.031221 
C 481.797536 39.322178 477.769222 42.357352 474.339318 46.00543 
C 470.909414 49.653508 468.128106 53.861111 466.115724 58.446199 
C 464.103343 63.031288 462.889334 67.926773 462.52622 72.920856 
C 462.163107 77.914939 462.656201 82.934546 463.984171 87.762507 
C 465.312141 92.590469 467.455555 97.156142 470.321681 101.261997 
C 473.187806 105.367851 476.734705 108.95381 480.808924 111.86473 
C 484.883144 114.77565 489.425068 116.968937 494.238197 118.349703 
C 499.051325 119.730468 504.06523 120.278506 509.062991 119.970109 
C 514.060751 119.661711 518.969238 118.501389 523.576091 116.539343 
C 528.182944 114.577297 532.420754 111.842237 536.106177 108.452491 
L 506.356364 76.107692 
L 550.30221 76.107692 
z
" style="fill:#66c2a5;stroke:#ffffff;stroke-linejoin:miter;"/>
   </g>
   <g id="patch_21">
    <path d="M 536.106177 108.452491 
C 536.109563 108.449377 536.112948 108.446262 536.116333 108.443147 
C 536.119718 108.440032 536.123102 108.436916 536.126486 108.4338 
L 506.356364 76.107692 
L 536.106177 108.452491 
z
" style="fill:#fc8d62;stroke:#ffffff;stroke-linejoin:miter;"/>
   </g>
   <g id="patch_22">
    <path d="M 536.126486 108.4338 
C 540.154681 104.724109 543.454212 100.293954 545.854762 95.372011 
C 548.255311 90.450068 549.714854 85.122506 550.15805 79.664325 
L 506.356364 76.107692 
L 536.126486 108.4338 
z
" style="fill:#8da0cb;stroke:#ffffff;stroke-linejoin:miter;"/>
   </g>
   <g id="patch_23">
    <path d="M 550.15805 79.664325 
C 550.205334 79.082002 550.241001 78.498794 550.265029 77.915049 
C 550.289057 77.331304 550.301441 76.747138 550.302175 76.162899 
L 506.356364 76.107692 
L 550.15805 79.664325 
z
" style="fill:#e78ac3;stroke:#ffffff;stroke-linejoin:miter;"/>
   </g>
   <g id="patch_24">
    <path d="M 550.302175 76.162899 
C 550.302181 76.158299 550.302186 76.153699 550.30219 76.149098 
C 550.302195 76.144498 550.302198 76.139898 550.302201 76.135298 
L 506.356364 76.107692 
L 550.302175 76.162899 
z
" style="fill:#a6d854;stroke:#ffffff;stroke-linejoin:miter;"/>
   </g>
   <g id="patch_25">
    <path d="M 550.302201 76.135298 
C 550.302204 76.130698 550.302206 76.126098 550.302208 76.121497 
C 550.302209 76.116897 550.30221 76.112297 550.30221 76.107697 
L 506.356364 76.107692 
L 550.302201 76.135298 
z
" style="fill:#ffd92f;stroke:#ffffff;stroke-linejoin:miter;"/>
   </g>
   <g id="text_4">
    <!-- Mouth_2 -->
    <g style="fill:#262626;" transform="translate(480.733551 15.175385)scale(0.12 -0.12)">
     <use xlink:href="#DejaVuSans-77"/>
     <use x="86.279297" xlink:href="#DejaVuSans-111"/>
     <use x="147.460938" xlink:href="#DejaVuSans-117"/>
     <use x="210.839844" xlink:href="#DejaVuSans-116"/>
     <use x="250.048828" xlink:href="#DejaVuSans-104"/>
     <use x="313.427734" xlink:href="#DejaVuSans-95"/>
     <use x="363.427734" xlink:href="#DejaVuSans-50"/>
    </g>
   </g>
  </g>
  <g id="axes_5">
   <g id="matplotlib.axis_9"/>
   <g id="matplotlib.axis_10"/>
   <g id="patch_26">
    <path d="M 693.124028 76.107692 
C 693.124028 75.735149 693.119291 75.362621 693.109817 74.990198 
C 693.100344 74.617775 693.086135 74.245487 693.067195 73.873426 
L 649.178182 76.107692 
L 693.124028 76.107692 
z
" style="fill:#66c2a5;stroke:#ffffff;stroke-linejoin:miter;"/>
   </g>
   <g id="patch_27">
    <path d="M 693.067195 73.873426 
C 693.066961 73.868833 693.066726 73.864239 693.066491 73.859646 
C 693.066256 73.855053 693.06602 73.85046 693.065783 73.845867 
L 649.178182 76.107692 
L 693.067195 73.873426 
z
" style="fill:#fc8d62;stroke:#ffffff;stroke-linejoin:miter;"/>
   </g>
   <g id="patch_28">
    <path d="M 693.065783 73.845867 
C 692.772377 68.152728 691.373976 62.570698 688.948707 57.41163 
C 686.523437 52.252563 683.117321 47.614357 678.920649 43.756138 
C 674.723977 39.897919 669.816385 36.892901 664.47205 34.908967 
C 659.127715 32.925033 653.448051 31.99983 647.750367 32.185047 
C 642.052683 32.370265 636.445098 33.662388 631.240896 35.989228 
C 626.036693 38.316069 621.334628 41.633473 617.397393 45.756104 
C 613.460159 49.878736 610.362468 54.728365 608.277381 60.034053 
C 606.192294 65.33974 605.159379 71.000807 605.236341 76.700981 
C 605.313303 82.401155 606.498682 88.032271 608.726254 93.279731 
C 610.953825 98.52719 614.18132 103.291418 618.228424 107.306248 
C 622.275528 111.321078 627.065444 114.510324 632.33057 116.695811 
C 637.595697 118.881298 643.236123 120.021554 648.93673 120.052875 
C 654.637338 120.084196 660.289953 119.005989 665.578777 116.878489 
C 670.8676 114.75099 675.692272 111.61457 679.783248 107.644454 
C 683.874225 103.674337 687.153875 98.945862 689.438974 93.723197 
C 691.724073 88.500532 692.971257 82.882781 693.110851 77.183797 
L 649.178182 76.107692 
L 693.065783 73.845867 
z
" style="fill:#8da0cb;stroke:#ffffff;stroke-linejoin:miter;"/>
   </g>
   <g id="patch_29">
    <path d="M 693.110851 77.183797 
C 693.110963 77.179199 693.111075 77.174601 693.111186 77.170003 
C 693.111298 77.165405 693.111408 77.160807 693.111518 77.156209 
L 649.178182 76.107692 
L 693.110851 77.183797 
z
" style="fill:#e78ac3;stroke:#ffffff;stroke-linejoin:miter;"/>
   </g>
   <g id="patch_30">
    <path d="M 693.111518 77.156209 
C 693.115578 76.986086 693.11865 76.81594 693.120734 76.64578 
C 693.122817 76.47562 693.123912 76.30545 693.124019 76.135278 
L 649.178182 76.107692 
L 693.111518 77.156209 
z
" style="fill:#a6d854;stroke:#ffffff;stroke-linejoin:miter;"/>
   </g>
   <g id="patch_31">
    <path d="M 693.124019 76.135278 
C 693.124022 76.130679 693.124024 76.12608 693.124026 76.12148 
C 693.124027 76.116881 693.124028 76.112282 693.124028 76.107683 
L 649.178182 76.107692 
L 693.124019 76.135278 
z
" style="fill:#ffd92f;stroke:#ffffff;stroke-linejoin:miter;"/>
   </g>
   <g id="text_5">
    <!-- Stool_1 -->
    <defs>
     <path d="M 53.515625 70.515625 
L 53.515625 60.890625 
Q 47.90625 63.578125 42.921875 64.890625 
Q 37.9375 66.21875 33.296875 66.21875 
Q 25.25 66.21875 20.875 63.09375 
Q 16.5 59.96875 16.5 54.203125 
Q 16.5 49.359375 19.40625 46.890625 
Q 22.3125 44.4375 30.421875 42.921875 
L 36.375 41.703125 
Q 47.40625 39.59375 52.65625 34.296875 
Q 57.90625 29 57.90625 20.125 
Q 57.90625 9.515625 50.796875 4.046875 
Q 43.703125 -1.421875 29.984375 -1.421875 
Q 24.8125 -1.421875 18.96875 -0.25 
Q 13.140625 0.921875 6.890625 3.21875 
L 6.890625 13.375 
Q 12.890625 10.015625 18.65625 8.296875 
Q 24.421875 6.59375 29.984375 6.59375 
Q 38.421875 6.59375 43.015625 9.90625 
Q 47.609375 13.234375 47.609375 19.390625 
Q 47.609375 24.75 44.3125 27.78125 
Q 41.015625 30.8125 33.5 32.328125 
L 27.484375 33.5 
Q 16.453125 35.6875 11.515625 40.375 
Q 6.59375 45.0625 6.59375 53.421875 
Q 6.59375 63.09375 13.40625 68.65625 
Q 20.21875 74.21875 32.171875 74.21875 
Q 37.3125 74.21875 42.625 73.28125 
Q 47.953125 72.359375 53.515625 70.515625 
z
" id="DejaVuSans-83"/>
     <path d="M 9.421875 75.984375 
L 18.40625 75.984375 
L 18.40625 0 
L 9.421875 0 
z
" id="DejaVuSans-108"/>
    </defs>
    <g style="fill:#262626;" transform="translate(627.190057 15.175385)scale(0.12 -0.12)">
     <use xlink:href="#DejaVuSans-83"/>
     <use x="63.476562" xlink:href="#DejaVuSans-116"/>
     <use x="102.685547" xlink:href="#DejaVuSans-111"/>
     <use x="163.867188" xlink:href="#DejaVuSans-111"/>
     <use x="225.048828" xlink:href="#DejaVuSans-108"/>
     <use x="252.832031" xlink:href="#DejaVuSans-95"/>
     <use x="302.832031" xlink:href="#DejaVuSans-49"/>
    </g>
   </g>
  </g>
  <g id="axes_6">
   <g id="patch_32">
    <path d="M 727.069091 131.04 
L 856.930909 131.04 
L 856.930909 21.175385 
L 727.069091 21.175385 
z
" style="fill:#ffffff;"/>
   </g>
   <g id="matplotlib.axis_11"/>
   <g id="matplotlib.axis_12"/>
   <g id="patch_33">
    <path d="M 727.069091 131.04 
L 727.069091 21.175385 
" style="fill:none;stroke:#ffffff;stroke-linecap:square;stroke-linejoin:miter;stroke-width:1.25;"/>
   </g>
   <g id="patch_34">
    <path d="M 856.930909 131.04 
L 856.930909 21.175385 
" style="fill:none;stroke:#ffffff;stroke-linecap:square;stroke-linejoin:miter;stroke-width:1.25;"/>
   </g>
   <g id="patch_35">
    <path d="M 727.069091 131.04 
L 856.930909 131.04 
" style="fill:none;stroke:#ffffff;stroke-linecap:square;stroke-linejoin:miter;stroke-width:1.25;"/>
   </g>
   <g id="patch_36">
    <path d="M 727.069091 21.175385 
L 856.930909 21.175385 
" style="fill:none;stroke:#ffffff;stroke-linecap:square;stroke-linejoin:miter;stroke-width:1.25;"/>
   </g>
  </g>
  <g id="axes_7">
   <g id="matplotlib.axis_13"/>
   <g id="matplotlib.axis_14"/>
   <g id="patch_37">
    <path d="M 978.767664 76.107692 
C 978.767664 64.55963 974.215776 53.464564 966.105403 45.243883 
C 957.995031 37.023202 946.962466 32.321852 935.415458 32.165856 
C 923.868449 32.00986 912.712907 36.411456 904.383418 44.41004 
C 896.053928 52.408624 891.203974 63.376674 890.89201 74.920522 
L 934.821818 76.107692 
L 978.767664 76.107692 
z
" style="fill:#66c2a5;stroke:#ffffff;stroke-linejoin:miter;"/>
   </g>
   <g id="patch_38">
    <path d="M 890.89201 74.920522 
C 890.890021 74.994127 890.888217 75.067737 890.886598 75.141351 
C 890.884979 75.214965 890.883545 75.288583 890.882296 75.362205 
L 934.821818 76.107692 
L 890.89201 74.920522 
z
" style="fill:#fc8d62;stroke:#ffffff;stroke-linejoin:miter;"/>
   </g>
   <g id="patch_39">
    <path d="M 890.882296 75.362205 
C 890.728126 84.449087 893.396497 93.36386 898.517798 100.871688 
C 903.639099 108.379516 910.965423 114.116968 919.481961 117.289316 
C 927.998498 120.461665 937.292989 120.915347 946.078 118.58752 
C 954.863011 116.259693 962.713288 111.26304 968.541444 104.289677 
L 934.821818 76.107692 
L 890.882296 75.362205 
z
" style="fill:#8da0cb;stroke:#ffffff;stroke-linejoin:miter;"/>
   </g>
   <g id="patch_40">
    <path d="M 968.541444 104.289677 
C 968.550298 104.279083 968.559146 104.268486 968.56799 104.257884 
C 968.576833 104.247282 968.585672 104.236677 968.594506 104.226067 
L 934.821818 76.107692 
L 968.541444 104.289677 
z
" style="fill:#e78ac3;stroke:#ffffff;stroke-linejoin:miter;"/>
   </g>
   <g id="patch_41">
    <path d="M 968.594506 104.226067 
C 971.850446 100.31539 974.402534 95.868736 976.136784 91.084709 
C 977.871033 86.300681 978.761235 81.25158 978.76763 76.162916 
L 934.821818 76.107692 
L 968.594506 104.226067 
z
" style="fill:#a6d854;stroke:#ffffff;stroke-linejoin:miter;"/>
   </g>
   <g id="patch_42">
    <path d="M 978.76763 76.162916 
C 978.767635 76.158314 978.76764 76.153712 978.767645 76.14911 
C 978.767649 76.144508 978.767653 76.139906 978.767656 76.135304 
L 934.821818 76.107692 
L 978.76763 76.162916 
z
" style="fill:#ffd92f;stroke:#ffffff;stroke-linejoin:miter;"/>
   </g>
   <g id="text_6">
    <!-- Stool_2 -->
    <g style="fill:#262626;" transform="translate(912.833693 20.668615)scale(0.12 -0.12)">
     <use xlink:href="#DejaVuSans-83"/>
     <use x="63.476562" xlink:href="#DejaVuSans-116"/>
     <use x="102.685547" xlink:href="#DejaVuSans-111"/>
     <use x="163.867188" xlink:href="#DejaVuSans-111"/>
     <use x="225.048828" xlink:href="#DejaVuSans-108"/>
     <use x="252.832031" xlink:href="#DejaVuSans-95"/>
     <use x="302.832031" xlink:href="#DejaVuSans-50"/>
    </g>
   </g>
  </g>
  <g id="axes_8">
   <g id="matplotlib.axis_15"/>
   <g id="matplotlib.axis_16"/>
   <g id="patch_43">
    <path d="M 1121.589483 76.107692 
C 1121.589483 70.449401 1120.496674 64.843998 1118.37122 59.600078 
C 1116.245766 54.356157 1113.127399 49.571749 1109.187794 45.51025 
C 1105.24819 41.44875 1100.560996 38.186085 1095.384256 35.901874 
C 1090.207516 33.617663 1084.638004 32.354607 1078.982339 32.182241 
C 1073.326674 32.009875 1067.690583 32.931421 1062.384349 34.896146 
C 1057.078116 36.860871 1052.200935 39.832045 1048.02131 43.646097 
C 1043.841685 47.460149 1040.43775 52.045779 1037.996902 57.150534 
C 1035.556054 62.255288 1034.123923 67.783739 1033.779351 73.431529 
C 1033.434779 79.079319 1034.184208 84.740867 1035.986379 90.104489 
C 1037.78855 95.46811 1040.609775 100.433537 1044.294735 104.727408 
C 1047.979695 109.021279 1052.459504 112.563324 1057.487535 115.158543 
C 1062.515566 117.753762 1067.997825 119.35364 1073.632497 119.870098 
C 1079.267169 120.386556 1084.948919 119.80994 1090.36495 118.171995 
C 1095.780981 116.53405 1100.830046 113.865394 1105.234177 110.312947 
C 1109.638309 106.760499 1113.315177 102.390669 1116.062358 97.444028 
C 1118.809539 92.497388 1120.575678 87.066409 1121.263543 81.450085 
L 1077.643636 76.107692 
L 1121.589483 76.107692 
z
" style="fill:#66c2a5;stroke:#ffffff;stroke-linejoin:miter;"/>
   </g>
   <g id="patch_44">
    <path d="M 1121.263543 81.450085 
C 1121.271374 81.386148 1121.279064 81.322193 1121.286613 81.258222 
C 1121.294163 81.194251 1121.301572 81.130263 1121.30884 81.066259 
L 1077.643636 76.107692 
L 1121.263543 81.450085 
z
" style="fill:#fc8d62;stroke:#ffffff;stroke-linejoin:miter;"/>
   </g>
   <g id="patch_45">
    <path d="M 1121.30884 81.066259 
C 1121.399698 80.266162 1121.468548 79.463719 1121.515312 78.659839 
C 1121.562076 77.855958 1121.586737 77.050945 1121.589266 76.245709 
L 1077.643636 76.107692 
L 1121.30884 81.066259 
z
" style="fill:#8da0cb;stroke:#ffffff;stroke-linejoin:miter;"/>
   </g>
   <g id="patch_46">
    <path d="M 1121.589266 76.245709 
C 1121.589309 76.231906 1121.589346 76.218103 1121.589376 76.2043 
C 1121.589407 76.190496 1121.589431 76.176693 1121.589448 76.16289 
L 1077.643636 76.107692 
L 1121.589266 76.245709 
z
" style="fill:#e78ac3;stroke:#ffffff;stroke-linejoin:miter;"/>
   </g>
   <g id="patch_47">
    <path d="M 1121.589448 76.16289 
C 1121.589454 76.158289 1121.589459 76.153688 1121.589463 76.149087 
C 1121.589467 76.144486 1121.589471 76.139885 1121.589474 76.135283 
L 1077.643636 76.107692 
L 1121.589448 76.16289 
z
" style="fill:#a6d854;stroke:#ffffff;stroke-linejoin:miter;"/>
   </g>
   <g id="patch_48">
    <path d="M 1121.589474 76.135283 
C 1121.589477 76.130682 1121.589479 76.126081 1121.58948 76.12148 
C 1121.589482 76.116879 1121.589483 76.112278 1121.589483 76.107677 
L 1077.643636 76.107692 
L 1121.589474 76.135283 
z
" style="fill:#ffd92f;stroke:#ffffff;stroke-linejoin:miter;"/>
   </g>
   <g id="text_7">
    <!-- Left Hand_1 -->
    <defs>
     <path d="M 9.8125 72.90625 
L 19.671875 72.90625 
L 19.671875 8.296875 
L 55.171875 8.296875 
L 55.171875 0 
L 9.8125 0 
z
" id="DejaVuSans-76"/>
     <path d="M 37.109375 75.984375 
L 37.109375 68.5 
L 28.515625 68.5 
Q 23.6875 68.5 21.796875 66.546875 
Q 19.921875 64.59375 19.921875 59.515625 
L 19.921875 54.6875 
L 34.71875 54.6875 
L 34.71875 47.703125 
L 19.921875 47.703125 
L 19.921875 0 
L 10.890625 0 
L 10.890625 47.703125 
L 2.296875 47.703125 
L 2.296875 54.6875 
L 10.890625 54.6875 
L 10.890625 58.5 
Q 10.890625 67.625 15.140625 71.796875 
Q 19.390625 75.984375 28.609375 75.984375 
z
" id="DejaVuSans-102"/>
     <path id="DejaVuSans-32"/>
     <path d="M 9.8125 72.90625 
L 19.671875 72.90625 
L 19.671875 43.015625 
L 55.515625 43.015625 
L 55.515625 72.90625 
L 65.375 72.90625 
L 65.375 0 
L 55.515625 0 
L 55.515625 34.71875 
L 19.671875 34.71875 
L 19.671875 0 
L 9.8125 0 
z
" id="DejaVuSans-72"/>
     <path d="M 54.890625 33.015625 
L 54.890625 0 
L 45.90625 0 
L 45.90625 32.71875 
Q 45.90625 40.484375 42.875 44.328125 
Q 39.84375 48.1875 33.796875 48.1875 
Q 26.515625 48.1875 22.3125 43.546875 
Q 18.109375 38.921875 18.109375 30.90625 
L 18.109375 0 
L 9.078125 0 
L 9.078125 54.6875 
L 18.109375 54.6875 
L 18.109375 46.1875 
Q 21.34375 51.125 25.703125 53.5625 
Q 30.078125 56 35.796875 56 
Q 45.21875 56 50.046875 50.171875 
Q 54.890625 44.34375 54.890625 33.015625 
z
" id="DejaVuSans-110"/>
    </defs>
    <g style="fill:#262626;" transform="translate(1041.829261 20.668615)scale(0.12 -0.12)">
     <use xlink:href="#DejaVuSans-76"/>
     <use x="53.962891" xlink:href="#DejaVuSans-101"/>
     <use x="115.486328" xlink:href="#DejaVuSans-102"/>
     <use x="148.941406" xlink:href="#DejaVuSans-116"/>
     <use x="188.150391" xlink:href="#DejaVuSans-32"/>
     <use x="219.9375" xlink:href="#DejaVuSans-72"/>
     <use x="295.132812" xlink:href="#DejaVuSans-97"/>
     <use x="356.412109" xlink:href="#DejaVuSans-110"/>
     <use x="419.791016" xlink:href="#DejaVuSans-100"/>
     <use x="483.267578" xlink:href="#DejaVuSans-95"/>
     <use x="533.267578" xlink:href="#DejaVuSans-49"/>
    </g>
   </g>
  </g>
  <g id="axes_9">
   <g id="matplotlib.axis_17"/>
   <g id="matplotlib.axis_18"/>
   <g id="patch_49">
    <path d="M 1264.411301 76.107692 
C 1264.411301 69.160796 1262.764068 62.311892 1259.605191 56.124739 
C 1256.446315 49.937586 1251.864912 44.586734 1246.238096 40.512632 
C 1240.61128 36.43853 1234.097794 33.756115 1227.233784 32.686187 
C 1220.369775 31.616259 1213.348891 32.189003 1206.749044 34.357273 
L 1220.465455 76.107692 
L 1264.411301 76.107692 
z
" style="fill:#66c2a5;stroke:#ffffff;stroke-linejoin:miter;"/>
   </g>
   <g id="patch_50">
    <path d="M 1206.749044 34.357273 
C 1206.744675 34.358709 1206.740306 34.360145 1206.735937 34.361582 
C 1206.731568 34.363019 1206.727199 34.364456 1206.72283 34.365895 
L 1220.465455 76.107692 
L 1206.749044 34.357273 
z
" style="fill:#fc8d62;stroke:#ffffff;stroke-linejoin:miter;"/>
   </g>
   <g id="patch_51">
    <path d="M 1206.72283 34.365895 
C 1199.038981 36.895643 1192.200811 41.498611 1186.965135 47.665365 
C 1181.729458 53.83212 1178.296825 61.326445 1177.047143 69.318907 
C 1175.79746 77.31137 1176.778596 85.495822 1179.881964 92.966449 
C 1182.985332 100.437077 1188.092058 106.90772 1194.636955 111.662242 
C 1201.181853 116.416764 1208.914223 119.273044 1216.978286 119.914964 
C 1225.042348 120.556884 1233.129213 118.959854 1240.343866 115.300627 
C 1247.55852 111.6414 1253.624607 106.060141 1257.870766 99.174554 
C 1262.116924 92.288967 1264.380506 84.362803 1264.410989 76.273289 
L 1220.465455 76.107692 
L 1206.72283 34.365895 
z
" style="fill:#8da0cb;stroke:#ffffff;stroke-linejoin:miter;"/>
   </g>
   <g id="patch_52">
    <path d="M 1264.410989 76.273289 
C 1264.411041 76.259491 1264.411086 76.245694 1264.411125 76.231896 
C 1264.411164 76.218098 1264.411197 76.204301 1264.411223 76.190503 
L 1220.465455 76.107692 
L 1264.410989 76.273289 
z
" style="fill:#e78ac3;stroke:#ffffff;stroke-linejoin:miter;"/>
   </g>
   <g id="patch_53">
    <path d="M 1264.411223 76.190503 
C 1264.41124 76.181305 1264.411254 76.172106 1264.411266 76.162908 
C 1264.411278 76.153709 1264.411286 76.144511 1264.411292 76.135312 
L 1220.465455 76.107692 
L 1264.411223 76.190503 
z
" style="fill:#a6d854;stroke:#ffffff;stroke-linejoin:miter;"/>
   </g>
   <g id="patch_54">
    <path d="M 1264.411292 76.135312 
C 1264.411295 76.130713 1264.411297 76.126114 1264.411299 76.121515 
C 1264.4113 76.116915 1264.411301 76.112316 1264.411301 76.107717 
L 1220.465455 76.107692 
L 1264.411292 76.135312 
z
" style="fill:#ffd92f;stroke:#ffffff;stroke-linejoin:miter;"/>
   </g>
   <g id="text_8">
    <!-- Left Hand_2 -->
    <g style="fill:#262626;" transform="translate(1184.65108 20.668615)scale(0.12 -0.12)">
     <use xlink:href="#DejaVuSans-76"/>
     <use x="53.962891" xlink:href="#DejaVuSans-101"/>
     <use x="115.486328" xlink:href="#DejaVuSans-102"/>
     <use x="148.941406" xlink:href="#DejaVuSans-116"/>
     <use x="188.150391" xlink:href="#DejaVuSans-32"/>
     <use x="219.9375" xlink:href="#DejaVuSans-72"/>
     <use x="295.132812" xlink:href="#DejaVuSans-97"/>
     <use x="356.412109" xlink:href="#DejaVuSans-110"/>
     <use x="419.791016" xlink:href="#DejaVuSans-100"/>
     <use x="483.267578" xlink:href="#DejaVuSans-95"/>
     <use x="533.267578" xlink:href="#DejaVuSans-50"/>
    </g>
   </g>
  </g>
  <g id="axes_10">
   <g id="matplotlib.axis_19"/>
   <g id="matplotlib.axis_20"/>
   <g id="patch_55">
    <path d="M 1407.233119 76.107692 
C 1407.233119 71.172817 1406.40188 66.273007 1404.774345 61.614238 
C 1403.14681 56.955469 1400.746109 52.603949 1397.673161 48.742603 
C 1394.600212 44.881258 1390.898688 41.564963 1386.72419 38.933127 
C 1382.549691 36.30129 1377.961545 34.391315 1373.152624 33.283491 
C 1368.343702 32.175666 1363.382348 31.885737 1358.477123 32.42589 
C 1353.571898 32.966043 1348.792513 34.328603 1344.339879 36.45629 
C 1339.887246 38.583978 1335.824643 41.446556 1332.322852 44.92369 
C 1328.82106 48.400823 1325.929846 52.443096 1323.770748 56.880584 
C 1321.61165 61.318071 1320.215352 66.087709 1319.640551 70.988995 
C 1319.065749 75.890281 1319.320613 80.85356 1320.394429 85.670189 
C 1321.468244 90.486819 1323.345751 95.088347 1325.948024 99.281338 
C 1328.550296 103.47433 1331.840352 107.199195 1335.679887 110.299352 
C 1339.519421 113.399509 1343.853869 115.8309 1348.501021 117.491314 
C 1353.148173 119.151728 1358.041986 120.01757 1362.976739 120.052441 
C 1367.911492 120.087313 1372.817053 119.290718 1377.487206 117.696144 
C 1382.15736 116.10157 1386.525735 113.731677 1390.408698 110.686091 
L 1363.287273 76.107692 
L 1407.233119 76.107692 
z
" style="fill:#66c2a5;stroke:#ffffff;stroke-linejoin:miter;"/>
   </g>
   <g id="patch_56">
    <path d="M 1390.408698 110.686091 
C 1390.412318 110.683252 1390.415937 110.680413 1390.419556 110.677572 
C 1390.423174 110.674732 1390.426793 110.671892 1390.430411 110.66905 
L 1363.287273 76.107692 
L 1390.408698 110.686091 
z
" style="fill:#fc8d62;stroke:#ffffff;stroke-linejoin:miter;"/>
   </g>
   <g id="patch_57">
    <path d="M 1390.430411 110.66905 
C 1395.625515 106.589018 1399.834444 101.389651 1402.743216 95.458815 
C 1405.651988 89.527979 1407.186428 83.016912 1407.23207 76.411331 
L 1363.287273 76.107692 
L 1390.430411 110.66905 
z
" style="fill:#8da0cb;stroke:#ffffff;stroke-linejoin:miter;"/>
   </g>
   <g id="patch_58">
    <path d="M 1407.23207 76.411331 
C 1407.232356 76.369931 1407.232583 76.32853 1407.232753 76.287129 
C 1407.232922 76.245728 1407.233032 76.204327 1407.233084 76.162925 
L 1363.287273 76.107692 
L 1407.23207 76.411331 
z
" style="fill:#e78ac3;stroke:#ffffff;stroke-linejoin:miter;"/>
   </g>
   <g id="patch_59">
    <path d="M 1407.233084 76.162925 
C 1407.23309 76.158325 1407.233095 76.153725 1407.233099 76.149125 
C 1407.233104 76.144525 1407.233107 76.139925 1407.23311 76.135324 
L 1363.287273 76.107692 
L 1407.233084 76.162925 
z
" style="fill:#a6d854;stroke:#ffffff;stroke-linejoin:miter;"/>
   </g>
   <g id="patch_60">
    <path d="M 1407.23311 76.135324 
C 1407.233113 76.130724 1407.233115 76.126124 1407.233117 76.121524 
C 1407.233118 76.116924 1407.233119 76.112324 1407.233119 76.107723 
L 1363.287273 76.107692 
L 1407.23311 76.135324 
z
" style="fill:#ffd92f;stroke:#ffffff;stroke-linejoin:miter;"/>
   </g>
   <g id="text_9">
    <!-- Right Hand_1 -->
    <defs>
     <path d="M 44.390625 34.1875 
Q 47.5625 33.109375 50.5625 29.59375 
Q 53.5625 26.078125 56.59375 19.921875 
L 66.609375 0 
L 56 0 
L 46.6875 18.703125 
Q 43.0625 26.03125 39.671875 28.421875 
Q 36.28125 30.8125 30.421875 30.8125 
L 19.671875 30.8125 
L 19.671875 0 
L 9.8125 0 
L 9.8125 72.90625 
L 32.078125 72.90625 
Q 44.578125 72.90625 50.734375 67.671875 
Q 56.890625 62.453125 56.890625 51.90625 
Q 56.890625 45.015625 53.6875 40.46875 
Q 50.484375 35.9375 44.390625 34.1875 
z
M 19.671875 64.796875 
L 19.671875 38.921875 
L 32.078125 38.921875 
Q 39.203125 38.921875 42.84375 42.21875 
Q 46.484375 45.515625 46.484375 51.90625 
Q 46.484375 58.296875 42.84375 61.546875 
Q 39.203125 64.796875 32.078125 64.796875 
z
" id="DejaVuSans-82"/>
     <path d="M 9.421875 54.6875 
L 18.40625 54.6875 
L 18.40625 0 
L 9.421875 0 
z
M 9.421875 75.984375 
L 18.40625 75.984375 
L 18.40625 64.59375 
L 9.421875 64.59375 
z
" id="DejaVuSans-105"/>
     <path d="M 45.40625 27.984375 
Q 45.40625 37.75 41.375 43.109375 
Q 37.359375 48.484375 30.078125 48.484375 
Q 22.859375 48.484375 18.828125 43.109375 
Q 14.796875 37.75 14.796875 27.984375 
Q 14.796875 18.265625 18.828125 12.890625 
Q 22.859375 7.515625 30.078125 7.515625 
Q 37.359375 7.515625 41.375 12.890625 
Q 45.40625 18.265625 45.40625 27.984375 
z
M 54.390625 6.78125 
Q 54.390625 -7.171875 48.1875 -13.984375 
Q 42 -20.796875 29.203125 -20.796875 
Q 24.46875 -20.796875 20.265625 -20.09375 
Q 16.0625 -19.390625 12.109375 -17.921875 
L 12.109375 -9.1875 
Q 16.0625 -11.328125 19.921875 -12.34375 
Q 23.78125 -13.375 27.78125 -13.375 
Q 36.625 -13.375 41.015625 -8.765625 
Q 45.40625 -4.15625 45.40625 5.171875 
L 45.40625 9.625 
Q 42.625 4.78125 38.28125 2.390625 
Q 33.9375 0 27.875 0 
Q 17.828125 0 11.671875 7.65625 
Q 5.515625 15.328125 5.515625 27.984375 
Q 5.515625 40.671875 11.671875 48.328125 
Q 17.828125 56 27.875 56 
Q 33.9375 56 38.28125 53.609375 
Q 42.625 51.21875 45.40625 46.390625 
L 45.40625 54.6875 
L 54.390625 54.6875 
z
" id="DejaVuSans-103"/>
    </defs>
    <g style="fill:#262626;" transform="translate(1322.962585 20.668615)scale(0.12 -0.12)">
     <use xlink:href="#DejaVuSans-82"/>
     <use x="69.482422" xlink:href="#DejaVuSans-105"/>
     <use x="97.265625" xlink:href="#DejaVuSans-103"/>
     <use x="160.742188" xlink:href="#DejaVuSans-104"/>
     <use x="224.121094" xlink:href="#DejaVuSans-116"/>
     <use x="263.330078" xlink:href="#DejaVuSans-32"/>
     <use x="295.117188" xlink:href="#DejaVuSans-72"/>
     <use x="370.3125" xlink:href="#DejaVuSans-97"/>
     <use x="431.591797" xlink:href="#DejaVuSans-110"/>
     <use x="494.970703" xlink:href="#DejaVuSans-100"/>
     <use x="558.447266" xlink:href="#DejaVuSans-95"/>
     <use x="608.447266" xlink:href="#DejaVuSans-49"/>
    </g>
   </g>
  </g>
  <g id="axes_11">
   <g id="matplotlib.axis_21"/>
   <g id="matplotlib.axis_22"/>
   <g id="patch_61">
    <path d="M 1550.054937 76.107692 
C 1550.054937 72.113606 1549.510424 68.138101 1548.436456 64.291113 
C 1547.362488 60.444125 1545.769057 56.761447 1543.700227 53.344919 
L 1506.109091 76.107692 
L 1550.054937 76.107692 
z
" style="fill:#66c2a5;stroke:#ffffff;stroke-linejoin:miter;"/>
   </g>
   <g id="patch_62">
    <path d="M 1543.700227 53.344919 
C 1543.69308 53.333115 1543.685927 53.321315 1543.678768 53.309518 
C 1543.671609 53.297721 1543.664445 53.285927 1543.657275 53.274137 
L 1506.109091 76.107692 
L 1543.700227 53.344919 
z
" style="fill:#fc8d62;stroke:#ffffff;stroke-linejoin:miter;"/>
   </g>
   <g id="patch_63">
    <path d="M 1543.657275 53.274137 
C 1540.92189 48.775987 1537.400336 44.805758 1533.260805 41.553072 
C 1529.121275 38.300385 1524.430737 35.817863 1519.413216 34.224072 
C 1514.395695 32.630281 1509.132365 31.951007 1503.874606 32.218691 
C 1498.616847 32.486375 1493.449719 33.696687 1488.62001 35.791822 
C 1483.7903 37.886956 1479.376144 40.833019 1475.588364 44.489302 
C 1471.800584 48.145585 1468.70046 52.452938 1466.436055 57.205638 
C 1464.171651 61.958338 1462.7796 67.079496 1462.326389 72.324521 
C 1461.873177 77.569545 1462.366137 82.853583 1463.781723 87.924263 
C 1465.19731 92.994943 1467.512622 97.770233 1470.617079 102.02206 
C 1473.721535 106.273887 1477.564912 109.933466 1481.963647 112.826011 
C 1486.362381 115.718556 1491.245311 117.797273 1496.379222 118.962879 
C 1501.513133 120.128486 1506.81497 120.362125 1512.031513 119.652638 
C 1517.248055 118.943151 1522.294909 117.302017 1526.931033 114.807616 
C 1531.567158 112.313216 1535.717549 109.005903 1539.183981 105.04364 
C 1542.650413 101.081376 1545.376806 96.528262 1547.232944 91.601759 
C 1549.089083 86.675256 1550.044938 81.455064 1550.054859 76.190505 
L 1506.109091 76.107692 
L 1543.657275 53.274137 
z
" style="fill:#8da0cb;stroke:#ffffff;stroke-linejoin:miter;"/>
   </g>
   <g id="patch_64">
    <path d="M 1550.054859 76.190505 
C 1550.054868 76.185905 1550.054876 76.181305 1550.054883 76.176705 
C 1550.05489 76.172106 1550.054897 76.167506 1550.054902 76.162906 
L 1506.109091 76.107692 
L 1550.054859 76.190505 
z
" style="fill:#e78ac3;stroke:#ffffff;stroke-linejoin:miter;"/>
   </g>
   <g id="patch_65">
    <path d="M 1550.054902 76.162906 
C 1550.054908 76.158307 1550.054913 76.153707 1550.054918 76.149107 
C 1550.054922 76.144508 1550.054925 76.139908 1550.054928 76.135308 
L 1506.109091 76.107692 
L 1550.054902 76.162906 
z
" style="fill:#a6d854;stroke:#ffffff;stroke-linejoin:miter;"/>
   </g>
   <g id="patch_66">
    <path d="M 1550.054928 76.135308 
C 1550.054931 76.130709 1550.054933 76.126109 1550.054935 76.121509 
C 1550.054936 76.116909 1550.054937 76.11231 1550.054937 76.10771 
L 1506.109091 76.107692 
L 1550.054928 76.135308 
z
" style="fill:#ffd92f;stroke:#ffffff;stroke-linejoin:miter;"/>
   </g>
   <g id="text_10">
    <!-- Right Hand_2 -->
    <g style="fill:#262626;" transform="translate(1465.784403 20.668615)scale(0.12 -0.12)">
     <use xlink:href="#DejaVuSans-82"/>
     <use x="69.482422" xlink:href="#DejaVuSans-105"/>
     <use x="97.265625" xlink:href="#DejaVuSans-103"/>
     <use x="160.742188" xlink:href="#DejaVuSans-104"/>
     <use x="224.121094" xlink:href="#DejaVuSans-116"/>
     <use x="263.330078" xlink:href="#DejaVuSans-32"/>
     <use x="295.117188" xlink:href="#DejaVuSans-72"/>
     <use x="370.3125" xlink:href="#DejaVuSans-97"/>
     <use x="431.591797" xlink:href="#DejaVuSans-110"/>
     <use x="494.970703" xlink:href="#DejaVuSans-100"/>
     <use x="558.447266" xlink:href="#DejaVuSans-95"/>
     <use x="608.447266" xlink:href="#DejaVuSans-50"/>
    </g>
   </g>
  </g>
  <g id="text_11">
   <!-- ONN4MST Layer-6 -->
   <defs>
    <path d="M 39.40625 66.21875 
Q 28.65625 66.21875 22.328125 58.203125 
Q 16.015625 50.203125 16.015625 36.375 
Q 16.015625 22.609375 22.328125 14.59375 
Q 28.65625 6.59375 39.40625 6.59375 
Q 50.140625 6.59375 56.421875 14.59375 
Q 62.703125 22.609375 62.703125 36.375 
Q 62.703125 50.203125 56.421875 58.203125 
Q 50.140625 66.21875 39.40625 66.21875 
z
M 39.40625 74.21875 
Q 54.734375 74.21875 63.90625 63.9375 
Q 73.09375 53.65625 73.09375 36.375 
Q 73.09375 19.140625 63.90625 8.859375 
Q 54.734375 -1.421875 39.40625 -1.421875 
Q 24.03125 -1.421875 14.8125 8.828125 
Q 5.609375 19.09375 5.609375 36.375 
Q 5.609375 53.65625 14.8125 63.9375 
Q 24.03125 74.21875 39.40625 74.21875 
z
" id="DejaVuSans-79"/>
    <path d="M 9.8125 72.90625 
L 23.09375 72.90625 
L 55.421875 11.921875 
L 55.421875 72.90625 
L 64.984375 72.90625 
L 64.984375 0 
L 51.703125 0 
L 19.390625 60.984375 
L 19.390625 0 
L 9.8125 0 
z
" id="DejaVuSans-78"/>
    <path d="M 37.796875 64.3125 
L 12.890625 25.390625 
L 37.796875 25.390625 
z
M 35.203125 72.90625 
L 47.609375 72.90625 
L 47.609375 25.390625 
L 58.015625 25.390625 
L 58.015625 17.1875 
L 47.609375 17.1875 
L 47.609375 0 
L 37.796875 0 
L 37.796875 17.1875 
L 4.890625 17.1875 
L 4.890625 26.703125 
z
" id="DejaVuSans-52"/>
    <path d="M -0.296875 72.90625 
L 61.375 72.90625 
L 61.375 64.59375 
L 35.5 64.59375 
L 35.5 0 
L 25.59375 0 
L 25.59375 64.59375 
L -0.296875 64.59375 
z
" id="DejaVuSans-84"/>
    <path d="M 32.171875 -5.078125 
Q 28.375 -14.84375 24.75 -17.8125 
Q 21.140625 -20.796875 15.09375 -20.796875 
L 7.90625 -20.796875 
L 7.90625 -13.28125 
L 13.1875 -13.28125 
Q 16.890625 -13.28125 18.9375 -11.515625 
Q 21 -9.765625 23.484375 -3.21875 
L 25.09375 0.875 
L 2.984375 54.6875 
L 12.5 54.6875 
L 29.59375 11.921875 
L 46.6875 54.6875 
L 56.203125 54.6875 
z
" id="DejaVuSans-121"/>
    <path d="M 4.890625 31.390625 
L 31.203125 31.390625 
L 31.203125 23.390625 
L 4.890625 23.390625 
z
" id="DejaVuSans-45"/>
    <path d="M 33.015625 40.375 
Q 26.375 40.375 22.484375 35.828125 
Q 18.609375 31.296875 18.609375 23.390625 
Q 18.609375 15.53125 22.484375 10.953125 
Q 26.375 6.390625 33.015625 6.390625 
Q 39.65625 6.390625 43.53125 10.953125 
Q 47.40625 15.53125 47.40625 23.390625 
Q 47.40625 31.296875 43.53125 35.828125 
Q 39.65625 40.375 33.015625 40.375 
z
M 52.59375 71.296875 
L 52.59375 62.3125 
Q 48.875 64.0625 45.09375 64.984375 
Q 41.3125 65.921875 37.59375 65.921875 
Q 27.828125 65.921875 22.671875 59.328125 
Q 17.53125 52.734375 16.796875 39.40625 
Q 19.671875 43.65625 24.015625 45.921875 
Q 28.375 48.1875 33.59375 48.1875 
Q 44.578125 48.1875 50.953125 41.515625 
Q 57.328125 34.859375 57.328125 23.390625 
Q 57.328125 12.15625 50.6875 5.359375 
Q 44.046875 -1.421875 33.015625 -1.421875 
Q 20.359375 -1.421875 13.671875 8.265625 
Q 6.984375 17.96875 6.984375 36.375 
Q 6.984375 53.65625 15.1875 63.9375 
Q 23.390625 74.21875 37.203125 74.21875 
Q 40.921875 74.21875 44.703125 73.484375 
Q 48.484375 72.75 52.59375 71.296875 
z
" id="DejaVuSans-54"/>
   </defs>
   <g style="fill:#262626;" transform="translate(726.714 13.82175)scale(0.144 -0.144)">
    <use xlink:href="#DejaVuSans-79"/>
    <use x="78.710938" xlink:href="#DejaVuSans-78"/>
    <use x="153.515625" xlink:href="#DejaVuSans-78"/>
    <use x="228.320312" xlink:href="#DejaVuSans-52"/>
    <use x="291.943359" xlink:href="#DejaVuSans-77"/>
    <use x="378.222656" xlink:href="#DejaVuSans-83"/>
    <use x="441.699219" xlink:href="#DejaVuSans-84"/>
    <use x="502.783203" xlink:href="#DejaVuSans-32"/>
    <use x="534.570312" xlink:href="#DejaVuSans-76"/>
    <use x="590.283203" xlink:href="#DejaVuSans-97"/>
    <use x="651.5625" xlink:href="#DejaVuSans-121"/>
    <use x="710.742188" xlink:href="#DejaVuSans-101"/>
    <use x="772.265625" xlink:href="#DejaVuSans-114"/>
    <use x="807.003906" xlink:href="#DejaVuSans-45"/>
    <use x="843.087891" xlink:href="#DejaVuSans-54"/>
   </g>
  </g>
  <g id="legend_1">
   <g id="patch_67">
    <path d="M 703.61 127.529531 
L 811.829844 127.529531 
Q 813.729844 127.529531 813.729844 125.629531 
L 813.729844 42.65 
Q 813.729844 40.75 811.829844 40.75 
L 703.61 40.75 
Q 701.71 40.75 701.71 42.65 
L 701.71 125.629531 
Q 701.71 127.529531 703.61 127.529531 
z
" style="fill:#ffffff;opacity:0.8;stroke:#ffffff;stroke-linejoin:miter;"/>
   </g>
   <g id="patch_68">
    <path d="M 705.51 51.768516 
L 724.51 51.768516 
L 724.51 45.118516 
L 705.51 45.118516 
z
" style="fill:#66c2a5;stroke:#ffffff;stroke-linejoin:miter;"/>
   </g>
   <g id="text_12">
    <!-- Unknown -->
    <defs>
     <path d="M 8.6875 72.90625 
L 18.609375 72.90625 
L 18.609375 28.609375 
Q 18.609375 16.890625 22.84375 11.734375 
Q 27.09375 6.59375 36.625 6.59375 
Q 46.09375 6.59375 50.34375 11.734375 
Q 54.59375 16.890625 54.59375 28.609375 
L 54.59375 72.90625 
L 64.5 72.90625 
L 64.5 27.390625 
Q 64.5 13.140625 57.4375 5.859375 
Q 50.390625 -1.421875 36.625 -1.421875 
Q 22.796875 -1.421875 15.734375 5.859375 
Q 8.6875 13.140625 8.6875 27.390625 
z
" id="DejaVuSans-85"/>
     <path d="M 9.078125 75.984375 
L 18.109375 75.984375 
L 18.109375 31.109375 
L 44.921875 54.6875 
L 56.390625 54.6875 
L 27.390625 29.109375 
L 57.625 0 
L 45.90625 0 
L 18.109375 26.703125 
L 18.109375 0 
L 9.078125 0 
z
" id="DejaVuSans-107"/>
     <path d="M 4.203125 54.6875 
L 13.1875 54.6875 
L 24.421875 12.015625 
L 35.59375 54.6875 
L 46.1875 54.6875 
L 57.421875 12.015625 
L 68.609375 54.6875 
L 77.59375 54.6875 
L 63.28125 0 
L 52.6875 0 
L 40.921875 44.828125 
L 29.109375 0 
L 18.5 0 
z
" id="DejaVuSans-119"/>
    </defs>
    <g style="fill:#262626;" transform="translate(732.11 51.768516)scale(0.095 -0.095)">
     <use xlink:href="#DejaVuSans-85"/>
     <use x="73.193359" xlink:href="#DejaVuSans-110"/>
     <use x="136.572266" xlink:href="#DejaVuSans-107"/>
     <use x="194.482422" xlink:href="#DejaVuSans-110"/>
     <use x="257.861328" xlink:href="#DejaVuSans-111"/>
     <use x="319.042969" xlink:href="#DejaVuSans-119"/>
     <use x="400.830078" xlink:href="#DejaVuSans-110"/>
    </g>
   </g>
   <g id="patch_69">
    <path d="M 705.51 65.712734 
L 724.51 65.712734 
L 724.51 59.062734 
L 705.51 59.062734 
z
" style="fill:#fc8d62;stroke:#ffffff;stroke-linejoin:miter;"/>
   </g>
   <g id="text_13">
    <!-- Photic_zone -->
    <defs>
     <path d="M 19.671875 64.796875 
L 19.671875 37.40625 
L 32.078125 37.40625 
Q 38.96875 37.40625 42.71875 40.96875 
Q 46.484375 44.53125 46.484375 51.125 
Q 46.484375 57.671875 42.71875 61.234375 
Q 38.96875 64.796875 32.078125 64.796875 
z
M 9.8125 72.90625 
L 32.078125 72.90625 
Q 44.34375 72.90625 50.609375 67.359375 
Q 56.890625 61.8125 56.890625 51.125 
Q 56.890625 40.328125 50.609375 34.8125 
Q 44.34375 29.296875 32.078125 29.296875 
L 19.671875 29.296875 
L 19.671875 0 
L 9.8125 0 
z
" id="DejaVuSans-80"/>
     <path d="M 48.78125 52.59375 
L 48.78125 44.1875 
Q 44.96875 46.296875 41.140625 47.34375 
Q 37.3125 48.390625 33.40625 48.390625 
Q 24.65625 48.390625 19.8125 42.84375 
Q 14.984375 37.3125 14.984375 27.296875 
Q 14.984375 17.28125 19.8125 11.734375 
Q 24.65625 6.203125 33.40625 6.203125 
Q 37.3125 6.203125 41.140625 7.25 
Q 44.96875 8.296875 48.78125 10.40625 
L 48.78125 2.09375 
Q 45.015625 0.34375 40.984375 -0.53125 
Q 36.96875 -1.421875 32.421875 -1.421875 
Q 20.0625 -1.421875 12.78125 6.34375 
Q 5.515625 14.109375 5.515625 27.296875 
Q 5.515625 40.671875 12.859375 48.328125 
Q 20.21875 56 33.015625 56 
Q 37.15625 56 41.109375 55.140625 
Q 45.0625 54.296875 48.78125 52.59375 
z
" id="DejaVuSans-99"/>
     <path d="M 5.515625 54.6875 
L 48.1875 54.6875 
L 48.1875 46.484375 
L 14.40625 7.171875 
L 48.1875 7.171875 
L 48.1875 0 
L 4.296875 0 
L 4.296875 8.203125 
L 38.09375 47.515625 
L 5.515625 47.515625 
z
" id="DejaVuSans-122"/>
    </defs>
    <g style="fill:#262626;" transform="translate(732.11 65.712734)scale(0.095 -0.095)">
     <use xlink:href="#DejaVuSans-80"/>
     <use x="60.302734" xlink:href="#DejaVuSans-104"/>
     <use x="123.681641" xlink:href="#DejaVuSans-111"/>
     <use x="184.863281" xlink:href="#DejaVuSans-116"/>
     <use x="224.072266" xlink:href="#DejaVuSans-105"/>
     <use x="251.855469" xlink:href="#DejaVuSans-99"/>
     <use x="306.835938" xlink:href="#DejaVuSans-95"/>
     <use x="356.835938" xlink:href="#DejaVuSans-122"/>
     <use x="409.326172" xlink:href="#DejaVuSans-111"/>
     <use x="470.507812" xlink:href="#DejaVuSans-110"/>
     <use x="533.886719" xlink:href="#DejaVuSans-101"/>
    </g>
   </g>
   <g id="patch_70">
    <path d="M 705.51 79.921172 
L 724.51 79.921172 
L 724.51 73.271172 
L 705.51 73.271172 
z
" style="fill:#8da0cb;stroke:#ffffff;stroke-linejoin:miter;"/>
   </g>
   <g id="text_14">
    <!-- Fecal(Human) -->
    <defs>
     <path d="M 31 75.875 
Q 24.46875 64.65625 21.28125 53.65625 
Q 18.109375 42.671875 18.109375 31.390625 
Q 18.109375 20.125 21.3125 9.0625 
Q 24.515625 -2 31 -13.1875 
L 23.1875 -13.1875 
Q 15.875 -1.703125 12.234375 9.375 
Q 8.59375 20.453125 8.59375 31.390625 
Q 8.59375 42.28125 12.203125 53.3125 
Q 15.828125 64.359375 23.1875 75.875 
z
" id="DejaVuSans-40"/>
     <path d="M 52 44.1875 
Q 55.375 50.25 60.0625 53.125 
Q 64.75 56 71.09375 56 
Q 79.640625 56 84.28125 50.015625 
Q 88.921875 44.046875 88.921875 33.015625 
L 88.921875 0 
L 79.890625 0 
L 79.890625 32.71875 
Q 79.890625 40.578125 77.09375 44.375 
Q 74.3125 48.1875 68.609375 48.1875 
Q 61.625 48.1875 57.5625 43.546875 
Q 53.515625 38.921875 53.515625 30.90625 
L 53.515625 0 
L 44.484375 0 
L 44.484375 32.71875 
Q 44.484375 40.625 41.703125 44.40625 
Q 38.921875 48.1875 33.109375 48.1875 
Q 26.21875 48.1875 22.15625 43.53125 
Q 18.109375 38.875 18.109375 30.90625 
L 18.109375 0 
L 9.078125 0 
L 9.078125 54.6875 
L 18.109375 54.6875 
L 18.109375 46.1875 
Q 21.1875 51.21875 25.484375 53.609375 
Q 29.78125 56 35.6875 56 
Q 41.65625 56 45.828125 52.96875 
Q 50 49.953125 52 44.1875 
z
" id="DejaVuSans-109"/>
     <path d="M 8.015625 75.875 
L 15.828125 75.875 
Q 23.140625 64.359375 26.78125 53.3125 
Q 30.421875 42.28125 30.421875 31.390625 
Q 30.421875 20.453125 26.78125 9.375 
Q 23.140625 -1.703125 15.828125 -13.1875 
L 8.015625 -13.1875 
Q 14.5 -2 17.703125 9.0625 
Q 20.90625 20.125 20.90625 31.390625 
Q 20.90625 42.671875 17.703125 53.65625 
Q 14.5 64.65625 8.015625 75.875 
z
" id="DejaVuSans-41"/>
    </defs>
    <g style="fill:#262626;" transform="translate(732.11 79.921172)scale(0.095 -0.095)">
     <use xlink:href="#DejaVuSans-70"/>
     <use x="52.019531" xlink:href="#DejaVuSans-101"/>
     <use x="113.542969" xlink:href="#DejaVuSans-99"/>
     <use x="168.523438" xlink:href="#DejaVuSans-97"/>
     <use x="229.802734" xlink:href="#DejaVuSans-108"/>
     <use x="257.585938" xlink:href="#DejaVuSans-40"/>
     <use x="296.599609" xlink:href="#DejaVuSans-72"/>
     <use x="371.794922" xlink:href="#DejaVuSans-117"/>
     <use x="435.173828" xlink:href="#DejaVuSans-109"/>
     <use x="532.585938" xlink:href="#DejaVuSans-97"/>
     <use x="593.865234" xlink:href="#DejaVuSans-110"/>
     <use x="657.244141" xlink:href="#DejaVuSans-41"/>
    </g>
   </g>
   <g id="patch_71">
    <path d="M 705.51 93.865391 
L 724.51 93.865391 
L 724.51 87.215391 
L 705.51 87.215391 
z
" style="fill:#e78ac3;stroke:#ffffff;stroke-linejoin:miter;"/>
   </g>
   <g id="text_15">
    <!-- Saliva(Human) -->
    <defs>
     <path d="M 2.984375 54.6875 
L 12.5 54.6875 
L 29.59375 8.796875 
L 46.6875 54.6875 
L 56.203125 54.6875 
L 35.6875 0 
L 23.484375 0 
z
" id="DejaVuSans-118"/>
    </defs>
    <g style="fill:#262626;" transform="translate(732.11 93.865391)scale(0.095 -0.095)">
     <use xlink:href="#DejaVuSans-83"/>
     <use x="63.476562" xlink:href="#DejaVuSans-97"/>
     <use x="124.755859" xlink:href="#DejaVuSans-108"/>
     <use x="152.539062" xlink:href="#DejaVuSans-105"/>
     <use x="180.322266" xlink:href="#DejaVuSans-118"/>
     <use x="239.501953" xlink:href="#DejaVuSans-97"/>
     <use x="300.78125" xlink:href="#DejaVuSans-40"/>
     <use x="339.794922" xlink:href="#DejaVuSans-72"/>
     <use x="414.990234" xlink:href="#DejaVuSans-117"/>
     <use x="478.369141" xlink:href="#DejaVuSans-109"/>
     <use x="575.78125" xlink:href="#DejaVuSans-97"/>
     <use x="637.060547" xlink:href="#DejaVuSans-110"/>
     <use x="700.439453" xlink:href="#DejaVuSans-41"/>
    </g>
   </g>
   <g id="patch_72">
    <path d="M 705.51 107.809609 
L 724.51 107.809609 
L 724.51 101.159609 
L 705.51 101.159609 
z
" style="fill:#a6d854;stroke:#ffffff;stroke-linejoin:miter;"/>
   </g>
   <g id="text_16">
    <!-- Fecal(Mammals) -->
    <defs>
     <path d="M 44.28125 53.078125 
L 44.28125 44.578125 
Q 40.484375 46.53125 36.375 47.5 
Q 32.28125 48.484375 27.875 48.484375 
Q 21.1875 48.484375 17.84375 46.4375 
Q 14.5 44.390625 14.5 40.28125 
Q 14.5 37.15625 16.890625 35.375 
Q 19.28125 33.59375 26.515625 31.984375 
L 29.59375 31.296875 
Q 39.15625 29.25 43.1875 25.515625 
Q 47.21875 21.78125 47.21875 15.09375 
Q 47.21875 7.46875 41.1875 3.015625 
Q 35.15625 -1.421875 24.609375 -1.421875 
Q 20.21875 -1.421875 15.453125 -0.5625 
Q 10.6875 0.296875 5.421875 2 
L 5.421875 11.28125 
Q 10.40625 8.6875 15.234375 7.390625 
Q 20.0625 6.109375 24.8125 6.109375 
Q 31.15625 6.109375 34.5625 8.28125 
Q 37.984375 10.453125 37.984375 14.40625 
Q 37.984375 18.0625 35.515625 20.015625 
Q 33.0625 21.96875 24.703125 23.78125 
L 21.578125 24.515625 
Q 13.234375 26.265625 9.515625 29.90625 
Q 5.8125 33.546875 5.8125 39.890625 
Q 5.8125 47.609375 11.28125 51.796875 
Q 16.75 56 26.8125 56 
Q 31.78125 56 36.171875 55.265625 
Q 40.578125 54.546875 44.28125 53.078125 
z
" id="DejaVuSans-115"/>
    </defs>
    <g style="fill:#262626;" transform="translate(732.11 107.809609)scale(0.095 -0.095)">
     <use xlink:href="#DejaVuSans-70"/>
     <use x="52.019531" xlink:href="#DejaVuSans-101"/>
     <use x="113.542969" xlink:href="#DejaVuSans-99"/>
     <use x="168.523438" xlink:href="#DejaVuSans-97"/>
     <use x="229.802734" xlink:href="#DejaVuSans-108"/>
     <use x="257.585938" xlink:href="#DejaVuSans-40"/>
     <use x="296.599609" xlink:href="#DejaVuSans-77"/>
     <use x="382.878906" xlink:href="#DejaVuSans-97"/>
     <use x="444.158203" xlink:href="#DejaVuSans-109"/>
     <use x="541.570312" xlink:href="#DejaVuSans-109"/>
     <use x="638.982422" xlink:href="#DejaVuSans-97"/>
     <use x="700.261719" xlink:href="#DejaVuSans-108"/>
     <use x="728.044922" xlink:href="#DejaVuSans-115"/>
     <use x="780.144531" xlink:href="#DejaVuSans-41"/>
    </g>
   </g>
   <g id="patch_73">
    <path d="M 705.51 121.753828 
L 724.51 121.753828 
L 724.51 115.103828 
L 705.51 115.103828 
z
" style="fill:#ffd92f;stroke:#ffffff;stroke-linejoin:miter;"/>
   </g>
   <g id="text_17">
    <!-- Others -->
    <g style="fill:#262626;" transform="translate(732.11 121.753828)scale(0.095 -0.095)">
     <use xlink:href="#DejaVuSans-79"/>
     <use x="78.710938" xlink:href="#DejaVuSans-116"/>
     <use x="117.919922" xlink:href="#DejaVuSans-104"/>
     <use x="181.298828" xlink:href="#DejaVuSans-101"/>
     <use x="242.822266" xlink:href="#DejaVuSans-114"/>
     <use x="283.935547" xlink:href="#DejaVuSans-115"/>
    </g>
   </g>
  </g>
 </g>
</svg>
