<?xml version="1.0" encoding="utf-8" standalone="no"?>
<!DOCTYPE svg PUBLIC "-//W3C//DTD SVG 1.1//EN"
  "http://www.w3.org/Graphics/SVG/1.1/DTD/svg11.dtd">
<!-- Created with matplotlib (https://matplotlib.org/) -->
<svg height="144pt" version="1.1" viewBox="0 0 1584 144" width="1584pt" xmlns="http://www.w3.org/2000/svg" xmlns:xlink="http://www.w3.org/1999/xlink">
 <defs>
  <style type="text/css">
*{stroke-linecap:butt;stroke-linejoin:round;}
  </style>
 </defs>
 <g id="figure_1">
  <g id="patch_1">
   <path d="M 0 144 
L 1584 144 
L 1584 0 
L 0 0 
z
" style="fill:#ffffff;"/>
  </g>
  <g id="axes_1">
   <g id="matplotlib.axis_1"/>
   <g id="matplotlib.axis_2"/>
   <g id="patch_2">
    <path d="M 121.836755 76.107692 
C 121.836755 76.09465 121.836749 76.081607 121.836738 76.068565 
C 121.836726 76.055523 121.836709 76.04248 121.836686 76.029438 
L 77.890909 76.107692 
L 121.836755 76.107692 
z
" style="fill:#66c2a5;stroke:#ffffff;stroke-linejoin:miter;"/>
   </g>
   <g id="patch_3">
    <path d="M 121.836686 76.029438 
C 121.81721 65.092294 117.715394 54.546865 110.339499 46.47112 
C 102.963603 38.395375 92.832158 33.357044 81.941557 32.348926 
C 71.050956 31.340808 60.166815 34.433775 51.433847 41.01836 
C 42.700878 47.602945 36.733016 57.216247 34.706222 67.963973 
L 77.890909 76.107692 
L 121.836686 76.029438 
z
" style="fill:#fc8d62;stroke:#ffffff;stroke-linejoin:miter;"/>
   </g>
   <g id="patch_4">
    <path d="M 34.706222 67.963973 
C 33.574371 73.965974 33.70613 80.138546 35.093069 86.086782 
C 36.480007 92.035018 39.091903 97.629301 42.761654 102.511723 
C 46.431405 107.394144 51.079043 111.458313 56.407225 114.444211 
C 61.735406 117.43011 67.628025 119.272675 73.708087 119.854022 
C 79.788148 120.43537 85.923162 119.742832 91.720625 117.820716 
C 97.518088 115.8986 102.85167 112.78879 107.380139 108.690245 
C 111.908608 104.591699 115.533287 99.593728 118.022277 94.016091 
C 120.511266 88.438454 121.81033 82.40269 121.836356 76.294955 
L 77.890909 76.107692 
L 34.706222 67.963973 
z
" style="fill:#8da0cb;stroke:#ffffff;stroke-linejoin:miter;"/>
   </g>
   <g id="patch_5">
    <path d="M 121.836356 76.294955 
C 121.836376 76.290353 121.836395 76.285751 121.836413 76.281149 
C 121.836431 76.276547 121.836449 76.271945 121.836465 76.267343 
L 77.890909 76.107692 
L 121.836356 76.294955 
z
" style="fill:#e78ac3;stroke:#ffffff;stroke-linejoin:miter;"/>
   </g>
   <g id="patch_6">
    <path d="M 121.836465 76.267343 
C 121.836492 76.259927 121.836517 76.252512 121.83654 76.245097 
C 121.836564 76.237681 121.836585 76.230266 121.836604 76.22285 
L 77.890909 76.107692 
L 121.836465 76.267343 
z
" style="fill:#a6d854;stroke:#ffffff;stroke-linejoin:miter;"/>
   </g>
   <g id="patch_7">
    <path d="M 121.836604 76.22285 
C 121.836616 76.218248 121.836628 76.213646 121.836638 76.209044 
C 121.836649 76.204442 121.836659 76.19984 121.836668 76.195238 
L 77.890909 76.107692 
L 121.836604 76.22285 
z
" style="fill:#ffd92f;stroke:#ffffff;stroke-linejoin:miter;"/>
   </g>
   <g id="text_1">
    <!-- Forehead_1 -->
    <defs>
     <path d="M 9.8125 72.90625 
L 51.703125 72.90625 
L 51.703125 64.59375 
L 19.671875 64.59375 
L 19.671875 43.109375 
L 48.578125 43.109375 
L 48.578125 34.8125 
L 19.671875 34.8125 
L 19.671875 0 
L 9.8125 0 
z
" id="DejaVuSans-70"/>
     <path d="M 30.609375 48.390625 
Q 23.390625 48.390625 19.1875 42.75 
Q 14.984375 37.109375 14.984375 27.296875 
Q 14.984375 17.484375 19.15625 11.84375 
Q 23.34375 6.203125 30.609375 6.203125 
Q 37.796875 6.203125 41.984375 11.859375 
Q 46.1875 17.53125 46.1875 27.296875 
Q 46.1875 37.015625 41.984375 42.703125 
Q 37.796875 48.390625 30.609375 48.390625 
z
M 30.609375 56 
Q 42.328125 56 49.015625 48.375 
Q 55.71875 40.765625 55.71875 27.296875 
Q 55.71875 13.875 49.015625 6.21875 
Q 42.328125 -1.421875 30.609375 -1.421875 
Q 18.84375 -1.421875 12.171875 6.21875 
Q 5.515625 13.875 5.515625 27.296875 
Q 5.515625 40.765625 12.171875 48.375 
Q 18.84375 56 30.609375 56 
z
" id="DejaVuSans-111"/>
     <path d="M 41.109375 46.296875 
Q 39.59375 47.171875 37.8125 47.578125 
Q 36.03125 48 33.890625 48 
Q 26.265625 48 22.1875 43.046875 
Q 18.109375 38.09375 18.109375 28.8125 
L 18.109375 0 
L 9.078125 0 
L 9.078125 54.6875 
L 18.109375 54.6875 
L 18.109375 46.1875 
Q 20.953125 51.171875 25.484375 53.578125 
Q 30.03125 56 36.53125 56 
Q 37.453125 56 38.578125 55.875 
Q 39.703125 55.765625 41.0625 55.515625 
z
" id="DejaVuSans-114"/>
     <path d="M 56.203125 29.59375 
L 56.203125 25.203125 
L 14.890625 25.203125 
Q 15.484375 15.921875 20.484375 11.0625 
Q 25.484375 6.203125 34.421875 6.203125 
Q 39.59375 6.203125 44.453125 7.46875 
Q 49.3125 8.734375 54.109375 11.28125 
L 54.109375 2.78125 
Q 49.265625 0.734375 44.1875 -0.34375 
Q 39.109375 -1.421875 33.890625 -1.421875 
Q 20.796875 -1.421875 13.15625 6.1875 
Q 5.515625 13.8125 5.515625 26.8125 
Q 5.515625 40.234375 12.765625 48.109375 
Q 20.015625 56 32.328125 56 
Q 43.359375 56 49.78125 48.890625 
Q 56.203125 41.796875 56.203125 29.59375 
z
M 47.21875 32.234375 
Q 47.125 39.59375 43.09375 43.984375 
Q 39.0625 48.390625 32.421875 48.390625 
Q 24.90625 48.390625 20.390625 44.140625 
Q 15.875 39.890625 15.1875 32.171875 
z
" id="DejaVuSans-101"/>
     <path d="M 54.890625 33.015625 
L 54.890625 0 
L 45.90625 0 
L 45.90625 32.71875 
Q 45.90625 40.484375 42.875 44.328125 
Q 39.84375 48.1875 33.796875 48.1875 
Q 26.515625 48.1875 22.3125 43.546875 
Q 18.109375 38.921875 18.109375 30.90625 
L 18.109375 0 
L 9.078125 0 
L 9.078125 75.984375 
L 18.109375 75.984375 
L 18.109375 46.1875 
Q 21.34375 51.125 25.703125 53.5625 
Q 30.078125 56 35.796875 56 
Q 45.21875 56 50.046875 50.171875 
Q 54.890625 44.34375 54.890625 33.015625 
z
" id="DejaVuSans-104"/>
     <path d="M 34.28125 27.484375 
Q 23.390625 27.484375 19.1875 25 
Q 14.984375 22.515625 14.984375 16.5 
Q 14.984375 11.71875 18.140625 8.90625 
Q 21.296875 6.109375 26.703125 6.109375 
Q 34.1875 6.109375 38.703125 11.40625 
Q 43.21875 16.703125 43.21875 25.484375 
L 43.21875 27.484375 
z
M 52.203125 31.203125 
L 52.203125 0 
L 43.21875 0 
L 43.21875 8.296875 
Q 40.140625 3.328125 35.546875 0.953125 
Q 30.953125 -1.421875 24.3125 -1.421875 
Q 15.921875 -1.421875 10.953125 3.296875 
Q 6 8.015625 6 15.921875 
Q 6 25.140625 12.171875 29.828125 
Q 18.359375 34.515625 30.609375 34.515625 
L 43.21875 34.515625 
L 43.21875 35.40625 
Q 43.21875 41.609375 39.140625 45 
Q 35.0625 48.390625 27.6875 48.390625 
Q 23 48.390625 18.546875 47.265625 
Q 14.109375 46.140625 10.015625 43.890625 
L 10.015625 52.203125 
Q 14.9375 54.109375 19.578125 55.046875 
Q 24.21875 56 28.609375 56 
Q 40.484375 56 46.34375 49.84375 
Q 52.203125 43.703125 52.203125 31.203125 
z
" id="DejaVuSans-97"/>
     <path d="M 45.40625 46.390625 
L 45.40625 75.984375 
L 54.390625 75.984375 
L 54.390625 0 
L 45.40625 0 
L 45.40625 8.203125 
Q 42.578125 3.328125 38.25 0.953125 
Q 33.9375 -1.421875 27.875 -1.421875 
Q 17.96875 -1.421875 11.734375 6.484375 
Q 5.515625 14.40625 5.515625 27.296875 
Q 5.515625 40.1875 11.734375 48.09375 
Q 17.96875 56 27.875 56 
Q 33.9375 56 38.25 53.625 
Q 42.578125 51.265625 45.40625 46.390625 
z
M 14.796875 27.296875 
Q 14.796875 17.390625 18.875 11.75 
Q 22.953125 6.109375 30.078125 6.109375 
Q 37.203125 6.109375 41.296875 11.75 
Q 45.40625 17.390625 45.40625 27.296875 
Q 45.40625 37.203125 41.296875 42.84375 
Q 37.203125 48.484375 30.078125 48.484375 
Q 22.953125 48.484375 18.875 42.84375 
Q 14.796875 37.203125 14.796875 27.296875 
z
" id="DejaVuSans-100"/>
     <path d="M 50.984375 -16.609375 
L 50.984375 -23.578125 
L -0.984375 -23.578125 
L -0.984375 -16.609375 
z
" id="DejaVuSans-95"/>
     <path d="M 12.40625 8.296875 
L 28.515625 8.296875 
L 28.515625 63.921875 
L 10.984375 60.40625 
L 10.984375 69.390625 
L 28.421875 72.90625 
L 38.28125 72.90625 
L 38.28125 8.296875 
L 54.390625 8.296875 
L 54.390625 0 
L 12.40625 0 
z
" id="DejaVuSans-49"/>
    </defs>
    <g style="fill:#262626;" transform="translate(43.164972 15.175385)scale(0.12 -0.12)">
     <use xlink:href="#DejaVuSans-70"/>
     <use x="53.894531" xlink:href="#DejaVuSans-111"/>
     <use x="115.076172" xlink:href="#DejaVuSans-114"/>
     <use x="153.939453" xlink:href="#DejaVuSans-101"/>
     <use x="215.462891" xlink:href="#DejaVuSans-104"/>
     <use x="278.841797" xlink:href="#DejaVuSans-101"/>
     <use x="340.365234" xlink:href="#DejaVuSans-97"/>
     <use x="401.644531" xlink:href="#DejaVuSans-100"/>
     <use x="465.121094" xlink:href="#DejaVuSans-95"/>
     <use x="515.121094" xlink:href="#DejaVuSans-49"/>
    </g>
   </g>
  </g>
  <g id="axes_2">
   <g id="matplotlib.axis_3"/>
   <g id="matplotlib.axis_4"/>
   <g id="patch_8">
    <path d="M 264.658573 76.107692 
C 264.658573 76.089759 264.658562 76.071826 264.65854 76.053892 
C 264.658519 76.035959 264.658486 76.018025 264.658442 76.000092 
L 220.712727 76.107692 
L 264.658573 76.107692 
z
" style="fill:#66c2a5;stroke:#ffffff;stroke-linejoin:miter;"/>
   </g>
   <g id="patch_9">
    <path d="M 264.658442 76.000092 
C 264.641048 68.896381 262.901467 61.901685 259.589263 55.617393 
C 256.277059 49.333102 251.48996 43.944633 245.639549 39.915277 
C 239.789139 35.885921 233.048034 33.334563 225.995822 32.480564 
C 218.943609 31.626566 211.788365 32.495123 205.145281 35.011561 
L 220.712727 76.107692 
L 264.658442 76.000092 
z
" style="fill:#fc8d62;stroke:#ffffff;stroke-linejoin:miter;"/>
   </g>
   <g id="patch_10">
    <path d="M 205.145281 35.011561 
C 197.664704 37.845246 191.09791 42.668362 186.156058 48.958585 
C 181.214206 55.248809 178.082371 62.770566 177.099718 70.709282 
C 176.117065 78.647997 177.320396 86.706361 180.579394 94.011684 
C 183.838391 101.317007 189.031005 107.595701 195.594895 112.167807 
C 202.158785 116.739914 209.84813 119.434205 217.830204 119.9589 
C 225.812278 120.483596 233.788147 118.819044 240.894058 115.145511 
C 247.999968 111.471978 253.969799 105.927038 258.15704 99.111188 
C 262.344282 92.295337 264.59212 84.463833 264.657122 76.464797 
L 220.712727 76.107692 
L 205.145281 35.011561 
z
" style="fill:#8da0cb;stroke:#ffffff;stroke-linejoin:miter;"/>
   </g>
   <g id="patch_11">
    <path d="M 264.657122 76.464797 
C 264.65716 76.460195 264.657197 76.455593 264.657233 76.450991 
C 264.657268 76.446389 264.657304 76.441788 264.657338 76.437186 
L 220.712727 76.107692 
L 264.657122 76.464797 
z
" style="fill:#e78ac3;stroke:#ffffff;stroke-linejoin:miter;"/>
   </g>
   <g id="patch_12">
    <path d="M 264.657338 76.437186 
C 264.657673 76.392591 264.657939 76.347995 264.658138 76.3034 
C 264.658336 76.258804 264.658467 76.214208 264.65853 76.169612 
L 220.712727 76.107692 
L 264.657338 76.437186 
z
" style="fill:#a6d854;stroke:#ffffff;stroke-linejoin:miter;"/>
   </g>
   <g id="patch_13">
    <path d="M 264.65853 76.169612 
C 264.658536 76.16501 264.658542 76.160408 264.658547 76.155806 
C 264.658552 76.151204 264.658556 76.146602 264.65856 76.142 
L 220.712727 76.107692 
L 264.65853 76.169612 
z
" style="fill:#ffd92f;stroke:#ffffff;stroke-linejoin:miter;"/>
   </g>
   <g id="text_2">
    <!-- Forehead_2 -->
    <defs>
     <path d="M 19.1875 8.296875 
L 53.609375 8.296875 
L 53.609375 0 
L 7.328125 0 
L 7.328125 8.296875 
Q 12.9375 14.109375 22.625 23.890625 
Q 32.328125 33.6875 34.8125 36.53125 
Q 39.546875 41.84375 41.421875 45.53125 
Q 43.3125 49.21875 43.3125 52.78125 
Q 43.3125 58.59375 39.234375 62.25 
Q 35.15625 65.921875 28.609375 65.921875 
Q 23.96875 65.921875 18.8125 64.3125 
Q 13.671875 62.703125 7.8125 59.421875 
L 7.8125 69.390625 
Q 13.765625 71.78125 18.9375 73 
Q 24.125 74.21875 28.421875 74.21875 
Q 39.75 74.21875 46.484375 68.546875 
Q 53.21875 62.890625 53.21875 53.421875 
Q 53.21875 48.921875 51.53125 44.890625 
Q 49.859375 40.875 45.40625 35.40625 
Q 44.1875 33.984375 37.640625 27.21875 
Q 31.109375 20.453125 19.1875 8.296875 
z
" id="DejaVuSans-50"/>
    </defs>
    <g style="fill:#262626;" transform="translate(185.98679 15.175385)scale(0.12 -0.12)">
     <use xlink:href="#DejaVuSans-70"/>
     <use x="53.894531" xlink:href="#DejaVuSans-111"/>
     <use x="115.076172" xlink:href="#DejaVuSans-114"/>
     <use x="153.939453" xlink:href="#DejaVuSans-101"/>
     <use x="215.462891" xlink:href="#DejaVuSans-104"/>
     <use x="278.841797" xlink:href="#DejaVuSans-101"/>
     <use x="340.365234" xlink:href="#DejaVuSans-97"/>
     <use x="401.644531" xlink:href="#DejaVuSans-100"/>
     <use x="465.121094" xlink:href="#DejaVuSans-95"/>
     <use x="515.121094" xlink:href="#DejaVuSans-50"/>
    </g>
   </g>
  </g>
  <g id="axes_3">
   <g id="matplotlib.axis_5"/>
   <g id="matplotlib.axis_6"/>
   <g id="patch_14">
    <path d="M 407.480392 76.107692 
C 407.480392 76.103092 407.480391 76.098491 407.480389 76.093891 
C 407.480388 76.08929 407.480386 76.08469 407.480383 76.080089 
L 363.534545 76.107692 
L 407.480392 76.107692 
z
" style="fill:#66c2a5;stroke:#ffffff;stroke-linejoin:miter;"/>
   </g>
   <g id="patch_15">
    <path d="M 407.480383 76.080089 
C 407.477274 71.130371 406.63794 66.216561 404.997875 61.546453 
C 403.35781 56.876345 400.940462 52.516708 397.848054 48.6519 
C 394.755647 44.787093 391.032392 41.47237 386.835739 38.847904 
C 382.639085 36.223439 378.029032 34.326752 373.200528 33.238051 
C 368.372024 32.149349 363.394102 31.884199 358.477267 32.453811 
C 353.560432 33.023424 348.774981 34.419656 344.323279 36.583464 
C 339.871576 38.747272 335.817269 41.64772 332.331803 45.162155 
C 328.846338 48.67659 325.979547 52.754766 323.852659 57.224226 
C 321.725772 61.693686 320.369197 66.49053 319.840301 71.411911 
C 319.311404 76.333292 319.617748 81.308848 320.746378 86.128176 
C 321.875007 90.947504 323.809786 95.5417 326.468898 99.716487 
C 329.12801 103.891274 332.473436 107.586965 336.363707 110.647277 
C 340.253979 113.70759 344.633474 116.088771 349.316997 117.690125 
C 354.000521 119.29148 358.921109 120.090113 363.870684 120.052253 
C 368.820259 120.014393 373.728054 119.140581 378.386533 117.467768 
C 383.045011 115.794955 387.387569 113.347059 391.23057 110.227593 
L 363.534545 76.107692 
L 407.480383 76.080089 
z
" style="fill:#fc8d62;stroke:#ffffff;stroke-linejoin:miter;"/>
   </g>
   <g id="patch_16">
    <path d="M 391.23057 110.227593 
C 396.295558 106.116209 400.382085 100.928124 403.192673 95.041005 
C 406.003261 89.153885 407.468017 82.714133 407.480314 76.190527 
L 363.534545 76.107692 
L 391.23057 110.227593 
z
" style="fill:#8da0cb;stroke:#ffffff;stroke-linejoin:miter;"/>
   </g>
   <g id="patch_17">
    <path d="M 407.480314 76.190527 
C 407.480322 76.185926 407.48033 76.181326 407.480337 76.176725 
C 407.480345 76.172125 407.480351 76.167525 407.480357 76.162924 
L 363.534545 76.107692 
L 407.480314 76.190527 
z
" style="fill:#e78ac3;stroke:#ffffff;stroke-linejoin:miter;"/>
   </g>
   <g id="patch_18">
    <path d="M 407.480357 76.162924 
C 407.480363 76.158324 407.480368 76.153723 407.480372 76.149123 
C 407.480376 76.144522 407.48038 76.139922 407.480383 76.135321 
L 363.534545 76.107692 
L 407.480357 76.162924 
z
" style="fill:#a6d854;stroke:#ffffff;stroke-linejoin:miter;"/>
   </g>
   <g id="patch_19">
    <path d="M 407.480383 76.135321 
C 407.480386 76.130721 407.480388 76.12612 407.480389 76.12152 
C 407.480391 76.116919 407.480392 76.112319 407.480392 76.107718 
L 363.534545 76.107692 
L 407.480383 76.135321 
z
" style="fill:#ffd92f;stroke:#ffffff;stroke-linejoin:miter;"/>
   </g>
   <g id="text_3">
    <!-- Mouth_1 -->
    <defs>
     <path d="M 9.8125 72.90625 
L 24.515625 72.90625 
L 43.109375 23.296875 
L 61.8125 72.90625 
L 76.515625 72.90625 
L 76.515625 0 
L 66.890625 0 
L 66.890625 64.015625 
L 48.09375 14.015625 
L 38.1875 14.015625 
L 19.390625 64.015625 
L 19.390625 0 
L 9.8125 0 
z
" id="DejaVuSans-77"/>
     <path d="M 8.5 21.578125 
L 8.5 54.6875 
L 17.484375 54.6875 
L 17.484375 21.921875 
Q 17.484375 14.15625 20.5 10.265625 
Q 23.53125 6.390625 29.59375 6.390625 
Q 36.859375 6.390625 41.078125 11.03125 
Q 45.3125 15.671875 45.3125 23.6875 
L 45.3125 54.6875 
L 54.296875 54.6875 
L 54.296875 0 
L 45.3125 0 
L 45.3125 8.40625 
Q 42.046875 3.421875 37.71875 1 
Q 33.40625 -1.421875 27.6875 -1.421875 
Q 18.265625 -1.421875 13.375 4.4375 
Q 8.5 10.296875 8.5 21.578125 
z
M 31.109375 56 
z
" id="DejaVuSans-117"/>
     <path d="M 18.3125 70.21875 
L 18.3125 54.6875 
L 36.8125 54.6875 
L 36.8125 47.703125 
L 18.3125 47.703125 
L 18.3125 18.015625 
Q 18.3125 11.328125 20.140625 9.421875 
Q 21.96875 7.515625 27.59375 7.515625 
L 36.8125 7.515625 
L 36.8125 0 
L 27.59375 0 
Q 17.1875 0 13.234375 3.875 
Q 9.28125 7.765625 9.28125 18.015625 
L 9.28125 47.703125 
L 2.6875 47.703125 
L 2.6875 54.6875 
L 9.28125 54.6875 
L 9.28125 70.21875 
z
" id="DejaVuSans-116"/>
    </defs>
    <g style="fill:#262626;" transform="translate(337.911733 15.175385)scale(0.12 -0.12)">
     <use xlink:href="#DejaVuSans-77"/>
     <use x="86.279297" xlink:href="#DejaVuSans-111"/>
     <use x="147.460938" xlink:href="#DejaVuSans-117"/>
     <use x="210.839844" xlink:href="#DejaVuSans-116"/>
     <use x="250.048828" xlink:href="#DejaVuSans-104"/>
     <use x="313.427734" xlink:href="#DejaVuSans-95"/>
     <use x="363.427734" xlink:href="#DejaVuSans-49"/>
    </g>
   </g>
  </g>
  <g id="axes_4">
   <g id="matplotlib.axis_7"/>
   <g id="matplotlib.axis_8"/>
   <g id="patch_20">
    <path d="M 550.30221 76.107692 
C 550.30221 76.103092 550.302209 76.098492 550.302208 76.093892 
C 550.302206 76.089292 550.302204 76.084692 550.302201 76.080091 
L 506.356364 76.107692 
L 550.30221 76.107692 
z
" style="fill:#66c2a5;stroke:#ffffff;stroke-linejoin:miter;"/>
   </g>
   <g id="patch_21">
    <path d="M 550.302201 76.080091 
C 550.29858 70.314402 549.160307 64.605388 546.952409 59.279191 
C 544.744512 53.952994 541.50985 49.113008 537.433211 45.035728 
C 533.356573 40.958449 528.517095 37.723026 523.191245 35.514292 
C 517.865395 33.305557 512.15656 32.166387 506.390871 32.16186 
C 500.625183 32.157332 494.914565 33.287535 489.585253 35.487903 
C 484.255941 37.688271 479.411388 40.91609 475.328352 44.986962 
C 471.245315 49.057834 468.003056 53.892734 465.786796 59.215457 
C 463.570537 64.53818 462.4233 70.2454 462.410624 76.011076 
C 462.397948 81.776753 463.520079 87.488962 465.712913 92.821378 
C 467.905747 98.153795 471.126715 103.002905 475.191813 107.091691 
C 479.25691 111.180476 484.087223 114.429566 489.406809 116.653345 
C 494.726394 118.877125 500.431987 120.032427 506.197639 120.053252 
C 511.963292 120.074076 517.677081 118.960019 523.012592 116.774724 
C 528.348102 114.589429 533.201759 111.375316 537.296286 107.316002 
C 541.390813 103.256687 544.646726 98.43097 546.878022 93.114533 
C 549.109317 87.798096 550.272682 82.094142 550.301655 76.328524 
L 506.356364 76.107692 
L 550.302201 76.080091 
z
" style="fill:#fc8d62;stroke:#ffffff;stroke-linejoin:miter;"/>
   </g>
   <g id="patch_22">
    <path d="M 550.301655 76.328524 
C 550.301747 76.310124 550.301828 76.291724 550.301898 76.273323 
C 550.301967 76.254923 550.302025 76.236522 550.302071 76.218121 
L 506.356364 76.107692 
L 550.301655 76.328524 
z
" style="fill:#8da0cb;stroke:#ffffff;stroke-linejoin:miter;"/>
   </g>
   <g id="patch_23">
    <path d="M 550.302071 76.218121 
C 550.302094 76.208921 550.302114 76.199721 550.302132 76.190521 
C 550.302149 76.18132 550.302164 76.17212 550.302175 76.16292 
L 506.356364 76.107692 
L 550.302071 76.218121 
z
" style="fill:#e78ac3;stroke:#ffffff;stroke-linejoin:miter;"/>
   </g>
   <g id="patch_24">
    <path d="M 550.302175 76.16292 
C 550.302181 76.158319 550.302186 76.153719 550.30219 76.149119 
C 550.302195 76.144519 550.302198 76.139919 550.302201 76.135319 
L 506.356364 76.107692 
L 550.302175 76.16292 
z
" style="fill:#a6d854;stroke:#ffffff;stroke-linejoin:miter;"/>
   </g>
   <g id="patch_25">
    <path d="M 550.302201 76.135319 
C 550.302204 76.130719 550.302206 76.126118 550.302208 76.121518 
C 550.302209 76.116918 550.30221 76.112318 550.30221 76.107718 
L 506.356364 76.107692 
L 550.302201 76.135319 
z
" style="fill:#ffd92f;stroke:#ffffff;stroke-linejoin:miter;"/>
   </g>
   <g id="text_4">
    <!-- Mouth_2 -->
    <g style="fill:#262626;" transform="translate(480.733551 15.175385)scale(0.12 -0.12)">
     <use xlink:href="#DejaVuSans-77"/>
     <use x="86.279297" xlink:href="#DejaVuSans-111"/>
     <use x="147.460938" xlink:href="#DejaVuSans-117"/>
     <use x="210.839844" xlink:href="#DejaVuSans-116"/>
     <use x="250.048828" xlink:href="#DejaVuSans-104"/>
     <use x="313.427734" xlink:href="#DejaVuSans-95"/>
     <use x="363.427734" xlink:href="#DejaVuSans-50"/>
    </g>
   </g>
  </g>
  <g id="axes_5">
   <g id="matplotlib.axis_9"/>
   <g id="matplotlib.axis_10"/>
   <g id="patch_26">
    <path d="M 693.124028 76.107692 
C 693.124028 76.103113 693.124027 76.098534 693.124026 76.093955 
C 693.124024 76.089376 693.124022 76.084797 693.124019 76.080218 
L 649.178182 76.107692 
L 693.124028 76.107692 
z
" style="fill:#66c2a5;stroke:#ffffff;stroke-linejoin:miter;"/>
   </g>
   <g id="patch_27">
    <path d="M 693.124019 76.080218 
C 693.120458 70.383262 692.009135 64.740981 689.852059 59.468188 
C 687.694983 54.195396 684.533032 49.392018 680.542629 45.326061 
C 676.552227 41.260104 671.808995 38.008624 666.577585 35.753037 
C 661.346175 33.497451 655.725729 32.280505 650.029842 32.170099 
C 644.333955 32.059694 638.670571 33.057921 633.355682 35.109084 
C 628.040793 37.160247 623.175121 40.225475 619.030151 44.13374 
C 614.885181 48.042005 611.539463 52.719243 609.179675 57.904483 
C 606.819886 63.089723 605.490748 68.6847 605.266419 74.377239 
C 605.04209 80.069777 605.926822 85.751997 607.871252 91.106856 
C 609.815681 96.461715 612.782958 101.387732 616.607522 105.610057 
C 620.432086 109.832382 625.041457 113.270997 630.178452 115.734043 
C 635.315447 118.197089 640.882716 119.637888 646.569627 119.97605 
C 652.256539 120.314213 657.955321 119.543329 663.348006 117.706412 
C 668.740691 115.869495 673.725082 113.001356 678.023072 109.262024 
C 682.321061 105.522693 685.851198 100.983033 688.416516 95.896338 
C 690.981834 90.809644 692.533717 85.272313 692.985577 79.593304 
L 649.178182 76.107692 
L 693.124019 76.080218 
z
" style="fill:#fc8d62;stroke:#ffffff;stroke-linejoin:miter;"/>
   </g>
   <g id="patch_28">
    <path d="M 692.985577 79.593304 
C 692.985941 79.588739 692.986303 79.584175 692.986665 79.57961 
C 692.987027 79.575045 692.987388 79.57048 692.987748 79.565915 
L 649.178182 76.107692 
L 692.985577 79.593304 
z
" style="fill:#8da0cb;stroke:#ffffff;stroke-linejoin:miter;"/>
   </g>
   <g id="patch_29">
    <path d="M 692.987748 79.565915 
C 692.996396 79.456358 693.004633 79.346768 693.01246 79.237148 
C 693.020286 79.127529 693.0277 79.01788 693.034704 78.908205 
L 649.178182 76.107692 
L 692.987748 79.565915 
z
" style="fill:#e78ac3;stroke:#ffffff;stroke-linejoin:miter;"/>
   </g>
   <g id="patch_30">
    <path d="M 693.034704 78.908205 
C 693.034996 78.903635 693.035287 78.899065 693.035577 78.894495 
C 693.035868 78.889925 693.036157 78.885355 693.036446 78.880785 
L 649.178182 76.107692 
L 693.034704 78.908205 
z
" style="fill:#a6d854;stroke:#ffffff;stroke-linejoin:miter;"/>
   </g>
   <g id="patch_31">
    <path d="M 693.036446 78.880785 
C 693.065631 78.419208 693.087527 77.957199 693.102127 77.494931 
C 693.116727 77.032662 693.124028 76.570192 693.124028 76.107693 
L 649.178182 76.107692 
L 693.036446 78.880785 
z
" style="fill:#ffd92f;stroke:#ffffff;stroke-linejoin:miter;"/>
   </g>
   <g id="text_5">
    <!-- Stool_1 -->
    <defs>
     <path d="M 53.515625 70.515625 
L 53.515625 60.890625 
Q 47.90625 63.578125 42.921875 64.890625 
Q 37.9375 66.21875 33.296875 66.21875 
Q 25.25 66.21875 20.875 63.09375 
Q 16.5 59.96875 16.5 54.203125 
Q 16.5 49.359375 19.40625 46.890625 
Q 22.3125 44.4375 30.421875 42.921875 
L 36.375 41.703125 
Q 47.40625 39.59375 52.65625 34.296875 
Q 57.90625 29 57.90625 20.125 
Q 57.90625 9.515625 50.796875 4.046875 
Q 43.703125 -1.421875 29.984375 -1.421875 
Q 24.8125 -1.421875 18.96875 -0.25 
Q 13.140625 0.921875 6.890625 3.21875 
L 6.890625 13.375 
Q 12.890625 10.015625 18.65625 8.296875 
Q 24.421875 6.59375 29.984375 6.59375 
Q 38.421875 6.59375 43.015625 9.90625 
Q 47.609375 13.234375 47.609375 19.390625 
Q 47.609375 24.75 44.3125 27.78125 
Q 41.015625 30.8125 33.5 32.328125 
L 27.484375 33.5 
Q 16.453125 35.6875 11.515625 40.375 
Q 6.59375 45.0625 6.59375 53.421875 
Q 6.59375 63.09375 13.40625 68.65625 
Q 20.21875 74.21875 32.171875 74.21875 
Q 37.3125 74.21875 42.625 73.28125 
Q 47.953125 72.359375 53.515625 70.515625 
z
" id="DejaVuSans-83"/>
     <path d="M 9.421875 75.984375 
L 18.40625 75.984375 
L 18.40625 0 
L 9.421875 0 
z
" id="DejaVuSans-108"/>
    </defs>
    <g style="fill:#262626;" transform="translate(627.190057 15.175385)scale(0.12 -0.12)">
     <use xlink:href="#DejaVuSans-83"/>
     <use x="63.476562" xlink:href="#DejaVuSans-116"/>
     <use x="102.685547" xlink:href="#DejaVuSans-111"/>
     <use x="163.867188" xlink:href="#DejaVuSans-111"/>
     <use x="225.048828" xlink:href="#DejaVuSans-108"/>
     <use x="252.832031" xlink:href="#DejaVuSans-95"/>
     <use x="302.832031" xlink:href="#DejaVuSans-49"/>
    </g>
   </g>
  </g>
  <g id="axes_6">
   <g id="patch_32">
    <path d="M 727.069091 131.04 
L 856.930909 131.04 
L 856.930909 21.175385 
L 727.069091 21.175385 
z
" style="fill:#ffffff;"/>
   </g>
   <g id="matplotlib.axis_11"/>
   <g id="matplotlib.axis_12"/>
   <g id="patch_33">
    <path d="M 727.069091 131.04 
L 727.069091 21.175385 
" style="fill:none;stroke:#ffffff;stroke-linecap:square;stroke-linejoin:miter;stroke-width:1.25;"/>
   </g>
   <g id="patch_34">
    <path d="M 856.930909 131.04 
L 856.930909 21.175385 
" style="fill:none;stroke:#ffffff;stroke-linecap:square;stroke-linejoin:miter;stroke-width:1.25;"/>
   </g>
   <g id="patch_35">
    <path d="M 727.069091 131.04 
L 856.930909 131.04 
" style="fill:none;stroke:#ffffff;stroke-linecap:square;stroke-linejoin:miter;stroke-width:1.25;"/>
   </g>
   <g id="patch_36">
    <path d="M 727.069091 21.175385 
L 856.930909 21.175385 
" style="fill:none;stroke:#ffffff;stroke-linecap:square;stroke-linejoin:miter;stroke-width:1.25;"/>
   </g>
  </g>
  <g id="axes_7">
   <g id="matplotlib.axis_13"/>
   <g id="matplotlib.axis_14"/>
   <g id="patch_37">
    <path d="M 978.767664 76.107692 
C 978.767664 67.476646 976.224934 59.033901 971.458401 51.838408 
C 966.691869 44.642915 959.909513 39.008637 951.962029 35.642268 
C 944.014544 32.275899 935.248705 31.324324 926.763988 32.906896 
C 918.279271 34.489469 910.445893 38.537137 904.246374 44.542211 
L 934.821818 76.107692 
L 978.767664 76.107692 
z
" style="fill:#66c2a5;stroke:#ffffff;stroke-linejoin:miter;"/>
   </g>
   <g id="patch_38">
    <path d="M 904.246374 44.542211 
C 896.508065 52.037811 891.789935 62.12342 890.99559 72.867464 
C 890.201244 83.611507 893.384853 94.28132 899.936696 102.833442 
C 906.48854 111.385564 915.961832 117.236803 926.542267 119.266543 
C 937.122702 121.296284 948.088772 119.366111 957.340279 113.845688 
L 934.821818 76.107692 
L 904.246374 44.542211 
z
" style="fill:#fc8d62;stroke:#ffffff;stroke-linejoin:miter;"/>
   </g>
   <g id="patch_39">
    <path d="M 957.340279 113.845688 
C 957.358003 113.835112 957.37572 113.824523 957.393429 113.813922 
C 957.411138 113.803321 957.42884 113.792708 957.446534 113.782082 
L 934.821818 76.107692 
L 957.340279 113.845688 
z
" style="fill:#8da0cb;stroke:#ffffff;stroke-linejoin:miter;"/>
   </g>
   <g id="patch_40">
    <path d="M 957.446534 113.782082 
C 959.173211 112.745156 960.82656 111.59075 962.394887 110.327033 
C 963.963213 109.063316 965.442808 107.693274 966.823205 106.226601 
L 934.821818 76.107692 
L 957.446534 113.782082 
z
" style="fill:#e78ac3;stroke:#ffffff;stroke-linejoin:miter;"/>
   </g>
   <g id="patch_41">
    <path d="M 966.823205 106.226601 
C 970.604781 102.20867 973.596044 97.514254 975.640279 92.389297 
C 977.684514 87.26434 978.745387 81.799933 978.767317 76.282361 
L 934.821818 76.107692 
L 966.823205 106.226601 
z
" style="fill:#a6d854;stroke:#ffffff;stroke-linejoin:miter;"/>
   </g>
   <g id="patch_42">
    <path d="M 978.767317 76.282361 
C 978.767336 76.277759 978.767353 76.273157 978.76737 76.268555 
C 978.767387 76.263953 978.767403 76.259351 978.767418 76.254749 
L 934.821818 76.107692 
L 978.767317 76.282361 
z
" style="fill:#ffd92f;stroke:#ffffff;stroke-linejoin:miter;"/>
   </g>
   <g id="text_6">
    <!-- Stool_2 -->
    <g style="fill:#262626;" transform="translate(912.833693 20.668615)scale(0.12 -0.12)">
     <use xlink:href="#DejaVuSans-83"/>
     <use x="63.476562" xlink:href="#DejaVuSans-116"/>
     <use x="102.685547" xlink:href="#DejaVuSans-111"/>
     <use x="163.867188" xlink:href="#DejaVuSans-111"/>
     <use x="225.048828" xlink:href="#DejaVuSans-108"/>
     <use x="252.832031" xlink:href="#DejaVuSans-95"/>
     <use x="302.832031" xlink:href="#DejaVuSans-50"/>
    </g>
   </g>
  </g>
  <g id="axes_8">
   <g id="matplotlib.axis_15"/>
   <g id="matplotlib.axis_16"/>
   <g id="patch_43">
    <path d="M 1121.589483 76.107692 
C 1121.589483 75.903113 1121.588054 75.698537 1121.585197 75.493978 
C 1121.58234 75.289418 1121.578055 75.084882 1121.572341 74.880383 
L 1077.643636 76.107692 
L 1121.589483 76.107692 
z
" style="fill:#66c2a5;stroke:#ffffff;stroke-linejoin:miter;"/>
   </g>
   <g id="patch_44">
    <path d="M 1121.572341 74.880383 
C 1121.357868 67.2038 1119.134859 59.715873 1115.125748 53.165838 
C 1111.116638 46.615804 1105.459755 41.229664 1098.721124 37.546353 
C 1091.982494 33.863042 1084.394625 32.009649 1076.716755 32.171622 
C 1069.038885 32.333595 1061.535931 34.505347 1054.958634 38.469572 
C 1048.381337 42.433798 1042.95664 48.053716 1039.227334 54.767001 
C 1035.498028 61.480286 1033.592789 69.055304 1033.702255 76.734101 
C 1033.81172 84.412899 1035.932113 91.930529 1039.851268 98.534781 
C 1043.770423 105.139033 1049.353114 110.602035 1056.04074 114.377161 
L 1077.643636 76.107692 
L 1121.572341 74.880383 
z
" style="fill:#fc8d62;stroke:#ffffff;stroke-linejoin:miter;"/>
   </g>
   <g id="patch_45">
    <path d="M 1056.04074 114.377161 
C 1062.282345 117.900511 1069.292173 119.843971 1076.45696 120.037514 
C 1083.621747 120.231056 1090.726274 118.668867 1097.14899 115.487619 
C 1103.571706 112.30637 1109.119684 107.601619 1113.30755 101.784971 
C 1117.495417 95.968322 1120.197375 89.214497 1121.177041 82.114364 
L 1077.643636 76.107692 
L 1056.04074 114.377161 
z
" style="fill:#8da0cb;stroke:#ffffff;stroke-linejoin:miter;"/>
   </g>
   <g id="patch_46">
    <path d="M 1121.177041 82.114364 
C 1121.17767 82.109806 1121.178298 82.105247 1121.178925 82.100688 
C 1121.179553 82.096129 1121.18018 82.09157 1121.180806 82.08701 
L 1077.643636 76.107692 
L 1121.177041 82.114364 
z
" style="fill:#e78ac3;stroke:#ffffff;stroke-linejoin:miter;"/>
   </g>
   <g id="patch_47">
    <path d="M 1121.180806 82.08701 
C 1121.187369 82.039226 1121.193853 81.99143 1121.200258 81.943624 
C 1121.206663 81.895818 1121.21299 81.848002 1121.219238 81.800175 
L 1077.643636 76.107692 
L 1121.180806 82.08701 
z
" style="fill:#a6d854;stroke:#ffffff;stroke-linejoin:miter;"/>
   </g>
   <g id="patch_48">
    <path d="M 1121.219238 81.800175 
C 1121.339067 80.88289 1121.429902 79.962051 1121.491608 79.039033 
C 1121.553314 78.116015 1121.58586 77.191278 1121.589197 76.266206 
L 1077.643636 76.107692 
L 1121.219238 81.800175 
z
" style="fill:#ffd92f;stroke:#ffffff;stroke-linejoin:miter;"/>
   </g>
   <g id="text_7">
    <!-- Left Hand_1 -->
    <defs>
     <path d="M 9.8125 72.90625 
L 19.671875 72.90625 
L 19.671875 8.296875 
L 55.171875 8.296875 
L 55.171875 0 
L 9.8125 0 
z
" id="DejaVuSans-76"/>
     <path d="M 37.109375 75.984375 
L 37.109375 68.5 
L 28.515625 68.5 
Q 23.6875 68.5 21.796875 66.546875 
Q 19.921875 64.59375 19.921875 59.515625 
L 19.921875 54.6875 
L 34.71875 54.6875 
L 34.71875 47.703125 
L 19.921875 47.703125 
L 19.921875 0 
L 10.890625 0 
L 10.890625 47.703125 
L 2.296875 47.703125 
L 2.296875 54.6875 
L 10.890625 54.6875 
L 10.890625 58.5 
Q 10.890625 67.625 15.140625 71.796875 
Q 19.390625 75.984375 28.609375 75.984375 
z
" id="DejaVuSans-102"/>
     <path id="DejaVuSans-32"/>
     <path d="M 9.8125 72.90625 
L 19.671875 72.90625 
L 19.671875 43.015625 
L 55.515625 43.015625 
L 55.515625 72.90625 
L 65.375 72.90625 
L 65.375 0 
L 55.515625 0 
L 55.515625 34.71875 
L 19.671875 34.71875 
L 19.671875 0 
L 9.8125 0 
z
" id="DejaVuSans-72"/>
     <path d="M 54.890625 33.015625 
L 54.890625 0 
L 45.90625 0 
L 45.90625 32.71875 
Q 45.90625 40.484375 42.875 44.328125 
Q 39.84375 48.1875 33.796875 48.1875 
Q 26.515625 48.1875 22.3125 43.546875 
Q 18.109375 38.921875 18.109375 30.90625 
L 18.109375 0 
L 9.078125 0 
L 9.078125 54.6875 
L 18.109375 54.6875 
L 18.109375 46.1875 
Q 21.34375 51.125 25.703125 53.5625 
Q 30.078125 56 35.796875 56 
Q 45.21875 56 50.046875 50.171875 
Q 54.890625 44.34375 54.890625 33.015625 
z
" id="DejaVuSans-110"/>
    </defs>
    <g style="fill:#262626;" transform="translate(1041.829261 20.668615)scale(0.12 -0.12)">
     <use xlink:href="#DejaVuSans-76"/>
     <use x="53.962891" xlink:href="#DejaVuSans-101"/>
     <use x="115.486328" xlink:href="#DejaVuSans-102"/>
     <use x="148.941406" xlink:href="#DejaVuSans-116"/>
     <use x="188.150391" xlink:href="#DejaVuSans-32"/>
     <use x="219.9375" xlink:href="#DejaVuSans-72"/>
     <use x="295.132812" xlink:href="#DejaVuSans-97"/>
     <use x="356.412109" xlink:href="#DejaVuSans-110"/>
     <use x="419.791016" xlink:href="#DejaVuSans-100"/>
     <use x="483.267578" xlink:href="#DejaVuSans-95"/>
     <use x="533.267578" xlink:href="#DejaVuSans-49"/>
    </g>
   </g>
  </g>
  <g id="axes_9">
   <g id="matplotlib.axis_17"/>
   <g id="matplotlib.axis_18"/>
   <g id="patch_49">
    <path d="M 1264.411301 76.107692 
C 1264.411301 76.103093 1264.4113 76.098494 1264.411299 76.093895 
C 1264.411297 76.089295 1264.411295 76.084696 1264.411292 76.080097 
L 1220.465455 76.107692 
L 1264.411301 76.107692 
z
" style="fill:#66c2a5;stroke:#ffffff;stroke-linejoin:miter;"/>
   </g>
   <g id="patch_50">
    <path d="M 1264.411292 76.080097 
C 1264.407675 70.319628 1263.27146 64.61568 1261.06744 59.293527 
C 1258.863421 53.971374 1255.634305 49.134143 1251.564235 45.05768 
C 1247.494165 40.981218 1242.662007 37.744514 1237.343319 35.532145 
C 1232.024632 33.319775 1226.322475 32.17461 1220.562018 32.161952 
C 1214.801562 32.149295 1209.094427 33.26939 1203.766069 35.458364 
C 1198.43771 37.647338 1193.591374 40.862775 1189.503429 44.921311 
C 1185.415484 48.979848 1182.165141 53.802842 1179.937753 59.115258 
C 1177.710366 64.427673 1176.549095 70.126573 1176.520163 75.88697 
C 1176.49123 81.647367 1177.595197 87.357644 1179.769108 92.692166 
C 1181.943019 98.026688 1185.144751 102.882089 1189.191722 106.981484 
C 1193.238692 111.08088 1198.052484 114.344836 1203.358586 116.587223 
C 1208.664687 118.829611 1214.360283 120.006978 1220.120575 120.052185 
C 1225.880868 120.097392 1231.594241 119.009563 1236.934884 116.850732 
C 1242.275526 114.691901 1247.139953 111.5039 1251.250766 107.468527 
C 1255.361579 103.433155 1258.639123 98.628604 1260.896492 93.328859 
C 1263.153862 88.029114 1264.347316 82.336867 1264.408798 76.576725 
L 1220.465455 76.107692 
L 1264.411292 76.080097 
z
" style="fill:#fc8d62;stroke:#ffffff;stroke-linejoin:miter;"/>
   </g>
   <g id="patch_51">
    <path d="M 1264.408798 76.576725 
C 1264.409288 76.530748 1264.409707 76.48477 1264.410053 76.438791 
C 1264.4104 76.392813 1264.410674 76.346833 1264.410876 76.300854 
L 1220.465455 76.107692 
L 1264.408798 76.576725 
z
" style="fill:#8da0cb;stroke:#ffffff;stroke-linejoin:miter;"/>
   </g>
   <g id="patch_52">
    <path d="M 1264.410876 76.300854 
C 1264.410977 76.277863 1264.41106 76.254873 1264.411125 76.231882 
C 1264.41119 76.208892 1264.411237 76.185901 1264.411266 76.16291 
L 1220.465455 76.107692 
L 1264.410876 76.300854 
z
" style="fill:#e78ac3;stroke:#ffffff;stroke-linejoin:miter;"/>
   </g>
   <g id="patch_53">
    <path d="M 1264.411266 76.16291 
C 1264.411272 76.158311 1264.411277 76.153712 1264.411281 76.149113 
C 1264.411286 76.144514 1264.411289 76.139914 1264.411292 76.135315 
L 1220.465455 76.107692 
L 1264.411266 76.16291 
z
" style="fill:#a6d854;stroke:#ffffff;stroke-linejoin:miter;"/>
   </g>
   <g id="patch_54">
    <path d="M 1264.411292 76.135315 
C 1264.411295 76.130716 1264.411297 76.126117 1264.411299 76.121517 
C 1264.4113 76.116918 1264.411301 76.112319 1264.411301 76.10772 
L 1220.465455 76.107692 
L 1264.411292 76.135315 
z
" style="fill:#ffd92f;stroke:#ffffff;stroke-linejoin:miter;"/>
   </g>
   <g id="text_8">
    <!-- Left Hand_2 -->
    <g style="fill:#262626;" transform="translate(1184.65108 20.668615)scale(0.12 -0.12)">
     <use xlink:href="#DejaVuSans-76"/>
     <use x="53.962891" xlink:href="#DejaVuSans-101"/>
     <use x="115.486328" xlink:href="#DejaVuSans-102"/>
     <use x="148.941406" xlink:href="#DejaVuSans-116"/>
     <use x="188.150391" xlink:href="#DejaVuSans-32"/>
     <use x="219.9375" xlink:href="#DejaVuSans-72"/>
     <use x="295.132812" xlink:href="#DejaVuSans-97"/>
     <use x="356.412109" xlink:href="#DejaVuSans-110"/>
     <use x="419.791016" xlink:href="#DejaVuSans-100"/>
     <use x="483.267578" xlink:href="#DejaVuSans-95"/>
     <use x="533.267578" xlink:href="#DejaVuSans-50"/>
    </g>
   </g>
  </g>
  <g id="axes_10">
   <g id="matplotlib.axis_19"/>
   <g id="matplotlib.axis_20"/>
   <g id="patch_55">
    <path d="M 1407.233119 76.107692 
C 1407.233119 76.103093 1407.233118 76.098493 1407.233117 76.093894 
C 1407.233115 76.089294 1407.233113 76.084695 1407.23311 76.080095 
L 1363.287273 76.107692 
L 1407.233119 76.107692 
z
" style="fill:#66c2a5;stroke:#ffffff;stroke-linejoin:miter;"/>
   </g>
   <g id="patch_56">
    <path d="M 1407.23311 76.080095 
C 1407.226729 65.919196 1403.696527 56.068394 1397.247637 48.216278 
C 1390.798748 40.364161 1381.821985 34.986582 1371.856113 33.005345 
C 1361.890241 31.024108 1351.539207 32.559279 1342.577351 37.347706 
C 1333.615494 42.136133 1326.585917 49.887628 1322.693604 59.273458 
L 1363.287273 76.107692 
L 1407.23311 76.080095 
z
" style="fill:#fc8d62;stroke:#ffffff;stroke-linejoin:miter;"/>
   </g>
   <g id="patch_57">
    <path d="M 1322.693604 59.273458 
C 1320.205828 65.27242 1319.078505 71.748928 1319.392978 78.23566 
C 1319.70745 84.722391 1321.455968 91.05948 1324.512365 96.789664 
C 1327.568762 102.519848 1331.857713 107.501907 1337.069742 111.376353 
C 1342.28177 115.250799 1348.288426 117.922146 1354.65629 119.197639 
C 1361.024154 120.473132 1367.59629 120.321337 1373.898475 118.753205 
C 1380.200661 117.185074 1386.077578 114.239254 1391.105169 110.128304 
C 1396.13276 106.017355 1400.18712 100.842592 1402.9757 94.977407 
C 1405.76428 89.112222 1407.218356 82.701163 1407.233007 76.20683 
L 1363.287273 76.107692 
L 1322.693604 59.273458 
z
" style="fill:#8da0cb;stroke:#ffffff;stroke-linejoin:miter;"/>
   </g>
   <g id="patch_58">
    <path d="M 1407.233007 76.20683 
C 1407.233017 76.202231 1407.233027 76.197631 1407.233036 76.193032 
C 1407.233045 76.188432 1407.233053 76.183833 1407.233061 76.179233 
L 1363.287273 76.107692 
L 1407.233007 76.20683 
z
" style="fill:#e78ac3;stroke:#ffffff;stroke-linejoin:miter;"/>
   </g>
   <g id="patch_59">
    <path d="M 1407.233061 76.179233 
C 1407.233073 76.17191 1407.233083 76.164587 1407.233091 76.157264 
C 1407.233099 76.149941 1407.233106 76.142618 1407.23311 76.135295 
L 1363.287273 76.107692 
L 1407.233061 76.179233 
z
" style="fill:#a6d854;stroke:#ffffff;stroke-linejoin:miter;"/>
   </g>
   <g id="patch_60">
    <path d="M 1407.23311 76.135295 
C 1407.233113 76.130695 1407.233115 76.126096 1407.233117 76.121496 
C 1407.233118 76.116897 1407.233119 76.112297 1407.233119 76.107698 
L 1363.287273 76.107692 
L 1407.23311 76.135295 
z
" style="fill:#ffd92f;stroke:#ffffff;stroke-linejoin:miter;"/>
   </g>
   <g id="text_9">
    <!-- Right Hand_1 -->
    <defs>
     <path d="M 44.390625 34.1875 
Q 47.5625 33.109375 50.5625 29.59375 
Q 53.5625 26.078125 56.59375 19.921875 
L 66.609375 0 
L 56 0 
L 46.6875 18.703125 
Q 43.0625 26.03125 39.671875 28.421875 
Q 36.28125 30.8125 30.421875 30.8125 
L 19.671875 30.8125 
L 19.671875 0 
L 9.8125 0 
L 9.8125 72.90625 
L 32.078125 72.90625 
Q 44.578125 72.90625 50.734375 67.671875 
Q 56.890625 62.453125 56.890625 51.90625 
Q 56.890625 45.015625 53.6875 40.46875 
Q 50.484375 35.9375 44.390625 34.1875 
z
M 19.671875 64.796875 
L 19.671875 38.921875 
L 32.078125 38.921875 
Q 39.203125 38.921875 42.84375 42.21875 
Q 46.484375 45.515625 46.484375 51.90625 
Q 46.484375 58.296875 42.84375 61.546875 
Q 39.203125 64.796875 32.078125 64.796875 
z
" id="DejaVuSans-82"/>
     <path d="M 9.421875 54.6875 
L 18.40625 54.6875 
L 18.40625 0 
L 9.421875 0 
z
M 9.421875 75.984375 
L 18.40625 75.984375 
L 18.40625 64.59375 
L 9.421875 64.59375 
z
" id="DejaVuSans-105"/>
     <path d="M 45.40625 27.984375 
Q 45.40625 37.75 41.375 43.109375 
Q 37.359375 48.484375 30.078125 48.484375 
Q 22.859375 48.484375 18.828125 43.109375 
Q 14.796875 37.75 14.796875 27.984375 
Q 14.796875 18.265625 18.828125 12.890625 
Q 22.859375 7.515625 30.078125 7.515625 
Q 37.359375 7.515625 41.375 12.890625 
Q 45.40625 18.265625 45.40625 27.984375 
z
M 54.390625 6.78125 
Q 54.390625 -7.171875 48.1875 -13.984375 
Q 42 -20.796875 29.203125 -20.796875 
Q 24.46875 -20.796875 20.265625 -20.09375 
Q 16.0625 -19.390625 12.109375 -17.921875 
L 12.109375 -9.1875 
Q 16.0625 -11.328125 19.921875 -12.34375 
Q 23.78125 -13.375 27.78125 -13.375 
Q 36.625 -13.375 41.015625 -8.765625 
Q 45.40625 -4.15625 45.40625 5.171875 
L 45.40625 9.625 
Q 42.625 4.78125 38.28125 2.390625 
Q 33.9375 0 27.875 0 
Q 17.828125 0 11.671875 7.65625 
Q 5.515625 15.328125 5.515625 27.984375 
Q 5.515625 40.671875 11.671875 48.328125 
Q 17.828125 56 27.875 56 
Q 33.9375 56 38.28125 53.609375 
Q 42.625 51.21875 45.40625 46.390625 
L 45.40625 54.6875 
L 54.390625 54.6875 
z
" id="DejaVuSans-103"/>
    </defs>
    <g style="fill:#262626;" transform="translate(1322.962585 20.668615)scale(0.12 -0.12)">
     <use xlink:href="#DejaVuSans-82"/>
     <use x="69.482422" xlink:href="#DejaVuSans-105"/>
     <use x="97.265625" xlink:href="#DejaVuSans-103"/>
     <use x="160.742188" xlink:href="#DejaVuSans-104"/>
     <use x="224.121094" xlink:href="#DejaVuSans-116"/>
     <use x="263.330078" xlink:href="#DejaVuSans-32"/>
     <use x="295.117188" xlink:href="#DejaVuSans-72"/>
     <use x="370.3125" xlink:href="#DejaVuSans-97"/>
     <use x="431.591797" xlink:href="#DejaVuSans-110"/>
     <use x="494.970703" xlink:href="#DejaVuSans-100"/>
     <use x="558.447266" xlink:href="#DejaVuSans-95"/>
     <use x="608.447266" xlink:href="#DejaVuSans-49"/>
    </g>
   </g>
  </g>
  <g id="axes_11">
   <g id="matplotlib.axis_21"/>
   <g id="matplotlib.axis_22"/>
   <g id="patch_61">
    <path d="M 1550.054937 76.107692 
C 1550.054937 76.103093 1550.054936 76.098493 1550.054935 76.093894 
C 1550.054933 76.089294 1550.054931 76.084695 1550.054928 76.080095 
L 1506.109091 76.107692 
L 1550.054937 76.107692 
z
" style="fill:#66c2a5;stroke:#ffffff;stroke-linejoin:miter;"/>
   </g>
   <g id="patch_62">
    <path d="M 1550.054928 76.080095 
C 1550.051035 69.880699 1548.735372 63.751719 1546.194606 58.096894 
C 1543.653841 52.44207 1539.945016 47.388359 1535.312448 43.268671 
C 1530.67988 39.148982 1525.227573 36.055807 1519.314696 34.192905 
C 1513.401818 32.330003 1507.161119 31.739199 1501.003699 32.459412 
C 1494.846279 33.179625 1488.910379 35.194684 1483.587021 38.37185 
C 1478.263663 41.549016 1473.672362 45.816958 1470.115566 50.894529 
C 1466.55877 55.9721 1464.116333 61.745303 1462.949148 67.833834 
C 1461.781963 73.922365 1461.916235 80.189529 1463.343118 86.222482 
L 1506.109091 76.107692 
L 1550.054928 76.080095 
z
" style="fill:#fc8d62;stroke:#ffffff;stroke-linejoin:miter;"/>
   </g>
   <g id="patch_63">
    <path d="M 1463.343118 86.222482 
C 1465.817732 96.685306 1472.047958 105.884713 1480.84517 112.065608 
C 1489.642381 118.246502 1500.40913 120.989116 1511.091295 119.770205 
C 1521.77346 118.551294 1531.645578 113.453638 1538.824209 105.449786 
C 1546.00284 97.445934 1550.000459 87.079456 1550.054384 76.328108 
L 1506.109091 76.107692 
L 1463.343118 86.222482 
z
" style="fill:#8da0cb;stroke:#ffffff;stroke-linejoin:miter;"/>
   </g>
   <g id="patch_64">
    <path d="M 1550.054384 76.328108 
C 1550.054407 76.323509 1550.05443 76.31891 1550.054451 76.31431 
C 1550.054473 76.309711 1550.054494 76.305111 1550.054514 76.300512 
L 1506.109091 76.107692 
L 1550.054384 76.328108 
z
" style="fill:#e78ac3;stroke:#ffffff;stroke-linejoin:miter;"/>
   </g>
   <g id="patch_65">
    <path d="M 1550.054514 76.300512 
C 1550.054635 76.272979 1550.05473 76.245447 1550.054799 76.217914 
C 1550.054868 76.190382 1550.054911 76.162849 1550.054928 76.135316 
L 1506.109091 76.107692 
L 1550.054514 76.300512 
z
" style="fill:#a6d854;stroke:#ffffff;stroke-linejoin:miter;"/>
   </g>
   <g id="patch_66">
    <path d="M 1550.054928 76.135316 
C 1550.054931 76.130717 1550.054933 76.126117 1550.054935 76.121518 
C 1550.054936 76.116918 1550.054937 76.112319 1550.054937 76.107719 
L 1506.109091 76.107692 
L 1550.054928 76.135316 
z
" style="fill:#ffd92f;stroke:#ffffff;stroke-linejoin:miter;"/>
   </g>
   <g id="text_10">
    <!-- Right Hand_2 -->
    <g style="fill:#262626;" transform="translate(1465.784403 20.668615)scale(0.12 -0.12)">
     <use xlink:href="#DejaVuSans-82"/>
     <use x="69.482422" xlink:href="#DejaVuSans-105"/>
     <use x="97.265625" xlink:href="#DejaVuSans-103"/>
     <use x="160.742188" xlink:href="#DejaVuSans-104"/>
     <use x="224.121094" xlink:href="#DejaVuSans-116"/>
     <use x="263.330078" xlink:href="#DejaVuSans-32"/>
     <use x="295.117188" xlink:href="#DejaVuSans-72"/>
     <use x="370.3125" xlink:href="#DejaVuSans-97"/>
     <use x="431.591797" xlink:href="#DejaVuSans-110"/>
     <use x="494.970703" xlink:href="#DejaVuSans-100"/>
     <use x="558.447266" xlink:href="#DejaVuSans-95"/>
     <use x="608.447266" xlink:href="#DejaVuSans-50"/>
    </g>
   </g>
  </g>
  <g id="text_11">
   <!-- ONN4MST Layer-4 -->
   <defs>
    <path d="M 39.40625 66.21875 
Q 28.65625 66.21875 22.328125 58.203125 
Q 16.015625 50.203125 16.015625 36.375 
Q 16.015625 22.609375 22.328125 14.59375 
Q 28.65625 6.59375 39.40625 6.59375 
Q 50.140625 6.59375 56.421875 14.59375 
Q 62.703125 22.609375 62.703125 36.375 
Q 62.703125 50.203125 56.421875 58.203125 
Q 50.140625 66.21875 39.40625 66.21875 
z
M 39.40625 74.21875 
Q 54.734375 74.21875 63.90625 63.9375 
Q 73.09375 53.65625 73.09375 36.375 
Q 73.09375 19.140625 63.90625 8.859375 
Q 54.734375 -1.421875 39.40625 -1.421875 
Q 24.03125 -1.421875 14.8125 8.828125 
Q 5.609375 19.09375 5.609375 36.375 
Q 5.609375 53.65625 14.8125 63.9375 
Q 24.03125 74.21875 39.40625 74.21875 
z
" id="DejaVuSans-79"/>
    <path d="M 9.8125 72.90625 
L 23.09375 72.90625 
L 55.421875 11.921875 
L 55.421875 72.90625 
L 64.984375 72.90625 
L 64.984375 0 
L 51.703125 0 
L 19.390625 60.984375 
L 19.390625 0 
L 9.8125 0 
z
" id="DejaVuSans-78"/>
    <path d="M 37.796875 64.3125 
L 12.890625 25.390625 
L 37.796875 25.390625 
z
M 35.203125 72.90625 
L 47.609375 72.90625 
L 47.609375 25.390625 
L 58.015625 25.390625 
L 58.015625 17.1875 
L 47.609375 17.1875 
L 47.609375 0 
L 37.796875 0 
L 37.796875 17.1875 
L 4.890625 17.1875 
L 4.890625 26.703125 
z
" id="DejaVuSans-52"/>
    <path d="M -0.296875 72.90625 
L 61.375 72.90625 
L 61.375 64.59375 
L 35.5 64.59375 
L 35.5 0 
L 25.59375 0 
L 25.59375 64.59375 
L -0.296875 64.59375 
z
" id="DejaVuSans-84"/>
    <path d="M 32.171875 -5.078125 
Q 28.375 -14.84375 24.75 -17.8125 
Q 21.140625 -20.796875 15.09375 -20.796875 
L 7.90625 -20.796875 
L 7.90625 -13.28125 
L 13.1875 -13.28125 
Q 16.890625 -13.28125 18.9375 -11.515625 
Q 21 -9.765625 23.484375 -3.21875 
L 25.09375 0.875 
L 2.984375 54.6875 
L 12.5 54.6875 
L 29.59375 11.921875 
L 46.6875 54.6875 
L 56.203125 54.6875 
z
" id="DejaVuSans-121"/>
    <path d="M 4.890625 31.390625 
L 31.203125 31.390625 
L 31.203125 23.390625 
L 4.890625 23.390625 
z
" id="DejaVuSans-45"/>
   </defs>
   <g style="fill:#262626;" transform="translate(726.714 13.82175)scale(0.144 -0.144)">
    <use xlink:href="#DejaVuSans-79"/>
    <use x="78.710938" xlink:href="#DejaVuSans-78"/>
    <use x="153.515625" xlink:href="#DejaVuSans-78"/>
    <use x="228.320312" xlink:href="#DejaVuSans-52"/>
    <use x="291.943359" xlink:href="#DejaVuSans-77"/>
    <use x="378.222656" xlink:href="#DejaVuSans-83"/>
    <use x="441.699219" xlink:href="#DejaVuSans-84"/>
    <use x="502.783203" xlink:href="#DejaVuSans-32"/>
    <use x="534.570312" xlink:href="#DejaVuSans-76"/>
    <use x="590.283203" xlink:href="#DejaVuSans-97"/>
    <use x="651.5625" xlink:href="#DejaVuSans-121"/>
    <use x="710.742188" xlink:href="#DejaVuSans-101"/>
    <use x="772.265625" xlink:href="#DejaVuSans-114"/>
    <use x="807.003906" xlink:href="#DejaVuSans-45"/>
    <use x="843.087891" xlink:href="#DejaVuSans-52"/>
   </g>
  </g>
  <g id="legend_1">
   <g id="patch_67">
    <path d="M 703.61 127.79375 
L 871.063828 127.79375 
Q 872.963828 127.79375 872.963828 125.89375 
L 872.963828 42.65 
Q 872.963828 40.75 871.063828 40.75 
L 703.61 40.75 
Q 701.71 40.75 701.71 42.65 
L 701.71 125.89375 
Q 701.71 127.79375 703.61 127.79375 
z
" style="fill:#ffffff;opacity:0.8;stroke:#ffffff;stroke-linejoin:miter;"/>
   </g>
   <g id="patch_68">
    <path d="M 705.51 51.768516 
L 724.51 51.768516 
L 724.51 45.118516 
L 705.51 45.118516 
z
" style="fill:#66c2a5;stroke:#ffffff;stroke-linejoin:miter;"/>
   </g>
   <g id="text_12">
    <!-- Soil -->
    <g style="fill:#262626;" transform="translate(732.11 51.768516)scale(0.095 -0.095)">
     <use xlink:href="#DejaVuSans-83"/>
     <use x="63.476562" xlink:href="#DejaVuSans-111"/>
     <use x="124.658203" xlink:href="#DejaVuSans-105"/>
     <use x="152.441406" xlink:href="#DejaVuSans-108"/>
    </g>
   </g>
   <g id="patch_69">
    <path d="M 705.51 65.712734 
L 724.51 65.712734 
L 724.51 59.062734 
L 705.51 59.062734 
z
" style="fill:#fc8d62;stroke:#ffffff;stroke-linejoin:miter;"/>
   </g>
   <g id="text_13">
    <!-- Digestive_system(Human) -->
    <defs>
     <path d="M 19.671875 64.796875 
L 19.671875 8.109375 
L 31.59375 8.109375 
Q 46.6875 8.109375 53.6875 14.9375 
Q 60.6875 21.78125 60.6875 36.53125 
Q 60.6875 51.171875 53.6875 57.984375 
Q 46.6875 64.796875 31.59375 64.796875 
z
M 9.8125 72.90625 
L 30.078125 72.90625 
Q 51.265625 72.90625 61.171875 64.09375 
Q 71.09375 55.28125 71.09375 36.53125 
Q 71.09375 17.671875 61.125 8.828125 
Q 51.171875 0 30.078125 0 
L 9.8125 0 
z
" id="DejaVuSans-68"/>
     <path d="M 44.28125 53.078125 
L 44.28125 44.578125 
Q 40.484375 46.53125 36.375 47.5 
Q 32.28125 48.484375 27.875 48.484375 
Q 21.1875 48.484375 17.84375 46.4375 
Q 14.5 44.390625 14.5 40.28125 
Q 14.5 37.15625 16.890625 35.375 
Q 19.28125 33.59375 26.515625 31.984375 
L 29.59375 31.296875 
Q 39.15625 29.25 43.1875 25.515625 
Q 47.21875 21.78125 47.21875 15.09375 
Q 47.21875 7.46875 41.1875 3.015625 
Q 35.15625 -1.421875 24.609375 -1.421875 
Q 20.21875 -1.421875 15.453125 -0.5625 
Q 10.6875 0.296875 5.421875 2 
L 5.421875 11.28125 
Q 10.40625 8.6875 15.234375 7.390625 
Q 20.0625 6.109375 24.8125 6.109375 
Q 31.15625 6.109375 34.5625 8.28125 
Q 37.984375 10.453125 37.984375 14.40625 
Q 37.984375 18.0625 35.515625 20.015625 
Q 33.0625 21.96875 24.703125 23.78125 
L 21.578125 24.515625 
Q 13.234375 26.265625 9.515625 29.90625 
Q 5.8125 33.546875 5.8125 39.890625 
Q 5.8125 47.609375 11.28125 51.796875 
Q 16.75 56 26.8125 56 
Q 31.78125 56 36.171875 55.265625 
Q 40.578125 54.546875 44.28125 53.078125 
z
" id="DejaVuSans-115"/>
     <path d="M 2.984375 54.6875 
L 12.5 54.6875 
L 29.59375 8.796875 
L 46.6875 54.6875 
L 56.203125 54.6875 
L 35.6875 0 
L 23.484375 0 
z
" id="DejaVuSans-118"/>
     <path d="M 52 44.1875 
Q 55.375 50.25 60.0625 53.125 
Q 64.75 56 71.09375 56 
Q 79.640625 56 84.28125 50.015625 
Q 88.921875 44.046875 88.921875 33.015625 
L 88.921875 0 
L 79.890625 0 
L 79.890625 32.71875 
Q 79.890625 40.578125 77.09375 44.375 
Q 74.3125 48.1875 68.609375 48.1875 
Q 61.625 48.1875 57.5625 43.546875 
Q 53.515625 38.921875 53.515625 30.90625 
L 53.515625 0 
L 44.484375 0 
L 44.484375 32.71875 
Q 44.484375 40.625 41.703125 44.40625 
Q 38.921875 48.1875 33.109375 48.1875 
Q 26.21875 48.1875 22.15625 43.53125 
Q 18.109375 38.875 18.109375 30.90625 
L 18.109375 0 
L 9.078125 0 
L 9.078125 54.6875 
L 18.109375 54.6875 
L 18.109375 46.1875 
Q 21.1875 51.21875 25.484375 53.609375 
Q 29.78125 56 35.6875 56 
Q 41.65625 56 45.828125 52.96875 
Q 50 49.953125 52 44.1875 
z
" id="DejaVuSans-109"/>
     <path d="M 31 75.875 
Q 24.46875 64.65625 21.28125 53.65625 
Q 18.109375 42.671875 18.109375 31.390625 
Q 18.109375 20.125 21.3125 9.0625 
Q 24.515625 -2 31 -13.1875 
L 23.1875 -13.1875 
Q 15.875 -1.703125 12.234375 9.375 
Q 8.59375 20.453125 8.59375 31.390625 
Q 8.59375 42.28125 12.203125 53.3125 
Q 15.828125 64.359375 23.1875 75.875 
z
" id="DejaVuSans-40"/>
     <path d="M 8.015625 75.875 
L 15.828125 75.875 
Q 23.140625 64.359375 26.78125 53.3125 
Q 30.421875 42.28125 30.421875 31.390625 
Q 30.421875 20.453125 26.78125 9.375 
Q 23.140625 -1.703125 15.828125 -13.1875 
L 8.015625 -13.1875 
Q 14.5 -2 17.703125 9.0625 
Q 20.90625 20.125 20.90625 31.390625 
Q 20.90625 42.671875 17.703125 53.65625 
Q 14.5 64.65625 8.015625 75.875 
z
" id="DejaVuSans-41"/>
    </defs>
    <g style="fill:#262626;" transform="translate(732.11 65.712734)scale(0.095 -0.095)">
     <use xlink:href="#DejaVuSans-68"/>
     <use x="77.001953" xlink:href="#DejaVuSans-105"/>
     <use x="104.785156" xlink:href="#DejaVuSans-103"/>
     <use x="168.261719" xlink:href="#DejaVuSans-101"/>
     <use x="229.785156" xlink:href="#DejaVuSans-115"/>
     <use x="281.884766" xlink:href="#DejaVuSans-116"/>
     <use x="321.09375" xlink:href="#DejaVuSans-105"/>
     <use x="348.876953" xlink:href="#DejaVuSans-118"/>
     <use x="408.056641" xlink:href="#DejaVuSans-101"/>
     <use x="469.580078" xlink:href="#DejaVuSans-95"/>
     <use x="519.580078" xlink:href="#DejaVuSans-115"/>
     <use x="571.679688" xlink:href="#DejaVuSans-121"/>
     <use x="630.859375" xlink:href="#DejaVuSans-115"/>
     <use x="682.958984" xlink:href="#DejaVuSans-116"/>
     <use x="722.167969" xlink:href="#DejaVuSans-101"/>
     <use x="783.691406" xlink:href="#DejaVuSans-109"/>
     <use x="881.103516" xlink:href="#DejaVuSans-40"/>
     <use x="920.117188" xlink:href="#DejaVuSans-72"/>
     <use x="995.3125" xlink:href="#DejaVuSans-117"/>
     <use x="1058.691406" xlink:href="#DejaVuSans-109"/>
     <use x="1156.103516" xlink:href="#DejaVuSans-97"/>
     <use x="1217.382812" xlink:href="#DejaVuSans-110"/>
     <use x="1280.761719" xlink:href="#DejaVuSans-41"/>
    </g>
   </g>
   <g id="patch_70">
    <path d="M 705.51 79.921172 
L 724.51 79.921172 
L 724.51 73.271172 
L 705.51 73.271172 
z
" style="fill:#8da0cb;stroke:#ffffff;stroke-linejoin:miter;"/>
   </g>
   <g id="text_14">
    <!-- Skin(Human) -->
    <defs>
     <path d="M 9.078125 75.984375 
L 18.109375 75.984375 
L 18.109375 31.109375 
L 44.921875 54.6875 
L 56.390625 54.6875 
L 27.390625 29.109375 
L 57.625 0 
L 45.90625 0 
L 18.109375 26.703125 
L 18.109375 0 
L 9.078125 0 
z
" id="DejaVuSans-107"/>
    </defs>
    <g style="fill:#262626;" transform="translate(732.11 79.921172)scale(0.095 -0.095)">
     <use xlink:href="#DejaVuSans-83"/>
     <use x="63.476562" xlink:href="#DejaVuSans-107"/>
     <use x="121.386719" xlink:href="#DejaVuSans-105"/>
     <use x="149.169922" xlink:href="#DejaVuSans-110"/>
     <use x="212.548828" xlink:href="#DejaVuSans-40"/>
     <use x="251.5625" xlink:href="#DejaVuSans-72"/>
     <use x="326.757812" xlink:href="#DejaVuSans-117"/>
     <use x="390.136719" xlink:href="#DejaVuSans-109"/>
     <use x="487.548828" xlink:href="#DejaVuSans-97"/>
     <use x="548.828125" xlink:href="#DejaVuSans-110"/>
     <use x="612.207031" xlink:href="#DejaVuSans-41"/>
    </g>
   </g>
   <g id="patch_71">
    <path d="M 705.51 93.865391 
L 724.51 93.865391 
L 724.51 87.215391 
L 705.51 87.215391 
z
" style="fill:#e78ac3;stroke:#ffffff;stroke-linejoin:miter;"/>
   </g>
   <g id="text_15">
    <!-- Digestive_system(Mammals) -->
    <g style="fill:#262626;" transform="translate(732.11 93.865391)scale(0.095 -0.095)">
     <use xlink:href="#DejaVuSans-68"/>
     <use x="77.001953" xlink:href="#DejaVuSans-105"/>
     <use x="104.785156" xlink:href="#DejaVuSans-103"/>
     <use x="168.261719" xlink:href="#DejaVuSans-101"/>
     <use x="229.785156" xlink:href="#DejaVuSans-115"/>
     <use x="281.884766" xlink:href="#DejaVuSans-116"/>
     <use x="321.09375" xlink:href="#DejaVuSans-105"/>
     <use x="348.876953" xlink:href="#DejaVuSans-118"/>
     <use x="408.056641" xlink:href="#DejaVuSans-101"/>
     <use x="469.580078" xlink:href="#DejaVuSans-95"/>
     <use x="519.580078" xlink:href="#DejaVuSans-115"/>
     <use x="571.679688" xlink:href="#DejaVuSans-121"/>
     <use x="630.859375" xlink:href="#DejaVuSans-115"/>
     <use x="682.958984" xlink:href="#DejaVuSans-116"/>
     <use x="722.167969" xlink:href="#DejaVuSans-101"/>
     <use x="783.691406" xlink:href="#DejaVuSans-109"/>
     <use x="881.103516" xlink:href="#DejaVuSans-40"/>
     <use x="920.117188" xlink:href="#DejaVuSans-77"/>
     <use x="1006.396484" xlink:href="#DejaVuSans-97"/>
     <use x="1067.675781" xlink:href="#DejaVuSans-109"/>
     <use x="1165.087891" xlink:href="#DejaVuSans-109"/>
     <use x="1262.5" xlink:href="#DejaVuSans-97"/>
     <use x="1323.779297" xlink:href="#DejaVuSans-108"/>
     <use x="1351.5625" xlink:href="#DejaVuSans-115"/>
     <use x="1403.662109" xlink:href="#DejaVuSans-41"/>
    </g>
   </g>
   <g id="patch_72">
    <path d="M 705.51 108.073828 
L 724.51 108.073828 
L 724.51 101.423828 
L 705.51 101.423828 
z
" style="fill:#a6d854;stroke:#ffffff;stroke-linejoin:miter;"/>
   </g>
   <g id="text_16">
    <!-- Rhizosphere -->
    <defs>
     <path d="M 5.515625 54.6875 
L 48.1875 54.6875 
L 48.1875 46.484375 
L 14.40625 7.171875 
L 48.1875 7.171875 
L 48.1875 0 
L 4.296875 0 
L 4.296875 8.203125 
L 38.09375 47.515625 
L 5.515625 47.515625 
z
" id="DejaVuSans-122"/>
     <path d="M 18.109375 8.203125 
L 18.109375 -20.796875 
L 9.078125 -20.796875 
L 9.078125 54.6875 
L 18.109375 54.6875 
L 18.109375 46.390625 
Q 20.953125 51.265625 25.265625 53.625 
Q 29.59375 56 35.59375 56 
Q 45.5625 56 51.78125 48.09375 
Q 58.015625 40.1875 58.015625 27.296875 
Q 58.015625 14.40625 51.78125 6.484375 
Q 45.5625 -1.421875 35.59375 -1.421875 
Q 29.59375 -1.421875 25.265625 0.953125 
Q 20.953125 3.328125 18.109375 8.203125 
z
M 48.6875 27.296875 
Q 48.6875 37.203125 44.609375 42.84375 
Q 40.53125 48.484375 33.40625 48.484375 
Q 26.265625 48.484375 22.1875 42.84375 
Q 18.109375 37.203125 18.109375 27.296875 
Q 18.109375 17.390625 22.1875 11.75 
Q 26.265625 6.109375 33.40625 6.109375 
Q 40.53125 6.109375 44.609375 11.75 
Q 48.6875 17.390625 48.6875 27.296875 
z
" id="DejaVuSans-112"/>
    </defs>
    <g style="fill:#262626;" transform="translate(732.11 108.073828)scale(0.095 -0.095)">
     <use xlink:href="#DejaVuSans-82"/>
     <use x="69.482422" xlink:href="#DejaVuSans-104"/>
     <use x="132.861328" xlink:href="#DejaVuSans-105"/>
     <use x="160.644531" xlink:href="#DejaVuSans-122"/>
     <use x="213.134766" xlink:href="#DejaVuSans-111"/>
     <use x="274.316406" xlink:href="#DejaVuSans-115"/>
     <use x="326.416016" xlink:href="#DejaVuSans-112"/>
     <use x="389.892578" xlink:href="#DejaVuSans-104"/>
     <use x="453.271484" xlink:href="#DejaVuSans-101"/>
     <use x="514.794922" xlink:href="#DejaVuSans-114"/>
     <use x="553.658203" xlink:href="#DejaVuSans-101"/>
    </g>
   </g>
   <g id="patch_73">
    <path d="M 705.51 122.018047 
L 724.51 122.018047 
L 724.51 115.368047 
L 705.51 115.368047 
z
" style="fill:#ffd92f;stroke:#ffffff;stroke-linejoin:miter;"/>
   </g>
   <g id="text_17">
    <!-- Others -->
    <g style="fill:#262626;" transform="translate(732.11 122.018047)scale(0.095 -0.095)">
     <use xlink:href="#DejaVuSans-79"/>
     <use x="78.710938" xlink:href="#DejaVuSans-116"/>
     <use x="117.919922" xlink:href="#DejaVuSans-104"/>
     <use x="181.298828" xlink:href="#DejaVuSans-101"/>
     <use x="242.822266" xlink:href="#DejaVuSans-114"/>
     <use x="283.935547" xlink:href="#DejaVuSans-115"/>
    </g>
   </g>
  </g>
 </g>
</svg>
