<?xml version="1.0" encoding="utf-8" standalone="no"?>
<!DOCTYPE svg PUBLIC "-//W3C//DTD SVG 1.1//EN"
  "http://www.w3.org/Graphics/SVG/1.1/DTD/svg11.dtd">
<!-- Created with matplotlib (https://matplotlib.org/) -->
<svg height="144pt" version="1.1" viewBox="0 0 1728 144" width="1728pt" xmlns="http://www.w3.org/2000/svg" xmlns:xlink="http://www.w3.org/1999/xlink">
 <defs>
  <style type="text/css">
*{stroke-linecap:butt;stroke-linejoin:round;}
  </style>
 </defs>
 <g id="figure_1">
  <g id="patch_1">
   <path d="M 0 144 
L 1728 144 
L 1728 0 
L 0 0 
z
" style="fill:#ffffff;"/>
  </g>
  <g id="axes_1">
   <g id="patch_2">
    <path d="M 129.6 72 
C 129.6 71.879652 129.599623 71.759305 129.598868 71.63896 
C 129.598114 71.518614 129.596983 71.398271 129.595474 71.277933 
L 72 72 
L 129.6 72 
z
" style="fill:#66c2a5;stroke:#ffffff;stroke-linejoin:miter;"/>
   </g>
   <g id="patch_3">
    <path d="M 129.595474 71.277933 
C 129.595021 71.241824 129.594535 71.205715 129.594014 71.169606 
C 129.593493 71.133498 129.592939 71.09739 129.59235 71.061282 
L 72 72 
L 129.595474 71.277933 
z
" style="fill:#fc8d62;stroke:#ffffff;stroke-linejoin:miter;"/>
   </g>
   <g id="patch_4">
    <path d="M 129.59235 71.061282 
C 129.46945 63.521107 127.866962 56.077944 124.876053 49.155241 
C 121.885144 42.232539 117.563629 35.964114 112.157362 30.706583 
C 106.751095 25.449052 100.364581 21.304045 93.361155 18.507374 
C 86.357729 15.710703 78.872768 14.316429 71.332098 14.403872 
C 63.791428 14.491316 56.340812 16.058788 49.404122 19.017113 
C 42.467433 21.975438 36.178757 26.267431 30.895864 31.648916 
C 25.61297 37.030401 21.437979 43.397354 18.608408 50.387553 
C 15.778837 57.377752 14.349383 64.856074 14.401369 72.397072 
C 14.453355 79.938069 15.985775 87.395973 18.91145 94.346497 
C 21.837126 101.29702 26.099501 107.605808 31.456086 112.913947 
C 36.812671 118.222086 43.159923 122.42697 50.136739 125.289378 
C 57.113555 128.151786 64.585074 129.616388 72.126232 129.599862 
C 79.667391 129.583335 87.132418 128.085999 94.096622 125.193038 
C 101.060825 122.300078 107.389585 118.067414 112.722853 112.735847 
C 118.056121 107.404281 122.290803 101.076872 125.185986 94.113592 
C 128.081168 87.150312 129.580886 79.685763 129.599818 72.14461 
L 72 72 
L 129.59235 71.061282 
z
" style="fill:#8da0cb;stroke:#ffffff;stroke-linejoin:miter;"/>
   </g>
   <g id="patch_5">
    <path d="M 129.599818 72.14461 
C 129.599834 72.138581 129.599848 72.132553 129.599861 72.126525 
C 129.599874 72.120497 129.599887 72.114468 129.599898 72.10844 
L 72 72 
L 129.599818 72.14461 
z
" style="fill:#e78ac3;stroke:#ffffff;stroke-linejoin:miter;"/>
   </g>
   <g id="patch_6">
    <path d="M 129.599898 72.10844 
C 129.599921 72.096395 129.599939 72.08435 129.599955 72.072305 
C 129.59997 72.06026 129.599981 72.048215 129.599989 72.03617 
L 72 72 
L 129.599898 72.10844 
z
" style="fill:#a6d854;stroke:#ffffff;stroke-linejoin:miter;"/>
   </g>
   <g id="patch_7">
    <path d="M 129.599989 72.03617 
C 129.599992 72.030142 129.599995 72.024113 129.599997 72.018085 
C 129.599999 72.012057 129.6 72.006029 129.6 72.000001 
L 72 72 
L 129.599989 72.03617 
z
" style="fill:#ffd92f;stroke:#ffffff;stroke-linejoin:miter;"/>
   </g>
  </g>
  <g id="axes_2">
   <g id="patch_8">
    <path d="M 273.6 72 
C 273.6 71.46213 273.592466 70.924286 273.5774 70.386627 
C 273.562335 69.848967 273.539739 69.311545 273.509619 68.774519 
L 216 72 
L 273.6 72 
z
" style="fill:#66c2a5;stroke:#ffffff;stroke-linejoin:miter;"/>
   </g>
   <g id="patch_9">
    <path d="M 273.509619 68.774519 
C 273.508612 68.756568 273.507597 68.738617 273.506573 68.720666 
C 273.50555 68.702716 273.504518 68.684766 273.503477 68.666817 
L 216 72 
L 273.509619 68.774519 
z
" style="fill:#fc8d62;stroke:#ffffff;stroke-linejoin:miter;"/>
   </g>
   <g id="patch_10">
    <path d="M 273.503477 68.666817 
C 273.070046 61.189336 271.182242 53.867688 267.946037 47.11287 
C 264.709832 40.358052 260.186934 34.298867 254.631234 29.275443 
C 249.075534 24.25202 242.59297 20.360146 235.547435 17.818289 
C 228.501901 15.276433 221.027743 14.133063 213.54452 14.452362 
C 206.061296 14.771661 198.711699 16.547541 191.908293 19.680313 
C 185.104888 22.813085 178.977403 27.243013 173.869802 32.721425 
C 168.762202 38.199837 164.771878 44.62227 162.122826 51.628204 
C 159.473773 58.634138 158.216505 66.089982 158.421598 73.577206 
C 158.62669 81.06443 160.290232 88.440266 163.318842 95.290675 
C 166.347451 102.141085 170.683378 108.335442 176.083228 113.526031 
C 181.483077 118.71662 187.843883 122.804465 194.808586 125.560097 
C 201.773288 128.315728 209.209082 129.686602 216.698564 129.595764 
C 224.188046 129.504926 231.588403 127.954109 238.484222 125.030366 
C 245.380041 122.106624 251.63983 117.865707 256.912199 112.545678 
C 262.184567 107.225649 266.368982 100.92795 269.230551 94.0061 
C 272.092121 87.08425 273.57628 79.670236 273.599718 72.180241 
L 216 72 
L 273.503477 68.666817 
z
" style="fill:#8da0cb;stroke:#ffffff;stroke-linejoin:miter;"/>
   </g>
   <g id="patch_11">
    <path d="M 273.599718 72.180241 
C 273.599737 72.174212 273.599755 72.168184 273.599772 72.162156 
C 273.599789 72.156128 273.599805 72.150099 273.59982 72.144071 
L 216 72 
L 273.599718 72.180241 
z
" style="fill:#e78ac3;stroke:#ffffff;stroke-linejoin:miter;"/>
   </g>
   <g id="patch_12">
    <path d="M 273.59982 72.144071 
C 273.599865 72.126092 273.599901 72.108112 273.599929 72.090133 
C 273.599958 72.072153 273.599977 72.054174 273.599989 72.036194 
L 216 72 
L 273.59982 72.144071 
z
" style="fill:#a6d854;stroke:#ffffff;stroke-linejoin:miter;"/>
   </g>
   <g id="patch_13">
    <path d="M 273.599989 72.036194 
C 273.599992 72.030166 273.599995 72.024138 273.599997 72.018109 
C 273.599999 72.012081 273.6 72.006053 273.6 72.000025 
L 216 72 
L 273.599989 72.036194 
z
" style="fill:#ffd92f;stroke:#ffffff;stroke-linejoin:miter;"/>
   </g>
  </g>
  <g id="axes_3">
   <g id="patch_14">
    <path d="M 417.6 72 
C 417.6 71.993972 417.599999 71.987944 417.599997 71.981915 
C 417.599995 71.975887 417.599992 71.969859 417.599989 71.963831 
L 360 72 
L 417.6 72 
z
" style="fill:#66c2a5;stroke:#ffffff;stroke-linejoin:miter;"/>
   </g>
   <g id="patch_15">
    <path d="M 417.599989 71.963831 
C 417.599985 71.957802 417.59998 71.951774 417.599974 71.945746 
C 417.599969 71.939718 417.599962 71.933689 417.599955 71.927661 
L 360 72 
L 417.599989 71.963831 
z
" style="fill:#fc8d62;stroke:#ffffff;stroke-linejoin:miter;"/>
   </g>
   <g id="patch_16">
    <path d="M 417.599955 71.927661 
C 417.59046 64.367509 416.092621 56.882665 413.192074 49.901059 
C 410.291528 42.919453 406.044624 36.576723 400.694172 31.235501 
C 395.343719 25.894279 388.993665 21.658334 382.007061 18.769846 
C 375.020457 15.881359 367.533038 14.396447 359.972881 14.400006 
C 352.412723 14.403566 344.926705 15.895528 337.942824 18.790593 
C 330.958943 21.685658 324.612881 25.927581 319.267461 31.273838 
C 313.92204 36.620096 309.681111 42.966822 306.78714 49.951157 
C 303.893168 56.935491 302.402379 64.421742 302.400003 71.9819 
C 302.397627 79.542058 303.883712 87.029245 306.773293 94.015396 
C 309.662874 101.001548 313.899814 107.350938 319.241873 112.700554 
C 324.583933 118.05017 330.927328 122.296081 337.909388 125.195534 
C 344.891448 128.094988 352.376527 129.591654 359.93668 129.599965 
C 367.496834 129.608276 374.985185 128.12807 381.973603 125.243974 
C 388.962021 122.359878 395.314736 118.127925 400.668544 112.790066 
C 406.022352 107.452208 410.273241 101.112149 413.178175 94.132367 
C 416.083109 87.152585 417.585652 79.668684 417.599898 72.108539 
L 360 72 
L 417.599955 71.927661 
z
" style="fill:#8da0cb;stroke:#ffffff;stroke-linejoin:miter;"/>
   </g>
   <g id="patch_17">
    <path d="M 417.599898 72.108539 
C 417.599909 72.102511 417.59992 72.096483 417.599929 72.090454 
C 417.599938 72.084426 417.599947 72.078398 417.599955 72.07237 
L 360 72 
L 417.599898 72.108539 
z
" style="fill:#e78ac3;stroke:#ffffff;stroke-linejoin:miter;"/>
   </g>
   <g id="patch_18">
    <path d="M 417.599955 72.07237 
C 417.599962 72.066341 417.599969 72.060313 417.599974 72.054285 
C 417.59998 72.048257 417.599985 72.042228 417.599989 72.0362 
L 360 72 
L 417.599955 72.07237 
z
" style="fill:#a6d854;stroke:#ffffff;stroke-linejoin:miter;"/>
   </g>
   <g id="patch_19">
    <path d="M 417.599989 72.0362 
C 417.599992 72.030172 417.599995 72.024144 417.599997 72.018115 
C 417.599999 72.012087 417.6 72.006059 417.6 72.000031 
L 360 72 
L 417.599989 72.0362 
z
" style="fill:#ffd92f;stroke:#ffffff;stroke-linejoin:miter;"/>
   </g>
  </g>
  <g id="axes_4">
   <g id="patch_20">
    <path d="M 561.6 72 
C 561.6 71.993972 561.599999 71.987944 561.599997 71.981915 
C 561.599995 71.975887 561.599992 71.969859 561.599989 71.963831 
L 504 72 
L 561.6 72 
z
" style="fill:#66c2a5;stroke:#ffffff;stroke-linejoin:miter;"/>
   </g>
   <g id="patch_21">
    <path d="M 561.599989 71.963831 
C 561.599985 71.957802 561.59998 71.951774 561.599974 71.945746 
C 561.599969 71.939718 561.599962 71.933689 561.599955 71.927661 
L 504 72 
L 561.599989 71.963831 
z
" style="fill:#fc8d62;stroke:#ffffff;stroke-linejoin:miter;"/>
   </g>
   <g id="patch_22">
    <path d="M 561.599955 71.927661 
C 561.590461 64.36827 560.092923 56.884164 557.192942 49.903147 
C 554.292961 42.922129 550.046867 36.5798 544.697372 31.238696 
C 539.347877 25.897591 532.99889 21.661458 526.01333 18.772438 
C 519.027769 15.883419 511.541322 14.397631 503.981924 14.400003 
C 496.422527 14.402375 488.937014 15.892862 481.953268 18.786265 
C 474.969522 21.679668 468.623195 25.919786 463.277054 31.264246 
C 457.930912 36.608707 453.688799 42.9537 450.7932 49.936536 
C 447.897601 56.919372 446.404761 64.404416 446.400011 71.963812 
C 446.395262 79.523208 447.878696 87.010122 450.765519 93.996591 
C 453.652341 100.98306 457.886478 107.333378 463.2259 112.684552 
C 468.565322 118.035726 474.906316 122.283815 481.886421 125.185991 
C 488.866526 128.088167 496.350161 129.588058 503.909549 129.599929 
C 511.468937 129.6118 518.957245 128.135419 525.946431 125.25518 
C 532.935616 122.37494 539.28992 118.146788 544.646122 112.812409 
C 550.002324 107.478031 554.256384 101.141042 557.165135 94.163674 
C 560.073885 87.186306 561.580826 79.704088 561.599818 72.144714 
L 504 72 
L 561.599955 71.927661 
z
" style="fill:#8da0cb;stroke:#ffffff;stroke-linejoin:miter;"/>
   </g>
   <g id="patch_23">
    <path d="M 561.599818 72.144714 
C 561.599848 72.132658 561.599875 72.120602 561.599898 72.108545 
C 561.59992 72.096489 561.599939 72.084432 561.599955 72.072376 
L 504 72 
L 561.599818 72.144714 
z
" style="fill:#e78ac3;stroke:#ffffff;stroke-linejoin:miter;"/>
   </g>
   <g id="patch_24">
    <path d="M 561.599955 72.072376 
C 561.599962 72.066347 561.599969 72.060319 561.599974 72.054291 
C 561.59998 72.048263 561.599985 72.042235 561.599989 72.036206 
L 504 72 
L 561.599955 72.072376 
z
" style="fill:#a6d854;stroke:#ffffff;stroke-linejoin:miter;"/>
   </g>
   <g id="patch_25">
    <path d="M 561.599989 72.036206 
C 561.599992 72.030178 561.599995 72.02415 561.599997 72.018122 
C 561.599999 72.012093 561.6 72.006065 561.6 72.000037 
L 504 72 
L 561.599989 72.036206 
z
" style="fill:#ffd92f;stroke:#ffffff;stroke-linejoin:miter;"/>
   </g>
  </g>
  <g id="axes_5">
   <g id="patch_26">
    <path d="M 705.6 72 
C 705.6 71.987936 705.599996 71.975873 705.599989 71.963809 
C 705.599981 71.951745 705.59997 71.939681 705.599955 71.927618 
L 648 72 
L 705.6 72 
z
" style="fill:#66c2a5;stroke:#ffffff;stroke-linejoin:miter;"/>
   </g>
   <g id="patch_27">
    <path d="M 705.599955 71.927618 
C 705.599947 71.921586 705.599938 71.915554 705.599929 71.909522 
C 705.599919 71.90349 705.599909 71.897458 705.599898 71.891427 
L 648 72 
L 705.599955 71.927618 
z
" style="fill:#fc8d62;stroke:#ffffff;stroke-linejoin:miter;"/>
   </g>
   <g id="patch_28">
    <path d="M 705.599898 71.891427 
C 705.585672 64.344224 704.08824 56.872878 701.192928 49.903112 
C 698.297615 42.933346 694.060479 36.600102 688.722953 31.264252 
C 683.385426 25.928403 677.050852 21.693256 670.080176 18.800133 
C 663.109501 15.907011 655.637686 14.411926 648.090479 14.400071 
C 640.543271 14.388216 633.066796 15.859819 626.087066 18.731029 
C 619.107336 21.602238 612.759487 25.817463 607.405224 31.136518 
C 602.050961 36.455573 597.793949 42.775474 594.876755 49.73611 
C 591.95956 56.696746 590.438664 64.16335 590.400728 71.710471 
C 590.362791 79.257592 591.808549 86.739108 594.655621 93.728719 
C 597.502693 100.718329 601.695956 107.080707 606.996476 112.453319 
C 612.296996 117.825931 618.602148 122.104758 625.552662 125.045989 
C 632.503175 127.987221 639.964478 129.533911 647.511423 129.597928 
C 655.058368 129.661945 662.544836 128.24205 669.544244 125.41915 
C 676.543652 122.596249 682.920482 118.424998 688.311379 113.143076 
C 693.702277 107.861154 698.002867 101.570826 700.9681 94.630518 
C 703.933333 87.690211 705.505798 80.234297 705.595896 72.687618 
L 648 72 
L 705.599898 71.891427 
z
" style="fill:#8da0cb;stroke:#ffffff;stroke-linejoin:miter;"/>
   </g>
   <g id="patch_29">
    <path d="M 705.595896 72.687618 
C 705.596688 72.621272 705.597365 72.554925 705.597928 72.488577 
C 705.598491 72.422229 705.598939 72.35588 705.599272 72.289531 
L 648 72 
L 705.595896 72.687618 
z
" style="fill:#e78ac3;stroke:#ffffff;stroke-linejoin:miter;"/>
   </g>
   <g id="patch_30">
    <path d="M 705.599272 72.289531 
C 705.599303 72.283499 705.599332 72.277467 705.59936 72.271435 
C 705.599389 72.265404 705.599416 72.259372 705.599443 72.25334 
L 648 72 
L 705.599272 72.289531 
z
" style="fill:#a6d854;stroke:#ffffff;stroke-linejoin:miter;"/>
   </g>
   <g id="patch_31">
    <path d="M 705.599443 72.25334 
C 705.599469 72.247308 705.599495 72.241276 705.59952 72.235245 
C 705.599544 72.229213 705.599568 72.223181 705.599591 72.217149 
L 648 72 
L 705.599443 72.25334 
z
" style="fill:#ffd92f;stroke:#ffffff;stroke-linejoin:miter;"/>
   </g>
  </g>
  <g id="axes_6"/>
  <g id="axes_7"/>
  <g id="axes_8">
   <g id="patch_32">
    <path d="M 1137.6 72 
C 1137.6 71.915917 1137.599816 71.831834 1137.599448 71.747751 
C 1137.599079 71.663669 1137.598527 71.579587 1137.597791 71.495507 
L 1080 72 
L 1137.6 72 
z
" style="fill:#66c2a5;stroke:#ffffff;stroke-linejoin:miter;"/>
   </g>
   <g id="patch_33">
    <path d="M 1137.597791 71.495507 
C 1137.481401 58.20731 1132.770007 45.360254 1124.267856 35.147362 
C 1115.765704 24.93447 1103.985762 17.971924 1090.938892 15.448248 
C 1077.892023 12.924572 1064.365393 14.992028 1052.668031 21.297697 
C 1040.970669 27.603367 1031.80832 37.766803 1026.74502 50.053085 
L 1080 72 
L 1137.597791 71.495507 
z
" style="fill:#fc8d62;stroke:#ffffff;stroke-linejoin:miter;"/>
   </g>
   <g id="patch_34">
    <path d="M 1026.74502 50.053085 
C 1023.765945 57.281918 1022.289689 65.042204 1022.40642 72.859959 
C 1022.523151 80.677714 1024.230442 88.390464 1027.424016 95.52713 
C 1030.617589 102.663796 1035.231074 109.07606 1040.982688 114.372271 
C 1046.734302 119.668482 1053.504511 123.738573 1060.879803 126.333949 
C 1068.255095 128.929326 1076.082193 129.996049 1083.883033 129.468966 
C 1091.683872 128.941883 1099.296332 126.831948 1106.255456 123.268031 
C 1113.214581 119.704114 1119.375742 114.760284 1124.362627 108.738499 
C 1129.349512 102.716715 1133.058482 95.742124 1135.262998 88.240723 
L 1080 72 
L 1026.74502 50.053085 
z
" style="fill:#8da0cb;stroke:#ffffff;stroke-linejoin:miter;"/>
   </g>
   <g id="patch_35">
    <path d="M 1135.262998 88.240723 
C 1135.837043 86.287394 1136.307121 84.305003 1136.671253 82.301898 
C 1137.035384 80.298793 1137.293057 78.27779 1137.443186 76.247401 
L 1080 72 
L 1135.262998 88.240723 
z
" style="fill:#e78ac3;stroke:#ffffff;stroke-linejoin:miter;"/>
   </g>
   <g id="patch_36">
    <path d="M 1137.443186 76.247401 
C 1137.494991 75.546775 1137.533973 74.845261 1137.560113 74.14321 
C 1137.586254 73.441158 1137.599548 72.738688 1137.599989 72.03615 
L 1080 72 
L 1137.443186 76.247401 
z
" style="fill:#a6d854;stroke:#ffffff;stroke-linejoin:miter;"/>
   </g>
   <g id="patch_37">
    <path d="M 1137.599989 72.03615 
C 1137.599992 72.030122 1137.599995 72.024093 1137.599997 72.018065 
C 1137.599999 72.012037 1137.6 72.006009 1137.6 71.99998 
L 1080 72 
L 1137.599989 72.03615 
z
" style="fill:#ffd92f;stroke:#ffffff;stroke-linejoin:miter;"/>
   </g>
  </g>
  <g id="axes_9">
   <g id="patch_38">
    <path d="M 1281.6 72 
C 1281.6 67.818743 1281.144716 63.649888 1280.242203 59.567195 
C 1279.339689 55.484502 1277.995302 51.512191 1276.232825 47.720544 
L 1224 72 
L 1281.6 72 
z
" style="fill:#66c2a5;stroke:#ffffff;stroke-linejoin:miter;"/>
   </g>
   <g id="patch_39">
    <path d="M 1276.232825 47.720544 
C 1276.140604 47.522146 1276.047253 47.324276 1275.952777 47.126942 
C 1275.858301 46.929609 1275.762701 46.732815 1275.665983 46.536571 
L 1224 72 
L 1276.232825 47.720544 
z
" style="fill:#fc8d62;stroke:#ffffff;stroke-linejoin:miter;"/>
   </g>
   <g id="patch_40">
    <path d="M 1275.665983 46.536571 
C 1272.568242 40.251171 1268.349373 34.583488 1263.21708 29.812554 
C 1258.084787 25.041619 1252.124701 21.247035 1245.630251 18.615618 
C 1239.135801 15.984201 1232.215344 14.559854 1225.20959 14.412702 
C 1218.203836 14.26555 1211.229674 15.398048 1204.630457 17.75444 
C 1198.031241 20.110832 1191.917075 23.651803 1186.588976 28.203022 
C 1181.260876 32.754241 1176.80774 38.239774 1173.448805 44.389554 
C 1170.08987 50.539335 1167.881179 57.250756 1166.931471 64.193399 
C 1165.981763 71.136043 1166.306883 78.194073 1167.890826 85.020006 
C 1169.474768 91.84594 1172.291105 98.325889 1176.201182 104.14083 
C 1180.111258 109.955771 1185.049836 115.008685 1190.773778 119.050804 
C 1196.49772 123.092924 1202.911525 126.056808 1209.699424 127.796537 
C 1216.487324 129.536266 1223.536066 130.022815 1230.498624 129.232228 
C 1237.461182 128.441641 1244.221389 126.387109 1250.446423 123.169783 
C 1256.671457 119.952457 1262.257457 115.626015 1266.929411 110.403459 
C 1271.601365 105.180903 1275.281322 99.149369 1277.788111 92.605803 
C 1280.2949 86.062238 1281.586695 79.115817 1281.599898 72.10853 
L 1224 72 
L 1275.665983 46.536571 
z
" style="fill:#8da0cb;stroke:#ffffff;stroke-linejoin:miter;"/>
   </g>
   <g id="patch_41">
    <path d="M 1281.599898 72.10853 
C 1281.599909 72.102502 1281.59992 72.096474 1281.599929 72.090446 
C 1281.599938 72.084418 1281.599947 72.078389 1281.599955 72.072361 
L 1224 72 
L 1281.599898 72.10853 
z
" style="fill:#e78ac3;stroke:#ffffff;stroke-linejoin:miter;"/>
   </g>
   <g id="patch_42">
    <path d="M 1281.599955 72.072361 
C 1281.599962 72.066333 1281.599969 72.060305 1281.599974 72.054276 
C 1281.59998 72.048248 1281.599985 72.04222 1281.599989 72.036192 
L 1224 72 
L 1281.599955 72.072361 
z
" style="fill:#a6d854;stroke:#ffffff;stroke-linejoin:miter;"/>
   </g>
   <g id="patch_43">
    <path d="M 1281.599989 72.036192 
C 1281.599992 72.030163 1281.599995 72.024135 1281.599997 72.018107 
C 1281.599999 72.012079 1281.6 72.00605 1281.6 72.000022 
L 1224 72 
L 1281.599989 72.036192 
z
" style="fill:#ffd92f;stroke:#ffffff;stroke-linejoin:miter;"/>
   </g>
  </g>
  <g id="axes_10">
   <g id="patch_44">
    <path d="M 1425.6 72 
C 1425.6 71.99397 1425.599999 71.98794 1425.599997 71.98191 
C 1425.599995 71.97588 1425.599992 71.96985 1425.599989 71.96382 
L 1368 72 
L 1425.6 72 
z
" style="fill:#66c2a5;stroke:#ffffff;stroke-linejoin:miter;"/>
   </g>
   <g id="patch_45">
    <path d="M 1425.599989 71.96382 
C 1425.599985 71.95779 1425.59998 71.95176 1425.599974 71.94573 
C 1425.599969 71.9397 1425.599962 71.933669 1425.599955 71.927639 
L 1368 72 
L 1425.599989 71.96382 
z
" style="fill:#fc8d62;stroke:#ffffff;stroke-linejoin:miter;"/>
   </g>
   <g id="patch_46">
    <path d="M 1425.599955 71.927639 
C 1425.590461 64.370531 1424.093822 56.888642 1421.195536 49.909393 
C 1418.297251 42.930144 1414.053582 36.589019 1408.706959 31.24827 
C 1403.360336 25.907521 1397.01455 21.670825 1390.03212 18.780213 
C 1383.049689 15.889601 1375.566159 14.401187 1368.009045 14.400001 
C 1360.451931 14.398814 1352.967934 15.884878 1345.984596 18.773296 
C 1339.001258 21.661715 1332.654142 25.896418 1327.305842 31.235487 
C 1321.957542 36.574557 1317.711881 42.914349 1314.811404 49.892687 
C 1311.910927 56.871025 1310.411938 64.352444 1310.400071 71.909549 
C 1310.388204 79.466654 1311.863689 86.952744 1314.742235 93.940157 
C 1317.620781 100.92757 1321.84651 107.280665 1327.178015 112.636505 
C 1332.50952 117.992345 1338.843306 122.246962 1345.817538 125.157298 
C 1352.79177 128.067635 1360.271063 129.577196 1367.828143 129.599744 
C 1375.385224 129.622291 1382.873391 128.157388 1389.864866 125.28872 
C 1396.85634 122.420052 1403.215401 118.203306 1408.578771 112.879375 
C 1413.942141 107.555445 1418.205705 101.227679 1421.125895 94.257567 
C 1424.046085 87.287455 1425.566215 79.810303 1425.599443 72.253262 
L 1368 72 
L 1425.599955 71.927639 
z
" style="fill:#8da0cb;stroke:#ffffff;stroke-linejoin:miter;"/>
   </g>
   <g id="patch_47">
    <path d="M 1425.599443 72.253262 
C 1425.599576 72.223112 1425.599685 72.192962 1425.59977 72.162812 
C 1425.599855 72.132662 1425.599917 72.102512 1425.599955 72.072361 
L 1368 72 
L 1425.599443 72.253262 
z
" style="fill:#e78ac3;stroke:#ffffff;stroke-linejoin:miter;"/>
   </g>
   <g id="patch_48">
    <path d="M 1425.599955 72.072361 
C 1425.599962 72.066331 1425.599969 72.060301 1425.599974 72.054271 
C 1425.59998 72.048241 1425.599985 72.042211 1425.599989 72.036181 
L 1368 72 
L 1425.599955 72.072361 
z
" style="fill:#a6d854;stroke:#ffffff;stroke-linejoin:miter;"/>
   </g>
   <g id="patch_49">
    <path d="M 1425.599989 72.036181 
C 1425.599992 72.030151 1425.599995 72.024121 1425.599997 72.018091 
C 1425.599999 72.012061 1425.6 72.006031 1425.6 72.000001 
L 1368 72 
L 1425.599989 72.036181 
z
" style="fill:#ffd92f;stroke:#ffffff;stroke-linejoin:miter;"/>
   </g>
  </g>
  <g id="axes_11">
   <g id="patch_50">
    <path d="M 1569.6 72 
C 1569.6 71.975891 1569.599985 71.951781 1569.599955 71.927672 
C 1569.599924 71.903563 1569.599879 71.879453 1569.599818 71.855344 
L 1512 72 
L 1569.6 72 
z
" style="fill:#66c2a5;stroke:#ffffff;stroke-linejoin:miter;"/>
   </g>
   <g id="patch_51">
    <path d="M 1569.599818 71.855344 
C 1569.599803 71.849316 1569.599787 71.843288 1569.59977 71.837259 
C 1569.599753 71.831231 1569.599735 71.825203 1569.599716 71.819175 
L 1512 72 
L 1569.599818 71.855344 
z
" style="fill:#fc8d62;stroke:#ffffff;stroke-linejoin:miter;"/>
   </g>
   <g id="patch_52">
    <path d="M 1569.599716 71.819175 
C 1569.57599 64.261335 1568.064962 56.781538 1565.152971 49.80717 
C 1562.24098 42.832802 1557.984566 36.499279 1552.626936 31.168491 
C 1547.269305 25.837704 1540.914483 21.613155 1533.925577 18.736231 
C 1526.936671 15.859307 1519.449378 14.385867 1511.891515 14.400102 
C 1504.333652 14.414337 1496.851962 15.91597 1489.873943 18.819199 
C 1482.895923 21.722428 1476.557059 25.970885 1471.219547 31.321816 
C 1465.882035 36.672747 1461.649509 43.022258 1458.76381 50.007546 
C 1455.878111 56.992833 1454.395269 64.47827 1454.400011 72.036145 
C 1454.404754 79.59402 1455.896989 87.077589 1458.791453 94.05925 
C 1461.685916 101.04091 1465.926408 107.385104 1471.270631 112.729333 
C 1476.614855 118.073561 1482.959046 122.314058 1489.940703 125.208528 
C 1496.922361 128.102997 1504.405929 129.595239 1511.963804 129.599989 
C 1519.521679 129.604738 1527.007117 128.121902 1533.992407 125.23621 
C 1540.977697 122.350517 1547.327212 118.117996 1552.678148 112.780489 
C 1558.029084 107.442981 1562.277546 101.104121 1565.180781 94.126104 
C 1568.084017 87.148087 1569.585656 79.666399 1569.599898 72.108536 
L 1512 72 
L 1569.599716 71.819175 
z
" style="fill:#8da0cb;stroke:#ffffff;stroke-linejoin:miter;"/>
   </g>
   <g id="patch_53">
    <path d="M 1569.599898 72.108536 
C 1569.599909 72.102508 1569.59992 72.096479 1569.599929 72.090451 
C 1569.599938 72.084423 1569.599947 72.078395 1569.599955 72.072367 
L 1512 72 
L 1569.599898 72.108536 
z
" style="fill:#e78ac3;stroke:#ffffff;stroke-linejoin:miter;"/>
   </g>
   <g id="patch_54">
    <path d="M 1569.599955 72.072367 
C 1569.599962 72.066338 1569.599969 72.06031 1569.599974 72.054282 
C 1569.59998 72.048254 1569.599985 72.042225 1569.599989 72.036197 
L 1512 72 
L 1569.599955 72.072367 
z
" style="fill:#a6d854;stroke:#ffffff;stroke-linejoin:miter;"/>
   </g>
   <g id="patch_55">
    <path d="M 1569.599989 72.036197 
C 1569.599992 72.030169 1569.599995 72.024141 1569.599997 72.018112 
C 1569.599999 72.012084 1569.6 72.006056 1569.6 72.000028 
L 1512 72 
L 1569.599989 72.036197 
z
" style="fill:#ffd92f;stroke:#ffffff;stroke-linejoin:miter;"/>
   </g>
  </g>
  <g id="axes_12">
   <g id="patch_56">
    <path d="M 1713.6 72 
C 1713.6 71.969902 1713.599976 71.939804 1713.599929 71.909706 
C 1713.599882 71.879609 1713.599811 71.849511 1713.599717 71.819413 
L 1656 72 
L 1713.6 72 
z
" style="fill:#66c2a5;stroke:#ffffff;stroke-linejoin:miter;"/>
   </g>
   <g id="patch_57">
    <path d="M 1713.599717 71.819413 
C 1713.599698 71.813385 1713.599678 71.807357 1713.599657 71.801328 
C 1713.599637 71.7953 1713.599615 71.789272 1713.599592 71.783244 
L 1656 72 
L 1713.599717 71.819413 
z
" style="fill:#fc8d62;stroke:#ffffff;stroke-linejoin:miter;"/>
   </g>
   <g id="patch_58">
    <path d="M 1713.599592 71.783244 
C 1713.571199 64.238326 1712.060629 56.771983 1709.153903 49.809402 
C 1706.247177 42.846821 1702.00054 36.522727 1696.655826 31.197257 
C 1691.311112 25.871788 1684.97174 21.64799 1677.99872 18.766398 
C 1671.025699 15.884806 1663.553956 14.401178 1656.008985 14.400001 
C 1648.464014 14.398824 1640.991808 15.880122 1634.017889 18.759538 
C 1627.04397 21.638955 1620.70328 25.860774 1615.356905 31.184576 
C 1610.01053 36.508377 1605.761921 42.831147 1602.853023 49.792821 
C 1599.944125 56.754495 1598.431225 64.220366 1598.400478 71.765274 
C 1598.369732 79.310183 1599.821734 86.788137 1602.673797 93.773287 
C 1605.525859 100.758437 1609.722797 107.115624 1615.025604 112.482822 
C 1620.328412 117.850021 1626.634482 122.123377 1633.584702 125.059537 
C 1640.534922 127.995696 1647.994807 129.537844 1655.539537 129.598159 
C 1663.084267 129.658475 1670.567854 128.235791 1677.564128 125.411126 
C 1684.560403 122.58646 1690.933989 118.41447 1696.321928 113.132738 
C 1701.709868 107.851005 1706.007906 101.561731 1708.971281 94.623072 
C 1711.934657 87.684412 1713.506029 80.230629 1713.595913 72.686193 
L 1656 72 
L 1713.599592 71.783244 
z
" style="fill:#8da0cb;stroke:#ffffff;stroke-linejoin:miter;"/>
   </g>
   <g id="patch_59">
    <path d="M 1713.595913 72.686193 
C 1713.595984 72.680165 1713.596055 72.674137 1713.596125 72.668109 
C 1713.596195 72.662082 1713.596264 72.656054 1713.596332 72.650026 
L 1656 72 
L 1713.595913 72.686193 
z
" style="fill:#e78ac3;stroke:#ffffff;stroke-linejoin:miter;"/>
   </g>
   <g id="patch_60">
    <path d="M 1713.596332 72.650026 
C 1713.597487 72.547726 1713.598369 72.445422 1713.598978 72.343117 
C 1713.599587 72.240812 1713.599924 72.138506 1713.599989 72.036199 
L 1656 72 
L 1713.596332 72.650026 
z
" style="fill:#a6d854;stroke:#ffffff;stroke-linejoin:miter;"/>
   </g>
   <g id="patch_61">
    <path d="M 1713.599989 72.036199 
C 1713.599992 72.030171 1713.599995 72.024142 1713.599997 72.018114 
C 1713.599999 72.012086 1713.6 72.006058 1713.6 72.00003 
L 1656 72 
L 1713.599989 72.036199 
z
" style="fill:#ffd92f;stroke:#ffffff;stroke-linejoin:miter;"/>
   </g>
  </g>
  <g id="text_1">
   <!-- ONN4MST Layer-3 -->
   <defs>
    <path d="M 42.484375 60.59375 
Q 33.890625 60.59375 29.15625 54.25 
Q 24.421875 47.90625 24.421875 36.375 
Q 24.421875 24.90625 29.15625 18.546875 
Q 33.890625 12.203125 42.484375 12.203125 
Q 51.125 12.203125 55.859375 18.546875 
Q 60.59375 24.90625 60.59375 36.375 
Q 60.59375 47.90625 55.859375 54.25 
Q 51.125 60.59375 42.484375 60.59375 
z
M 42.484375 74.21875 
Q 60.0625 74.21875 70.015625 64.15625 
Q 79.984375 54.109375 79.984375 36.375 
Q 79.984375 18.703125 70.015625 8.640625 
Q 60.0625 -1.421875 42.484375 -1.421875 
Q 24.953125 -1.421875 14.96875 8.640625 
Q 4.984375 18.703125 4.984375 36.375 
Q 4.984375 54.109375 14.96875 64.15625 
Q 24.953125 74.21875 42.484375 74.21875 
z
" id="DejaVuSans-Bold-79"/>
    <path d="M 9.1875 72.90625 
L 30.171875 72.90625 
L 56.6875 22.90625 
L 56.6875 72.90625 
L 74.515625 72.90625 
L 74.515625 0 
L 53.515625 0 
L 27 50 
L 27 0 
L 9.1875 0 
z
" id="DejaVuSans-Bold-78"/>
    <path d="M 36.8125 57.421875 
L 16.21875 26.90625 
L 36.8125 26.90625 
z
M 33.6875 72.90625 
L 54.59375 72.90625 
L 54.59375 26.90625 
L 64.984375 26.90625 
L 64.984375 13.28125 
L 54.59375 13.28125 
L 54.59375 0 
L 36.8125 0 
L 36.8125 13.28125 
L 4.5 13.28125 
L 4.5 29.390625 
z
" id="DejaVuSans-Bold-52"/>
    <path d="M 9.1875 72.90625 
L 33.109375 72.90625 
L 49.703125 33.890625 
L 66.40625 72.90625 
L 90.28125 72.90625 
L 90.28125 0 
L 72.515625 0 
L 72.515625 53.328125 
L 55.71875 14.015625 
L 43.796875 14.015625 
L 27 53.328125 
L 27 0 
L 9.1875 0 
z
" id="DejaVuSans-Bold-77"/>
    <path d="M 59.90625 70.609375 
L 59.90625 55.171875 
Q 53.90625 57.859375 48.1875 59.21875 
Q 42.484375 60.59375 37.40625 60.59375 
Q 30.671875 60.59375 27.4375 58.734375 
Q 24.21875 56.890625 24.21875 52.984375 
Q 24.21875 50.046875 26.390625 48.40625 
Q 28.5625 46.78125 34.28125 45.609375 
L 42.28125 44 
Q 54.4375 41.546875 59.5625 36.5625 
Q 64.703125 31.59375 64.703125 22.40625 
Q 64.703125 10.359375 57.546875 4.46875 
Q 50.390625 -1.421875 35.6875 -1.421875 
Q 28.765625 -1.421875 21.78125 -0.09375 
Q 14.796875 1.21875 7.8125 3.8125 
L 7.8125 19.671875 
Q 14.796875 15.96875 21.3125 14.078125 
Q 27.828125 12.203125 33.890625 12.203125 
Q 40.046875 12.203125 43.3125 14.25 
Q 46.578125 16.3125 46.578125 20.125 
Q 46.578125 23.53125 44.359375 25.390625 
Q 42.140625 27.25 35.5 28.71875 
L 28.21875 30.328125 
Q 17.28125 32.671875 12.21875 37.796875 
Q 7.171875 42.921875 7.171875 51.609375 
Q 7.171875 62.5 14.203125 68.359375 
Q 21.234375 74.21875 34.421875 74.21875 
Q 40.4375 74.21875 46.78125 73.3125 
Q 53.125 72.40625 59.90625 70.609375 
z
" id="DejaVuSans-Bold-83"/>
    <path d="M 0.484375 72.90625 
L 67.671875 72.90625 
L 67.671875 58.6875 
L 43.5 58.6875 
L 43.5 0 
L 24.703125 0 
L 24.703125 58.6875 
L 0.484375 58.6875 
z
" id="DejaVuSans-Bold-84"/>
    <path id="DejaVuSans-Bold-32"/>
    <path d="M 9.1875 72.90625 
L 27.984375 72.90625 
L 27.984375 14.203125 
L 60.984375 14.203125 
L 60.984375 0 
L 9.1875 0 
z
" id="DejaVuSans-Bold-76"/>
    <path d="M 32.90625 24.609375 
Q 27.4375 24.609375 24.671875 22.75 
Q 21.921875 20.90625 21.921875 17.28125 
Q 21.921875 13.96875 24.140625 12.078125 
Q 26.375 10.203125 30.328125 10.203125 
Q 35.25 10.203125 38.625 13.734375 
Q 42 17.28125 42 22.609375 
L 42 24.609375 
z
M 59.625 31.203125 
L 59.625 0 
L 42 0 
L 42 8.109375 
Q 38.484375 3.125 34.078125 0.84375 
Q 29.6875 -1.421875 23.390625 -1.421875 
Q 14.890625 -1.421875 9.59375 3.53125 
Q 4.296875 8.5 4.296875 16.40625 
Q 4.296875 26.03125 10.90625 30.515625 
Q 17.53125 35.015625 31.6875 35.015625 
L 42 35.015625 
L 42 36.375 
Q 42 40.53125 38.71875 42.453125 
Q 35.453125 44.390625 28.515625 44.390625 
Q 22.90625 44.390625 18.0625 43.265625 
Q 13.234375 42.140625 9.078125 39.890625 
L 9.078125 53.21875 
Q 14.703125 54.59375 20.359375 55.296875 
Q 26.03125 56 31.6875 56 
Q 46.484375 56 53.046875 50.171875 
Q 59.625 44.34375 59.625 31.203125 
z
" id="DejaVuSans-Bold-97"/>
    <path d="M 1.21875 54.6875 
L 18.703125 54.6875 
L 33.40625 17.578125 
L 45.90625 54.6875 
L 63.375 54.6875 
L 40.375 -5.171875 
Q 36.921875 -14.3125 32.296875 -17.9375 
Q 27.6875 -21.578125 20.125 -21.578125 
L 10.015625 -21.578125 
L 10.015625 -10.109375 
L 15.484375 -10.109375 
Q 19.921875 -10.109375 21.9375 -8.6875 
Q 23.96875 -7.28125 25.09375 -3.609375 
L 25.59375 -2.09375 
z
" id="DejaVuSans-Bold-121"/>
    <path d="M 62.984375 27.484375 
L 62.984375 22.515625 
L 22.125 22.515625 
Q 22.75 16.359375 26.5625 13.28125 
Q 30.375 10.203125 37.203125 10.203125 
Q 42.71875 10.203125 48.5 11.84375 
Q 54.296875 13.484375 60.40625 16.796875 
L 60.40625 3.328125 
Q 54.203125 0.984375 48 -0.21875 
Q 41.796875 -1.421875 35.59375 -1.421875 
Q 20.75 -1.421875 12.515625 6.125 
Q 4.296875 13.671875 4.296875 27.296875 
Q 4.296875 40.671875 12.375 48.328125 
Q 20.453125 56 34.625 56 
Q 47.515625 56 55.25 48.234375 
Q 62.984375 40.484375 62.984375 27.484375 
z
M 45.015625 33.296875 
Q 45.015625 38.28125 42.109375 41.328125 
Q 39.203125 44.390625 34.515625 44.390625 
Q 29.4375 44.390625 26.265625 41.53125 
Q 23.09375 38.671875 22.3125 33.296875 
z
" id="DejaVuSans-Bold-101"/>
    <path d="M 49.03125 39.796875 
Q 46.734375 40.875 44.453125 41.375 
Q 42.1875 41.890625 39.890625 41.890625 
Q 33.15625 41.890625 29.515625 37.5625 
Q 25.875 33.25 25.875 25.203125 
L 25.875 0 
L 8.40625 0 
L 8.40625 54.6875 
L 25.875 54.6875 
L 25.875 45.703125 
Q 29.25 51.078125 33.609375 53.53125 
Q 37.984375 56 44.09375 56 
Q 44.96875 56 45.984375 55.921875 
Q 47.015625 55.859375 48.96875 55.609375 
z
" id="DejaVuSans-Bold-114"/>
    <path d="M 5.421875 35.890625 
L 36.078125 35.890625 
L 36.078125 21.6875 
L 5.421875 21.6875 
z
" id="DejaVuSans-Bold-45"/>
    <path d="M 46.578125 39.3125 
Q 53.953125 37.40625 57.78125 32.6875 
Q 61.625 27.984375 61.625 20.703125 
Q 61.625 9.859375 53.3125 4.21875 
Q 45.015625 -1.421875 29.109375 -1.421875 
Q 23.484375 -1.421875 17.84375 -0.515625 
Q 12.203125 0.390625 6.6875 2.203125 
L 6.6875 16.703125 
Q 11.96875 14.0625 17.15625 12.71875 
Q 22.359375 11.375 27.390625 11.375 
Q 34.859375 11.375 38.84375 13.953125 
Q 42.828125 16.546875 42.828125 21.390625 
Q 42.828125 26.375 38.75 28.9375 
Q 34.671875 31.5 26.703125 31.5 
L 19.1875 31.5 
L 19.1875 43.609375 
L 27.09375 43.609375 
Q 34.1875 43.609375 37.640625 45.828125 
Q 41.109375 48.046875 41.109375 52.59375 
Q 41.109375 56.78125 37.734375 59.078125 
Q 34.375 61.375 28.21875 61.375 
Q 23.6875 61.375 19.046875 60.34375 
Q 14.40625 59.328125 9.8125 57.328125 
L 9.8125 71.09375 
Q 15.375 72.65625 20.84375 73.4375 
Q 26.3125 74.21875 31.59375 74.21875 
Q 45.796875 74.21875 52.84375 69.546875 
Q 59.90625 64.890625 59.90625 55.515625 
Q 59.90625 49.125 56.53125 45.046875 
Q 53.171875 40.96875 46.578125 39.3125 
z
" id="DejaVuSans-Bold-51"/>
   </defs>
   <g style="fill:#262626;" transform="translate(787.648828 17.040469)scale(0.15 -0.15)">
    <use xlink:href="#DejaVuSans-Bold-79"/>
    <use x="85.009766" xlink:href="#DejaVuSans-Bold-78"/>
    <use x="168.701172" xlink:href="#DejaVuSans-Bold-78"/>
    <use x="252.392578" xlink:href="#DejaVuSans-Bold-52"/>
    <use x="321.972656" xlink:href="#DejaVuSans-Bold-77"/>
    <use x="421.484375" xlink:href="#DejaVuSans-Bold-83"/>
    <use x="493.505859" xlink:href="#DejaVuSans-Bold-84"/>
    <use x="561.71875" xlink:href="#DejaVuSans-Bold-32"/>
    <use x="596.533203" xlink:href="#DejaVuSans-Bold-76"/>
    <use x="660.253906" xlink:href="#DejaVuSans-Bold-97"/>
    <use x="724.609375" xlink:href="#DejaVuSans-Bold-121"/>
    <use x="789.794922" xlink:href="#DejaVuSans-Bold-101"/>
    <use x="857.617188" xlink:href="#DejaVuSans-Bold-114"/>
    <use x="906.933594" xlink:href="#DejaVuSans-Bold-45"/>
    <use x="948.4375" xlink:href="#DejaVuSans-Bold-51"/>
   </g>
  </g>
  <g id="legend_1">
   <g id="patch_62">
    <path d="M 770.12 146.01625 
L 884.165313 146.01625 
Q 886.965313 146.01625 886.965313 143.21625 
L 886.965313 21.32 
Q 886.965313 18.52 884.165313 18.52 
L 770.12 18.52 
Q 767.32 18.52 767.32 21.32 
L 767.32 143.21625 
Q 767.32 146.01625 770.12 146.01625 
z
" style="fill:none;opacity:0;"/>
   </g>
   <g id="patch_63">
    <path d="M 772.92 34.757812 
L 800.92 34.757812 
L 800.92 24.957812 
L 772.92 24.957812 
z
" style="fill:#66c2a5;stroke:#ffffff;stroke-linejoin:miter;"/>
   </g>
   <g id="text_2">
    <!-- Aquatic -->
    <defs>
     <path d="M 34.1875 63.1875 
L 20.796875 26.90625 
L 47.609375 26.90625 
z
M 28.609375 72.90625 
L 39.796875 72.90625 
L 67.578125 0 
L 57.328125 0 
L 50.6875 18.703125 
L 17.828125 18.703125 
L 11.1875 0 
L 0.78125 0 
z
" id="DejaVuSans-65"/>
     <path d="M 14.796875 27.296875 
Q 14.796875 17.390625 18.875 11.75 
Q 22.953125 6.109375 30.078125 6.109375 
Q 37.203125 6.109375 41.296875 11.75 
Q 45.40625 17.390625 45.40625 27.296875 
Q 45.40625 37.203125 41.296875 42.84375 
Q 37.203125 48.484375 30.078125 48.484375 
Q 22.953125 48.484375 18.875 42.84375 
Q 14.796875 37.203125 14.796875 27.296875 
z
M 45.40625 8.203125 
Q 42.578125 3.328125 38.25 0.953125 
Q 33.9375 -1.421875 27.875 -1.421875 
Q 17.96875 -1.421875 11.734375 6.484375 
Q 5.515625 14.40625 5.515625 27.296875 
Q 5.515625 40.1875 11.734375 48.09375 
Q 17.96875 56 27.875 56 
Q 33.9375 56 38.25 53.625 
Q 42.578125 51.265625 45.40625 46.390625 
L 45.40625 54.6875 
L 54.390625 54.6875 
L 54.390625 -20.796875 
L 45.40625 -20.796875 
z
" id="DejaVuSans-113"/>
     <path d="M 8.5 21.578125 
L 8.5 54.6875 
L 17.484375 54.6875 
L 17.484375 21.921875 
Q 17.484375 14.15625 20.5 10.265625 
Q 23.53125 6.390625 29.59375 6.390625 
Q 36.859375 6.390625 41.078125 11.03125 
Q 45.3125 15.671875 45.3125 23.6875 
L 45.3125 54.6875 
L 54.296875 54.6875 
L 54.296875 0 
L 45.3125 0 
L 45.3125 8.40625 
Q 42.046875 3.421875 37.71875 1 
Q 33.40625 -1.421875 27.6875 -1.421875 
Q 18.265625 -1.421875 13.375 4.4375 
Q 8.5 10.296875 8.5 21.578125 
z
M 31.109375 56 
z
" id="DejaVuSans-117"/>
     <path d="M 34.28125 27.484375 
Q 23.390625 27.484375 19.1875 25 
Q 14.984375 22.515625 14.984375 16.5 
Q 14.984375 11.71875 18.140625 8.90625 
Q 21.296875 6.109375 26.703125 6.109375 
Q 34.1875 6.109375 38.703125 11.40625 
Q 43.21875 16.703125 43.21875 25.484375 
L 43.21875 27.484375 
z
M 52.203125 31.203125 
L 52.203125 0 
L 43.21875 0 
L 43.21875 8.296875 
Q 40.140625 3.328125 35.546875 0.953125 
Q 30.953125 -1.421875 24.3125 -1.421875 
Q 15.921875 -1.421875 10.953125 3.296875 
Q 6 8.015625 6 15.921875 
Q 6 25.140625 12.171875 29.828125 
Q 18.359375 34.515625 30.609375 34.515625 
L 43.21875 34.515625 
L 43.21875 35.40625 
Q 43.21875 41.609375 39.140625 45 
Q 35.0625 48.390625 27.6875 48.390625 
Q 23 48.390625 18.546875 47.265625 
Q 14.109375 46.140625 10.015625 43.890625 
L 10.015625 52.203125 
Q 14.9375 54.109375 19.578125 55.046875 
Q 24.21875 56 28.609375 56 
Q 40.484375 56 46.34375 49.84375 
Q 52.203125 43.703125 52.203125 31.203125 
z
" id="DejaVuSans-97"/>
     <path d="M 18.3125 70.21875 
L 18.3125 54.6875 
L 36.8125 54.6875 
L 36.8125 47.703125 
L 18.3125 47.703125 
L 18.3125 18.015625 
Q 18.3125 11.328125 20.140625 9.421875 
Q 21.96875 7.515625 27.59375 7.515625 
L 36.8125 7.515625 
L 36.8125 0 
L 27.59375 0 
Q 17.1875 0 13.234375 3.875 
Q 9.28125 7.765625 9.28125 18.015625 
L 9.28125 47.703125 
L 2.6875 47.703125 
L 2.6875 54.6875 
L 9.28125 54.6875 
L 9.28125 70.21875 
z
" id="DejaVuSans-116"/>
     <path d="M 9.421875 54.6875 
L 18.40625 54.6875 
L 18.40625 0 
L 9.421875 0 
z
M 9.421875 75.984375 
L 18.40625 75.984375 
L 18.40625 64.59375 
L 9.421875 64.59375 
z
" id="DejaVuSans-105"/>
     <path d="M 48.78125 52.59375 
L 48.78125 44.1875 
Q 44.96875 46.296875 41.140625 47.34375 
Q 37.3125 48.390625 33.40625 48.390625 
Q 24.65625 48.390625 19.8125 42.84375 
Q 14.984375 37.3125 14.984375 27.296875 
Q 14.984375 17.28125 19.8125 11.734375 
Q 24.65625 6.203125 33.40625 6.203125 
Q 37.3125 6.203125 41.140625 7.25 
Q 44.96875 8.296875 48.78125 10.40625 
L 48.78125 2.09375 
Q 45.015625 0.34375 40.984375 -0.53125 
Q 36.96875 -1.421875 32.421875 -1.421875 
Q 20.0625 -1.421875 12.78125 6.34375 
Q 5.515625 14.109375 5.515625 27.296875 
Q 5.515625 40.671875 12.859375 48.328125 
Q 20.21875 56 33.015625 56 
Q 37.15625 56 41.109375 55.140625 
Q 45.0625 54.296875 48.78125 52.59375 
z
" id="DejaVuSans-99"/>
    </defs>
    <g style="fill:#262626;" transform="translate(812.12 34.757812)scale(0.14 -0.14)">
     <use xlink:href="#DejaVuSans-65"/>
     <use x="66.658203" xlink:href="#DejaVuSans-113"/>
     <use x="130.134766" xlink:href="#DejaVuSans-117"/>
     <use x="193.513672" xlink:href="#DejaVuSans-97"/>
     <use x="254.792969" xlink:href="#DejaVuSans-116"/>
     <use x="294.001953" xlink:href="#DejaVuSans-105"/>
     <use x="321.785156" xlink:href="#DejaVuSans-99"/>
    </g>
   </g>
   <g id="patch_64">
    <path d="M 772.92 55.307187 
L 800.92 55.307187 
L 800.92 45.507188 
L 772.92 45.507188 
z
" style="fill:#fc8d62;stroke:#ffffff;stroke-linejoin:miter;"/>
   </g>
   <g id="text_3">
    <!-- Terrestrial -->
    <defs>
     <path d="M -0.296875 72.90625 
L 61.375 72.90625 
L 61.375 64.59375 
L 35.5 64.59375 
L 35.5 0 
L 25.59375 0 
L 25.59375 64.59375 
L -0.296875 64.59375 
z
" id="DejaVuSans-84"/>
     <path d="M 56.203125 29.59375 
L 56.203125 25.203125 
L 14.890625 25.203125 
Q 15.484375 15.921875 20.484375 11.0625 
Q 25.484375 6.203125 34.421875 6.203125 
Q 39.59375 6.203125 44.453125 7.46875 
Q 49.3125 8.734375 54.109375 11.28125 
L 54.109375 2.78125 
Q 49.265625 0.734375 44.1875 -0.34375 
Q 39.109375 -1.421875 33.890625 -1.421875 
Q 20.796875 -1.421875 13.15625 6.1875 
Q 5.515625 13.8125 5.515625 26.8125 
Q 5.515625 40.234375 12.765625 48.109375 
Q 20.015625 56 32.328125 56 
Q 43.359375 56 49.78125 48.890625 
Q 56.203125 41.796875 56.203125 29.59375 
z
M 47.21875 32.234375 
Q 47.125 39.59375 43.09375 43.984375 
Q 39.0625 48.390625 32.421875 48.390625 
Q 24.90625 48.390625 20.390625 44.140625 
Q 15.875 39.890625 15.1875 32.171875 
z
" id="DejaVuSans-101"/>
     <path d="M 41.109375 46.296875 
Q 39.59375 47.171875 37.8125 47.578125 
Q 36.03125 48 33.890625 48 
Q 26.265625 48 22.1875 43.046875 
Q 18.109375 38.09375 18.109375 28.8125 
L 18.109375 0 
L 9.078125 0 
L 9.078125 54.6875 
L 18.109375 54.6875 
L 18.109375 46.1875 
Q 20.953125 51.171875 25.484375 53.578125 
Q 30.03125 56 36.53125 56 
Q 37.453125 56 38.578125 55.875 
Q 39.703125 55.765625 41.0625 55.515625 
z
" id="DejaVuSans-114"/>
     <path d="M 44.28125 53.078125 
L 44.28125 44.578125 
Q 40.484375 46.53125 36.375 47.5 
Q 32.28125 48.484375 27.875 48.484375 
Q 21.1875 48.484375 17.84375 46.4375 
Q 14.5 44.390625 14.5 40.28125 
Q 14.5 37.15625 16.890625 35.375 
Q 19.28125 33.59375 26.515625 31.984375 
L 29.59375 31.296875 
Q 39.15625 29.25 43.1875 25.515625 
Q 47.21875 21.78125 47.21875 15.09375 
Q 47.21875 7.46875 41.1875 3.015625 
Q 35.15625 -1.421875 24.609375 -1.421875 
Q 20.21875 -1.421875 15.453125 -0.5625 
Q 10.6875 0.296875 5.421875 2 
L 5.421875 11.28125 
Q 10.40625 8.6875 15.234375 7.390625 
Q 20.0625 6.109375 24.8125 6.109375 
Q 31.15625 6.109375 34.5625 8.28125 
Q 37.984375 10.453125 37.984375 14.40625 
Q 37.984375 18.0625 35.515625 20.015625 
Q 33.0625 21.96875 24.703125 23.78125 
L 21.578125 24.515625 
Q 13.234375 26.265625 9.515625 29.90625 
Q 5.8125 33.546875 5.8125 39.890625 
Q 5.8125 47.609375 11.28125 51.796875 
Q 16.75 56 26.8125 56 
Q 31.78125 56 36.171875 55.265625 
Q 40.578125 54.546875 44.28125 53.078125 
z
" id="DejaVuSans-115"/>
     <path d="M 9.421875 75.984375 
L 18.40625 75.984375 
L 18.40625 0 
L 9.421875 0 
z
" id="DejaVuSans-108"/>
    </defs>
    <g style="fill:#262626;" transform="translate(812.12 55.307187)scale(0.14 -0.14)">
     <use xlink:href="#DejaVuSans-84"/>
     <use x="44.083984" xlink:href="#DejaVuSans-101"/>
     <use x="105.607422" xlink:href="#DejaVuSans-114"/>
     <use x="144.970703" xlink:href="#DejaVuSans-114"/>
     <use x="183.833984" xlink:href="#DejaVuSans-101"/>
     <use x="245.357422" xlink:href="#DejaVuSans-115"/>
     <use x="297.457031" xlink:href="#DejaVuSans-116"/>
     <use x="336.666016" xlink:href="#DejaVuSans-114"/>
     <use x="377.779297" xlink:href="#DejaVuSans-105"/>
     <use x="405.5625" xlink:href="#DejaVuSans-97"/>
     <use x="466.841797" xlink:href="#DejaVuSans-108"/>
    </g>
   </g>
   <g id="patch_65">
    <path d="M 772.92 75.856562 
L 800.92 75.856562 
L 800.92 66.056562 
L 772.92 66.056562 
z
" style="fill:#8da0cb;stroke:#ffffff;stroke-linejoin:miter;"/>
   </g>
   <g id="text_4">
    <!-- Human -->
    <defs>
     <path d="M 9.8125 72.90625 
L 19.671875 72.90625 
L 19.671875 43.015625 
L 55.515625 43.015625 
L 55.515625 72.90625 
L 65.375 72.90625 
L 65.375 0 
L 55.515625 0 
L 55.515625 34.71875 
L 19.671875 34.71875 
L 19.671875 0 
L 9.8125 0 
z
" id="DejaVuSans-72"/>
     <path d="M 52 44.1875 
Q 55.375 50.25 60.0625 53.125 
Q 64.75 56 71.09375 56 
Q 79.640625 56 84.28125 50.015625 
Q 88.921875 44.046875 88.921875 33.015625 
L 88.921875 0 
L 79.890625 0 
L 79.890625 32.71875 
Q 79.890625 40.578125 77.09375 44.375 
Q 74.3125 48.1875 68.609375 48.1875 
Q 61.625 48.1875 57.5625 43.546875 
Q 53.515625 38.921875 53.515625 30.90625 
L 53.515625 0 
L 44.484375 0 
L 44.484375 32.71875 
Q 44.484375 40.625 41.703125 44.40625 
Q 38.921875 48.1875 33.109375 48.1875 
Q 26.21875 48.1875 22.15625 43.53125 
Q 18.109375 38.875 18.109375 30.90625 
L 18.109375 0 
L 9.078125 0 
L 9.078125 54.6875 
L 18.109375 54.6875 
L 18.109375 46.1875 
Q 21.1875 51.21875 25.484375 53.609375 
Q 29.78125 56 35.6875 56 
Q 41.65625 56 45.828125 52.96875 
Q 50 49.953125 52 44.1875 
z
" id="DejaVuSans-109"/>
     <path d="M 54.890625 33.015625 
L 54.890625 0 
L 45.90625 0 
L 45.90625 32.71875 
Q 45.90625 40.484375 42.875 44.328125 
Q 39.84375 48.1875 33.796875 48.1875 
Q 26.515625 48.1875 22.3125 43.546875 
Q 18.109375 38.921875 18.109375 30.90625 
L 18.109375 0 
L 9.078125 0 
L 9.078125 54.6875 
L 18.109375 54.6875 
L 18.109375 46.1875 
Q 21.34375 51.125 25.703125 53.5625 
Q 30.078125 56 35.796875 56 
Q 45.21875 56 50.046875 50.171875 
Q 54.890625 44.34375 54.890625 33.015625 
z
" id="DejaVuSans-110"/>
    </defs>
    <g style="fill:#262626;" transform="translate(812.12 75.856562)scale(0.14 -0.14)">
     <use xlink:href="#DejaVuSans-72"/>
     <use x="75.195312" xlink:href="#DejaVuSans-117"/>
     <use x="138.574219" xlink:href="#DejaVuSans-109"/>
     <use x="235.986328" xlink:href="#DejaVuSans-97"/>
     <use x="297.265625" xlink:href="#DejaVuSans-110"/>
    </g>
   </g>
   <g id="patch_66">
    <path d="M 772.92 96.405937 
L 800.92 96.405937 
L 800.92 86.605937 
L 772.92 86.605937 
z
" style="fill:#e78ac3;stroke:#ffffff;stroke-linejoin:miter;"/>
   </g>
   <g id="text_5">
    <!-- Mammals -->
    <defs>
     <path d="M 9.8125 72.90625 
L 24.515625 72.90625 
L 43.109375 23.296875 
L 61.8125 72.90625 
L 76.515625 72.90625 
L 76.515625 0 
L 66.890625 0 
L 66.890625 64.015625 
L 48.09375 14.015625 
L 38.1875 14.015625 
L 19.390625 64.015625 
L 19.390625 0 
L 9.8125 0 
z
" id="DejaVuSans-77"/>
    </defs>
    <g style="fill:#262626;" transform="translate(812.12 96.405937)scale(0.14 -0.14)">
     <use xlink:href="#DejaVuSans-77"/>
     <use x="86.279297" xlink:href="#DejaVuSans-97"/>
     <use x="147.558594" xlink:href="#DejaVuSans-109"/>
     <use x="244.970703" xlink:href="#DejaVuSans-109"/>
     <use x="342.382812" xlink:href="#DejaVuSans-97"/>
     <use x="403.662109" xlink:href="#DejaVuSans-108"/>
     <use x="431.445312" xlink:href="#DejaVuSans-115"/>
    </g>
   </g>
   <g id="patch_67">
    <path d="M 772.92 116.955312 
L 800.92 116.955312 
L 800.92 107.155312 
L 772.92 107.155312 
z
" style="fill:#a6d854;stroke:#ffffff;stroke-linejoin:miter;"/>
   </g>
   <g id="text_6">
    <!-- Plants -->
    <defs>
     <path d="M 19.671875 64.796875 
L 19.671875 37.40625 
L 32.078125 37.40625 
Q 38.96875 37.40625 42.71875 40.96875 
Q 46.484375 44.53125 46.484375 51.125 
Q 46.484375 57.671875 42.71875 61.234375 
Q 38.96875 64.796875 32.078125 64.796875 
z
M 9.8125 72.90625 
L 32.078125 72.90625 
Q 44.34375 72.90625 50.609375 67.359375 
Q 56.890625 61.8125 56.890625 51.125 
Q 56.890625 40.328125 50.609375 34.8125 
Q 44.34375 29.296875 32.078125 29.296875 
L 19.671875 29.296875 
L 19.671875 0 
L 9.8125 0 
z
" id="DejaVuSans-80"/>
    </defs>
    <g style="fill:#262626;" transform="translate(812.12 116.955312)scale(0.14 -0.14)">
     <use xlink:href="#DejaVuSans-80"/>
     <use x="60.302734" xlink:href="#DejaVuSans-108"/>
     <use x="88.085938" xlink:href="#DejaVuSans-97"/>
     <use x="149.365234" xlink:href="#DejaVuSans-110"/>
     <use x="212.744141" xlink:href="#DejaVuSans-116"/>
     <use x="251.953125" xlink:href="#DejaVuSans-115"/>
    </g>
   </g>
   <g id="patch_68">
    <path d="M 772.92 137.504687 
L 800.92 137.504687 
L 800.92 127.704687 
L 772.92 127.704687 
z
" style="fill:#ffd92f;stroke:#ffffff;stroke-linejoin:miter;"/>
   </g>
   <g id="text_7">
    <!-- Others -->
    <defs>
     <path d="M 39.40625 66.21875 
Q 28.65625 66.21875 22.328125 58.203125 
Q 16.015625 50.203125 16.015625 36.375 
Q 16.015625 22.609375 22.328125 14.59375 
Q 28.65625 6.59375 39.40625 6.59375 
Q 50.140625 6.59375 56.421875 14.59375 
Q 62.703125 22.609375 62.703125 36.375 
Q 62.703125 50.203125 56.421875 58.203125 
Q 50.140625 66.21875 39.40625 66.21875 
z
M 39.40625 74.21875 
Q 54.734375 74.21875 63.90625 63.9375 
Q 73.09375 53.65625 73.09375 36.375 
Q 73.09375 19.140625 63.90625 8.859375 
Q 54.734375 -1.421875 39.40625 -1.421875 
Q 24.03125 -1.421875 14.8125 8.828125 
Q 5.609375 19.09375 5.609375 36.375 
Q 5.609375 53.65625 14.8125 63.9375 
Q 24.03125 74.21875 39.40625 74.21875 
z
" id="DejaVuSans-79"/>
     <path d="M 54.890625 33.015625 
L 54.890625 0 
L 45.90625 0 
L 45.90625 32.71875 
Q 45.90625 40.484375 42.875 44.328125 
Q 39.84375 48.1875 33.796875 48.1875 
Q 26.515625 48.1875 22.3125 43.546875 
Q 18.109375 38.921875 18.109375 30.90625 
L 18.109375 0 
L 9.078125 0 
L 9.078125 75.984375 
L 18.109375 75.984375 
L 18.109375 46.1875 
Q 21.34375 51.125 25.703125 53.5625 
Q 30.078125 56 35.796875 56 
Q 45.21875 56 50.046875 50.171875 
Q 54.890625 44.34375 54.890625 33.015625 
z
" id="DejaVuSans-104"/>
    </defs>
    <g style="fill:#262626;" transform="translate(812.12 137.504687)scale(0.14 -0.14)">
     <use xlink:href="#DejaVuSans-79"/>
     <use x="78.710938" xlink:href="#DejaVuSans-116"/>
     <use x="117.919922" xlink:href="#DejaVuSans-104"/>
     <use x="181.298828" xlink:href="#DejaVuSans-101"/>
     <use x="242.822266" xlink:href="#DejaVuSans-114"/>
     <use x="283.935547" xlink:href="#DejaVuSans-115"/>
    </g>
   </g>
  </g>
 </g>
</svg>
