<?xml version="1.0" encoding="utf-8" standalone="no"?>
<!DOCTYPE svg PUBLIC "-//W3C//DTD SVG 1.1//EN"
  "http://www.w3.org/Graphics/SVG/1.1/DTD/svg11.dtd">
<!-- Created with matplotlib (https://matplotlib.org/) -->
<svg height="144pt" version="1.1" viewBox="0 0 1728 144" width="1728pt" xmlns="http://www.w3.org/2000/svg" xmlns:xlink="http://www.w3.org/1999/xlink">
 <defs>
  <style type="text/css">
*{stroke-linecap:butt;stroke-linejoin:round;}
  </style>
 </defs>
 <g id="figure_1">
  <g id="patch_1">
   <path d="M 0 144 
L 1728 144 
L 1728 0 
L 0 0 
z
" style="fill:#ffffff;"/>
  </g>
  <g id="axes_1">
   <g id="patch_2">
    <path d="M 129.6 72 
C 129.6 71.982905 129.599992 71.96581 129.599977 71.948716 
C 129.599962 71.931621 129.599939 71.914526 129.599909 71.897432 
L 72 72 
L 129.6 72 
z
" style="fill:#66c2a5;stroke:#ffffff;stroke-linejoin:miter;"/>
   </g>
   <g id="patch_3">
    <path d="M 129.599909 71.897432 
C 129.574382 57.562072 124.198115 43.740136 114.530499 33.155223 
C 104.862882 22.570311 91.583556 15.96655 77.3092 14.645206 
C 63.034845 13.323862 48.768957 17.377827 37.32262 26.008269 
C 25.876283 34.638711 18.054181 47.238906 15.397654 61.325993 
L 72 72 
L 129.599909 71.897432 
z
" style="fill:#fc8d62;stroke:#ffffff;stroke-linejoin:miter;"/>
   </g>
   <g id="patch_4">
    <path d="M 15.397654 61.325993 
C 13.914133 69.192841 14.086829 77.283257 15.904696 85.079634 
C 17.722562 92.876011 21.145985 100.208461 25.955942 106.607871 
C 30.765899 113.00728 36.857578 118.334202 43.841247 122.247832 
C 50.824916 126.161462 58.548397 128.576519 66.517557 129.338493 
C 74.486718 130.100468 82.527907 129.192756 90.126665 126.673431 
C 97.725424 124.154105 104.716171 120.078065 110.651654 114.706084 
C 116.587137 109.334104 121.338018 102.783243 124.600347 95.472611 
C 127.862676 88.161979 129.565364 80.250879 129.599477 72.245445 
L 72 72 
L 15.397654 61.325993 
z
" style="fill:#8da0cb;stroke:#ffffff;stroke-linejoin:miter;"/>
   </g>
   <g id="patch_5">
    <path d="M 129.599477 72.245445 
C 129.599503 72.239414 129.599528 72.233382 129.599551 72.22735 
C 129.599575 72.221318 129.599598 72.215286 129.59962 72.209255 
L 72 72 
L 129.599477 72.245445 
z
" style="fill:#e78ac3;stroke:#ffffff;stroke-linejoin:miter;"/>
   </g>
   <g id="patch_6">
    <path d="M 129.59962 72.209255 
C 129.599655 72.199535 129.599688 72.189816 129.599718 72.180096 
C 129.599749 72.170377 129.599777 72.160657 129.599802 72.150938 
L 72 72 
L 129.59962 72.209255 
z
" style="fill:#a6d854;stroke:#ffffff;stroke-linejoin:miter;"/>
   </g>
   <g id="patch_7">
    <path d="M 129.599802 72.150938 
C 129.599818 72.144906 129.599833 72.138874 129.599847 72.132842 
C 129.599861 72.126811 129.599874 72.120779 129.599886 72.114747 
L 72 72 
L 129.599802 72.150938 
z
" style="fill:#ffd92f;stroke:#ffffff;stroke-linejoin:miter;"/>
   </g>
  </g>
  <g id="axes_2">
   <g id="patch_8">
    <path d="M 273.6 72 
C 273.6 71.976495 273.599986 71.952989 273.599957 71.929484 
C 273.599928 71.905979 273.599885 71.882473 273.599827 71.858968 
L 216 72 
L 273.6 72 
z
" style="fill:#66c2a5;stroke:#ffffff;stroke-linejoin:miter;"/>
   </g>
   <g id="patch_9">
    <path d="M 273.599827 71.858968 
C 273.57703 62.548105 271.296953 53.380128 266.955634 45.143281 
C 262.614315 36.906435 256.339844 29.843747 248.671687 24.562453 
C 241.003531 19.281159 232.167937 15.937084 222.924574 14.817745 
C 213.68121 13.698406 204.302801 14.836828 195.595685 18.135133 
L 216 72 
L 273.599827 71.858968 
z
" style="fill:#fc8d62;stroke:#ffffff;stroke-linejoin:miter;"/>
   </g>
   <g id="patch_10">
    <path d="M 195.595685 18.135133 
C 185.790862 21.849255 177.183738 28.170933 170.706433 36.415555 
C 164.229127 44.660176 160.124218 54.518974 158.836251 64.924281 
C 157.548284 75.329588 159.125494 85.891718 163.397076 95.466835 
C 167.668657 105.041952 174.474637 113.271461 183.077954 119.26414 
C 191.681272 125.256819 201.759727 128.788237 212.221864 129.475958 
C 222.684001 130.163678 233.138007 127.981944 242.451752 123.167028 
C 251.765498 118.352113 259.590179 111.084339 265.078414 102.150776 
C 270.566649 93.217212 273.512899 82.952428 273.598098 72.468058 
L 216 72 
L 195.595685 18.135133 
z
" style="fill:#8da0cb;stroke:#ffffff;stroke-linejoin:miter;"/>
   </g>
   <g id="patch_11">
    <path d="M 273.598098 72.468058 
C 273.598147 72.462027 273.598195 72.455995 273.598242 72.449963 
C 273.59829 72.443932 273.598336 72.4379 273.598381 72.431868 
L 216 72 
L 273.598098 72.468058 
z
" style="fill:#e78ac3;stroke:#ffffff;stroke-linejoin:miter;"/>
   </g>
   <g id="patch_12">
    <path d="M 273.598381 72.431868 
C 273.598819 72.373418 273.599169 72.314966 273.599429 72.256514 
C 273.599689 72.198063 273.59986 72.13961 273.599943 72.081158 
L 216 72 
L 273.598381 72.431868 
z
" style="fill:#a6d854;stroke:#ffffff;stroke-linejoin:miter;"/>
   </g>
   <g id="patch_13">
    <path d="M 273.599943 72.081158 
C 273.599951 72.075126 273.599959 72.069094 273.599965 72.063062 
C 273.599972 72.057031 273.599978 72.050999 273.599982 72.044967 
L 216 72 
L 273.599943 72.081158 
z
" style="fill:#ffd92f;stroke:#ffffff;stroke-linejoin:miter;"/>
   </g>
  </g>
  <g id="axes_3">
   <g id="patch_14">
    <path d="M 417.6 72 
C 417.6 71.99397 417.599999 71.98794 417.599997 71.98191 
C 417.599995 71.975881 417.599992 71.969851 417.599989 71.963821 
L 360 72 
L 417.6 72 
z
" style="fill:#66c2a5;stroke:#ffffff;stroke-linejoin:miter;"/>
   </g>
   <g id="patch_15">
    <path d="M 417.599989 71.963821 
C 417.595914 65.476204 416.495796 59.035654 414.346156 52.914524 
C 412.196515 46.793394 409.028087 41.079201 404.974856 36.013581 
C 400.921625 30.947962 396.04154 26.603342 390.540969 23.163444 
C 385.040398 19.723546 378.997983 17.237551 372.669243 15.810586 
C 366.340502 14.38362 359.815921 14.036086 353.371405 14.78268 
C 346.926889 15.529273 340.654579 17.35932 334.819714 20.195433 
C 328.984849 23.031545 323.670852 26.833174 319.102438 31.439558 
C 314.534024 36.045943 310.77651 41.391224 307.98879 47.249364 
C 305.20107 53.107503 303.423002 59.394746 302.729775 65.84522 
C 302.036548 72.295695 302.438074 78.817177 303.917374 85.133889 
C 305.396673 91.450602 307.932596 97.472233 311.417905 102.944143 
C 314.903213 108.416054 319.288077 113.260011 324.387071 117.271175 
C 329.486066 121.28234 335.226289 124.403363 341.365002 126.502265 
C 347.503715 128.601166 353.95315 129.647938 360.440578 129.598315 
C 366.928006 129.548692 373.360673 128.403383 379.46656 126.21082 
C 385.572447 124.018258 391.264255 120.809789 396.301292 116.721093 
L 360 72 
L 417.599989 71.963821 
z
" style="fill:#fc8d62;stroke:#ffffff;stroke-linejoin:miter;"/>
   </g>
   <g id="patch_16">
    <path d="M 396.301292 116.721093 
C 402.939993 111.332285 408.29622 104.532242 411.98007 96.81597 
C 415.663919 89.099698 417.583781 80.659088 417.599898 72.108572 
L 360 72 
L 396.301292 116.721093 
z
" style="fill:#8da0cb;stroke:#ffffff;stroke-linejoin:miter;"/>
   </g>
   <g id="patch_17">
    <path d="M 417.599898 72.108572 
C 417.599909 72.102542 417.599919 72.096512 417.599929 72.090482 
C 417.599938 72.084452 417.599947 72.078422 417.599955 72.072392 
L 360 72 
L 417.599898 72.108572 
z
" style="fill:#e78ac3;stroke:#ffffff;stroke-linejoin:miter;"/>
   </g>
   <g id="patch_18">
    <path d="M 417.599955 72.072392 
C 417.599962 72.066363 417.599969 72.060333 417.599974 72.054303 
C 417.59998 72.048273 417.599985 72.042243 417.599989 72.036213 
L 360 72 
L 417.599955 72.072392 
z
" style="fill:#a6d854;stroke:#ffffff;stroke-linejoin:miter;"/>
   </g>
   <g id="patch_19">
    <path d="M 417.599989 72.036213 
C 417.599992 72.030183 417.599995 72.024154 417.599997 72.018124 
C 417.599999 72.012094 417.6 72.006064 417.6 72.000034 
L 360 72 
L 417.599989 72.036213 
z
" style="fill:#ffd92f;stroke:#ffffff;stroke-linejoin:miter;"/>
   </g>
  </g>
  <g id="axes_4">
   <g id="patch_20">
    <path d="M 561.6 72 
C 561.6 71.993971 561.599999 71.987941 561.599997 71.981912 
C 561.599995 71.975882 561.599992 71.969853 561.599989 71.963823 
L 504 72 
L 561.6 72 
z
" style="fill:#66c2a5;stroke:#ffffff;stroke-linejoin:miter;"/>
   </g>
   <g id="patch_21">
    <path d="M 561.599989 71.963823 
C 561.595242 64.406711 560.103303 56.923883 557.209403 49.942815 
C 554.315503 42.961746 550.075818 36.617956 544.732551 31.27385 
C 539.389284 25.929744 533.046161 21.689062 526.065548 18.794064 
C 519.084934 15.899067 511.602341 14.405952 504.045229 14.400018 
C 496.488118 14.394084 489.003188 15.875446 482.018037 18.759477 
C 475.032886 21.643508 468.683111 25.874223 463.331458 31.209932 
C 457.979805 36.54564 453.730163 42.882764 450.825302 49.859279 
C 447.920442 56.835793 446.416754 64.316269 446.400139 71.873365 
C 446.383525 79.430461 447.854307 86.917476 450.728463 93.906696 
C 453.602619 100.895916 457.824356 107.251665 463.152496 112.610853 
C 468.480635 117.970041 474.811747 122.228636 481.784149 125.143353 
C 488.756552 128.05807 496.234895 129.572329 503.79196 129.599624 
C 511.349024 129.626919 518.838111 128.16672 525.831386 125.302444 
C 532.824661 122.438169 539.18637 118.225419 544.553083 112.904859 
C 549.919796 107.584298 554.187334 101.259212 557.111902 94.290936 
C 560.036471 87.32266 561.561298 79.846464 561.599273 72.289445 
L 504 72 
L 561.599989 71.963823 
z
" style="fill:#fc8d62;stroke:#ffffff;stroke-linejoin:miter;"/>
   </g>
   <g id="patch_22">
    <path d="M 561.599273 72.289445 
C 561.599394 72.265328 561.5995 72.24121 561.599591 72.217093 
C 561.599682 72.192975 561.599758 72.168858 561.599818 72.14474 
L 504 72 
L 561.599273 72.289445 
z
" style="fill:#8da0cb;stroke:#ffffff;stroke-linejoin:miter;"/>
   </g>
   <g id="patch_23">
    <path d="M 561.599818 72.14474 
C 561.599848 72.132681 561.599875 72.120622 561.599898 72.108563 
C 561.59992 72.096504 561.599939 72.084446 561.599955 72.072387 
L 504 72 
L 561.599818 72.14474 
z
" style="fill:#e78ac3;stroke:#ffffff;stroke-linejoin:miter;"/>
   </g>
   <g id="patch_24">
    <path d="M 561.599955 72.072387 
C 561.599962 72.066357 561.599969 72.060328 561.599974 72.054298 
C 561.59998 72.048269 561.599985 72.042239 561.599989 72.03621 
L 504 72 
L 561.599955 72.072387 
z
" style="fill:#a6d854;stroke:#ffffff;stroke-linejoin:miter;"/>
   </g>
   <g id="patch_25">
    <path d="M 561.599989 72.03621 
C 561.599992 72.030181 561.599995 72.024151 561.599997 72.018122 
C 561.599999 72.012092 561.6 72.006063 561.6 72.000033 
L 504 72 
L 561.599989 72.03621 
z
" style="fill:#ffd92f;stroke:#ffffff;stroke-linejoin:miter;"/>
   </g>
  </g>
  <g id="axes_5">
   <g id="patch_26">
    <path d="M 705.6 72 
C 705.6 71.993998 705.599999 71.987996 705.599997 71.981994 
C 705.599995 71.975993 705.599992 71.969991 705.599989 71.963989 
L 648 72 
L 705.6 72 
z
" style="fill:#66c2a5;stroke:#ffffff;stroke-linejoin:miter;"/>
   </g>
   <g id="patch_27">
    <path d="M 705.599989 71.963989 
C 705.59532 64.496966 704.138706 57.101604 701.311417 50.190534 
C 698.484129 43.279464 694.339747 36.983656 689.109509 31.65439 
C 683.879272 26.325124 677.662299 22.063395 670.805469 19.106989 
C 663.948639 16.150583 656.581896 14.555527 649.116274 14.410818 
C 641.650652 14.266108 634.227631 15.574489 627.261384 18.262957 
C 620.295138 20.951425 613.917682 24.969031 608.484853 30.09161 
C 603.052023 35.21419 598.666778 41.344664 595.573793 48.140979 
C 592.480809 54.937295 590.738702 62.270654 590.444673 69.731887 
C 590.150644 77.193121 591.310267 84.64083 593.858838 91.659465 
C 596.407409 98.6781 600.296631 105.134651 605.309503 110.668869 
C 610.322374 116.203088 616.363896 120.710095 623.096977 123.93842 
C 629.830057 127.166744 637.127099 129.055205 644.580957 129.498436 
C 652.034815 129.941667 659.504232 128.931267 666.572446 126.523612 
C 673.64066 124.115957 680.173722 120.356675 685.807115 115.455518 
C 691.440508 110.554361 696.067473 104.60421 699.429845 97.937059 
C 702.792218 91.269908 704.826277 84.012105 705.418532 76.568606 
L 648 72 
L 705.599989 71.963989 
z
" style="fill:#fc8d62;stroke:#ffffff;stroke-linejoin:miter;"/>
   </g>
   <g id="patch_28">
    <path d="M 705.418532 76.568606 
C 705.419008 76.562623 705.419483 76.55664 705.419958 76.550657 
C 705.420432 76.544673 705.420905 76.53869 705.421377 76.532707 
L 648 72 
L 705.418532 76.568606 
z
" style="fill:#8da0cb;stroke:#ffffff;stroke-linejoin:miter;"/>
   </g>
   <g id="patch_29">
    <path d="M 705.421377 76.532707 
C 705.432713 76.389109 705.443509 76.245469 705.453767 76.101791 
C 705.464024 75.958112 705.473743 75.814395 705.482923 75.670643 
L 648 72 
L 705.421377 76.532707 
z
" style="fill:#e78ac3;stroke:#ffffff;stroke-linejoin:miter;"/>
   </g>
   <g id="patch_30">
    <path d="M 705.482923 75.670643 
C 705.483305 75.664653 705.483687 75.658664 705.484067 75.652674 
C 705.484448 75.646684 705.484827 75.640694 705.485206 75.634704 
L 648 72 
L 705.482923 75.670643 
z
" style="fill:#a6d854;stroke:#ffffff;stroke-linejoin:miter;"/>
   </g>
   <g id="patch_31">
    <path d="M 705.485206 75.634704 
C 705.523459 75.029713 705.552158 74.424156 705.571294 73.818259 
C 705.59043 73.212362 705.6 72.6062 705.6 72.000001 
L 648 72 
L 705.485206 75.634704 
z
" style="fill:#ffd92f;stroke:#ffffff;stroke-linejoin:miter;"/>
   </g>
  </g>
  <g id="axes_6"/>
  <g id="axes_7"/>
  <g id="axes_8">
   <g id="patch_32">
    <path d="M 1137.6 72 
C 1137.6 60.687253 1134.267233 49.621312 1128.019719 40.19015 
C 1121.772205 30.758987 1112.882545 23.374117 1102.465744 18.961803 
C 1092.048943 14.549489 1080.559522 13.302256 1069.438569 15.37654 
C 1058.317616 17.450825 1048.050376 22.756119 1039.924641 30.626995 
L 1080 72 
L 1137.6 72 
z
" style="fill:#66c2a5;stroke:#ffffff;stroke-linejoin:miter;"/>
   </g>
   <g id="patch_33">
    <path d="M 1039.924641 30.626995 
C 1029.782007 40.451509 1023.597935 53.670758 1022.556783 67.753019 
C 1021.515632 81.83528 1025.6884 95.820247 1034.275929 107.029549 
C 1042.863457 118.23885 1055.280139 125.908094 1069.147959 128.568482 
C 1083.015778 131.228871 1097.389051 128.698986 1109.515039 121.463345 
L 1080 72 
L 1039.924641 30.626995 
z
" style="fill:#fc8d62;stroke:#ffffff;stroke-linejoin:miter;"/>
   </g>
   <g id="patch_34">
    <path d="M 1109.515039 121.463345 
C 1109.53827 121.449483 1109.561491 121.435604 1109.584703 121.42171 
C 1109.607914 121.407815 1109.631116 121.393904 1109.654307 121.379976 
L 1080 72 
L 1109.515039 121.463345 
z
" style="fill:#8da0cb;stroke:#ffffff;stroke-linejoin:miter;"/>
   </g>
   <g id="patch_35">
    <path d="M 1109.654307 121.379976 
C 1111.917469 120.020873 1114.084522 118.507789 1116.140133 116.85143 
C 1118.195745 115.195071 1120.135057 113.399351 1121.944348 111.476976 
L 1080 72 
L 1109.654307 121.379976 
z
" style="fill:#e78ac3;stroke:#ffffff;stroke-linejoin:miter;"/>
   </g>
   <g id="patch_36">
    <path d="M 1121.944348 111.476976 
C 1126.900876 106.210658 1130.821536 100.057668 1133.500923 93.340366 
C 1136.18031 86.623063 1137.570801 79.460843 1137.599545 72.228938 
L 1080 72 
L 1121.944348 111.476976 
z
" style="fill:#a6d854;stroke:#ffffff;stroke-linejoin:miter;"/>
   </g>
   <g id="patch_37">
    <path d="M 1137.599545 72.228938 
C 1137.599569 72.222907 1137.599592 72.216875 1137.599614 72.210843 
C 1137.599636 72.204811 1137.599657 72.198779 1137.599678 72.192747 
L 1080 72 
L 1137.599545 72.228938 
z
" style="fill:#ffd92f;stroke:#ffffff;stroke-linejoin:miter;"/>
   </g>
  </g>
  <g id="axes_9">
   <g id="patch_38">
    <path d="M 1281.6 72 
C 1281.6 71.731857 1281.598128 71.463718 1281.594383 71.195602 
C 1281.590638 70.927485 1281.585021 70.659398 1281.577533 70.39136 
L 1224 72 
L 1281.6 72 
z
" style="fill:#66c2a5;stroke:#ffffff;stroke-linejoin:miter;"/>
   </g>
   <g id="patch_39">
    <path d="M 1281.577533 70.39136 
C 1281.296421 60.329632 1278.382715 50.515175 1273.127957 41.930018 
C 1267.873199 33.344861 1260.4587 26.285226 1251.62635 21.457495 
C 1242.793999 16.629764 1232.848548 14.200514 1222.785133 14.412813 
C 1212.721718 14.625112 1202.887565 17.471636 1194.266675 22.667562 
C 1185.645785 27.863489 1178.535612 35.229539 1173.647596 44.028669 
C 1168.759579 52.827799 1166.262375 62.756405 1166.405852 72.821037 
C 1166.549329 82.885669 1169.328536 92.739057 1174.465389 101.395277 
C 1179.602241 110.051497 1186.919497 117.211875 1195.684995 122.159949 
L 1224 72 
L 1281.577533 70.39136 
z
" style="fill:#fc8d62;stroke:#ffffff;stroke-linejoin:miter;"/>
   </g>
   <g id="patch_40">
    <path d="M 1195.684995 122.159949 
C 1203.865892 126.778019 1213.053703 129.325319 1222.444619 129.578996 
C 1231.835534 129.832673 1241.147466 127.785106 1249.565746 123.61543 
C 1257.984026 119.445754 1265.255784 113.279219 1270.744838 105.655314 
C 1276.233891 98.031409 1279.775359 89.179142 1281.059411 79.87297 
L 1224 72 
L 1195.684995 122.159949 
z
" style="fill:#8da0cb;stroke:#ffffff;stroke-linejoin:miter;"/>
   </g>
   <g id="patch_41">
    <path d="M 1281.059411 79.87297 
C 1281.060235 79.866995 1281.061059 79.861019 1281.061881 79.855044 
C 1281.062704 79.849068 1281.063525 79.843092 1281.064346 79.837117 
L 1224 72 
L 1281.059411 79.87297 
z
" style="fill:#e78ac3;stroke:#ffffff;stroke-linejoin:miter;"/>
   </g>
   <g id="patch_42">
    <path d="M 1281.064346 79.837117 
C 1281.072948 79.774485 1281.081446 79.71184 1281.089842 79.64918 
C 1281.098237 79.586521 1281.10653 79.523847 1281.114719 79.46116 
L 1224 72 
L 1281.064346 79.837117 
z
" style="fill:#a6d854;stroke:#ffffff;stroke-linejoin:miter;"/>
   </g>
   <g id="patch_43">
    <path d="M 1281.114719 79.46116 
C 1281.271779 78.258872 1281.390838 77.051923 1281.471716 75.84212 
C 1281.552594 74.632316 1281.595252 73.42026 1281.599625 72.207764 
L 1224 72 
L 1281.114719 79.46116 
z
" style="fill:#ffd92f;stroke:#ffffff;stroke-linejoin:miter;"/>
   </g>
  </g>
  <g id="axes_10">
   <g id="patch_44">
    <path d="M 1425.6 72 
C 1425.6 71.993972 1425.599999 71.987944 1425.599997 71.981915 
C 1425.599995 71.975887 1425.599992 71.969859 1425.599989 71.963831 
L 1368 72 
L 1425.6 72 
z
" style="fill:#66c2a5;stroke:#ffffff;stroke-linejoin:miter;"/>
   </g>
   <g id="patch_45">
    <path d="M 1425.599989 71.963831 
C 1425.595248 64.41356 1424.106006 56.937373 1421.217189 49.961605 
C 1418.328371 42.985837 1414.095956 36.645658 1408.761298 31.302622 
C 1403.426641 25.959586 1397.093112 21.717225 1390.121886 18.817464 
C 1383.150661 15.917703 1375.67682 14.41673 1368.126567 14.400139 
C 1360.576313 14.383549 1353.095948 15.851662 1346.112047 18.720759 
C 1339.128145 21.589856 1332.776033 25.804343 1327.417947 31.123883 
C 1322.05986 36.443423 1317.799622 42.764941 1314.880177 49.727946 
C 1311.960731 56.690952 1310.438649 64.160522 1310.400727 71.710698 
C 1310.362805 79.260875 1311.809778 86.745358 1314.659132 93.737337 
C 1317.508487 100.729317 1321.705009 107.093311 1327.009391 112.466405 
C 1332.313772 117.839499 1338.623228 122.11758 1345.577957 125.056687 
C 1352.532686 127.995793 1359.997926 129.538973 1367.547966 129.598226 
C 1375.098005 129.657479 1382.586546 128.231657 1389.586548 125.402069 
C 1396.58655 122.57248 1402.962374 118.393954 1408.350434 113.104775 
C 1413.738493 107.815595 1418.034383 101.518251 1420.993126 94.571853 
C 1423.95187 87.625456 1425.516135 80.164605 1425.596719 72.614764 
L 1368 72 
L 1425.599989 71.963831 
z
" style="fill:#fc8d62;stroke:#ffffff;stroke-linejoin:miter;"/>
   </g>
   <g id="patch_46">
    <path d="M 1425.596719 72.614764 
C 1425.597362 72.554501 1425.597911 72.494237 1425.598365 72.433973 
C 1425.598819 72.373708 1425.599179 72.313443 1425.599444 72.253178 
L 1368 72 
L 1425.596719 72.614764 
z
" style="fill:#8da0cb;stroke:#ffffff;stroke-linejoin:miter;"/>
   </g>
   <g id="patch_47">
    <path d="M 1425.599444 72.253178 
C 1425.599576 72.223044 1425.599685 72.19291 1425.59977 72.162776 
C 1425.599855 72.132643 1425.599917 72.102509 1425.599955 72.072375 
L 1368 72 
L 1425.599444 72.253178 
z
" style="fill:#e78ac3;stroke:#ffffff;stroke-linejoin:miter;"/>
   </g>
   <g id="patch_48">
    <path d="M 1425.599955 72.072375 
C 1425.599962 72.066346 1425.599969 72.060318 1425.599974 72.05429 
C 1425.59998 72.048262 1425.599985 72.042233 1425.599989 72.036205 
L 1368 72 
L 1425.599955 72.072375 
z
" style="fill:#a6d854;stroke:#ffffff;stroke-linejoin:miter;"/>
   </g>
   <g id="patch_49">
    <path d="M 1425.599989 72.036205 
C 1425.599992 72.030177 1425.599995 72.024149 1425.599997 72.018121 
C 1425.599999 72.012092 1425.6 72.006064 1425.6 72.000036 
L 1368 72 
L 1425.599989 72.036205 
z
" style="fill:#ffd92f;stroke:#ffffff;stroke-linejoin:miter;"/>
   </g>
  </g>
  <g id="axes_11">
   <g id="patch_50">
    <path d="M 1569.6 72 
C 1569.6 71.993971 1569.599999 71.987943 1569.599997 71.981914 
C 1569.599995 71.975886 1569.599992 71.969857 1569.599989 71.963828 
L 1512 72 
L 1569.6 72 
z
" style="fill:#66c2a5;stroke:#ffffff;stroke-linejoin:miter;"/>
   </g>
   <g id="patch_51">
    <path d="M 1569.599989 71.963828 
C 1569.591625 58.645897 1564.964574 45.73441 1556.511989 35.442609 
C 1548.059403 25.150808 1536.293523 18.102392 1523.231214 15.505577 
C 1510.168905 12.908762 1496.601763 14.920917 1484.855421 21.197128 
C 1473.109079 27.473338 1463.895383 37.633255 1458.793712 49.935301 
L 1512 72 
L 1569.599989 71.963828 
z
" style="fill:#fc8d62;stroke:#ffffff;stroke-linejoin:miter;"/>
   </g>
   <g id="patch_52">
    <path d="M 1458.793712 49.935301 
C 1455.532975 57.798165 1454.055388 66.28695 1454.467568 74.789135 
C 1454.879749 83.29132 1457.171539 91.597369 1461.177571 99.107945 
C 1465.183602 106.618521 1470.805148 113.148526 1477.636575 118.226778 
C 1484.468002 123.30503 1492.340951 126.806376 1500.687336 128.47817 
C 1509.033721 130.149963 1517.647847 129.951004 1525.908147 127.895648 
C 1534.168447 125.840292 1541.871346 121.979193 1548.46103 116.590955 
C 1555.050714 111.202717 1560.36478 104.420134 1564.019784 96.732612 
C 1567.674787 89.04509 1569.580651 80.642089 1569.599853 72.12994 
L 1512 72 
L 1458.793712 49.935301 
z
" style="fill:#8da0cb;stroke:#ffffff;stroke-linejoin:miter;"/>
   </g>
   <g id="patch_53">
    <path d="M 1569.599853 72.12994 
C 1569.599867 72.123912 1569.59988 72.117883 1569.599891 72.111855 
C 1569.599903 72.105826 1569.599914 72.099798 1569.599924 72.093769 
L 1512 72 
L 1569.599853 72.12994 
z
" style="fill:#e78ac3;stroke:#ffffff;stroke-linejoin:miter;"/>
   </g>
   <g id="patch_54">
    <path d="M 1569.599924 72.093769 
C 1569.599939 72.084171 1569.599953 72.074572 1569.599963 72.064974 
C 1569.599974 72.055376 1569.599983 72.045777 1569.599989 72.036179 
L 1512 72 
L 1569.599924 72.093769 
z
" style="fill:#a6d854;stroke:#ffffff;stroke-linejoin:miter;"/>
   </g>
   <g id="patch_55">
    <path d="M 1569.599989 72.036179 
C 1569.599992 72.03015 1569.599995 72.024122 1569.599997 72.018093 
C 1569.599999 72.012064 1569.6 72.006036 1569.6 72.000007 
L 1512 72 
L 1569.599989 72.036179 
z
" style="fill:#ffd92f;stroke:#ffffff;stroke-linejoin:miter;"/>
   </g>
  </g>
  <g id="axes_12">
   <g id="patch_56">
    <path d="M 1713.6 72 
C 1713.6 71.993971 1713.599999 71.987943 1713.599997 71.981914 
C 1713.599995 71.975886 1713.599992 71.969857 1713.599989 71.963828 
L 1656 72 
L 1713.6 72 
z
" style="fill:#66c2a5;stroke:#ffffff;stroke-linejoin:miter;"/>
   </g>
   <g id="patch_57">
    <path d="M 1713.599989 71.963828 
C 1713.594886 63.838255 1711.870441 55.804975 1708.540249 48.393174 
C 1705.210057 40.981373 1700.348885 34.357453 1694.276959 28.95776 
C 1688.205033 23.558068 1681.058673 19.50383 1673.30864 17.062117 
C 1665.558607 14.620404 1657.378898 13.846035 1649.308342 14.790021 
C 1641.237787 15.734006 1633.457579 18.375153 1626.480232 22.539478 
C 1619.502884 26.703802 1613.485047 32.297811 1608.82314 38.953004 
C 1604.161233 45.608197 1600.959921 53.175158 1599.430087 61.15542 
C 1597.900253 69.135682 1598.076243 77.35008 1599.946465 85.257496 
L 1656 72 
L 1713.599989 71.963828 
z
" style="fill:#fc8d62;stroke:#ffffff;stroke-linejoin:miter;"/>
   </g>
   <g id="patch_58">
    <path d="M 1599.946465 85.257496 
C 1603.189951 98.971162 1611.355933 111.028863 1622.886475 119.130186 
C 1634.417017 127.23151 1648.529038 130.826266 1662.530195 129.228634 
C 1676.531352 127.631002 1689.470777 120.949483 1698.879839 110.458802 
C 1708.2889 99.96812 1713.528595 86.380736 1713.599275 72.2889 
L 1656 72 
L 1599.946465 85.257496 
z
" style="fill:#8da0cb;stroke:#ffffff;stroke-linejoin:miter;"/>
   </g>
   <g id="patch_59">
    <path d="M 1713.599275 72.2889 
C 1713.599306 72.282872 1713.599335 72.276843 1713.599363 72.270815 
C 1713.599392 72.264786 1713.599419 72.258758 1713.599446 72.252729 
L 1656 72 
L 1713.599275 72.2889 
z
" style="fill:#e78ac3;stroke:#ffffff;stroke-linejoin:miter;"/>
   </g>
   <g id="patch_60">
    <path d="M 1713.599446 72.252729 
C 1713.599604 72.216642 1713.599728 72.180555 1713.599819 72.144468 
C 1713.599909 72.108381 1713.599966 72.072294 1713.599989 72.036207 
L 1656 72 
L 1713.599446 72.252729 
z
" style="fill:#a6d854;stroke:#ffffff;stroke-linejoin:miter;"/>
   </g>
   <g id="patch_61">
    <path d="M 1713.599989 72.036207 
C 1713.599992 72.030178 1713.599995 72.02415 1713.599997 72.018121 
C 1713.599999 72.012093 1713.6 72.006064 1713.6 72.000035 
L 1656 72 
L 1713.599989 72.036207 
z
" style="fill:#ffd92f;stroke:#ffffff;stroke-linejoin:miter;"/>
   </g>
  </g>
  <g id="text_1">
   <!-- ONN4MST Layer-4 -->
   <defs>
    <path d="M 42.484375 60.59375 
Q 33.890625 60.59375 29.15625 54.25 
Q 24.421875 47.90625 24.421875 36.375 
Q 24.421875 24.90625 29.15625 18.546875 
Q 33.890625 12.203125 42.484375 12.203125 
Q 51.125 12.203125 55.859375 18.546875 
Q 60.59375 24.90625 60.59375 36.375 
Q 60.59375 47.90625 55.859375 54.25 
Q 51.125 60.59375 42.484375 60.59375 
z
M 42.484375 74.21875 
Q 60.0625 74.21875 70.015625 64.15625 
Q 79.984375 54.109375 79.984375 36.375 
Q 79.984375 18.703125 70.015625 8.640625 
Q 60.0625 -1.421875 42.484375 -1.421875 
Q 24.953125 -1.421875 14.96875 8.640625 
Q 4.984375 18.703125 4.984375 36.375 
Q 4.984375 54.109375 14.96875 64.15625 
Q 24.953125 74.21875 42.484375 74.21875 
z
" id="DejaVuSans-Bold-79"/>
    <path d="M 9.1875 72.90625 
L 30.171875 72.90625 
L 56.6875 22.90625 
L 56.6875 72.90625 
L 74.515625 72.90625 
L 74.515625 0 
L 53.515625 0 
L 27 50 
L 27 0 
L 9.1875 0 
z
" id="DejaVuSans-Bold-78"/>
    <path d="M 36.8125 57.421875 
L 16.21875 26.90625 
L 36.8125 26.90625 
z
M 33.6875 72.90625 
L 54.59375 72.90625 
L 54.59375 26.90625 
L 64.984375 26.90625 
L 64.984375 13.28125 
L 54.59375 13.28125 
L 54.59375 0 
L 36.8125 0 
L 36.8125 13.28125 
L 4.5 13.28125 
L 4.5 29.390625 
z
" id="DejaVuSans-Bold-52"/>
    <path d="M 9.1875 72.90625 
L 33.109375 72.90625 
L 49.703125 33.890625 
L 66.40625 72.90625 
L 90.28125 72.90625 
L 90.28125 0 
L 72.515625 0 
L 72.515625 53.328125 
L 55.71875 14.015625 
L 43.796875 14.015625 
L 27 53.328125 
L 27 0 
L 9.1875 0 
z
" id="DejaVuSans-Bold-77"/>
    <path d="M 59.90625 70.609375 
L 59.90625 55.171875 
Q 53.90625 57.859375 48.1875 59.21875 
Q 42.484375 60.59375 37.40625 60.59375 
Q 30.671875 60.59375 27.4375 58.734375 
Q 24.21875 56.890625 24.21875 52.984375 
Q 24.21875 50.046875 26.390625 48.40625 
Q 28.5625 46.78125 34.28125 45.609375 
L 42.28125 44 
Q 54.4375 41.546875 59.5625 36.5625 
Q 64.703125 31.59375 64.703125 22.40625 
Q 64.703125 10.359375 57.546875 4.46875 
Q 50.390625 -1.421875 35.6875 -1.421875 
Q 28.765625 -1.421875 21.78125 -0.09375 
Q 14.796875 1.21875 7.8125 3.8125 
L 7.8125 19.671875 
Q 14.796875 15.96875 21.3125 14.078125 
Q 27.828125 12.203125 33.890625 12.203125 
Q 40.046875 12.203125 43.3125 14.25 
Q 46.578125 16.3125 46.578125 20.125 
Q 46.578125 23.53125 44.359375 25.390625 
Q 42.140625 27.25 35.5 28.71875 
L 28.21875 30.328125 
Q 17.28125 32.671875 12.21875 37.796875 
Q 7.171875 42.921875 7.171875 51.609375 
Q 7.171875 62.5 14.203125 68.359375 
Q 21.234375 74.21875 34.421875 74.21875 
Q 40.4375 74.21875 46.78125 73.3125 
Q 53.125 72.40625 59.90625 70.609375 
z
" id="DejaVuSans-Bold-83"/>
    <path d="M 0.484375 72.90625 
L 67.671875 72.90625 
L 67.671875 58.6875 
L 43.5 58.6875 
L 43.5 0 
L 24.703125 0 
L 24.703125 58.6875 
L 0.484375 58.6875 
z
" id="DejaVuSans-Bold-84"/>
    <path id="DejaVuSans-Bold-32"/>
    <path d="M 9.1875 72.90625 
L 27.984375 72.90625 
L 27.984375 14.203125 
L 60.984375 14.203125 
L 60.984375 0 
L 9.1875 0 
z
" id="DejaVuSans-Bold-76"/>
    <path d="M 32.90625 24.609375 
Q 27.4375 24.609375 24.671875 22.75 
Q 21.921875 20.90625 21.921875 17.28125 
Q 21.921875 13.96875 24.140625 12.078125 
Q 26.375 10.203125 30.328125 10.203125 
Q 35.25 10.203125 38.625 13.734375 
Q 42 17.28125 42 22.609375 
L 42 24.609375 
z
M 59.625 31.203125 
L 59.625 0 
L 42 0 
L 42 8.109375 
Q 38.484375 3.125 34.078125 0.84375 
Q 29.6875 -1.421875 23.390625 -1.421875 
Q 14.890625 -1.421875 9.59375 3.53125 
Q 4.296875 8.5 4.296875 16.40625 
Q 4.296875 26.03125 10.90625 30.515625 
Q 17.53125 35.015625 31.6875 35.015625 
L 42 35.015625 
L 42 36.375 
Q 42 40.53125 38.71875 42.453125 
Q 35.453125 44.390625 28.515625 44.390625 
Q 22.90625 44.390625 18.0625 43.265625 
Q 13.234375 42.140625 9.078125 39.890625 
L 9.078125 53.21875 
Q 14.703125 54.59375 20.359375 55.296875 
Q 26.03125 56 31.6875 56 
Q 46.484375 56 53.046875 50.171875 
Q 59.625 44.34375 59.625 31.203125 
z
" id="DejaVuSans-Bold-97"/>
    <path d="M 1.21875 54.6875 
L 18.703125 54.6875 
L 33.40625 17.578125 
L 45.90625 54.6875 
L 63.375 54.6875 
L 40.375 -5.171875 
Q 36.921875 -14.3125 32.296875 -17.9375 
Q 27.6875 -21.578125 20.125 -21.578125 
L 10.015625 -21.578125 
L 10.015625 -10.109375 
L 15.484375 -10.109375 
Q 19.921875 -10.109375 21.9375 -8.6875 
Q 23.96875 -7.28125 25.09375 -3.609375 
L 25.59375 -2.09375 
z
" id="DejaVuSans-Bold-121"/>
    <path d="M 62.984375 27.484375 
L 62.984375 22.515625 
L 22.125 22.515625 
Q 22.75 16.359375 26.5625 13.28125 
Q 30.375 10.203125 37.203125 10.203125 
Q 42.71875 10.203125 48.5 11.84375 
Q 54.296875 13.484375 60.40625 16.796875 
L 60.40625 3.328125 
Q 54.203125 0.984375 48 -0.21875 
Q 41.796875 -1.421875 35.59375 -1.421875 
Q 20.75 -1.421875 12.515625 6.125 
Q 4.296875 13.671875 4.296875 27.296875 
Q 4.296875 40.671875 12.375 48.328125 
Q 20.453125 56 34.625 56 
Q 47.515625 56 55.25 48.234375 
Q 62.984375 40.484375 62.984375 27.484375 
z
M 45.015625 33.296875 
Q 45.015625 38.28125 42.109375 41.328125 
Q 39.203125 44.390625 34.515625 44.390625 
Q 29.4375 44.390625 26.265625 41.53125 
Q 23.09375 38.671875 22.3125 33.296875 
z
" id="DejaVuSans-Bold-101"/>
    <path d="M 49.03125 39.796875 
Q 46.734375 40.875 44.453125 41.375 
Q 42.1875 41.890625 39.890625 41.890625 
Q 33.15625 41.890625 29.515625 37.5625 
Q 25.875 33.25 25.875 25.203125 
L 25.875 0 
L 8.40625 0 
L 8.40625 54.6875 
L 25.875 54.6875 
L 25.875 45.703125 
Q 29.25 51.078125 33.609375 53.53125 
Q 37.984375 56 44.09375 56 
Q 44.96875 56 45.984375 55.921875 
Q 47.015625 55.859375 48.96875 55.609375 
z
" id="DejaVuSans-Bold-114"/>
    <path d="M 5.421875 35.890625 
L 36.078125 35.890625 
L 36.078125 21.6875 
L 5.421875 21.6875 
z
" id="DejaVuSans-Bold-45"/>
   </defs>
   <g style="fill:#262626;" transform="translate(787.648828 17.040469)scale(0.15 -0.15)">
    <use xlink:href="#DejaVuSans-Bold-79"/>
    <use x="85.009766" xlink:href="#DejaVuSans-Bold-78"/>
    <use x="168.701172" xlink:href="#DejaVuSans-Bold-78"/>
    <use x="252.392578" xlink:href="#DejaVuSans-Bold-52"/>
    <use x="321.972656" xlink:href="#DejaVuSans-Bold-77"/>
    <use x="421.484375" xlink:href="#DejaVuSans-Bold-83"/>
    <use x="493.505859" xlink:href="#DejaVuSans-Bold-84"/>
    <use x="561.71875" xlink:href="#DejaVuSans-Bold-32"/>
    <use x="596.533203" xlink:href="#DejaVuSans-Bold-76"/>
    <use x="660.253906" xlink:href="#DejaVuSans-Bold-97"/>
    <use x="724.609375" xlink:href="#DejaVuSans-Bold-121"/>
    <use x="789.794922" xlink:href="#DejaVuSans-Bold-101"/>
    <use x="857.617188" xlink:href="#DejaVuSans-Bold-114"/>
    <use x="906.933594" xlink:href="#DejaVuSans-Bold-45"/>
    <use x="948.4375" xlink:href="#DejaVuSans-Bold-52"/>
   </g>
  </g>
  <g id="legend_1">
   <g id="patch_62">
    <path d="M 770.12 146.795 
L 979.728438 146.795 
Q 982.528438 146.795 982.528438 143.995 
L 982.528438 21.32 
Q 982.528438 18.52 979.728438 18.52 
L 770.12 18.52 
Q 767.32 18.52 767.32 21.32 
L 767.32 143.995 
Q 767.32 146.795 770.12 146.795 
z
" style="fill:none;opacity:0;"/>
   </g>
   <g id="patch_63">
    <path d="M 772.92 34.757812 
L 800.92 34.757812 
L 800.92 24.957812 
L 772.92 24.957812 
z
" style="fill:#66c2a5;stroke:#ffffff;stroke-linejoin:miter;"/>
   </g>
   <g id="text_2">
    <!-- Soil -->
    <defs>
     <path d="M 53.515625 70.515625 
L 53.515625 60.890625 
Q 47.90625 63.578125 42.921875 64.890625 
Q 37.9375 66.21875 33.296875 66.21875 
Q 25.25 66.21875 20.875 63.09375 
Q 16.5 59.96875 16.5 54.203125 
Q 16.5 49.359375 19.40625 46.890625 
Q 22.3125 44.4375 30.421875 42.921875 
L 36.375 41.703125 
Q 47.40625 39.59375 52.65625 34.296875 
Q 57.90625 29 57.90625 20.125 
Q 57.90625 9.515625 50.796875 4.046875 
Q 43.703125 -1.421875 29.984375 -1.421875 
Q 24.8125 -1.421875 18.96875 -0.25 
Q 13.140625 0.921875 6.890625 3.21875 
L 6.890625 13.375 
Q 12.890625 10.015625 18.65625 8.296875 
Q 24.421875 6.59375 29.984375 6.59375 
Q 38.421875 6.59375 43.015625 9.90625 
Q 47.609375 13.234375 47.609375 19.390625 
Q 47.609375 24.75 44.3125 27.78125 
Q 41.015625 30.8125 33.5 32.328125 
L 27.484375 33.5 
Q 16.453125 35.6875 11.515625 40.375 
Q 6.59375 45.0625 6.59375 53.421875 
Q 6.59375 63.09375 13.40625 68.65625 
Q 20.21875 74.21875 32.171875 74.21875 
Q 37.3125 74.21875 42.625 73.28125 
Q 47.953125 72.359375 53.515625 70.515625 
z
" id="DejaVuSans-83"/>
     <path d="M 30.609375 48.390625 
Q 23.390625 48.390625 19.1875 42.75 
Q 14.984375 37.109375 14.984375 27.296875 
Q 14.984375 17.484375 19.15625 11.84375 
Q 23.34375 6.203125 30.609375 6.203125 
Q 37.796875 6.203125 41.984375 11.859375 
Q 46.1875 17.53125 46.1875 27.296875 
Q 46.1875 37.015625 41.984375 42.703125 
Q 37.796875 48.390625 30.609375 48.390625 
z
M 30.609375 56 
Q 42.328125 56 49.015625 48.375 
Q 55.71875 40.765625 55.71875 27.296875 
Q 55.71875 13.875 49.015625 6.21875 
Q 42.328125 -1.421875 30.609375 -1.421875 
Q 18.84375 -1.421875 12.171875 6.21875 
Q 5.515625 13.875 5.515625 27.296875 
Q 5.515625 40.765625 12.171875 48.375 
Q 18.84375 56 30.609375 56 
z
" id="DejaVuSans-111"/>
     <path d="M 9.421875 54.6875 
L 18.40625 54.6875 
L 18.40625 0 
L 9.421875 0 
z
M 9.421875 75.984375 
L 18.40625 75.984375 
L 18.40625 64.59375 
L 9.421875 64.59375 
z
" id="DejaVuSans-105"/>
     <path d="M 9.421875 75.984375 
L 18.40625 75.984375 
L 18.40625 0 
L 9.421875 0 
z
" id="DejaVuSans-108"/>
    </defs>
    <g style="fill:#262626;" transform="translate(812.12 34.757812)scale(0.14 -0.14)">
     <use xlink:href="#DejaVuSans-83"/>
     <use x="63.476562" xlink:href="#DejaVuSans-111"/>
     <use x="124.658203" xlink:href="#DejaVuSans-105"/>
     <use x="152.441406" xlink:href="#DejaVuSans-108"/>
    </g>
   </g>
   <g id="patch_64">
    <path d="M 772.92 55.307187 
L 800.92 55.307187 
L 800.92 45.507187 
L 772.92 45.507187 
z
" style="fill:#fc8d62;stroke:#ffffff;stroke-linejoin:miter;"/>
   </g>
   <g id="text_3">
    <!-- Digestive_system (H*) -->
    <defs>
     <path d="M 19.671875 64.796875 
L 19.671875 8.109375 
L 31.59375 8.109375 
Q 46.6875 8.109375 53.6875 14.9375 
Q 60.6875 21.78125 60.6875 36.53125 
Q 60.6875 51.171875 53.6875 57.984375 
Q 46.6875 64.796875 31.59375 64.796875 
z
M 9.8125 72.90625 
L 30.078125 72.90625 
Q 51.265625 72.90625 61.171875 64.09375 
Q 71.09375 55.28125 71.09375 36.53125 
Q 71.09375 17.671875 61.125 8.828125 
Q 51.171875 0 30.078125 0 
L 9.8125 0 
z
" id="DejaVuSans-68"/>
     <path d="M 45.40625 27.984375 
Q 45.40625 37.75 41.375 43.109375 
Q 37.359375 48.484375 30.078125 48.484375 
Q 22.859375 48.484375 18.828125 43.109375 
Q 14.796875 37.75 14.796875 27.984375 
Q 14.796875 18.265625 18.828125 12.890625 
Q 22.859375 7.515625 30.078125 7.515625 
Q 37.359375 7.515625 41.375 12.890625 
Q 45.40625 18.265625 45.40625 27.984375 
z
M 54.390625 6.78125 
Q 54.390625 -7.171875 48.1875 -13.984375 
Q 42 -20.796875 29.203125 -20.796875 
Q 24.46875 -20.796875 20.265625 -20.09375 
Q 16.0625 -19.390625 12.109375 -17.921875 
L 12.109375 -9.1875 
Q 16.0625 -11.328125 19.921875 -12.34375 
Q 23.78125 -13.375 27.78125 -13.375 
Q 36.625 -13.375 41.015625 -8.765625 
Q 45.40625 -4.15625 45.40625 5.171875 
L 45.40625 9.625 
Q 42.625 4.78125 38.28125 2.390625 
Q 33.9375 0 27.875 0 
Q 17.828125 0 11.671875 7.65625 
Q 5.515625 15.328125 5.515625 27.984375 
Q 5.515625 40.671875 11.671875 48.328125 
Q 17.828125 56 27.875 56 
Q 33.9375 56 38.28125 53.609375 
Q 42.625 51.21875 45.40625 46.390625 
L 45.40625 54.6875 
L 54.390625 54.6875 
z
" id="DejaVuSans-103"/>
     <path d="M 56.203125 29.59375 
L 56.203125 25.203125 
L 14.890625 25.203125 
Q 15.484375 15.921875 20.484375 11.0625 
Q 25.484375 6.203125 34.421875 6.203125 
Q 39.59375 6.203125 44.453125 7.46875 
Q 49.3125 8.734375 54.109375 11.28125 
L 54.109375 2.78125 
Q 49.265625 0.734375 44.1875 -0.34375 
Q 39.109375 -1.421875 33.890625 -1.421875 
Q 20.796875 -1.421875 13.15625 6.1875 
Q 5.515625 13.8125 5.515625 26.8125 
Q 5.515625 40.234375 12.765625 48.109375 
Q 20.015625 56 32.328125 56 
Q 43.359375 56 49.78125 48.890625 
Q 56.203125 41.796875 56.203125 29.59375 
z
M 47.21875 32.234375 
Q 47.125 39.59375 43.09375 43.984375 
Q 39.0625 48.390625 32.421875 48.390625 
Q 24.90625 48.390625 20.390625 44.140625 
Q 15.875 39.890625 15.1875 32.171875 
z
" id="DejaVuSans-101"/>
     <path d="M 44.28125 53.078125 
L 44.28125 44.578125 
Q 40.484375 46.53125 36.375 47.5 
Q 32.28125 48.484375 27.875 48.484375 
Q 21.1875 48.484375 17.84375 46.4375 
Q 14.5 44.390625 14.5 40.28125 
Q 14.5 37.15625 16.890625 35.375 
Q 19.28125 33.59375 26.515625 31.984375 
L 29.59375 31.296875 
Q 39.15625 29.25 43.1875 25.515625 
Q 47.21875 21.78125 47.21875 15.09375 
Q 47.21875 7.46875 41.1875 3.015625 
Q 35.15625 -1.421875 24.609375 -1.421875 
Q 20.21875 -1.421875 15.453125 -0.5625 
Q 10.6875 0.296875 5.421875 2 
L 5.421875 11.28125 
Q 10.40625 8.6875 15.234375 7.390625 
Q 20.0625 6.109375 24.8125 6.109375 
Q 31.15625 6.109375 34.5625 8.28125 
Q 37.984375 10.453125 37.984375 14.40625 
Q 37.984375 18.0625 35.515625 20.015625 
Q 33.0625 21.96875 24.703125 23.78125 
L 21.578125 24.515625 
Q 13.234375 26.265625 9.515625 29.90625 
Q 5.8125 33.546875 5.8125 39.890625 
Q 5.8125 47.609375 11.28125 51.796875 
Q 16.75 56 26.8125 56 
Q 31.78125 56 36.171875 55.265625 
Q 40.578125 54.546875 44.28125 53.078125 
z
" id="DejaVuSans-115"/>
     <path d="M 18.3125 70.21875 
L 18.3125 54.6875 
L 36.8125 54.6875 
L 36.8125 47.703125 
L 18.3125 47.703125 
L 18.3125 18.015625 
Q 18.3125 11.328125 20.140625 9.421875 
Q 21.96875 7.515625 27.59375 7.515625 
L 36.8125 7.515625 
L 36.8125 0 
L 27.59375 0 
Q 17.1875 0 13.234375 3.875 
Q 9.28125 7.765625 9.28125 18.015625 
L 9.28125 47.703125 
L 2.6875 47.703125 
L 2.6875 54.6875 
L 9.28125 54.6875 
L 9.28125 70.21875 
z
" id="DejaVuSans-116"/>
     <path d="M 2.984375 54.6875 
L 12.5 54.6875 
L 29.59375 8.796875 
L 46.6875 54.6875 
L 56.203125 54.6875 
L 35.6875 0 
L 23.484375 0 
z
" id="DejaVuSans-118"/>
     <path d="M 50.984375 -16.609375 
L 50.984375 -23.578125 
L -0.984375 -23.578125 
L -0.984375 -16.609375 
z
" id="DejaVuSans-95"/>
     <path d="M 32.171875 -5.078125 
Q 28.375 -14.84375 24.75 -17.8125 
Q 21.140625 -20.796875 15.09375 -20.796875 
L 7.90625 -20.796875 
L 7.90625 -13.28125 
L 13.1875 -13.28125 
Q 16.890625 -13.28125 18.9375 -11.515625 
Q 21 -9.765625 23.484375 -3.21875 
L 25.09375 0.875 
L 2.984375 54.6875 
L 12.5 54.6875 
L 29.59375 11.921875 
L 46.6875 54.6875 
L 56.203125 54.6875 
z
" id="DejaVuSans-121"/>
     <path d="M 52 44.1875 
Q 55.375 50.25 60.0625 53.125 
Q 64.75 56 71.09375 56 
Q 79.640625 56 84.28125 50.015625 
Q 88.921875 44.046875 88.921875 33.015625 
L 88.921875 0 
L 79.890625 0 
L 79.890625 32.71875 
Q 79.890625 40.578125 77.09375 44.375 
Q 74.3125 48.1875 68.609375 48.1875 
Q 61.625 48.1875 57.5625 43.546875 
Q 53.515625 38.921875 53.515625 30.90625 
L 53.515625 0 
L 44.484375 0 
L 44.484375 32.71875 
Q 44.484375 40.625 41.703125 44.40625 
Q 38.921875 48.1875 33.109375 48.1875 
Q 26.21875 48.1875 22.15625 43.53125 
Q 18.109375 38.875 18.109375 30.90625 
L 18.109375 0 
L 9.078125 0 
L 9.078125 54.6875 
L 18.109375 54.6875 
L 18.109375 46.1875 
Q 21.1875 51.21875 25.484375 53.609375 
Q 29.78125 56 35.6875 56 
Q 41.65625 56 45.828125 52.96875 
Q 50 49.953125 52 44.1875 
z
" id="DejaVuSans-109"/>
     <path id="DejaVuSans-32"/>
     <path d="M 31 75.875 
Q 24.46875 64.65625 21.28125 53.65625 
Q 18.109375 42.671875 18.109375 31.390625 
Q 18.109375 20.125 21.3125 9.0625 
Q 24.515625 -2 31 -13.1875 
L 23.1875 -13.1875 
Q 15.875 -1.703125 12.234375 9.375 
Q 8.59375 20.453125 8.59375 31.390625 
Q 8.59375 42.28125 12.203125 53.3125 
Q 15.828125 64.359375 23.1875 75.875 
z
" id="DejaVuSans-40"/>
     <path d="M 9.8125 72.90625 
L 19.671875 72.90625 
L 19.671875 43.015625 
L 55.515625 43.015625 
L 55.515625 72.90625 
L 65.375 72.90625 
L 65.375 0 
L 55.515625 0 
L 55.515625 34.71875 
L 19.671875 34.71875 
L 19.671875 0 
L 9.8125 0 
z
" id="DejaVuSans-72"/>
     <path d="M 47.015625 60.890625 
L 29.5 51.421875 
L 47.015625 41.890625 
L 44.1875 37.109375 
L 27.78125 47.015625 
L 27.78125 28.609375 
L 22.21875 28.609375 
L 22.21875 47.015625 
L 5.8125 37.109375 
L 2.984375 41.890625 
L 20.515625 51.421875 
L 2.984375 60.890625 
L 5.8125 65.71875 
L 22.21875 55.8125 
L 22.21875 74.21875 
L 27.78125 74.21875 
L 27.78125 55.8125 
L 44.1875 65.71875 
z
" id="DejaVuSans-42"/>
     <path d="M 8.015625 75.875 
L 15.828125 75.875 
Q 23.140625 64.359375 26.78125 53.3125 
Q 30.421875 42.28125 30.421875 31.390625 
Q 30.421875 20.453125 26.78125 9.375 
Q 23.140625 -1.703125 15.828125 -13.1875 
L 8.015625 -13.1875 
Q 14.5 -2 17.703125 9.0625 
Q 20.90625 20.125 20.90625 31.390625 
Q 20.90625 42.671875 17.703125 53.65625 
Q 14.5 64.65625 8.015625 75.875 
z
" id="DejaVuSans-41"/>
    </defs>
    <g style="fill:#262626;" transform="translate(812.12 55.307187)scale(0.14 -0.14)">
     <use xlink:href="#DejaVuSans-68"/>
     <use x="77.001953" xlink:href="#DejaVuSans-105"/>
     <use x="104.785156" xlink:href="#DejaVuSans-103"/>
     <use x="168.261719" xlink:href="#DejaVuSans-101"/>
     <use x="229.785156" xlink:href="#DejaVuSans-115"/>
     <use x="281.884766" xlink:href="#DejaVuSans-116"/>
     <use x="321.09375" xlink:href="#DejaVuSans-105"/>
     <use x="348.876953" xlink:href="#DejaVuSans-118"/>
     <use x="408.056641" xlink:href="#DejaVuSans-101"/>
     <use x="469.580078" xlink:href="#DejaVuSans-95"/>
     <use x="519.580078" xlink:href="#DejaVuSans-115"/>
     <use x="571.679688" xlink:href="#DejaVuSans-121"/>
     <use x="630.859375" xlink:href="#DejaVuSans-115"/>
     <use x="682.958984" xlink:href="#DejaVuSans-116"/>
     <use x="722.167969" xlink:href="#DejaVuSans-101"/>
     <use x="783.691406" xlink:href="#DejaVuSans-109"/>
     <use x="881.103516" xlink:href="#DejaVuSans-32"/>
     <use x="912.890625" xlink:href="#DejaVuSans-40"/>
     <use x="951.904297" xlink:href="#DejaVuSans-72"/>
     <use x="1027.099609" xlink:href="#DejaVuSans-42"/>
     <use x="1077.099609" xlink:href="#DejaVuSans-41"/>
    </g>
   </g>
   <g id="patch_65">
    <path d="M 772.92 76.245937 
L 800.92 76.245937 
L 800.92 66.445937 
L 772.92 66.445937 
z
" style="fill:#8da0cb;stroke:#ffffff;stroke-linejoin:miter;"/>
   </g>
   <g id="text_4">
    <!-- Skin (H*) -->
    <defs>
     <path d="M 9.078125 75.984375 
L 18.109375 75.984375 
L 18.109375 31.109375 
L 44.921875 54.6875 
L 56.390625 54.6875 
L 27.390625 29.109375 
L 57.625 0 
L 45.90625 0 
L 18.109375 26.703125 
L 18.109375 0 
L 9.078125 0 
z
" id="DejaVuSans-107"/>
     <path d="M 54.890625 33.015625 
L 54.890625 0 
L 45.90625 0 
L 45.90625 32.71875 
Q 45.90625 40.484375 42.875 44.328125 
Q 39.84375 48.1875 33.796875 48.1875 
Q 26.515625 48.1875 22.3125 43.546875 
Q 18.109375 38.921875 18.109375 30.90625 
L 18.109375 0 
L 9.078125 0 
L 9.078125 54.6875 
L 18.109375 54.6875 
L 18.109375 46.1875 
Q 21.34375 51.125 25.703125 53.5625 
Q 30.078125 56 35.796875 56 
Q 45.21875 56 50.046875 50.171875 
Q 54.890625 44.34375 54.890625 33.015625 
z
" id="DejaVuSans-110"/>
    </defs>
    <g style="fill:#262626;" transform="translate(812.12 76.245937)scale(0.14 -0.14)">
     <use xlink:href="#DejaVuSans-83"/>
     <use x="63.476562" xlink:href="#DejaVuSans-107"/>
     <use x="121.386719" xlink:href="#DejaVuSans-105"/>
     <use x="149.169922" xlink:href="#DejaVuSans-110"/>
     <use x="212.548828" xlink:href="#DejaVuSans-32"/>
     <use x="244.335938" xlink:href="#DejaVuSans-40"/>
     <use x="283.349609" xlink:href="#DejaVuSans-72"/>
     <use x="358.544922" xlink:href="#DejaVuSans-42"/>
     <use x="408.544922" xlink:href="#DejaVuSans-41"/>
    </g>
   </g>
   <g id="patch_66">
    <path d="M 772.92 96.795312 
L 800.92 96.795312 
L 800.92 86.995312 
L 772.92 86.995312 
z
" style="fill:#e78ac3;stroke:#ffffff;stroke-linejoin:miter;"/>
   </g>
   <g id="text_5">
    <!-- Digestive_system (M**) -->
    <defs>
     <path d="M 9.8125 72.90625 
L 24.515625 72.90625 
L 43.109375 23.296875 
L 61.8125 72.90625 
L 76.515625 72.90625 
L 76.515625 0 
L 66.890625 0 
L 66.890625 64.015625 
L 48.09375 14.015625 
L 38.1875 14.015625 
L 19.390625 64.015625 
L 19.390625 0 
L 9.8125 0 
z
" id="DejaVuSans-77"/>
    </defs>
    <g style="fill:#262626;" transform="translate(812.12 96.795312)scale(0.14 -0.14)">
     <use xlink:href="#DejaVuSans-68"/>
     <use x="77.001953" xlink:href="#DejaVuSans-105"/>
     <use x="104.785156" xlink:href="#DejaVuSans-103"/>
     <use x="168.261719" xlink:href="#DejaVuSans-101"/>
     <use x="229.785156" xlink:href="#DejaVuSans-115"/>
     <use x="281.884766" xlink:href="#DejaVuSans-116"/>
     <use x="321.09375" xlink:href="#DejaVuSans-105"/>
     <use x="348.876953" xlink:href="#DejaVuSans-118"/>
     <use x="408.056641" xlink:href="#DejaVuSans-101"/>
     <use x="469.580078" xlink:href="#DejaVuSans-95"/>
     <use x="519.580078" xlink:href="#DejaVuSans-115"/>
     <use x="571.679688" xlink:href="#DejaVuSans-121"/>
     <use x="630.859375" xlink:href="#DejaVuSans-115"/>
     <use x="682.958984" xlink:href="#DejaVuSans-116"/>
     <use x="722.167969" xlink:href="#DejaVuSans-101"/>
     <use x="783.691406" xlink:href="#DejaVuSans-109"/>
     <use x="881.103516" xlink:href="#DejaVuSans-32"/>
     <use x="912.890625" xlink:href="#DejaVuSans-40"/>
     <use x="951.904297" xlink:href="#DejaVuSans-77"/>
     <use x="1038.183594" xlink:href="#DejaVuSans-42"/>
     <use x="1088.183594" xlink:href="#DejaVuSans-42"/>
     <use x="1138.183594" xlink:href="#DejaVuSans-41"/>
    </g>
   </g>
   <g id="patch_67">
    <path d="M 772.92 117.734062 
L 800.92 117.734062 
L 800.92 107.934062 
L 772.92 107.934062 
z
" style="fill:#a6d854;stroke:#ffffff;stroke-linejoin:miter;"/>
   </g>
   <g id="text_6">
    <!-- Rhizosphere -->
    <defs>
     <path d="M 44.390625 34.1875 
Q 47.5625 33.109375 50.5625 29.59375 
Q 53.5625 26.078125 56.59375 19.921875 
L 66.609375 0 
L 56 0 
L 46.6875 18.703125 
Q 43.0625 26.03125 39.671875 28.421875 
Q 36.28125 30.8125 30.421875 30.8125 
L 19.671875 30.8125 
L 19.671875 0 
L 9.8125 0 
L 9.8125 72.90625 
L 32.078125 72.90625 
Q 44.578125 72.90625 50.734375 67.671875 
Q 56.890625 62.453125 56.890625 51.90625 
Q 56.890625 45.015625 53.6875 40.46875 
Q 50.484375 35.9375 44.390625 34.1875 
z
M 19.671875 64.796875 
L 19.671875 38.921875 
L 32.078125 38.921875 
Q 39.203125 38.921875 42.84375 42.21875 
Q 46.484375 45.515625 46.484375 51.90625 
Q 46.484375 58.296875 42.84375 61.546875 
Q 39.203125 64.796875 32.078125 64.796875 
z
" id="DejaVuSans-82"/>
     <path d="M 54.890625 33.015625 
L 54.890625 0 
L 45.90625 0 
L 45.90625 32.71875 
Q 45.90625 40.484375 42.875 44.328125 
Q 39.84375 48.1875 33.796875 48.1875 
Q 26.515625 48.1875 22.3125 43.546875 
Q 18.109375 38.921875 18.109375 30.90625 
L 18.109375 0 
L 9.078125 0 
L 9.078125 75.984375 
L 18.109375 75.984375 
L 18.109375 46.1875 
Q 21.34375 51.125 25.703125 53.5625 
Q 30.078125 56 35.796875 56 
Q 45.21875 56 50.046875 50.171875 
Q 54.890625 44.34375 54.890625 33.015625 
z
" id="DejaVuSans-104"/>
     <path d="M 5.515625 54.6875 
L 48.1875 54.6875 
L 48.1875 46.484375 
L 14.40625 7.171875 
L 48.1875 7.171875 
L 48.1875 0 
L 4.296875 0 
L 4.296875 8.203125 
L 38.09375 47.515625 
L 5.515625 47.515625 
z
" id="DejaVuSans-122"/>
     <path d="M 18.109375 8.203125 
L 18.109375 -20.796875 
L 9.078125 -20.796875 
L 9.078125 54.6875 
L 18.109375 54.6875 
L 18.109375 46.390625 
Q 20.953125 51.265625 25.265625 53.625 
Q 29.59375 56 35.59375 56 
Q 45.5625 56 51.78125 48.09375 
Q 58.015625 40.1875 58.015625 27.296875 
Q 58.015625 14.40625 51.78125 6.484375 
Q 45.5625 -1.421875 35.59375 -1.421875 
Q 29.59375 -1.421875 25.265625 0.953125 
Q 20.953125 3.328125 18.109375 8.203125 
z
M 48.6875 27.296875 
Q 48.6875 37.203125 44.609375 42.84375 
Q 40.53125 48.484375 33.40625 48.484375 
Q 26.265625 48.484375 22.1875 42.84375 
Q 18.109375 37.203125 18.109375 27.296875 
Q 18.109375 17.390625 22.1875 11.75 
Q 26.265625 6.109375 33.40625 6.109375 
Q 40.53125 6.109375 44.609375 11.75 
Q 48.6875 17.390625 48.6875 27.296875 
z
" id="DejaVuSans-112"/>
     <path d="M 41.109375 46.296875 
Q 39.59375 47.171875 37.8125 47.578125 
Q 36.03125 48 33.890625 48 
Q 26.265625 48 22.1875 43.046875 
Q 18.109375 38.09375 18.109375 28.8125 
L 18.109375 0 
L 9.078125 0 
L 9.078125 54.6875 
L 18.109375 54.6875 
L 18.109375 46.1875 
Q 20.953125 51.171875 25.484375 53.578125 
Q 30.03125 56 36.53125 56 
Q 37.453125 56 38.578125 55.875 
Q 39.703125 55.765625 41.0625 55.515625 
z
" id="DejaVuSans-114"/>
    </defs>
    <g style="fill:#262626;" transform="translate(812.12 117.734062)scale(0.14 -0.14)">
     <use xlink:href="#DejaVuSans-82"/>
     <use x="69.482422" xlink:href="#DejaVuSans-104"/>
     <use x="132.861328" xlink:href="#DejaVuSans-105"/>
     <use x="160.644531" xlink:href="#DejaVuSans-122"/>
     <use x="213.134766" xlink:href="#DejaVuSans-111"/>
     <use x="274.316406" xlink:href="#DejaVuSans-115"/>
     <use x="326.416016" xlink:href="#DejaVuSans-112"/>
     <use x="389.892578" xlink:href="#DejaVuSans-104"/>
     <use x="453.271484" xlink:href="#DejaVuSans-101"/>
     <use x="514.794922" xlink:href="#DejaVuSans-114"/>
     <use x="553.658203" xlink:href="#DejaVuSans-101"/>
    </g>
   </g>
   <g id="patch_68">
    <path d="M 772.92 138.283437 
L 800.92 138.283437 
L 800.92 128.483437 
L 772.92 128.483437 
z
" style="fill:#ffd92f;stroke:#ffffff;stroke-linejoin:miter;"/>
   </g>
   <g id="text_7">
    <!-- Others -->
    <defs>
     <path d="M 39.40625 66.21875 
Q 28.65625 66.21875 22.328125 58.203125 
Q 16.015625 50.203125 16.015625 36.375 
Q 16.015625 22.609375 22.328125 14.59375 
Q 28.65625 6.59375 39.40625 6.59375 
Q 50.140625 6.59375 56.421875 14.59375 
Q 62.703125 22.609375 62.703125 36.375 
Q 62.703125 50.203125 56.421875 58.203125 
Q 50.140625 66.21875 39.40625 66.21875 
z
M 39.40625 74.21875 
Q 54.734375 74.21875 63.90625 63.9375 
Q 73.09375 53.65625 73.09375 36.375 
Q 73.09375 19.140625 63.90625 8.859375 
Q 54.734375 -1.421875 39.40625 -1.421875 
Q 24.03125 -1.421875 14.8125 8.828125 
Q 5.609375 19.09375 5.609375 36.375 
Q 5.609375 53.65625 14.8125 63.9375 
Q 24.03125 74.21875 39.40625 74.21875 
z
" id="DejaVuSans-79"/>
    </defs>
    <g style="fill:#262626;" transform="translate(812.12 138.283437)scale(0.14 -0.14)">
     <use xlink:href="#DejaVuSans-79"/>
     <use x="78.710938" xlink:href="#DejaVuSans-116"/>
     <use x="117.919922" xlink:href="#DejaVuSans-104"/>
     <use x="181.298828" xlink:href="#DejaVuSans-101"/>
     <use x="242.822266" xlink:href="#DejaVuSans-114"/>
     <use x="283.935547" xlink:href="#DejaVuSans-115"/>
    </g>
   </g>
  </g>
 </g>
</svg>
