<?xml version="1.0" encoding="utf-8" standalone="no"?>
<!DOCTYPE svg PUBLIC "-//W3C//DTD SVG 1.1//EN"
  "http://www.w3.org/Graphics/SVG/1.1/DTD/svg11.dtd">
<!-- Created with matplotlib (https://matplotlib.org/) -->
<svg height="144pt" version="1.1" viewBox="0 0 1584 144" width="1584pt" xmlns="http://www.w3.org/2000/svg" xmlns:xlink="http://www.w3.org/1999/xlink">
 <defs>
  <style type="text/css">
*{stroke-linecap:butt;stroke-linejoin:round;}
  </style>
 </defs>
 <g id="figure_1">
  <g id="patch_1">
   <path d="M 0 144 
L 1584 144 
L 1584 0 
L 0 0 
z
" style="fill:#ffffff;"/>
  </g>
  <g id="axes_1">
   <g id="matplotlib.axis_1"/>
   <g id="matplotlib.axis_2"/>
   <g id="patch_2">
    <path d="M 121.836755 76.107692 
C 121.836755 76.103093 121.836755 76.098494 121.836753 76.093895 
C 121.836752 76.089295 121.836749 76.084696 121.836747 76.080097 
L 77.890909 76.107692 
L 121.836755 76.107692 
z
" style="fill:#66c2a5;stroke:#ffffff;stroke-linejoin:miter;"/>
   </g>
   <g id="patch_3">
    <path d="M 121.836747 76.080097 
C 121.836744 76.075498 121.83674 76.070898 121.836736 76.066299 
C 121.836731 76.0617 121.836726 76.057101 121.836721 76.052501 
L 77.890909 76.107692 
L 121.836747 76.080097 
z
" style="fill:#fc8d62;stroke:#ffffff;stroke-linejoin:miter;"/>
   </g>
   <g id="patch_4">
    <path d="M 121.836721 76.052501 
C 121.836352 75.75936 121.833051 75.466229 121.826817 75.173154 
C 121.820583 74.880078 121.811417 74.587072 121.79932 74.29418 
L 77.890909 76.107692 
L 121.836721 76.052501 
z
" style="fill:#8da0cb;stroke:#ffffff;stroke-linejoin:miter;"/>
   </g>
   <g id="patch_5">
    <path d="M 121.79932 74.29418 
C 121.562794 68.56746 120.208182 62.941939 117.811973 57.735266 
C 115.415763 52.528592 112.023922 47.840643 107.827971 43.936125 
C 103.632019 40.031607 98.712447 36.985419 93.347038 34.969566 
C 87.98163 32.953712 82.273309 32.006862 76.544398 32.18248 
C 70.815486 32.358097 65.175879 33.652814 59.94402 35.993523 
C 54.712161 38.334232 49.98841 41.676032 46.039495 45.830228 
C 42.09058 49.984424 38.992253 54.871327 36.91946 60.214996 
C 34.846668 65.558666 33.839172 71.256595 33.953862 76.987051 
C 34.068551 82.717506 35.303226 88.370561 37.58817 93.627014 
C 39.873114 98.883468 43.164496 103.642486 47.276466 107.635351 
C 51.388437 111.628216 56.242117 114.778333 61.563443 116.90783 
C 66.88477 119.037327 72.571664 120.105355 78.303015 120.051606 
C 84.034366 119.997858 89.70023 118.823364 94.980683 116.594443 
C 100.261136 114.365523 105.054885 111.124932 109.091248 107.055652 
C 113.127612 102.986372 116.329162 98.166463 118.515123 92.868081 
C 120.701084 87.5697 121.829522 81.894484 121.836721 76.162885 
L 77.890909 76.107692 
L 121.79932 74.29418 
z
" style="fill:#e78ac3;stroke:#ffffff;stroke-linejoin:miter;"/>
   </g>
   <g id="patch_6">
    <path d="M 121.836721 76.162885 
C 121.836726 76.158286 121.836731 76.153687 121.836736 76.149088 
C 121.83674 76.144488 121.836744 76.139889 121.836747 76.13529 
L 77.890909 76.107692 
L 121.836721 76.162885 
z
" style="fill:#a6d854;stroke:#ffffff;stroke-linejoin:miter;"/>
   </g>
   <g id="patch_7">
    <path d="M 121.836747 76.13529 
C 121.836749 76.130691 121.836752 76.126092 121.836753 76.121492 
C 121.836755 76.116893 121.836755 76.112294 121.836755 76.107695 
L 77.890909 76.107692 
L 121.836747 76.13529 
z
" style="fill:#ffd92f;stroke:#ffffff;stroke-linejoin:miter;"/>
   </g>
   <g id="text_1">
    <!-- Forehead_1 -->
    <defs>
     <path d="M 9.8125 72.90625 
L 51.703125 72.90625 
L 51.703125 64.59375 
L 19.671875 64.59375 
L 19.671875 43.109375 
L 48.578125 43.109375 
L 48.578125 34.8125 
L 19.671875 34.8125 
L 19.671875 0 
L 9.8125 0 
z
" id="DejaVuSans-70"/>
     <path d="M 30.609375 48.390625 
Q 23.390625 48.390625 19.1875 42.75 
Q 14.984375 37.109375 14.984375 27.296875 
Q 14.984375 17.484375 19.15625 11.84375 
Q 23.34375 6.203125 30.609375 6.203125 
Q 37.796875 6.203125 41.984375 11.859375 
Q 46.1875 17.53125 46.1875 27.296875 
Q 46.1875 37.015625 41.984375 42.703125 
Q 37.796875 48.390625 30.609375 48.390625 
z
M 30.609375 56 
Q 42.328125 56 49.015625 48.375 
Q 55.71875 40.765625 55.71875 27.296875 
Q 55.71875 13.875 49.015625 6.21875 
Q 42.328125 -1.421875 30.609375 -1.421875 
Q 18.84375 -1.421875 12.171875 6.21875 
Q 5.515625 13.875 5.515625 27.296875 
Q 5.515625 40.765625 12.171875 48.375 
Q 18.84375 56 30.609375 56 
z
" id="DejaVuSans-111"/>
     <path d="M 41.109375 46.296875 
Q 39.59375 47.171875 37.8125 47.578125 
Q 36.03125 48 33.890625 48 
Q 26.265625 48 22.1875 43.046875 
Q 18.109375 38.09375 18.109375 28.8125 
L 18.109375 0 
L 9.078125 0 
L 9.078125 54.6875 
L 18.109375 54.6875 
L 18.109375 46.1875 
Q 20.953125 51.171875 25.484375 53.578125 
Q 30.03125 56 36.53125 56 
Q 37.453125 56 38.578125 55.875 
Q 39.703125 55.765625 41.0625 55.515625 
z
" id="DejaVuSans-114"/>
     <path d="M 56.203125 29.59375 
L 56.203125 25.203125 
L 14.890625 25.203125 
Q 15.484375 15.921875 20.484375 11.0625 
Q 25.484375 6.203125 34.421875 6.203125 
Q 39.59375 6.203125 44.453125 7.46875 
Q 49.3125 8.734375 54.109375 11.28125 
L 54.109375 2.78125 
Q 49.265625 0.734375 44.1875 -0.34375 
Q 39.109375 -1.421875 33.890625 -1.421875 
Q 20.796875 -1.421875 13.15625 6.1875 
Q 5.515625 13.8125 5.515625 26.8125 
Q 5.515625 40.234375 12.765625 48.109375 
Q 20.015625 56 32.328125 56 
Q 43.359375 56 49.78125 48.890625 
Q 56.203125 41.796875 56.203125 29.59375 
z
M 47.21875 32.234375 
Q 47.125 39.59375 43.09375 43.984375 
Q 39.0625 48.390625 32.421875 48.390625 
Q 24.90625 48.390625 20.390625 44.140625 
Q 15.875 39.890625 15.1875 32.171875 
z
" id="DejaVuSans-101"/>
     <path d="M 54.890625 33.015625 
L 54.890625 0 
L 45.90625 0 
L 45.90625 32.71875 
Q 45.90625 40.484375 42.875 44.328125 
Q 39.84375 48.1875 33.796875 48.1875 
Q 26.515625 48.1875 22.3125 43.546875 
Q 18.109375 38.921875 18.109375 30.90625 
L 18.109375 0 
L 9.078125 0 
L 9.078125 75.984375 
L 18.109375 75.984375 
L 18.109375 46.1875 
Q 21.34375 51.125 25.703125 53.5625 
Q 30.078125 56 35.796875 56 
Q 45.21875 56 50.046875 50.171875 
Q 54.890625 44.34375 54.890625 33.015625 
z
" id="DejaVuSans-104"/>
     <path d="M 34.28125 27.484375 
Q 23.390625 27.484375 19.1875 25 
Q 14.984375 22.515625 14.984375 16.5 
Q 14.984375 11.71875 18.140625 8.90625 
Q 21.296875 6.109375 26.703125 6.109375 
Q 34.1875 6.109375 38.703125 11.40625 
Q 43.21875 16.703125 43.21875 25.484375 
L 43.21875 27.484375 
z
M 52.203125 31.203125 
L 52.203125 0 
L 43.21875 0 
L 43.21875 8.296875 
Q 40.140625 3.328125 35.546875 0.953125 
Q 30.953125 -1.421875 24.3125 -1.421875 
Q 15.921875 -1.421875 10.953125 3.296875 
Q 6 8.015625 6 15.921875 
Q 6 25.140625 12.171875 29.828125 
Q 18.359375 34.515625 30.609375 34.515625 
L 43.21875 34.515625 
L 43.21875 35.40625 
Q 43.21875 41.609375 39.140625 45 
Q 35.0625 48.390625 27.6875 48.390625 
Q 23 48.390625 18.546875 47.265625 
Q 14.109375 46.140625 10.015625 43.890625 
L 10.015625 52.203125 
Q 14.9375 54.109375 19.578125 55.046875 
Q 24.21875 56 28.609375 56 
Q 40.484375 56 46.34375 49.84375 
Q 52.203125 43.703125 52.203125 31.203125 
z
" id="DejaVuSans-97"/>
     <path d="M 45.40625 46.390625 
L 45.40625 75.984375 
L 54.390625 75.984375 
L 54.390625 0 
L 45.40625 0 
L 45.40625 8.203125 
Q 42.578125 3.328125 38.25 0.953125 
Q 33.9375 -1.421875 27.875 -1.421875 
Q 17.96875 -1.421875 11.734375 6.484375 
Q 5.515625 14.40625 5.515625 27.296875 
Q 5.515625 40.1875 11.734375 48.09375 
Q 17.96875 56 27.875 56 
Q 33.9375 56 38.25 53.625 
Q 42.578125 51.265625 45.40625 46.390625 
z
M 14.796875 27.296875 
Q 14.796875 17.390625 18.875 11.75 
Q 22.953125 6.109375 30.078125 6.109375 
Q 37.203125 6.109375 41.296875 11.75 
Q 45.40625 17.390625 45.40625 27.296875 
Q 45.40625 37.203125 41.296875 42.84375 
Q 37.203125 48.484375 30.078125 48.484375 
Q 22.953125 48.484375 18.875 42.84375 
Q 14.796875 37.203125 14.796875 27.296875 
z
" id="DejaVuSans-100"/>
     <path d="M 50.984375 -16.609375 
L 50.984375 -23.578125 
L -0.984375 -23.578125 
L -0.984375 -16.609375 
z
" id="DejaVuSans-95"/>
     <path d="M 12.40625 8.296875 
L 28.515625 8.296875 
L 28.515625 63.921875 
L 10.984375 60.40625 
L 10.984375 69.390625 
L 28.421875 72.90625 
L 38.28125 72.90625 
L 38.28125 8.296875 
L 54.390625 8.296875 
L 54.390625 0 
L 12.40625 0 
z
" id="DejaVuSans-49"/>
    </defs>
    <g style="fill:#262626;" transform="translate(43.164972 15.175385)scale(0.12 -0.12)">
     <use xlink:href="#DejaVuSans-70"/>
     <use x="53.894531" xlink:href="#DejaVuSans-111"/>
     <use x="115.076172" xlink:href="#DejaVuSans-114"/>
     <use x="153.939453" xlink:href="#DejaVuSans-101"/>
     <use x="215.462891" xlink:href="#DejaVuSans-104"/>
     <use x="278.841797" xlink:href="#DejaVuSans-101"/>
     <use x="340.365234" xlink:href="#DejaVuSans-97"/>
     <use x="401.644531" xlink:href="#DejaVuSans-100"/>
     <use x="465.121094" xlink:href="#DejaVuSans-95"/>
     <use x="515.121094" xlink:href="#DejaVuSans-49"/>
    </g>
   </g>
  </g>
  <g id="axes_2">
   <g id="matplotlib.axis_3"/>
   <g id="matplotlib.axis_4"/>
   <g id="patch_8">
    <path d="M 264.658573 76.107692 
C 264.658573 76.103093 264.658573 76.098494 264.658571 76.093895 
C 264.65857 76.089295 264.658568 76.084696 264.658565 76.080097 
L 220.712727 76.107692 
L 264.658573 76.107692 
z
" style="fill:#66c2a5;stroke:#ffffff;stroke-linejoin:miter;"/>
   </g>
   <g id="patch_9">
    <path d="M 264.658565 76.080097 
C 264.658562 76.075498 264.658558 76.070898 264.658554 76.066299 
C 264.65855 76.0617 264.658545 76.057101 264.658539 76.052501 
L 220.712727 76.107692 
L 264.658565 76.080097 
z
" style="fill:#fc8d62;stroke:#ffffff;stroke-linejoin:miter;"/>
   </g>
   <g id="patch_10">
    <path d="M 264.658539 76.052501 
C 264.658153 75.74571 264.654556 75.43893 264.647746 75.132214 
C 264.640936 74.825498 264.630914 74.518861 264.617682 74.212355 
L 220.712727 76.107692 
L 264.658539 76.052501 
z
" style="fill:#8da0cb;stroke:#ffffff;stroke-linejoin:miter;"/>
   </g>
   <g id="patch_11">
    <path d="M 264.617682 74.212355 
C 264.370559 68.487806 263.006211 62.866462 260.601631 57.665546 
C 258.197051 52.46463 254.798338 47.783849 250.597288 43.88735 
C 246.396237 39.990851 241.473389 36.953333 236.106547 34.946209 
C 230.739706 32.939085 225.031761 32.000835 219.304821 32.184405 
C 213.577882 32.367975 207.941741 33.669846 202.714456 36.016551 
C 197.487171 38.363256 192.768956 41.709806 188.826068 45.867349 
C 184.88318 50.024892 181.791209 54.913723 179.72464 60.257956 
C 177.658072 65.602189 176.656525 71.299369 176.776519 77.027993 
C 176.896512 82.756617 178.135745 88.406861 180.424287 93.65987 
C 182.712828 98.91288 186.006803 103.667949 190.120327 107.65674 
C 194.23385 111.645531 199.088061 114.791575 204.409028 116.917333 
C 209.729994 119.043091 215.415706 120.107812 221.145309 120.051409 
C 226.874912 119.995007 232.538563 118.818564 237.81665 116.588468 
C 243.094737 114.358373 247.886074 111.117379 251.920277 107.048381 
C 255.95448 102.979384 259.154208 98.160391 261.338894 92.863347 
C 263.523581 87.566303 264.651343 81.892758 264.658539 76.162882 
L 220.712727 76.107692 
L 264.617682 74.212355 
z
" style="fill:#e78ac3;stroke:#ffffff;stroke-linejoin:miter;"/>
   </g>
   <g id="patch_12">
    <path d="M 264.658539 76.162882 
C 264.658545 76.158283 264.65855 76.153684 264.658554 76.149085 
C 264.658558 76.144485 264.658562 76.139886 264.658565 76.135287 
L 220.712727 76.107692 
L 264.658539 76.162882 
z
" style="fill:#a6d854;stroke:#ffffff;stroke-linejoin:miter;"/>
   </g>
   <g id="patch_13">
    <path d="M 264.658565 76.135287 
C 264.658568 76.130688 264.65857 76.126088 264.658571 76.121489 
C 264.658573 76.11689 264.658573 76.112291 264.658573 76.107691 
L 220.712727 76.107692 
L 264.658565 76.135287 
z
" style="fill:#ffd92f;stroke:#ffffff;stroke-linejoin:miter;"/>
   </g>
   <g id="text_2">
    <!-- Forehead_2 -->
    <defs>
     <path d="M 19.1875 8.296875 
L 53.609375 8.296875 
L 53.609375 0 
L 7.328125 0 
L 7.328125 8.296875 
Q 12.9375 14.109375 22.625 23.890625 
Q 32.328125 33.6875 34.8125 36.53125 
Q 39.546875 41.84375 41.421875 45.53125 
Q 43.3125 49.21875 43.3125 52.78125 
Q 43.3125 58.59375 39.234375 62.25 
Q 35.15625 65.921875 28.609375 65.921875 
Q 23.96875 65.921875 18.8125 64.3125 
Q 13.671875 62.703125 7.8125 59.421875 
L 7.8125 69.390625 
Q 13.765625 71.78125 18.9375 73 
Q 24.125 74.21875 28.421875 74.21875 
Q 39.75 74.21875 46.484375 68.546875 
Q 53.21875 62.890625 53.21875 53.421875 
Q 53.21875 48.921875 51.53125 44.890625 
Q 49.859375 40.875 45.40625 35.40625 
Q 44.1875 33.984375 37.640625 27.21875 
Q 31.109375 20.453125 19.1875 8.296875 
z
" id="DejaVuSans-50"/>
    </defs>
    <g style="fill:#262626;" transform="translate(185.98679 15.175385)scale(0.12 -0.12)">
     <use xlink:href="#DejaVuSans-70"/>
     <use x="53.894531" xlink:href="#DejaVuSans-111"/>
     <use x="115.076172" xlink:href="#DejaVuSans-114"/>
     <use x="153.939453" xlink:href="#DejaVuSans-101"/>
     <use x="215.462891" xlink:href="#DejaVuSans-104"/>
     <use x="278.841797" xlink:href="#DejaVuSans-101"/>
     <use x="340.365234" xlink:href="#DejaVuSans-97"/>
     <use x="401.644531" xlink:href="#DejaVuSans-100"/>
     <use x="465.121094" xlink:href="#DejaVuSans-95"/>
     <use x="515.121094" xlink:href="#DejaVuSans-50"/>
    </g>
   </g>
  </g>
  <g id="axes_3">
   <g id="matplotlib.axis_5"/>
   <g id="matplotlib.axis_6"/>
   <g id="patch_14">
    <path d="M 407.480392 76.107692 
C 407.480392 76.103093 407.480391 76.098494 407.480389 76.093895 
C 407.480388 76.089295 407.480386 76.084696 407.480383 76.080097 
L 363.534545 76.107692 
L 407.480392 76.107692 
z
" style="fill:#66c2a5;stroke:#ffffff;stroke-linejoin:miter;"/>
   </g>
   <g id="patch_15">
    <path d="M 407.480383 76.080097 
C 407.48038 76.075498 407.480376 76.070898 407.480372 76.066299 
C 407.480368 76.0617 407.480363 76.057101 407.480357 76.052501 
L 363.534545 76.107692 
L 407.480383 76.080097 
z
" style="fill:#fc8d62;stroke:#ffffff;stroke-linejoin:miter;"/>
   </g>
   <g id="patch_16">
    <path d="M 407.480357 76.052501 
C 407.480351 76.047902 407.480345 76.043303 407.480337 76.038704 
C 407.48033 76.034105 407.480322 76.029505 407.480314 76.024906 
L 363.534545 76.107692 
L 407.480357 76.052501 
z
" style="fill:#8da0cb;stroke:#ffffff;stroke-linejoin:miter;"/>
   </g>
   <g id="patch_17">
    <path d="M 407.480314 76.024906 
C 407.469448 70.256903 406.323088 64.54707 404.106775 59.221853 
C 401.890462 53.896636 398.647255 49.059494 394.562576 44.98698 
C 390.477897 40.914466 385.631103 37.6857 380.2993 35.48528 
C 374.967496 33.28486 369.254269 32.155535 363.486259 32.161873 
C 357.71825 32.16821 352.007518 33.310087 346.680563 35.522219 
C 341.353608 37.73435 336.513921 40.973759 332.438202 45.05524 
C 328.362482 49.136721 325.129912 53.980978 322.925307 59.311052 
C 320.720701 64.641127 319.586892 70.353465 319.588701 76.121478 
C 319.590511 81.889491 320.727904 87.601118 322.935853 92.929808 
C 325.143802 98.258498 328.379411 103.100726 332.45769 107.179649 
C 336.53597 111.258571 341.377688 114.494943 346.70603 116.703732 
C 352.034372 118.912521 357.745819 120.050815 363.513831 120.053534 
C 369.281844 120.056252 374.994361 118.923344 380.324783 116.719579 
C 385.655205 114.515814 390.499972 111.284007 394.582095 107.208931 
C 398.664218 103.133855 401.90439 98.294679 404.117362 92.968073 
C 406.330333 87.641467 407.47311 81.930915 407.480357 76.162907 
L 363.534545 76.107692 
L 407.480314 76.024906 
z
" style="fill:#e78ac3;stroke:#ffffff;stroke-linejoin:miter;"/>
   </g>
   <g id="patch_18">
    <path d="M 407.480357 76.162907 
C 407.480363 76.158307 407.480368 76.153708 407.480372 76.149109 
C 407.480376 76.14451 407.48038 76.13991 407.480383 76.135311 
L 363.534545 76.107692 
L 407.480357 76.162907 
z
" style="fill:#a6d854;stroke:#ffffff;stroke-linejoin:miter;"/>
   </g>
   <g id="patch_19">
    <path d="M 407.480383 76.135311 
C 407.480386 76.130712 407.480388 76.126113 407.480389 76.121513 
C 407.480391 76.116914 407.480392 76.112315 407.480392 76.107716 
L 363.534545 76.107692 
L 407.480383 76.135311 
z
" style="fill:#ffd92f;stroke:#ffffff;stroke-linejoin:miter;"/>
   </g>
   <g id="text_3">
    <!-- Mouth_1 -->
    <defs>
     <path d="M 9.8125 72.90625 
L 24.515625 72.90625 
L 43.109375 23.296875 
L 61.8125 72.90625 
L 76.515625 72.90625 
L 76.515625 0 
L 66.890625 0 
L 66.890625 64.015625 
L 48.09375 14.015625 
L 38.1875 14.015625 
L 19.390625 64.015625 
L 19.390625 0 
L 9.8125 0 
z
" id="DejaVuSans-77"/>
     <path d="M 8.5 21.578125 
L 8.5 54.6875 
L 17.484375 54.6875 
L 17.484375 21.921875 
Q 17.484375 14.15625 20.5 10.265625 
Q 23.53125 6.390625 29.59375 6.390625 
Q 36.859375 6.390625 41.078125 11.03125 
Q 45.3125 15.671875 45.3125 23.6875 
L 45.3125 54.6875 
L 54.296875 54.6875 
L 54.296875 0 
L 45.3125 0 
L 45.3125 8.40625 
Q 42.046875 3.421875 37.71875 1 
Q 33.40625 -1.421875 27.6875 -1.421875 
Q 18.265625 -1.421875 13.375 4.4375 
Q 8.5 10.296875 8.5 21.578125 
z
M 31.109375 56 
z
" id="DejaVuSans-117"/>
     <path d="M 18.3125 70.21875 
L 18.3125 54.6875 
L 36.8125 54.6875 
L 36.8125 47.703125 
L 18.3125 47.703125 
L 18.3125 18.015625 
Q 18.3125 11.328125 20.140625 9.421875 
Q 21.96875 7.515625 27.59375 7.515625 
L 36.8125 7.515625 
L 36.8125 0 
L 27.59375 0 
Q 17.1875 0 13.234375 3.875 
Q 9.28125 7.765625 9.28125 18.015625 
L 9.28125 47.703125 
L 2.6875 47.703125 
L 2.6875 54.6875 
L 9.28125 54.6875 
L 9.28125 70.21875 
z
" id="DejaVuSans-116"/>
    </defs>
    <g style="fill:#262626;" transform="translate(337.911733 15.175385)scale(0.12 -0.12)">
     <use xlink:href="#DejaVuSans-77"/>
     <use x="86.279297" xlink:href="#DejaVuSans-111"/>
     <use x="147.460938" xlink:href="#DejaVuSans-117"/>
     <use x="210.839844" xlink:href="#DejaVuSans-116"/>
     <use x="250.048828" xlink:href="#DejaVuSans-104"/>
     <use x="313.427734" xlink:href="#DejaVuSans-95"/>
     <use x="363.427734" xlink:href="#DejaVuSans-49"/>
    </g>
   </g>
  </g>
  <g id="axes_4">
   <g id="matplotlib.axis_7"/>
   <g id="matplotlib.axis_8"/>
   <g id="patch_20">
    <path d="M 550.30221 76.107692 
C 550.30221 76.103093 550.302209 76.098494 550.302208 76.093895 
C 550.302206 76.089295 550.302204 76.084696 550.302201 76.080097 
L 506.356364 76.107692 
L 550.30221 76.107692 
z
" style="fill:#66c2a5;stroke:#ffffff;stroke-linejoin:miter;"/>
   </g>
   <g id="patch_21">
    <path d="M 550.302201 76.080097 
C 550.302198 76.075498 550.302195 76.070898 550.30219 76.066299 
C 550.302186 76.0617 550.302181 76.057101 550.302175 76.052501 
L 506.356364 76.107692 
L 550.302201 76.080097 
z
" style="fill:#fc8d62;stroke:#ffffff;stroke-linejoin:miter;"/>
   </g>
   <g id="patch_22">
    <path d="M 550.302175 76.052501 
C 550.302169 76.047902 550.302163 76.043303 550.302156 76.038704 
C 550.302148 76.034105 550.30214 76.029505 550.302132 76.024906 
L 506.356364 76.107692 
L 550.302175 76.052501 
z
" style="fill:#8da0cb;stroke:#ffffff;stroke-linejoin:miter;"/>
   </g>
   <g id="patch_23">
    <path d="M 550.302132 76.024906 
C 550.291266 70.256903 549.144906 64.54707 546.928593 59.221853 
C 544.712281 53.896636 541.469073 49.059494 537.384394 44.98698 
C 533.299715 40.914466 528.452921 37.6857 523.121118 35.48528 
C 517.789314 33.28486 512.076087 32.155535 506.308078 32.161873 
C 500.540068 32.16821 494.829336 33.310087 489.502381 35.522219 
C 484.175426 37.73435 479.335739 40.973759 475.26002 45.05524 
C 471.1843 49.136721 467.95173 53.980978 465.747125 59.311052 
C 463.54252 64.641127 462.40871 70.353465 462.41052 76.121478 
C 462.412329 81.889491 463.549722 87.601118 465.757671 92.929808 
C 467.96562 98.258498 471.201229 103.100726 475.279508 107.179649 
C 479.357788 111.258571 484.199506 114.494943 489.527848 116.703732 
C 494.85619 118.912521 500.567637 120.050815 506.335649 120.053534 
C 512.103662 120.056252 517.81618 118.923344 523.146601 116.719579 
C 528.477023 114.515814 533.32179 111.284007 537.403913 107.208931 
C 541.486036 103.133855 544.726208 98.294679 546.93918 92.968073 
C 549.152151 87.641467 550.294928 81.930915 550.302175 76.162907 
L 506.356364 76.107692 
L 550.302132 76.024906 
z
" style="fill:#e78ac3;stroke:#ffffff;stroke-linejoin:miter;"/>
   </g>
   <g id="patch_24">
    <path d="M 550.302175 76.162907 
C 550.302181 76.158307 550.302186 76.153708 550.30219 76.149109 
C 550.302195 76.14451 550.302198 76.13991 550.302201 76.135311 
L 506.356364 76.107692 
L 550.302175 76.162907 
z
" style="fill:#a6d854;stroke:#ffffff;stroke-linejoin:miter;"/>
   </g>
   <g id="patch_25">
    <path d="M 550.302201 76.135311 
C 550.302204 76.130712 550.302206 76.126113 550.302208 76.121513 
C 550.302209 76.116914 550.30221 76.112315 550.30221 76.107716 
L 506.356364 76.107692 
L 550.302201 76.135311 
z
" style="fill:#ffd92f;stroke:#ffffff;stroke-linejoin:miter;"/>
   </g>
   <g id="text_4">
    <!-- Mouth_2 -->
    <g style="fill:#262626;" transform="translate(480.733551 15.175385)scale(0.12 -0.12)">
     <use xlink:href="#DejaVuSans-77"/>
     <use x="86.279297" xlink:href="#DejaVuSans-111"/>
     <use x="147.460938" xlink:href="#DejaVuSans-117"/>
     <use x="210.839844" xlink:href="#DejaVuSans-116"/>
     <use x="250.048828" xlink:href="#DejaVuSans-104"/>
     <use x="313.427734" xlink:href="#DejaVuSans-95"/>
     <use x="363.427734" xlink:href="#DejaVuSans-50"/>
    </g>
   </g>
  </g>
  <g id="axes_5">
   <g id="matplotlib.axis_9"/>
   <g id="matplotlib.axis_10"/>
   <g id="patch_26">
    <path d="M 693.124028 76.107692 
C 693.124028 76.103093 693.124027 76.098494 693.124026 76.093895 
C 693.124024 76.089295 693.124022 76.084696 693.124019 76.080097 
L 649.178182 76.107692 
L 693.124028 76.107692 
z
" style="fill:#66c2a5;stroke:#ffffff;stroke-linejoin:miter;"/>
   </g>
   <g id="patch_27">
    <path d="M 693.124019 76.080097 
C 693.124016 76.075498 693.124013 76.070898 693.124008 76.066299 
C 693.124004 76.0617 693.123999 76.057101 693.123993 76.052501 
L 649.178182 76.107692 
L 693.124019 76.080097 
z
" style="fill:#fc8d62;stroke:#ffffff;stroke-linejoin:miter;"/>
   </g>
   <g id="patch_28">
    <path d="M 693.123993 76.052501 
C 693.123982 76.043303 693.123967 76.034105 693.12395 76.024906 
C 693.123933 76.015708 693.123912 76.006509 693.123889 75.997311 
L 649.178182 76.107692 
L 693.123993 76.052501 
z
" style="fill:#8da0cb;stroke:#ffffff;stroke-linejoin:miter;"/>
   </g>
   <g id="patch_29">
    <path d="M 693.123889 75.997311 
C 693.109403 70.229896 691.959688 64.521345 689.740463 59.19797 
C 687.521239 53.874594 684.275611 49.039794 680.189106 44.969934 
C 676.1026 40.900074 671.254593 37.674207 665.922203 35.476729 
C 660.589814 33.279252 654.876618 32.152846 649.109192 32.1619 
C 643.341766 32.170954 637.632135 33.315292 632.306672 35.529502 
C 626.981208 37.743711 622.143353 40.984784 618.069646 45.067454 
C 613.995939 49.150125 610.765507 53.995091 608.563008 59.325409 
C 606.360508 64.655726 605.228722 70.367858 605.232344 76.13529 
C 605.235966 81.902722 606.374926 87.613428 608.584118 92.940975 
C 610.793311 98.268522 614.029825 103.109427 618.108657 107.186978 
C 622.187488 111.264529 627.02941 114.499522 632.357651 116.707041 
C 637.685891 118.91456 643.396955 120.051726 649.164388 120.053536 
C 654.931821 120.055347 660.643597 118.921766 665.973222 116.717593 
C 671.302847 114.513419 676.146799 111.281466 680.22819 107.206477 
C 684.309581 103.131487 687.549133 98.292615 689.76167 92.966456 
C 691.974206 87.640297 693.116751 81.930307 693.123993 76.162878 
L 649.178182 76.107692 
L 693.123889 75.997311 
z
" style="fill:#e78ac3;stroke:#ffffff;stroke-linejoin:miter;"/>
   </g>
   <g id="patch_30">
    <path d="M 693.123993 76.162878 
C 693.123999 76.158279 693.124004 76.15368 693.124008 76.149081 
C 693.124013 76.144481 693.124016 76.139882 693.124019 76.135283 
L 649.178182 76.107692 
L 693.123993 76.162878 
z
" style="fill:#a6d854;stroke:#ffffff;stroke-linejoin:miter;"/>
   </g>
   <g id="patch_31">
    <path d="M 693.124019 76.135283 
C 693.124022 76.130684 693.124024 76.126084 693.124026 76.121485 
C 693.124027 76.116886 693.124028 76.112287 693.124028 76.107687 
L 649.178182 76.107692 
L 693.124019 76.135283 
z
" style="fill:#ffd92f;stroke:#ffffff;stroke-linejoin:miter;"/>
   </g>
   <g id="text_5">
    <!-- Stool_1 -->
    <defs>
     <path d="M 53.515625 70.515625 
L 53.515625 60.890625 
Q 47.90625 63.578125 42.921875 64.890625 
Q 37.9375 66.21875 33.296875 66.21875 
Q 25.25 66.21875 20.875 63.09375 
Q 16.5 59.96875 16.5 54.203125 
Q 16.5 49.359375 19.40625 46.890625 
Q 22.3125 44.4375 30.421875 42.921875 
L 36.375 41.703125 
Q 47.40625 39.59375 52.65625 34.296875 
Q 57.90625 29 57.90625 20.125 
Q 57.90625 9.515625 50.796875 4.046875 
Q 43.703125 -1.421875 29.984375 -1.421875 
Q 24.8125 -1.421875 18.96875 -0.25 
Q 13.140625 0.921875 6.890625 3.21875 
L 6.890625 13.375 
Q 12.890625 10.015625 18.65625 8.296875 
Q 24.421875 6.59375 29.984375 6.59375 
Q 38.421875 6.59375 43.015625 9.90625 
Q 47.609375 13.234375 47.609375 19.390625 
Q 47.609375 24.75 44.3125 27.78125 
Q 41.015625 30.8125 33.5 32.328125 
L 27.484375 33.5 
Q 16.453125 35.6875 11.515625 40.375 
Q 6.59375 45.0625 6.59375 53.421875 
Q 6.59375 63.09375 13.40625 68.65625 
Q 20.21875 74.21875 32.171875 74.21875 
Q 37.3125 74.21875 42.625 73.28125 
Q 47.953125 72.359375 53.515625 70.515625 
z
" id="DejaVuSans-83"/>
     <path d="M 9.421875 75.984375 
L 18.40625 75.984375 
L 18.40625 0 
L 9.421875 0 
z
" id="DejaVuSans-108"/>
    </defs>
    <g style="fill:#262626;" transform="translate(627.190057 15.175385)scale(0.12 -0.12)">
     <use xlink:href="#DejaVuSans-83"/>
     <use x="63.476562" xlink:href="#DejaVuSans-116"/>
     <use x="102.685547" xlink:href="#DejaVuSans-111"/>
     <use x="163.867188" xlink:href="#DejaVuSans-111"/>
     <use x="225.048828" xlink:href="#DejaVuSans-108"/>
     <use x="252.832031" xlink:href="#DejaVuSans-95"/>
     <use x="302.832031" xlink:href="#DejaVuSans-49"/>
    </g>
   </g>
  </g>
  <g id="axes_6">
   <g id="patch_32">
    <path d="M 727.069091 131.04 
L 856.930909 131.04 
L 856.930909 21.175385 
L 727.069091 21.175385 
z
" style="fill:#ffffff;"/>
   </g>
   <g id="matplotlib.axis_11"/>
   <g id="matplotlib.axis_12"/>
   <g id="patch_33">
    <path d="M 727.069091 131.04 
L 727.069091 21.175385 
" style="fill:none;stroke:#ffffff;stroke-linecap:square;stroke-linejoin:miter;stroke-width:1.25;"/>
   </g>
   <g id="patch_34">
    <path d="M 856.930909 131.04 
L 856.930909 21.175385 
" style="fill:none;stroke:#ffffff;stroke-linecap:square;stroke-linejoin:miter;stroke-width:1.25;"/>
   </g>
   <g id="patch_35">
    <path d="M 727.069091 131.04 
L 856.930909 131.04 
" style="fill:none;stroke:#ffffff;stroke-linecap:square;stroke-linejoin:miter;stroke-width:1.25;"/>
   </g>
   <g id="patch_36">
    <path d="M 727.069091 21.175385 
L 856.930909 21.175385 
" style="fill:none;stroke:#ffffff;stroke-linecap:square;stroke-linejoin:miter;stroke-width:1.25;"/>
   </g>
  </g>
  <g id="axes_7">
   <g id="matplotlib.axis_13"/>
   <g id="matplotlib.axis_14"/>
   <g id="patch_37">
    <path d="M 978.767664 76.107692 
C 978.767664 76.103093 978.767664 76.098494 978.767662 76.093895 
C 978.767661 76.089295 978.767659 76.084696 978.767656 76.080097 
L 934.821818 76.107692 
L 978.767664 76.107692 
z
" style="fill:#66c2a5;stroke:#ffffff;stroke-linejoin:miter;"/>
   </g>
   <g id="patch_38">
    <path d="M 978.767656 76.080097 
C 978.767653 76.075498 978.767649 76.070898 978.767645 76.066299 
C 978.767641 76.0617 978.767635 76.057101 978.76763 76.052501 
L 934.821818 76.107692 
L 978.767656 76.080097 
z
" style="fill:#fc8d62;stroke:#ffffff;stroke-linejoin:miter;"/>
   </g>
   <g id="patch_39">
    <path d="M 978.76763 76.052501 
C 978.755581 66.458408 975.602034 57.127225 969.791556 49.492756 
C 963.981078 41.858287 955.827341 36.332673 946.583227 33.764964 
C 937.339113 31.197255 927.503657 31.726067 918.588149 35.270144 
C 909.67264 38.814221 902.158375 45.182239 897.199975 53.395706 
L 934.821818 76.107692 
L 978.76763 76.052501 
z
" style="fill:#8da0cb;stroke:#ffffff;stroke-linejoin:miter;"/>
   </g>
   <g id="patch_40">
    <path d="M 897.199975 53.395706 
C 893.701422 59.190973 891.588775 65.717005 891.027363 72.4631 
C 890.46595 79.209196 891.470808 85.994668 893.9633 92.288511 
C 896.455793 98.582355 900.369161 104.215997 905.39716 108.74857 
C 910.425159 113.281142 916.433119 116.591246 922.95088 118.419845 
C 929.468642 120.248443 936.321634 120.54656 942.973567 119.290865 
C 949.625501 118.03517 955.898211 115.259296 961.30082 111.180472 
C 966.703429 107.101648 971.091233 101.829121 974.120861 95.775499 
C 977.150489 89.721876 978.740795 83.049298 978.767327 76.279934 
L 934.821818 76.107692 
L 897.199975 53.395706 
z
" style="fill:#e78ac3;stroke:#ffffff;stroke-linejoin:miter;"/>
   </g>
   <g id="patch_41">
    <path d="M 978.767327 76.279934 
C 978.767421 76.255826 978.767496 76.231717 978.767551 76.207608 
C 978.767606 76.183499 978.767641 76.15939 978.767656 76.135281 
L 934.821818 76.107692 
L 978.767327 76.279934 
z
" style="fill:#a6d854;stroke:#ffffff;stroke-linejoin:miter;"/>
   </g>
   <g id="patch_42">
    <path d="M 978.767656 76.135281 
C 978.767659 76.130682 978.767661 76.126082 978.767662 76.121483 
C 978.767664 76.116884 978.767664 76.112285 978.767664 76.107685 
L 934.821818 76.107692 
L 978.767656 76.135281 
z
" style="fill:#ffd92f;stroke:#ffffff;stroke-linejoin:miter;"/>
   </g>
   <g id="text_6">
    <!-- Stool_2 -->
    <g style="fill:#262626;" transform="translate(912.833693 20.668615)scale(0.12 -0.12)">
     <use xlink:href="#DejaVuSans-83"/>
     <use x="63.476562" xlink:href="#DejaVuSans-116"/>
     <use x="102.685547" xlink:href="#DejaVuSans-111"/>
     <use x="163.867188" xlink:href="#DejaVuSans-111"/>
     <use x="225.048828" xlink:href="#DejaVuSans-108"/>
     <use x="252.832031" xlink:href="#DejaVuSans-95"/>
     <use x="302.832031" xlink:href="#DejaVuSans-50"/>
    </g>
   </g>
  </g>
  <g id="axes_8">
   <g id="matplotlib.axis_15"/>
   <g id="matplotlib.axis_16"/>
   <g id="patch_43">
    <path d="M 1121.589483 76.107692 
C 1121.589483 76.103093 1121.589482 76.098494 1121.58948 76.093895 
C 1121.589479 76.089295 1121.589477 76.084696 1121.589474 76.080097 
L 1077.643636 76.107692 
L 1121.589483 76.107692 
z
" style="fill:#66c2a5;stroke:#ffffff;stroke-linejoin:miter;"/>
   </g>
   <g id="patch_44">
    <path d="M 1121.589474 76.080097 
C 1121.589471 76.075498 1121.589467 76.070898 1121.589463 76.066299 
C 1121.589459 76.0617 1121.589454 76.057101 1121.589448 76.052501 
L 1077.643636 76.107692 
L 1121.589474 76.080097 
z
" style="fill:#fc8d62;stroke:#ffffff;stroke-linejoin:miter;"/>
   </g>
   <g id="patch_45">
    <path d="M 1121.589448 76.052501 
C 1121.5756 65.0263 1117.412462 54.399279 1109.933009 46.297731 
C 1102.453556 38.196182 1092.192273 33.199047 1081.202274 32.306168 
L 1077.643636 76.107692 
L 1121.589448 76.052501 
z
" style="fill:#8da0cb;stroke:#ffffff;stroke-linejoin:miter;"/>
   </g>
   <g id="patch_46">
    <path d="M 1081.202274 32.306168 
C 1076.821084 31.95022 1072.41118 32.253612 1068.120014 33.2062 
C 1063.828848 34.158788 1059.704787 35.749835 1055.885728 37.926142 
C 1052.066668 40.102448 1048.595654 42.839485 1045.588746 46.045733 
C 1042.581837 49.251982 1040.072926 52.891305 1038.145902 56.842014 
C 1036.218877 60.792724 1034.89546 65.010291 1034.2199 69.353693 
C 1033.54434 73.697096 1033.524252 78.117379 1034.160308 82.466742 
C 1034.796363 86.816105 1036.081394 91.045527 1037.972431 95.013587 
C 1039.863469 98.981648 1042.339199 102.643623 1045.316842 105.877069 
C 1048.294485 109.110514 1051.740479 111.878985 1055.539601 114.089912 
C 1059.338723 116.300839 1063.448153 117.929304 1067.730483 118.920854 
C 1072.012814 119.912404 1076.419779 120.255864 1080.804024 119.939751 
C 1085.188268 119.623637 1089.500376 118.651512 1093.596166 117.055882 
C 1097.691955 115.460251 1101.525261 113.259098 1104.967909 110.526023 
C 1108.410558 107.792948 1111.423747 104.558756 1113.906725 100.931588 
C 1116.389703 97.30442 1118.314483 93.325158 1119.616708 89.126856 
C 1120.918933 84.928555 1121.583925 80.558533 1121.589448 76.16291 
L 1077.643636 76.107692 
L 1081.202274 32.306168 
z
" style="fill:#e78ac3;stroke:#ffffff;stroke-linejoin:miter;"/>
   </g>
   <g id="patch_47">
    <path d="M 1121.589448 76.16291 
C 1121.589454 76.158311 1121.589459 76.153712 1121.589463 76.149112 
C 1121.589467 76.144513 1121.589471 76.139914 1121.589474 76.135315 
L 1077.643636 76.107692 
L 1121.589448 76.16291 
z
" style="fill:#a6d854;stroke:#ffffff;stroke-linejoin:miter;"/>
   </g>
   <g id="patch_48">
    <path d="M 1121.589474 76.135315 
C 1121.589477 76.130715 1121.589479 76.126116 1121.58948 76.121517 
C 1121.589482 76.116918 1121.589483 76.112319 1121.589483 76.107719 
L 1077.643636 76.107692 
L 1121.589474 76.135315 
z
" style="fill:#ffd92f;stroke:#ffffff;stroke-linejoin:miter;"/>
   </g>
   <g id="text_7">
    <!-- Left Hand_1 -->
    <defs>
     <path d="M 9.8125 72.90625 
L 19.671875 72.90625 
L 19.671875 8.296875 
L 55.171875 8.296875 
L 55.171875 0 
L 9.8125 0 
z
" id="DejaVuSans-76"/>
     <path d="M 37.109375 75.984375 
L 37.109375 68.5 
L 28.515625 68.5 
Q 23.6875 68.5 21.796875 66.546875 
Q 19.921875 64.59375 19.921875 59.515625 
L 19.921875 54.6875 
L 34.71875 54.6875 
L 34.71875 47.703125 
L 19.921875 47.703125 
L 19.921875 0 
L 10.890625 0 
L 10.890625 47.703125 
L 2.296875 47.703125 
L 2.296875 54.6875 
L 10.890625 54.6875 
L 10.890625 58.5 
Q 10.890625 67.625 15.140625 71.796875 
Q 19.390625 75.984375 28.609375 75.984375 
z
" id="DejaVuSans-102"/>
     <path id="DejaVuSans-32"/>
     <path d="M 9.8125 72.90625 
L 19.671875 72.90625 
L 19.671875 43.015625 
L 55.515625 43.015625 
L 55.515625 72.90625 
L 65.375 72.90625 
L 65.375 0 
L 55.515625 0 
L 55.515625 34.71875 
L 19.671875 34.71875 
L 19.671875 0 
L 9.8125 0 
z
" id="DejaVuSans-72"/>
     <path d="M 54.890625 33.015625 
L 54.890625 0 
L 45.90625 0 
L 45.90625 32.71875 
Q 45.90625 40.484375 42.875 44.328125 
Q 39.84375 48.1875 33.796875 48.1875 
Q 26.515625 48.1875 22.3125 43.546875 
Q 18.109375 38.921875 18.109375 30.90625 
L 18.109375 0 
L 9.078125 0 
L 9.078125 54.6875 
L 18.109375 54.6875 
L 18.109375 46.1875 
Q 21.34375 51.125 25.703125 53.5625 
Q 30.078125 56 35.796875 56 
Q 45.21875 56 50.046875 50.171875 
Q 54.890625 44.34375 54.890625 33.015625 
z
" id="DejaVuSans-110"/>
    </defs>
    <g style="fill:#262626;" transform="translate(1041.829261 20.668615)scale(0.12 -0.12)">
     <use xlink:href="#DejaVuSans-76"/>
     <use x="53.962891" xlink:href="#DejaVuSans-101"/>
     <use x="115.486328" xlink:href="#DejaVuSans-102"/>
     <use x="148.941406" xlink:href="#DejaVuSans-116"/>
     <use x="188.150391" xlink:href="#DejaVuSans-32"/>
     <use x="219.9375" xlink:href="#DejaVuSans-72"/>
     <use x="295.132812" xlink:href="#DejaVuSans-97"/>
     <use x="356.412109" xlink:href="#DejaVuSans-110"/>
     <use x="419.791016" xlink:href="#DejaVuSans-100"/>
     <use x="483.267578" xlink:href="#DejaVuSans-95"/>
     <use x="533.267578" xlink:href="#DejaVuSans-49"/>
    </g>
   </g>
  </g>
  <g id="axes_9">
   <g id="matplotlib.axis_17"/>
   <g id="matplotlib.axis_18"/>
   <g id="patch_49">
    <path d="M 1264.411301 76.107692 
C 1264.411301 76.103093 1264.4113 76.098494 1264.411299 76.093895 
C 1264.411297 76.089295 1264.411295 76.084696 1264.411292 76.080097 
L 1220.465455 76.107692 
L 1264.411301 76.107692 
z
" style="fill:#66c2a5;stroke:#ffffff;stroke-linejoin:miter;"/>
   </g>
   <g id="patch_50">
    <path d="M 1264.411292 76.080097 
C 1264.411289 76.075498 1264.411286 76.070898 1264.411281 76.066299 
C 1264.411277 76.0617 1264.411272 76.057101 1264.411266 76.052501 
L 1220.465455 76.107692 
L 1264.411292 76.080097 
z
" style="fill:#fc8d62;stroke:#ffffff;stroke-linejoin:miter;"/>
   </g>
   <g id="patch_51">
    <path d="M 1264.411266 76.052501 
C 1264.411254 76.043303 1264.41124 76.034105 1264.411223 76.024907 
C 1264.411205 76.015709 1264.411185 76.006511 1264.411162 75.997313 
L 1220.465455 76.107692 
L 1264.411266 76.052501 
z
" style="fill:#8da0cb;stroke:#ffffff;stroke-linejoin:miter;"/>
   </g>
   <g id="patch_52">
    <path d="M 1264.411162 75.997313 
C 1264.396676 70.229898 1263.246961 64.521348 1261.027737 59.197972 
C 1258.808513 53.874596 1255.562886 49.039796 1251.47638 44.969936 
C 1247.389875 40.900076 1242.541868 37.674209 1237.209478 35.47673 
C 1231.877089 33.279252 1226.163894 32.152846 1220.396468 32.1619 
C 1214.629041 32.170954 1208.919411 33.315292 1203.593947 35.529501 
C 1198.268483 37.74371 1193.430628 40.984782 1189.356921 45.067452 
C 1185.283213 49.150122 1182.052781 53.995089 1179.850282 59.325406 
C 1177.647782 64.655723 1176.515995 70.367855 1176.519617 76.135287 
C 1176.523239 81.90272 1177.662198 87.613426 1179.87139 92.940973 
C 1182.080582 98.268519 1185.317096 103.109425 1189.395928 107.186976 
C 1193.474759 111.264527 1198.316681 114.499521 1203.644921 116.70704 
C 1208.973161 118.914559 1214.684225 120.051726 1220.451658 120.053536 
C 1226.219091 120.055347 1231.930867 118.921767 1237.260492 116.717594 
C 1242.590118 114.513421 1247.43407 111.281468 1251.515461 107.206479 
C 1255.596852 103.13149 1258.836404 98.292617 1261.048941 92.966458 
C 1263.261478 87.6403 1264.404023 81.93031 1264.411266 76.162881 
L 1220.465455 76.107692 
L 1264.411162 75.997313 
z
" style="fill:#e78ac3;stroke:#ffffff;stroke-linejoin:miter;"/>
   </g>
   <g id="patch_53">
    <path d="M 1264.411266 76.162881 
C 1264.411272 76.158282 1264.411277 76.153683 1264.411281 76.149083 
C 1264.411286 76.144484 1264.411289 76.139885 1264.411292 76.135286 
L 1220.465455 76.107692 
L 1264.411266 76.162881 
z
" style="fill:#a6d854;stroke:#ffffff;stroke-linejoin:miter;"/>
   </g>
   <g id="patch_54">
    <path d="M 1264.411292 76.135286 
C 1264.411295 76.130686 1264.411297 76.126087 1264.411299 76.121488 
C 1264.4113 76.116889 1264.411301 76.112289 1264.411301 76.10769 
L 1220.465455 76.107692 
L 1264.411292 76.135286 
z
" style="fill:#ffd92f;stroke:#ffffff;stroke-linejoin:miter;"/>
   </g>
   <g id="text_8">
    <!-- Left Hand_2 -->
    <g style="fill:#262626;" transform="translate(1184.65108 20.668615)scale(0.12 -0.12)">
     <use xlink:href="#DejaVuSans-76"/>
     <use x="53.962891" xlink:href="#DejaVuSans-101"/>
     <use x="115.486328" xlink:href="#DejaVuSans-102"/>
     <use x="148.941406" xlink:href="#DejaVuSans-116"/>
     <use x="188.150391" xlink:href="#DejaVuSans-32"/>
     <use x="219.9375" xlink:href="#DejaVuSans-72"/>
     <use x="295.132812" xlink:href="#DejaVuSans-97"/>
     <use x="356.412109" xlink:href="#DejaVuSans-110"/>
     <use x="419.791016" xlink:href="#DejaVuSans-100"/>
     <use x="483.267578" xlink:href="#DejaVuSans-95"/>
     <use x="533.267578" xlink:href="#DejaVuSans-50"/>
    </g>
   </g>
  </g>
  <g id="axes_10">
   <g id="matplotlib.axis_19"/>
   <g id="matplotlib.axis_20"/>
   <g id="patch_55">
    <path d="M 1407.233119 76.107692 
C 1407.233119 76.103093 1407.233118 76.098494 1407.233117 76.093895 
C 1407.233115 76.089295 1407.233113 76.084696 1407.23311 76.080097 
L 1363.287273 76.107692 
L 1407.233119 76.107692 
z
" style="fill:#66c2a5;stroke:#ffffff;stroke-linejoin:miter;"/>
   </g>
   <g id="patch_56">
    <path d="M 1407.23311 76.080097 
C 1407.233107 76.075498 1407.233104 76.070898 1407.233099 76.066299 
C 1407.233095 76.0617 1407.23309 76.057101 1407.233084 76.052501 
L 1363.287273 76.107692 
L 1407.23311 76.080097 
z
" style="fill:#fc8d62;stroke:#ffffff;stroke-linejoin:miter;"/>
   </g>
   <g id="patch_57">
    <path d="M 1407.233084 76.052501 
C 1407.233055 76.029511 1407.233008 76.00652 1407.232943 75.98353 
C 1407.232879 75.960539 1407.232796 75.937548 1407.232694 75.914558 
L 1363.287273 76.107692 
L 1407.233084 76.052501 
z
" style="fill:#8da0cb;stroke:#ffffff;stroke-linejoin:miter;"/>
   </g>
   <g id="patch_58">
    <path d="M 1407.232694 75.914558 
C 1407.207355 70.148922 1406.047585 64.444234 1403.81964 59.12639 
C 1401.591694 53.808546 1398.338822 48.980777 1394.246852 44.918883 
C 1390.154882 40.856988 1385.303249 37.639817 1379.969115 35.451161 
C 1374.63498 33.262504 1368.921892 32.144848 1363.156226 32.162042 
C 1357.390559 32.179235 1351.684239 33.330944 1346.363253 35.551374 
C 1341.042266 37.771805 1336.209907 41.017853 1332.142235 45.10408 
C 1328.074563 49.190307 1324.850541 54.03739 1322.65435 59.368426 
C 1320.45816 64.699463 1319.332433 70.410966 1319.341481 76.176651 
C 1319.350528 81.942336 1320.494174 87.650279 1322.707084 92.974397 
C 1324.919995 98.298515 1328.159213 103.135456 1332.239689 107.208897 
C 1336.320164 111.282338 1341.162688 114.513204 1346.490616 116.716924 
C 1351.818545 118.920645 1357.528452 120.054439 1363.294144 120.053538 
C 1369.059836 120.052636 1374.769388 118.917056 1380.096627 116.71167 
C 1385.423867 114.506284 1390.265379 111.273903 1394.344581 107.199186 
C 1398.423783 103.124469 1401.661488 98.286516 1403.872733 92.961706 
C 1406.083979 87.636896 1407.22584 81.928597 1407.233084 76.162909 
L 1363.287273 76.107692 
L 1407.232694 75.914558 
z
" style="fill:#e78ac3;stroke:#ffffff;stroke-linejoin:miter;"/>
   </g>
   <g id="patch_59">
    <path d="M 1407.233084 76.162909 
C 1407.23309 76.15831 1407.233095 76.153711 1407.233099 76.149111 
C 1407.233104 76.144512 1407.233107 76.139913 1407.23311 76.135314 
L 1363.287273 76.107692 
L 1407.233084 76.162909 
z
" style="fill:#a6d854;stroke:#ffffff;stroke-linejoin:miter;"/>
   </g>
   <g id="patch_60">
    <path d="M 1407.23311 76.135314 
C 1407.233113 76.130714 1407.233115 76.126115 1407.233117 76.121516 
C 1407.233118 76.116917 1407.233119 76.112317 1407.233119 76.107718 
L 1363.287273 76.107692 
L 1407.23311 76.135314 
z
" style="fill:#ffd92f;stroke:#ffffff;stroke-linejoin:miter;"/>
   </g>
   <g id="text_9">
    <!-- Right Hand_1 -->
    <defs>
     <path d="M 44.390625 34.1875 
Q 47.5625 33.109375 50.5625 29.59375 
Q 53.5625 26.078125 56.59375 19.921875 
L 66.609375 0 
L 56 0 
L 46.6875 18.703125 
Q 43.0625 26.03125 39.671875 28.421875 
Q 36.28125 30.8125 30.421875 30.8125 
L 19.671875 30.8125 
L 19.671875 0 
L 9.8125 0 
L 9.8125 72.90625 
L 32.078125 72.90625 
Q 44.578125 72.90625 50.734375 67.671875 
Q 56.890625 62.453125 56.890625 51.90625 
Q 56.890625 45.015625 53.6875 40.46875 
Q 50.484375 35.9375 44.390625 34.1875 
z
M 19.671875 64.796875 
L 19.671875 38.921875 
L 32.078125 38.921875 
Q 39.203125 38.921875 42.84375 42.21875 
Q 46.484375 45.515625 46.484375 51.90625 
Q 46.484375 58.296875 42.84375 61.546875 
Q 39.203125 64.796875 32.078125 64.796875 
z
" id="DejaVuSans-82"/>
     <path d="M 9.421875 54.6875 
L 18.40625 54.6875 
L 18.40625 0 
L 9.421875 0 
z
M 9.421875 75.984375 
L 18.40625 75.984375 
L 18.40625 64.59375 
L 9.421875 64.59375 
z
" id="DejaVuSans-105"/>
     <path d="M 45.40625 27.984375 
Q 45.40625 37.75 41.375 43.109375 
Q 37.359375 48.484375 30.078125 48.484375 
Q 22.859375 48.484375 18.828125 43.109375 
Q 14.796875 37.75 14.796875 27.984375 
Q 14.796875 18.265625 18.828125 12.890625 
Q 22.859375 7.515625 30.078125 7.515625 
Q 37.359375 7.515625 41.375 12.890625 
Q 45.40625 18.265625 45.40625 27.984375 
z
M 54.390625 6.78125 
Q 54.390625 -7.171875 48.1875 -13.984375 
Q 42 -20.796875 29.203125 -20.796875 
Q 24.46875 -20.796875 20.265625 -20.09375 
Q 16.0625 -19.390625 12.109375 -17.921875 
L 12.109375 -9.1875 
Q 16.0625 -11.328125 19.921875 -12.34375 
Q 23.78125 -13.375 27.78125 -13.375 
Q 36.625 -13.375 41.015625 -8.765625 
Q 45.40625 -4.15625 45.40625 5.171875 
L 45.40625 9.625 
Q 42.625 4.78125 38.28125 2.390625 
Q 33.9375 0 27.875 0 
Q 17.828125 0 11.671875 7.65625 
Q 5.515625 15.328125 5.515625 27.984375 
Q 5.515625 40.671875 11.671875 48.328125 
Q 17.828125 56 27.875 56 
Q 33.9375 56 38.28125 53.609375 
Q 42.625 51.21875 45.40625 46.390625 
L 45.40625 54.6875 
L 54.390625 54.6875 
z
" id="DejaVuSans-103"/>
    </defs>
    <g style="fill:#262626;" transform="translate(1322.962585 20.668615)scale(0.12 -0.12)">
     <use xlink:href="#DejaVuSans-82"/>
     <use x="69.482422" xlink:href="#DejaVuSans-105"/>
     <use x="97.265625" xlink:href="#DejaVuSans-103"/>
     <use x="160.742188" xlink:href="#DejaVuSans-104"/>
     <use x="224.121094" xlink:href="#DejaVuSans-116"/>
     <use x="263.330078" xlink:href="#DejaVuSans-32"/>
     <use x="295.117188" xlink:href="#DejaVuSans-72"/>
     <use x="370.3125" xlink:href="#DejaVuSans-97"/>
     <use x="431.591797" xlink:href="#DejaVuSans-110"/>
     <use x="494.970703" xlink:href="#DejaVuSans-100"/>
     <use x="558.447266" xlink:href="#DejaVuSans-95"/>
     <use x="608.447266" xlink:href="#DejaVuSans-49"/>
    </g>
   </g>
  </g>
  <g id="axes_11">
   <g id="matplotlib.axis_21"/>
   <g id="matplotlib.axis_22"/>
   <g id="patch_61">
    <path d="M 1550.054937 76.107692 
C 1550.054937 76.103093 1550.054936 76.098494 1550.054935 76.093895 
C 1550.054933 76.089295 1550.054931 76.084696 1550.054928 76.080097 
L 1506.109091 76.107692 
L 1550.054937 76.107692 
z
" style="fill:#66c2a5;stroke:#ffffff;stroke-linejoin:miter;"/>
   </g>
   <g id="patch_62">
    <path d="M 1550.054928 76.080097 
C 1550.054926 76.075498 1550.054922 76.070898 1550.054918 76.066299 
C 1550.054913 76.0617 1550.054908 76.057101 1550.054902 76.052501 
L 1506.109091 76.107692 
L 1550.054928 76.080097 
z
" style="fill:#fc8d62;stroke:#ffffff;stroke-linejoin:miter;"/>
   </g>
   <g id="patch_63">
    <path d="M 1550.054902 76.052501 
C 1550.054885 76.038706 1550.054861 76.02491 1550.054831 76.011114 
C 1550.054801 75.997318 1550.054764 75.983522 1550.05472 75.969726 
L 1506.109091 76.107692 
L 1550.054902 76.052501 
z
" style="fill:#8da0cb;stroke:#ffffff;stroke-linejoin:miter;"/>
   </g>
   <g id="patch_64">
    <path d="M 1550.05472 75.969726 
C 1550.036616 70.202902 1548.883548 64.495637 1546.661415 59.174103 
C 1544.439281 53.85257 1541.191237 49.020112 1537.102908 44.952906 
C 1533.014579 40.885701 1528.165361 37.662733 1522.832388 35.468195 
C 1517.499415 33.273658 1511.786254 32.15017 1506.019413 32.161938 
C 1500.252572 32.173706 1494.544043 33.320502 1489.220071 35.536786 
C 1483.896099 37.753071 1479.060075 40.995803 1474.98838 45.079661 
C 1470.916684 49.163518 1467.68839 54.009192 1465.487994 59.33975 
C 1463.287598 64.670309 1462.157833 70.382232 1462.163264 76.149083 
C 1462.168696 81.915933 1463.309219 87.625718 1465.519652 92.952123 
C 1467.730085 98.278527 1470.967502 103.118111 1475.046883 107.194291 
C 1479.126264 111.270471 1483.968387 114.504088 1489.296524 116.71034 
C 1494.624662 118.916592 1500.33534 120.052633 1506.102193 120.053538 
C 1511.869047 120.054443 1517.580081 118.920195 1522.908911 116.715616 
C 1528.237741 114.511036 1533.080879 111.27894 1537.161539 107.20404 
C 1541.2422 103.12914 1544.481135 98.290573 1546.69324 92.964863 
C 1548.905345 87.639153 1550.047661 81.929726 1550.054902 76.162878 
L 1506.109091 76.107692 
L 1550.05472 75.969726 
z
" style="fill:#e78ac3;stroke:#ffffff;stroke-linejoin:miter;"/>
   </g>
   <g id="patch_65">
    <path d="M 1550.054902 76.162878 
C 1550.054908 76.158278 1550.054913 76.153679 1550.054918 76.14908 
C 1550.054922 76.144481 1550.054926 76.139881 1550.054928 76.135282 
L 1506.109091 76.107692 
L 1550.054902 76.162878 
z
" style="fill:#a6d854;stroke:#ffffff;stroke-linejoin:miter;"/>
   </g>
   <g id="patch_66">
    <path d="M 1550.054928 76.135282 
C 1550.054931 76.130683 1550.054933 76.126084 1550.054935 76.121484 
C 1550.054936 76.116885 1550.054937 76.112286 1550.054937 76.107687 
L 1506.109091 76.107692 
L 1550.054928 76.135282 
z
" style="fill:#ffd92f;stroke:#ffffff;stroke-linejoin:miter;"/>
   </g>
   <g id="text_10">
    <!-- Right Hand_2 -->
    <g style="fill:#262626;" transform="translate(1465.784403 20.668615)scale(0.12 -0.12)">
     <use xlink:href="#DejaVuSans-82"/>
     <use x="69.482422" xlink:href="#DejaVuSans-105"/>
     <use x="97.265625" xlink:href="#DejaVuSans-103"/>
     <use x="160.742188" xlink:href="#DejaVuSans-104"/>
     <use x="224.121094" xlink:href="#DejaVuSans-116"/>
     <use x="263.330078" xlink:href="#DejaVuSans-32"/>
     <use x="295.117188" xlink:href="#DejaVuSans-72"/>
     <use x="370.3125" xlink:href="#DejaVuSans-97"/>
     <use x="431.591797" xlink:href="#DejaVuSans-110"/>
     <use x="494.970703" xlink:href="#DejaVuSans-100"/>
     <use x="558.447266" xlink:href="#DejaVuSans-95"/>
     <use x="608.447266" xlink:href="#DejaVuSans-50"/>
    </g>
   </g>
  </g>
  <g id="text_11">
   <!-- ONN4MST Layer-2 -->
   <defs>
    <path d="M 39.40625 66.21875 
Q 28.65625 66.21875 22.328125 58.203125 
Q 16.015625 50.203125 16.015625 36.375 
Q 16.015625 22.609375 22.328125 14.59375 
Q 28.65625 6.59375 39.40625 6.59375 
Q 50.140625 6.59375 56.421875 14.59375 
Q 62.703125 22.609375 62.703125 36.375 
Q 62.703125 50.203125 56.421875 58.203125 
Q 50.140625 66.21875 39.40625 66.21875 
z
M 39.40625 74.21875 
Q 54.734375 74.21875 63.90625 63.9375 
Q 73.09375 53.65625 73.09375 36.375 
Q 73.09375 19.140625 63.90625 8.859375 
Q 54.734375 -1.421875 39.40625 -1.421875 
Q 24.03125 -1.421875 14.8125 8.828125 
Q 5.609375 19.09375 5.609375 36.375 
Q 5.609375 53.65625 14.8125 63.9375 
Q 24.03125 74.21875 39.40625 74.21875 
z
" id="DejaVuSans-79"/>
    <path d="M 9.8125 72.90625 
L 23.09375 72.90625 
L 55.421875 11.921875 
L 55.421875 72.90625 
L 64.984375 72.90625 
L 64.984375 0 
L 51.703125 0 
L 19.390625 60.984375 
L 19.390625 0 
L 9.8125 0 
z
" id="DejaVuSans-78"/>
    <path d="M 37.796875 64.3125 
L 12.890625 25.390625 
L 37.796875 25.390625 
z
M 35.203125 72.90625 
L 47.609375 72.90625 
L 47.609375 25.390625 
L 58.015625 25.390625 
L 58.015625 17.1875 
L 47.609375 17.1875 
L 47.609375 0 
L 37.796875 0 
L 37.796875 17.1875 
L 4.890625 17.1875 
L 4.890625 26.703125 
z
" id="DejaVuSans-52"/>
    <path d="M -0.296875 72.90625 
L 61.375 72.90625 
L 61.375 64.59375 
L 35.5 64.59375 
L 35.5 0 
L 25.59375 0 
L 25.59375 64.59375 
L -0.296875 64.59375 
z
" id="DejaVuSans-84"/>
    <path d="M 32.171875 -5.078125 
Q 28.375 -14.84375 24.75 -17.8125 
Q 21.140625 -20.796875 15.09375 -20.796875 
L 7.90625 -20.796875 
L 7.90625 -13.28125 
L 13.1875 -13.28125 
Q 16.890625 -13.28125 18.9375 -11.515625 
Q 21 -9.765625 23.484375 -3.21875 
L 25.09375 0.875 
L 2.984375 54.6875 
L 12.5 54.6875 
L 29.59375 11.921875 
L 46.6875 54.6875 
L 56.203125 54.6875 
z
" id="DejaVuSans-121"/>
    <path d="M 4.890625 31.390625 
L 31.203125 31.390625 
L 31.203125 23.390625 
L 4.890625 23.390625 
z
" id="DejaVuSans-45"/>
   </defs>
   <g style="fill:#262626;" transform="translate(726.714 13.82175)scale(0.144 -0.144)">
    <use xlink:href="#DejaVuSans-79"/>
    <use x="78.710938" xlink:href="#DejaVuSans-78"/>
    <use x="153.515625" xlink:href="#DejaVuSans-78"/>
    <use x="228.320312" xlink:href="#DejaVuSans-52"/>
    <use x="291.943359" xlink:href="#DejaVuSans-77"/>
    <use x="378.222656" xlink:href="#DejaVuSans-83"/>
    <use x="441.699219" xlink:href="#DejaVuSans-84"/>
    <use x="502.783203" xlink:href="#DejaVuSans-32"/>
    <use x="534.570312" xlink:href="#DejaVuSans-76"/>
    <use x="590.283203" xlink:href="#DejaVuSans-97"/>
    <use x="651.5625" xlink:href="#DejaVuSans-121"/>
    <use x="710.742188" xlink:href="#DejaVuSans-101"/>
    <use x="772.265625" xlink:href="#DejaVuSans-114"/>
    <use x="807.003906" xlink:href="#DejaVuSans-45"/>
    <use x="843.087891" xlink:href="#DejaVuSans-50"/>
   </g>
  </g>
  <g id="legend_1">
   <g id="patch_67">
    <path d="M 703.61 127.529531 
L 811.207891 127.529531 
Q 813.107891 127.529531 813.107891 125.629531 
L 813.107891 42.65 
Q 813.107891 40.75 811.207891 40.75 
L 703.61 40.75 
Q 701.71 40.75 701.71 42.65 
L 701.71 125.629531 
Q 701.71 127.529531 703.61 127.529531 
z
" style="fill:#ffffff;opacity:0.8;stroke:#ffffff;stroke-linejoin:miter;"/>
   </g>
   <g id="patch_68">
    <path d="M 705.51 51.768516 
L 724.51 51.768516 
L 724.51 45.118516 
L 705.51 45.118516 
z
" style="fill:#66c2a5;stroke:#ffffff;stroke-linejoin:miter;"/>
   </g>
   <g id="text_12">
    <!-- Unknown -->
    <defs>
     <path d="M 8.6875 72.90625 
L 18.609375 72.90625 
L 18.609375 28.609375 
Q 18.609375 16.890625 22.84375 11.734375 
Q 27.09375 6.59375 36.625 6.59375 
Q 46.09375 6.59375 50.34375 11.734375 
Q 54.59375 16.890625 54.59375 28.609375 
L 54.59375 72.90625 
L 64.5 72.90625 
L 64.5 27.390625 
Q 64.5 13.140625 57.4375 5.859375 
Q 50.390625 -1.421875 36.625 -1.421875 
Q 22.796875 -1.421875 15.734375 5.859375 
Q 8.6875 13.140625 8.6875 27.390625 
z
" id="DejaVuSans-85"/>
     <path d="M 9.078125 75.984375 
L 18.109375 75.984375 
L 18.109375 31.109375 
L 44.921875 54.6875 
L 56.390625 54.6875 
L 27.390625 29.109375 
L 57.625 0 
L 45.90625 0 
L 18.109375 26.703125 
L 18.109375 0 
L 9.078125 0 
z
" id="DejaVuSans-107"/>
     <path d="M 4.203125 54.6875 
L 13.1875 54.6875 
L 24.421875 12.015625 
L 35.59375 54.6875 
L 46.1875 54.6875 
L 57.421875 12.015625 
L 68.609375 54.6875 
L 77.59375 54.6875 
L 63.28125 0 
L 52.6875 0 
L 40.921875 44.828125 
L 29.109375 0 
L 18.5 0 
z
" id="DejaVuSans-119"/>
    </defs>
    <g style="fill:#262626;" transform="translate(732.11 51.768516)scale(0.095 -0.095)">
     <use xlink:href="#DejaVuSans-85"/>
     <use x="73.193359" xlink:href="#DejaVuSans-110"/>
     <use x="136.572266" xlink:href="#DejaVuSans-107"/>
     <use x="194.482422" xlink:href="#DejaVuSans-110"/>
     <use x="257.861328" xlink:href="#DejaVuSans-111"/>
     <use x="319.042969" xlink:href="#DejaVuSans-119"/>
     <use x="400.830078" xlink:href="#DejaVuSans-110"/>
    </g>
   </g>
   <g id="patch_69">
    <path d="M 705.51 65.712734 
L 724.51 65.712734 
L 724.51 59.062734 
L 705.51 59.062734 
z
" style="fill:#fc8d62;stroke:#ffffff;stroke-linejoin:miter;"/>
   </g>
   <g id="text_13">
    <!-- Engineered -->
    <defs>
     <path d="M 9.8125 72.90625 
L 55.90625 72.90625 
L 55.90625 64.59375 
L 19.671875 64.59375 
L 19.671875 43.015625 
L 54.390625 43.015625 
L 54.390625 34.71875 
L 19.671875 34.71875 
L 19.671875 8.296875 
L 56.78125 8.296875 
L 56.78125 0 
L 9.8125 0 
z
" id="DejaVuSans-69"/>
    </defs>
    <g style="fill:#262626;" transform="translate(732.11 65.712734)scale(0.095 -0.095)">
     <use xlink:href="#DejaVuSans-69"/>
     <use x="63.183594" xlink:href="#DejaVuSans-110"/>
     <use x="126.5625" xlink:href="#DejaVuSans-103"/>
     <use x="190.039062" xlink:href="#DejaVuSans-105"/>
     <use x="217.822266" xlink:href="#DejaVuSans-110"/>
     <use x="281.201172" xlink:href="#DejaVuSans-101"/>
     <use x="342.724609" xlink:href="#DejaVuSans-101"/>
     <use x="404.248047" xlink:href="#DejaVuSans-114"/>
     <use x="443.111328" xlink:href="#DejaVuSans-101"/>
     <use x="504.634766" xlink:href="#DejaVuSans-100"/>
    </g>
   </g>
   <g id="patch_70">
    <path d="M 705.51 79.656953 
L 724.51 79.656953 
L 724.51 73.006953 
L 705.51 73.006953 
z
" style="fill:#8da0cb;stroke:#ffffff;stroke-linejoin:miter;"/>
   </g>
   <g id="text_14">
    <!-- Environmental -->
    <defs>
     <path d="M 2.984375 54.6875 
L 12.5 54.6875 
L 29.59375 8.796875 
L 46.6875 54.6875 
L 56.203125 54.6875 
L 35.6875 0 
L 23.484375 0 
z
" id="DejaVuSans-118"/>
     <path d="M 52 44.1875 
Q 55.375 50.25 60.0625 53.125 
Q 64.75 56 71.09375 56 
Q 79.640625 56 84.28125 50.015625 
Q 88.921875 44.046875 88.921875 33.015625 
L 88.921875 0 
L 79.890625 0 
L 79.890625 32.71875 
Q 79.890625 40.578125 77.09375 44.375 
Q 74.3125 48.1875 68.609375 48.1875 
Q 61.625 48.1875 57.5625 43.546875 
Q 53.515625 38.921875 53.515625 30.90625 
L 53.515625 0 
L 44.484375 0 
L 44.484375 32.71875 
Q 44.484375 40.625 41.703125 44.40625 
Q 38.921875 48.1875 33.109375 48.1875 
Q 26.21875 48.1875 22.15625 43.53125 
Q 18.109375 38.875 18.109375 30.90625 
L 18.109375 0 
L 9.078125 0 
L 9.078125 54.6875 
L 18.109375 54.6875 
L 18.109375 46.1875 
Q 21.1875 51.21875 25.484375 53.609375 
Q 29.78125 56 35.6875 56 
Q 41.65625 56 45.828125 52.96875 
Q 50 49.953125 52 44.1875 
z
" id="DejaVuSans-109"/>
    </defs>
    <g style="fill:#262626;" transform="translate(732.11 79.656953)scale(0.095 -0.095)">
     <use xlink:href="#DejaVuSans-69"/>
     <use x="63.183594" xlink:href="#DejaVuSans-110"/>
     <use x="126.5625" xlink:href="#DejaVuSans-118"/>
     <use x="185.742188" xlink:href="#DejaVuSans-105"/>
     <use x="213.525391" xlink:href="#DejaVuSans-114"/>
     <use x="252.388672" xlink:href="#DejaVuSans-111"/>
     <use x="313.570312" xlink:href="#DejaVuSans-110"/>
     <use x="376.949219" xlink:href="#DejaVuSans-109"/>
     <use x="474.361328" xlink:href="#DejaVuSans-101"/>
     <use x="535.884766" xlink:href="#DejaVuSans-110"/>
     <use x="599.263672" xlink:href="#DejaVuSans-116"/>
     <use x="638.472656" xlink:href="#DejaVuSans-97"/>
     <use x="699.751953" xlink:href="#DejaVuSans-108"/>
    </g>
   </g>
   <g id="patch_71">
    <path d="M 705.51 93.601172 
L 724.51 93.601172 
L 724.51 86.951172 
L 705.51 86.951172 
z
" style="fill:#e78ac3;stroke:#ffffff;stroke-linejoin:miter;"/>
   </g>
   <g id="text_15">
    <!-- Host_associated -->
    <defs>
     <path d="M 44.28125 53.078125 
L 44.28125 44.578125 
Q 40.484375 46.53125 36.375 47.5 
Q 32.28125 48.484375 27.875 48.484375 
Q 21.1875 48.484375 17.84375 46.4375 
Q 14.5 44.390625 14.5 40.28125 
Q 14.5 37.15625 16.890625 35.375 
Q 19.28125 33.59375 26.515625 31.984375 
L 29.59375 31.296875 
Q 39.15625 29.25 43.1875 25.515625 
Q 47.21875 21.78125 47.21875 15.09375 
Q 47.21875 7.46875 41.1875 3.015625 
Q 35.15625 -1.421875 24.609375 -1.421875 
Q 20.21875 -1.421875 15.453125 -0.5625 
Q 10.6875 0.296875 5.421875 2 
L 5.421875 11.28125 
Q 10.40625 8.6875 15.234375 7.390625 
Q 20.0625 6.109375 24.8125 6.109375 
Q 31.15625 6.109375 34.5625 8.28125 
Q 37.984375 10.453125 37.984375 14.40625 
Q 37.984375 18.0625 35.515625 20.015625 
Q 33.0625 21.96875 24.703125 23.78125 
L 21.578125 24.515625 
Q 13.234375 26.265625 9.515625 29.90625 
Q 5.8125 33.546875 5.8125 39.890625 
Q 5.8125 47.609375 11.28125 51.796875 
Q 16.75 56 26.8125 56 
Q 31.78125 56 36.171875 55.265625 
Q 40.578125 54.546875 44.28125 53.078125 
z
" id="DejaVuSans-115"/>
     <path d="M 48.78125 52.59375 
L 48.78125 44.1875 
Q 44.96875 46.296875 41.140625 47.34375 
Q 37.3125 48.390625 33.40625 48.390625 
Q 24.65625 48.390625 19.8125 42.84375 
Q 14.984375 37.3125 14.984375 27.296875 
Q 14.984375 17.28125 19.8125 11.734375 
Q 24.65625 6.203125 33.40625 6.203125 
Q 37.3125 6.203125 41.140625 7.25 
Q 44.96875 8.296875 48.78125 10.40625 
L 48.78125 2.09375 
Q 45.015625 0.34375 40.984375 -0.53125 
Q 36.96875 -1.421875 32.421875 -1.421875 
Q 20.0625 -1.421875 12.78125 6.34375 
Q 5.515625 14.109375 5.515625 27.296875 
Q 5.515625 40.671875 12.859375 48.328125 
Q 20.21875 56 33.015625 56 
Q 37.15625 56 41.109375 55.140625 
Q 45.0625 54.296875 48.78125 52.59375 
z
" id="DejaVuSans-99"/>
    </defs>
    <g style="fill:#262626;" transform="translate(732.11 93.601172)scale(0.095 -0.095)">
     <use xlink:href="#DejaVuSans-72"/>
     <use x="75.195312" xlink:href="#DejaVuSans-111"/>
     <use x="136.376953" xlink:href="#DejaVuSans-115"/>
     <use x="188.476562" xlink:href="#DejaVuSans-116"/>
     <use x="227.685547" xlink:href="#DejaVuSans-95"/>
     <use x="277.685547" xlink:href="#DejaVuSans-97"/>
     <use x="338.964844" xlink:href="#DejaVuSans-115"/>
     <use x="391.064453" xlink:href="#DejaVuSans-115"/>
     <use x="443.164062" xlink:href="#DejaVuSans-111"/>
     <use x="504.345703" xlink:href="#DejaVuSans-99"/>
     <use x="559.326172" xlink:href="#DejaVuSans-105"/>
     <use x="587.109375" xlink:href="#DejaVuSans-97"/>
     <use x="648.388672" xlink:href="#DejaVuSans-116"/>
     <use x="687.597656" xlink:href="#DejaVuSans-101"/>
     <use x="749.121094" xlink:href="#DejaVuSans-100"/>
    </g>
   </g>
   <g id="patch_72">
    <path d="M 705.51 107.809609 
L 724.51 107.809609 
L 724.51 101.159609 
L 705.51 101.159609 
z
" style="fill:#a6d854;stroke:#ffffff;stroke-linejoin:miter;"/>
   </g>
   <g id="text_16">
    <!-- Mixed -->
    <defs>
     <path d="M 54.890625 54.6875 
L 35.109375 28.078125 
L 55.90625 0 
L 45.3125 0 
L 29.390625 21.484375 
L 13.484375 0 
L 2.875 0 
L 24.125 28.609375 
L 4.6875 54.6875 
L 15.28125 54.6875 
L 29.78125 35.203125 
L 44.28125 54.6875 
z
" id="DejaVuSans-120"/>
    </defs>
    <g style="fill:#262626;" transform="translate(732.11 107.809609)scale(0.095 -0.095)">
     <use xlink:href="#DejaVuSans-77"/>
     <use x="86.279297" xlink:href="#DejaVuSans-105"/>
     <use x="114.0625" xlink:href="#DejaVuSans-120"/>
     <use x="170.117188" xlink:href="#DejaVuSans-101"/>
     <use x="231.640625" xlink:href="#DejaVuSans-100"/>
    </g>
   </g>
   <g id="patch_73">
    <path d="M 705.51 121.753828 
L 724.51 121.753828 
L 724.51 115.103828 
L 705.51 115.103828 
z
" style="fill:#ffd92f;stroke:#ffffff;stroke-linejoin:miter;"/>
   </g>
   <g id="text_17">
    <!-- Others -->
    <g style="fill:#262626;" transform="translate(732.11 121.753828)scale(0.095 -0.095)">
     <use xlink:href="#DejaVuSans-79"/>
     <use x="78.710938" xlink:href="#DejaVuSans-116"/>
     <use x="117.919922" xlink:href="#DejaVuSans-104"/>
     <use x="181.298828" xlink:href="#DejaVuSans-101"/>
     <use x="242.822266" xlink:href="#DejaVuSans-114"/>
     <use x="283.935547" xlink:href="#DejaVuSans-115"/>
    </g>
   </g>
  </g>
 </g>
</svg>
