<?xml version="1.0" encoding="utf-8" standalone="no"?>
<!DOCTYPE svg PUBLIC "-//W3C//DTD SVG 1.1//EN"
  "http://www.w3.org/Graphics/SVG/1.1/DTD/svg11.dtd">
<!-- Created with matplotlib (https://matplotlib.org/) -->
<svg height="432pt" version="1.1" viewBox="0 0 216 432" width="216pt" xmlns="http://www.w3.org/2000/svg" xmlns:xlink="http://www.w3.org/1999/xlink">
 <defs>
  <style type="text/css">
*{stroke-linecap:butt;stroke-linejoin:round;}
  </style>
 </defs>
 <g id="figure_1">
  <g id="patch_1">
   <path d="M 0 432 
L 216 432 
L 216 0 
L 0 0 
z
" style="fill:#ffffff;"/>
  </g>
  <g id="axes_1">
   <g id="matplotlib.axis_1"/>
   <g id="matplotlib.axis_2"/>
   <g id="patch_2">
    <path d="M 170.001818 125.967273 
C 170.001818 116.70485 167.831755 107.56997 163.666113 99.297129 
C 159.50047 91.024288 153.453972 83.841318 146.012788 78.325771 
C 138.571604 72.810224 129.940665 69.113997 120.813946 67.534288 
C 111.687227 65.954578 102.316078 66.534891 93.453991 69.228566 
L 110.7 125.967273 
L 170.001818 125.967273 
z
" style="fill:#66c2a5;stroke:#ffffff;stroke-linejoin:miter;"/>
   </g>
   <g id="patch_3">
    <path d="M 93.453991 69.228566 
C 88.159021 70.837998 83.115316 73.180742 78.469863 76.188523 
C 73.82441 79.196304 69.622781 82.839617 65.987424 87.012284 
L 110.7 125.967273 
L 93.453991 69.228566 
z
" style="fill:#fc8d62;stroke:#ffffff;stroke-linejoin:miter;"/>
   </g>
   <g id="patch_4">
    <path d="M 65.987424 87.012284 
C 61.382626 92.297676 57.751257 98.35793 55.262248 104.911125 
C 52.77324 111.46432 51.465795 118.407238 51.400736 125.416896 
L 110.7 125.967273 
L 65.987424 87.012284 
z
" style="fill:#8da0cb;stroke:#ffffff;stroke-linejoin:miter;"/>
   </g>
   <g id="patch_5">
    <path d="M 51.400736 125.416896 
C 51.267298 139.793839 56.366786 153.739953 65.742809 164.6397 
C 75.118833 175.539447 88.146161 182.665988 102.381571 184.682768 
L 110.7 125.967273 
L 51.400736 125.416896 
z
" style="fill:#e78ac3;stroke:#ffffff;stroke-linejoin:miter;"/>
   </g>
   <g id="patch_6">
    <path d="M 102.381571 184.682768 
C 109.944601 185.754249 117.643906 185.354437 125.055277 183.505361 
C 132.466649 181.656286 139.451426 178.39254 145.624769 173.893947 
L 110.7 125.967273 
L 102.381571 184.682768 
z
" style="fill:#a6d854;stroke:#ffffff;stroke-linejoin:miter;"/>
   </g>
   <g id="patch_7">
    <path d="M 145.624769 173.893947 
C 153.176243 168.391094 159.321322 161.180606 163.557398 152.852233 
C 167.793475 144.523859 170.001822 135.311024 170.001818 125.967248 
L 110.7 125.967273 
L 145.624769 173.893947 
z
" style="fill:#ffd92f;stroke:#ffffff;stroke-linejoin:miter;"/>
   </g>
  </g>
  <g id="axes_2">
   <g id="matplotlib.axis_3"/>
   <g id="matplotlib.axis_4"/>
   <g id="patch_8">
    <path d="M 170.001818 303.872727 
C 170.001818 294.895276 167.963231 286.03393 164.040257 277.958974 
C 160.117283 269.884018 154.411396 262.804319 147.354195 257.255395 
C 140.296994 251.706472 132.071022 247.831852 123.298503 245.924618 
C 114.525984 244.017384 105.433827 244.126868 96.709777 246.244789 
L 110.7 303.872727 
L 170.001818 303.872727 
z
" style="fill:#66c2a5;stroke:#ffffff;stroke-linejoin:miter;"/>
   </g>
   <g id="patch_9">
    <path d="M 96.709777 246.244789 
C 88.581464 248.218083 80.961862 251.888959 74.352761 257.015669 
C 67.74366 262.14238 62.293398 268.609859 58.3609 275.992192 
L 110.7 303.872727 
L 96.709777 246.244789 
z
" style="fill:#fc8d62;stroke:#ffffff;stroke-linejoin:miter;"/>
   </g>
   <g id="patch_10">
    <path d="M 58.3609 275.992192 
C 56.181398 280.08369 54.489161 284.416678 53.318882 288.902325 
C 52.148603 293.387972 51.508333 297.995413 51.411201 302.630189 
L 110.7 303.872727 
L 58.3609 275.992192 
z
" style="fill:#8da0cb;stroke:#ffffff;stroke-linejoin:miter;"/>
   </g>
   <g id="patch_11">
    <path d="M 51.411201 302.630189 
C 51.197605 312.822082 53.615593 322.898931 58.430824 331.884134 
C 63.246056 340.869337 70.29778 348.462935 78.902578 353.928992 
L 110.7 303.872727 
L 51.411201 302.630189 
z
" style="fill:#e78ac3;stroke:#ffffff;stroke-linejoin:miter;"/>
   </g>
   <g id="patch_12">
    <path d="M 78.902578 353.928992 
C 84.215597 357.304 90.032233 359.811693 96.133749 361.357769 
C 102.235265 362.903844 108.544207 363.468675 114.823323 363.031022 
L 110.7 303.872727 
L 78.902578 353.928992 
z
" style="fill:#a6d854;stroke:#ffffff;stroke-linejoin:miter;"/>
   </g>
   <g id="patch_13">
    <path d="M 114.823323 363.031022 
C 129.796255 361.987411 143.828506 355.297289 154.066035 344.321369 
C 164.303564 333.345449 170.001817 318.881988 170.001818 303.87273 
L 110.7 303.872727 
L 114.823323 363.031022 
z
" style="fill:#ffd92f;stroke:#ffffff;stroke-linejoin:miter;"/>
   </g>
  </g>
 </g>
</svg>
