<?xml version="1.0" encoding="utf-8" standalone="no"?>
<!DOCTYPE svg PUBLIC "-//W3C//DTD SVG 1.1//EN"
  "http://www.w3.org/Graphics/SVG/1.1/DTD/svg11.dtd">
<!-- Created with matplotlib (https://matplotlib.org/) -->
<svg height="432pt" version="1.1" viewBox="0 0 216 432" width="216pt" xmlns="http://www.w3.org/2000/svg" xmlns:xlink="http://www.w3.org/1999/xlink">
 <defs>
  <style type="text/css">
*{stroke-linecap:butt;stroke-linejoin:round;}
  </style>
 </defs>
 <g id="figure_1">
  <g id="patch_1">
   <path d="M 0 432 
L 216 432 
L 216 0 
L 0 0 
z
" style="fill:#ffffff;"/>
  </g>
  <g id="axes_1">
   <g id="matplotlib.axis_1"/>
   <g id="matplotlib.axis_2"/>
   <g id="patch_2">
    <path d="M 170.001818 125.967273 
C 170.001818 116.989821 167.963231 108.128475 164.040257 100.053519 
C 160.117283 91.978563 154.411396 84.898864 147.354195 79.349941 
C 140.296994 73.801017 132.071022 69.926398 123.298503 68.019163 
C 114.525984 66.111929 105.433827 66.221413 96.709777 68.339334 
L 110.7 125.967273 
L 170.001818 125.967273 
z
" style="fill:#66c2a5;stroke:#ffffff;stroke-linejoin:miter;"/>
   </g>
   <g id="patch_3">
    <path d="M 96.709777 68.339334 
C 88.581464 70.312629 80.961862 73.983504 74.352761 79.110215 
C 67.74366 84.236925 62.293398 90.704405 58.3609 98.086738 
L 110.7 125.967273 
L 96.709777 68.339334 
z
" style="fill:#fc8d62;stroke:#ffffff;stroke-linejoin:miter;"/>
   </g>
   <g id="patch_4">
    <path d="M 58.3609 98.086738 
C 56.181398 102.178235 54.489161 106.511224 53.318882 110.996871 
C 52.148603 115.482518 51.508333 120.089958 51.411201 124.724734 
L 110.7 125.967273 
L 58.3609 98.086738 
z
" style="fill:#8da0cb;stroke:#ffffff;stroke-linejoin:miter;"/>
   </g>
   <g id="patch_5">
    <path d="M 51.411201 124.724734 
C 51.197605 134.916628 53.615593 144.993477 58.430824 153.97868 
C 63.246056 162.963882 70.29778 170.55748 78.902578 176.023537 
L 110.7 125.967273 
L 51.411201 124.724734 
z
" style="fill:#e78ac3;stroke:#ffffff;stroke-linejoin:miter;"/>
   </g>
   <g id="patch_6">
    <path d="M 78.902578 176.023537 
C 84.215597 179.398545 90.032233 181.906238 96.133749 183.452314 
C 102.235265 184.998389 108.544207 185.563221 114.823323 185.125568 
L 110.7 125.967273 
L 78.902578 176.023537 
z
" style="fill:#a6d854;stroke:#ffffff;stroke-linejoin:miter;"/>
   </g>
   <g id="patch_7">
    <path d="M 114.823323 185.125568 
C 129.796255 184.081957 143.828506 177.391834 154.066035 166.415914 
C 164.303564 155.439995 170.001817 140.976533 170.001818 125.967276 
L 110.7 125.967273 
L 114.823323 185.125568 
z
" style="fill:#ffd92f;stroke:#ffffff;stroke-linejoin:miter;"/>
   </g>
  </g>
  <g id="axes_2">
   <g id="matplotlib.axis_3"/>
   <g id="matplotlib.axis_4"/>
   <g id="patch_8">
    <path d="M 170.001818 303.872727 
C 170.001818 294.610304 167.831755 285.475425 163.666113 277.202584 
C 159.50047 268.929742 153.453972 261.746773 146.012788 256.231226 
C 138.571604 250.715679 129.940665 247.019452 120.813946 245.439742 
C 111.687227 243.860033 102.316078 244.440346 93.453991 247.134021 
L 110.7 303.872727 
L 170.001818 303.872727 
z
" style="fill:#66c2a5;stroke:#ffffff;stroke-linejoin:miter;"/>
   </g>
   <g id="patch_9">
    <path d="M 93.453991 247.134021 
C 88.159021 248.743453 83.115316 251.086197 78.469863 254.093978 
C 73.82441 257.101759 69.622781 260.745071 65.987424 264.917738 
L 110.7 303.872727 
L 93.453991 247.134021 
z
" style="fill:#fc8d62;stroke:#ffffff;stroke-linejoin:miter;"/>
   </g>
   <g id="patch_10">
    <path d="M 65.987424 264.917738 
C 61.382626 270.20313 57.751257 276.263385 55.262248 282.81658 
C 52.77324 289.369775 51.465795 296.312693 51.400736 303.32235 
L 110.7 303.872727 
L 65.987424 264.917738 
z
" style="fill:#8da0cb;stroke:#ffffff;stroke-linejoin:miter;"/>
   </g>
   <g id="patch_11">
    <path d="M 51.400736 303.32235 
C 51.267298 317.699294 56.366786 331.645407 65.742809 342.545154 
C 75.118833 353.444902 88.146161 360.571442 102.381571 362.588222 
L 110.7 303.872727 
L 51.400736 303.32235 
z
" style="fill:#e78ac3;stroke:#ffffff;stroke-linejoin:miter;"/>
   </g>
   <g id="patch_12">
    <path d="M 102.381571 362.588222 
C 109.944601 363.659703 117.643906 363.259892 125.055277 361.410816 
C 132.466649 359.56174 139.451426 356.297995 145.624769 351.799402 
L 110.7 303.872727 
L 102.381571 362.588222 
z
" style="fill:#a6d854;stroke:#ffffff;stroke-linejoin:miter;"/>
   </g>
   <g id="patch_13">
    <path d="M 145.624769 351.799402 
C 153.176243 346.296548 159.321322 339.086061 163.557398 330.757687 
C 167.793475 322.429314 170.001822 313.216478 170.001818 303.872702 
L 110.7 303.872727 
L 145.624769 351.799402 
z
" style="fill:#ffd92f;stroke:#ffffff;stroke-linejoin:miter;"/>
   </g>
  </g>
 </g>
</svg>
