<?xml version="1.0" encoding="utf-8" standalone="no"?>
<!DOCTYPE svg PUBLIC "-//W3C//DTD SVG 1.1//EN"
  "http://www.w3.org/Graphics/SVG/1.1/DTD/svg11.dtd">
<!-- Created with matplotlib (https://matplotlib.org/) -->
<svg height="144pt" version="1.1" viewBox="0 0 1584 144" width="1584pt" xmlns="http://www.w3.org/2000/svg" xmlns:xlink="http://www.w3.org/1999/xlink">
 <defs>
  <style type="text/css">
*{stroke-linecap:butt;stroke-linejoin:round;}
  </style>
 </defs>
 <g id="figure_1">
  <g id="patch_1">
   <path d="M 0 144 
L 1584 144 
L 1584 0 
L 0 0 
z
" style="fill:#ffffff;"/>
  </g>
  <g id="axes_1">
   <g id="matplotlib.axis_1"/>
   <g id="matplotlib.axis_2"/>
   <g id="patch_2">
    <path d="M 121.836755 76.107692 
C 121.836755 69.366075 120.285434 62.713999 117.30322 56.667859 
C 114.321006 50.621719 109.987118 45.342124 104.637991 41.238924 
L 77.890909 76.107692 
L 121.836755 76.107692 
z
" style="fill:#66c2a5;stroke:#ffffff;stroke-linejoin:miter;"/>
   </g>
   <g id="patch_3">
    <path d="M 104.637991 41.238924 
C 103.186975 40.125881 101.667896 39.104495 100.089617 38.180726 
C 98.511338 37.256957 96.876935 36.432605 95.195943 35.71248 
L 77.890909 76.107692 
L 104.637991 41.238924 
z
" style="fill:#fc8d62;stroke:#ffffff;stroke-linejoin:miter;"/>
   </g>
   <g id="patch_4">
    <path d="M 95.195943 35.71248 
C 93.658275 35.053753 92.084248 34.483362 90.48155 34.004092 
C 88.878851 33.524822 87.250093 33.137454 85.603231 32.84388 
L 77.890909 76.107692 
L 95.195943 35.71248 
z
" style="fill:#8da0cb;stroke:#ffffff;stroke-linejoin:miter;"/>
   </g>
   <g id="patch_5">
    <path d="M 85.603231 32.84388 
C 82.00806 32.202995 78.346983 32.012734 74.704747 32.2775 
C 71.062511 32.542266 67.467439 33.260001 64.002751 34.41409 
L 77.890909 76.107692 
L 85.603231 32.84388 
z
" style="fill:#e78ac3;stroke:#ffffff;stroke-linejoin:miter;"/>
   </g>
   <g id="patch_6">
    <path d="M 64.002751 34.41409 
C 60.442049 35.600162 57.047909 37.237497 53.903282 39.28608 
C 50.758656 41.334663 47.889372 43.777667 45.365557 46.555386 
L 77.890909 76.107692 
L 64.002751 34.41409 
z
" style="fill:#a6d854;stroke:#ffffff;stroke-linejoin:miter;"/>
   </g>
   <g id="patch_7">
    <path d="M 45.365557 46.555386 
C 40.565725 51.838093 37.124394 58.21149 35.340199 65.122498 
C 33.556004 72.033506 33.482093 79.27626 35.124879 86.22224 
C 36.767665 93.16822 40.078214 99.610519 44.769238 104.990079 
C 49.460262 110.36964 55.392026 114.526217 62.049775 117.099104 
C 68.707525 119.671992 75.89294 120.58455 82.982475 119.757587 
C 90.072011 118.930625 96.854484 116.388775 102.741318 112.352617 
C 108.628152 108.316459 113.443989 102.906223 116.770916 96.591404 
C 120.097843 90.276585 121.836756 83.245289 121.836755 76.107685 
L 77.890909 76.107692 
L 45.365557 46.555386 
z
" style="fill:#ffd92f;stroke:#ffffff;stroke-linejoin:miter;"/>
   </g>
   <g id="text_1">
    <!-- Forehead_1 -->
    <defs>
     <path d="M 9.8125 72.90625 
L 51.703125 72.90625 
L 51.703125 64.59375 
L 19.671875 64.59375 
L 19.671875 43.109375 
L 48.578125 43.109375 
L 48.578125 34.8125 
L 19.671875 34.8125 
L 19.671875 0 
L 9.8125 0 
z
" id="DejaVuSans-70"/>
     <path d="M 30.609375 48.390625 
Q 23.390625 48.390625 19.1875 42.75 
Q 14.984375 37.109375 14.984375 27.296875 
Q 14.984375 17.484375 19.15625 11.84375 
Q 23.34375 6.203125 30.609375 6.203125 
Q 37.796875 6.203125 41.984375 11.859375 
Q 46.1875 17.53125 46.1875 27.296875 
Q 46.1875 37.015625 41.984375 42.703125 
Q 37.796875 48.390625 30.609375 48.390625 
z
M 30.609375 56 
Q 42.328125 56 49.015625 48.375 
Q 55.71875 40.765625 55.71875 27.296875 
Q 55.71875 13.875 49.015625 6.21875 
Q 42.328125 -1.421875 30.609375 -1.421875 
Q 18.84375 -1.421875 12.171875 6.21875 
Q 5.515625 13.875 5.515625 27.296875 
Q 5.515625 40.765625 12.171875 48.375 
Q 18.84375 56 30.609375 56 
z
" id="DejaVuSans-111"/>
     <path d="M 41.109375 46.296875 
Q 39.59375 47.171875 37.8125 47.578125 
Q 36.03125 48 33.890625 48 
Q 26.265625 48 22.1875 43.046875 
Q 18.109375 38.09375 18.109375 28.8125 
L 18.109375 0 
L 9.078125 0 
L 9.078125 54.6875 
L 18.109375 54.6875 
L 18.109375 46.1875 
Q 20.953125 51.171875 25.484375 53.578125 
Q 30.03125 56 36.53125 56 
Q 37.453125 56 38.578125 55.875 
Q 39.703125 55.765625 41.0625 55.515625 
z
" id="DejaVuSans-114"/>
     <path d="M 56.203125 29.59375 
L 56.203125 25.203125 
L 14.890625 25.203125 
Q 15.484375 15.921875 20.484375 11.0625 
Q 25.484375 6.203125 34.421875 6.203125 
Q 39.59375 6.203125 44.453125 7.46875 
Q 49.3125 8.734375 54.109375 11.28125 
L 54.109375 2.78125 
Q 49.265625 0.734375 44.1875 -0.34375 
Q 39.109375 -1.421875 33.890625 -1.421875 
Q 20.796875 -1.421875 13.15625 6.1875 
Q 5.515625 13.8125 5.515625 26.8125 
Q 5.515625 40.234375 12.765625 48.109375 
Q 20.015625 56 32.328125 56 
Q 43.359375 56 49.78125 48.890625 
Q 56.203125 41.796875 56.203125 29.59375 
z
M 47.21875 32.234375 
Q 47.125 39.59375 43.09375 43.984375 
Q 39.0625 48.390625 32.421875 48.390625 
Q 24.90625 48.390625 20.390625 44.140625 
Q 15.875 39.890625 15.1875 32.171875 
z
" id="DejaVuSans-101"/>
     <path d="M 54.890625 33.015625 
L 54.890625 0 
L 45.90625 0 
L 45.90625 32.71875 
Q 45.90625 40.484375 42.875 44.328125 
Q 39.84375 48.1875 33.796875 48.1875 
Q 26.515625 48.1875 22.3125 43.546875 
Q 18.109375 38.921875 18.109375 30.90625 
L 18.109375 0 
L 9.078125 0 
L 9.078125 75.984375 
L 18.109375 75.984375 
L 18.109375 46.1875 
Q 21.34375 51.125 25.703125 53.5625 
Q 30.078125 56 35.796875 56 
Q 45.21875 56 50.046875 50.171875 
Q 54.890625 44.34375 54.890625 33.015625 
z
" id="DejaVuSans-104"/>
     <path d="M 34.28125 27.484375 
Q 23.390625 27.484375 19.1875 25 
Q 14.984375 22.515625 14.984375 16.5 
Q 14.984375 11.71875 18.140625 8.90625 
Q 21.296875 6.109375 26.703125 6.109375 
Q 34.1875 6.109375 38.703125 11.40625 
Q 43.21875 16.703125 43.21875 25.484375 
L 43.21875 27.484375 
z
M 52.203125 31.203125 
L 52.203125 0 
L 43.21875 0 
L 43.21875 8.296875 
Q 40.140625 3.328125 35.546875 0.953125 
Q 30.953125 -1.421875 24.3125 -1.421875 
Q 15.921875 -1.421875 10.953125 3.296875 
Q 6 8.015625 6 15.921875 
Q 6 25.140625 12.171875 29.828125 
Q 18.359375 34.515625 30.609375 34.515625 
L 43.21875 34.515625 
L 43.21875 35.40625 
Q 43.21875 41.609375 39.140625 45 
Q 35.0625 48.390625 27.6875 48.390625 
Q 23 48.390625 18.546875 47.265625 
Q 14.109375 46.140625 10.015625 43.890625 
L 10.015625 52.203125 
Q 14.9375 54.109375 19.578125 55.046875 
Q 24.21875 56 28.609375 56 
Q 40.484375 56 46.34375 49.84375 
Q 52.203125 43.703125 52.203125 31.203125 
z
" id="DejaVuSans-97"/>
     <path d="M 45.40625 46.390625 
L 45.40625 75.984375 
L 54.390625 75.984375 
L 54.390625 0 
L 45.40625 0 
L 45.40625 8.203125 
Q 42.578125 3.328125 38.25 0.953125 
Q 33.9375 -1.421875 27.875 -1.421875 
Q 17.96875 -1.421875 11.734375 6.484375 
Q 5.515625 14.40625 5.515625 27.296875 
Q 5.515625 40.1875 11.734375 48.09375 
Q 17.96875 56 27.875 56 
Q 33.9375 56 38.25 53.625 
Q 42.578125 51.265625 45.40625 46.390625 
z
M 14.796875 27.296875 
Q 14.796875 17.390625 18.875 11.75 
Q 22.953125 6.109375 30.078125 6.109375 
Q 37.203125 6.109375 41.296875 11.75 
Q 45.40625 17.390625 45.40625 27.296875 
Q 45.40625 37.203125 41.296875 42.84375 
Q 37.203125 48.484375 30.078125 48.484375 
Q 22.953125 48.484375 18.875 42.84375 
Q 14.796875 37.203125 14.796875 27.296875 
z
" id="DejaVuSans-100"/>
     <path d="M 50.984375 -16.609375 
L 50.984375 -23.578125 
L -0.984375 -23.578125 
L -0.984375 -16.609375 
z
" id="DejaVuSans-95"/>
     <path d="M 12.40625 8.296875 
L 28.515625 8.296875 
L 28.515625 63.921875 
L 10.984375 60.40625 
L 10.984375 69.390625 
L 28.421875 72.90625 
L 38.28125 72.90625 
L 38.28125 8.296875 
L 54.390625 8.296875 
L 54.390625 0 
L 12.40625 0 
z
" id="DejaVuSans-49"/>
    </defs>
    <g style="fill:#262626;" transform="translate(43.164972 15.175385)scale(0.12 -0.12)">
     <use xlink:href="#DejaVuSans-70"/>
     <use x="53.894531" xlink:href="#DejaVuSans-111"/>
     <use x="115.076172" xlink:href="#DejaVuSans-114"/>
     <use x="153.939453" xlink:href="#DejaVuSans-101"/>
     <use x="215.462891" xlink:href="#DejaVuSans-104"/>
     <use x="278.841797" xlink:href="#DejaVuSans-101"/>
     <use x="340.365234" xlink:href="#DejaVuSans-97"/>
     <use x="401.644531" xlink:href="#DejaVuSans-100"/>
     <use x="465.121094" xlink:href="#DejaVuSans-95"/>
     <use x="515.121094" xlink:href="#DejaVuSans-49"/>
    </g>
   </g>
  </g>
  <g id="axes_2">
   <g id="matplotlib.axis_3"/>
   <g id="matplotlib.axis_4"/>
   <g id="patch_8">
    <path d="M 264.658573 76.107692 
C 264.658573 74.433951 264.562953 72.761575 264.37218 71.098742 
C 264.181407 69.435908 263.895792 67.78533 263.516732 66.155077 
L 220.712727 76.107692 
L 264.658573 76.107692 
z
" style="fill:#66c2a5;stroke:#ffffff;stroke-linejoin:miter;"/>
   </g>
   <g id="patch_9">
    <path d="M 263.516732 66.155077 
C 261.325822 56.732455 256.083683 48.291891 248.608666 42.151043 
C 241.133648 36.010195 231.836078 32.506151 222.167399 32.185929 
L 220.712727 76.107692 
L 263.516732 66.155077 
z
" style="fill:#fc8d62;stroke:#ffffff;stroke-linejoin:miter;"/>
   </g>
   <g id="patch_10">
    <path d="M 222.167399 32.185929 
C 221.450633 32.16219 220.733394 32.156 220.016325 32.167364 
C 219.299256 32.178729 218.582573 32.207645 217.86692 32.254086 
L 220.712727 76.107692 
L 222.167399 32.185929 
z
" style="fill:#8da0cb;stroke:#ffffff;stroke-linejoin:miter;"/>
   </g>
   <g id="patch_11">
    <path d="M 217.86692 32.254086 
C 209.562321 32.792999 201.579177 35.679961 194.850784 40.577462 
C 188.12239 45.474963 182.92158 52.184411 179.85637 59.921419 
C 176.79116 67.658426 175.985843 76.10926 177.534567 84.285949 
C 179.083291 92.462638 182.923257 100.033622 188.60554 106.113791 
L 220.712727 76.107692 
L 217.86692 32.254086 
z
" style="fill:#e78ac3;stroke:#ffffff;stroke-linejoin:miter;"/>
   </g>
   <g id="patch_12">
    <path d="M 188.60554 106.113791 
C 193.357608 111.198608 199.250319 115.082555 205.796877 117.44478 
C 212.343434 119.807004 219.358463 120.580615 226.262449 119.701705 
L 220.712727 76.107692 
L 188.60554 106.113791 
z
" style="fill:#a6d854;stroke:#ffffff;stroke-linejoin:miter;"/>
   </g>
   <g id="patch_13">
    <path d="M 226.262449 119.701705 
C 236.867921 118.351579 246.624651 113.176661 253.690931 105.153785 
C 260.757211 97.130908 264.658569 86.798776 264.658573 76.107711 
L 220.712727 76.107692 
L 226.262449 119.701705 
z
" style="fill:#ffd92f;stroke:#ffffff;stroke-linejoin:miter;"/>
   </g>
   <g id="text_2">
    <!-- Forehead_2 -->
    <defs>
     <path d="M 19.1875 8.296875 
L 53.609375 8.296875 
L 53.609375 0 
L 7.328125 0 
L 7.328125 8.296875 
Q 12.9375 14.109375 22.625 23.890625 
Q 32.328125 33.6875 34.8125 36.53125 
Q 39.546875 41.84375 41.421875 45.53125 
Q 43.3125 49.21875 43.3125 52.78125 
Q 43.3125 58.59375 39.234375 62.25 
Q 35.15625 65.921875 28.609375 65.921875 
Q 23.96875 65.921875 18.8125 64.3125 
Q 13.671875 62.703125 7.8125 59.421875 
L 7.8125 69.390625 
Q 13.765625 71.78125 18.9375 73 
Q 24.125 74.21875 28.421875 74.21875 
Q 39.75 74.21875 46.484375 68.546875 
Q 53.21875 62.890625 53.21875 53.421875 
Q 53.21875 48.921875 51.53125 44.890625 
Q 49.859375 40.875 45.40625 35.40625 
Q 44.1875 33.984375 37.640625 27.21875 
Q 31.109375 20.453125 19.1875 8.296875 
z
" id="DejaVuSans-50"/>
    </defs>
    <g style="fill:#262626;" transform="translate(185.98679 15.175385)scale(0.12 -0.12)">
     <use xlink:href="#DejaVuSans-70"/>
     <use x="53.894531" xlink:href="#DejaVuSans-111"/>
     <use x="115.076172" xlink:href="#DejaVuSans-114"/>
     <use x="153.939453" xlink:href="#DejaVuSans-101"/>
     <use x="215.462891" xlink:href="#DejaVuSans-104"/>
     <use x="278.841797" xlink:href="#DejaVuSans-101"/>
     <use x="340.365234" xlink:href="#DejaVuSans-97"/>
     <use x="401.644531" xlink:href="#DejaVuSans-100"/>
     <use x="465.121094" xlink:href="#DejaVuSans-95"/>
     <use x="515.121094" xlink:href="#DejaVuSans-50"/>
    </g>
   </g>
  </g>
  <g id="axes_3">
   <g id="matplotlib.axis_5"/>
   <g id="matplotlib.axis_6"/>
   <g id="patch_14">
    <path d="M 407.480392 76.107692 
C 407.480392 69.455269 405.969848 62.888872 403.063009 56.905141 
C 400.15617 50.921411 395.928215 45.675106 390.698921 41.563024 
C 385.469626 37.450942 379.374239 34.579434 372.873773 33.165682 
C 366.373308 31.751931 359.635889 31.8325 353.17109 33.401297 
L 363.534545 76.107692 
L 407.480392 76.107692 
z
" style="fill:#66c2a5;stroke:#ffffff;stroke-linejoin:miter;"/>
   </g>
   <g id="patch_15">
    <path d="M 353.17109 33.401297 
C 353.139938 33.408857 353.108793 33.416451 353.077657 33.424079 
C 353.046521 33.431707 353.015393 33.439369 352.984274 33.447065 
L 363.534545 76.107692 
L 353.17109 33.401297 
z
" style="fill:#fc8d62;stroke:#ffffff;stroke-linejoin:miter;"/>
   </g>
   <g id="patch_16">
    <path d="M 352.984274 33.447065 
C 352.406322 33.589996 351.831335 33.744658 351.259668 33.910953 
C 350.688001 34.077249 350.119773 34.255145 349.555335 34.44453 
L 363.534545 76.107692 
L 352.984274 33.447065 
z
" style="fill:#8da0cb;stroke:#ffffff;stroke-linejoin:miter;"/>
   </g>
   <g id="patch_17">
    <path d="M 349.555335 34.44453 
C 345.130566 35.92917 340.970426 38.109263 337.23154 40.902731 
C 333.492654 43.6962 330.222541 47.06754 327.544318 50.889824 
L 363.534545 76.107692 
L 349.555335 34.44453 
z
" style="fill:#e78ac3;stroke:#ffffff;stroke-linejoin:miter;"/>
   </g>
   <g id="patch_18">
    <path d="M 327.544318 50.889824 
C 327.54169 50.893574 327.539062 50.897325 327.536436 50.901077 
C 327.533809 50.904828 327.531183 50.90858 327.528557 50.912332 
L 363.534545 76.107692 
L 327.544318 50.889824 
z
" style="fill:#a6d854;stroke:#ffffff;stroke-linejoin:miter;"/>
   </g>
   <g id="patch_19">
    <path d="M 327.528557 50.912332 
C 323.571558 56.567169 321.001812 63.075462 320.028174 69.908255 
C 319.054535 76.741048 319.704116 83.708078 321.924121 90.243107 
C 324.144126 96.778137 327.872738 102.699193 332.806919 107.52505 
C 337.7411 112.350907 343.743453 115.947184 350.326146 118.021599 
C 356.908838 120.096014 363.888569 120.590803 370.698069 119.465752 
C 377.507569 118.340701 383.957223 115.627139 389.522843 111.545606 
C 395.088463 107.464074 399.615071 102.128225 402.734771 95.971724 
C 405.85447 89.815223 407.480392 83.009502 407.480392 76.107688 
L 363.534545 76.107692 
L 327.528557 50.912332 
z
" style="fill:#ffd92f;stroke:#ffffff;stroke-linejoin:miter;"/>
   </g>
   <g id="text_3">
    <!-- Mouth_1 -->
    <defs>
     <path d="M 9.8125 72.90625 
L 24.515625 72.90625 
L 43.109375 23.296875 
L 61.8125 72.90625 
L 76.515625 72.90625 
L 76.515625 0 
L 66.890625 0 
L 66.890625 64.015625 
L 48.09375 14.015625 
L 38.1875 14.015625 
L 19.390625 64.015625 
L 19.390625 0 
L 9.8125 0 
z
" id="DejaVuSans-77"/>
     <path d="M 8.5 21.578125 
L 8.5 54.6875 
L 17.484375 54.6875 
L 17.484375 21.921875 
Q 17.484375 14.15625 20.5 10.265625 
Q 23.53125 6.390625 29.59375 6.390625 
Q 36.859375 6.390625 41.078125 11.03125 
Q 45.3125 15.671875 45.3125 23.6875 
L 45.3125 54.6875 
L 54.296875 54.6875 
L 54.296875 0 
L 45.3125 0 
L 45.3125 8.40625 
Q 42.046875 3.421875 37.71875 1 
Q 33.40625 -1.421875 27.6875 -1.421875 
Q 18.265625 -1.421875 13.375 4.4375 
Q 8.5 10.296875 8.5 21.578125 
z
M 31.109375 56 
z
" id="DejaVuSans-117"/>
     <path d="M 18.3125 70.21875 
L 18.3125 54.6875 
L 36.8125 54.6875 
L 36.8125 47.703125 
L 18.3125 47.703125 
L 18.3125 18.015625 
Q 18.3125 11.328125 20.140625 9.421875 
Q 21.96875 7.515625 27.59375 7.515625 
L 36.8125 7.515625 
L 36.8125 0 
L 27.59375 0 
Q 17.1875 0 13.234375 3.875 
Q 9.28125 7.765625 9.28125 18.015625 
L 9.28125 47.703125 
L 2.6875 47.703125 
L 2.6875 54.6875 
L 9.28125 54.6875 
L 9.28125 70.21875 
z
" id="DejaVuSans-116"/>
    </defs>
    <g style="fill:#262626;" transform="translate(337.911733 15.175385)scale(0.12 -0.12)">
     <use xlink:href="#DejaVuSans-77"/>
     <use x="86.279297" xlink:href="#DejaVuSans-111"/>
     <use x="147.460938" xlink:href="#DejaVuSans-117"/>
     <use x="210.839844" xlink:href="#DejaVuSans-116"/>
     <use x="250.048828" xlink:href="#DejaVuSans-104"/>
     <use x="313.427734" xlink:href="#DejaVuSans-95"/>
     <use x="363.427734" xlink:href="#DejaVuSans-49"/>
    </g>
   </g>
  </g>
  <g id="axes_4">
   <g id="matplotlib.axis_7"/>
   <g id="matplotlib.axis_8"/>
   <g id="patch_20">
    <path d="M 550.30221 76.107692 
C 550.30221 67.549504 547.802227 59.174872 543.110745 52.017179 
C 538.419263 44.859485 531.737527 39.225766 523.890027 35.811191 
C 516.042527 32.396616 507.365888 31.347656 498.930759 32.793748 
C 490.495631 34.239839 482.663844 38.118951 476.401799 43.952421 
L 506.356364 76.107692 
L 550.30221 76.107692 
z
" style="fill:#66c2a5;stroke:#ffffff;stroke-linejoin:miter;"/>
   </g>
   <g id="patch_21">
    <path d="M 476.401799 43.952421 
C 476.378231 43.974377 476.354686 43.996358 476.331166 44.018366 
C 476.307646 44.040373 476.284149 44.062406 476.260677 44.084465 
L 506.356364 76.107692 
L 476.401799 43.952421 
z
" style="fill:#fc8d62;stroke:#ffffff;stroke-linejoin:miter;"/>
   </g>
   <g id="patch_22">
    <path d="M 476.260677 44.084465 
C 470.366258 49.624088 466.114206 56.685082 463.975052 64.486084 
C 461.835897 72.287086 461.891567 80.529323 464.1359 88.300718 
L 506.356364 76.107692 
L 476.260677 44.084465 
z
" style="fill:#8da0cb;stroke:#ffffff;stroke-linejoin:miter;"/>
   </g>
   <g id="patch_23">
    <path d="M 464.1359 88.300718 
C 464.175479 88.437765 464.215724 88.574619 464.256635 88.711274 
C 464.297547 88.84793 464.339123 88.984385 464.381363 89.120636 
L 506.356364 76.107692 
L 464.1359 88.300718 
z
" style="fill:#e78ac3;stroke:#ffffff;stroke-linejoin:miter;"/>
   </g>
   <g id="patch_24">
    <path d="M 464.381363 89.120636 
C 464.409977 89.212935 464.438895 89.305139 464.468118 89.397247 
C 464.49734 89.489355 464.526866 89.581366 464.556696 89.673279 
L 506.356364 76.107692 
L 464.381363 89.120636 
z
" style="fill:#a6d854;stroke:#ffffff;stroke-linejoin:miter;"/>
   </g>
   <g id="patch_25">
    <path d="M 464.556696 89.673279 
C 467.786299 99.624662 474.46584 108.102884 483.385029 113.571744 
C 492.304218 119.040605 502.889728 121.148565 513.223532 119.513676 
C 523.557336 117.878787 532.975175 112.60614 539.770598 104.651104 
C 546.566021 96.696068 550.302216 86.569995 550.30221 76.107665 
L 506.356364 76.107692 
L 464.556696 89.673279 
z
" style="fill:#ffd92f;stroke:#ffffff;stroke-linejoin:miter;"/>
   </g>
   <g id="text_4">
    <!-- Mouth_2 -->
    <g style="fill:#262626;" transform="translate(480.733551 15.175385)scale(0.12 -0.12)">
     <use xlink:href="#DejaVuSans-77"/>
     <use x="86.279297" xlink:href="#DejaVuSans-111"/>
     <use x="147.460938" xlink:href="#DejaVuSans-117"/>
     <use x="210.839844" xlink:href="#DejaVuSans-116"/>
     <use x="250.048828" xlink:href="#DejaVuSans-104"/>
     <use x="313.427734" xlink:href="#DejaVuSans-95"/>
     <use x="363.427734" xlink:href="#DejaVuSans-50"/>
    </g>
   </g>
  </g>
  <g id="axes_5">
   <g id="matplotlib.axis_9"/>
   <g id="matplotlib.axis_10"/>
   <g id="patch_26">
    <path d="M 693.124028 76.107692 
C 693.124028 75.748732 693.11963 75.389785 693.110835 75.030933 
C 693.102039 74.67208 693.088848 74.313349 693.071263 73.954819 
L 649.178182 76.107692 
L 693.124028 76.107692 
z
" style="fill:#66c2a5;stroke:#ffffff;stroke-linejoin:miter;"/>
   </g>
   <g id="patch_27">
    <path d="M 693.071263 73.954819 
C 693.070135 73.931837 693.06899 73.908855 693.067827 73.885875 
C 693.066663 73.862894 693.065482 73.839915 693.064282 73.816936 
L 649.178182 76.107692 
L 693.071263 73.954819 
z
" style="fill:#fc8d62;stroke:#ffffff;stroke-linejoin:miter;"/>
   </g>
   <g id="patch_28">
    <path d="M 693.064282 73.816936 
C 692.502528 63.054889 688.001225 52.866652 680.422958 45.204596 
C 672.844691 37.54254 662.706565 32.929486 651.951344 32.249432 
C 641.196124 31.569379 630.557695 34.868729 622.074697 41.515229 
C 613.591698 48.16173 607.842969 57.701855 605.930137 68.307434 
L 649.178182 76.107692 
L 693.064282 73.816936 
z
" style="fill:#8da0cb;stroke:#ffffff;stroke-linejoin:miter;"/>
   </g>
   <g id="patch_29">
    <path d="M 605.930137 68.307434 
C 605.65398 69.83857 605.459329 71.383292 605.347007 72.935073 
C 605.234685 74.486854 605.20485 76.043505 605.257628 77.59845 
L 649.178182 76.107692 
L 605.930137 68.307434 
z
" style="fill:#e78ac3;stroke:#ffffff;stroke-linejoin:miter;"/>
   </g>
   <g id="patch_30">
    <path d="M 605.257628 77.59845 
C 605.258253 77.616848 605.258889 77.635245 605.259536 77.653641 
C 605.260184 77.672038 605.260843 77.690434 605.261514 77.70883 
L 649.178182 76.107692 
L 605.257628 77.59845 
z
" style="fill:#a6d854;stroke:#ffffff;stroke-linejoin:miter;"/>
   </g>
   <g id="patch_31">
    <path d="M 605.261514 77.70883 
C 605.677393 89.115746 610.521587 99.923564 618.759701 107.824461 
C 626.997815 115.725358 637.998546 120.113872 649.412879 120.052912 
C 660.827211 119.991952 671.780441 115.486189 679.933695 107.497751 
C 688.08695 99.509313 692.815429 88.650371 693.109447 77.239663 
L 649.178182 76.107692 
L 605.261514 77.70883 
z
" style="fill:#ffd92f;stroke:#ffffff;stroke-linejoin:miter;"/>
   </g>
   <g id="text_5">
    <!-- Stool_1 -->
    <defs>
     <path d="M 53.515625 70.515625 
L 53.515625 60.890625 
Q 47.90625 63.578125 42.921875 64.890625 
Q 37.9375 66.21875 33.296875 66.21875 
Q 25.25 66.21875 20.875 63.09375 
Q 16.5 59.96875 16.5 54.203125 
Q 16.5 49.359375 19.40625 46.890625 
Q 22.3125 44.4375 30.421875 42.921875 
L 36.375 41.703125 
Q 47.40625 39.59375 52.65625 34.296875 
Q 57.90625 29 57.90625 20.125 
Q 57.90625 9.515625 50.796875 4.046875 
Q 43.703125 -1.421875 29.984375 -1.421875 
Q 24.8125 -1.421875 18.96875 -0.25 
Q 13.140625 0.921875 6.890625 3.21875 
L 6.890625 13.375 
Q 12.890625 10.015625 18.65625 8.296875 
Q 24.421875 6.59375 29.984375 6.59375 
Q 38.421875 6.59375 43.015625 9.90625 
Q 47.609375 13.234375 47.609375 19.390625 
Q 47.609375 24.75 44.3125 27.78125 
Q 41.015625 30.8125 33.5 32.328125 
L 27.484375 33.5 
Q 16.453125 35.6875 11.515625 40.375 
Q 6.59375 45.0625 6.59375 53.421875 
Q 6.59375 63.09375 13.40625 68.65625 
Q 20.21875 74.21875 32.171875 74.21875 
Q 37.3125 74.21875 42.625 73.28125 
Q 47.953125 72.359375 53.515625 70.515625 
z
" id="DejaVuSans-83"/>
     <path d="M 9.421875 75.984375 
L 18.40625 75.984375 
L 18.40625 0 
L 9.421875 0 
z
" id="DejaVuSans-108"/>
    </defs>
    <g style="fill:#262626;" transform="translate(627.190057 15.175385)scale(0.12 -0.12)">
     <use xlink:href="#DejaVuSans-83"/>
     <use x="63.476562" xlink:href="#DejaVuSans-116"/>
     <use x="102.685547" xlink:href="#DejaVuSans-111"/>
     <use x="163.867188" xlink:href="#DejaVuSans-111"/>
     <use x="225.048828" xlink:href="#DejaVuSans-108"/>
     <use x="252.832031" xlink:href="#DejaVuSans-95"/>
     <use x="302.832031" xlink:href="#DejaVuSans-49"/>
    </g>
   </g>
  </g>
  <g id="axes_6">
   <g id="patch_32">
    <path d="M 727.069091 131.04 
L 856.930909 131.04 
L 856.930909 21.175385 
L 727.069091 21.175385 
z
" style="fill:#ffffff;"/>
   </g>
   <g id="matplotlib.axis_11"/>
   <g id="matplotlib.axis_12"/>
   <g id="patch_33">
    <path d="M 727.069091 131.04 
L 727.069091 21.175385 
" style="fill:none;stroke:#ffffff;stroke-linecap:square;stroke-linejoin:miter;stroke-width:1.25;"/>
   </g>
   <g id="patch_34">
    <path d="M 856.930909 131.04 
L 856.930909 21.175385 
" style="fill:none;stroke:#ffffff;stroke-linecap:square;stroke-linejoin:miter;stroke-width:1.25;"/>
   </g>
   <g id="patch_35">
    <path d="M 727.069091 131.04 
L 856.930909 131.04 
" style="fill:none;stroke:#ffffff;stroke-linecap:square;stroke-linejoin:miter;stroke-width:1.25;"/>
   </g>
   <g id="patch_36">
    <path d="M 727.069091 21.175385 
L 856.930909 21.175385 
" style="fill:none;stroke:#ffffff;stroke-linecap:square;stroke-linejoin:miter;stroke-width:1.25;"/>
   </g>
  </g>
  <g id="axes_7">
   <g id="matplotlib.axis_13"/>
   <g id="matplotlib.axis_14"/>
   <g id="patch_37">
    <path d="M 978.767664 76.107692 
C 978.767664 76.098514 978.767661 76.089336 978.767656 76.080157 
C 978.76765 76.070979 978.767641 76.061801 978.76763 76.052623 
L 934.821818 76.107692 
L 978.767664 76.107692 
z
" style="fill:#66c2a5;stroke:#ffffff;stroke-linejoin:miter;"/>
   </g>
   <g id="patch_38">
    <path d="M 978.76763 76.052623 
C 978.766388 75.061273 978.731601 74.070249 978.663329 73.081251 
C 978.595057 72.092254 978.493339 71.105851 978.35835 70.123733 
L 934.821818 76.107692 
L 978.76763 76.052623 
z
" style="fill:#fc8d62;stroke:#ffffff;stroke-linejoin:miter;"/>
   </g>
   <g id="patch_39">
    <path d="M 978.35835 70.123733 
C 977.627947 64.809651 975.930719 59.673928 973.350777 54.971072 
C 970.770835 50.268216 967.351511 46.077218 963.262257 42.605769 
C 959.173002 39.134321 954.482501 36.44073 949.423198 34.658481 
C 944.363895 32.876232 939.020768 32.035261 933.658604 32.177244 
C 928.296441 32.319226 923.005305 33.441777 918.047408 35.489266 
C 913.089511 37.536756 908.548127 40.474793 904.648311 44.157781 
C 900.748495 47.840768 897.555751 52.206844 895.228299 57.039641 
C 892.900847 61.872437 891.47778 67.090782 891.02962 72.43607 
C 890.581461 77.781359 891.115737 83.163811 892.605971 88.316689 
C 894.096204 93.469568 896.517366 98.306325 899.749471 102.587266 
C 902.981575 106.868207 906.970335 110.521429 911.518082 113.36589 
C 916.065829 116.210351 921.096176 118.198274 926.359838 119.231146 
C 931.623499 120.264018 937.032065 120.32449 942.317504 119.409564 
C 947.602943 118.494638 952.67648 116.619683 957.286688 113.877614 
C 961.896896 111.135546 965.96634 107.57242 969.293353 103.364815 
C 972.620365 99.157209 975.149064 94.375795 976.754137 89.257524 
L 934.821818 76.107692 
L 978.35835 70.123733 
z
" style="fill:#8da0cb;stroke:#ffffff;stroke-linejoin:miter;"/>
   </g>
   <g id="patch_40">
    <path d="M 976.754137 89.257524 
C 976.75551 89.253145 976.756882 89.248766 976.758254 89.244387 
C 976.759626 89.240007 976.760997 89.235628 976.762368 89.231248 
L 934.821818 76.107692 
L 976.754137 89.257524 
z
" style="fill:#e78ac3;stroke:#ffffff;stroke-linejoin:miter;"/>
   </g>
   <g id="patch_41">
    <path d="M 976.762368 89.231248 
C 976.876117 88.867725 976.985136 88.502737 977.089395 88.136379 
C 977.193655 87.770021 977.293147 87.402323 977.387847 87.033378 
L 934.821818 76.107692 
L 976.762368 89.231248 
z
" style="fill:#a6d854;stroke:#ffffff;stroke-linejoin:miter;"/>
   </g>
   <g id="patch_42">
    <path d="M 977.387847 87.033378 
C 977.845514 85.250324 978.190694 83.440273 978.421345 81.613927 
C 978.651997 79.78758 978.767664 77.948544 978.767664 76.107691 
L 934.821818 76.107692 
L 977.387847 87.033378 
z
" style="fill:#ffd92f;stroke:#ffffff;stroke-linejoin:miter;"/>
   </g>
   <g id="text_6">
    <!-- Stool_2 -->
    <g style="fill:#262626;" transform="translate(912.833693 20.668615)scale(0.12 -0.12)">
     <use xlink:href="#DejaVuSans-83"/>
     <use x="63.476562" xlink:href="#DejaVuSans-116"/>
     <use x="102.685547" xlink:href="#DejaVuSans-111"/>
     <use x="163.867188" xlink:href="#DejaVuSans-111"/>
     <use x="225.048828" xlink:href="#DejaVuSans-108"/>
     <use x="252.832031" xlink:href="#DejaVuSans-95"/>
     <use x="302.832031" xlink:href="#DejaVuSans-50"/>
    </g>
   </g>
  </g>
  <g id="axes_8">
   <g id="matplotlib.axis_15"/>
   <g id="matplotlib.axis_16"/>
   <g id="patch_43">
    <path d="M 1121.589483 76.107692 
C 1121.589483 74.049754 1121.444926 71.994356 1121.15688 69.956676 
C 1120.868835 67.918996 1120.438011 65.904064 1119.86759 63.926761 
L 1077.643636 76.107692 
L 1121.589483 76.107692 
z
" style="fill:#66c2a5;stroke:#ffffff;stroke-linejoin:miter;"/>
   </g>
   <g id="patch_44">
    <path d="M 1119.86759 63.926761 
C 1116.856131 53.487843 1110.077934 44.527736 1100.851978 38.789999 
C 1091.626023 33.052261 1080.592249 30.93488 1069.897733 32.849879 
L 1077.643636 76.107692 
L 1119.86759 63.926761 
z
" style="fill:#fc8d62;stroke:#ffffff;stroke-linejoin:miter;"/>
   </g>
   <g id="patch_45">
    <path d="M 1069.897733 32.849879 
C 1068.135036 33.165514 1066.393277 33.588596 1064.682203 34.116757 
C 1062.971129 34.644918 1061.293936 35.277171 1059.660008 36.00998 
L 1077.643636 76.107692 
L 1069.897733 32.849879 
z
" style="fill:#8da0cb;stroke:#ffffff;stroke-linejoin:miter;"/>
   </g>
   <g id="patch_46">
    <path d="M 1059.660008 36.00998 
C 1052.765631 39.102075 1046.783861 43.920658 1042.294668 49.998539 
C 1037.805476 56.076421 1034.958789 63.210612 1034.030611 70.709411 
L 1077.643636 76.107692 
L 1059.660008 36.00998 
z
" style="fill:#e78ac3;stroke:#ffffff;stroke-linejoin:miter;"/>
   </g>
   <g id="patch_47">
    <path d="M 1034.030611 70.709411 
C 1033.767627 72.834077 1033.660253 74.975123 1033.709346 77.115441 
C 1033.75844 79.255758 1033.963871 81.389629 1034.323997 83.500003 
L 1077.643636 76.107692 
L 1034.030611 70.709411 
z
" style="fill:#a6d854;stroke:#ffffff;stroke-linejoin:miter;"/>
   </g>
   <g id="patch_48">
    <path d="M 1034.323997 83.500003 
C 1036.163975 94.282447 1041.964958 103.998836 1050.58364 110.734185 
C 1059.202322 117.469534 1070.032676 120.750242 1080.940167 119.929722 
C 1091.847658 119.109201 1102.065319 114.245147 1109.579369 106.296206 
C 1117.093419 98.347266 1121.375504 87.872374 1121.581676 76.936008 
L 1077.643636 76.107692 
L 1034.323997 83.500003 
z
" style="fill:#ffd92f;stroke:#ffffff;stroke-linejoin:miter;"/>
   </g>
   <g id="text_7">
    <!-- Left Hand_1 -->
    <defs>
     <path d="M 9.8125 72.90625 
L 19.671875 72.90625 
L 19.671875 8.296875 
L 55.171875 8.296875 
L 55.171875 0 
L 9.8125 0 
z
" id="DejaVuSans-76"/>
     <path d="M 37.109375 75.984375 
L 37.109375 68.5 
L 28.515625 68.5 
Q 23.6875 68.5 21.796875 66.546875 
Q 19.921875 64.59375 19.921875 59.515625 
L 19.921875 54.6875 
L 34.71875 54.6875 
L 34.71875 47.703125 
L 19.921875 47.703125 
L 19.921875 0 
L 10.890625 0 
L 10.890625 47.703125 
L 2.296875 47.703125 
L 2.296875 54.6875 
L 10.890625 54.6875 
L 10.890625 58.5 
Q 10.890625 67.625 15.140625 71.796875 
Q 19.390625 75.984375 28.609375 75.984375 
z
" id="DejaVuSans-102"/>
     <path id="DejaVuSans-32"/>
     <path d="M 9.8125 72.90625 
L 19.671875 72.90625 
L 19.671875 43.015625 
L 55.515625 43.015625 
L 55.515625 72.90625 
L 65.375 72.90625 
L 65.375 0 
L 55.515625 0 
L 55.515625 34.71875 
L 19.671875 34.71875 
L 19.671875 0 
L 9.8125 0 
z
" id="DejaVuSans-72"/>
     <path d="M 54.890625 33.015625 
L 54.890625 0 
L 45.90625 0 
L 45.90625 32.71875 
Q 45.90625 40.484375 42.875 44.328125 
Q 39.84375 48.1875 33.796875 48.1875 
Q 26.515625 48.1875 22.3125 43.546875 
Q 18.109375 38.921875 18.109375 30.90625 
L 18.109375 0 
L 9.078125 0 
L 9.078125 54.6875 
L 18.109375 54.6875 
L 18.109375 46.1875 
Q 21.34375 51.125 25.703125 53.5625 
Q 30.078125 56 35.796875 56 
Q 45.21875 56 50.046875 50.171875 
Q 54.890625 44.34375 54.890625 33.015625 
z
" id="DejaVuSans-110"/>
    </defs>
    <g style="fill:#262626;" transform="translate(1041.829261 20.668615)scale(0.12 -0.12)">
     <use xlink:href="#DejaVuSans-76"/>
     <use x="53.962891" xlink:href="#DejaVuSans-101"/>
     <use x="115.486328" xlink:href="#DejaVuSans-102"/>
     <use x="148.941406" xlink:href="#DejaVuSans-116"/>
     <use x="188.150391" xlink:href="#DejaVuSans-32"/>
     <use x="219.9375" xlink:href="#DejaVuSans-72"/>
     <use x="295.132812" xlink:href="#DejaVuSans-97"/>
     <use x="356.412109" xlink:href="#DejaVuSans-110"/>
     <use x="419.791016" xlink:href="#DejaVuSans-100"/>
     <use x="483.267578" xlink:href="#DejaVuSans-95"/>
     <use x="533.267578" xlink:href="#DejaVuSans-49"/>
    </g>
   </g>
  </g>
  <g id="axes_9">
   <g id="matplotlib.axis_17"/>
   <g id="matplotlib.axis_18"/>
   <g id="patch_49">
    <path d="M 1264.411301 76.107692 
C 1264.411301 70.159118 1263.203489 64.272011 1260.861233 58.803979 
C 1258.518977 53.335947 1255.090683 48.399995 1250.784598 44.295951 
L 1220.465455 76.107692 
L 1264.411301 76.107692 
z
" style="fill:#66c2a5;stroke:#ffffff;stroke-linejoin:miter;"/>
   </g>
   <g id="patch_50">
    <path d="M 1250.784598 44.295951 
C 1249.615711 43.181908 1248.386311 42.133135 1247.101991 41.154405 
C 1245.817672 40.175675 1244.480384 39.268475 1243.096214 38.436933 
L 1220.465455 76.107692 
L 1250.784598 44.295951 
z
" style="fill:#fc8d62;stroke:#ffffff;stroke-linejoin:miter;"/>
   </g>
   <g id="patch_51">
    <path d="M 1243.096214 38.436933 
C 1234.410463 33.218957 1224.181759 31.162214 1214.154198 32.617401 
C 1204.126638 34.072588 1194.904501 38.952012 1188.060256 46.423682 
L 1220.465455 76.107692 
L 1243.096214 38.436933 
z
" style="fill:#8da0cb;stroke:#ffffff;stroke-linejoin:miter;"/>
   </g>
   <g id="patch_52">
    <path d="M 1188.060256 46.423682 
C 1186.929132 47.658498 1185.869512 48.956959 1184.886581 50.312709 
C 1183.90365 51.66846 1182.999015 53.079286 1182.177102 54.538283 
L 1220.465455 76.107692 
L 1188.060256 46.423682 
z
" style="fill:#e78ac3;stroke:#ffffff;stroke-linejoin:miter;"/>
   </g>
   <g id="patch_53">
    <path d="M 1182.177102 54.538283 
C 1180.09897 58.227222 1178.564826 62.197205 1177.622299 66.324983 
C 1176.679771 70.452761 1176.338716 74.695171 1176.60972 78.920508 
L 1220.465455 76.107692 
L 1182.177102 54.538283 
z
" style="fill:#a6d854;stroke:#ffffff;stroke-linejoin:miter;"/>
   </g>
   <g id="patch_54">
    <path d="M 1176.60972 78.920508 
C 1177.339872 90.304605 1182.474718 100.968749 1190.919064 108.638419 
C 1199.363409 116.308088 1210.470947 120.396269 1221.872586 120.031005 
C 1233.274225 119.665741 1244.097317 114.874988 1252.033438 106.680553 
C 1259.969559 98.486117 1264.411302 87.515176 1264.411301 76.107687 
L 1220.465455 76.107692 
L 1176.60972 78.920508 
z
" style="fill:#ffd92f;stroke:#ffffff;stroke-linejoin:miter;"/>
   </g>
   <g id="text_8">
    <!-- Left Hand_2 -->
    <g style="fill:#262626;" transform="translate(1184.65108 20.668615)scale(0.12 -0.12)">
     <use xlink:href="#DejaVuSans-76"/>
     <use x="53.962891" xlink:href="#DejaVuSans-101"/>
     <use x="115.486328" xlink:href="#DejaVuSans-102"/>
     <use x="148.941406" xlink:href="#DejaVuSans-116"/>
     <use x="188.150391" xlink:href="#DejaVuSans-32"/>
     <use x="219.9375" xlink:href="#DejaVuSans-72"/>
     <use x="295.132812" xlink:href="#DejaVuSans-97"/>
     <use x="356.412109" xlink:href="#DejaVuSans-110"/>
     <use x="419.791016" xlink:href="#DejaVuSans-100"/>
     <use x="483.267578" xlink:href="#DejaVuSans-95"/>
     <use x="533.267578" xlink:href="#DejaVuSans-50"/>
    </g>
   </g>
  </g>
  <g id="axes_10">
   <g id="matplotlib.axis_19"/>
   <g id="matplotlib.axis_20"/>
   <g id="patch_55">
    <path d="M 1407.233119 76.107692 
C 1407.233119 74.422897 1407.136231 72.739495 1406.942936 71.065825 
C 1406.749641 69.392155 1406.460258 67.730984 1406.076221 66.090542 
L 1363.287273 76.107692 
L 1407.233119 76.107692 
z
" style="fill:#66c2a5;stroke:#ffffff;stroke-linejoin:miter;"/>
   </g>
   <g id="patch_56">
    <path d="M 1406.076221 66.090542 
C 1404.969119 61.361478 1403.085647 56.848499 1400.502529 52.735443 
C 1397.919412 48.622386 1394.672207 44.965871 1390.89319 41.914846 
L 1363.287273 76.107692 
L 1406.076221 66.090542 
z
" style="fill:#fc8d62;stroke:#ffffff;stroke-linejoin:miter;"/>
   </g>
   <g id="patch_57">
    <path d="M 1390.89319 41.914846 
C 1388.814968 40.236974 1386.588096 38.75206 1384.240239 37.47855 
C 1381.892381 36.205041 1379.4333 35.148231 1376.893544 34.32125 
L 1363.287273 76.107692 
L 1390.89319 41.914846 
z
" style="fill:#8da0cb;stroke:#ffffff;stroke-linejoin:miter;"/>
   </g>
   <g id="patch_58">
    <path d="M 1376.893544 34.32125 
C 1370.148656 32.125017 1362.971231 31.594161 1355.976629 32.774196 
C 1348.982027 33.954231 1342.376022 36.810441 1336.724984 41.097948 
C 1331.073945 45.385455 1326.544123 50.978123 1323.523881 57.396463 
C 1320.50364 63.814803 1319.081834 70.869992 1319.380361 77.957152 
L 1363.287273 76.107692 
L 1376.893544 34.32125 
z
" style="fill:#e78ac3;stroke:#ffffff;stroke-linejoin:miter;"/>
   </g>
   <g id="patch_59">
    <path d="M 1319.380361 77.957152 
C 1319.697372 85.483119 1321.944131 92.802682 1325.90411 99.210431 
C 1329.864089 105.618179 1335.405853 110.901435 1341.995324 114.551031 
L 1363.287273 76.107692 
L 1319.380361 77.957152 
z
" style="fill:#a6d854;stroke:#ffffff;stroke-linejoin:miter;"/>
   </g>
   <g id="patch_60">
    <path d="M 1341.995324 114.551031 
C 1348.67686 118.251619 1356.209136 120.147159 1363.846403 120.049981 
C 1371.483669 119.952803 1378.965276 117.866223 1385.550491 113.996827 
C 1392.135705 110.127431 1397.599783 104.607276 1401.401742 97.982898 
C 1405.203701 91.358519 1407.213784 83.855998 1407.23298 76.218138 
L 1363.287273 76.107692 
L 1341.995324 114.551031 
z
" style="fill:#ffd92f;stroke:#ffffff;stroke-linejoin:miter;"/>
   </g>
   <g id="text_9">
    <!-- Right Hand_1 -->
    <defs>
     <path d="M 44.390625 34.1875 
Q 47.5625 33.109375 50.5625 29.59375 
Q 53.5625 26.078125 56.59375 19.921875 
L 66.609375 0 
L 56 0 
L 46.6875 18.703125 
Q 43.0625 26.03125 39.671875 28.421875 
Q 36.28125 30.8125 30.421875 30.8125 
L 19.671875 30.8125 
L 19.671875 0 
L 9.8125 0 
L 9.8125 72.90625 
L 32.078125 72.90625 
Q 44.578125 72.90625 50.734375 67.671875 
Q 56.890625 62.453125 56.890625 51.90625 
Q 56.890625 45.015625 53.6875 40.46875 
Q 50.484375 35.9375 44.390625 34.1875 
z
M 19.671875 64.796875 
L 19.671875 38.921875 
L 32.078125 38.921875 
Q 39.203125 38.921875 42.84375 42.21875 
Q 46.484375 45.515625 46.484375 51.90625 
Q 46.484375 58.296875 42.84375 61.546875 
Q 39.203125 64.796875 32.078125 64.796875 
z
" id="DejaVuSans-82"/>
     <path d="M 9.421875 54.6875 
L 18.40625 54.6875 
L 18.40625 0 
L 9.421875 0 
z
M 9.421875 75.984375 
L 18.40625 75.984375 
L 18.40625 64.59375 
L 9.421875 64.59375 
z
" id="DejaVuSans-105"/>
     <path d="M 45.40625 27.984375 
Q 45.40625 37.75 41.375 43.109375 
Q 37.359375 48.484375 30.078125 48.484375 
Q 22.859375 48.484375 18.828125 43.109375 
Q 14.796875 37.75 14.796875 27.984375 
Q 14.796875 18.265625 18.828125 12.890625 
Q 22.859375 7.515625 30.078125 7.515625 
Q 37.359375 7.515625 41.375 12.890625 
Q 45.40625 18.265625 45.40625 27.984375 
z
M 54.390625 6.78125 
Q 54.390625 -7.171875 48.1875 -13.984375 
Q 42 -20.796875 29.203125 -20.796875 
Q 24.46875 -20.796875 20.265625 -20.09375 
Q 16.0625 -19.390625 12.109375 -17.921875 
L 12.109375 -9.1875 
Q 16.0625 -11.328125 19.921875 -12.34375 
Q 23.78125 -13.375 27.78125 -13.375 
Q 36.625 -13.375 41.015625 -8.765625 
Q 45.40625 -4.15625 45.40625 5.171875 
L 45.40625 9.625 
Q 42.625 4.78125 38.28125 2.390625 
Q 33.9375 0 27.875 0 
Q 17.828125 0 11.671875 7.65625 
Q 5.515625 15.328125 5.515625 27.984375 
Q 5.515625 40.671875 11.671875 48.328125 
Q 17.828125 56 27.875 56 
Q 33.9375 56 38.28125 53.609375 
Q 42.625 51.21875 45.40625 46.390625 
L 45.40625 54.6875 
L 54.390625 54.6875 
z
" id="DejaVuSans-103"/>
    </defs>
    <g style="fill:#262626;" transform="translate(1322.962585 20.668615)scale(0.12 -0.12)">
     <use xlink:href="#DejaVuSans-82"/>
     <use x="69.482422" xlink:href="#DejaVuSans-105"/>
     <use x="97.265625" xlink:href="#DejaVuSans-103"/>
     <use x="160.742188" xlink:href="#DejaVuSans-104"/>
     <use x="224.121094" xlink:href="#DejaVuSans-116"/>
     <use x="263.330078" xlink:href="#DejaVuSans-32"/>
     <use x="295.117188" xlink:href="#DejaVuSans-72"/>
     <use x="370.3125" xlink:href="#DejaVuSans-97"/>
     <use x="431.591797" xlink:href="#DejaVuSans-110"/>
     <use x="494.970703" xlink:href="#DejaVuSans-100"/>
     <use x="558.447266" xlink:href="#DejaVuSans-95"/>
     <use x="608.447266" xlink:href="#DejaVuSans-49"/>
    </g>
   </g>
  </g>
  <g id="axes_11">
   <g id="matplotlib.axis_21"/>
   <g id="matplotlib.axis_22"/>
   <g id="patch_61">
    <path d="M 1550.054937 76.107692 
C 1550.054937 73.255057 1549.77718 70.409188 1549.225598 67.610387 
C 1548.674017 64.811587 1547.851228 62.073131 1546.768884 59.433802 
L 1506.109091 76.107692 
L 1550.054937 76.107692 
z
" style="fill:#66c2a5;stroke:#ffffff;stroke-linejoin:miter;"/>
   </g>
   <g id="patch_62">
    <path d="M 1546.768884 59.433802 
C 1546.46186 58.685115 1546.134216 57.945052 1545.786327 57.214458 
C 1545.438438 56.483863 1545.070436 55.763017 1544.682742 55.052744 
L 1506.109091 76.107692 
L 1546.768884 59.433802 
z
" style="fill:#fc8d62;stroke:#ffffff;stroke-linejoin:miter;"/>
   </g>
   <g id="patch_63">
    <path d="M 1544.682742 55.052744 
C 1543.304973 52.528607 1541.682767 50.145788 1539.83947 47.938579 
C 1537.996172 45.73137 1535.940668 43.71041 1533.702538 41.904782 
L 1506.109091 76.107692 
L 1544.682742 55.052744 
z
" style="fill:#8da0cb;stroke:#ffffff;stroke-linejoin:miter;"/>
   </g>
   <g id="patch_64">
    <path d="M 1533.702538 41.904782 
C 1528.219965 37.481676 1521.753414 34.440979 1514.849836 33.039876 
C 1507.946257 31.638774 1500.805935 31.917915 1494.032807 33.853689 
L 1506.109091 76.107692 
L 1533.702538 41.904782 
z
" style="fill:#e78ac3;stroke:#ffffff;stroke-linejoin:miter;"/>
   </g>
   <g id="patch_65">
    <path d="M 1494.032807 33.853689 
C 1487.678504 35.669763 1481.814954 38.896033 1476.879958 43.291611 
C 1471.944963 47.687189 1468.064479 53.139884 1465.528244 59.242572 
C 1462.992009 65.345261 1461.864756 71.942179 1462.230651 78.540771 
C 1462.596545 85.139363 1464.446249 91.571208 1467.641654 97.356074 
L 1506.109091 76.107692 
L 1494.032807 33.853689 
z
" style="fill:#a6d854;stroke:#ffffff;stroke-linejoin:miter;"/>
   </g>
   <g id="patch_66">
    <path d="M 1467.641654 97.356074 
C 1472.352711 105.88483 1479.769003 112.609348 1488.716867 116.465442 
C 1497.664731 120.321535 1507.645869 121.094462 1517.080718 118.661902 
C 1526.515568 116.229343 1534.87871 110.726764 1540.84664 103.024975 
C 1546.814569 95.323186 1550.054936 85.851093 1550.054937 76.107698 
L 1506.109091 76.107692 
L 1467.641654 97.356074 
z
" style="fill:#ffd92f;stroke:#ffffff;stroke-linejoin:miter;"/>
   </g>
   <g id="text_10">
    <!-- Right Hand_2 -->
    <g style="fill:#262626;" transform="translate(1465.784403 20.668615)scale(0.12 -0.12)">
     <use xlink:href="#DejaVuSans-82"/>
     <use x="69.482422" xlink:href="#DejaVuSans-105"/>
     <use x="97.265625" xlink:href="#DejaVuSans-103"/>
     <use x="160.742188" xlink:href="#DejaVuSans-104"/>
     <use x="224.121094" xlink:href="#DejaVuSans-116"/>
     <use x="263.330078" xlink:href="#DejaVuSans-32"/>
     <use x="295.117188" xlink:href="#DejaVuSans-72"/>
     <use x="370.3125" xlink:href="#DejaVuSans-97"/>
     <use x="431.591797" xlink:href="#DejaVuSans-110"/>
     <use x="494.970703" xlink:href="#DejaVuSans-100"/>
     <use x="558.447266" xlink:href="#DejaVuSans-95"/>
     <use x="608.447266" xlink:href="#DejaVuSans-50"/>
    </g>
   </g>
  </g>
  <g id="text_11">
   <!-- SourceTracker -->
   <defs>
    <path d="M 48.78125 52.59375 
L 48.78125 44.1875 
Q 44.96875 46.296875 41.140625 47.34375 
Q 37.3125 48.390625 33.40625 48.390625 
Q 24.65625 48.390625 19.8125 42.84375 
Q 14.984375 37.3125 14.984375 27.296875 
Q 14.984375 17.28125 19.8125 11.734375 
Q 24.65625 6.203125 33.40625 6.203125 
Q 37.3125 6.203125 41.140625 7.25 
Q 44.96875 8.296875 48.78125 10.40625 
L 48.78125 2.09375 
Q 45.015625 0.34375 40.984375 -0.53125 
Q 36.96875 -1.421875 32.421875 -1.421875 
Q 20.0625 -1.421875 12.78125 6.34375 
Q 5.515625 14.109375 5.515625 27.296875 
Q 5.515625 40.671875 12.859375 48.328125 
Q 20.21875 56 33.015625 56 
Q 37.15625 56 41.109375 55.140625 
Q 45.0625 54.296875 48.78125 52.59375 
z
" id="DejaVuSans-99"/>
    <path d="M -0.296875 72.90625 
L 61.375 72.90625 
L 61.375 64.59375 
L 35.5 64.59375 
L 35.5 0 
L 25.59375 0 
L 25.59375 64.59375 
L -0.296875 64.59375 
z
" id="DejaVuSans-84"/>
    <path d="M 9.078125 75.984375 
L 18.109375 75.984375 
L 18.109375 31.109375 
L 44.921875 54.6875 
L 56.390625 54.6875 
L 27.390625 29.109375 
L 57.625 0 
L 45.90625 0 
L 18.109375 26.703125 
L 18.109375 0 
L 9.078125 0 
z
" id="DejaVuSans-107"/>
   </defs>
   <g style="fill:#262626;" transform="translate(741.308625 13.82175)scale(0.144 -0.144)">
    <use xlink:href="#DejaVuSans-83"/>
    <use x="63.476562" xlink:href="#DejaVuSans-111"/>
    <use x="124.658203" xlink:href="#DejaVuSans-117"/>
    <use x="188.037109" xlink:href="#DejaVuSans-114"/>
    <use x="226.900391" xlink:href="#DejaVuSans-99"/>
    <use x="281.880859" xlink:href="#DejaVuSans-101"/>
    <use x="343.404297" xlink:href="#DejaVuSans-84"/>
    <use x="389.738281" xlink:href="#DejaVuSans-114"/>
    <use x="430.851562" xlink:href="#DejaVuSans-97"/>
    <use x="492.130859" xlink:href="#DejaVuSans-99"/>
    <use x="547.111328" xlink:href="#DejaVuSans-107"/>
    <use x="601.396484" xlink:href="#DejaVuSans-101"/>
    <use x="662.919922" xlink:href="#DejaVuSans-114"/>
   </g>
  </g>
  <g id="legend_1">
   <g id="patch_67">
    <path d="M 703.61 127.529531 
L 848.572578 127.529531 
Q 850.472578 127.529531 850.472578 125.629531 
L 850.472578 42.65 
Q 850.472578 40.75 848.572578 40.75 
L 703.61 40.75 
Q 701.71 40.75 701.71 42.65 
L 701.71 125.629531 
Q 701.71 127.529531 703.61 127.529531 
z
" style="fill:#ffffff;opacity:0.8;stroke:#ffffff;stroke-linejoin:miter;"/>
   </g>
   <g id="patch_68">
    <path d="M 705.51 51.768516 
L 724.51 51.768516 
L 724.51 45.118516 
L 705.51 45.118516 
z
" style="fill:#66c2a5;stroke:#ffffff;stroke-linejoin:miter;"/>
   </g>
   <g id="text_12">
    <!-- Unknown -->
    <defs>
     <path d="M 8.6875 72.90625 
L 18.609375 72.90625 
L 18.609375 28.609375 
Q 18.609375 16.890625 22.84375 11.734375 
Q 27.09375 6.59375 36.625 6.59375 
Q 46.09375 6.59375 50.34375 11.734375 
Q 54.59375 16.890625 54.59375 28.609375 
L 54.59375 72.90625 
L 64.5 72.90625 
L 64.5 27.390625 
Q 64.5 13.140625 57.4375 5.859375 
Q 50.390625 -1.421875 36.625 -1.421875 
Q 22.796875 -1.421875 15.734375 5.859375 
Q 8.6875 13.140625 8.6875 27.390625 
z
" id="DejaVuSans-85"/>
     <path d="M 4.203125 54.6875 
L 13.1875 54.6875 
L 24.421875 12.015625 
L 35.59375 54.6875 
L 46.1875 54.6875 
L 57.421875 12.015625 
L 68.609375 54.6875 
L 77.59375 54.6875 
L 63.28125 0 
L 52.6875 0 
L 40.921875 44.828125 
L 29.109375 0 
L 18.5 0 
z
" id="DejaVuSans-119"/>
    </defs>
    <g style="fill:#262626;" transform="translate(732.11 51.768516)scale(0.095 -0.095)">
     <use xlink:href="#DejaVuSans-85"/>
     <use x="73.193359" xlink:href="#DejaVuSans-110"/>
     <use x="136.572266" xlink:href="#DejaVuSans-107"/>
     <use x="194.482422" xlink:href="#DejaVuSans-110"/>
     <use x="257.861328" xlink:href="#DejaVuSans-111"/>
     <use x="319.042969" xlink:href="#DejaVuSans-119"/>
     <use x="400.830078" xlink:href="#DejaVuSans-110"/>
    </g>
   </g>
   <g id="patch_69">
    <path d="M 705.51 65.712734 
L 724.51 65.712734 
L 724.51 59.062734 
L 705.51 59.062734 
z
" style="fill:#fc8d62;stroke:#ffffff;stroke-linejoin:miter;"/>
   </g>
   <g id="text_13">
    <!-- Petrochemical -->
    <defs>
     <path d="M 19.671875 64.796875 
L 19.671875 37.40625 
L 32.078125 37.40625 
Q 38.96875 37.40625 42.71875 40.96875 
Q 46.484375 44.53125 46.484375 51.125 
Q 46.484375 57.671875 42.71875 61.234375 
Q 38.96875 64.796875 32.078125 64.796875 
z
M 9.8125 72.90625 
L 32.078125 72.90625 
Q 44.34375 72.90625 50.609375 67.359375 
Q 56.890625 61.8125 56.890625 51.125 
Q 56.890625 40.328125 50.609375 34.8125 
Q 44.34375 29.296875 32.078125 29.296875 
L 19.671875 29.296875 
L 19.671875 0 
L 9.8125 0 
z
" id="DejaVuSans-80"/>
     <path d="M 52 44.1875 
Q 55.375 50.25 60.0625 53.125 
Q 64.75 56 71.09375 56 
Q 79.640625 56 84.28125 50.015625 
Q 88.921875 44.046875 88.921875 33.015625 
L 88.921875 0 
L 79.890625 0 
L 79.890625 32.71875 
Q 79.890625 40.578125 77.09375 44.375 
Q 74.3125 48.1875 68.609375 48.1875 
Q 61.625 48.1875 57.5625 43.546875 
Q 53.515625 38.921875 53.515625 30.90625 
L 53.515625 0 
L 44.484375 0 
L 44.484375 32.71875 
Q 44.484375 40.625 41.703125 44.40625 
Q 38.921875 48.1875 33.109375 48.1875 
Q 26.21875 48.1875 22.15625 43.53125 
Q 18.109375 38.875 18.109375 30.90625 
L 18.109375 0 
L 9.078125 0 
L 9.078125 54.6875 
L 18.109375 54.6875 
L 18.109375 46.1875 
Q 21.1875 51.21875 25.484375 53.609375 
Q 29.78125 56 35.6875 56 
Q 41.65625 56 45.828125 52.96875 
Q 50 49.953125 52 44.1875 
z
" id="DejaVuSans-109"/>
    </defs>
    <g style="fill:#262626;" transform="translate(732.11 65.712734)scale(0.095 -0.095)">
     <use xlink:href="#DejaVuSans-80"/>
     <use x="56.677734" xlink:href="#DejaVuSans-101"/>
     <use x="118.201172" xlink:href="#DejaVuSans-116"/>
     <use x="157.410156" xlink:href="#DejaVuSans-114"/>
     <use x="196.273438" xlink:href="#DejaVuSans-111"/>
     <use x="257.455078" xlink:href="#DejaVuSans-99"/>
     <use x="312.435547" xlink:href="#DejaVuSans-104"/>
     <use x="375.814453" xlink:href="#DejaVuSans-101"/>
     <use x="437.337891" xlink:href="#DejaVuSans-109"/>
     <use x="534.75" xlink:href="#DejaVuSans-105"/>
     <use x="562.533203" xlink:href="#DejaVuSans-99"/>
     <use x="617.513672" xlink:href="#DejaVuSans-97"/>
     <use x="678.792969" xlink:href="#DejaVuSans-108"/>
    </g>
   </g>
   <g id="patch_70">
    <path d="M 705.51 79.656953 
L 724.51 79.656953 
L 724.51 73.006953 
L 705.51 73.006953 
z
" style="fill:#8da0cb;stroke:#ffffff;stroke-linejoin:miter;"/>
   </g>
   <g id="text_14">
    <!-- Large_intestine(Human) -->
    <defs>
     <path d="M 44.28125 53.078125 
L 44.28125 44.578125 
Q 40.484375 46.53125 36.375 47.5 
Q 32.28125 48.484375 27.875 48.484375 
Q 21.1875 48.484375 17.84375 46.4375 
Q 14.5 44.390625 14.5 40.28125 
Q 14.5 37.15625 16.890625 35.375 
Q 19.28125 33.59375 26.515625 31.984375 
L 29.59375 31.296875 
Q 39.15625 29.25 43.1875 25.515625 
Q 47.21875 21.78125 47.21875 15.09375 
Q 47.21875 7.46875 41.1875 3.015625 
Q 35.15625 -1.421875 24.609375 -1.421875 
Q 20.21875 -1.421875 15.453125 -0.5625 
Q 10.6875 0.296875 5.421875 2 
L 5.421875 11.28125 
Q 10.40625 8.6875 15.234375 7.390625 
Q 20.0625 6.109375 24.8125 6.109375 
Q 31.15625 6.109375 34.5625 8.28125 
Q 37.984375 10.453125 37.984375 14.40625 
Q 37.984375 18.0625 35.515625 20.015625 
Q 33.0625 21.96875 24.703125 23.78125 
L 21.578125 24.515625 
Q 13.234375 26.265625 9.515625 29.90625 
Q 5.8125 33.546875 5.8125 39.890625 
Q 5.8125 47.609375 11.28125 51.796875 
Q 16.75 56 26.8125 56 
Q 31.78125 56 36.171875 55.265625 
Q 40.578125 54.546875 44.28125 53.078125 
z
" id="DejaVuSans-115"/>
     <path d="M 31 75.875 
Q 24.46875 64.65625 21.28125 53.65625 
Q 18.109375 42.671875 18.109375 31.390625 
Q 18.109375 20.125 21.3125 9.0625 
Q 24.515625 -2 31 -13.1875 
L 23.1875 -13.1875 
Q 15.875 -1.703125 12.234375 9.375 
Q 8.59375 20.453125 8.59375 31.390625 
Q 8.59375 42.28125 12.203125 53.3125 
Q 15.828125 64.359375 23.1875 75.875 
z
" id="DejaVuSans-40"/>
     <path d="M 8.015625 75.875 
L 15.828125 75.875 
Q 23.140625 64.359375 26.78125 53.3125 
Q 30.421875 42.28125 30.421875 31.390625 
Q 30.421875 20.453125 26.78125 9.375 
Q 23.140625 -1.703125 15.828125 -13.1875 
L 8.015625 -13.1875 
Q 14.5 -2 17.703125 9.0625 
Q 20.90625 20.125 20.90625 31.390625 
Q 20.90625 42.671875 17.703125 53.65625 
Q 14.5 64.65625 8.015625 75.875 
z
" id="DejaVuSans-41"/>
    </defs>
    <g style="fill:#262626;" transform="translate(732.11 79.656953)scale(0.095 -0.095)">
     <use xlink:href="#DejaVuSans-76"/>
     <use x="55.712891" xlink:href="#DejaVuSans-97"/>
     <use x="116.992188" xlink:href="#DejaVuSans-114"/>
     <use x="156.355469" xlink:href="#DejaVuSans-103"/>
     <use x="219.832031" xlink:href="#DejaVuSans-101"/>
     <use x="281.355469" xlink:href="#DejaVuSans-95"/>
     <use x="331.355469" xlink:href="#DejaVuSans-105"/>
     <use x="359.138672" xlink:href="#DejaVuSans-110"/>
     <use x="422.517578" xlink:href="#DejaVuSans-116"/>
     <use x="461.726562" xlink:href="#DejaVuSans-101"/>
     <use x="523.25" xlink:href="#DejaVuSans-115"/>
     <use x="575.349609" xlink:href="#DejaVuSans-116"/>
     <use x="614.558594" xlink:href="#DejaVuSans-105"/>
     <use x="642.341797" xlink:href="#DejaVuSans-110"/>
     <use x="705.720703" xlink:href="#DejaVuSans-101"/>
     <use x="767.244141" xlink:href="#DejaVuSans-40"/>
     <use x="806.257812" xlink:href="#DejaVuSans-72"/>
     <use x="881.453125" xlink:href="#DejaVuSans-117"/>
     <use x="944.832031" xlink:href="#DejaVuSans-109"/>
     <use x="1042.244141" xlink:href="#DejaVuSans-97"/>
     <use x="1103.523438" xlink:href="#DejaVuSans-110"/>
     <use x="1166.902344" xlink:href="#DejaVuSans-41"/>
    </g>
   </g>
   <g id="patch_71">
    <path d="M 705.51 93.865391 
L 724.51 93.865391 
L 724.51 87.215391 
L 705.51 87.215391 
z
" style="fill:#e78ac3;stroke:#ffffff;stroke-linejoin:miter;"/>
   </g>
   <g id="text_15">
    <!-- Skin(Human) -->
    <g style="fill:#262626;" transform="translate(732.11 93.865391)scale(0.095 -0.095)">
     <use xlink:href="#DejaVuSans-83"/>
     <use x="63.476562" xlink:href="#DejaVuSans-107"/>
     <use x="121.386719" xlink:href="#DejaVuSans-105"/>
     <use x="149.169922" xlink:href="#DejaVuSans-110"/>
     <use x="212.548828" xlink:href="#DejaVuSans-40"/>
     <use x="251.5625" xlink:href="#DejaVuSans-72"/>
     <use x="326.757812" xlink:href="#DejaVuSans-117"/>
     <use x="390.136719" xlink:href="#DejaVuSans-109"/>
     <use x="487.548828" xlink:href="#DejaVuSans-97"/>
     <use x="548.828125" xlink:href="#DejaVuSans-110"/>
     <use x="612.207031" xlink:href="#DejaVuSans-41"/>
    </g>
   </g>
   <g id="patch_72">
    <path d="M 705.51 107.809609 
L 724.51 107.809609 
L 724.51 101.159609 
L 705.51 101.159609 
z
" style="fill:#a6d854;stroke:#ffffff;stroke-linejoin:miter;"/>
   </g>
   <g id="text_16">
    <!-- Plants -->
    <g style="fill:#262626;" transform="translate(732.11 107.809609)scale(0.095 -0.095)">
     <use xlink:href="#DejaVuSans-80"/>
     <use x="60.302734" xlink:href="#DejaVuSans-108"/>
     <use x="88.085938" xlink:href="#DejaVuSans-97"/>
     <use x="149.365234" xlink:href="#DejaVuSans-110"/>
     <use x="212.744141" xlink:href="#DejaVuSans-116"/>
     <use x="251.953125" xlink:href="#DejaVuSans-115"/>
    </g>
   </g>
   <g id="patch_73">
    <path d="M 705.51 121.753828 
L 724.51 121.753828 
L 724.51 115.103828 
L 705.51 115.103828 
z
" style="fill:#ffd92f;stroke:#ffffff;stroke-linejoin:miter;"/>
   </g>
   <g id="text_17">
    <!-- Others -->
    <defs>
     <path d="M 39.40625 66.21875 
Q 28.65625 66.21875 22.328125 58.203125 
Q 16.015625 50.203125 16.015625 36.375 
Q 16.015625 22.609375 22.328125 14.59375 
Q 28.65625 6.59375 39.40625 6.59375 
Q 50.140625 6.59375 56.421875 14.59375 
Q 62.703125 22.609375 62.703125 36.375 
Q 62.703125 50.203125 56.421875 58.203125 
Q 50.140625 66.21875 39.40625 66.21875 
z
M 39.40625 74.21875 
Q 54.734375 74.21875 63.90625 63.9375 
Q 73.09375 53.65625 73.09375 36.375 
Q 73.09375 19.140625 63.90625 8.859375 
Q 54.734375 -1.421875 39.40625 -1.421875 
Q 24.03125 -1.421875 14.8125 8.828125 
Q 5.609375 19.09375 5.609375 36.375 
Q 5.609375 53.65625 14.8125 63.9375 
Q 24.03125 74.21875 39.40625 74.21875 
z
" id="DejaVuSans-79"/>
    </defs>
    <g style="fill:#262626;" transform="translate(732.11 121.753828)scale(0.095 -0.095)">
     <use xlink:href="#DejaVuSans-79"/>
     <use x="78.710938" xlink:href="#DejaVuSans-116"/>
     <use x="117.919922" xlink:href="#DejaVuSans-104"/>
     <use x="181.298828" xlink:href="#DejaVuSans-101"/>
     <use x="242.822266" xlink:href="#DejaVuSans-114"/>
     <use x="283.935547" xlink:href="#DejaVuSans-115"/>
    </g>
   </g>
  </g>
 </g>
</svg>
