<?xml version="1.0" encoding="utf-8" standalone="no"?>
<!DOCTYPE svg PUBLIC "-//W3C//DTD SVG 1.1//EN"
  "http://www.w3.org/Graphics/SVG/1.1/DTD/svg11.dtd">
<!-- Created with matplotlib (https://matplotlib.org/) -->
<svg height="144pt" version="1.1" viewBox="0 0 1728 144" width="1728pt" xmlns="http://www.w3.org/2000/svg" xmlns:xlink="http://www.w3.org/1999/xlink">
 <defs>
  <style type="text/css">
*{stroke-linecap:butt;stroke-linejoin:round;}
  </style>
 </defs>
 <g id="figure_1">
  <g id="patch_1">
   <path d="M 0 144 
L 1728 144 
L 1728 0 
L 0 0 
z
" style="fill:#ffffff;"/>
  </g>
  <g id="axes_1">
   <g id="patch_2">
    <path d="M 129.6 72 
C 129.6 63.163734 127.566677 54.444831 123.657877 46.520131 
C 119.749077 38.595431 114.068632 31.675444 107.05751 26.297363 
L 72 72 
L 129.6 72 
z
" style="fill:#66c2a5;stroke:#ffffff;stroke-linejoin:miter;"/>
   </g>
   <g id="patch_3">
    <path d="M 107.05751 26.297363 
C 105.155657 24.838493 103.164594 23.499758 101.095937 22.288971 
C 99.02728 21.078183 96.885061 19.997701 94.681778 19.05383 
L 72 72 
L 107.05751 26.297363 
z
" style="fill:#fc8d62;stroke:#ffffff;stroke-linejoin:miter;"/>
   </g>
   <g id="patch_4">
    <path d="M 94.681778 19.05383 
C 92.666351 18.190434 90.603268 17.442821 88.502604 16.814639 
C 86.40194 16.186458 84.267121 15.678733 82.108571 15.293944 
L 72 72 
L 94.681778 19.05383 
z
" style="fill:#8da0cb;stroke:#ffffff;stroke-linejoin:miter;"/>
   </g>
   <g id="patch_5">
    <path d="M 82.108571 15.293944 
C 77.396367 14.453934 72.597778 14.204558 67.823884 14.551588 
C 63.049991 14.898618 58.337916 15.839356 53.796735 17.352025 
L 72 72 
L 82.108571 15.293944 
z
" style="fill:#e78ac3;stroke:#ffffff;stroke-linejoin:miter;"/>
   </g>
   <g id="patch_6">
    <path d="M 53.796735 17.352025 
C 49.129708 18.906614 44.680994 21.052676 40.559319 23.737762 
C 36.437645 26.422848 32.676863 29.624904 29.368888 33.265671 
L 72 72 
L 53.796735 17.352025 
z
" style="fill:#a6d854;stroke:#ffffff;stroke-linejoin:miter;"/>
   </g>
   <g id="patch_7">
    <path d="M 29.368888 33.265671 
C 23.077729 40.189738 18.567163 48.543375 16.228611 57.601661 
C 13.890059 66.659948 13.793183 76.153055 15.94639 85.257179 
C 18.099596 94.361303 22.438746 102.80525 28.58729 109.856263 
C 34.735835 116.907275 42.510621 122.355317 51.236961 125.727611 
C 59.963301 129.099906 69.381253 130.295999 78.673537 129.212096 
C 87.96582 128.128192 96.855635 124.796579 104.571533 119.506371 
C 112.28743 114.216162 118.599568 107.124944 122.960184 98.848084 
C 127.320801 90.571225 129.600002 81.355277 129.6 71.999991 
L 72 72 
L 29.368888 33.265671 
z
" style="fill:#ffd92f;stroke:#ffffff;stroke-linejoin:miter;"/>
   </g>
  </g>
  <g id="axes_2">
   <g id="patch_8">
    <path d="M 273.6 72 
C 273.6 69.80622 273.47467 67.614231 273.224623 65.434748 
C 272.974576 63.255265 272.600219 61.091846 272.103384 58.955067 
L 216 72 
L 273.6 72 
z
" style="fill:#66c2a5;stroke:#ffffff;stroke-linejoin:miter;"/>
   </g>
   <g id="patch_9">
    <path d="M 272.103384 58.955067 
C 269.231749 46.604797 262.360856 35.541716 252.56332 27.492881 
C 242.765784 19.444046 230.579421 14.851282 217.906644 14.431565 
L 216 72 
L 272.103384 58.955067 
z
" style="fill:#fc8d62;stroke:#ffffff;stroke-linejoin:miter;"/>
   </g>
   <g id="patch_10">
    <path d="M 217.906644 14.431565 
C 216.967176 14.40045 216.027087 14.392337 215.087223 14.407233 
C 214.147358 14.422129 213.207999 14.460029 212.269989 14.520899 
L 216 72 
L 217.906644 14.431565 
z
" style="fill:#8da0cb;stroke:#ffffff;stroke-linejoin:miter;"/>
   </g>
   <g id="patch_11">
    <path d="M 212.269989 14.520899 
C 201.385117 15.227255 190.921578 19.011208 182.102645 25.430382 
C 173.283712 31.849556 166.466989 40.643658 162.449406 50.784585 
C 158.431822 60.925512 157.37629 72.002054 159.406209 82.719274 
C 161.436128 93.436494 166.469187 103.359814 173.916979 111.329115 
L 216 72 
L 212.269989 14.520899 
z
" style="fill:#e78ac3;stroke:#ffffff;stroke-linejoin:miter;"/>
   </g>
   <g id="patch_12">
    <path d="M 173.916979 111.329115 
C 180.145534 117.993806 187.869134 123.084512 196.449734 126.180689 
C 205.030333 129.276866 214.22496 130.290842 223.274043 129.138851 
L 216 72 
L 173.916979 111.329115 
z
" style="fill:#a6d854;stroke:#ffffff;stroke-linejoin:miter;"/>
   </g>
   <g id="patch_13">
    <path d="M 223.274043 129.138851 
C 237.174678 127.369235 249.962864 120.586449 259.224666 110.070832 
C 268.486468 99.555215 273.599994 86.012847 273.6 72.000025 
L 216 72 
L 223.274043 129.138851 
z
" style="fill:#ffd92f;stroke:#ffffff;stroke-linejoin:miter;"/>
   </g>
  </g>
  <g id="axes_3">
   <g id="patch_14">
    <path d="M 417.6 72 
C 417.6 63.280641 415.620124 54.674038 411.810119 46.831138 
C 408.000113 38.988238 402.458515 32.111885 395.604458 26.722162 
C 388.7504 21.332439 380.76115 17.568742 372.240964 15.715732 
C 363.720778 13.862723 354.890015 13.968325 346.416577 16.024553 
L 360 72 
L 417.6 72 
z
" style="fill:#66c2a5;stroke:#ffffff;stroke-linejoin:miter;"/>
   </g>
   <g id="patch_15">
    <path d="M 346.416577 16.024553 
C 346.375745 16.034462 346.334924 16.044415 346.294113 16.054413 
C 346.253303 16.064411 346.212504 16.074454 346.171715 16.084541 
L 360 72 
L 346.416577 16.024553 
z
" style="fill:#fc8d62;stroke:#ffffff;stroke-linejoin:miter;"/>
   </g>
   <g id="patch_16">
    <path d="M 346.171715 16.084541 
C 345.414192 16.271882 344.660554 16.474597 343.911268 16.692562 
C 343.161982 16.910526 342.417203 17.143695 341.677392 17.391923 
L 360 72 
L 346.171715 16.084541 
z
" style="fill:#8da0cb;stroke:#ffffff;stroke-linejoin:miter;"/>
   </g>
   <g id="patch_17">
    <path d="M 341.677392 17.391923 
C 335.877829 19.337846 330.425116 22.195304 325.524543 25.856714 
C 320.62397 29.518124 316.337819 33.936954 312.827461 38.946837 
L 360 72 
L 341.677392 17.391923 
z
" style="fill:#e78ac3;stroke:#ffffff;stroke-linejoin:miter;"/>
   </g>
   <g id="patch_18">
    <path d="M 312.827461 38.946837 
C 312.824017 38.951753 312.820573 38.956669 312.81713 38.961586 
C 312.813687 38.966503 312.810245 38.97142 312.806804 38.976338 
L 360 72 
L 312.827461 38.946837 
z
" style="fill:#a6d854;stroke:#ffffff;stroke-linejoin:miter;"/>
   </g>
   <g id="patch_19">
    <path d="M 312.806804 38.976338 
C 307.620349 46.388157 304.252173 54.918602 302.976021 63.874372 
C 301.699869 72.830142 302.551277 81.961856 305.461047 90.527346 
C 308.370816 99.092836 313.257924 106.853589 319.725174 113.178859 
C 326.192425 119.504129 334.059735 124.217785 342.687696 126.936729 
C 351.315658 129.655673 360.46402 130.304194 369.389259 128.829586 
C 378.314499 127.354977 386.768087 123.7983 394.062968 118.448619 
C 401.357849 113.098938 407.290892 106.105218 411.379895 98.035867 
C 415.468898 89.966516 417.600001 81.04623 417.6 71.999994 
L 360 72 
L 312.806804 38.976338 
z
" style="fill:#ffd92f;stroke:#ffffff;stroke-linejoin:miter;"/>
   </g>
  </g>
  <g id="axes_4">
   <g id="patch_20">
    <path d="M 561.6 72 
C 561.6 60.782748 558.323262 49.806083 552.174118 40.424465 
C 546.024973 31.042847 537.267195 23.658708 526.981445 19.183211 
C 516.695694 14.707714 505.323188 13.332838 494.26723 15.228236 
C 483.211272 17.123634 472.946118 22.208001 464.73843 29.853954 
L 504 72 
L 561.6 72 
z
" style="fill:#66c2a5;stroke:#ffffff;stroke-linejoin:miter;"/>
   </g>
   <g id="patch_21">
    <path d="M 464.73843 29.853954 
C 464.707539 29.882732 464.676679 29.911543 464.645851 29.940388 
C 464.615022 29.969234 464.584226 29.998113 464.553461 30.027026 
L 504 72 
L 464.73843 29.853954 
z
" style="fill:#fc8d62;stroke:#ffffff;stroke-linejoin:miter;"/>
   </g>
   <g id="patch_22">
    <path d="M 464.553461 30.027026 
C 456.827621 37.287832 451.25444 46.542706 448.450641 56.767511 
C 445.646842 66.992315 445.719809 77.79545 448.661466 87.981448 
L 504 72 
L 464.553461 30.027026 
z
" style="fill:#8da0cb;stroke:#ffffff;stroke-linejoin:miter;"/>
   </g>
   <g id="patch_23">
    <path d="M 448.661466 87.981448 
C 448.713342 88.161077 448.766092 88.340452 448.819714 88.519567 
C 448.873337 88.698682 448.927831 88.877534 448.983195 89.056119 
L 504 72 
L 448.661466 87.981448 
z
" style="fill:#e78ac3;stroke:#ffffff;stroke-linejoin:miter;"/>
   </g>
   <g id="patch_24">
    <path d="M 448.983195 89.056119 
C 449.0207 89.177095 449.058603 89.297947 449.096905 89.418673 
C 449.135207 89.5394 449.173907 89.659999 449.213004 89.78047 
L 504 72 
L 448.983195 89.056119 
z
" style="fill:#a6d854;stroke:#ffffff;stroke-linejoin:miter;"/>
   </g>
   <g id="patch_25">
    <path d="M 449.213004 89.78047 
C 453.446059 102.823789 462.200961 113.936228 473.891378 121.104286 
C 485.581796 128.272344 499.456266 131.035256 513.000825 128.8924 
C 526.545384 126.749544 538.889385 119.838664 547.796173 109.411966 
C 556.702962 98.985268 561.600009 85.712983 561.6 71.999964 
L 504 72 
L 449.213004 89.78047 
z
" style="fill:#ffd92f;stroke:#ffffff;stroke-linejoin:miter;"/>
   </g>
  </g>
  <g id="axes_5">
   <g id="patch_26">
    <path d="M 705.6 72 
C 705.6 71.529509 705.594235 71.059036 705.582707 70.588687 
C 705.571179 70.118337 705.553889 69.648146 705.53084 69.17822 
L 648 72 
L 705.6 72 
z
" style="fill:#66c2a5;stroke:#ffffff;stroke-linejoin:miter;"/>
   </g>
   <g id="patch_27">
    <path d="M 705.53084 69.17822 
C 705.529363 69.148097 705.527861 69.117975 705.526337 69.087855 
C 705.524812 69.057734 705.523263 69.027615 705.521691 68.997496 
L 648 72 
L 705.53084 69.17822 
z
" style="fill:#fc8d62;stroke:#ffffff;stroke-linejoin:miter;"/>
   </g>
   <g id="patch_28">
    <path d="M 705.521691 68.997496 
C 704.785397 54.891637 698.885521 41.537874 688.952656 31.495186 
C 679.019791 21.452498 665.731706 15.406149 651.634796 14.5148 
C 637.537885 13.62345 623.594052 17.947922 612.475352 26.659517 
C 601.356651 35.371113 593.821768 47.875394 591.314611 61.77617 
L 648 72 
L 705.521691 68.997496 
z
" style="fill:#8da0cb;stroke:#ffffff;stroke-linejoin:miter;"/>
   </g>
   <g id="patch_29">
    <path d="M 591.314611 61.77617 
C 590.952651 63.783036 590.697521 65.807709 590.5503 67.841635 
C 590.403079 69.87556 590.363974 71.91587 590.433151 73.953943 
L 648 72 
L 591.314611 61.77617 
z
" style="fill:#e78ac3;stroke:#ffffff;stroke-linejoin:miter;"/>
   </g>
   <g id="patch_30">
    <path d="M 590.433151 73.953943 
C 590.433969 73.978056 590.434803 74.002169 590.435652 74.026282 
C 590.436501 74.050394 590.437364 74.074506 590.438244 74.098618 
L 648 72 
L 590.433151 73.953943 
z
" style="fill:#a6d854;stroke:#ffffff;stroke-linejoin:miter;"/>
   </g>
   <g id="patch_31">
    <path d="M 590.438244 74.098618 
C 590.983339 89.04971 597.332643 103.215561 608.130373 113.571298 
C 618.928103 123.927036 633.346806 129.679079 648.307618 129.599179 
C 663.26843 129.519278 677.624873 123.613556 688.311377 113.143078 
C 698.997881 102.6726 705.195518 88.43974 705.580888 73.483679 
L 648 72 
L 590.438244 74.098618 
z
" style="fill:#ffd92f;stroke:#ffffff;stroke-linejoin:miter;"/>
   </g>
  </g>
  <g id="axes_6"/>
  <g id="axes_7"/>
  <g id="axes_8">
   <g id="patch_32">
    <path d="M 1137.6 72 
C 1137.6 71.98797 1137.599996 71.97594 1137.599989 71.96391 
C 1137.599981 71.95188 1137.59997 71.93985 1137.599955 71.92782 
L 1080 72 
L 1137.6 72 
z
" style="fill:#66c2a5;stroke:#ffffff;stroke-linejoin:miter;"/>
   </g>
   <g id="patch_33">
    <path d="M 1137.599955 71.92782 
C 1137.598327 70.628453 1137.552731 69.329514 1137.463247 68.033232 
C 1137.373763 66.736949 1137.240441 65.444066 1137.06351 64.156801 
L 1080 72 
L 1137.599955 71.92782 
z
" style="fill:#fc8d62;stroke:#ffffff;stroke-linejoin:miter;"/>
   </g>
   <g id="patch_34">
    <path d="M 1137.06351 64.156801 
C 1136.106167 57.191612 1133.881604 50.460198 1130.500064 44.296145 
C 1127.118523 38.132092 1122.636802 32.638934 1117.276999 28.088893 
C 1111.917196 23.538851 1105.769337 20.00835 1099.138088 17.67235 
C 1092.506839 15.336349 1085.50358 14.234085 1078.475371 14.420181 
C 1071.447161 14.606278 1064.512048 16.07761 1058.013712 18.761263 
C 1051.515376 21.444916 1045.562965 25.295814 1040.451461 30.12312 
C 1035.339956 34.950427 1031.155213 40.67306 1028.104612 47.007427 
C 1025.054011 53.341793 1023.188792 60.181498 1022.601388 67.18759 
C 1022.013983 74.193682 1022.714261 81.248483 1024.667516 88.002382 
C 1026.620772 94.756282 1029.794198 101.095838 1034.030531 106.706885 
C 1038.266863 112.317932 1043.494948 117.106225 1049.455698 120.834471 
C 1055.416448 124.562718 1062.009745 127.168298 1068.908848 128.522087 
C 1075.80795 129.875877 1082.896979 129.955137 1089.824626 128.75594 
C 1096.752273 127.556743 1103.402179 125.099232 1109.444797 121.505191 
C 1115.487415 117.91115 1120.821252 113.240947 1125.181981 107.726021 
C 1129.54271 102.211096 1132.857086 95.944077 1134.960861 89.235538 
L 1080 72 
L 1137.06351 64.156801 
z
" style="fill:#8da0cb;stroke:#ffffff;stroke-linejoin:miter;"/>
   </g>
   <g id="patch_35">
    <path d="M 1134.960861 89.235538 
C 1134.962661 89.229799 1134.96446 89.224059 1134.966258 89.218319 
C 1134.968056 89.212579 1134.969853 89.206839 1134.971649 89.201098 
L 1080 72 
L 1134.960861 89.235538 
z
" style="fill:#e78ac3;stroke:#ffffff;stroke-linejoin:miter;"/>
   </g>
   <g id="patch_36">
    <path d="M 1134.971649 89.201098 
C 1135.120741 88.724626 1135.263632 88.246236 1135.400286 87.766049 
C 1135.53694 87.285862 1135.667345 86.803918 1135.791467 86.320341 
L 1080 72 
L 1134.971649 89.201098 
z
" style="fill:#a6d854;stroke:#ffffff;stroke-linejoin:miter;"/>
   </g>
   <g id="patch_37">
    <path d="M 1135.791467 86.320341 
C 1136.391334 83.983284 1136.843763 81.610844 1137.146078 79.217044 
C 1137.448394 76.823244 1137.6 74.412812 1137.6 71.999998 
L 1080 72 
L 1135.791467 86.320341 
z
" style="fill:#ffd92f;stroke:#ffffff;stroke-linejoin:miter;"/>
   </g>
  </g>
  <g id="axes_9">
   <g id="patch_38">
    <path d="M 1281.6 72 
C 1281.6 69.302652 1281.410529 66.608633 1281.032986 63.937838 
C 1280.655444 61.267043 1280.090761 58.626063 1279.343109 56.034403 
L 1224 72 
L 1281.6 72 
z
" style="fill:#66c2a5;stroke:#ffffff;stroke-linejoin:miter;"/>
   </g>
   <g id="patch_39">
    <path d="M 1279.343109 56.034403 
C 1275.395976 42.352072 1266.511766 30.608022 1254.419269 23.087547 
C 1242.326771 15.567071 1227.864758 12.791811 1213.847413 15.301808 
L 1224 72 
L 1279.343109 56.034403 
z
" style="fill:#fc8d62;stroke:#ffffff;stroke-linejoin:miter;"/>
   </g>
   <g id="patch_40">
    <path d="M 1213.847413 15.301808 
C 1211.537038 15.715512 1209.254108 16.270047 1207.011397 16.96231 
C 1204.768685 17.654572 1202.570381 18.48327 1200.428785 19.443765 
L 1224 72 
L 1213.847413 15.301808 
z
" style="fill:#8da0cb;stroke:#ffffff;stroke-linejoin:miter;"/>
   </g>
   <g id="patch_41">
    <path d="M 1200.428785 19.443765 
C 1191.392296 23.496586 1183.551967 29.812323 1177.667963 37.778627 
C 1171.78396 45.744931 1168.052796 55.095744 1166.83623 64.92445 
L 1224 72 
L 1200.428785 19.443765 
z
" style="fill:#e78ac3;stroke:#ffffff;stroke-linejoin:miter;"/>
   </g>
   <g id="patch_42">
    <path d="M 1166.83623 64.92445 
C 1166.491535 67.709259 1166.350799 70.515537 1166.415147 73.32086 
C 1166.479494 76.126182 1166.748753 78.923056 1167.220772 81.689132 
L 1224 72 
L 1166.83623 64.92445 
z
" style="fill:#a6d854;stroke:#ffffff;stroke-linejoin:miter;"/>
   </g>
   <g id="patch_43">
    <path d="M 1167.220772 81.689132 
C 1169.632438 95.821725 1177.23581 108.557036 1188.532352 117.385085 
C 1199.828894 126.213134 1214.024283 130.513173 1228.320776 129.437713 
C 1242.617269 128.362254 1256.009599 121.986917 1265.858295 111.568209 
C 1275.706991 101.1495 1281.319538 87.420016 1281.589767 73.085676 
L 1224 72 
L 1167.220772 81.689132 
z
" style="fill:#ffd92f;stroke:#ffffff;stroke-linejoin:miter;"/>
   </g>
  </g>
  <g id="axes_10">
   <g id="patch_44">
    <path d="M 1425.6 72 
C 1425.6 64.203179 1424.016916 56.486925 1420.946912 49.319953 
C 1417.876907 42.152981 1413.383428 35.683408 1407.739426 30.30422 
L 1368 72 
L 1425.6 72 
z
" style="fill:#66c2a5;stroke:#ffffff;stroke-linejoin:miter;"/>
   </g>
   <g id="patch_45">
    <path d="M 1407.739426 30.30422 
C 1406.207361 28.844039 1404.59598 27.469409 1402.912617 26.186583 
C 1401.229254 24.903758 1399.476466 23.714687 1397.662229 22.624782 
L 1368 72 
L 1407.739426 30.30422 
z
" style="fill:#fc8d62;stroke:#ffffff;stroke-linejoin:miter;"/>
   </g>
   <g id="patch_46">
    <path d="M 1397.662229 22.624782 
C 1386.27778 15.785559 1372.870975 13.089778 1359.727811 14.997098 
C 1346.584646 16.904417 1334.497154 23.299898 1325.526374 33.093046 
L 1368 72 
L 1397.662229 22.624782 
z
" style="fill:#8da0cb;stroke:#ffffff;stroke-linejoin:miter;"/>
   </g>
   <g id="patch_47">
    <path d="M 1325.526374 33.093046 
C 1324.043805 34.711525 1322.654956 36.413422 1321.366625 38.19041 
C 1320.078294 39.967398 1318.892585 41.816573 1317.8153 43.728887 
L 1368 72 
L 1325.526374 33.093046 
z
" style="fill:#e78ac3;stroke:#ffffff;stroke-linejoin:miter;"/>
   </g>
   <g id="patch_48">
    <path d="M 1317.8153 43.728887 
C 1315.091484 48.563995 1313.080675 53.767468 1311.845301 59.177763 
C 1310.609926 64.588059 1310.162903 70.148603 1310.518109 75.686768 
L 1368 72 
L 1317.8153 43.728887 
z
" style="fill:#a6d854;stroke:#ffffff;stroke-linejoin:miter;"/>
   </g>
   <g id="patch_49">
    <path d="M 1310.518109 75.686768 
C 1311.475123 90.607951 1318.205387 104.585489 1329.273425 114.638156 
C 1340.341462 124.690823 1354.900158 130.049218 1369.844333 129.570465 
C 1384.788508 129.091712 1398.974379 122.812453 1409.376285 112.071973 
C 1419.778192 101.331492 1425.600002 86.951835 1425.6 71.999993 
L 1368 72 
L 1310.518109 75.686768 
z
" style="fill:#ffd92f;stroke:#ffffff;stroke-linejoin:miter;"/>
   </g>
  </g>
  <g id="axes_11">
   <g id="patch_50">
    <path d="M 1569.6 72 
C 1569.6 69.791732 1569.473009 67.58529 1569.219657 65.391604 
C 1568.966304 63.197917 1568.587009 61.020615 1568.083649 58.870481 
L 1512 72 
L 1569.6 72 
z
" style="fill:#66c2a5;stroke:#ffffff;stroke-linejoin:miter;"/>
   </g>
   <g id="patch_51">
    <path d="M 1568.083649 58.870481 
C 1566.632566 52.672077 1564.163891 46.756896 1560.778189 41.365897 
C 1557.392487 35.974897 1553.136361 31.182288 1548.183188 27.183296 
L 1512 72 
L 1568.083649 58.870481 
z
" style="fill:#fc8d62;stroke:#ffffff;stroke-linejoin:miter;"/>
   </g>
   <g id="patch_52">
    <path d="M 1548.183188 27.183296 
C 1545.459254 24.984103 1542.540484 23.03782 1539.463138 21.368626 
C 1536.385791 19.699432 1533.162664 18.314267 1529.833795 17.230339 
L 1512 72 
L 1548.183188 27.183296 
z
" style="fill:#8da0cb;stroke:#ffffff;stroke-linejoin:miter;"/>
   </g>
   <g id="patch_53">
    <path d="M 1529.833795 17.230339 
C 1520.993243 14.351727 1511.585763 13.655933 1502.417909 15.20261 
C 1493.250055 16.749287 1484.591538 20.492933 1477.184699 26.112585 
C 1469.77786 31.732238 1463.840603 39.062571 1459.881961 47.475115 
C 1455.923318 55.88766 1454.059751 65.134925 1454.451032 74.424094 
L 1512 72 
L 1529.833795 17.230339 
z
" style="fill:#e78ac3;stroke:#ffffff;stroke-linejoin:miter;"/>
   </g>
   <g id="patch_54">
    <path d="M 1454.451032 74.424094 
C 1454.866539 84.28841 1457.811375 93.882192 1463.001736 102.280854 
C 1468.192096 110.679516 1475.45571 117.6043 1484.092555 122.387841 
L 1512 72 
L 1454.451032 74.424094 
z
" style="fill:#a6d854;stroke:#ffffff;stroke-linejoin:miter;"/>
   </g>
   <g id="patch_55">
    <path d="M 1484.092555 122.387841 
C 1492.850073 127.238216 1502.722658 129.722709 1512.732854 129.595338 
C 1522.74305 129.467966 1532.549223 126.733077 1541.18049 121.661444 
C 1549.811758 116.58981 1556.973548 109.354521 1561.956791 100.671921 
C 1566.940034 91.989321 1569.574658 82.155736 1569.599818 72.144761 
L 1512 72 
L 1484.092555 122.387841 
z
" style="fill:#ffd92f;stroke:#ffffff;stroke-linejoin:miter;"/>
   </g>
  </g>
  <g id="axes_12">
   <g id="patch_56">
    <path d="M 1713.6 72 
C 1713.6 68.26104 1713.235942 64.530947 1712.512982 60.862548 
C 1711.790022 57.194148 1710.711589 53.604843 1709.292957 50.145463 
L 1656 72 
L 1713.6 72 
z
" style="fill:#66c2a5;stroke:#ffffff;stroke-linejoin:miter;"/>
   </g>
   <g id="patch_57">
    <path d="M 1709.292957 50.145463 
C 1708.89054 49.164157 1708.461096 48.194153 1708.005116 47.23656 
C 1707.549136 46.278967 1707.066794 45.334151 1706.558642 44.403193 
L 1656 72 
L 1709.292957 50.145463 
z
" style="fill:#fc8d62;stroke:#ffffff;stroke-linejoin:miter;"/>
   </g>
   <g id="patch_58">
    <path d="M 1706.558642 44.403193 
C 1704.752794 41.094796 1702.626562 37.971626 1700.210545 35.078628 
C 1697.794528 32.18563 1695.10037 29.53675 1692.166844 27.170106 
L 1656 72 
L 1706.558642 44.403193 
z
" style="fill:#8da0cb;stroke:#ffffff;stroke-linejoin:miter;"/>
   </g>
   <g id="patch_59">
    <path d="M 1692.166844 27.170106 
C 1684.980812 21.372723 1676.505078 17.387268 1667.45653 15.550838 
C 1658.407981 13.714407 1649.049132 14.080278 1640.171566 16.617506 
L 1656 72 
L 1692.166844 27.170106 
z
" style="fill:#e78ac3;stroke:#ffffff;stroke-linejoin:miter;"/>
   </g>
   <g id="patch_60">
    <path d="M 1640.171566 16.617506 
C 1631.842955 18.99784 1624.157576 23.226526 1617.689257 28.987828 
C 1611.220937 34.74913 1606.134772 41.896 1602.810518 49.894818 
C 1599.486265 57.893637 1598.008769 66.540245 1598.488349 75.189046 
C 1598.967929 83.837847 1601.392343 92.268093 1605.580574 99.850341 
L 1656 72 
L 1640.171566 16.617506 
z
" style="fill:#a6d854;stroke:#ffffff;stroke-linejoin:miter;"/>
   </g>
   <g id="patch_61">
    <path d="M 1605.580574 99.850341 
C 1611.755375 111.029016 1621.475939 119.842869 1633.203941 124.897067 
C 1644.931943 129.951265 1658.014261 130.964343 1670.380557 127.775977 
C 1682.746853 124.587611 1693.708458 117.375359 1701.530647 107.280592 
C 1709.352836 97.185826 1713.599998 84.770715 1713.6 72.000008 
L 1656 72 
L 1605.580574 99.850341 
z
" style="fill:#ffd92f;stroke:#ffffff;stroke-linejoin:miter;"/>
   </g>
  </g>
  <g id="text_1">
   <!-- SourceTracker -->
   <defs>
    <path d="M 59.90625 70.609375 
L 59.90625 55.171875 
Q 53.90625 57.859375 48.1875 59.21875 
Q 42.484375 60.59375 37.40625 60.59375 
Q 30.671875 60.59375 27.4375 58.734375 
Q 24.21875 56.890625 24.21875 52.984375 
Q 24.21875 50.046875 26.390625 48.40625 
Q 28.5625 46.78125 34.28125 45.609375 
L 42.28125 44 
Q 54.4375 41.546875 59.5625 36.5625 
Q 64.703125 31.59375 64.703125 22.40625 
Q 64.703125 10.359375 57.546875 4.46875 
Q 50.390625 -1.421875 35.6875 -1.421875 
Q 28.765625 -1.421875 21.78125 -0.09375 
Q 14.796875 1.21875 7.8125 3.8125 
L 7.8125 19.671875 
Q 14.796875 15.96875 21.3125 14.078125 
Q 27.828125 12.203125 33.890625 12.203125 
Q 40.046875 12.203125 43.3125 14.25 
Q 46.578125 16.3125 46.578125 20.125 
Q 46.578125 23.53125 44.359375 25.390625 
Q 42.140625 27.25 35.5 28.71875 
L 28.21875 30.328125 
Q 17.28125 32.671875 12.21875 37.796875 
Q 7.171875 42.921875 7.171875 51.609375 
Q 7.171875 62.5 14.203125 68.359375 
Q 21.234375 74.21875 34.421875 74.21875 
Q 40.4375 74.21875 46.78125 73.3125 
Q 53.125 72.40625 59.90625 70.609375 
z
" id="DejaVuSans-Bold-83"/>
    <path d="M 34.421875 43.5 
Q 28.609375 43.5 25.5625 39.328125 
Q 22.515625 35.15625 22.515625 27.296875 
Q 22.515625 19.4375 25.5625 15.25 
Q 28.609375 11.078125 34.421875 11.078125 
Q 40.140625 11.078125 43.15625 15.25 
Q 46.1875 19.4375 46.1875 27.296875 
Q 46.1875 35.15625 43.15625 39.328125 
Q 40.140625 43.5 34.421875 43.5 
z
M 34.421875 56 
Q 48.53125 56 56.46875 48.375 
Q 64.40625 40.765625 64.40625 27.296875 
Q 64.40625 13.8125 56.46875 6.1875 
Q 48.53125 -1.421875 34.421875 -1.421875 
Q 20.265625 -1.421875 12.28125 6.1875 
Q 4.296875 13.8125 4.296875 27.296875 
Q 4.296875 40.765625 12.28125 48.375 
Q 20.265625 56 34.421875 56 
z
" id="DejaVuSans-Bold-111"/>
    <path d="M 7.8125 21.296875 
L 7.8125 54.6875 
L 25.390625 54.6875 
L 25.390625 49.21875 
Q 25.390625 44.78125 25.34375 38.0625 
Q 25.296875 31.34375 25.296875 29.109375 
Q 25.296875 22.515625 25.640625 19.609375 
Q 25.984375 16.703125 26.8125 15.375 
Q 27.875 13.671875 29.609375 12.734375 
Q 31.34375 11.8125 33.59375 11.8125 
Q 39.0625 11.8125 42.1875 16.015625 
Q 45.3125 20.21875 45.3125 27.6875 
L 45.3125 54.6875 
L 62.796875 54.6875 
L 62.796875 0 
L 45.3125 0 
L 45.3125 7.90625 
Q 41.359375 3.125 36.9375 0.84375 
Q 32.515625 -1.421875 27.203125 -1.421875 
Q 17.71875 -1.421875 12.765625 4.390625 
Q 7.8125 10.203125 7.8125 21.296875 
z
" id="DejaVuSans-Bold-117"/>
    <path d="M 49.03125 39.796875 
Q 46.734375 40.875 44.453125 41.375 
Q 42.1875 41.890625 39.890625 41.890625 
Q 33.15625 41.890625 29.515625 37.5625 
Q 25.875 33.25 25.875 25.203125 
L 25.875 0 
L 8.40625 0 
L 8.40625 54.6875 
L 25.875 54.6875 
L 25.875 45.703125 
Q 29.25 51.078125 33.609375 53.53125 
Q 37.984375 56 44.09375 56 
Q 44.96875 56 45.984375 55.921875 
Q 47.015625 55.859375 48.96875 55.609375 
z
" id="DejaVuSans-Bold-114"/>
    <path d="M 52.59375 52.984375 
L 52.59375 38.71875 
Q 49.03125 41.15625 45.4375 42.328125 
Q 41.84375 43.5 37.984375 43.5 
Q 30.671875 43.5 26.59375 39.234375 
Q 22.515625 34.96875 22.515625 27.296875 
Q 22.515625 19.625 26.59375 15.34375 
Q 30.671875 11.078125 37.984375 11.078125 
Q 42.09375 11.078125 45.78125 12.296875 
Q 49.46875 13.53125 52.59375 15.921875 
L 52.59375 1.609375 
Q 48.484375 0.09375 44.265625 -0.65625 
Q 40.046875 -1.421875 35.796875 -1.421875 
Q 21 -1.421875 12.640625 6.171875 
Q 4.296875 13.765625 4.296875 27.296875 
Q 4.296875 40.828125 12.640625 48.40625 
Q 21 56 35.796875 56 
Q 40.09375 56 44.265625 55.25 
Q 48.4375 54.5 52.59375 52.984375 
z
" id="DejaVuSans-Bold-99"/>
    <path d="M 62.984375 27.484375 
L 62.984375 22.515625 
L 22.125 22.515625 
Q 22.75 16.359375 26.5625 13.28125 
Q 30.375 10.203125 37.203125 10.203125 
Q 42.71875 10.203125 48.5 11.84375 
Q 54.296875 13.484375 60.40625 16.796875 
L 60.40625 3.328125 
Q 54.203125 0.984375 48 -0.21875 
Q 41.796875 -1.421875 35.59375 -1.421875 
Q 20.75 -1.421875 12.515625 6.125 
Q 4.296875 13.671875 4.296875 27.296875 
Q 4.296875 40.671875 12.375 48.328125 
Q 20.453125 56 34.625 56 
Q 47.515625 56 55.25 48.234375 
Q 62.984375 40.484375 62.984375 27.484375 
z
M 45.015625 33.296875 
Q 45.015625 38.28125 42.109375 41.328125 
Q 39.203125 44.390625 34.515625 44.390625 
Q 29.4375 44.390625 26.265625 41.53125 
Q 23.09375 38.671875 22.3125 33.296875 
z
" id="DejaVuSans-Bold-101"/>
    <path d="M 0.484375 72.90625 
L 67.671875 72.90625 
L 67.671875 58.6875 
L 43.5 58.6875 
L 43.5 0 
L 24.703125 0 
L 24.703125 58.6875 
L 0.484375 58.6875 
z
" id="DejaVuSans-Bold-84"/>
    <path d="M 32.90625 24.609375 
Q 27.4375 24.609375 24.671875 22.75 
Q 21.921875 20.90625 21.921875 17.28125 
Q 21.921875 13.96875 24.140625 12.078125 
Q 26.375 10.203125 30.328125 10.203125 
Q 35.25 10.203125 38.625 13.734375 
Q 42 17.28125 42 22.609375 
L 42 24.609375 
z
M 59.625 31.203125 
L 59.625 0 
L 42 0 
L 42 8.109375 
Q 38.484375 3.125 34.078125 0.84375 
Q 29.6875 -1.421875 23.390625 -1.421875 
Q 14.890625 -1.421875 9.59375 3.53125 
Q 4.296875 8.5 4.296875 16.40625 
Q 4.296875 26.03125 10.90625 30.515625 
Q 17.53125 35.015625 31.6875 35.015625 
L 42 35.015625 
L 42 36.375 
Q 42 40.53125 38.71875 42.453125 
Q 35.453125 44.390625 28.515625 44.390625 
Q 22.90625 44.390625 18.0625 43.265625 
Q 13.234375 42.140625 9.078125 39.890625 
L 9.078125 53.21875 
Q 14.703125 54.59375 20.359375 55.296875 
Q 26.03125 56 31.6875 56 
Q 46.484375 56 53.046875 50.171875 
Q 59.625 44.34375 59.625 31.203125 
z
" id="DejaVuSans-Bold-97"/>
    <path d="M 8.40625 75.984375 
L 25.875 75.984375 
L 25.875 34.625 
L 46 54.6875 
L 66.3125 54.6875 
L 39.59375 29.59375 
L 68.40625 0 
L 47.21875 0 
L 25.875 22.796875 
L 25.875 0 
L 8.40625 0 
z
" id="DejaVuSans-Bold-107"/>
   </defs>
   <g style="fill:#262626;" transform="translate(803.801953 17.157656)scale(0.15 -0.15)">
    <use xlink:href="#DejaVuSans-Bold-83"/>
    <use x="72.021484" xlink:href="#DejaVuSans-Bold-111"/>
    <use x="140.722656" xlink:href="#DejaVuSans-Bold-117"/>
    <use x="211.914062" xlink:href="#DejaVuSans-Bold-114"/>
    <use x="261.230469" xlink:href="#DejaVuSans-Bold-99"/>
    <use x="320.507812" xlink:href="#DejaVuSans-Bold-101"/>
    <use x="388.330078" xlink:href="#DejaVuSans-Bold-84"/>
    <use x="445.542969" xlink:href="#DejaVuSans-Bold-114"/>
    <use x="494.859375" xlink:href="#DejaVuSans-Bold-97"/>
    <use x="562.339844" xlink:href="#DejaVuSans-Bold-99"/>
    <use x="621.617188" xlink:href="#DejaVuSans-Bold-107"/>
    <use x="685.496094" xlink:href="#DejaVuSans-Bold-101"/>
    <use x="753.318359" xlink:href="#DejaVuSans-Bold-114"/>
   </g>
  </g>
  <g id="legend_1">
   <g id="patch_62">
    <path d="M 770.12 146.405625 
L 955.237188 146.405625 
Q 958.037188 146.405625 958.037188 143.605625 
L 958.037188 21.32 
Q 958.037188 18.52 955.237188 18.52 
L 770.12 18.52 
Q 767.32 18.52 767.32 21.32 
L 767.32 143.605625 
Q 767.32 146.405625 770.12 146.405625 
z
" style="fill:none;opacity:0;"/>
   </g>
   <g id="patch_63">
    <path d="M 772.92 34.757812 
L 800.92 34.757812 
L 800.92 24.957812 
L 772.92 24.957812 
z
" style="fill:#66c2a5;stroke:#ffffff;stroke-linejoin:miter;"/>
   </g>
   <g id="text_2">
    <!-- Unknown -->
    <defs>
     <path d="M 8.6875 72.90625 
L 18.609375 72.90625 
L 18.609375 28.609375 
Q 18.609375 16.890625 22.84375 11.734375 
Q 27.09375 6.59375 36.625 6.59375 
Q 46.09375 6.59375 50.34375 11.734375 
Q 54.59375 16.890625 54.59375 28.609375 
L 54.59375 72.90625 
L 64.5 72.90625 
L 64.5 27.390625 
Q 64.5 13.140625 57.4375 5.859375 
Q 50.390625 -1.421875 36.625 -1.421875 
Q 22.796875 -1.421875 15.734375 5.859375 
Q 8.6875 13.140625 8.6875 27.390625 
z
" id="DejaVuSans-85"/>
     <path d="M 54.890625 33.015625 
L 54.890625 0 
L 45.90625 0 
L 45.90625 32.71875 
Q 45.90625 40.484375 42.875 44.328125 
Q 39.84375 48.1875 33.796875 48.1875 
Q 26.515625 48.1875 22.3125 43.546875 
Q 18.109375 38.921875 18.109375 30.90625 
L 18.109375 0 
L 9.078125 0 
L 9.078125 54.6875 
L 18.109375 54.6875 
L 18.109375 46.1875 
Q 21.34375 51.125 25.703125 53.5625 
Q 30.078125 56 35.796875 56 
Q 45.21875 56 50.046875 50.171875 
Q 54.890625 44.34375 54.890625 33.015625 
z
" id="DejaVuSans-110"/>
     <path d="M 9.078125 75.984375 
L 18.109375 75.984375 
L 18.109375 31.109375 
L 44.921875 54.6875 
L 56.390625 54.6875 
L 27.390625 29.109375 
L 57.625 0 
L 45.90625 0 
L 18.109375 26.703125 
L 18.109375 0 
L 9.078125 0 
z
" id="DejaVuSans-107"/>
     <path d="M 30.609375 48.390625 
Q 23.390625 48.390625 19.1875 42.75 
Q 14.984375 37.109375 14.984375 27.296875 
Q 14.984375 17.484375 19.15625 11.84375 
Q 23.34375 6.203125 30.609375 6.203125 
Q 37.796875 6.203125 41.984375 11.859375 
Q 46.1875 17.53125 46.1875 27.296875 
Q 46.1875 37.015625 41.984375 42.703125 
Q 37.796875 48.390625 30.609375 48.390625 
z
M 30.609375 56 
Q 42.328125 56 49.015625 48.375 
Q 55.71875 40.765625 55.71875 27.296875 
Q 55.71875 13.875 49.015625 6.21875 
Q 42.328125 -1.421875 30.609375 -1.421875 
Q 18.84375 -1.421875 12.171875 6.21875 
Q 5.515625 13.875 5.515625 27.296875 
Q 5.515625 40.765625 12.171875 48.375 
Q 18.84375 56 30.609375 56 
z
" id="DejaVuSans-111"/>
     <path d="M 4.203125 54.6875 
L 13.1875 54.6875 
L 24.421875 12.015625 
L 35.59375 54.6875 
L 46.1875 54.6875 
L 57.421875 12.015625 
L 68.609375 54.6875 
L 77.59375 54.6875 
L 63.28125 0 
L 52.6875 0 
L 40.921875 44.828125 
L 29.109375 0 
L 18.5 0 
z
" id="DejaVuSans-119"/>
    </defs>
    <g style="fill:#262626;" transform="translate(812.12 34.757812)scale(0.14 -0.14)">
     <use xlink:href="#DejaVuSans-85"/>
     <use x="73.193359" xlink:href="#DejaVuSans-110"/>
     <use x="136.572266" xlink:href="#DejaVuSans-107"/>
     <use x="194.482422" xlink:href="#DejaVuSans-110"/>
     <use x="257.861328" xlink:href="#DejaVuSans-111"/>
     <use x="319.042969" xlink:href="#DejaVuSans-119"/>
     <use x="400.830078" xlink:href="#DejaVuSans-110"/>
    </g>
   </g>
   <g id="patch_64">
    <path d="M 772.92 55.307187 
L 800.92 55.307187 
L 800.92 45.507188 
L 772.92 45.507188 
z
" style="fill:#fc8d62;stroke:#ffffff;stroke-linejoin:miter;"/>
   </g>
   <g id="text_3">
    <!-- Petrochemical -->
    <defs>
     <path d="M 19.671875 64.796875 
L 19.671875 37.40625 
L 32.078125 37.40625 
Q 38.96875 37.40625 42.71875 40.96875 
Q 46.484375 44.53125 46.484375 51.125 
Q 46.484375 57.671875 42.71875 61.234375 
Q 38.96875 64.796875 32.078125 64.796875 
z
M 9.8125 72.90625 
L 32.078125 72.90625 
Q 44.34375 72.90625 50.609375 67.359375 
Q 56.890625 61.8125 56.890625 51.125 
Q 56.890625 40.328125 50.609375 34.8125 
Q 44.34375 29.296875 32.078125 29.296875 
L 19.671875 29.296875 
L 19.671875 0 
L 9.8125 0 
z
" id="DejaVuSans-80"/>
     <path d="M 56.203125 29.59375 
L 56.203125 25.203125 
L 14.890625 25.203125 
Q 15.484375 15.921875 20.484375 11.0625 
Q 25.484375 6.203125 34.421875 6.203125 
Q 39.59375 6.203125 44.453125 7.46875 
Q 49.3125 8.734375 54.109375 11.28125 
L 54.109375 2.78125 
Q 49.265625 0.734375 44.1875 -0.34375 
Q 39.109375 -1.421875 33.890625 -1.421875 
Q 20.796875 -1.421875 13.15625 6.1875 
Q 5.515625 13.8125 5.515625 26.8125 
Q 5.515625 40.234375 12.765625 48.109375 
Q 20.015625 56 32.328125 56 
Q 43.359375 56 49.78125 48.890625 
Q 56.203125 41.796875 56.203125 29.59375 
z
M 47.21875 32.234375 
Q 47.125 39.59375 43.09375 43.984375 
Q 39.0625 48.390625 32.421875 48.390625 
Q 24.90625 48.390625 20.390625 44.140625 
Q 15.875 39.890625 15.1875 32.171875 
z
" id="DejaVuSans-101"/>
     <path d="M 18.3125 70.21875 
L 18.3125 54.6875 
L 36.8125 54.6875 
L 36.8125 47.703125 
L 18.3125 47.703125 
L 18.3125 18.015625 
Q 18.3125 11.328125 20.140625 9.421875 
Q 21.96875 7.515625 27.59375 7.515625 
L 36.8125 7.515625 
L 36.8125 0 
L 27.59375 0 
Q 17.1875 0 13.234375 3.875 
Q 9.28125 7.765625 9.28125 18.015625 
L 9.28125 47.703125 
L 2.6875 47.703125 
L 2.6875 54.6875 
L 9.28125 54.6875 
L 9.28125 70.21875 
z
" id="DejaVuSans-116"/>
     <path d="M 41.109375 46.296875 
Q 39.59375 47.171875 37.8125 47.578125 
Q 36.03125 48 33.890625 48 
Q 26.265625 48 22.1875 43.046875 
Q 18.109375 38.09375 18.109375 28.8125 
L 18.109375 0 
L 9.078125 0 
L 9.078125 54.6875 
L 18.109375 54.6875 
L 18.109375 46.1875 
Q 20.953125 51.171875 25.484375 53.578125 
Q 30.03125 56 36.53125 56 
Q 37.453125 56 38.578125 55.875 
Q 39.703125 55.765625 41.0625 55.515625 
z
" id="DejaVuSans-114"/>
     <path d="M 48.78125 52.59375 
L 48.78125 44.1875 
Q 44.96875 46.296875 41.140625 47.34375 
Q 37.3125 48.390625 33.40625 48.390625 
Q 24.65625 48.390625 19.8125 42.84375 
Q 14.984375 37.3125 14.984375 27.296875 
Q 14.984375 17.28125 19.8125 11.734375 
Q 24.65625 6.203125 33.40625 6.203125 
Q 37.3125 6.203125 41.140625 7.25 
Q 44.96875 8.296875 48.78125 10.40625 
L 48.78125 2.09375 
Q 45.015625 0.34375 40.984375 -0.53125 
Q 36.96875 -1.421875 32.421875 -1.421875 
Q 20.0625 -1.421875 12.78125 6.34375 
Q 5.515625 14.109375 5.515625 27.296875 
Q 5.515625 40.671875 12.859375 48.328125 
Q 20.21875 56 33.015625 56 
Q 37.15625 56 41.109375 55.140625 
Q 45.0625 54.296875 48.78125 52.59375 
z
" id="DejaVuSans-99"/>
     <path d="M 54.890625 33.015625 
L 54.890625 0 
L 45.90625 0 
L 45.90625 32.71875 
Q 45.90625 40.484375 42.875 44.328125 
Q 39.84375 48.1875 33.796875 48.1875 
Q 26.515625 48.1875 22.3125 43.546875 
Q 18.109375 38.921875 18.109375 30.90625 
L 18.109375 0 
L 9.078125 0 
L 9.078125 75.984375 
L 18.109375 75.984375 
L 18.109375 46.1875 
Q 21.34375 51.125 25.703125 53.5625 
Q 30.078125 56 35.796875 56 
Q 45.21875 56 50.046875 50.171875 
Q 54.890625 44.34375 54.890625 33.015625 
z
" id="DejaVuSans-104"/>
     <path d="M 52 44.1875 
Q 55.375 50.25 60.0625 53.125 
Q 64.75 56 71.09375 56 
Q 79.640625 56 84.28125 50.015625 
Q 88.921875 44.046875 88.921875 33.015625 
L 88.921875 0 
L 79.890625 0 
L 79.890625 32.71875 
Q 79.890625 40.578125 77.09375 44.375 
Q 74.3125 48.1875 68.609375 48.1875 
Q 61.625 48.1875 57.5625 43.546875 
Q 53.515625 38.921875 53.515625 30.90625 
L 53.515625 0 
L 44.484375 0 
L 44.484375 32.71875 
Q 44.484375 40.625 41.703125 44.40625 
Q 38.921875 48.1875 33.109375 48.1875 
Q 26.21875 48.1875 22.15625 43.53125 
Q 18.109375 38.875 18.109375 30.90625 
L 18.109375 0 
L 9.078125 0 
L 9.078125 54.6875 
L 18.109375 54.6875 
L 18.109375 46.1875 
Q 21.1875 51.21875 25.484375 53.609375 
Q 29.78125 56 35.6875 56 
Q 41.65625 56 45.828125 52.96875 
Q 50 49.953125 52 44.1875 
z
" id="DejaVuSans-109"/>
     <path d="M 9.421875 54.6875 
L 18.40625 54.6875 
L 18.40625 0 
L 9.421875 0 
z
M 9.421875 75.984375 
L 18.40625 75.984375 
L 18.40625 64.59375 
L 9.421875 64.59375 
z
" id="DejaVuSans-105"/>
     <path d="M 34.28125 27.484375 
Q 23.390625 27.484375 19.1875 25 
Q 14.984375 22.515625 14.984375 16.5 
Q 14.984375 11.71875 18.140625 8.90625 
Q 21.296875 6.109375 26.703125 6.109375 
Q 34.1875 6.109375 38.703125 11.40625 
Q 43.21875 16.703125 43.21875 25.484375 
L 43.21875 27.484375 
z
M 52.203125 31.203125 
L 52.203125 0 
L 43.21875 0 
L 43.21875 8.296875 
Q 40.140625 3.328125 35.546875 0.953125 
Q 30.953125 -1.421875 24.3125 -1.421875 
Q 15.921875 -1.421875 10.953125 3.296875 
Q 6 8.015625 6 15.921875 
Q 6 25.140625 12.171875 29.828125 
Q 18.359375 34.515625 30.609375 34.515625 
L 43.21875 34.515625 
L 43.21875 35.40625 
Q 43.21875 41.609375 39.140625 45 
Q 35.0625 48.390625 27.6875 48.390625 
Q 23 48.390625 18.546875 47.265625 
Q 14.109375 46.140625 10.015625 43.890625 
L 10.015625 52.203125 
Q 14.9375 54.109375 19.578125 55.046875 
Q 24.21875 56 28.609375 56 
Q 40.484375 56 46.34375 49.84375 
Q 52.203125 43.703125 52.203125 31.203125 
z
" id="DejaVuSans-97"/>
     <path d="M 9.421875 75.984375 
L 18.40625 75.984375 
L 18.40625 0 
L 9.421875 0 
z
" id="DejaVuSans-108"/>
    </defs>
    <g style="fill:#262626;" transform="translate(812.12 55.307187)scale(0.14 -0.14)">
     <use xlink:href="#DejaVuSans-80"/>
     <use x="56.677734" xlink:href="#DejaVuSans-101"/>
     <use x="118.201172" xlink:href="#DejaVuSans-116"/>
     <use x="157.410156" xlink:href="#DejaVuSans-114"/>
     <use x="196.273438" xlink:href="#DejaVuSans-111"/>
     <use x="257.455078" xlink:href="#DejaVuSans-99"/>
     <use x="312.435547" xlink:href="#DejaVuSans-104"/>
     <use x="375.814453" xlink:href="#DejaVuSans-101"/>
     <use x="437.337891" xlink:href="#DejaVuSans-109"/>
     <use x="534.75" xlink:href="#DejaVuSans-105"/>
     <use x="562.533203" xlink:href="#DejaVuSans-99"/>
     <use x="617.513672" xlink:href="#DejaVuSans-97"/>
     <use x="678.792969" xlink:href="#DejaVuSans-108"/>
    </g>
   </g>
   <g id="patch_65">
    <path d="M 772.92 75.856562 
L 800.92 75.856562 
L 800.92 66.056562 
L 772.92 66.056562 
z
" style="fill:#8da0cb;stroke:#ffffff;stroke-linejoin:miter;"/>
   </g>
   <g id="text_4">
    <!-- Large_intestine (H*) -->
    <defs>
     <path d="M 9.8125 72.90625 
L 19.671875 72.90625 
L 19.671875 8.296875 
L 55.171875 8.296875 
L 55.171875 0 
L 9.8125 0 
z
" id="DejaVuSans-76"/>
     <path d="M 45.40625 27.984375 
Q 45.40625 37.75 41.375 43.109375 
Q 37.359375 48.484375 30.078125 48.484375 
Q 22.859375 48.484375 18.828125 43.109375 
Q 14.796875 37.75 14.796875 27.984375 
Q 14.796875 18.265625 18.828125 12.890625 
Q 22.859375 7.515625 30.078125 7.515625 
Q 37.359375 7.515625 41.375 12.890625 
Q 45.40625 18.265625 45.40625 27.984375 
z
M 54.390625 6.78125 
Q 54.390625 -7.171875 48.1875 -13.984375 
Q 42 -20.796875 29.203125 -20.796875 
Q 24.46875 -20.796875 20.265625 -20.09375 
Q 16.0625 -19.390625 12.109375 -17.921875 
L 12.109375 -9.1875 
Q 16.0625 -11.328125 19.921875 -12.34375 
Q 23.78125 -13.375 27.78125 -13.375 
Q 36.625 -13.375 41.015625 -8.765625 
Q 45.40625 -4.15625 45.40625 5.171875 
L 45.40625 9.625 
Q 42.625 4.78125 38.28125 2.390625 
Q 33.9375 0 27.875 0 
Q 17.828125 0 11.671875 7.65625 
Q 5.515625 15.328125 5.515625 27.984375 
Q 5.515625 40.671875 11.671875 48.328125 
Q 17.828125 56 27.875 56 
Q 33.9375 56 38.28125 53.609375 
Q 42.625 51.21875 45.40625 46.390625 
L 45.40625 54.6875 
L 54.390625 54.6875 
z
" id="DejaVuSans-103"/>
     <path d="M 50.984375 -16.609375 
L 50.984375 -23.578125 
L -0.984375 -23.578125 
L -0.984375 -16.609375 
z
" id="DejaVuSans-95"/>
     <path d="M 44.28125 53.078125 
L 44.28125 44.578125 
Q 40.484375 46.53125 36.375 47.5 
Q 32.28125 48.484375 27.875 48.484375 
Q 21.1875 48.484375 17.84375 46.4375 
Q 14.5 44.390625 14.5 40.28125 
Q 14.5 37.15625 16.890625 35.375 
Q 19.28125 33.59375 26.515625 31.984375 
L 29.59375 31.296875 
Q 39.15625 29.25 43.1875 25.515625 
Q 47.21875 21.78125 47.21875 15.09375 
Q 47.21875 7.46875 41.1875 3.015625 
Q 35.15625 -1.421875 24.609375 -1.421875 
Q 20.21875 -1.421875 15.453125 -0.5625 
Q 10.6875 0.296875 5.421875 2 
L 5.421875 11.28125 
Q 10.40625 8.6875 15.234375 7.390625 
Q 20.0625 6.109375 24.8125 6.109375 
Q 31.15625 6.109375 34.5625 8.28125 
Q 37.984375 10.453125 37.984375 14.40625 
Q 37.984375 18.0625 35.515625 20.015625 
Q 33.0625 21.96875 24.703125 23.78125 
L 21.578125 24.515625 
Q 13.234375 26.265625 9.515625 29.90625 
Q 5.8125 33.546875 5.8125 39.890625 
Q 5.8125 47.609375 11.28125 51.796875 
Q 16.75 56 26.8125 56 
Q 31.78125 56 36.171875 55.265625 
Q 40.578125 54.546875 44.28125 53.078125 
z
" id="DejaVuSans-115"/>
     <path id="DejaVuSans-32"/>
     <path d="M 31 75.875 
Q 24.46875 64.65625 21.28125 53.65625 
Q 18.109375 42.671875 18.109375 31.390625 
Q 18.109375 20.125 21.3125 9.0625 
Q 24.515625 -2 31 -13.1875 
L 23.1875 -13.1875 
Q 15.875 -1.703125 12.234375 9.375 
Q 8.59375 20.453125 8.59375 31.390625 
Q 8.59375 42.28125 12.203125 53.3125 
Q 15.828125 64.359375 23.1875 75.875 
z
" id="DejaVuSans-40"/>
     <path d="M 9.8125 72.90625 
L 19.671875 72.90625 
L 19.671875 43.015625 
L 55.515625 43.015625 
L 55.515625 72.90625 
L 65.375 72.90625 
L 65.375 0 
L 55.515625 0 
L 55.515625 34.71875 
L 19.671875 34.71875 
L 19.671875 0 
L 9.8125 0 
z
" id="DejaVuSans-72"/>
     <path d="M 47.015625 60.890625 
L 29.5 51.421875 
L 47.015625 41.890625 
L 44.1875 37.109375 
L 27.78125 47.015625 
L 27.78125 28.609375 
L 22.21875 28.609375 
L 22.21875 47.015625 
L 5.8125 37.109375 
L 2.984375 41.890625 
L 20.515625 51.421875 
L 2.984375 60.890625 
L 5.8125 65.71875 
L 22.21875 55.8125 
L 22.21875 74.21875 
L 27.78125 74.21875 
L 27.78125 55.8125 
L 44.1875 65.71875 
z
" id="DejaVuSans-42"/>
     <path d="M 8.015625 75.875 
L 15.828125 75.875 
Q 23.140625 64.359375 26.78125 53.3125 
Q 30.421875 42.28125 30.421875 31.390625 
Q 30.421875 20.453125 26.78125 9.375 
Q 23.140625 -1.703125 15.828125 -13.1875 
L 8.015625 -13.1875 
Q 14.5 -2 17.703125 9.0625 
Q 20.90625 20.125 20.90625 31.390625 
Q 20.90625 42.671875 17.703125 53.65625 
Q 14.5 64.65625 8.015625 75.875 
z
" id="DejaVuSans-41"/>
    </defs>
    <g style="fill:#262626;" transform="translate(812.12 75.856562)scale(0.14 -0.14)">
     <use xlink:href="#DejaVuSans-76"/>
     <use x="55.712891" xlink:href="#DejaVuSans-97"/>
     <use x="116.992188" xlink:href="#DejaVuSans-114"/>
     <use x="156.355469" xlink:href="#DejaVuSans-103"/>
     <use x="219.832031" xlink:href="#DejaVuSans-101"/>
     <use x="281.355469" xlink:href="#DejaVuSans-95"/>
     <use x="331.355469" xlink:href="#DejaVuSans-105"/>
     <use x="359.138672" xlink:href="#DejaVuSans-110"/>
     <use x="422.517578" xlink:href="#DejaVuSans-116"/>
     <use x="461.726562" xlink:href="#DejaVuSans-101"/>
     <use x="523.25" xlink:href="#DejaVuSans-115"/>
     <use x="575.349609" xlink:href="#DejaVuSans-116"/>
     <use x="614.558594" xlink:href="#DejaVuSans-105"/>
     <use x="642.341797" xlink:href="#DejaVuSans-110"/>
     <use x="705.720703" xlink:href="#DejaVuSans-101"/>
     <use x="767.244141" xlink:href="#DejaVuSans-32"/>
     <use x="799.03125" xlink:href="#DejaVuSans-40"/>
     <use x="838.044922" xlink:href="#DejaVuSans-72"/>
     <use x="913.240234" xlink:href="#DejaVuSans-42"/>
     <use x="963.240234" xlink:href="#DejaVuSans-41"/>
    </g>
   </g>
   <g id="patch_66">
    <path d="M 772.92 96.795312 
L 800.92 96.795312 
L 800.92 86.995312 
L 772.92 86.995312 
z
" style="fill:#e78ac3;stroke:#ffffff;stroke-linejoin:miter;"/>
   </g>
   <g id="text_5">
    <!-- Skin (H*) -->
    <defs>
     <path d="M 53.515625 70.515625 
L 53.515625 60.890625 
Q 47.90625 63.578125 42.921875 64.890625 
Q 37.9375 66.21875 33.296875 66.21875 
Q 25.25 66.21875 20.875 63.09375 
Q 16.5 59.96875 16.5 54.203125 
Q 16.5 49.359375 19.40625 46.890625 
Q 22.3125 44.4375 30.421875 42.921875 
L 36.375 41.703125 
Q 47.40625 39.59375 52.65625 34.296875 
Q 57.90625 29 57.90625 20.125 
Q 57.90625 9.515625 50.796875 4.046875 
Q 43.703125 -1.421875 29.984375 -1.421875 
Q 24.8125 -1.421875 18.96875 -0.25 
Q 13.140625 0.921875 6.890625 3.21875 
L 6.890625 13.375 
Q 12.890625 10.015625 18.65625 8.296875 
Q 24.421875 6.59375 29.984375 6.59375 
Q 38.421875 6.59375 43.015625 9.90625 
Q 47.609375 13.234375 47.609375 19.390625 
Q 47.609375 24.75 44.3125 27.78125 
Q 41.015625 30.8125 33.5 32.328125 
L 27.484375 33.5 
Q 16.453125 35.6875 11.515625 40.375 
Q 6.59375 45.0625 6.59375 53.421875 
Q 6.59375 63.09375 13.40625 68.65625 
Q 20.21875 74.21875 32.171875 74.21875 
Q 37.3125 74.21875 42.625 73.28125 
Q 47.953125 72.359375 53.515625 70.515625 
z
" id="DejaVuSans-83"/>
    </defs>
    <g style="fill:#262626;" transform="translate(812.12 96.795312)scale(0.14 -0.14)">
     <use xlink:href="#DejaVuSans-83"/>
     <use x="63.476562" xlink:href="#DejaVuSans-107"/>
     <use x="121.386719" xlink:href="#DejaVuSans-105"/>
     <use x="149.169922" xlink:href="#DejaVuSans-110"/>
     <use x="212.548828" xlink:href="#DejaVuSans-32"/>
     <use x="244.335938" xlink:href="#DejaVuSans-40"/>
     <use x="283.349609" xlink:href="#DejaVuSans-72"/>
     <use x="358.544922" xlink:href="#DejaVuSans-42"/>
     <use x="408.544922" xlink:href="#DejaVuSans-41"/>
    </g>
   </g>
   <g id="patch_67">
    <path d="M 772.92 117.344687 
L 800.92 117.344687 
L 800.92 107.544687 
L 772.92 107.544687 
z
" style="fill:#a6d854;stroke:#ffffff;stroke-linejoin:miter;"/>
   </g>
   <g id="text_6">
    <!-- Plants -->
    <g style="fill:#262626;" transform="translate(812.12 117.344687)scale(0.14 -0.14)">
     <use xlink:href="#DejaVuSans-80"/>
     <use x="60.302734" xlink:href="#DejaVuSans-108"/>
     <use x="88.085938" xlink:href="#DejaVuSans-97"/>
     <use x="149.365234" xlink:href="#DejaVuSans-110"/>
     <use x="212.744141" xlink:href="#DejaVuSans-116"/>
     <use x="251.953125" xlink:href="#DejaVuSans-115"/>
    </g>
   </g>
   <g id="patch_68">
    <path d="M 772.92 137.894062 
L 800.92 137.894062 
L 800.92 128.094062 
L 772.92 128.094062 
z
" style="fill:#ffd92f;stroke:#ffffff;stroke-linejoin:miter;"/>
   </g>
   <g id="text_7">
    <!-- Others -->
    <defs>
     <path d="M 39.40625 66.21875 
Q 28.65625 66.21875 22.328125 58.203125 
Q 16.015625 50.203125 16.015625 36.375 
Q 16.015625 22.609375 22.328125 14.59375 
Q 28.65625 6.59375 39.40625 6.59375 
Q 50.140625 6.59375 56.421875 14.59375 
Q 62.703125 22.609375 62.703125 36.375 
Q 62.703125 50.203125 56.421875 58.203125 
Q 50.140625 66.21875 39.40625 66.21875 
z
M 39.40625 74.21875 
Q 54.734375 74.21875 63.90625 63.9375 
Q 73.09375 53.65625 73.09375 36.375 
Q 73.09375 19.140625 63.90625 8.859375 
Q 54.734375 -1.421875 39.40625 -1.421875 
Q 24.03125 -1.421875 14.8125 8.828125 
Q 5.609375 19.09375 5.609375 36.375 
Q 5.609375 53.65625 14.8125 63.9375 
Q 24.03125 74.21875 39.40625 74.21875 
z
" id="DejaVuSans-79"/>
    </defs>
    <g style="fill:#262626;" transform="translate(812.12 137.894062)scale(0.14 -0.14)">
     <use xlink:href="#DejaVuSans-79"/>
     <use x="78.710938" xlink:href="#DejaVuSans-116"/>
     <use x="117.919922" xlink:href="#DejaVuSans-104"/>
     <use x="181.298828" xlink:href="#DejaVuSans-101"/>
     <use x="242.822266" xlink:href="#DejaVuSans-114"/>
     <use x="283.935547" xlink:href="#DejaVuSans-115"/>
    </g>
   </g>
  </g>
 </g>
</svg>
