<?xml version="1.0" encoding="utf-8" standalone="no"?>
<!DOCTYPE svg PUBLIC "-//W3C//DTD SVG 1.1//EN"
  "http://www.w3.org/Graphics/SVG/1.1/DTD/svg11.dtd">
<!-- Created with matplotlib (https://matplotlib.org/) -->
<svg height="432pt" version="1.1" viewBox="0 0 864 432" width="864pt" xmlns="http://www.w3.org/2000/svg" xmlns:xlink="http://www.w3.org/1999/xlink">
 <defs>
  <style type="text/css">
*{stroke-linecap:butt;stroke-linejoin:round;}
  </style>
 </defs>
 <g id="figure_1">
  <g id="patch_1">
   <path d="M 0 432 
L 864 432 
L 864 0 
L 0 0 
z
" style="fill:#ffffff;"/>
  </g>
  <g id="axes_1">
   <g id="patch_2">
    <path d="M 40.085 366.19 
L 425.52 366.19 
L 425.52 27.96 
L 40.085 27.96 
z
" style="fill:#eaeaf2;"/>
   </g>
   <g id="matplotlib.axis_1">
    <g id="xtick_1">
     <g id="line2d_1">
      <path clip-path="url(#p48b2b4798e)" d="M 57.604773 366.19 
L 57.604773 27.96 
" style="fill:none;stroke:#ffffff;stroke-linecap:round;"/>
     </g>
     <g id="text_1">
      <!-- WellA_1 -->
      <defs>
       <path d="M 3.328125 72.90625 
L 13.28125 72.90625 
L 28.609375 11.28125 
L 43.890625 72.90625 
L 54.984375 72.90625 
L 70.3125 11.28125 
L 85.59375 72.90625 
L 95.609375 72.90625 
L 77.296875 0 
L 64.890625 0 
L 49.515625 63.28125 
L 33.984375 0 
L 21.578125 0 
z
" id="DejaVuSans-87"/>
       <path d="M 56.203125 29.59375 
L 56.203125 25.203125 
L 14.890625 25.203125 
Q 15.484375 15.921875 20.484375 11.0625 
Q 25.484375 6.203125 34.421875 6.203125 
Q 39.59375 6.203125 44.453125 7.46875 
Q 49.3125 8.734375 54.109375 11.28125 
L 54.109375 2.78125 
Q 49.265625 0.734375 44.1875 -0.34375 
Q 39.109375 -1.421875 33.890625 -1.421875 
Q 20.796875 -1.421875 13.15625 6.1875 
Q 5.515625 13.8125 5.515625 26.8125 
Q 5.515625 40.234375 12.765625 48.109375 
Q 20.015625 56 32.328125 56 
Q 43.359375 56 49.78125 48.890625 
Q 56.203125 41.796875 56.203125 29.59375 
z
M 47.21875 32.234375 
Q 47.125 39.59375 43.09375 43.984375 
Q 39.0625 48.390625 32.421875 48.390625 
Q 24.90625 48.390625 20.390625 44.140625 
Q 15.875 39.890625 15.1875 32.171875 
z
" id="DejaVuSans-101"/>
       <path d="M 9.421875 75.984375 
L 18.40625 75.984375 
L 18.40625 0 
L 9.421875 0 
z
" id="DejaVuSans-108"/>
       <path d="M 34.1875 63.1875 
L 20.796875 26.90625 
L 47.609375 26.90625 
z
M 28.609375 72.90625 
L 39.796875 72.90625 
L 67.578125 0 
L 57.328125 0 
L 50.6875 18.703125 
L 17.828125 18.703125 
L 11.1875 0 
L 0.78125 0 
z
" id="DejaVuSans-65"/>
       <path d="M 50.984375 -16.609375 
L 50.984375 -23.578125 
L -0.984375 -23.578125 
L -0.984375 -16.609375 
z
" id="DejaVuSans-95"/>
       <path d="M 12.40625 8.296875 
L 28.515625 8.296875 
L 28.515625 63.921875 
L 10.984375 60.40625 
L 10.984375 69.390625 
L 28.421875 72.90625 
L 38.28125 72.90625 
L 38.28125 8.296875 
L 54.390625 8.296875 
L 54.390625 0 
L 12.40625 0 
z
" id="DejaVuSans-49"/>
      </defs>
      <g style="fill:#262626;" transform="translate(60.487116 418.82375)rotate(-90)scale(0.11 -0.11)">
       <use xlink:href="#DejaVuSans-87"/>
       <use x="93.001953" xlink:href="#DejaVuSans-101"/>
       <use x="154.525391" xlink:href="#DejaVuSans-108"/>
       <use x="182.308594" xlink:href="#DejaVuSans-108"/>
       <use x="210.091797" xlink:href="#DejaVuSans-65"/>
       <use x="278.5" xlink:href="#DejaVuSans-95"/>
       <use x="328.5" xlink:href="#DejaVuSans-49"/>
      </g>
     </g>
    </g>
    <g id="xtick_2">
     <g id="line2d_2">
      <path clip-path="url(#p48b2b4798e)" d="M 92.644318 366.19 
L 92.644318 27.96 
" style="fill:none;stroke:#ffffff;stroke-linecap:round;"/>
     </g>
     <g id="text_2">
      <!-- WellA_2 -->
      <defs>
       <path d="M 19.1875 8.296875 
L 53.609375 8.296875 
L 53.609375 0 
L 7.328125 0 
L 7.328125 8.296875 
Q 12.9375 14.109375 22.625 23.890625 
Q 32.328125 33.6875 34.8125 36.53125 
Q 39.546875 41.84375 41.421875 45.53125 
Q 43.3125 49.21875 43.3125 52.78125 
Q 43.3125 58.59375 39.234375 62.25 
Q 35.15625 65.921875 28.609375 65.921875 
Q 23.96875 65.921875 18.8125 64.3125 
Q 13.671875 62.703125 7.8125 59.421875 
L 7.8125 69.390625 
Q 13.765625 71.78125 18.9375 73 
Q 24.125 74.21875 28.421875 74.21875 
Q 39.75 74.21875 46.484375 68.546875 
Q 53.21875 62.890625 53.21875 53.421875 
Q 53.21875 48.921875 51.53125 44.890625 
Q 49.859375 40.875 45.40625 35.40625 
Q 44.1875 33.984375 37.640625 27.21875 
Q 31.109375 20.453125 19.1875 8.296875 
z
" id="DejaVuSans-50"/>
      </defs>
      <g style="fill:#262626;" transform="translate(95.526662 418.82375)rotate(-90)scale(0.11 -0.11)">
       <use xlink:href="#DejaVuSans-87"/>
       <use x="93.001953" xlink:href="#DejaVuSans-101"/>
       <use x="154.525391" xlink:href="#DejaVuSans-108"/>
       <use x="182.308594" xlink:href="#DejaVuSans-108"/>
       <use x="210.091797" xlink:href="#DejaVuSans-65"/>
       <use x="278.5" xlink:href="#DejaVuSans-95"/>
       <use x="328.5" xlink:href="#DejaVuSans-50"/>
      </g>
     </g>
    </g>
    <g id="xtick_3">
     <g id="line2d_3">
      <path clip-path="url(#p48b2b4798e)" d="M 127.683864 366.19 
L 127.683864 27.96 
" style="fill:none;stroke:#ffffff;stroke-linecap:round;"/>
     </g>
     <g id="text_3">
      <!-- WellB_1 -->
      <defs>
       <path d="M 19.671875 34.8125 
L 19.671875 8.109375 
L 35.5 8.109375 
Q 43.453125 8.109375 47.28125 11.40625 
Q 51.125 14.703125 51.125 21.484375 
Q 51.125 28.328125 47.28125 31.5625 
Q 43.453125 34.8125 35.5 34.8125 
z
M 19.671875 64.796875 
L 19.671875 42.828125 
L 34.28125 42.828125 
Q 41.5 42.828125 45.03125 45.53125 
Q 48.578125 48.25 48.578125 53.8125 
Q 48.578125 59.328125 45.03125 62.0625 
Q 41.5 64.796875 34.28125 64.796875 
z
M 9.8125 72.90625 
L 35.015625 72.90625 
Q 46.296875 72.90625 52.390625 68.21875 
Q 58.5 63.53125 58.5 54.890625 
Q 58.5 48.1875 55.375 44.234375 
Q 52.25 40.28125 46.1875 39.3125 
Q 53.46875 37.75 57.5 32.78125 
Q 61.53125 27.828125 61.53125 20.40625 
Q 61.53125 10.640625 54.890625 5.3125 
Q 48.25 0 35.984375 0 
L 9.8125 0 
z
" id="DejaVuSans-66"/>
      </defs>
      <g style="fill:#262626;" transform="translate(130.566207 418.846094)rotate(-90)scale(0.11 -0.11)">
       <use xlink:href="#DejaVuSans-87"/>
       <use x="93.001953" xlink:href="#DejaVuSans-101"/>
       <use x="154.525391" xlink:href="#DejaVuSans-108"/>
       <use x="182.308594" xlink:href="#DejaVuSans-108"/>
       <use x="210.091797" xlink:href="#DejaVuSans-66"/>
       <use x="278.695312" xlink:href="#DejaVuSans-95"/>
       <use x="328.695312" xlink:href="#DejaVuSans-49"/>
      </g>
     </g>
    </g>
    <g id="xtick_4">
     <g id="line2d_4">
      <path clip-path="url(#p48b2b4798e)" d="M 162.723409 366.19 
L 162.723409 27.96 
" style="fill:none;stroke:#ffffff;stroke-linecap:round;"/>
     </g>
     <g id="text_4">
      <!-- WellB_2 -->
      <g style="fill:#262626;" transform="translate(165.605753 418.846094)rotate(-90)scale(0.11 -0.11)">
       <use xlink:href="#DejaVuSans-87"/>
       <use x="93.001953" xlink:href="#DejaVuSans-101"/>
       <use x="154.525391" xlink:href="#DejaVuSans-108"/>
       <use x="182.308594" xlink:href="#DejaVuSans-108"/>
       <use x="210.091797" xlink:href="#DejaVuSans-66"/>
       <use x="278.695312" xlink:href="#DejaVuSans-95"/>
       <use x="328.695312" xlink:href="#DejaVuSans-50"/>
      </g>
     </g>
    </g>
    <g id="xtick_5">
     <g id="line2d_5">
      <path clip-path="url(#p48b2b4798e)" d="M 197.762955 366.19 
L 197.762955 27.96 
" style="fill:none;stroke:#ffffff;stroke-linecap:round;"/>
     </g>
     <g id="text_5">
      <!-- WellC_1 -->
      <defs>
       <path d="M 64.40625 67.28125 
L 64.40625 56.890625 
Q 59.421875 61.53125 53.78125 63.8125 
Q 48.140625 66.109375 41.796875 66.109375 
Q 29.296875 66.109375 22.65625 58.46875 
Q 16.015625 50.828125 16.015625 36.375 
Q 16.015625 21.96875 22.65625 14.328125 
Q 29.296875 6.6875 41.796875 6.6875 
Q 48.140625 6.6875 53.78125 8.984375 
Q 59.421875 11.28125 64.40625 15.921875 
L 64.40625 5.609375 
Q 59.234375 2.09375 53.4375 0.328125 
Q 47.65625 -1.421875 41.21875 -1.421875 
Q 24.65625 -1.421875 15.125 8.703125 
Q 5.609375 18.84375 5.609375 36.375 
Q 5.609375 53.953125 15.125 64.078125 
Q 24.65625 74.21875 41.21875 74.21875 
Q 47.75 74.21875 53.53125 72.484375 
Q 59.328125 70.75 64.40625 67.28125 
z
" id="DejaVuSans-67"/>
      </defs>
      <g style="fill:#262626;" transform="translate(200.645298 418.980156)rotate(-90)scale(0.11 -0.11)">
       <use xlink:href="#DejaVuSans-87"/>
       <use x="93.001953" xlink:href="#DejaVuSans-101"/>
       <use x="154.525391" xlink:href="#DejaVuSans-108"/>
       <use x="182.308594" xlink:href="#DejaVuSans-108"/>
       <use x="210.091797" xlink:href="#DejaVuSans-67"/>
       <use x="279.916016" xlink:href="#DejaVuSans-95"/>
       <use x="329.916016" xlink:href="#DejaVuSans-49"/>
      </g>
     </g>
    </g>
    <g id="xtick_6">
     <g id="line2d_6">
      <path clip-path="url(#p48b2b4798e)" d="M 232.8025 366.19 
L 232.8025 27.96 
" style="fill:none;stroke:#ffffff;stroke-linecap:round;"/>
     </g>
     <g id="text_6">
      <!-- WellC_2 -->
      <g style="fill:#262626;" transform="translate(235.684844 418.980156)rotate(-90)scale(0.11 -0.11)">
       <use xlink:href="#DejaVuSans-87"/>
       <use x="93.001953" xlink:href="#DejaVuSans-101"/>
       <use x="154.525391" xlink:href="#DejaVuSans-108"/>
       <use x="182.308594" xlink:href="#DejaVuSans-108"/>
       <use x="210.091797" xlink:href="#DejaVuSans-67"/>
       <use x="279.916016" xlink:href="#DejaVuSans-95"/>
       <use x="329.916016" xlink:href="#DejaVuSans-50"/>
      </g>
     </g>
    </g>
    <g id="xtick_7">
     <g id="line2d_7">
      <path clip-path="url(#p48b2b4798e)" d="M 267.842045 366.19 
L 267.842045 27.96 
" style="fill:none;stroke:#ffffff;stroke-linecap:round;"/>
     </g>
     <g id="text_7">
      <!-- WellD -->
      <defs>
       <path d="M 19.671875 64.796875 
L 19.671875 8.109375 
L 31.59375 8.109375 
Q 46.6875 8.109375 53.6875 14.9375 
Q 60.6875 21.78125 60.6875 36.53125 
Q 60.6875 51.171875 53.6875 57.984375 
Q 46.6875 64.796875 31.59375 64.796875 
z
M 9.8125 72.90625 
L 30.078125 72.90625 
Q 51.265625 72.90625 61.171875 64.09375 
Q 71.09375 55.28125 71.09375 36.53125 
Q 71.09375 17.671875 61.125 8.828125 
Q 51.171875 0 30.078125 0 
L 9.8125 0 
z
" id="DejaVuSans-68"/>
      </defs>
      <g style="fill:#262626;" transform="translate(270.877358 407.270312)rotate(-90)scale(0.11 -0.11)">
       <use xlink:href="#DejaVuSans-87"/>
       <use x="93.001953" xlink:href="#DejaVuSans-101"/>
       <use x="154.525391" xlink:href="#DejaVuSans-108"/>
       <use x="182.308594" xlink:href="#DejaVuSans-108"/>
       <use x="210.091797" xlink:href="#DejaVuSans-68"/>
      </g>
     </g>
    </g>
    <g id="xtick_8">
     <g id="line2d_8">
      <path clip-path="url(#p48b2b4798e)" d="M 302.881591 366.19 
L 302.881591 27.96 
" style="fill:none;stroke:#ffffff;stroke-linecap:round;"/>
     </g>
     <g id="text_8">
      <!-- WellE -->
      <defs>
       <path d="M 9.8125 72.90625 
L 55.90625 72.90625 
L 55.90625 64.59375 
L 19.671875 64.59375 
L 19.671875 43.015625 
L 54.390625 43.015625 
L 54.390625 34.71875 
L 19.671875 34.71875 
L 19.671875 8.296875 
L 56.78125 8.296875 
L 56.78125 0 
L 9.8125 0 
z
" id="DejaVuSans-69"/>
      </defs>
      <g style="fill:#262626;" transform="translate(305.916903 405.750938)rotate(-90)scale(0.11 -0.11)">
       <use xlink:href="#DejaVuSans-87"/>
       <use x="93.001953" xlink:href="#DejaVuSans-101"/>
       <use x="154.525391" xlink:href="#DejaVuSans-108"/>
       <use x="182.308594" xlink:href="#DejaVuSans-108"/>
       <use x="210.091797" xlink:href="#DejaVuSans-69"/>
      </g>
     </g>
    </g>
    <g id="xtick_9">
     <g id="line2d_9">
      <path clip-path="url(#p48b2b4798e)" d="M 337.921136 366.19 
L 337.921136 27.96 
" style="fill:none;stroke:#ffffff;stroke-linecap:round;"/>
     </g>
     <g id="text_9">
      <!-- WellF -->
      <defs>
       <path d="M 9.8125 72.90625 
L 51.703125 72.90625 
L 51.703125 64.59375 
L 19.671875 64.59375 
L 19.671875 43.109375 
L 48.578125 43.109375 
L 48.578125 34.8125 
L 19.671875 34.8125 
L 19.671875 0 
L 9.8125 0 
z
" id="DejaVuSans-70"/>
      </defs>
      <g style="fill:#262626;" transform="translate(340.956449 405.127031)rotate(-90)scale(0.11 -0.11)">
       <use xlink:href="#DejaVuSans-87"/>
       <use x="93.001953" xlink:href="#DejaVuSans-101"/>
       <use x="154.525391" xlink:href="#DejaVuSans-108"/>
       <use x="182.308594" xlink:href="#DejaVuSans-108"/>
       <use x="210.091797" xlink:href="#DejaVuSans-70"/>
      </g>
     </g>
    </g>
    <g id="xtick_10">
     <g id="line2d_10">
      <path clip-path="url(#p48b2b4798e)" d="M 372.960682 366.19 
L 372.960682 27.96 
" style="fill:none;stroke:#ffffff;stroke-linecap:round;"/>
     </g>
     <g id="text_10">
      <!-- WellG -->
      <defs>
       <path d="M 59.515625 10.40625 
L 59.515625 29.984375 
L 43.40625 29.984375 
L 43.40625 38.09375 
L 69.28125 38.09375 
L 69.28125 6.78125 
Q 63.578125 2.734375 56.6875 0.65625 
Q 49.8125 -1.421875 42 -1.421875 
Q 24.90625 -1.421875 15.25 8.5625 
Q 5.609375 18.5625 5.609375 36.375 
Q 5.609375 54.25 15.25 64.234375 
Q 24.90625 74.21875 42 74.21875 
Q 49.125 74.21875 55.546875 72.453125 
Q 61.96875 70.703125 67.390625 67.28125 
L 67.390625 56.78125 
Q 61.921875 61.421875 55.765625 63.765625 
Q 49.609375 66.109375 42.828125 66.109375 
Q 29.4375 66.109375 22.71875 58.640625 
Q 16.015625 51.171875 16.015625 36.375 
Q 16.015625 21.625 22.71875 14.15625 
Q 29.4375 6.6875 42.828125 6.6875 
Q 48.046875 6.6875 52.140625 7.59375 
Q 56.25 8.5 59.515625 10.40625 
z
" id="DejaVuSans-71"/>
      </defs>
      <g style="fill:#262626;" transform="translate(375.995994 407.323594)rotate(-90)scale(0.11 -0.11)">
       <use xlink:href="#DejaVuSans-87"/>
       <use x="93.001953" xlink:href="#DejaVuSans-101"/>
       <use x="154.525391" xlink:href="#DejaVuSans-108"/>
       <use x="182.308594" xlink:href="#DejaVuSans-108"/>
       <use x="210.091797" xlink:href="#DejaVuSans-71"/>
      </g>
     </g>
    </g>
    <g id="xtick_11">
     <g id="line2d_11">
      <path clip-path="url(#p48b2b4798e)" d="M 408.000227 366.19 
L 408.000227 27.96 
" style="fill:none;stroke:#ffffff;stroke-linecap:round;"/>
     </g>
     <g id="text_11">
      <!-- WellH -->
      <defs>
       <path d="M 9.8125 72.90625 
L 19.671875 72.90625 
L 19.671875 43.015625 
L 55.515625 43.015625 
L 55.515625 72.90625 
L 65.375 72.90625 
L 65.375 0 
L 55.515625 0 
L 55.515625 34.71875 
L 19.671875 34.71875 
L 19.671875 0 
L 9.8125 0 
z
" id="DejaVuSans-72"/>
      </defs>
      <g style="fill:#262626;" transform="translate(411.03554 407.072656)rotate(-90)scale(0.11 -0.11)">
       <use xlink:href="#DejaVuSans-87"/>
       <use x="93.001953" xlink:href="#DejaVuSans-101"/>
       <use x="154.525391" xlink:href="#DejaVuSans-108"/>
       <use x="182.308594" xlink:href="#DejaVuSans-108"/>
       <use x="210.091797" xlink:href="#DejaVuSans-72"/>
      </g>
     </g>
    </g>
   </g>
   <g id="matplotlib.axis_2">
    <g id="ytick_1">
     <g id="line2d_12">
      <path clip-path="url(#p48b2b4798e)" d="M 40.085 366.19 
L 425.52 366.19 
" style="fill:none;stroke:#ffffff;stroke-linecap:round;"/>
     </g>
     <g id="text_12">
      <!-- 0.0 -->
      <defs>
       <path d="M 31.78125 66.40625 
Q 24.171875 66.40625 20.328125 58.90625 
Q 16.5 51.421875 16.5 36.375 
Q 16.5 21.390625 20.328125 13.890625 
Q 24.171875 6.390625 31.78125 6.390625 
Q 39.453125 6.390625 43.28125 13.890625 
Q 47.125 21.390625 47.125 36.375 
Q 47.125 51.421875 43.28125 58.90625 
Q 39.453125 66.40625 31.78125 66.40625 
z
M 31.78125 74.21875 
Q 44.046875 74.21875 50.515625 64.515625 
Q 56.984375 54.828125 56.984375 36.375 
Q 56.984375 17.96875 50.515625 8.265625 
Q 44.046875 -1.421875 31.78125 -1.421875 
Q 19.53125 -1.421875 13.0625 8.265625 
Q 6.59375 17.96875 6.59375 36.375 
Q 6.59375 54.828125 13.0625 64.515625 
Q 19.53125 74.21875 31.78125 74.21875 
z
" id="DejaVuSans-48"/>
       <path d="M 10.6875 12.40625 
L 21 12.40625 
L 21 0 
L 10.6875 0 
z
" id="DejaVuSans-46"/>
      </defs>
      <g style="fill:#262626;" transform="translate(13.091563 370.369141)scale(0.11 -0.11)">
       <use xlink:href="#DejaVuSans-48"/>
       <use x="63.623047" xlink:href="#DejaVuSans-46"/>
       <use x="95.410156" xlink:href="#DejaVuSans-48"/>
      </g>
     </g>
    </g>
    <g id="ytick_2">
     <g id="line2d_13">
      <path clip-path="url(#p48b2b4798e)" d="M 40.085 302.02191 
L 425.52 302.02191 
" style="fill:none;stroke:#ffffff;stroke-linecap:round;"/>
     </g>
     <g id="text_13">
      <!-- 0.2 -->
      <g style="fill:#262626;" transform="translate(13.091563 306.201051)scale(0.11 -0.11)">
       <use xlink:href="#DejaVuSans-48"/>
       <use x="63.623047" xlink:href="#DejaVuSans-46"/>
       <use x="95.410156" xlink:href="#DejaVuSans-50"/>
      </g>
     </g>
    </g>
    <g id="ytick_3">
     <g id="line2d_14">
      <path clip-path="url(#p48b2b4798e)" d="M 40.085 237.853821 
L 425.52 237.853821 
" style="fill:none;stroke:#ffffff;stroke-linecap:round;"/>
     </g>
     <g id="text_14">
      <!-- 0.4 -->
      <defs>
       <path d="M 37.796875 64.3125 
L 12.890625 25.390625 
L 37.796875 25.390625 
z
M 35.203125 72.90625 
L 47.609375 72.90625 
L 47.609375 25.390625 
L 58.015625 25.390625 
L 58.015625 17.1875 
L 47.609375 17.1875 
L 47.609375 0 
L 37.796875 0 
L 37.796875 17.1875 
L 4.890625 17.1875 
L 4.890625 26.703125 
z
" id="DejaVuSans-52"/>
      </defs>
      <g style="fill:#262626;" transform="translate(13.091563 242.032962)scale(0.11 -0.11)">
       <use xlink:href="#DejaVuSans-48"/>
       <use x="63.623047" xlink:href="#DejaVuSans-46"/>
       <use x="95.410156" xlink:href="#DejaVuSans-52"/>
      </g>
     </g>
    </g>
    <g id="ytick_4">
     <g id="line2d_15">
      <path clip-path="url(#p48b2b4798e)" d="M 40.085 173.685731 
L 425.52 173.685731 
" style="fill:none;stroke:#ffffff;stroke-linecap:round;"/>
     </g>
     <g id="text_15">
      <!-- 0.6 -->
      <defs>
       <path d="M 33.015625 40.375 
Q 26.375 40.375 22.484375 35.828125 
Q 18.609375 31.296875 18.609375 23.390625 
Q 18.609375 15.53125 22.484375 10.953125 
Q 26.375 6.390625 33.015625 6.390625 
Q 39.65625 6.390625 43.53125 10.953125 
Q 47.40625 15.53125 47.40625 23.390625 
Q 47.40625 31.296875 43.53125 35.828125 
Q 39.65625 40.375 33.015625 40.375 
z
M 52.59375 71.296875 
L 52.59375 62.3125 
Q 48.875 64.0625 45.09375 64.984375 
Q 41.3125 65.921875 37.59375 65.921875 
Q 27.828125 65.921875 22.671875 59.328125 
Q 17.53125 52.734375 16.796875 39.40625 
Q 19.671875 43.65625 24.015625 45.921875 
Q 28.375 48.1875 33.59375 48.1875 
Q 44.578125 48.1875 50.953125 41.515625 
Q 57.328125 34.859375 57.328125 23.390625 
Q 57.328125 12.15625 50.6875 5.359375 
Q 44.046875 -1.421875 33.015625 -1.421875 
Q 20.359375 -1.421875 13.671875 8.265625 
Q 6.984375 17.96875 6.984375 36.375 
Q 6.984375 53.65625 15.1875 63.9375 
Q 23.390625 74.21875 37.203125 74.21875 
Q 40.921875 74.21875 44.703125 73.484375 
Q 48.484375 72.75 52.59375 71.296875 
z
" id="DejaVuSans-54"/>
      </defs>
      <g style="fill:#262626;" transform="translate(13.091563 177.864872)scale(0.11 -0.11)">
       <use xlink:href="#DejaVuSans-48"/>
       <use x="63.623047" xlink:href="#DejaVuSans-46"/>
       <use x="95.410156" xlink:href="#DejaVuSans-54"/>
      </g>
     </g>
    </g>
    <g id="ytick_5">
     <g id="line2d_16">
      <path clip-path="url(#p48b2b4798e)" d="M 40.085 109.517642 
L 425.52 109.517642 
" style="fill:none;stroke:#ffffff;stroke-linecap:round;"/>
     </g>
     <g id="text_16">
      <!-- 0.8 -->
      <defs>
       <path d="M 31.78125 34.625 
Q 24.75 34.625 20.71875 30.859375 
Q 16.703125 27.09375 16.703125 20.515625 
Q 16.703125 13.921875 20.71875 10.15625 
Q 24.75 6.390625 31.78125 6.390625 
Q 38.8125 6.390625 42.859375 10.171875 
Q 46.921875 13.96875 46.921875 20.515625 
Q 46.921875 27.09375 42.890625 30.859375 
Q 38.875 34.625 31.78125 34.625 
z
M 21.921875 38.8125 
Q 15.578125 40.375 12.03125 44.71875 
Q 8.5 49.078125 8.5 55.328125 
Q 8.5 64.0625 14.71875 69.140625 
Q 20.953125 74.21875 31.78125 74.21875 
Q 42.671875 74.21875 48.875 69.140625 
Q 55.078125 64.0625 55.078125 55.328125 
Q 55.078125 49.078125 51.53125 44.71875 
Q 48 40.375 41.703125 38.8125 
Q 48.828125 37.15625 52.796875 32.3125 
Q 56.78125 27.484375 56.78125 20.515625 
Q 56.78125 9.90625 50.3125 4.234375 
Q 43.84375 -1.421875 31.78125 -1.421875 
Q 19.734375 -1.421875 13.25 4.234375 
Q 6.78125 9.90625 6.78125 20.515625 
Q 6.78125 27.484375 10.78125 32.3125 
Q 14.796875 37.15625 21.921875 38.8125 
z
M 18.3125 54.390625 
Q 18.3125 48.734375 21.84375 45.5625 
Q 25.390625 42.390625 31.78125 42.390625 
Q 38.140625 42.390625 41.71875 45.5625 
Q 45.3125 48.734375 45.3125 54.390625 
Q 45.3125 60.0625 41.71875 63.234375 
Q 38.140625 66.40625 31.78125 66.40625 
Q 25.390625 66.40625 21.84375 63.234375 
Q 18.3125 60.0625 18.3125 54.390625 
z
" id="DejaVuSans-56"/>
      </defs>
      <g style="fill:#262626;" transform="translate(13.091563 113.696782)scale(0.11 -0.11)">
       <use xlink:href="#DejaVuSans-48"/>
       <use x="63.623047" xlink:href="#DejaVuSans-46"/>
       <use x="95.410156" xlink:href="#DejaVuSans-56"/>
      </g>
     </g>
    </g>
    <g id="ytick_6">
     <g id="line2d_17">
      <path clip-path="url(#p48b2b4798e)" d="M 40.085 45.349552 
L 425.52 45.349552 
" style="fill:none;stroke:#ffffff;stroke-linecap:round;"/>
     </g>
     <g id="text_17">
      <!-- 1.0 -->
      <g style="fill:#262626;" transform="translate(13.091563 49.528693)scale(0.11 -0.11)">
       <use xlink:href="#DejaVuSans-49"/>
       <use x="63.623047" xlink:href="#DejaVuSans-46"/>
       <use x="95.410156" xlink:href="#DejaVuSans-48"/>
      </g>
     </g>
    </g>
   </g>
   <g id="patch_3">
    <path clip-path="url(#p48b2b4798e)" d="M 48.844886 366.19 
L 66.364659 366.19 
L 66.364659 61.070734 
L 48.844886 61.070734 
z
" style="fill:#66c2a5;stroke:#ffffff;stroke-linejoin:miter;"/>
   </g>
   <g id="patch_4">
    <path clip-path="url(#p48b2b4798e)" d="M 83.884432 366.19 
L 101.404205 366.19 
L 101.404205 47.723772 
L 83.884432 47.723772 
z
" style="fill:#66c2a5;stroke:#ffffff;stroke-linejoin:miter;"/>
   </g>
   <g id="patch_5">
    <path clip-path="url(#p48b2b4798e)" d="M 118.923977 366.19 
L 136.44375 366.19 
L 136.44375 47.94836 
L 118.923977 47.94836 
z
" style="fill:#66c2a5;stroke:#ffffff;stroke-linejoin:miter;"/>
   </g>
   <g id="patch_6">
    <path clip-path="url(#p48b2b4798e)" d="M 153.963523 366.19 
L 171.483295 366.19 
L 171.483295 99.764092 
L 153.963523 99.764092 
z
" style="fill:#66c2a5;stroke:#ffffff;stroke-linejoin:miter;"/>
   </g>
   <g id="patch_7">
    <path clip-path="url(#p48b2b4798e)" d="M 189.003068 366.19 
L 206.522841 366.19 
L 206.522841 58.18317 
L 189.003068 58.18317 
z
" style="fill:#66c2a5;stroke:#ffffff;stroke-linejoin:miter;"/>
   </g>
   <g id="patch_8">
    <path clip-path="url(#p48b2b4798e)" d="M 224.042614 366.19 
L 241.562386 366.19 
L 241.562386 54.333085 
L 224.042614 54.333085 
z
" style="fill:#66c2a5;stroke:#ffffff;stroke-linejoin:miter;"/>
   </g>
   <g id="patch_9">
    <path clip-path="url(#p48b2b4798e)" d="M 259.082159 366.19 
L 276.601932 366.19 
L 276.601932 223.319749 
L 259.082159 223.319749 
z
" style="fill:#66c2a5;stroke:#ffffff;stroke-linejoin:miter;"/>
   </g>
   <g id="patch_10">
    <path clip-path="url(#p48b2b4798e)" d="M 294.121705 366.19 
L 311.641477 366.19 
L 311.641477 47.082091 
L 294.121705 47.082091 
z
" style="fill:#66c2a5;stroke:#ffffff;stroke-linejoin:miter;"/>
   </g>
   <g id="patch_11">
    <path clip-path="url(#p48b2b4798e)" d="M 329.16125 366.19 
L 346.681023 366.19 
L 346.681023 62.354096 
L 329.16125 62.354096 
z
" style="fill:#66c2a5;stroke:#ffffff;stroke-linejoin:miter;"/>
   </g>
   <g id="patch_12">
    <path clip-path="url(#p48b2b4798e)" d="M 364.200795 366.19 
L 381.720568 366.19 
L 381.720568 63.637458 
L 364.200795 63.637458 
z
" style="fill:#66c2a5;stroke:#ffffff;stroke-linejoin:miter;"/>
   </g>
   <g id="patch_13">
    <path clip-path="url(#p48b2b4798e)" d="M 399.240341 366.19 
L 416.760114 366.19 
L 416.760114 49.392142 
L 399.240341 49.392142 
z
" style="fill:#66c2a5;stroke:#ffffff;stroke-linejoin:miter;"/>
   </g>
   <g id="patch_14">
    <path clip-path="url(#p48b2b4798e)" d="M 48.844886 61.070734 
L 66.364659 61.070734 
L 66.364659 61.006566 
L 48.844886 61.006566 
z
" style="fill:#fc8d62;stroke:#ffffff;stroke-linejoin:miter;"/>
   </g>
   <g id="patch_15">
    <path clip-path="url(#p48b2b4798e)" d="M 83.884432 47.723772 
L 101.404205 47.723772 
L 101.404205 47.306679 
L 83.884432 47.306679 
z
" style="fill:#fc8d62;stroke:#ffffff;stroke-linejoin:miter;"/>
   </g>
   <g id="patch_16">
    <path clip-path="url(#p48b2b4798e)" d="M 118.923977 47.94836 
L 136.44375 47.94836 
L 136.44375 47.916276 
L 118.923977 47.916276 
z
" style="fill:#fc8d62;stroke:#ffffff;stroke-linejoin:miter;"/>
   </g>
   <g id="patch_17">
    <path clip-path="url(#p48b2b4798e)" d="M 153.963523 99.764092 
L 171.483295 99.764092 
L 171.483295 98.641151 
L 153.963523 98.641151 
z
" style="fill:#fc8d62;stroke:#ffffff;stroke-linejoin:miter;"/>
   </g>
   <g id="patch_18">
    <path clip-path="url(#p48b2b4798e)" d="M 189.003068 58.18317 
L 206.522841 58.18317 
L 206.522841 58.119002 
L 189.003068 58.119002 
z
" style="fill:#fc8d62;stroke:#ffffff;stroke-linejoin:miter;"/>
   </g>
   <g id="patch_19">
    <path clip-path="url(#p48b2b4798e)" d="M 224.042614 54.333085 
L 241.562386 54.333085 
L 241.562386 54.301001 
L 224.042614 54.301001 
z
" style="fill:#fc8d62;stroke:#ffffff;stroke-linejoin:miter;"/>
   </g>
   <g id="patch_20">
    <path clip-path="url(#p48b2b4798e)" d="M 259.082159 223.319749 
L 276.601932 223.319749 
L 276.601932 223.255581 
L 259.082159 223.255581 
z
" style="fill:#fc8d62;stroke:#ffffff;stroke-linejoin:miter;"/>
   </g>
   <g id="patch_21">
    <path clip-path="url(#p48b2b4798e)" d="M 294.121705 366.19 
L 311.641477 366.19 
L 311.641477 366.19 
L 294.121705 366.19 
z
" style="fill:#fc8d62;stroke:#ffffff;stroke-linejoin:miter;"/>
   </g>
   <g id="patch_22">
    <path clip-path="url(#p48b2b4798e)" d="M 329.16125 62.354096 
L 346.681023 62.354096 
L 346.681023 45.734561 
L 329.16125 45.734561 
z
" style="fill:#fc8d62;stroke:#ffffff;stroke-linejoin:miter;"/>
   </g>
   <g id="patch_23">
    <path clip-path="url(#p48b2b4798e)" d="M 364.200795 63.637458 
L 381.720568 63.637458 
L 381.720568 63.477038 
L 364.200795 63.477038 
z
" style="fill:#fc8d62;stroke:#ffffff;stroke-linejoin:miter;"/>
   </g>
   <g id="patch_24">
    <path clip-path="url(#p48b2b4798e)" d="M 399.240341 49.392142 
L 416.760114 49.392142 
L 416.760114 48.237116 
L 399.240341 48.237116 
z
" style="fill:#fc8d62;stroke:#ffffff;stroke-linejoin:miter;"/>
   </g>
   <g id="patch_25">
    <path clip-path="url(#p48b2b4798e)" d="M 48.844886 61.006566 
L 66.364659 61.006566 
L 66.364659 47.78794 
L 48.844886 47.78794 
z
" style="fill:#8da0cb;stroke:#ffffff;stroke-linejoin:miter;"/>
   </g>
   <g id="patch_26">
    <path clip-path="url(#p48b2b4798e)" d="M 83.884432 47.306679 
L 101.404205 47.306679 
L 101.404205 46.889586 
L 83.884432 46.889586 
z
" style="fill:#8da0cb;stroke:#ffffff;stroke-linejoin:miter;"/>
   </g>
   <g id="patch_27">
    <path clip-path="url(#p48b2b4798e)" d="M 118.923977 47.916276 
L 136.44375 47.916276 
L 136.44375 47.531267 
L 118.923977 47.531267 
z
" style="fill:#8da0cb;stroke:#ffffff;stroke-linejoin:miter;"/>
   </g>
   <g id="patch_28">
    <path clip-path="url(#p48b2b4798e)" d="M 153.963523 98.641151 
L 171.483295 98.641151 
L 171.483295 48.654209 
L 153.963523 48.654209 
z
" style="fill:#8da0cb;stroke:#ffffff;stroke-linejoin:miter;"/>
   </g>
   <g id="patch_29">
    <path clip-path="url(#p48b2b4798e)" d="M 189.003068 58.119002 
L 206.522841 58.119002 
L 206.522841 57.445237 
L 189.003068 57.445237 
z
" style="fill:#8da0cb;stroke:#ffffff;stroke-linejoin:miter;"/>
   </g>
   <g id="patch_30">
    <path clip-path="url(#p48b2b4798e)" d="M 224.042614 54.301001 
L 241.562386 54.301001 
L 241.562386 54.108496 
L 224.042614 54.108496 
z
" style="fill:#8da0cb;stroke:#ffffff;stroke-linejoin:miter;"/>
   </g>
   <g id="patch_31">
    <path clip-path="url(#p48b2b4798e)" d="M 259.082159 223.255581 
L 276.601932 223.255581 
L 276.601932 47.370847 
L 259.082159 47.370847 
z
" style="fill:#8da0cb;stroke:#ffffff;stroke-linejoin:miter;"/>
   </g>
   <g id="patch_32">
    <path clip-path="url(#p48b2b4798e)" d="M 294.121705 366.19 
L 311.641477 366.19 
L 311.641477 366.19 
L 294.121705 366.19 
z
" style="fill:#8da0cb;stroke:#ffffff;stroke-linejoin:miter;"/>
   </g>
   <g id="patch_33">
    <path clip-path="url(#p48b2b4798e)" d="M 329.16125 45.734561 
L 346.681023 45.734561 
L 346.681023 45.702477 
L 329.16125 45.702477 
z
" style="fill:#8da0cb;stroke:#ffffff;stroke-linejoin:miter;"/>
   </g>
   <g id="patch_34">
    <path clip-path="url(#p48b2b4798e)" d="M 364.200795 366.19 
L 381.720568 366.19 
L 381.720568 366.19 
L 364.200795 366.19 
z
" style="fill:#8da0cb;stroke:#ffffff;stroke-linejoin:miter;"/>
   </g>
   <g id="patch_35">
    <path clip-path="url(#p48b2b4798e)" d="M 399.240341 48.237116 
L 416.760114 48.237116 
L 416.760114 48.10878 
L 399.240341 48.10878 
z
" style="fill:#8da0cb;stroke:#ffffff;stroke-linejoin:miter;"/>
   </g>
   <g id="patch_36">
    <path clip-path="url(#p48b2b4798e)" d="M 48.844886 366.19 
L 66.364659 366.19 
L 66.364659 366.19 
L 48.844886 366.19 
z
" style="fill:#e78ac3;stroke:#ffffff;stroke-linejoin:miter;"/>
   </g>
   <g id="patch_37">
    <path clip-path="url(#p48b2b4798e)" d="M 83.884432 46.889586 
L 101.404205 46.889586 
L 101.404205 46.857502 
L 83.884432 46.857502 
z
" style="fill:#e78ac3;stroke:#ffffff;stroke-linejoin:miter;"/>
   </g>
   <g id="patch_38">
    <path clip-path="url(#p48b2b4798e)" d="M 118.923977 47.531267 
L 136.44375 47.531267 
L 136.44375 47.306679 
L 118.923977 47.306679 
z
" style="fill:#e78ac3;stroke:#ffffff;stroke-linejoin:miter;"/>
   </g>
   <g id="patch_39">
    <path clip-path="url(#p48b2b4798e)" d="M 153.963523 366.19 
L 171.483295 366.19 
L 171.483295 366.19 
L 153.963523 366.19 
z
" style="fill:#e78ac3;stroke:#ffffff;stroke-linejoin:miter;"/>
   </g>
   <g id="patch_40">
    <path clip-path="url(#p48b2b4798e)" d="M 189.003068 366.19 
L 206.522841 366.19 
L 206.522841 366.19 
L 189.003068 366.19 
z
" style="fill:#e78ac3;stroke:#ffffff;stroke-linejoin:miter;"/>
   </g>
   <g id="patch_41">
    <path clip-path="url(#p48b2b4798e)" d="M 224.042614 54.108496 
L 241.562386 54.108496 
L 241.562386 50.001739 
L 224.042614 50.001739 
z
" style="fill:#e78ac3;stroke:#ffffff;stroke-linejoin:miter;"/>
   </g>
   <g id="patch_42">
    <path clip-path="url(#p48b2b4798e)" d="M 259.082159 366.19 
L 276.601932 366.19 
L 276.601932 366.19 
L 259.082159 366.19 
z
" style="fill:#e78ac3;stroke:#ffffff;stroke-linejoin:miter;"/>
   </g>
   <g id="patch_43">
    <path clip-path="url(#p48b2b4798e)" d="M 294.121705 47.082091 
L 311.641477 47.082091 
L 311.641477 46.729166 
L 294.121705 46.729166 
z
" style="fill:#e78ac3;stroke:#ffffff;stroke-linejoin:miter;"/>
   </g>
   <g id="patch_44">
    <path clip-path="url(#p48b2b4798e)" d="M 329.16125 366.19 
L 346.681023 366.19 
L 346.681023 366.19 
L 329.16125 366.19 
z
" style="fill:#e78ac3;stroke:#ffffff;stroke-linejoin:miter;"/>
   </g>
   <g id="patch_45">
    <path clip-path="url(#p48b2b4798e)" d="M 364.200795 63.477038 
L 381.720568 63.477038 
L 381.720568 56.386464 
L 364.200795 56.386464 
z
" style="fill:#e78ac3;stroke:#ffffff;stroke-linejoin:miter;"/>
   </g>
   <g id="patch_46">
    <path clip-path="url(#p48b2b4798e)" d="M 399.240341 48.10878 
L 416.760114 48.10878 
L 416.760114 46.568746 
L 399.240341 46.568746 
z
" style="fill:#e78ac3;stroke:#ffffff;stroke-linejoin:miter;"/>
   </g>
   <g id="patch_47">
    <path clip-path="url(#p48b2b4798e)" d="M 48.844886 366.19 
L 66.364659 366.19 
L 66.364659 366.19 
L 48.844886 366.19 
z
" style="fill:#a6d854;stroke:#ffffff;stroke-linejoin:miter;"/>
   </g>
   <g id="patch_48">
    <path clip-path="url(#p48b2b4798e)" d="M 83.884432 46.857502 
L 101.404205 46.857502 
L 101.404205 46.183737 
L 83.884432 46.183737 
z
" style="fill:#a6d854;stroke:#ffffff;stroke-linejoin:miter;"/>
   </g>
   <g id="patch_49">
    <path clip-path="url(#p48b2b4798e)" d="M 118.923977 47.306679 
L 136.44375 47.306679 
L 136.44375 47.274595 
L 118.923977 47.274595 
z
" style="fill:#a6d854;stroke:#ffffff;stroke-linejoin:miter;"/>
   </g>
   <g id="patch_50">
    <path clip-path="url(#p48b2b4798e)" d="M 153.963523 48.654209 
L 171.483295 48.654209 
L 171.483295 48.590041 
L 153.963523 48.590041 
z
" style="fill:#a6d854;stroke:#ffffff;stroke-linejoin:miter;"/>
   </g>
   <g id="patch_51">
    <path clip-path="url(#p48b2b4798e)" d="M 189.003068 366.19 
L 206.522841 366.19 
L 206.522841 366.19 
L 189.003068 366.19 
z
" style="fill:#a6d854;stroke:#ffffff;stroke-linejoin:miter;"/>
   </g>
   <g id="patch_52">
    <path clip-path="url(#p48b2b4798e)" d="M 224.042614 50.001739 
L 241.562386 50.001739 
L 241.562386 49.873403 
L 224.042614 49.873403 
z
" style="fill:#a6d854;stroke:#ffffff;stroke-linejoin:miter;"/>
   </g>
   <g id="patch_53">
    <path clip-path="url(#p48b2b4798e)" d="M 259.082159 366.19 
L 276.601932 366.19 
L 276.601932 366.19 
L 259.082159 366.19 
z
" style="fill:#a6d854;stroke:#ffffff;stroke-linejoin:miter;"/>
   </g>
   <g id="patch_54">
    <path clip-path="url(#p48b2b4798e)" d="M 294.121705 46.729166 
L 311.641477 46.729166 
L 311.641477 46.504578 
L 294.121705 46.504578 
z
" style="fill:#a6d854;stroke:#ffffff;stroke-linejoin:miter;"/>
   </g>
   <g id="patch_55">
    <path clip-path="url(#p48b2b4798e)" d="M 329.16125 45.702477 
L 346.681023 45.702477 
L 346.681023 45.542057 
L 329.16125 45.542057 
z
" style="fill:#a6d854;stroke:#ffffff;stroke-linejoin:miter;"/>
   </g>
   <g id="patch_56">
    <path clip-path="url(#p48b2b4798e)" d="M 364.200795 56.386464 
L 381.720568 56.386464 
L 381.720568 47.274595 
L 364.200795 47.274595 
z
" style="fill:#a6d854;stroke:#ffffff;stroke-linejoin:miter;"/>
   </g>
   <g id="patch_57">
    <path clip-path="url(#p48b2b4798e)" d="M 399.240341 46.568746 
L 416.760114 46.568746 
L 416.760114 46.44041 
L 399.240341 46.44041 
z
" style="fill:#a6d854;stroke:#ffffff;stroke-linejoin:miter;"/>
   </g>
   <g id="patch_58">
    <path clip-path="url(#p48b2b4798e)" d="M 48.844886 47.78794 
L 66.364659 47.78794 
L 66.364659 44.579535 
L 48.844886 44.579535 
z
" style="fill:#ffd92f;stroke:#ffffff;stroke-linejoin:miter;"/>
   </g>
   <g id="patch_59">
    <path clip-path="url(#p48b2b4798e)" d="M 83.884432 366.19 
L 101.404205 366.19 
L 101.404205 366.19 
L 83.884432 366.19 
z
" style="fill:#ffd92f;stroke:#ffffff;stroke-linejoin:miter;"/>
   </g>
   <g id="patch_60">
    <path clip-path="url(#p48b2b4798e)" d="M 118.923977 47.274595 
L 136.44375 47.274595 
L 136.44375 44.06619 
L 118.923977 44.06619 
z
" style="fill:#ffd92f;stroke:#ffffff;stroke-linejoin:miter;"/>
   </g>
   <g id="patch_61">
    <path clip-path="url(#p48b2b4798e)" d="M 153.963523 48.590041 
L 171.483295 48.590041 
L 171.483295 45.381636 
L 153.963523 45.381636 
z
" style="fill:#ffd92f;stroke:#ffffff;stroke-linejoin:miter;"/>
   </g>
   <g id="patch_62">
    <path clip-path="url(#p48b2b4798e)" d="M 189.003068 57.445237 
L 206.522841 57.445237 
L 206.522841 44.611619 
L 189.003068 44.611619 
z
" style="fill:#ffd92f;stroke:#ffffff;stroke-linejoin:miter;"/>
   </g>
   <g id="patch_63">
    <path clip-path="url(#p48b2b4798e)" d="M 224.042614 49.873403 
L 241.562386 49.873403 
L 241.562386 46.664998 
L 224.042614 46.664998 
z
" style="fill:#ffd92f;stroke:#ffffff;stroke-linejoin:miter;"/>
   </g>
   <g id="patch_64">
    <path clip-path="url(#p48b2b4798e)" d="M 259.082159 47.370847 
L 276.601932 47.370847 
L 276.601932 44.162443 
L 259.082159 44.162443 
z
" style="fill:#ffd92f;stroke:#ffffff;stroke-linejoin:miter;"/>
   </g>
   <g id="patch_65">
    <path clip-path="url(#p48b2b4798e)" d="M 294.121705 366.19 
L 311.641477 366.19 
L 311.641477 366.19 
L 294.121705 366.19 
z
" style="fill:#ffd92f;stroke:#ffffff;stroke-linejoin:miter;"/>
   </g>
   <g id="patch_66">
    <path clip-path="url(#p48b2b4798e)" d="M 329.16125 366.19 
L 346.681023 366.19 
L 346.681023 366.19 
L 329.16125 366.19 
z
" style="fill:#ffd92f;stroke:#ffffff;stroke-linejoin:miter;"/>
   </g>
   <g id="patch_67">
    <path clip-path="url(#p48b2b4798e)" d="M 364.200795 47.274595 
L 381.720568 47.274595 
L 381.720568 44.06619 
L 364.200795 44.06619 
z
" style="fill:#ffd92f;stroke:#ffffff;stroke-linejoin:miter;"/>
   </g>
   <g id="patch_68">
    <path clip-path="url(#p48b2b4798e)" d="M 399.240341 366.19 
L 416.760114 366.19 
L 416.760114 366.19 
L 399.240341 366.19 
z
" style="fill:#ffd92f;stroke:#ffffff;stroke-linejoin:miter;"/>
   </g>
   <g id="patch_69">
    <path d="M 40.085 366.19 
L 40.085 27.96 
" style="fill:none;stroke:#ffffff;stroke-linecap:square;stroke-linejoin:miter;stroke-width:1.25;"/>
   </g>
   <g id="patch_70">
    <path d="M 425.52 366.19 
L 425.52 27.96 
" style="fill:none;stroke:#ffffff;stroke-linecap:square;stroke-linejoin:miter;stroke-width:1.25;"/>
   </g>
   <g id="patch_71">
    <path d="M 40.085 366.19 
L 425.52 366.19 
" style="fill:none;stroke:#ffffff;stroke-linecap:square;stroke-linejoin:miter;stroke-width:1.25;"/>
   </g>
   <g id="patch_72">
    <path d="M 40.085 27.96 
L 425.52 27.96 
" style="fill:none;stroke:#ffffff;stroke-linecap:square;stroke-linejoin:miter;stroke-width:1.25;"/>
   </g>
   <g id="text_18">
    <!-- ONN4MST Layer-5 -->
    <defs>
     <path d="M 39.40625 66.21875 
Q 28.65625 66.21875 22.328125 58.203125 
Q 16.015625 50.203125 16.015625 36.375 
Q 16.015625 22.609375 22.328125 14.59375 
Q 28.65625 6.59375 39.40625 6.59375 
Q 50.140625 6.59375 56.421875 14.59375 
Q 62.703125 22.609375 62.703125 36.375 
Q 62.703125 50.203125 56.421875 58.203125 
Q 50.140625 66.21875 39.40625 66.21875 
z
M 39.40625 74.21875 
Q 54.734375 74.21875 63.90625 63.9375 
Q 73.09375 53.65625 73.09375 36.375 
Q 73.09375 19.140625 63.90625 8.859375 
Q 54.734375 -1.421875 39.40625 -1.421875 
Q 24.03125 -1.421875 14.8125 8.828125 
Q 5.609375 19.09375 5.609375 36.375 
Q 5.609375 53.65625 14.8125 63.9375 
Q 24.03125 74.21875 39.40625 74.21875 
z
" id="DejaVuSans-79"/>
     <path d="M 9.8125 72.90625 
L 23.09375 72.90625 
L 55.421875 11.921875 
L 55.421875 72.90625 
L 64.984375 72.90625 
L 64.984375 0 
L 51.703125 0 
L 19.390625 60.984375 
L 19.390625 0 
L 9.8125 0 
z
" id="DejaVuSans-78"/>
     <path d="M 9.8125 72.90625 
L 24.515625 72.90625 
L 43.109375 23.296875 
L 61.8125 72.90625 
L 76.515625 72.90625 
L 76.515625 0 
L 66.890625 0 
L 66.890625 64.015625 
L 48.09375 14.015625 
L 38.1875 14.015625 
L 19.390625 64.015625 
L 19.390625 0 
L 9.8125 0 
z
" id="DejaVuSans-77"/>
     <path d="M 53.515625 70.515625 
L 53.515625 60.890625 
Q 47.90625 63.578125 42.921875 64.890625 
Q 37.9375 66.21875 33.296875 66.21875 
Q 25.25 66.21875 20.875 63.09375 
Q 16.5 59.96875 16.5 54.203125 
Q 16.5 49.359375 19.40625 46.890625 
Q 22.3125 44.4375 30.421875 42.921875 
L 36.375 41.703125 
Q 47.40625 39.59375 52.65625 34.296875 
Q 57.90625 29 57.90625 20.125 
Q 57.90625 9.515625 50.796875 4.046875 
Q 43.703125 -1.421875 29.984375 -1.421875 
Q 24.8125 -1.421875 18.96875 -0.25 
Q 13.140625 0.921875 6.890625 3.21875 
L 6.890625 13.375 
Q 12.890625 10.015625 18.65625 8.296875 
Q 24.421875 6.59375 29.984375 6.59375 
Q 38.421875 6.59375 43.015625 9.90625 
Q 47.609375 13.234375 47.609375 19.390625 
Q 47.609375 24.75 44.3125 27.78125 
Q 41.015625 30.8125 33.5 32.328125 
L 27.484375 33.5 
Q 16.453125 35.6875 11.515625 40.375 
Q 6.59375 45.0625 6.59375 53.421875 
Q 6.59375 63.09375 13.40625 68.65625 
Q 20.21875 74.21875 32.171875 74.21875 
Q 37.3125 74.21875 42.625 73.28125 
Q 47.953125 72.359375 53.515625 70.515625 
z
" id="DejaVuSans-83"/>
     <path d="M -0.296875 72.90625 
L 61.375 72.90625 
L 61.375 64.59375 
L 35.5 64.59375 
L 35.5 0 
L 25.59375 0 
L 25.59375 64.59375 
L -0.296875 64.59375 
z
" id="DejaVuSans-84"/>
     <path id="DejaVuSans-32"/>
     <path d="M 9.8125 72.90625 
L 19.671875 72.90625 
L 19.671875 8.296875 
L 55.171875 8.296875 
L 55.171875 0 
L 9.8125 0 
z
" id="DejaVuSans-76"/>
     <path d="M 34.28125 27.484375 
Q 23.390625 27.484375 19.1875 25 
Q 14.984375 22.515625 14.984375 16.5 
Q 14.984375 11.71875 18.140625 8.90625 
Q 21.296875 6.109375 26.703125 6.109375 
Q 34.1875 6.109375 38.703125 11.40625 
Q 43.21875 16.703125 43.21875 25.484375 
L 43.21875 27.484375 
z
M 52.203125 31.203125 
L 52.203125 0 
L 43.21875 0 
L 43.21875 8.296875 
Q 40.140625 3.328125 35.546875 0.953125 
Q 30.953125 -1.421875 24.3125 -1.421875 
Q 15.921875 -1.421875 10.953125 3.296875 
Q 6 8.015625 6 15.921875 
Q 6 25.140625 12.171875 29.828125 
Q 18.359375 34.515625 30.609375 34.515625 
L 43.21875 34.515625 
L 43.21875 35.40625 
Q 43.21875 41.609375 39.140625 45 
Q 35.0625 48.390625 27.6875 48.390625 
Q 23 48.390625 18.546875 47.265625 
Q 14.109375 46.140625 10.015625 43.890625 
L 10.015625 52.203125 
Q 14.9375 54.109375 19.578125 55.046875 
Q 24.21875 56 28.609375 56 
Q 40.484375 56 46.34375 49.84375 
Q 52.203125 43.703125 52.203125 31.203125 
z
" id="DejaVuSans-97"/>
     <path d="M 32.171875 -5.078125 
Q 28.375 -14.84375 24.75 -17.8125 
Q 21.140625 -20.796875 15.09375 -20.796875 
L 7.90625 -20.796875 
L 7.90625 -13.28125 
L 13.1875 -13.28125 
Q 16.890625 -13.28125 18.9375 -11.515625 
Q 21 -9.765625 23.484375 -3.21875 
L 25.09375 0.875 
L 2.984375 54.6875 
L 12.5 54.6875 
L 29.59375 11.921875 
L 46.6875 54.6875 
L 56.203125 54.6875 
z
" id="DejaVuSans-121"/>
     <path d="M 41.109375 46.296875 
Q 39.59375 47.171875 37.8125 47.578125 
Q 36.03125 48 33.890625 48 
Q 26.265625 48 22.1875 43.046875 
Q 18.109375 38.09375 18.109375 28.8125 
L 18.109375 0 
L 9.078125 0 
L 9.078125 54.6875 
L 18.109375 54.6875 
L 18.109375 46.1875 
Q 20.953125 51.171875 25.484375 53.578125 
Q 30.03125 56 36.53125 56 
Q 37.453125 56 38.578125 55.875 
Q 39.703125 55.765625 41.0625 55.515625 
z
" id="DejaVuSans-114"/>
     <path d="M 4.890625 31.390625 
L 31.203125 31.390625 
L 31.203125 23.390625 
L 4.890625 23.390625 
z
" id="DejaVuSans-45"/>
     <path d="M 10.796875 72.90625 
L 49.515625 72.90625 
L 49.515625 64.59375 
L 19.828125 64.59375 
L 19.828125 46.734375 
Q 21.96875 47.46875 24.109375 47.828125 
Q 26.265625 48.1875 28.421875 48.1875 
Q 40.625 48.1875 47.75 41.5 
Q 54.890625 34.8125 54.890625 23.390625 
Q 54.890625 11.625 47.5625 5.09375 
Q 40.234375 -1.421875 26.90625 -1.421875 
Q 22.3125 -1.421875 17.546875 -0.640625 
Q 12.796875 0.140625 7.71875 1.703125 
L 7.71875 11.625 
Q 12.109375 9.234375 16.796875 8.0625 
Q 21.484375 6.890625 26.703125 6.890625 
Q 35.15625 6.890625 40.078125 11.328125 
Q 45.015625 15.765625 45.015625 23.390625 
Q 45.015625 31 40.078125 35.4375 
Q 35.15625 39.890625 26.703125 39.890625 
Q 22.75 39.890625 18.8125 39.015625 
Q 14.890625 38.140625 10.796875 36.28125 
z
" id="DejaVuSans-53"/>
    </defs>
    <g style="fill:#262626;" transform="translate(178.3975 21.96)scale(0.12 -0.12)">
     <use xlink:href="#DejaVuSans-79"/>
     <use x="78.710938" xlink:href="#DejaVuSans-78"/>
     <use x="153.515625" xlink:href="#DejaVuSans-78"/>
     <use x="228.320312" xlink:href="#DejaVuSans-52"/>
     <use x="291.943359" xlink:href="#DejaVuSans-77"/>
     <use x="378.222656" xlink:href="#DejaVuSans-83"/>
     <use x="441.699219" xlink:href="#DejaVuSans-84"/>
     <use x="502.783203" xlink:href="#DejaVuSans-32"/>
     <use x="534.570312" xlink:href="#DejaVuSans-76"/>
     <use x="590.283203" xlink:href="#DejaVuSans-97"/>
     <use x="651.5625" xlink:href="#DejaVuSans-121"/>
     <use x="710.742188" xlink:href="#DejaVuSans-101"/>
     <use x="772.265625" xlink:href="#DejaVuSans-114"/>
     <use x="807.003906" xlink:href="#DejaVuSans-45"/>
     <use x="843.087891" xlink:href="#DejaVuSans-53"/>
    </g>
   </g>
   <g id="legend_1">
    <g id="patch_73">
     <path d="M 312.369062 361.44 
L 418.87 361.44 
Q 420.77 361.44 420.77 359.54 
L 420.77 276.824687 
Q 420.77 274.924688 418.87 274.924688 
L 312.369062 274.924688 
Q 310.469063 274.924688 310.469063 276.824687 
L 310.469063 359.54 
Q 310.469063 361.44 312.369062 361.44 
z
" style="fill:#eaeaf2;opacity:0.8;stroke:#cccccc;stroke-linejoin:miter;"/>
    </g>
    <g id="patch_74">
     <path d="M 314.269063 285.943203 
L 333.269063 285.943203 
L 333.269063 279.293203 
L 314.269063 279.293203 
z
" style="fill:#66c2a5;stroke:#ffffff;stroke-linejoin:miter;"/>
    </g>
    <g id="text_19">
     <!-- Unknown -->
     <defs>
      <path d="M 8.6875 72.90625 
L 18.609375 72.90625 
L 18.609375 28.609375 
Q 18.609375 16.890625 22.84375 11.734375 
Q 27.09375 6.59375 36.625 6.59375 
Q 46.09375 6.59375 50.34375 11.734375 
Q 54.59375 16.890625 54.59375 28.609375 
L 54.59375 72.90625 
L 64.5 72.90625 
L 64.5 27.390625 
Q 64.5 13.140625 57.4375 5.859375 
Q 50.390625 -1.421875 36.625 -1.421875 
Q 22.796875 -1.421875 15.734375 5.859375 
Q 8.6875 13.140625 8.6875 27.390625 
z
" id="DejaVuSans-85"/>
      <path d="M 54.890625 33.015625 
L 54.890625 0 
L 45.90625 0 
L 45.90625 32.71875 
Q 45.90625 40.484375 42.875 44.328125 
Q 39.84375 48.1875 33.796875 48.1875 
Q 26.515625 48.1875 22.3125 43.546875 
Q 18.109375 38.921875 18.109375 30.90625 
L 18.109375 0 
L 9.078125 0 
L 9.078125 54.6875 
L 18.109375 54.6875 
L 18.109375 46.1875 
Q 21.34375 51.125 25.703125 53.5625 
Q 30.078125 56 35.796875 56 
Q 45.21875 56 50.046875 50.171875 
Q 54.890625 44.34375 54.890625 33.015625 
z
" id="DejaVuSans-110"/>
      <path d="M 9.078125 75.984375 
L 18.109375 75.984375 
L 18.109375 31.109375 
L 44.921875 54.6875 
L 56.390625 54.6875 
L 27.390625 29.109375 
L 57.625 0 
L 45.90625 0 
L 18.109375 26.703125 
L 18.109375 0 
L 9.078125 0 
z
" id="DejaVuSans-107"/>
      <path d="M 30.609375 48.390625 
Q 23.390625 48.390625 19.1875 42.75 
Q 14.984375 37.109375 14.984375 27.296875 
Q 14.984375 17.484375 19.15625 11.84375 
Q 23.34375 6.203125 30.609375 6.203125 
Q 37.796875 6.203125 41.984375 11.859375 
Q 46.1875 17.53125 46.1875 27.296875 
Q 46.1875 37.015625 41.984375 42.703125 
Q 37.796875 48.390625 30.609375 48.390625 
z
M 30.609375 56 
Q 42.328125 56 49.015625 48.375 
Q 55.71875 40.765625 55.71875 27.296875 
Q 55.71875 13.875 49.015625 6.21875 
Q 42.328125 -1.421875 30.609375 -1.421875 
Q 18.84375 -1.421875 12.171875 6.21875 
Q 5.515625 13.875 5.515625 27.296875 
Q 5.515625 40.765625 12.171875 48.375 
Q 18.84375 56 30.609375 56 
z
" id="DejaVuSans-111"/>
      <path d="M 4.203125 54.6875 
L 13.1875 54.6875 
L 24.421875 12.015625 
L 35.59375 54.6875 
L 46.1875 54.6875 
L 57.421875 12.015625 
L 68.609375 54.6875 
L 77.59375 54.6875 
L 63.28125 0 
L 52.6875 0 
L 40.921875 44.828125 
L 29.109375 0 
L 18.5 0 
z
" id="DejaVuSans-119"/>
     </defs>
     <g style="fill:#262626;" transform="translate(340.869063 285.943203)scale(0.095 -0.095)">
      <use xlink:href="#DejaVuSans-85"/>
      <use x="73.193359" xlink:href="#DejaVuSans-110"/>
      <use x="136.572266" xlink:href="#DejaVuSans-107"/>
      <use x="194.482422" xlink:href="#DejaVuSans-110"/>
      <use x="257.861328" xlink:href="#DejaVuSans-111"/>
      <use x="319.042969" xlink:href="#DejaVuSans-119"/>
      <use x="400.830078" xlink:href="#DejaVuSans-110"/>
     </g>
    </g>
    <g id="patch_75">
     <path d="M 314.269063 299.887422 
L 333.269063 299.887422 
L 333.269063 293.237422 
L 314.269063 293.237422 
z
" style="fill:#fc8d62;stroke:#ffffff;stroke-linejoin:miter;"/>
    </g>
    <g id="text_20">
     <!-- Lake -->
     <g style="fill:#262626;" transform="translate(340.869063 299.887422)scale(0.095 -0.095)">
      <use xlink:href="#DejaVuSans-76"/>
      <use x="55.712891" xlink:href="#DejaVuSans-97"/>
      <use x="116.992188" xlink:href="#DejaVuSans-107"/>
      <use x="171.277344" xlink:href="#DejaVuSans-101"/>
     </g>
    </g>
    <g id="patch_76">
     <path d="M 314.269063 313.831641 
L 333.269063 313.831641 
L 333.269063 307.181641 
L 314.269063 307.181641 
z
" style="fill:#8da0cb;stroke:#ffffff;stroke-linejoin:miter;"/>
    </g>
    <g id="text_21">
     <!-- Oceanic -->
     <defs>
      <path d="M 48.78125 52.59375 
L 48.78125 44.1875 
Q 44.96875 46.296875 41.140625 47.34375 
Q 37.3125 48.390625 33.40625 48.390625 
Q 24.65625 48.390625 19.8125 42.84375 
Q 14.984375 37.3125 14.984375 27.296875 
Q 14.984375 17.28125 19.8125 11.734375 
Q 24.65625 6.203125 33.40625 6.203125 
Q 37.3125 6.203125 41.140625 7.25 
Q 44.96875 8.296875 48.78125 10.40625 
L 48.78125 2.09375 
Q 45.015625 0.34375 40.984375 -0.53125 
Q 36.96875 -1.421875 32.421875 -1.421875 
Q 20.0625 -1.421875 12.78125 6.34375 
Q 5.515625 14.109375 5.515625 27.296875 
Q 5.515625 40.671875 12.859375 48.328125 
Q 20.21875 56 33.015625 56 
Q 37.15625 56 41.109375 55.140625 
Q 45.0625 54.296875 48.78125 52.59375 
z
" id="DejaVuSans-99"/>
      <path d="M 9.421875 54.6875 
L 18.40625 54.6875 
L 18.40625 0 
L 9.421875 0 
z
M 9.421875 75.984375 
L 18.40625 75.984375 
L 18.40625 64.59375 
L 9.421875 64.59375 
z
" id="DejaVuSans-105"/>
     </defs>
     <g style="fill:#262626;" transform="translate(340.869063 313.831641)scale(0.095 -0.095)">
      <use xlink:href="#DejaVuSans-79"/>
      <use x="78.710938" xlink:href="#DejaVuSans-99"/>
      <use x="133.691406" xlink:href="#DejaVuSans-101"/>
      <use x="195.214844" xlink:href="#DejaVuSans-97"/>
      <use x="256.494141" xlink:href="#DejaVuSans-110"/>
      <use x="319.873047" xlink:href="#DejaVuSans-105"/>
      <use x="347.65625" xlink:href="#DejaVuSans-99"/>
     </g>
    </g>
    <g id="patch_77">
     <path d="M 314.269063 327.775859 
L 333.269063 327.775859 
L 333.269063 321.125859 
L 314.269063 321.125859 
z
" style="fill:#e78ac3;stroke:#ffffff;stroke-linejoin:miter;"/>
    </g>
    <g id="text_22">
     <!-- Alkaline -->
     <g style="fill:#262626;" transform="translate(340.869063 327.775859)scale(0.095 -0.095)">
      <use xlink:href="#DejaVuSans-65"/>
      <use x="68.408203" xlink:href="#DejaVuSans-108"/>
      <use x="96.191406" xlink:href="#DejaVuSans-107"/>
      <use x="152.351562" xlink:href="#DejaVuSans-97"/>
      <use x="213.630859" xlink:href="#DejaVuSans-108"/>
      <use x="241.414062" xlink:href="#DejaVuSans-105"/>
      <use x="269.197266" xlink:href="#DejaVuSans-110"/>
      <use x="332.576172" xlink:href="#DejaVuSans-101"/>
     </g>
    </g>
    <g id="patch_78">
     <path d="M 314.269063 341.720078 
L 333.269063 341.720078 
L 333.269063 335.070078 
L 314.269063 335.070078 
z
" style="fill:#a6d854;stroke:#ffffff;stroke-linejoin:miter;"/>
    </g>
    <g id="text_23">
     <!-- Permafrost(Soil) -->
     <defs>
      <path d="M 19.671875 64.796875 
L 19.671875 37.40625 
L 32.078125 37.40625 
Q 38.96875 37.40625 42.71875 40.96875 
Q 46.484375 44.53125 46.484375 51.125 
Q 46.484375 57.671875 42.71875 61.234375 
Q 38.96875 64.796875 32.078125 64.796875 
z
M 9.8125 72.90625 
L 32.078125 72.90625 
Q 44.34375 72.90625 50.609375 67.359375 
Q 56.890625 61.8125 56.890625 51.125 
Q 56.890625 40.328125 50.609375 34.8125 
Q 44.34375 29.296875 32.078125 29.296875 
L 19.671875 29.296875 
L 19.671875 0 
L 9.8125 0 
z
" id="DejaVuSans-80"/>
      <path d="M 52 44.1875 
Q 55.375 50.25 60.0625 53.125 
Q 64.75 56 71.09375 56 
Q 79.640625 56 84.28125 50.015625 
Q 88.921875 44.046875 88.921875 33.015625 
L 88.921875 0 
L 79.890625 0 
L 79.890625 32.71875 
Q 79.890625 40.578125 77.09375 44.375 
Q 74.3125 48.1875 68.609375 48.1875 
Q 61.625 48.1875 57.5625 43.546875 
Q 53.515625 38.921875 53.515625 30.90625 
L 53.515625 0 
L 44.484375 0 
L 44.484375 32.71875 
Q 44.484375 40.625 41.703125 44.40625 
Q 38.921875 48.1875 33.109375 48.1875 
Q 26.21875 48.1875 22.15625 43.53125 
Q 18.109375 38.875 18.109375 30.90625 
L 18.109375 0 
L 9.078125 0 
L 9.078125 54.6875 
L 18.109375 54.6875 
L 18.109375 46.1875 
Q 21.1875 51.21875 25.484375 53.609375 
Q 29.78125 56 35.6875 56 
Q 41.65625 56 45.828125 52.96875 
Q 50 49.953125 52 44.1875 
z
" id="DejaVuSans-109"/>
      <path d="M 37.109375 75.984375 
L 37.109375 68.5 
L 28.515625 68.5 
Q 23.6875 68.5 21.796875 66.546875 
Q 19.921875 64.59375 19.921875 59.515625 
L 19.921875 54.6875 
L 34.71875 54.6875 
L 34.71875 47.703125 
L 19.921875 47.703125 
L 19.921875 0 
L 10.890625 0 
L 10.890625 47.703125 
L 2.296875 47.703125 
L 2.296875 54.6875 
L 10.890625 54.6875 
L 10.890625 58.5 
Q 10.890625 67.625 15.140625 71.796875 
Q 19.390625 75.984375 28.609375 75.984375 
z
" id="DejaVuSans-102"/>
      <path d="M 44.28125 53.078125 
L 44.28125 44.578125 
Q 40.484375 46.53125 36.375 47.5 
Q 32.28125 48.484375 27.875 48.484375 
Q 21.1875 48.484375 17.84375 46.4375 
Q 14.5 44.390625 14.5 40.28125 
Q 14.5 37.15625 16.890625 35.375 
Q 19.28125 33.59375 26.515625 31.984375 
L 29.59375 31.296875 
Q 39.15625 29.25 43.1875 25.515625 
Q 47.21875 21.78125 47.21875 15.09375 
Q 47.21875 7.46875 41.1875 3.015625 
Q 35.15625 -1.421875 24.609375 -1.421875 
Q 20.21875 -1.421875 15.453125 -0.5625 
Q 10.6875 0.296875 5.421875 2 
L 5.421875 11.28125 
Q 10.40625 8.6875 15.234375 7.390625 
Q 20.0625 6.109375 24.8125 6.109375 
Q 31.15625 6.109375 34.5625 8.28125 
Q 37.984375 10.453125 37.984375 14.40625 
Q 37.984375 18.0625 35.515625 20.015625 
Q 33.0625 21.96875 24.703125 23.78125 
L 21.578125 24.515625 
Q 13.234375 26.265625 9.515625 29.90625 
Q 5.8125 33.546875 5.8125 39.890625 
Q 5.8125 47.609375 11.28125 51.796875 
Q 16.75 56 26.8125 56 
Q 31.78125 56 36.171875 55.265625 
Q 40.578125 54.546875 44.28125 53.078125 
z
" id="DejaVuSans-115"/>
      <path d="M 18.3125 70.21875 
L 18.3125 54.6875 
L 36.8125 54.6875 
L 36.8125 47.703125 
L 18.3125 47.703125 
L 18.3125 18.015625 
Q 18.3125 11.328125 20.140625 9.421875 
Q 21.96875 7.515625 27.59375 7.515625 
L 36.8125 7.515625 
L 36.8125 0 
L 27.59375 0 
Q 17.1875 0 13.234375 3.875 
Q 9.28125 7.765625 9.28125 18.015625 
L 9.28125 47.703125 
L 2.6875 47.703125 
L 2.6875 54.6875 
L 9.28125 54.6875 
L 9.28125 70.21875 
z
" id="DejaVuSans-116"/>
      <path d="M 31 75.875 
Q 24.46875 64.65625 21.28125 53.65625 
Q 18.109375 42.671875 18.109375 31.390625 
Q 18.109375 20.125 21.3125 9.0625 
Q 24.515625 -2 31 -13.1875 
L 23.1875 -13.1875 
Q 15.875 -1.703125 12.234375 9.375 
Q 8.59375 20.453125 8.59375 31.390625 
Q 8.59375 42.28125 12.203125 53.3125 
Q 15.828125 64.359375 23.1875 75.875 
z
" id="DejaVuSans-40"/>
      <path d="M 8.015625 75.875 
L 15.828125 75.875 
Q 23.140625 64.359375 26.78125 53.3125 
Q 30.421875 42.28125 30.421875 31.390625 
Q 30.421875 20.453125 26.78125 9.375 
Q 23.140625 -1.703125 15.828125 -13.1875 
L 8.015625 -13.1875 
Q 14.5 -2 17.703125 9.0625 
Q 20.90625 20.125 20.90625 31.390625 
Q 20.90625 42.671875 17.703125 53.65625 
Q 14.5 64.65625 8.015625 75.875 
z
" id="DejaVuSans-41"/>
     </defs>
     <g style="fill:#262626;" transform="translate(340.869063 341.720078)scale(0.095 -0.095)">
      <use xlink:href="#DejaVuSans-80"/>
      <use x="56.677734" xlink:href="#DejaVuSans-101"/>
      <use x="118.201172" xlink:href="#DejaVuSans-114"/>
      <use x="157.564453" xlink:href="#DejaVuSans-109"/>
      <use x="254.976562" xlink:href="#DejaVuSans-97"/>
      <use x="316.255859" xlink:href="#DejaVuSans-102"/>
      <use x="351.460938" xlink:href="#DejaVuSans-114"/>
      <use x="390.324219" xlink:href="#DejaVuSans-111"/>
      <use x="451.505859" xlink:href="#DejaVuSans-115"/>
      <use x="503.605469" xlink:href="#DejaVuSans-116"/>
      <use x="542.814453" xlink:href="#DejaVuSans-40"/>
      <use x="581.828125" xlink:href="#DejaVuSans-83"/>
      <use x="645.304688" xlink:href="#DejaVuSans-111"/>
      <use x="706.486328" xlink:href="#DejaVuSans-105"/>
      <use x="734.269531" xlink:href="#DejaVuSans-108"/>
      <use x="762.052734" xlink:href="#DejaVuSans-41"/>
     </g>
    </g>
    <g id="patch_79">
     <path d="M 314.269063 355.664297 
L 333.269063 355.664297 
L 333.269063 349.014297 
L 314.269063 349.014297 
z
" style="fill:#ffd92f;stroke:#ffffff;stroke-linejoin:miter;"/>
    </g>
    <g id="text_24">
     <!-- Others -->
     <defs>
      <path d="M 54.890625 33.015625 
L 54.890625 0 
L 45.90625 0 
L 45.90625 32.71875 
Q 45.90625 40.484375 42.875 44.328125 
Q 39.84375 48.1875 33.796875 48.1875 
Q 26.515625 48.1875 22.3125 43.546875 
Q 18.109375 38.921875 18.109375 30.90625 
L 18.109375 0 
L 9.078125 0 
L 9.078125 75.984375 
L 18.109375 75.984375 
L 18.109375 46.1875 
Q 21.34375 51.125 25.703125 53.5625 
Q 30.078125 56 35.796875 56 
Q 45.21875 56 50.046875 50.171875 
Q 54.890625 44.34375 54.890625 33.015625 
z
" id="DejaVuSans-104"/>
     </defs>
     <g style="fill:#262626;" transform="translate(340.869063 355.664297)scale(0.095 -0.095)">
      <use xlink:href="#DejaVuSans-79"/>
      <use x="78.710938" xlink:href="#DejaVuSans-116"/>
      <use x="117.919922" xlink:href="#DejaVuSans-104"/>
      <use x="181.298828" xlink:href="#DejaVuSans-101"/>
      <use x="242.822266" xlink:href="#DejaVuSans-114"/>
      <use x="283.935547" xlink:href="#DejaVuSans-115"/>
     </g>
    </g>
   </g>
  </g>
  <g id="axes_2">
   <g id="patch_80">
    <path d="M 465.605 366.19 
L 851.04 366.19 
L 851.04 27.96 
L 465.605 27.96 
z
" style="fill:#eaeaf2;"/>
   </g>
   <g id="matplotlib.axis_3">
    <g id="xtick_12">
     <g id="line2d_18">
      <path clip-path="url(#p603b09b290)" d="M 483.124773 366.19 
L 483.124773 27.96 
" style="fill:none;stroke:#ffffff;stroke-linecap:round;"/>
     </g>
     <g id="text_25">
      <!-- WellA_1 -->
      <g style="fill:#262626;" transform="translate(486.007116 418.82375)rotate(-90)scale(0.11 -0.11)">
       <use xlink:href="#DejaVuSans-87"/>
       <use x="93.001953" xlink:href="#DejaVuSans-101"/>
       <use x="154.525391" xlink:href="#DejaVuSans-108"/>
       <use x="182.308594" xlink:href="#DejaVuSans-108"/>
       <use x="210.091797" xlink:href="#DejaVuSans-65"/>
       <use x="278.5" xlink:href="#DejaVuSans-95"/>
       <use x="328.5" xlink:href="#DejaVuSans-49"/>
      </g>
     </g>
    </g>
    <g id="xtick_13">
     <g id="line2d_19">
      <path clip-path="url(#p603b09b290)" d="M 518.164318 366.19 
L 518.164318 27.96 
" style="fill:none;stroke:#ffffff;stroke-linecap:round;"/>
     </g>
     <g id="text_26">
      <!-- WellA_2 -->
      <g style="fill:#262626;" transform="translate(521.046662 418.82375)rotate(-90)scale(0.11 -0.11)">
       <use xlink:href="#DejaVuSans-87"/>
       <use x="93.001953" xlink:href="#DejaVuSans-101"/>
       <use x="154.525391" xlink:href="#DejaVuSans-108"/>
       <use x="182.308594" xlink:href="#DejaVuSans-108"/>
       <use x="210.091797" xlink:href="#DejaVuSans-65"/>
       <use x="278.5" xlink:href="#DejaVuSans-95"/>
       <use x="328.5" xlink:href="#DejaVuSans-50"/>
      </g>
     </g>
    </g>
    <g id="xtick_14">
     <g id="line2d_20">
      <path clip-path="url(#p603b09b290)" d="M 553.203864 366.19 
L 553.203864 27.96 
" style="fill:none;stroke:#ffffff;stroke-linecap:round;"/>
     </g>
     <g id="text_27">
      <!-- WellB_1 -->
      <g style="fill:#262626;" transform="translate(556.086207 418.846094)rotate(-90)scale(0.11 -0.11)">
       <use xlink:href="#DejaVuSans-87"/>
       <use x="93.001953" xlink:href="#DejaVuSans-101"/>
       <use x="154.525391" xlink:href="#DejaVuSans-108"/>
       <use x="182.308594" xlink:href="#DejaVuSans-108"/>
       <use x="210.091797" xlink:href="#DejaVuSans-66"/>
       <use x="278.695312" xlink:href="#DejaVuSans-95"/>
       <use x="328.695312" xlink:href="#DejaVuSans-49"/>
      </g>
     </g>
    </g>
    <g id="xtick_15">
     <g id="line2d_21">
      <path clip-path="url(#p603b09b290)" d="M 588.243409 366.19 
L 588.243409 27.96 
" style="fill:none;stroke:#ffffff;stroke-linecap:round;"/>
     </g>
     <g id="text_28">
      <!-- WellB_2 -->
      <g style="fill:#262626;" transform="translate(591.125753 418.846094)rotate(-90)scale(0.11 -0.11)">
       <use xlink:href="#DejaVuSans-87"/>
       <use x="93.001953" xlink:href="#DejaVuSans-101"/>
       <use x="154.525391" xlink:href="#DejaVuSans-108"/>
       <use x="182.308594" xlink:href="#DejaVuSans-108"/>
       <use x="210.091797" xlink:href="#DejaVuSans-66"/>
       <use x="278.695312" xlink:href="#DejaVuSans-95"/>
       <use x="328.695312" xlink:href="#DejaVuSans-50"/>
      </g>
     </g>
    </g>
    <g id="xtick_16">
     <g id="line2d_22">
      <path clip-path="url(#p603b09b290)" d="M 623.282955 366.19 
L 623.282955 27.96 
" style="fill:none;stroke:#ffffff;stroke-linecap:round;"/>
     </g>
     <g id="text_29">
      <!-- WellC_1 -->
      <g style="fill:#262626;" transform="translate(626.165298 418.980156)rotate(-90)scale(0.11 -0.11)">
       <use xlink:href="#DejaVuSans-87"/>
       <use x="93.001953" xlink:href="#DejaVuSans-101"/>
       <use x="154.525391" xlink:href="#DejaVuSans-108"/>
       <use x="182.308594" xlink:href="#DejaVuSans-108"/>
       <use x="210.091797" xlink:href="#DejaVuSans-67"/>
       <use x="279.916016" xlink:href="#DejaVuSans-95"/>
       <use x="329.916016" xlink:href="#DejaVuSans-49"/>
      </g>
     </g>
    </g>
    <g id="xtick_17">
     <g id="line2d_23">
      <path clip-path="url(#p603b09b290)" d="M 658.3225 366.19 
L 658.3225 27.96 
" style="fill:none;stroke:#ffffff;stroke-linecap:round;"/>
     </g>
     <g id="text_30">
      <!-- WellC_2 -->
      <g style="fill:#262626;" transform="translate(661.204844 418.980156)rotate(-90)scale(0.11 -0.11)">
       <use xlink:href="#DejaVuSans-87"/>
       <use x="93.001953" xlink:href="#DejaVuSans-101"/>
       <use x="154.525391" xlink:href="#DejaVuSans-108"/>
       <use x="182.308594" xlink:href="#DejaVuSans-108"/>
       <use x="210.091797" xlink:href="#DejaVuSans-67"/>
       <use x="279.916016" xlink:href="#DejaVuSans-95"/>
       <use x="329.916016" xlink:href="#DejaVuSans-50"/>
      </g>
     </g>
    </g>
    <g id="xtick_18">
     <g id="line2d_24">
      <path clip-path="url(#p603b09b290)" d="M 693.362045 366.19 
L 693.362045 27.96 
" style="fill:none;stroke:#ffffff;stroke-linecap:round;"/>
     </g>
     <g id="text_31">
      <!-- WellD -->
      <g style="fill:#262626;" transform="translate(696.397358 407.270312)rotate(-90)scale(0.11 -0.11)">
       <use xlink:href="#DejaVuSans-87"/>
       <use x="93.001953" xlink:href="#DejaVuSans-101"/>
       <use x="154.525391" xlink:href="#DejaVuSans-108"/>
       <use x="182.308594" xlink:href="#DejaVuSans-108"/>
       <use x="210.091797" xlink:href="#DejaVuSans-68"/>
      </g>
     </g>
    </g>
    <g id="xtick_19">
     <g id="line2d_25">
      <path clip-path="url(#p603b09b290)" d="M 728.401591 366.19 
L 728.401591 27.96 
" style="fill:none;stroke:#ffffff;stroke-linecap:round;"/>
     </g>
     <g id="text_32">
      <!-- WellE -->
      <g style="fill:#262626;" transform="translate(731.436903 405.750938)rotate(-90)scale(0.11 -0.11)">
       <use xlink:href="#DejaVuSans-87"/>
       <use x="93.001953" xlink:href="#DejaVuSans-101"/>
       <use x="154.525391" xlink:href="#DejaVuSans-108"/>
       <use x="182.308594" xlink:href="#DejaVuSans-108"/>
       <use x="210.091797" xlink:href="#DejaVuSans-69"/>
      </g>
     </g>
    </g>
    <g id="xtick_20">
     <g id="line2d_26">
      <path clip-path="url(#p603b09b290)" d="M 763.441136 366.19 
L 763.441136 27.96 
" style="fill:none;stroke:#ffffff;stroke-linecap:round;"/>
     </g>
     <g id="text_33">
      <!-- WellF -->
      <g style="fill:#262626;" transform="translate(766.476449 405.127031)rotate(-90)scale(0.11 -0.11)">
       <use xlink:href="#DejaVuSans-87"/>
       <use x="93.001953" xlink:href="#DejaVuSans-101"/>
       <use x="154.525391" xlink:href="#DejaVuSans-108"/>
       <use x="182.308594" xlink:href="#DejaVuSans-108"/>
       <use x="210.091797" xlink:href="#DejaVuSans-70"/>
      </g>
     </g>
    </g>
    <g id="xtick_21">
     <g id="line2d_27">
      <path clip-path="url(#p603b09b290)" d="M 798.480682 366.19 
L 798.480682 27.96 
" style="fill:none;stroke:#ffffff;stroke-linecap:round;"/>
     </g>
     <g id="text_34">
      <!-- WellG -->
      <g style="fill:#262626;" transform="translate(801.515994 407.323594)rotate(-90)scale(0.11 -0.11)">
       <use xlink:href="#DejaVuSans-87"/>
       <use x="93.001953" xlink:href="#DejaVuSans-101"/>
       <use x="154.525391" xlink:href="#DejaVuSans-108"/>
       <use x="182.308594" xlink:href="#DejaVuSans-108"/>
       <use x="210.091797" xlink:href="#DejaVuSans-71"/>
      </g>
     </g>
    </g>
    <g id="xtick_22">
     <g id="line2d_28">
      <path clip-path="url(#p603b09b290)" d="M 833.520227 366.19 
L 833.520227 27.96 
" style="fill:none;stroke:#ffffff;stroke-linecap:round;"/>
     </g>
     <g id="text_35">
      <!-- WellH -->
      <g style="fill:#262626;" transform="translate(836.55554 407.072656)rotate(-90)scale(0.11 -0.11)">
       <use xlink:href="#DejaVuSans-87"/>
       <use x="93.001953" xlink:href="#DejaVuSans-101"/>
       <use x="154.525391" xlink:href="#DejaVuSans-108"/>
       <use x="182.308594" xlink:href="#DejaVuSans-108"/>
       <use x="210.091797" xlink:href="#DejaVuSans-72"/>
      </g>
     </g>
    </g>
   </g>
   <g id="matplotlib.axis_4">
    <g id="ytick_7">
     <g id="line2d_29">
      <path clip-path="url(#p603b09b290)" d="M 465.605 366.19 
L 851.04 366.19 
" style="fill:none;stroke:#ffffff;stroke-linecap:round;"/>
     </g>
     <g id="text_36">
      <!-- 0.0 -->
      <g style="fill:#262626;" transform="translate(438.611563 370.369141)scale(0.11 -0.11)">
       <use xlink:href="#DejaVuSans-48"/>
       <use x="63.623047" xlink:href="#DejaVuSans-46"/>
       <use x="95.410156" xlink:href="#DejaVuSans-48"/>
      </g>
     </g>
    </g>
    <g id="ytick_8">
     <g id="line2d_30">
      <path clip-path="url(#p603b09b290)" d="M 465.605 301.765238 
L 851.04 301.765238 
" style="fill:none;stroke:#ffffff;stroke-linecap:round;"/>
     </g>
     <g id="text_37">
      <!-- 0.2 -->
      <g style="fill:#262626;" transform="translate(438.611563 305.944379)scale(0.11 -0.11)">
       <use xlink:href="#DejaVuSans-48"/>
       <use x="63.623047" xlink:href="#DejaVuSans-46"/>
       <use x="95.410156" xlink:href="#DejaVuSans-50"/>
      </g>
     </g>
    </g>
    <g id="ytick_9">
     <g id="line2d_31">
      <path clip-path="url(#p603b09b290)" d="M 465.605 237.340476 
L 851.04 237.340476 
" style="fill:none;stroke:#ffffff;stroke-linecap:round;"/>
     </g>
     <g id="text_38">
      <!-- 0.4 -->
      <g style="fill:#262626;" transform="translate(438.611563 241.519617)scale(0.11 -0.11)">
       <use xlink:href="#DejaVuSans-48"/>
       <use x="63.623047" xlink:href="#DejaVuSans-46"/>
       <use x="95.410156" xlink:href="#DejaVuSans-52"/>
      </g>
     </g>
    </g>
    <g id="ytick_10">
     <g id="line2d_32">
      <path clip-path="url(#p603b09b290)" d="M 465.605 172.915714 
L 851.04 172.915714 
" style="fill:none;stroke:#ffffff;stroke-linecap:round;"/>
     </g>
     <g id="text_39">
      <!-- 0.6 -->
      <g style="fill:#262626;" transform="translate(438.611563 177.094855)scale(0.11 -0.11)">
       <use xlink:href="#DejaVuSans-48"/>
       <use x="63.623047" xlink:href="#DejaVuSans-46"/>
       <use x="95.410156" xlink:href="#DejaVuSans-54"/>
      </g>
     </g>
    </g>
    <g id="ytick_11">
     <g id="line2d_33">
      <path clip-path="url(#p603b09b290)" d="M 465.605 108.490952 
L 851.04 108.490952 
" style="fill:none;stroke:#ffffff;stroke-linecap:round;"/>
     </g>
     <g id="text_40">
      <!-- 0.8 -->
      <g style="fill:#262626;" transform="translate(438.611563 112.670093)scale(0.11 -0.11)">
       <use xlink:href="#DejaVuSans-48"/>
       <use x="63.623047" xlink:href="#DejaVuSans-46"/>
       <use x="95.410156" xlink:href="#DejaVuSans-56"/>
      </g>
     </g>
    </g>
    <g id="ytick_12">
     <g id="line2d_34">
      <path clip-path="url(#p603b09b290)" d="M 465.605 44.06619 
L 851.04 44.06619 
" style="fill:none;stroke:#ffffff;stroke-linecap:round;"/>
     </g>
     <g id="text_41">
      <!-- 1.0 -->
      <g style="fill:#262626;" transform="translate(438.611563 48.245331)scale(0.11 -0.11)">
       <use xlink:href="#DejaVuSans-49"/>
       <use x="63.623047" xlink:href="#DejaVuSans-46"/>
       <use x="95.410156" xlink:href="#DejaVuSans-48"/>
      </g>
     </g>
    </g>
   </g>
   <g id="patch_81">
    <path clip-path="url(#p603b09b290)" d="M 474.364886 366.19 
L 491.884659 366.19 
L 491.884659 44.839288 
L 474.364886 44.839288 
z
" style="fill:#66c2a5;stroke:#ffffff;stroke-linejoin:miter;"/>
   </g>
   <g id="patch_82">
    <path clip-path="url(#p603b09b290)" d="M 509.404432 366.19 
L 526.924205 366.19 
L 526.924205 45.00035 
L 509.404432 45.00035 
z
" style="fill:#66c2a5;stroke:#ffffff;stroke-linejoin:miter;"/>
   </g>
   <g id="patch_83">
    <path clip-path="url(#p603b09b290)" d="M 544.443977 366.19 
L 561.96375 366.19 
L 561.96375 44.581589 
L 544.443977 44.581589 
z
" style="fill:#66c2a5;stroke:#ffffff;stroke-linejoin:miter;"/>
   </g>
   <g id="patch_84">
    <path clip-path="url(#p603b09b290)" d="M 579.483523 366.19 
L 597.003295 366.19 
L 597.003295 85.4591 
L 579.483523 85.4591 
z
" style="fill:#66c2a5;stroke:#ffffff;stroke-linejoin:miter;"/>
   </g>
   <g id="patch_85">
    <path clip-path="url(#p603b09b290)" d="M 614.523068 366.19 
L 632.042841 366.19 
L 632.042841 46.385482 
L 614.523068 46.385482 
z
" style="fill:#66c2a5;stroke:#ffffff;stroke-linejoin:miter;"/>
   </g>
   <g id="patch_86">
    <path clip-path="url(#p603b09b290)" d="M 649.562614 366.19 
L 667.082386 366.19 
L 667.082386 45.161411 
L 649.562614 45.161411 
z
" style="fill:#66c2a5;stroke:#ffffff;stroke-linejoin:miter;"/>
   </g>
   <g id="patch_87">
    <path clip-path="url(#p603b09b290)" d="M 684.602159 366.19 
L 702.121932 366.19 
L 702.121932 150.689171 
L 684.602159 150.689171 
z
" style="fill:#66c2a5;stroke:#ffffff;stroke-linejoin:miter;"/>
   </g>
   <g id="patch_88">
    <path clip-path="url(#p603b09b290)" d="M 719.641705 366.19 
L 737.161477 366.19 
L 737.161477 44.06619 
L 719.641705 44.06619 
z
" style="fill:#66c2a5;stroke:#ffffff;stroke-linejoin:miter;"/>
   </g>
   <g id="patch_89">
    <path clip-path="url(#p603b09b290)" d="M 754.68125 366.19 
L 772.201023 366.19 
L 772.201023 44.098403 
L 754.68125 44.098403 
z
" style="fill:#66c2a5;stroke:#ffffff;stroke-linejoin:miter;"/>
   </g>
   <g id="patch_90">
    <path clip-path="url(#p603b09b290)" d="M 789.720795 366.19 
L 807.240568 366.19 
L 807.240568 44.32389 
L 789.720795 44.32389 
z
" style="fill:#66c2a5;stroke:#ffffff;stroke-linejoin:miter;"/>
   </g>
   <g id="patch_91">
    <path clip-path="url(#p603b09b290)" d="M 824.760341 366.19 
L 842.280114 366.19 
L 842.280114 45.386898 
L 824.760341 45.386898 
z
" style="fill:#66c2a5;stroke:#ffffff;stroke-linejoin:miter;"/>
   </g>
   <g id="patch_92">
    <path clip-path="url(#p603b09b290)" d="M 474.364886 44.839288 
L 491.884659 44.839288 
L 491.884659 44.74265 
L 474.364886 44.74265 
z
" style="fill:#fc8d62;stroke:#ffffff;stroke-linejoin:miter;"/>
   </g>
   <g id="patch_93">
    <path clip-path="url(#p603b09b290)" d="M 509.404432 45.00035 
L 526.924205 45.00035 
L 526.924205 44.452739 
L 509.404432 44.452739 
z
" style="fill:#fc8d62;stroke:#ffffff;stroke-linejoin:miter;"/>
   </g>
   <g id="patch_94">
    <path clip-path="url(#p603b09b290)" d="M 544.443977 366.19 
L 561.96375 366.19 
L 561.96375 366.19 
L 544.443977 366.19 
z
" style="fill:#fc8d62;stroke:#ffffff;stroke-linejoin:miter;"/>
   </g>
   <g id="patch_95">
    <path clip-path="url(#p603b09b290)" d="M 579.483523 85.4591 
L 597.003295 85.4591 
L 597.003295 44.774863 
L 579.483523 44.774863 
z
" style="fill:#fc8d62;stroke:#ffffff;stroke-linejoin:miter;"/>
   </g>
   <g id="patch_96">
    <path clip-path="url(#p603b09b290)" d="M 614.523068 46.385482 
L 632.042841 46.385482 
L 632.042841 46.288845 
L 614.523068 46.288845 
z
" style="fill:#fc8d62;stroke:#ffffff;stroke-linejoin:miter;"/>
   </g>
   <g id="patch_97">
    <path clip-path="url(#p603b09b290)" d="M 649.562614 366.19 
L 667.082386 366.19 
L 667.082386 366.19 
L 649.562614 366.19 
z
" style="fill:#fc8d62;stroke:#ffffff;stroke-linejoin:miter;"/>
   </g>
   <g id="patch_98">
    <path clip-path="url(#p603b09b290)" d="M 684.602159 150.689171 
L 702.121932 150.689171 
L 702.121932 44.32389 
L 684.602159 44.32389 
z
" style="fill:#fc8d62;stroke:#ffffff;stroke-linejoin:miter;"/>
   </g>
   <g id="patch_99">
    <path clip-path="url(#p603b09b290)" d="M 719.641705 366.19 
L 737.161477 366.19 
L 737.161477 366.19 
L 719.641705 366.19 
z
" style="fill:#fc8d62;stroke:#ffffff;stroke-linejoin:miter;"/>
   </g>
   <g id="patch_100">
    <path clip-path="url(#p603b09b290)" d="M 754.68125 366.19 
L 772.201023 366.19 
L 772.201023 366.19 
L 754.68125 366.19 
z
" style="fill:#fc8d62;stroke:#ffffff;stroke-linejoin:miter;"/>
   </g>
   <g id="patch_101">
    <path clip-path="url(#p603b09b290)" d="M 789.720795 366.19 
L 807.240568 366.19 
L 807.240568 366.19 
L 789.720795 366.19 
z
" style="fill:#fc8d62;stroke:#ffffff;stroke-linejoin:miter;"/>
   </g>
   <g id="patch_102">
    <path clip-path="url(#p603b09b290)" d="M 824.760341 45.386898 
L 842.280114 45.386898 
L 842.280114 45.354686 
L 824.760341 45.354686 
z
" style="fill:#fc8d62;stroke:#ffffff;stroke-linejoin:miter;"/>
   </g>
   <g id="patch_103">
    <path clip-path="url(#p603b09b290)" d="M 474.364886 44.74265 
L 491.884659 44.74265 
L 491.884659 44.356102 
L 474.364886 44.356102 
z
" style="fill:#8da0cb;stroke:#ffffff;stroke-linejoin:miter;"/>
   </g>
   <g id="patch_104">
    <path clip-path="url(#p603b09b290)" d="M 509.404432 44.452739 
L 526.924205 44.452739 
L 526.924205 44.420527 
L 509.404432 44.420527 
z
" style="fill:#8da0cb;stroke:#ffffff;stroke-linejoin:miter;"/>
   </g>
   <g id="patch_105">
    <path clip-path="url(#p603b09b290)" d="M 544.443977 44.581589 
L 561.96375 44.581589 
L 561.96375 44.162828 
L 544.443977 44.162828 
z
" style="fill:#8da0cb;stroke:#ffffff;stroke-linejoin:miter;"/>
   </g>
   <g id="patch_106">
    <path clip-path="url(#p603b09b290)" d="M 579.483523 44.774863 
L 597.003295 44.774863 
L 597.003295 44.581589 
L 579.483523 44.581589 
z
" style="fill:#8da0cb;stroke:#ffffff;stroke-linejoin:miter;"/>
   </g>
   <g id="patch_107">
    <path clip-path="url(#p603b09b290)" d="M 614.523068 46.288845 
L 632.042841 46.288845 
L 632.042841 45.709022 
L 614.523068 45.709022 
z
" style="fill:#8da0cb;stroke:#ffffff;stroke-linejoin:miter;"/>
   </g>
   <g id="patch_108">
    <path clip-path="url(#p603b09b290)" d="M 649.562614 45.161411 
L 667.082386 45.161411 
L 667.082386 45.064774 
L 649.562614 45.064774 
z
" style="fill:#8da0cb;stroke:#ffffff;stroke-linejoin:miter;"/>
   </g>
   <g id="patch_109">
    <path clip-path="url(#p603b09b290)" d="M 684.602159 44.32389 
L 702.121932 44.32389 
L 702.121932 44.19504 
L 684.602159 44.19504 
z
" style="fill:#8da0cb;stroke:#ffffff;stroke-linejoin:miter;"/>
   </g>
   <g id="patch_110">
    <path clip-path="url(#p603b09b290)" d="M 719.641705 366.19 
L 737.161477 366.19 
L 737.161477 366.19 
L 719.641705 366.19 
z
" style="fill:#8da0cb;stroke:#ffffff;stroke-linejoin:miter;"/>
   </g>
   <g id="patch_111">
    <path clip-path="url(#p603b09b290)" d="M 754.68125 44.098403 
L 772.201023 44.098403 
L 772.201023 44.06619 
L 754.68125 44.06619 
z
" style="fill:#8da0cb;stroke:#ffffff;stroke-linejoin:miter;"/>
   </g>
   <g id="patch_112">
    <path clip-path="url(#p603b09b290)" d="M 789.720795 366.19 
L 807.240568 366.19 
L 807.240568 366.19 
L 789.720795 366.19 
z
" style="fill:#8da0cb;stroke:#ffffff;stroke-linejoin:miter;"/>
   </g>
   <g id="patch_113">
    <path clip-path="url(#p603b09b290)" d="M 824.760341 45.354686 
L 842.280114 45.354686 
L 842.280114 44.130615 
L 824.760341 44.130615 
z
" style="fill:#8da0cb;stroke:#ffffff;stroke-linejoin:miter;"/>
   </g>
   <g id="patch_114">
    <path clip-path="url(#p603b09b290)" d="M 474.364886 366.19 
L 491.884659 366.19 
L 491.884659 366.19 
L 474.364886 366.19 
z
" style="fill:#e78ac3;stroke:#ffffff;stroke-linejoin:miter;"/>
   </g>
   <g id="patch_115">
    <path clip-path="url(#p603b09b290)" d="M 509.404432 366.19 
L 526.924205 366.19 
L 526.924205 366.19 
L 509.404432 366.19 
z
" style="fill:#e78ac3;stroke:#ffffff;stroke-linejoin:miter;"/>
   </g>
   <g id="patch_116">
    <path clip-path="url(#p603b09b290)" d="M 544.443977 366.19 
L 561.96375 366.19 
L 561.96375 366.19 
L 544.443977 366.19 
z
" style="fill:#e78ac3;stroke:#ffffff;stroke-linejoin:miter;"/>
   </g>
   <g id="patch_117">
    <path clip-path="url(#p603b09b290)" d="M 579.483523 366.19 
L 597.003295 366.19 
L 597.003295 366.19 
L 579.483523 366.19 
z
" style="fill:#e78ac3;stroke:#ffffff;stroke-linejoin:miter;"/>
   </g>
   <g id="patch_118">
    <path clip-path="url(#p603b09b290)" d="M 614.523068 366.19 
L 632.042841 366.19 
L 632.042841 366.19 
L 614.523068 366.19 
z
" style="fill:#e78ac3;stroke:#ffffff;stroke-linejoin:miter;"/>
   </g>
   <g id="patch_119">
    <path clip-path="url(#p603b09b290)" d="M 649.562614 45.064774 
L 667.082386 45.064774 
L 667.082386 44.06619 
L 649.562614 44.06619 
z
" style="fill:#e78ac3;stroke:#ffffff;stroke-linejoin:miter;"/>
   </g>
   <g id="patch_120">
    <path clip-path="url(#p603b09b290)" d="M 684.602159 366.19 
L 702.121932 366.19 
L 702.121932 366.19 
L 684.602159 366.19 
z
" style="fill:#e78ac3;stroke:#ffffff;stroke-linejoin:miter;"/>
   </g>
   <g id="patch_121">
    <path clip-path="url(#p603b09b290)" d="M 719.641705 366.19 
L 737.161477 366.19 
L 737.161477 366.19 
L 719.641705 366.19 
z
" style="fill:#e78ac3;stroke:#ffffff;stroke-linejoin:miter;"/>
   </g>
   <g id="patch_122">
    <path clip-path="url(#p603b09b290)" d="M 754.68125 366.19 
L 772.201023 366.19 
L 772.201023 366.19 
L 754.68125 366.19 
z
" style="fill:#e78ac3;stroke:#ffffff;stroke-linejoin:miter;"/>
   </g>
   <g id="patch_123">
    <path clip-path="url(#p603b09b290)" d="M 789.720795 44.32389 
L 807.240568 44.32389 
L 807.240568 44.06619 
L 789.720795 44.06619 
z
" style="fill:#e78ac3;stroke:#ffffff;stroke-linejoin:miter;"/>
   </g>
   <g id="patch_124">
    <path clip-path="url(#p603b09b290)" d="M 824.760341 44.130615 
L 842.280114 44.130615 
L 842.280114 44.098403 
L 824.760341 44.098403 
z
" style="fill:#e78ac3;stroke:#ffffff;stroke-linejoin:miter;"/>
   </g>
   <g id="patch_125">
    <path clip-path="url(#p603b09b290)" d="M 474.364886 44.356102 
L 491.884659 44.356102 
L 491.884659 44.259465 
L 474.364886 44.259465 
z
" style="fill:#a6d854;stroke:#ffffff;stroke-linejoin:miter;"/>
   </g>
   <g id="patch_126">
    <path clip-path="url(#p603b09b290)" d="M 509.404432 44.420527 
L 526.924205 44.420527 
L 526.924205 44.06619 
L 509.404432 44.06619 
z
" style="fill:#a6d854;stroke:#ffffff;stroke-linejoin:miter;"/>
   </g>
   <g id="patch_127">
    <path clip-path="url(#p603b09b290)" d="M 544.443977 44.162828 
L 561.96375 44.162828 
L 561.96375 44.130615 
L 544.443977 44.130615 
z
" style="fill:#a6d854;stroke:#ffffff;stroke-linejoin:miter;"/>
   </g>
   <g id="patch_128">
    <path clip-path="url(#p603b09b290)" d="M 579.483523 44.581589 
L 597.003295 44.581589 
L 597.003295 44.19504 
L 579.483523 44.19504 
z
" style="fill:#a6d854;stroke:#ffffff;stroke-linejoin:miter;"/>
   </g>
   <g id="patch_129">
    <path clip-path="url(#p603b09b290)" d="M 614.523068 45.709022 
L 632.042841 45.709022 
L 632.042841 45.54796 
L 614.523068 45.54796 
z
" style="fill:#a6d854;stroke:#ffffff;stroke-linejoin:miter;"/>
   </g>
   <g id="patch_130">
    <path clip-path="url(#p603b09b290)" d="M 649.562614 366.19 
L 667.082386 366.19 
L 667.082386 366.19 
L 649.562614 366.19 
z
" style="fill:#a6d854;stroke:#ffffff;stroke-linejoin:miter;"/>
   </g>
   <g id="patch_131">
    <path clip-path="url(#p603b09b290)" d="M 684.602159 44.19504 
L 702.121932 44.19504 
L 702.121932 44.098403 
L 684.602159 44.098403 
z
" style="fill:#a6d854;stroke:#ffffff;stroke-linejoin:miter;"/>
   </g>
   <g id="patch_132">
    <path clip-path="url(#p603b09b290)" d="M 719.641705 366.19 
L 737.161477 366.19 
L 737.161477 366.19 
L 719.641705 366.19 
z
" style="fill:#a6d854;stroke:#ffffff;stroke-linejoin:miter;"/>
   </g>
   <g id="patch_133">
    <path clip-path="url(#p603b09b290)" d="M 754.68125 366.19 
L 772.201023 366.19 
L 772.201023 366.19 
L 754.68125 366.19 
z
" style="fill:#a6d854;stroke:#ffffff;stroke-linejoin:miter;"/>
   </g>
   <g id="patch_134">
    <path clip-path="url(#p603b09b290)" d="M 789.720795 366.19 
L 807.240568 366.19 
L 807.240568 366.19 
L 789.720795 366.19 
z
" style="fill:#a6d854;stroke:#ffffff;stroke-linejoin:miter;"/>
   </g>
   <g id="patch_135">
    <path clip-path="url(#p603b09b290)" d="M 824.760341 366.19 
L 842.280114 366.19 
L 842.280114 366.19 
L 824.760341 366.19 
z
" style="fill:#a6d854;stroke:#ffffff;stroke-linejoin:miter;"/>
   </g>
   <g id="patch_136">
    <path clip-path="url(#p603b09b290)" d="M 474.364886 366.19 
L 491.884659 366.19 
L 491.884659 366.19 
L 474.364886 366.19 
z
" style="fill:#ffd92f;stroke:#ffffff;stroke-linejoin:miter;"/>
   </g>
   <g id="patch_137">
    <path clip-path="url(#p603b09b290)" d="M 509.404432 366.19 
L 526.924205 366.19 
L 526.924205 366.19 
L 509.404432 366.19 
z
" style="fill:#ffd92f;stroke:#ffffff;stroke-linejoin:miter;"/>
   </g>
   <g id="patch_138">
    <path clip-path="url(#p603b09b290)" d="M 544.443977 366.19 
L 561.96375 366.19 
L 561.96375 366.19 
L 544.443977 366.19 
z
" style="fill:#ffd92f;stroke:#ffffff;stroke-linejoin:miter;"/>
   </g>
   <g id="patch_139">
    <path clip-path="url(#p603b09b290)" d="M 579.483523 366.19 
L 597.003295 366.19 
L 597.003295 366.19 
L 579.483523 366.19 
z
" style="fill:#ffd92f;stroke:#ffffff;stroke-linejoin:miter;"/>
   </g>
   <g id="patch_140">
    <path clip-path="url(#p603b09b290)" d="M 614.523068 366.19 
L 632.042841 366.19 
L 632.042841 366.19 
L 614.523068 366.19 
z
" style="fill:#ffd92f;stroke:#ffffff;stroke-linejoin:miter;"/>
   </g>
   <g id="patch_141">
    <path clip-path="url(#p603b09b290)" d="M 649.562614 366.19 
L 667.082386 366.19 
L 667.082386 366.19 
L 649.562614 366.19 
z
" style="fill:#ffd92f;stroke:#ffffff;stroke-linejoin:miter;"/>
   </g>
   <g id="patch_142">
    <path clip-path="url(#p603b09b290)" d="M 684.602159 366.19 
L 702.121932 366.19 
L 702.121932 366.19 
L 684.602159 366.19 
z
" style="fill:#ffd92f;stroke:#ffffff;stroke-linejoin:miter;"/>
   </g>
   <g id="patch_143">
    <path clip-path="url(#p603b09b290)" d="M 719.641705 366.19 
L 737.161477 366.19 
L 737.161477 366.19 
L 719.641705 366.19 
z
" style="fill:#ffd92f;stroke:#ffffff;stroke-linejoin:miter;"/>
   </g>
   <g id="patch_144">
    <path clip-path="url(#p603b09b290)" d="M 754.68125 366.19 
L 772.201023 366.19 
L 772.201023 366.19 
L 754.68125 366.19 
z
" style="fill:#ffd92f;stroke:#ffffff;stroke-linejoin:miter;"/>
   </g>
   <g id="patch_145">
    <path clip-path="url(#p603b09b290)" d="M 789.720795 366.19 
L 807.240568 366.19 
L 807.240568 366.19 
L 789.720795 366.19 
z
" style="fill:#ffd92f;stroke:#ffffff;stroke-linejoin:miter;"/>
   </g>
   <g id="patch_146">
    <path clip-path="url(#p603b09b290)" d="M 824.760341 366.19 
L 842.280114 366.19 
L 842.280114 366.19 
L 824.760341 366.19 
z
" style="fill:#ffd92f;stroke:#ffffff;stroke-linejoin:miter;"/>
   </g>
   <g id="patch_147">
    <path d="M 465.605 366.19 
L 465.605 27.96 
" style="fill:none;stroke:#ffffff;stroke-linecap:square;stroke-linejoin:miter;stroke-width:1.25;"/>
   </g>
   <g id="patch_148">
    <path d="M 851.04 366.19 
L 851.04 27.96 
" style="fill:none;stroke:#ffffff;stroke-linecap:square;stroke-linejoin:miter;stroke-width:1.25;"/>
   </g>
   <g id="patch_149">
    <path d="M 465.605 366.19 
L 851.04 366.19 
" style="fill:none;stroke:#ffffff;stroke-linecap:square;stroke-linejoin:miter;stroke-width:1.25;"/>
   </g>
   <g id="patch_150">
    <path d="M 465.605 27.96 
L 851.04 27.96 
" style="fill:none;stroke:#ffffff;stroke-linecap:square;stroke-linejoin:miter;stroke-width:1.25;"/>
   </g>
   <g id="text_42">
    <!-- ONN4MST Layer-6 -->
    <g style="fill:#262626;" transform="translate(603.9175 21.96)scale(0.12 -0.12)">
     <use xlink:href="#DejaVuSans-79"/>
     <use x="78.710938" xlink:href="#DejaVuSans-78"/>
     <use x="153.515625" xlink:href="#DejaVuSans-78"/>
     <use x="228.320312" xlink:href="#DejaVuSans-52"/>
     <use x="291.943359" xlink:href="#DejaVuSans-77"/>
     <use x="378.222656" xlink:href="#DejaVuSans-83"/>
     <use x="441.699219" xlink:href="#DejaVuSans-84"/>
     <use x="502.783203" xlink:href="#DejaVuSans-32"/>
     <use x="534.570312" xlink:href="#DejaVuSans-76"/>
     <use x="590.283203" xlink:href="#DejaVuSans-97"/>
     <use x="651.5625" xlink:href="#DejaVuSans-121"/>
     <use x="710.742188" xlink:href="#DejaVuSans-101"/>
     <use x="772.265625" xlink:href="#DejaVuSans-114"/>
     <use x="807.003906" xlink:href="#DejaVuSans-45"/>
     <use x="843.087891" xlink:href="#DejaVuSans-54"/>
    </g>
   </g>
   <g id="legend_2">
    <g id="patch_151">
     <path d="M 472.255 361.44 
L 604.883906 361.44 
Q 606.783906 361.44 606.783906 359.54 
L 606.783906 276.29625 
Q 606.783906 274.39625 604.883906 274.39625 
L 472.255 274.39625 
Q 470.355 274.39625 470.355 276.29625 
L 470.355 359.54 
Q 470.355 361.44 472.255 361.44 
z
" style="fill:#eaeaf2;opacity:0.8;stroke:#cccccc;stroke-linejoin:miter;"/>
    </g>
    <g id="patch_152">
     <path d="M 474.155 285.414766 
L 493.155 285.414766 
L 493.155 278.764766 
L 474.155 278.764766 
z
" style="fill:#66c2a5;stroke:#ffffff;stroke-linejoin:miter;"/>
    </g>
    <g id="text_43">
     <!-- Unknown -->
     <g style="fill:#262626;" transform="translate(500.755 285.414766)scale(0.095 -0.095)">
      <use xlink:href="#DejaVuSans-85"/>
      <use x="73.193359" xlink:href="#DejaVuSans-110"/>
      <use x="136.572266" xlink:href="#DejaVuSans-107"/>
      <use x="194.482422" xlink:href="#DejaVuSans-110"/>
      <use x="257.861328" xlink:href="#DejaVuSans-111"/>
      <use x="319.042969" xlink:href="#DejaVuSans-119"/>
      <use x="400.830078" xlink:href="#DejaVuSans-110"/>
     </g>
    </g>
    <g id="patch_153">
     <path d="M 474.155 299.358984 
L 493.155 299.358984 
L 493.155 292.708984 
L 474.155 292.708984 
z
" style="fill:#fc8d62;stroke:#ffffff;stroke-linejoin:miter;"/>
    </g>
    <g id="text_44">
     <!-- Photic_zone(Oceanic) -->
     <defs>
      <path d="M 5.515625 54.6875 
L 48.1875 54.6875 
L 48.1875 46.484375 
L 14.40625 7.171875 
L 48.1875 7.171875 
L 48.1875 0 
L 4.296875 0 
L 4.296875 8.203125 
L 38.09375 47.515625 
L 5.515625 47.515625 
z
" id="DejaVuSans-122"/>
     </defs>
     <g style="fill:#262626;" transform="translate(500.755 299.358984)scale(0.095 -0.095)">
      <use xlink:href="#DejaVuSans-80"/>
      <use x="60.302734" xlink:href="#DejaVuSans-104"/>
      <use x="123.681641" xlink:href="#DejaVuSans-111"/>
      <use x="184.863281" xlink:href="#DejaVuSans-116"/>
      <use x="224.072266" xlink:href="#DejaVuSans-105"/>
      <use x="251.855469" xlink:href="#DejaVuSans-99"/>
      <use x="306.835938" xlink:href="#DejaVuSans-95"/>
      <use x="356.835938" xlink:href="#DejaVuSans-122"/>
      <use x="409.326172" xlink:href="#DejaVuSans-111"/>
      <use x="470.507812" xlink:href="#DejaVuSans-110"/>
      <use x="533.886719" xlink:href="#DejaVuSans-101"/>
      <use x="595.410156" xlink:href="#DejaVuSans-40"/>
      <use x="634.423828" xlink:href="#DejaVuSans-79"/>
      <use x="713.134766" xlink:href="#DejaVuSans-99"/>
      <use x="768.115234" xlink:href="#DejaVuSans-101"/>
      <use x="829.638672" xlink:href="#DejaVuSans-97"/>
      <use x="890.917969" xlink:href="#DejaVuSans-110"/>
      <use x="954.296875" xlink:href="#DejaVuSans-105"/>
      <use x="982.080078" xlink:href="#DejaVuSans-99"/>
      <use x="1037.060547" xlink:href="#DejaVuSans-41"/>
     </g>
    </g>
    <g id="patch_154">
     <path d="M 474.155 313.567422 
L 493.155 313.567422 
L 493.155 306.917422 
L 474.155 306.917422 
z
" style="fill:#8da0cb;stroke:#ffffff;stroke-linejoin:miter;"/>
    </g>
    <g id="text_45">
     <!-- Sediment(Oceanic) -->
     <defs>
      <path d="M 45.40625 46.390625 
L 45.40625 75.984375 
L 54.390625 75.984375 
L 54.390625 0 
L 45.40625 0 
L 45.40625 8.203125 
Q 42.578125 3.328125 38.25 0.953125 
Q 33.9375 -1.421875 27.875 -1.421875 
Q 17.96875 -1.421875 11.734375 6.484375 
Q 5.515625 14.40625 5.515625 27.296875 
Q 5.515625 40.1875 11.734375 48.09375 
Q 17.96875 56 27.875 56 
Q 33.9375 56 38.25 53.625 
Q 42.578125 51.265625 45.40625 46.390625 
z
M 14.796875 27.296875 
Q 14.796875 17.390625 18.875 11.75 
Q 22.953125 6.109375 30.078125 6.109375 
Q 37.203125 6.109375 41.296875 11.75 
Q 45.40625 17.390625 45.40625 27.296875 
Q 45.40625 37.203125 41.296875 42.84375 
Q 37.203125 48.484375 30.078125 48.484375 
Q 22.953125 48.484375 18.875 42.84375 
Q 14.796875 37.203125 14.796875 27.296875 
z
" id="DejaVuSans-100"/>
     </defs>
     <g style="fill:#262626;" transform="translate(500.755 313.567422)scale(0.095 -0.095)">
      <use xlink:href="#DejaVuSans-83"/>
      <use x="63.476562" xlink:href="#DejaVuSans-101"/>
      <use x="125" xlink:href="#DejaVuSans-100"/>
      <use x="188.476562" xlink:href="#DejaVuSans-105"/>
      <use x="216.259766" xlink:href="#DejaVuSans-109"/>
      <use x="313.671875" xlink:href="#DejaVuSans-101"/>
      <use x="375.195312" xlink:href="#DejaVuSans-110"/>
      <use x="438.574219" xlink:href="#DejaVuSans-116"/>
      <use x="477.783203" xlink:href="#DejaVuSans-40"/>
      <use x="516.796875" xlink:href="#DejaVuSans-79"/>
      <use x="595.507812" xlink:href="#DejaVuSans-99"/>
      <use x="650.488281" xlink:href="#DejaVuSans-101"/>
      <use x="712.011719" xlink:href="#DejaVuSans-97"/>
      <use x="773.291016" xlink:href="#DejaVuSans-110"/>
      <use x="836.669922" xlink:href="#DejaVuSans-105"/>
      <use x="864.453125" xlink:href="#DejaVuSans-99"/>
      <use x="919.433594" xlink:href="#DejaVuSans-41"/>
     </g>
    </g>
    <g id="patch_155">
     <path d="M 474.155 327.511641 
L 493.155 327.511641 
L 493.155 320.861641 
L 474.155 320.861641 
z
" style="fill:#e78ac3;stroke:#ffffff;stroke-linejoin:miter;"/>
    </g>
    <g id="text_46">
     <!-- Sediment(Alkaline) -->
     <g style="fill:#262626;" transform="translate(500.755 327.511641)scale(0.095 -0.095)">
      <use xlink:href="#DejaVuSans-83"/>
      <use x="63.476562" xlink:href="#DejaVuSans-101"/>
      <use x="125" xlink:href="#DejaVuSans-100"/>
      <use x="188.476562" xlink:href="#DejaVuSans-105"/>
      <use x="216.259766" xlink:href="#DejaVuSans-109"/>
      <use x="313.671875" xlink:href="#DejaVuSans-101"/>
      <use x="375.195312" xlink:href="#DejaVuSans-110"/>
      <use x="438.574219" xlink:href="#DejaVuSans-116"/>
      <use x="477.783203" xlink:href="#DejaVuSans-40"/>
      <use x="516.796875" xlink:href="#DejaVuSans-65"/>
      <use x="585.205078" xlink:href="#DejaVuSans-108"/>
      <use x="612.988281" xlink:href="#DejaVuSans-107"/>
      <use x="669.148438" xlink:href="#DejaVuSans-97"/>
      <use x="730.427734" xlink:href="#DejaVuSans-108"/>
      <use x="758.210938" xlink:href="#DejaVuSans-105"/>
      <use x="785.994141" xlink:href="#DejaVuSans-110"/>
      <use x="849.373047" xlink:href="#DejaVuSans-101"/>
      <use x="910.896484" xlink:href="#DejaVuSans-41"/>
     </g>
    </g>
    <g id="patch_156">
     <path d="M 474.155 341.455859 
L 493.155 341.455859 
L 493.155 334.805859 
L 474.155 334.805859 
z
" style="fill:#a6d854;stroke:#ffffff;stroke-linejoin:miter;"/>
    </g>
    <g id="text_47">
     <!-- Agricultural_land -->
     <defs>
      <path d="M 45.40625 27.984375 
Q 45.40625 37.75 41.375 43.109375 
Q 37.359375 48.484375 30.078125 48.484375 
Q 22.859375 48.484375 18.828125 43.109375 
Q 14.796875 37.75 14.796875 27.984375 
Q 14.796875 18.265625 18.828125 12.890625 
Q 22.859375 7.515625 30.078125 7.515625 
Q 37.359375 7.515625 41.375 12.890625 
Q 45.40625 18.265625 45.40625 27.984375 
z
M 54.390625 6.78125 
Q 54.390625 -7.171875 48.1875 -13.984375 
Q 42 -20.796875 29.203125 -20.796875 
Q 24.46875 -20.796875 20.265625 -20.09375 
Q 16.0625 -19.390625 12.109375 -17.921875 
L 12.109375 -9.1875 
Q 16.0625 -11.328125 19.921875 -12.34375 
Q 23.78125 -13.375 27.78125 -13.375 
Q 36.625 -13.375 41.015625 -8.765625 
Q 45.40625 -4.15625 45.40625 5.171875 
L 45.40625 9.625 
Q 42.625 4.78125 38.28125 2.390625 
Q 33.9375 0 27.875 0 
Q 17.828125 0 11.671875 7.65625 
Q 5.515625 15.328125 5.515625 27.984375 
Q 5.515625 40.671875 11.671875 48.328125 
Q 17.828125 56 27.875 56 
Q 33.9375 56 38.28125 53.609375 
Q 42.625 51.21875 45.40625 46.390625 
L 45.40625 54.6875 
L 54.390625 54.6875 
z
" id="DejaVuSans-103"/>
      <path d="M 8.5 21.578125 
L 8.5 54.6875 
L 17.484375 54.6875 
L 17.484375 21.921875 
Q 17.484375 14.15625 20.5 10.265625 
Q 23.53125 6.390625 29.59375 6.390625 
Q 36.859375 6.390625 41.078125 11.03125 
Q 45.3125 15.671875 45.3125 23.6875 
L 45.3125 54.6875 
L 54.296875 54.6875 
L 54.296875 0 
L 45.3125 0 
L 45.3125 8.40625 
Q 42.046875 3.421875 37.71875 1 
Q 33.40625 -1.421875 27.6875 -1.421875 
Q 18.265625 -1.421875 13.375 4.4375 
Q 8.5 10.296875 8.5 21.578125 
z
M 31.109375 56 
z
" id="DejaVuSans-117"/>
     </defs>
     <g style="fill:#262626;" transform="translate(500.755 341.455859)scale(0.095 -0.095)">
      <use xlink:href="#DejaVuSans-65"/>
      <use x="68.408203" xlink:href="#DejaVuSans-103"/>
      <use x="131.884766" xlink:href="#DejaVuSans-114"/>
      <use x="172.998047" xlink:href="#DejaVuSans-105"/>
      <use x="200.78125" xlink:href="#DejaVuSans-99"/>
      <use x="255.761719" xlink:href="#DejaVuSans-117"/>
      <use x="319.140625" xlink:href="#DejaVuSans-108"/>
      <use x="346.923828" xlink:href="#DejaVuSans-116"/>
      <use x="386.132812" xlink:href="#DejaVuSans-117"/>
      <use x="449.511719" xlink:href="#DejaVuSans-114"/>
      <use x="490.625" xlink:href="#DejaVuSans-97"/>
      <use x="551.904297" xlink:href="#DejaVuSans-108"/>
      <use x="579.6875" xlink:href="#DejaVuSans-95"/>
      <use x="629.6875" xlink:href="#DejaVuSans-108"/>
      <use x="657.470703" xlink:href="#DejaVuSans-97"/>
      <use x="718.75" xlink:href="#DejaVuSans-110"/>
      <use x="782.128906" xlink:href="#DejaVuSans-100"/>
     </g>
    </g>
    <g id="patch_157">
     <path d="M 474.155 355.664297 
L 493.155 355.664297 
L 493.155 349.014297 
L 474.155 349.014297 
z
" style="fill:#ffd92f;stroke:#ffffff;stroke-linejoin:miter;"/>
    </g>
    <g id="text_48">
     <!-- Others -->
     <g style="fill:#262626;" transform="translate(500.755 355.664297)scale(0.095 -0.095)">
      <use xlink:href="#DejaVuSans-79"/>
      <use x="78.710938" xlink:href="#DejaVuSans-116"/>
      <use x="117.919922" xlink:href="#DejaVuSans-104"/>
      <use x="181.298828" xlink:href="#DejaVuSans-101"/>
      <use x="242.822266" xlink:href="#DejaVuSans-114"/>
      <use x="283.935547" xlink:href="#DejaVuSans-115"/>
     </g>
    </g>
   </g>
  </g>
 </g>
 <defs>
  <clipPath id="p48b2b4798e">
   <rect height="338.23" width="385.435" x="40.085" y="27.96"/>
  </clipPath>
  <clipPath id="p603b09b290">
   <rect height="338.23" width="385.435" x="465.605" y="27.96"/>
  </clipPath>
 </defs>
</svg>
